<svg id="Layer_1" data-name="Layer 1" xmlns="http://www.w3.org/2000/svg" width="660" height="430" viewBox="0 0 660 430"><defs><style>.cls-1{fill:#f4912d;}.cls-2{fill:#fff;}</style></defs><title>dilemma_3_forkert</title><rect class="cls-1" x="1.5" y="2" width="657" height="426" rx="36.87" ry="36.87"/><path class="cls-2" d="M84.66,159.28,92,151.84h2.6l-8.11,8.09,8.37,9.26H92.25l-7.1-8-.49.5v7.46H82.74V151.84h1.92Z"/><path class="cls-2" d="M113.08,166.48a5.28,5.28,0,0,1-4.86,3,4.84,4.84,0,0,1-4.24-2.16,4.35,4.35,0,0,1-4.06,2.16c-2.52,0-4.65-1.14-4.65-3.51s2-3.56,4.5-3.56a5,5,0,0,1,3.09.91,4.42,4.42,0,0,0-.49-2.29,2.71,2.71,0,0,0-2.58-1.25,10.76,10.76,0,0,0-3.33.68v-1.77a10.26,10.26,0,0,1,3.36-.57,4.13,4.13,0,0,1,4.08,2.18,4.73,4.73,0,0,1,4.16-2.18c3.15,0,5.15,2.31,5.15,5.85v.18h-8.43a3.55,3.55,0,0,0,3.41,3.67,3.87,3.87,0,0,0,3.33-2.29ZM97.14,166c0,.78.57,1.85,2.73,1.85s2.89-1.1,2.89-1.93-.71-1.82-2.84-1.82C98.08,164.09,97.14,165,97.14,166Zm14.14-3.38a3.11,3.11,0,0,0-3.19-2.81,3.16,3.16,0,0,0-3.18,2.81Z"/><path class="cls-2" d="M116.07,158.4h1.87v1.17a3,3,0,0,1,2.44-1.43,3.87,3.87,0,0,1,1.67.44l-.89,1.69a1.86,1.86,0,0,0-1.09-.36,1.84,1.84,0,0,0-1.51.67,4.7,4.7,0,0,0-.62,2.91v5.7h-1.87Z"/><path class="cls-2" d="M132.71,166.43a6.26,6.26,0,0,1-1.33,1.74,5.22,5.22,0,0,1-3.59,1.33c-2.6,0-5.33-1.64-5.33-5.64,0-3.23,2-5.72,5.23-5.72a4.83,4.83,0,0,1,4.08,2,7.26,7.26,0,0,1,1,4.06h-8.4a3.45,3.45,0,0,0,3.43,3.67,3.28,3.28,0,0,0,2.21-.78,4.5,4.5,0,0,0,1.12-1.49Zm-1.85-3.82a3.22,3.22,0,0,0-3.17-2.81,3.27,3.27,0,0,0-3.17,2.81Z"/><path class="cls-2" d="M140.09,160.89a1.65,1.65,0,0,0-1.51-1.09,1.19,1.19,0,0,0-1.3,1.22c0,.78.52,1,1.75,1.54a6.57,6.57,0,0,1,2.7,1.66,2.55,2.55,0,0,1,.57,1.74,3.43,3.43,0,0,1-3.72,3.54,3.86,3.86,0,0,1-3.77-2.76l1.62-.67a2.43,2.43,0,0,0,2.18,1.77,1.68,1.68,0,0,0,1.77-1.72c0-1-.73-1.35-1.74-1.79a7.1,7.1,0,0,1-2.63-1.59,2.32,2.32,0,0,1-.49-1.59,2.89,2.89,0,0,1,3.14-3,3.12,3.12,0,0,1,3,2Z"/><path class="cls-2" d="M146.72,160.11v9.08h-1.87v-9.08h-1.14V158.4h1.14v-3.9h1.87v3.9h1.87v1.71Z"/><path class="cls-2" d="M159.93,166.43a6.26,6.26,0,0,1-1.33,1.74A5.19,5.19,0,0,1,155,169.5c-2.6,0-5.33-1.64-5.33-5.64,0-3.23,2-5.72,5.22-5.72a4.83,4.83,0,0,1,4.08,2,7.26,7.26,0,0,1,1,4.06h-8.4a3.45,3.45,0,0,0,3.43,3.67,3.26,3.26,0,0,0,2.21-.78,4.24,4.24,0,0,0,1.12-1.49Zm-1.85-3.82a3.22,3.22,0,0,0-3.17-2.81,3.29,3.29,0,0,0-3.17,2.81Z"/><path class="cls-2" d="M164.74,175.17h-1.87V158.4h1.87v1.51a4.62,4.62,0,0,1,3.69-1.77c3.38,0,5.25,2.81,5.25,5.72s-1.89,5.64-5.17,5.64a4.58,4.58,0,0,1-3.77-1.82Zm7-11.31c0-2.65-1.8-4.06-3.54-4.06a3.75,3.75,0,0,0-3.59,4,3.7,3.7,0,0,0,3.62,4C170.43,167.84,171.76,166,171.76,163.86Z"/><path class="cls-2" d="M184.81,158.4h1.87v10.79h-1.87v-1.51a4.53,4.53,0,0,1-3.69,1.82c-2.73,0-5.25-1.92-5.25-5.72s2.49-5.64,5.25-5.64a4.45,4.45,0,0,1,3.69,1.79Zm-7,5.38c0,2.31,1.3,4.06,3.54,4.06s3.59-1.9,3.59-4a3.66,3.66,0,0,0-3.59-4C179.48,159.8,177.79,161.15,177.79,163.78Z"/><path class="cls-2" d="M190.22,158.4h1.87v1.17a3,3,0,0,1,2.45-1.43,3.86,3.86,0,0,1,1.66.44l-.89,1.69a1.86,1.86,0,0,0-1.09-.36,1.84,1.84,0,0,0-1.51.67,4.7,4.7,0,0,0-.62,2.91v5.7h-1.87Z"/><path class="cls-2" d="M204,150.23h1.87v9.42a3.79,3.79,0,0,1,3.1-1.51,3.66,3.66,0,0,1,3.09,1.48,4.76,4.76,0,0,1,.63,2.88v6.69h-1.88v-6.63a3.19,3.19,0,0,0-.49-2,2.11,2.11,0,0,0-1.77-.78,2.37,2.37,0,0,0-1.9.83,4.61,4.61,0,0,0-.78,2.91v5.65H204Z"/><path class="cls-2" d="M216.71,158.4l3.23,7.28,3.22-7.28h2.08l-5.3,11.49-5.31-11.49Z"/><path class="cls-2" d="M226.54,163.83a5.72,5.72,0,1,1,5.72,5.67A5.54,5.54,0,0,1,226.54,163.83Zm1.92,0a3.81,3.81,0,1,0,3.8-4A3.75,3.75,0,0,0,228.46,163.83Z"/><path class="cls-2" d="M240.84,158.4h1.87v1.17a3,3,0,0,1,2.45-1.43,3.86,3.86,0,0,1,1.66.44l-.88,1.69a1.91,1.91,0,0,0-1.1-.36,1.8,1.8,0,0,0-1.5.67,4.61,4.61,0,0,0-.63,2.91v5.7h-1.87Z"/><path class="cls-2" d="M256.46,169.19h-1.87v-19h1.87v9.68a4.65,4.65,0,0,1,3.7-1.77c3.38,0,5.25,2.81,5.25,5.72s-1.9,5.64-5.18,5.64a4.59,4.59,0,0,1-3.77-1.82Zm7-5.33c0-2.65-1.8-4.06-3.54-4.06a3.75,3.75,0,0,0-3.59,4c0,2.21,1.4,4,3.61,4S263.49,166,263.49,163.86Z"/><path class="cls-2" d="M277.84,166.43a6.26,6.26,0,0,1-1.33,1.74,5.22,5.22,0,0,1-3.59,1.33c-2.6,0-5.33-1.64-5.33-5.64,0-3.23,2-5.72,5.23-5.72a4.84,4.84,0,0,1,4.08,2,7.26,7.26,0,0,1,1,4.06h-8.4a3.45,3.45,0,0,0,3.43,3.67,3.28,3.28,0,0,0,2.21-.78,4.5,4.5,0,0,0,1.12-1.49ZM276,162.61a3.23,3.23,0,0,0-3.17-2.81,3.27,3.27,0,0,0-3.17,2.81Z"/><path class="cls-2" d="M289,158.4h1.88v10.53a6.8,6.8,0,0,1-1,4.24,5.27,5.27,0,0,1-4.32,2,5.34,5.34,0,0,1-3.85-1.46,4.86,4.86,0,0,1-1.4-3.48h1.84a3.42,3.42,0,0,0,.83,2.23,3.34,3.34,0,0,0,2.6,1,3,3,0,0,0,2.87-1.5,5.09,5.09,0,0,0,.59-2.76v-1.56a4.53,4.53,0,0,1-3.69,1.82,5.12,5.12,0,0,1-3.69-1.46,5.82,5.82,0,0,1-1.56-4.26,5.66,5.66,0,0,1,1.56-4.19,5.32,5.32,0,0,1,3.69-1.45,4.47,4.47,0,0,1,3.69,1.79Zm-5.93,2.42a4.14,4.14,0,0,0-1.09,3,4.2,4.2,0,0,0,1.22,3.17,3.27,3.27,0,0,0,2.32.89,3.19,3.19,0,0,0,2.36-.91,4.39,4.39,0,0,0,1.23-3.12,4.26,4.26,0,0,0-1.15-3.05,3.49,3.49,0,0,0-2.44-1A3.31,3.31,0,0,0,283.11,160.82Z"/><path class="cls-2" d="M302.72,158.4h1.87v10.53a6.8,6.8,0,0,1-1,4.24,5.72,5.72,0,0,1-8.16.54,4.86,4.86,0,0,1-1.41-3.48h1.85a3.2,3.2,0,0,0,3.43,3.27,3,3,0,0,0,2.86-1.5,5,5,0,0,0,.6-2.76v-1.56A4.56,4.56,0,0,1,299,169.5a5.16,5.16,0,0,1-3.7-1.46,5.86,5.86,0,0,1-1.56-4.26,5.66,5.66,0,0,1,1.56-4.19,5.35,5.35,0,0,1,3.7-1.45,4.49,4.49,0,0,1,3.69,1.79Zm-5.93,2.42a4.09,4.09,0,0,0-1.09,3,4.16,4.16,0,0,0,1.22,3.17,3.49,3.49,0,0,0,4.68,0,4.39,4.39,0,0,0,1.22-3.12,4.3,4.3,0,0,0-1.14-3.05,3.5,3.5,0,0,0-2.45-1A3.31,3.31,0,0,0,296.79,160.82Z"/><path class="cls-2" d="M317.69,166.43a6.41,6.41,0,0,1-1.32,1.74,5.22,5.22,0,0,1-3.59,1.33c-2.6,0-5.33-1.64-5.33-5.64,0-3.23,2-5.72,5.23-5.72a4.84,4.84,0,0,1,4.08,2,7.34,7.34,0,0,1,1,4.06h-8.4a3.46,3.46,0,0,0,3.44,3.67,3.3,3.3,0,0,0,2.21-.78,4.34,4.34,0,0,0,1.11-1.49Zm-1.84-3.82a3.23,3.23,0,0,0-3.17-2.81,3.29,3.29,0,0,0-3.18,2.81Z"/><path class="cls-2" d="M336.26,166.43a6.26,6.26,0,0,1-1.33,1.74,5.22,5.22,0,0,1-3.59,1.33c-2.6,0-5.33-1.64-5.33-5.64,0-3.23,2-5.72,5.23-5.72a4.83,4.83,0,0,1,4.08,2,7.26,7.26,0,0,1,1,4.06h-8.4a3.45,3.45,0,0,0,3.43,3.67,3.28,3.28,0,0,0,2.21-.78,4.5,4.5,0,0,0,1.12-1.49Zm-1.85-3.82a3.22,3.22,0,0,0-3.17-2.81,3.27,3.27,0,0,0-3.17,2.81Z"/><path class="cls-2" d="M339.2,158.4h1.87v1.17a3,3,0,0,1,2.44-1.43,3.91,3.91,0,0,1,1.67.44l-.89,1.69a1.86,1.86,0,0,0-1.09-.36,1.84,1.84,0,0,0-1.51.67,4.7,4.7,0,0,0-.62,2.91v5.7H339.2Z"/><path class="cls-2" d="M352.27,163.83A5.72,5.72,0,1,1,358,169.5,5.54,5.54,0,0,1,352.27,163.83Zm1.93,0a3.8,3.8,0,1,0,3.79-4A3.74,3.74,0,0,0,354.2,163.83Z"/><path class="cls-2" d="M367.09,158.4l3.23,7.28,3.22-7.28h2.08l-5.3,11.49L365,158.4Z"/><path class="cls-2" d="M387.16,166.43a6.41,6.41,0,0,1-1.32,1.74,5.22,5.22,0,0,1-3.59,1.33c-2.6,0-5.33-1.64-5.33-5.64,0-3.23,2-5.72,5.23-5.72a4.84,4.84,0,0,1,4.08,2,7.34,7.34,0,0,1,1,4.06h-8.4a3.46,3.46,0,0,0,3.44,3.67,3.3,3.3,0,0,0,2.21-.78,4.34,4.34,0,0,0,1.11-1.49Zm-1.84-3.82a3.23,3.23,0,0,0-3.17-2.81,3.29,3.29,0,0,0-3.18,2.81Z"/><path class="cls-2" d="M390.1,158.4H392v1.17a3,3,0,0,1,2.45-1.43,3.86,3.86,0,0,1,1.66.44l-.88,1.69a1.9,1.9,0,0,0-1.09-.36,1.81,1.81,0,0,0-1.51.67,4.68,4.68,0,0,0-.63,2.91v5.7H390.1Z"/><path class="cls-2" d="M409,153.67h-2.91l1-1.83h3.82v17.35H409Z"/><path class="cls-2" d="M426.06,153.61H420.5l-1.12,3.75a4.52,4.52,0,0,1,1.09-.11c3.48,0,5.72,2.63,5.72,6a6.07,6.07,0,0,1-6.32,6.24,5.88,5.88,0,0,1-3.87-1.35,7.31,7.31,0,0,1-1.51-1.77l1.53-1.09a4,4,0,0,0,1.17,1.4,4.25,4.25,0,0,0,2.81,1,4.31,4.31,0,0,0,4.27-4.44A4.12,4.12,0,0,0,420,159a5.62,5.62,0,0,0-3.35,1.2l2.52-8.38h6.89Z"/><path class="cls-2" d="M444.47,158.4h1.87v10.79h-1.87v-1.51a4.56,4.56,0,0,1-3.7,1.82c-2.73,0-5.25-1.92-5.25-5.72s2.5-5.64,5.25-5.64a4.49,4.49,0,0,1,3.7,1.79Zm-7,5.38c0,2.31,1.3,4.06,3.53,4.06s3.59-1.9,3.59-4a3.65,3.65,0,0,0-3.59-4C439.14,159.8,437.45,161.15,437.45,163.78Zm3.95-12a2.24,2.24,0,1,1-2.24,2.24A2.25,2.25,0,0,1,441.4,151.79Zm0,3.33a1.09,1.09,0,1,0-1.09-1.09A1.13,1.13,0,0,0,441.4,155.12Z"/><path class="cls-2" d="M449.87,158.4h1.88v1.17a3,3,0,0,1,2.44-1.43,3.83,3.83,0,0,1,1.66.44l-.88,1.69a1.9,1.9,0,0,0-1.09-.36,1.82,1.82,0,0,0-1.51.67,4.7,4.7,0,0,0-.62,2.91v5.7h-1.88Z"/><path class="cls-2" d="M458.17,166.64l1.71.62-2.62,5.88-1.22-.49Z"/><path class="cls-2" d="M469.53,158.4h1.87v1.14a3.15,3.15,0,0,1,2.68-1.4,3.24,3.24,0,0,1,2.94,1.74,3.59,3.59,0,0,1,3.25-1.74c3.2,0,3.51,2.68,3.51,4.21v6.84h-1.87v-6.56c0-1.22-.16-2.83-1.93-2.83-2.16,0-2.39,2.08-2.39,3.38v6h-1.87v-6.4c0-.75,0-3-2-3-2.14,0-2.37,2.21-2.37,3.51v5.88h-1.87Z"/><path class="cls-2" d="M495.61,158.4h1.87v10.79h-1.87v-1.51a4.56,4.56,0,0,1-3.69,1.82c-2.73,0-5.26-1.92-5.26-5.72s2.5-5.64,5.26-5.64a4.47,4.47,0,0,1,3.69,1.79Zm-7,5.38c0,2.31,1.3,4.06,3.53,4.06s3.59-1.9,3.59-4a3.65,3.65,0,0,0-3.59-4C490.28,159.8,488.59,161.15,488.59,163.78Zm4-12A2.24,2.24,0,1,1,490.3,154,2.26,2.26,0,0,1,492.54,151.79Zm0,3.33a1.09,1.09,0,1,0-1.09-1.09A1.13,1.13,0,0,0,492.54,155.12Z"/><path class="cls-2" d="M515.34,158.4h1.87v10.53a6.8,6.8,0,0,1-1,4.24,5.24,5.24,0,0,1-4.31,2,5.34,5.34,0,0,1-3.85-1.46,4.86,4.86,0,0,1-1.41-3.48h1.85a3.2,3.2,0,0,0,3.43,3.27,3,3,0,0,0,2.86-1.5,5,5,0,0,0,.6-2.76v-1.56a4.53,4.53,0,0,1-3.69,1.82A5.12,5.12,0,0,1,508,168a5.82,5.82,0,0,1-1.56-4.26,5.66,5.66,0,0,1,1.56-4.19,5.32,5.32,0,0,1,3.69-1.45,4.49,4.49,0,0,1,3.69,1.79Zm-5.93,2.42a4.09,4.09,0,0,0-1.09,3,4.16,4.16,0,0,0,1.22,3.17,3.27,3.27,0,0,0,2.32.89,3.23,3.23,0,0,0,2.36-.91,4.39,4.39,0,0,0,1.23-3.12,4.26,4.26,0,0,0-1.15-3.05,3.49,3.49,0,0,0-2.44-1A3.31,3.31,0,0,0,509.41,160.82Z"/><path class="cls-2" d="M530.32,166.43a6.45,6.45,0,0,1-1.33,1.74,5.22,5.22,0,0,1-3.59,1.33c-2.6,0-5.33-1.64-5.33-5.64,0-3.23,2-5.72,5.23-5.72a4.84,4.84,0,0,1,4.08,2,7.18,7.18,0,0,1,1,4.06H522a3.45,3.45,0,0,0,3.43,3.67,3.3,3.3,0,0,0,2.21-.78,4.5,4.5,0,0,0,1.12-1.49Zm-1.85-3.82a3.23,3.23,0,0,0-3.17-2.81,3.27,3.27,0,0,0-3.17,2.81Z"/><path class="cls-2" d="M533.25,158.4h1.88v1.17a3,3,0,0,1,2.44-1.43,3.83,3.83,0,0,1,1.66.44l-.88,1.69a1.9,1.9,0,0,0-1.09-.36,1.82,1.82,0,0,0-1.51.67,4.7,4.7,0,0,0-.62,2.91v5.7h-1.88Z"/><path class="cls-2" d="M541,158.4h1.87v1.25a3.79,3.79,0,0,1,3.1-1.51,3.66,3.66,0,0,1,3.09,1.48,4.76,4.76,0,0,1,.62,2.88v6.69h-1.87v-6.63a3.19,3.19,0,0,0-.49-2,2.13,2.13,0,0,0-1.77-.78,2.37,2.37,0,0,0-1.9.83,4.55,4.55,0,0,0-.78,2.91v5.65H541Z"/><path class="cls-2" d="M562.74,166.43a6.26,6.26,0,0,1-1.33,1.74,5.22,5.22,0,0,1-3.59,1.33c-2.6,0-5.33-1.64-5.33-5.64,0-3.23,2-5.72,5.23-5.72a4.83,4.83,0,0,1,4.08,2,7.26,7.26,0,0,1,1,4.06h-8.4a3.45,3.45,0,0,0,3.43,3.67,3.28,3.28,0,0,0,2.21-.78,4.5,4.5,0,0,0,1.12-1.49Zm-1.85-3.82a3.22,3.22,0,0,0-3.17-2.81,3.27,3.27,0,0,0-3.17,2.81Z"/><path class="cls-2" d="M90.54,181.43h1.87v19H90.54v-1.51a4.59,4.59,0,0,1-3.7,1.82c-2.73,0-5.25-1.93-5.25-5.72s2.5-5.64,5.25-5.64a4.49,4.49,0,0,1,3.7,1.79Zm-7,13.55c0,2.31,1.3,4.06,3.53,4.06s3.59-1.9,3.59-4a3.65,3.65,0,0,0-3.59-4C85.21,191,83.52,192.35,83.52,195Z"/><path class="cls-2" d="M105.51,197.63a6.41,6.41,0,0,1-1.32,1.74,5.22,5.22,0,0,1-3.59,1.33c-2.6,0-5.33-1.64-5.33-5.64,0-3.23,2-5.72,5.22-5.72a4.85,4.85,0,0,1,4.09,2,7.32,7.32,0,0,1,1,4.06h-8.4a3.47,3.47,0,0,0,3.43,3.67,3.27,3.27,0,0,0,2.21-.79,4.13,4.13,0,0,0,1.12-1.48Zm-1.84-3.82a3.24,3.24,0,0,0-3.18-2.81,3.29,3.29,0,0,0-3.17,2.81Z"/><path class="cls-2" d="M110.32,181.43v19h-1.87v-19Z"/><path class="cls-2" d="M123.43,197.63a6.45,6.45,0,0,1-1.33,1.74,5.22,5.22,0,0,1-3.59,1.33c-2.6,0-5.33-1.64-5.33-5.64,0-3.23,2-5.72,5.23-5.72a4.84,4.84,0,0,1,4.08,2,7.16,7.16,0,0,1,1,4.06h-8.39a3.46,3.46,0,0,0,3.43,3.67,3.31,3.31,0,0,0,2.21-.79,4.37,4.37,0,0,0,1.12-1.48Zm-1.85-3.82a3.23,3.23,0,0,0-3.17-2.81,3.27,3.27,0,0,0-3.17,2.81Z"/><path class="cls-2" d="M136.87,192.09a1.66,1.66,0,0,0-1.51-1.09,1.19,1.19,0,0,0-1.3,1.22c0,.78.52,1,1.74,1.54a6.5,6.5,0,0,1,2.7,1.66,2.54,2.54,0,0,1,.58,1.74,3.44,3.44,0,0,1-3.72,3.54,3.86,3.86,0,0,1-3.77-2.76l1.61-.67a2.44,2.44,0,0,0,2.18,1.77,1.68,1.68,0,0,0,1.77-1.72c0-1-.73-1.35-1.74-1.8a6.92,6.92,0,0,1-2.62-1.58,2.33,2.33,0,0,1-.5-1.59,2.9,2.9,0,0,1,3.15-3,3.1,3.1,0,0,1,3,1.95Z"/><path class="cls-2" d="M151.14,197.63a6.26,6.26,0,0,1-1.33,1.74,5.18,5.18,0,0,1-3.58,1.33c-2.6,0-5.33-1.64-5.33-5.64,0-3.23,2-5.72,5.22-5.72a4.87,4.87,0,0,1,4.09,2,7.32,7.32,0,0,1,1,4.06h-8.4a3.47,3.47,0,0,0,3.43,3.67,3.27,3.27,0,0,0,2.21-.79,4.13,4.13,0,0,0,1.12-1.48Zm-1.85-3.82a3.22,3.22,0,0,0-3.17-2.81,3.29,3.29,0,0,0-3.17,2.81Z"/><path class="cls-2" d="M156,181.43V193.6l4-4h2.45l-4.63,4.62,5.46,6.17h-2.45l-4.31-4.92-.47.47v4.45h-1.87v-19Z"/><path class="cls-2" d="M169.5,192.09A1.66,1.66,0,0,0,168,191a1.19,1.19,0,0,0-1.3,1.22c0,.78.52,1,1.74,1.54a6.5,6.5,0,0,1,2.7,1.66,2.54,2.54,0,0,1,.58,1.74A3.44,3.44,0,0,1,168,200.7a3.86,3.86,0,0,1-3.77-2.76l1.61-.67A2.44,2.44,0,0,0,168,199a1.68,1.68,0,0,0,1.77-1.72c0-1-.73-1.35-1.74-1.8a7.06,7.06,0,0,1-2.63-1.58,2.37,2.37,0,0,1-.49-1.59,2.9,2.9,0,0,1,3.15-3,3.1,3.1,0,0,1,3,1.95Z"/><path class="cls-2" d="M176.07,195.89a3.66,3.66,0,0,0,.52,2.31,2.57,2.57,0,0,0,3.8,0,3.66,3.66,0,0,0,.52-2.31V189.6h1.87v6.5a4.29,4.29,0,0,1-1,3.25,4.71,4.71,0,0,1-6.6,0,4.29,4.29,0,0,1-1-3.25v-6.5h1.87Z"/><path class="cls-2" d="M195.89,197.63a6.45,6.45,0,0,1-1.33,1.74A5.22,5.22,0,0,1,191,200.7c-2.6,0-5.33-1.64-5.33-5.64,0-3.23,2-5.72,5.23-5.72a4.84,4.84,0,0,1,4.08,2,7.16,7.16,0,0,1,1,4.06h-8.39A3.46,3.46,0,0,0,191,199a3.31,3.31,0,0,0,2.21-.79,4.37,4.37,0,0,0,1.12-1.48ZM194,193.81a3.23,3.23,0,0,0-3.17-2.81,3.27,3.27,0,0,0-3.17,2.81Z"/><path class="cls-2" d="M200.7,181.43v19h-1.88v-19Z"/><path class="cls-2" d="M206.1,181.43v19h-1.87v-19Z"/><path class="cls-2" d="M219.21,197.63a6.26,6.26,0,0,1-1.33,1.74,5.22,5.22,0,0,1-3.59,1.33c-2.6,0-5.33-1.64-5.33-5.64,0-3.23,2-5.72,5.23-5.72a4.84,4.84,0,0,1,4.08,2,7.24,7.24,0,0,1,1,4.06h-8.4a3.46,3.46,0,0,0,3.43,3.67,3.29,3.29,0,0,0,2.21-.79,4.37,4.37,0,0,0,1.12-1.48Zm-1.85-3.82a3.22,3.22,0,0,0-3.17-2.81,3.27,3.27,0,0,0-3.17,2.81Z"/><path class="cls-2" d="M230.07,200.39H228.2v-19h1.87v9.67a4.67,4.67,0,0,1,3.7-1.76c3.38,0,5.25,2.8,5.25,5.72s-1.9,5.64-5.18,5.64a4.59,4.59,0,0,1-3.77-1.82Zm7-5.33c0-2.66-1.79-4.06-3.53-4.06a3.75,3.75,0,0,0-3.59,4c0,2.21,1.41,4,3.61,4S237.09,197.21,237.09,195.06Z"/><path class="cls-2" d="M242.81,184.19a1.33,1.33,0,1,1-1.32,1.32A1.33,1.33,0,0,1,242.81,184.19Zm.94,5.41v10.79h-1.87V189.6Z"/><path class="cls-2" d="M249.16,181.43v19h-1.87v-19Z"/><path class="cls-2" d="M254.57,181.43v19h-1.88v-19Z"/><path class="cls-2" d="M267.67,197.63a6.26,6.26,0,0,1-1.33,1.74,5.19,5.19,0,0,1-3.58,1.33c-2.6,0-5.33-1.64-5.33-5.64,0-3.23,2-5.72,5.22-5.72a4.83,4.83,0,0,1,4.08,2,7.24,7.24,0,0,1,1,4.06h-8.4a3.47,3.47,0,0,0,3.43,3.67,3.27,3.27,0,0,0,2.21-.79,4.13,4.13,0,0,0,1.12-1.48Zm-1.85-3.82a3.22,3.22,0,0,0-3.17-2.81,3.29,3.29,0,0,0-3.17,2.81Z"/><path class="cls-2" d="M278.88,181.43h1.87v19h-1.87v-1.51a4.59,4.59,0,0,1-3.7,1.82c-2.73,0-5.25-1.93-5.25-5.72s2.5-5.64,5.25-5.64a4.49,4.49,0,0,1,3.7,1.79Zm-7,13.55c0,2.31,1.3,4.06,3.53,4.06s3.59-1.9,3.59-4a3.65,3.65,0,0,0-3.59-4C273.54,191,271.86,192.35,271.86,195Z"/><path class="cls-2" d="M293.85,197.63a6.41,6.41,0,0,1-1.32,1.74,5.22,5.22,0,0,1-3.59,1.33c-2.6,0-5.33-1.64-5.33-5.64,0-3.23,2-5.72,5.22-5.72a4.85,4.85,0,0,1,4.09,2,7.32,7.32,0,0,1,1,4.06h-8.4A3.47,3.47,0,0,0,289,199a3.27,3.27,0,0,0,2.21-.79,4.13,4.13,0,0,0,1.12-1.48ZM292,193.81a3.24,3.24,0,0,0-3.18-2.81,3.29,3.29,0,0,0-3.17,2.81Z"/><path class="cls-2" d="M296.79,189.6h1.87v1.17a3,3,0,0,1,2.45-1.43,3.86,3.86,0,0,1,1.66.44l-.89,1.69a1.88,1.88,0,0,0-1.09-.37,1.81,1.81,0,0,0-1.5.68,4.58,4.58,0,0,0-.63,2.91v5.7h-1.87Z"/><path class="cls-2" d="M309.87,195a5.72,5.72,0,1,1,5.72,5.67A5.54,5.54,0,0,1,309.87,195Zm1.92,0a3.8,3.8,0,1,0,3.8-4A3.75,3.75,0,0,0,311.79,195Z"/><path class="cls-2" d="M332.43,189.6h1.88v10.53a6.8,6.8,0,0,1-1,4.24,5.27,5.27,0,0,1-4.32,2,5.34,5.34,0,0,1-3.85-1.46,4.86,4.86,0,0,1-1.4-3.48h1.84a3.37,3.37,0,0,0,.84,2.23,3.32,3.32,0,0,0,2.6,1,3,3,0,0,0,2.86-1.5,5.09,5.09,0,0,0,.59-2.76v-1.56a4.55,4.55,0,0,1-3.69,1.82,5.18,5.18,0,0,1-3.69-1.46,5.84,5.84,0,0,1-1.56-4.26,5.66,5.66,0,0,1,1.56-4.19,5.34,5.34,0,0,1,3.69-1.45,4.46,4.46,0,0,1,3.69,1.79ZM326.51,192a4.63,4.63,0,0,0,.13,6.14,3.48,3.48,0,0,0,4.68,0,4.39,4.39,0,0,0,1.22-3.12,4.25,4.25,0,0,0-1.15-3,3.43,3.43,0,0,0-2.44-1A3.34,3.34,0,0,0,326.51,192Z"/><path class="cls-2" d="M344.42,189.6l3.22,7.28,3.23-7.28H353l-5.31,11.49-5.3-11.49Z"/><path class="cls-2" d="M355.86,184.19a1.33,1.33,0,1,1-1.33,1.32A1.33,1.33,0,0,1,355.86,184.19Zm.93,5.41v10.79h-1.87V189.6Z"/><path class="cls-2" d="M368.6,181.43h1.87v19H368.6v-1.51a4.57,4.57,0,0,1-3.69,1.82c-2.73,0-5.25-1.93-5.25-5.72s2.49-5.64,5.25-5.64a4.45,4.45,0,0,1,3.69,1.79Zm-7,13.55c0,2.31,1.3,4.06,3.54,4.06s3.58-1.9,3.58-4a3.65,3.65,0,0,0-3.58-4C363.27,191,361.58,192.35,361.58,195Z"/><path class="cls-2" d="M383.58,197.63a6.66,6.66,0,0,1-1.33,1.74,5.22,5.22,0,0,1-3.59,1.33c-2.6,0-5.33-1.64-5.33-5.64,0-3.23,2-5.72,5.23-5.72a4.84,4.84,0,0,1,4.08,2,7.16,7.16,0,0,1,1,4.06h-8.4a3.47,3.47,0,0,0,3.44,3.67,3.31,3.31,0,0,0,2.21-.79,4.37,4.37,0,0,0,1.12-1.48Zm-1.85-3.82a3.23,3.23,0,0,0-3.17-2.81,3.29,3.29,0,0,0-3.18,2.81Z"/><path class="cls-2" d="M385.84,195a5.72,5.72,0,1,1,5.72,5.67A5.53,5.53,0,0,1,385.84,195Zm1.92,0a3.8,3.8,0,1,0,3.8-4A3.75,3.75,0,0,0,387.76,195Z"/><path class="cls-2" d="M409.71,197.63a6.66,6.66,0,0,1-1.33,1.74,5.22,5.22,0,0,1-3.59,1.33c-2.6,0-5.33-1.64-5.33-5.64,0-3.23,2-5.72,5.23-5.72a4.84,4.84,0,0,1,4.08,2,7.32,7.32,0,0,1,1,4.06h-8.4a3.47,3.47,0,0,0,3.44,3.67,3.31,3.31,0,0,0,2.21-.79,4.21,4.21,0,0,0,1.11-1.48Zm-1.85-3.82a3.23,3.23,0,0,0-3.17-2.81,3.29,3.29,0,0,0-3.18,2.81Z"/><path class="cls-2" d="M412.64,189.6h1.87v1.17a3,3,0,0,1,2.45-1.43,3.86,3.86,0,0,1,1.66.44l-.88,1.69a1.93,1.93,0,0,0-1.09-.37,1.81,1.81,0,0,0-1.51.68,4.65,4.65,0,0,0-.63,2.91v5.7h-1.87Z"/><path class="cls-2" d="M426.4,189.6h1.87v1.14a3.14,3.14,0,0,1,2.68-1.4,3.19,3.19,0,0,1,2.93,1.74,3.6,3.6,0,0,1,3.25-1.74c3.2,0,3.51,2.67,3.51,4.21v6.84h-1.87v-6.56c0-1.22-.15-2.83-1.92-2.83-2.16,0-2.39,2.08-2.39,3.38v6h-1.88V194c0-.75,0-3-1.95-3s-2.36,2.21-2.36,3.51v5.88H426.4Z"/><path class="cls-2" d="M453.77,197.63a6.41,6.41,0,0,1-1.32,1.74,5.22,5.22,0,0,1-3.59,1.33c-2.6,0-5.33-1.64-5.33-5.64,0-3.23,2-5.72,5.23-5.72a4.84,4.84,0,0,1,4.08,2,7.32,7.32,0,0,1,1,4.06h-8.4a3.47,3.47,0,0,0,3.44,3.67,3.31,3.31,0,0,0,2.21-.79,4.21,4.21,0,0,0,1.11-1.48Zm-1.84-3.82a3.23,3.23,0,0,0-3.17-2.81,3.29,3.29,0,0,0-3.18,2.81Z"/><path class="cls-2" d="M465,181.43h1.87v19H465v-1.51a4.55,4.55,0,0,1-3.69,1.82c-2.73,0-5.25-1.93-5.25-5.72s2.49-5.64,5.25-5.64a4.45,4.45,0,0,1,3.69,1.79ZM458,195c0,2.31,1.3,4.06,3.54,4.06s3.58-1.9,3.58-4a3.65,3.65,0,0,0-3.58-4C459.65,191,458,192.35,458,195Z"/><path class="cls-2" d="M476.45,181.43h1.87v9.41a3.79,3.79,0,0,1,3.09-1.5,3.64,3.64,0,0,1,3.09,1.48,4.76,4.76,0,0,1,.63,2.88v6.69h-1.87v-6.63a3.13,3.13,0,0,0-.5-2A2.09,2.09,0,0,0,481,191a2.34,2.34,0,0,0-1.9.83,4.53,4.53,0,0,0-.78,2.91v5.65h-1.87Z"/><path class="cls-2" d="M489.6,184.19a1.33,1.33,0,1,1-1.33,1.32A1.33,1.33,0,0,1,489.6,184.19Zm.94,5.41v10.79h-1.88V189.6Z"/><path class="cls-2" d="M494.07,189.6h1.87v1.24a3.82,3.82,0,0,1,3.1-1.5,3.66,3.66,0,0,1,3.09,1.48,4.76,4.76,0,0,1,.63,2.88v6.69h-1.88v-6.63a3.19,3.19,0,0,0-.49-2,2.1,2.1,0,0,0-1.77-.78,2.37,2.37,0,0,0-1.9.83,4.59,4.59,0,0,0-.78,2.91v5.65h-1.87Z"/><path class="cls-2" d="M514.56,189.6h1.87v10.79h-1.87v-1.51a4.55,4.55,0,0,1-3.69,1.82c-2.73,0-5.25-1.93-5.25-5.72s2.49-5.64,5.25-5.64a4.45,4.45,0,0,1,3.69,1.79Zm-7,5.38c0,2.31,1.3,4.06,3.54,4.06s3.58-1.9,3.58-4a3.65,3.65,0,0,0-3.58-4C509.23,191,507.54,192.35,507.54,195Z"/><path class="cls-2" d="M520,189.6h1.87v1.24a3.81,3.81,0,0,1,3.09-1.5,3.67,3.67,0,0,1,3.1,1.48,4.84,4.84,0,0,1,.62,2.88v6.69h-1.87v-6.63a3.19,3.19,0,0,0-.49-2,2.13,2.13,0,0,0-1.77-.78,2.37,2.37,0,0,0-1.9.83,4.53,4.53,0,0,0-.78,2.91v5.65H520Z"/><path class="cls-2" d="M540.46,181.43h1.87v19h-1.87v-1.51a4.59,4.59,0,0,1-3.7,1.82c-2.73,0-5.25-1.93-5.25-5.72s2.5-5.64,5.25-5.64a4.49,4.49,0,0,1,3.7,1.79Zm-7,13.55c0,2.31,1.3,4.06,3.53,4.06s3.59-1.9,3.59-4a3.65,3.65,0,0,0-3.59-4C535.12,191,533.44,192.35,533.44,195Z"/><path class="cls-2" d="M555.43,197.63a6.41,6.41,0,0,1-1.32,1.74,5.22,5.22,0,0,1-3.59,1.33c-2.6,0-5.33-1.64-5.33-5.64,0-3.23,2-5.72,5.22-5.72a4.85,4.85,0,0,1,4.09,2,7.32,7.32,0,0,1,1,4.06h-8.4a3.47,3.47,0,0,0,3.43,3.67,3.27,3.27,0,0,0,2.21-.79,4.13,4.13,0,0,0,1.12-1.48Zm-1.84-3.82a3.24,3.24,0,0,0-3.18-2.81,3.29,3.29,0,0,0-3.17,2.81Z"/><path class="cls-2" d="M558.37,189.6h1.87v1.24a3.82,3.82,0,0,1,3.1-1.5,3.66,3.66,0,0,1,3.09,1.48,4.76,4.76,0,0,1,.62,2.88v6.69h-1.87v-6.63a3.19,3.19,0,0,0-.49-2,2.13,2.13,0,0,0-1.77-.78,2.37,2.37,0,0,0-1.9.83,4.53,4.53,0,0,0-.78,2.91v5.65h-1.87Z"/><path class="cls-2" d="M571.79,198.05a1.3,1.3,0,0,1,0,2.6,1.3,1.3,0,1,1,0-2.6Z"/><path class="cls-2" d="M85.86,214.24a6.39,6.39,0,0,1,4,1.1,4.28,4.28,0,0,1,1.56,3.58,3.92,3.92,0,0,1-1.71,3.41A4.35,4.35,0,0,1,93,226.7a4.78,4.78,0,0,1-1.77,3.74,6.29,6.29,0,0,1-4.16,1.15H82.74V214.24Zm-1.2,7.62h1.46c1,0,3.4-.21,3.4-2.88,0-2.86-2.81-2.92-3.35-2.92H84.66Zm0,7.91h2.21a4.78,4.78,0,0,0,3-.73,2.92,2.92,0,0,0,1.15-2.39,2.8,2.8,0,0,0-1.49-2.55,6,6,0,0,0-2.93-.52h-2Z"/><path class="cls-2" d="M97,215.39a1.33,1.33,0,1,1-1.32,1.32A1.33,1.33,0,0,1,97,215.39Zm.94,5.41v10.79H96.05V220.8Z"/><path class="cls-2" d="M103.33,212.63v19h-1.87v-19Z"/><path class="cls-2" d="M108.74,212.63v19h-1.88v-19Z"/><path class="cls-2" d="M121.84,228.83a6.26,6.26,0,0,1-1.33,1.74,5.19,5.19,0,0,1-3.58,1.33c-2.6,0-5.34-1.64-5.34-5.64,0-3.23,2-5.72,5.23-5.72a4.83,4.83,0,0,1,4.08,2,7.24,7.24,0,0,1,1,4.06h-8.4a3.45,3.45,0,0,0,3.43,3.66,3.32,3.32,0,0,0,2.21-.77,4.37,4.37,0,0,0,1.12-1.49ZM120,225a3.22,3.22,0,0,0-3.17-2.81,3.29,3.29,0,0,0-3.17,2.81Z"/><path class="cls-2" d="M133,212.63h1.88v19H133v-1.51a4.55,4.55,0,0,1-3.69,1.82c-2.73,0-5.25-1.93-5.25-5.72s2.5-5.64,5.25-5.64a4.45,4.45,0,0,1,3.69,1.79Zm-7,13.55c0,2.31,1.3,4,3.53,4s3.59-1.89,3.59-4a3.66,3.66,0,0,0-3.59-4C127.71,222.2,126,223.55,126,226.18Z"/><path class="cls-2" d="M148,228.83a6.41,6.41,0,0,1-1.32,1.74,5.24,5.24,0,0,1-3.59,1.33c-2.6,0-5.33-1.64-5.33-5.64,0-3.23,2-5.72,5.22-5.72a4.82,4.82,0,0,1,4.08,2,7.24,7.24,0,0,1,1,4.06h-8.4a3.46,3.46,0,0,0,3.43,3.66,3.31,3.31,0,0,0,2.21-.77,4.24,4.24,0,0,0,1.12-1.49ZM146.17,225A3.22,3.22,0,0,0,143,222.2a3.29,3.29,0,0,0-3.17,2.81Z"/><path class="cls-2" d="M151,220.8h1.87V222a3,3,0,0,1,2.44-1.43,3.87,3.87,0,0,1,1.67.44l-.89,1.69a1.88,1.88,0,0,0-1.09-.37,1.81,1.81,0,0,0-1.5.68,4.58,4.58,0,0,0-.63,2.91v5.7H151Z"/><path class="cls-2" d="M158.65,220.8h1.88V222a3.79,3.79,0,0,1,3.09-1.5,3.66,3.66,0,0,1,3.09,1.48,4.76,4.76,0,0,1,.63,2.88v6.69h-1.87V225a3.2,3.2,0,0,0-.5-2,2.09,2.09,0,0,0-1.76-.78,2.34,2.34,0,0,0-1.9.83,4.55,4.55,0,0,0-.78,2.91v5.65h-1.88Z"/><path class="cls-2" d="M180.44,228.83a6.41,6.41,0,0,1-1.32,1.74,5.22,5.22,0,0,1-3.59,1.33c-2.6,0-5.33-1.64-5.33-5.64,0-3.23,2-5.72,5.22-5.72a4.85,4.85,0,0,1,4.09,2,7.32,7.32,0,0,1,1,4.06h-8.4a3.46,3.46,0,0,0,3.43,3.66,3.31,3.31,0,0,0,2.21-.77,4.24,4.24,0,0,0,1.12-1.49ZM178.6,225a3.24,3.24,0,0,0-3.18-2.81,3.29,3.29,0,0,0-3.17,2.81Z"/><path class="cls-2" d="M199,228.83a6.45,6.45,0,0,1-1.33,1.74,5.22,5.22,0,0,1-3.59,1.33c-2.6,0-5.33-1.64-5.33-5.64,0-3.23,2-5.72,5.23-5.72a4.84,4.84,0,0,1,4.08,2,7.16,7.16,0,0,1,1,4.06h-8.39a3.45,3.45,0,0,0,3.43,3.66,3.34,3.34,0,0,0,2.21-.77,4.5,4.5,0,0,0,1.12-1.49ZM197.16,225A3.23,3.23,0,0,0,194,222.2a3.27,3.27,0,0,0-3.17,2.81Z"/><path class="cls-2" d="M203.82,212.63v19h-1.88v-19Z"/><path class="cls-2" d="M209.22,212.63v19h-1.87v-19Z"/><path class="cls-2" d="M222.33,228.83a6.26,6.26,0,0,1-1.33,1.74,5.22,5.22,0,0,1-3.59,1.33c-2.6,0-5.33-1.64-5.33-5.64,0-3.23,2-5.72,5.23-5.72a4.83,4.83,0,0,1,4.08,2,7.24,7.24,0,0,1,1,4.06H214a3.45,3.45,0,0,0,3.43,3.66,3.32,3.32,0,0,0,2.21-.77,4.5,4.5,0,0,0,1.12-1.49ZM220.48,225a3.23,3.23,0,0,0-3.17-2.81,3.27,3.27,0,0,0-3.17,2.81Z"/><path class="cls-2" d="M225.26,220.8h1.88V222a3,3,0,0,1,2.44-1.43,3.91,3.91,0,0,1,1.67.44l-.89,1.69a1.9,1.9,0,0,0-1.09-.37,1.83,1.83,0,0,0-1.51.68,4.68,4.68,0,0,0-.62,2.91v5.7h-1.88Z"/><path class="cls-2" d="M239.54,220.8l3.22,7.28L246,220.8h2.08l-5.31,11.49-5.3-11.49Z"/><path class="cls-2" d="M251,215.39a1.33,1.33,0,1,1-1.33,1.32A1.33,1.33,0,0,1,251,215.39Zm.93,5.41v10.79H250V220.8Z"/><path class="cls-2" d="M263.72,212.63h1.87v19h-1.87v-1.51A4.59,4.59,0,0,1,260,231.9c-2.73,0-5.26-1.93-5.26-5.72s2.5-5.64,5.26-5.64a4.47,4.47,0,0,1,3.69,1.79Zm-7,13.55c0,2.31,1.3,4,3.53,4s3.59-1.89,3.59-4a3.65,3.65,0,0,0-3.59-4C258.39,222.2,256.7,223.55,256.7,226.18Z"/><path class="cls-2" d="M278.69,228.83a6.41,6.41,0,0,1-1.32,1.74,5.22,5.22,0,0,1-3.59,1.33c-2.6,0-5.33-1.64-5.33-5.64,0-3.23,2-5.72,5.23-5.72a4.84,4.84,0,0,1,4.08,2,7.32,7.32,0,0,1,1,4.06h-8.4a3.46,3.46,0,0,0,3.44,3.66,3.34,3.34,0,0,0,2.21-.77,4.34,4.34,0,0,0,1.11-1.49ZM276.85,225a3.23,3.23,0,0,0-3.17-2.81A3.29,3.29,0,0,0,270.5,225Z"/><path class="cls-2" d="M281,226.23a5.72,5.72,0,1,1,5.72,5.67A5.54,5.54,0,0,1,281,226.23Zm1.92,0a3.8,3.8,0,1,0,3.8-4A3.74,3.74,0,0,0,282.88,226.23Z"/><path class="cls-2" d="M304.82,228.83a6.41,6.41,0,0,1-1.32,1.74,5.22,5.22,0,0,1-3.59,1.33c-2.6,0-5.33-1.64-5.33-5.64,0-3.23,2-5.72,5.22-5.72a4.85,4.85,0,0,1,4.09,2,7.32,7.32,0,0,1,1,4.06h-8.4a3.46,3.46,0,0,0,3.44,3.66,3.3,3.3,0,0,0,2.2-.77,4.24,4.24,0,0,0,1.12-1.49ZM303,225a3.23,3.23,0,0,0-3.18-2.81,3.29,3.29,0,0,0-3.17,2.81Z"/><path class="cls-2" d="M307.76,220.8h1.87V222a3,3,0,0,1,2.45-1.43,3.86,3.86,0,0,1,1.66.44l-.88,1.69a1.93,1.93,0,0,0-1.1-.37,1.81,1.81,0,0,0-1.5.68,4.65,4.65,0,0,0-.63,2.91v5.7h-1.87Z"/><path class="cls-2" d="M315.46,220.8h1.87V222a3.81,3.81,0,0,1,3.09-1.5,3.67,3.67,0,0,1,3.1,1.48,4.84,4.84,0,0,1,.62,2.88v6.69h-1.87V225a3.19,3.19,0,0,0-.49-2,2.13,2.13,0,0,0-1.77-.78,2.35,2.35,0,0,0-1.9.83,4.55,4.55,0,0,0-.78,2.91v5.65h-1.87Z"/><path class="cls-2" d="M337.24,228.83a6.41,6.41,0,0,1-1.32,1.74,5.22,5.22,0,0,1-3.59,1.33c-2.6,0-5.33-1.64-5.33-5.64,0-3.23,2-5.72,5.23-5.72a4.84,4.84,0,0,1,4.08,2,7.24,7.24,0,0,1,1,4.06h-8.4a3.46,3.46,0,0,0,3.44,3.66,3.34,3.34,0,0,0,2.21-.77,4.34,4.34,0,0,0,1.11-1.49ZM335.4,225a3.23,3.23,0,0,0-3.17-2.81,3.29,3.29,0,0,0-3.18,2.81Z"/><path class="cls-2" d="M346.24,220.8h1.87v1.14a3.15,3.15,0,0,1,2.68-1.4,3.23,3.23,0,0,1,2.94,1.74,3.59,3.59,0,0,1,3.25-1.74c3.2,0,3.51,2.67,3.51,4.21v6.84h-1.87V225c0-1.23-.16-2.84-1.93-2.84-2.16,0-2.39,2.08-2.39,3.38v6h-1.87v-6.4c0-.75,0-3-1.95-3-2.13,0-2.37,2.21-2.37,3.51v5.88h-1.87Z"/><path class="cls-2" d="M372.32,220.8h1.87v10.79h-1.87v-1.51a4.59,4.59,0,0,1-3.69,1.82c-2.73,0-5.26-1.93-5.26-5.72s2.5-5.64,5.26-5.64a4.47,4.47,0,0,1,3.69,1.79Zm-7,5.38c0,2.31,1.3,4,3.53,4s3.59-1.89,3.59-4a3.65,3.65,0,0,0-3.59-4C367,222.2,365.3,223.55,365.3,226.18Zm3.95-12a2.24,2.24,0,1,1-2.24,2.24A2.26,2.26,0,0,1,369.25,214.19Zm0,3.33a1.09,1.09,0,1,0-1.09-1.09A1.13,1.13,0,0,0,369.25,217.52Z"/><path class="cls-2" d="M384.72,215.39a1.33,1.33,0,1,1-1.33,1.32A1.33,1.33,0,0,1,384.72,215.39Zm.94,5.41v10.79h-1.88V220.8Z"/><path class="cls-2" d="M391.06,212.63V224.8l4-4h2.44l-4.63,4.62,5.46,6.17h-2.44l-4.32-4.92-.47.47v4.45h-1.87v-19Z"/><path class="cls-2" d="M402,212.63V224.8l3.95-4h2.44l-4.63,4.62,5.46,6.17h-2.44l-4.32-4.92-.46.47v4.45h-1.88v-19Z"/><path class="cls-2" d="M420.44,228.83a6.41,6.41,0,0,1-1.32,1.74,5.22,5.22,0,0,1-3.59,1.33c-2.6,0-5.33-1.64-5.33-5.64,0-3.23,2-5.72,5.22-5.72a4.85,4.85,0,0,1,4.09,2,7.32,7.32,0,0,1,1,4.06h-8.4a3.46,3.46,0,0,0,3.43,3.66,3.31,3.31,0,0,0,2.21-.77,4.24,4.24,0,0,0,1.12-1.49ZM418.6,225a3.23,3.23,0,0,0-3.18-2.81,3.29,3.29,0,0,0-3.17,2.81Z"/><path class="cls-2" d="M430,220.8l3.22,7.28,3.23-7.28h2.08l-5.31,11.49-5.3-11.49Z"/><path class="cls-2" d="M441.4,215.39a1.33,1.33,0,1,1-1.33,1.32A1.33,1.33,0,0,1,441.4,215.39Zm.93,5.41v10.79h-1.87V220.8Z"/><path class="cls-2" d="M454.14,212.63H456v19h-1.87v-1.51a4.59,4.59,0,0,1-3.69,1.82c-2.73,0-5.26-1.93-5.26-5.72s2.5-5.64,5.26-5.64a4.47,4.47,0,0,1,3.69,1.79Zm-7,13.55c0,2.31,1.3,4,3.53,4s3.59-1.89,3.59-4a3.65,3.65,0,0,0-3.59-4C448.81,222.2,447.12,223.55,447.12,226.18Z"/><path class="cls-2" d="M469.11,228.83a6.41,6.41,0,0,1-1.32,1.74,5.22,5.22,0,0,1-3.59,1.33c-2.6,0-5.33-1.64-5.33-5.64,0-3.23,2-5.72,5.23-5.72a4.84,4.84,0,0,1,4.08,2,7.32,7.32,0,0,1,1,4.06h-8.4a3.46,3.46,0,0,0,3.44,3.66,3.34,3.34,0,0,0,2.21-.77,4.34,4.34,0,0,0,1.11-1.49ZM467.27,225a3.23,3.23,0,0,0-3.17-2.81,3.29,3.29,0,0,0-3.18,2.81Z"/><path class="cls-2" d="M472.05,220.8h1.87V222a3,3,0,0,1,2.45-1.43A3.86,3.86,0,0,1,478,221l-.88,1.69a1.93,1.93,0,0,0-1.09-.37,1.81,1.81,0,0,0-1.51.68,4.65,4.65,0,0,0-.63,2.91v5.7h-1.87Z"/><path class="cls-2" d="M488.69,228.83a6.41,6.41,0,0,1-1.32,1.74,5.22,5.22,0,0,1-3.59,1.33c-2.6,0-5.33-1.64-5.33-5.64,0-3.23,2-5.72,5.22-5.72a4.85,4.85,0,0,1,4.09,2,7.32,7.32,0,0,1,1,4.06h-8.4a3.46,3.46,0,0,0,3.43,3.66,3.31,3.31,0,0,0,2.21-.77,4.24,4.24,0,0,0,1.12-1.49ZM486.85,225a3.24,3.24,0,0,0-3.18-2.81A3.29,3.29,0,0,0,480.5,225Z"/><path class="cls-2" d="M496.08,223.29a1.66,1.66,0,0,0-1.51-1.09,1.19,1.19,0,0,0-1.3,1.22c0,.78.52,1,1.74,1.54a6.5,6.5,0,0,1,2.7,1.66,2.54,2.54,0,0,1,.58,1.74,3.44,3.44,0,0,1-3.72,3.54,3.85,3.85,0,0,1-3.77-2.76l1.61-.67a2.44,2.44,0,0,0,2.18,1.76,1.67,1.67,0,0,0,1.77-1.71c0-1-.73-1.35-1.74-1.8a7.06,7.06,0,0,1-2.63-1.58,2.37,2.37,0,0,1-.49-1.59,2.9,2.9,0,0,1,3.15-3,3.1,3.1,0,0,1,3,2Z"/><path class="cls-2" d="M510.35,228.83a6.26,6.26,0,0,1-1.33,1.74,5.19,5.19,0,0,1-3.58,1.33c-2.6,0-5.33-1.64-5.33-5.64,0-3.23,2-5.72,5.22-5.72a4.83,4.83,0,0,1,4.08,2,7.24,7.24,0,0,1,1,4.06H502a3.45,3.45,0,0,0,3.43,3.66,3.31,3.31,0,0,0,2.21-.77,4.24,4.24,0,0,0,1.12-1.49ZM508.5,225a3.22,3.22,0,0,0-3.17-2.81,3.29,3.29,0,0,0-3.17,2.81Z"/><path class="cls-2" d="M513.29,220.8h1.87V222a3.81,3.81,0,0,1,3.09-1.5,3.67,3.67,0,0,1,3.1,1.48,4.84,4.84,0,0,1,.62,2.88v6.69H520.1V225a3.19,3.19,0,0,0-.49-2,2.13,2.13,0,0,0-1.77-.78,2.37,2.37,0,0,0-1.9.83,4.55,4.55,0,0,0-.78,2.91v5.65h-1.87Z"/><path class="cls-2" d="M533.78,212.63h1.87v19h-1.87v-1.51a4.59,4.59,0,0,1-3.7,1.82c-2.73,0-5.25-1.93-5.25-5.72s2.5-5.64,5.25-5.64a4.49,4.49,0,0,1,3.7,1.79Zm-7,13.55c0,2.31,1.3,4,3.54,4s3.59-1.89,3.59-4a3.65,3.65,0,0,0-3.59-4C528.45,222.2,526.75,223.55,526.75,226.18Z"/><path class="cls-2" d="M548.75,228.83a6.26,6.26,0,0,1-1.33,1.74,5.19,5.19,0,0,1-3.58,1.33c-2.6,0-5.33-1.64-5.33-5.64,0-3.23,2-5.72,5.22-5.72a4.82,4.82,0,0,1,4.08,2,7.24,7.24,0,0,1,1,4.06h-8.4a3.46,3.46,0,0,0,3.43,3.66,3.31,3.31,0,0,0,2.21-.77,4.24,4.24,0,0,0,1.12-1.49ZM546.9,225a3.22,3.22,0,0,0-3.17-2.81,3.29,3.29,0,0,0-3.17,2.81Z"/><path class="cls-2" d="M556.13,223.29a1.64,1.64,0,0,0-1.5-1.09,1.19,1.19,0,0,0-1.3,1.22c0,.78.52,1,1.74,1.54a6.5,6.5,0,0,1,2.7,1.66,2.53,2.53,0,0,1,.57,1.74,3.43,3.43,0,0,1-3.71,3.54,3.85,3.85,0,0,1-3.77-2.76l1.61-.67a2.44,2.44,0,0,0,2.18,1.76,1.67,1.67,0,0,0,1.77-1.71c0-1-.73-1.35-1.74-1.8a7.06,7.06,0,0,1-2.63-1.58,2.37,2.37,0,0,1-.49-1.59,2.89,2.89,0,0,1,3.15-3,3.1,3.1,0,0,1,3,2Z"/><path class="cls-2" d="M84.19,253.71v9.08H82.32v-9.08H81.18V252h1.14v-3.9h1.87V252h1.87v1.71Z"/><path class="cls-2" d="M88.77,246.59a1.33,1.33,0,1,1-1.33,1.32A1.33,1.33,0,0,1,88.77,246.59ZM89.7,252v10.79H87.83V252Z"/><path class="cls-2" d="M95.11,243.83v19H93.24v-19Z"/><path class="cls-2" d="M113,252h1.87v10.79H113v-1.51a4.55,4.55,0,0,1-3.69,1.82c-2.73,0-5.25-1.93-5.25-5.72s2.49-5.64,5.25-5.64a4.45,4.45,0,0,1,3.69,1.79Zm-7,5.38c0,2.31,1.3,4.06,3.54,4.06s3.59-1.9,3.59-4a3.66,3.66,0,0,0-3.59-4C107.64,253.4,106,254.75,106,257.38Z"/><path class="cls-2" d="M118.38,252h1.87v1.25a3.79,3.79,0,0,1,3.1-1.51,3.66,3.66,0,0,1,3.09,1.48,4.76,4.76,0,0,1,.62,2.88v6.69h-1.87v-6.63a3.19,3.19,0,0,0-.49-2,2.13,2.13,0,0,0-1.77-.78,2.37,2.37,0,0,0-1.9.83,4.55,4.55,0,0,0-.78,2.91v5.65h-1.87Z"/><path class="cls-2" d="M138.87,243.83h1.87v19h-1.87v-1.51a4.59,4.59,0,0,1-3.69,1.82c-2.73,0-5.26-1.93-5.26-5.72s2.5-5.64,5.26-5.64a4.45,4.45,0,0,1,3.69,1.79Zm-7,13.55c0,2.31,1.3,4.06,3.53,4.06s3.59-1.9,3.59-4a3.65,3.65,0,0,0-3.59-4C133.54,253.4,131.85,254.75,131.85,257.38Z"/><path class="cls-2" d="M144.28,252h1.87v1.17a3,3,0,0,1,2.44-1.43,3.91,3.91,0,0,1,1.67.44l-.89,1.69a1.88,1.88,0,0,0-1.09-.37,1.84,1.84,0,0,0-1.51.68,4.7,4.7,0,0,0-.62,2.91v5.7h-1.87Z"/><path class="cls-2" d="M160.92,260a6.45,6.45,0,0,1-1.33,1.74A5.22,5.22,0,0,1,156,263.1c-2.6,0-5.33-1.64-5.33-5.64,0-3.23,2-5.72,5.23-5.72a4.84,4.84,0,0,1,4.08,2,7.16,7.16,0,0,1,1,4.06H152.6a3.46,3.46,0,0,0,3.43,3.67,3.35,3.35,0,0,0,2.21-.78,4.5,4.5,0,0,0,1.12-1.49Zm-1.85-3.82a3.23,3.23,0,0,0-3.17-2.81,3.27,3.27,0,0,0-3.17,2.81Z"/><path class="cls-2" d="M169.24,257.43A5.72,5.72,0,1,1,175,263.1,5.53,5.53,0,0,1,169.24,257.43Zm1.92,0a3.8,3.8,0,1,0,3.8-4A3.75,3.75,0,0,0,171.16,257.43Z"/><path class="cls-2" d="M191.8,252h1.88v10.53a6.8,6.8,0,0,1-1,4.24,5.27,5.27,0,0,1-4.32,2,5.34,5.34,0,0,1-3.85-1.46,4.86,4.86,0,0,1-1.4-3.48h1.84a3.37,3.37,0,0,0,.84,2.23,3.32,3.32,0,0,0,2.6,1,3,3,0,0,0,2.86-1.5,5.09,5.09,0,0,0,.59-2.76v-1.56a4.55,4.55,0,0,1-3.69,1.82,5.18,5.18,0,0,1-3.69-1.46,5.82,5.82,0,0,1-1.56-4.26,5.66,5.66,0,0,1,1.56-4.19,5.34,5.34,0,0,1,3.69-1.45,4.46,4.46,0,0,1,3.69,1.79Zm-5.92,2.42a4.06,4.06,0,0,0-1.1,3,4.13,4.13,0,0,0,1.23,3.17,3.49,3.49,0,0,0,4.68,0,4.43,4.43,0,0,0,1.22-3.12,4.26,4.26,0,0,0-1.15-3.05,3.43,3.43,0,0,0-2.44-1A3.31,3.31,0,0,0,185.88,254.42Z"/><path class="cls-2" d="M207.71,254.49a1.64,1.64,0,0,0-1.5-1.09,1.19,1.19,0,0,0-1.3,1.22c0,.78.52,1,1.74,1.54a6.5,6.5,0,0,1,2.7,1.66,2.53,2.53,0,0,1,.57,1.74,3.42,3.42,0,0,1-3.71,3.54,3.85,3.85,0,0,1-3.77-2.76l1.61-.67a2.44,2.44,0,0,0,2.18,1.77,1.67,1.67,0,0,0,1.77-1.72c0-1-.73-1.35-1.74-1.8a7.06,7.06,0,0,1-2.63-1.58,2.37,2.37,0,0,1-.49-1.59,2.89,2.89,0,0,1,3.15-3,3.1,3.1,0,0,1,3,1.95Z"/><path class="cls-2" d="M214.29,243.83V256l4-4h2.45l-4.63,4.62,5.46,6.17h-2.44l-4.32-4.92-.47.47v4.45h-1.87v-19Z"/><path class="cls-2" d="M231.66,252h1.87v10.79h-1.87v-1.51A4.55,4.55,0,0,1,228,263.1c-2.73,0-5.25-1.93-5.25-5.72s2.49-5.64,5.25-5.64a4.45,4.45,0,0,1,3.69,1.79Zm-7,5.38c0,2.31,1.3,4.06,3.54,4.06s3.58-1.9,3.58-4a3.65,3.65,0,0,0-3.58-4C226.33,253.4,224.64,254.75,224.64,257.38Z"/><path class="cls-2" d="M238.94,243.83v19h-1.87v-19Z"/><path class="cls-2" d="M253,254.49a1.66,1.66,0,0,0-1.51-1.09,1.19,1.19,0,0,0-1.3,1.22c0,.78.52,1,1.74,1.54a6.63,6.63,0,0,1,2.71,1.66,2.53,2.53,0,0,1,.57,1.74,3.43,3.43,0,0,1-3.72,3.54,3.86,3.86,0,0,1-3.77-2.76l1.61-.67a2.46,2.46,0,0,0,2.19,1.77,1.68,1.68,0,0,0,1.77-1.72c0-1-.73-1.35-1.75-1.8a6.92,6.92,0,0,1-2.62-1.58,2.33,2.33,0,0,1-.5-1.59,2.9,2.9,0,0,1,3.15-3,3.1,3.1,0,0,1,3,1.95Z"/><path class="cls-2" d="M259.56,243.83v19h-1.87v-19Z"/><path class="cls-2" d="M272.66,260a6.41,6.41,0,0,1-1.32,1.74,5.24,5.24,0,0,1-3.59,1.33c-2.6,0-5.33-1.64-5.33-5.64,0-3.23,2-5.72,5.22-5.72a4.85,4.85,0,0,1,4.09,2,7.32,7.32,0,0,1,1,4.06h-8.4a3.47,3.47,0,0,0,3.43,3.67,3.31,3.31,0,0,0,2.21-.78,4.24,4.24,0,0,0,1.12-1.49Zm-1.84-3.82a3.24,3.24,0,0,0-3.18-2.81,3.29,3.29,0,0,0-3.17,2.81Z"/><path class="cls-2" d="M277.52,253.71v9.08h-1.87v-9.08h-1.14V252h1.14v-3.9h1.87V252h1.88v1.71Z"/><path class="cls-2" d="M283.61,253.71v9.08h-1.88v-9.08h-1.14V252h1.14v-3.9h1.88V252h1.87v1.71Z"/><path class="cls-2" d="M296.81,260a6.41,6.41,0,0,1-1.32,1.74,5.22,5.22,0,0,1-3.59,1.33c-2.6,0-5.33-1.64-5.33-5.64,0-3.23,2-5.72,5.23-5.72a4.84,4.84,0,0,1,4.08,2,7.32,7.32,0,0,1,1,4.06h-8.4a3.47,3.47,0,0,0,3.44,3.67,3.35,3.35,0,0,0,2.21-.78,4.34,4.34,0,0,0,1.11-1.49ZM295,256.21a3.23,3.23,0,0,0-3.17-2.81,3.29,3.29,0,0,0-3.18,2.81Z"/><path class="cls-2" d="M304.2,254.49a1.66,1.66,0,0,0-1.51-1.09,1.19,1.19,0,0,0-1.3,1.22c0,.78.52,1,1.74,1.54a6.63,6.63,0,0,1,2.71,1.66,2.58,2.58,0,0,1,.57,1.74,3.43,3.43,0,0,1-3.72,3.54,3.86,3.86,0,0,1-3.77-2.76l1.61-.67a2.45,2.45,0,0,0,2.19,1.77,1.67,1.67,0,0,0,1.76-1.72c0-1-.72-1.35-1.74-1.8a6.92,6.92,0,0,1-2.62-1.58,2.33,2.33,0,0,1-.5-1.59,2.9,2.9,0,0,1,3.15-3,3.1,3.1,0,0,1,3,1.95Z"/><path class="cls-2" d="M309.53,260.24l1.71.62-2.62,5.88-1.22-.49Z"/><path class="cls-2" d="M320.89,243.83h1.87v9.42a3.79,3.79,0,0,1,3.1-1.51,3.66,3.66,0,0,1,3.09,1.48,4.76,4.76,0,0,1,.62,2.88v6.69H327.7v-6.63a3.19,3.19,0,0,0-.49-2,2.13,2.13,0,0,0-1.77-.78,2.37,2.37,0,0,0-1.9.83,4.55,4.55,0,0,0-.78,2.91v5.65h-1.87Z"/><path class="cls-2" d="M333.63,252l3.22,7.28,3.23-7.28h2.08l-5.31,11.49L331.55,252Z"/><path class="cls-2" d="M345.07,246.59a1.33,1.33,0,1,1-1.33,1.32A1.33,1.33,0,0,1,345.07,246.59ZM346,252v10.79h-1.87V252Z"/><path class="cls-2" d="M354,254.49a1.66,1.66,0,0,0-1.51-1.09,1.19,1.19,0,0,0-1.3,1.22c0,.78.52,1,1.74,1.54a6.5,6.5,0,0,1,2.7,1.66,2.54,2.54,0,0,1,.58,1.74,3.43,3.43,0,0,1-3.72,3.54,3.86,3.86,0,0,1-3.77-2.76l1.61-.67a2.44,2.44,0,0,0,2.18,1.77,1.67,1.67,0,0,0,1.77-1.72c0-1-.73-1.35-1.74-1.8a7.06,7.06,0,0,1-2.63-1.58,2.37,2.37,0,0,1-.49-1.59,2.9,2.9,0,0,1,3.15-3,3.1,3.1,0,0,1,3,1.95Z"/><path class="cls-2" d="M366.67,253.71v9.08H364.8v-9.08h-1V252h1v-4.71a3.73,3.73,0,0,1,1-3,3.37,3.37,0,0,1,2.16-.7,3.62,3.62,0,0,1,1.33.23v1.82a3.35,3.35,0,0,0-1.23-.23,1.3,1.3,0,0,0-1.19.57,3.17,3.17,0,0,0-.24,1.56V252h2.66v1.71Z"/><path class="cls-2" d="M370.31,257.43A5.72,5.72,0,1,1,376,263.1,5.54,5.54,0,0,1,370.31,257.43Zm1.93,0a3.8,3.8,0,1,0,3.79-4A3.74,3.74,0,0,0,372.24,257.43Z"/><path class="cls-2" d="M384.61,252h1.88v1.17a3,3,0,0,1,2.44-1.43,3.86,3.86,0,0,1,1.66.44l-.88,1.69a1.93,1.93,0,0,0-1.09-.37,1.83,1.83,0,0,0-1.51.68,4.7,4.7,0,0,0-.62,2.91v5.7h-1.88Z"/><path class="cls-2" d="M392.31,243.83h1.87v9.42a3.79,3.79,0,0,1,3.1-1.51,3.66,3.66,0,0,1,3.09,1.48,4.76,4.76,0,0,1,.62,2.88v6.69h-1.87v-6.63a3.19,3.19,0,0,0-.49-2,2.13,2.13,0,0,0-1.77-.78,2.37,2.37,0,0,0-1.9.83,4.55,4.55,0,0,0-.78,2.91v5.65h-1.87Z"/><path class="cls-2" d="M403.46,257.43a5.72,5.72,0,1,1,5.72,5.67A5.54,5.54,0,0,1,403.46,257.43Zm1.93,0a3.8,3.8,0,1,0,3.79-4A3.74,3.74,0,0,0,405.39,257.43Z"/><path class="cls-2" d="M419.63,243.83v19h-1.87v-19Z"/><path class="cls-2" d="M431.44,243.83h1.87v19h-1.87v-1.51a4.59,4.59,0,0,1-3.69,1.82c-2.73,0-5.26-1.93-5.26-5.72s2.5-5.64,5.26-5.64a4.47,4.47,0,0,1,3.69,1.79Zm-7,13.55c0,2.31,1.3,4.06,3.53,4.06s3.59-1.9,3.59-4a3.65,3.65,0,0,0-3.59-4C426.11,253.4,424.42,254.75,424.42,257.38Z"/><path class="cls-2" d="M446.41,260a6.41,6.41,0,0,1-1.32,1.74,5.22,5.22,0,0,1-3.59,1.33c-2.6,0-5.33-1.64-5.33-5.64,0-3.23,2-5.72,5.23-5.72a4.84,4.84,0,0,1,4.08,2,7.32,7.32,0,0,1,1,4.06h-8.4a3.47,3.47,0,0,0,3.44,3.67,3.35,3.35,0,0,0,2.21-.78,4.34,4.34,0,0,0,1.11-1.49Zm-1.84-3.82a3.23,3.23,0,0,0-3.17-2.81,3.29,3.29,0,0,0-3.18,2.81Z"/><path class="cls-2" d="M451.28,253.71v9.08H449.4v-9.08h-1.14V252h1.14v-3.9h1.88V252h1.87v1.71Z"/><path class="cls-2" d="M465.42,254.49a1.66,1.66,0,0,0-1.51-1.09,1.19,1.19,0,0,0-1.3,1.22c0,.78.52,1,1.74,1.54a6.63,6.63,0,0,1,2.71,1.66,2.53,2.53,0,0,1,.57,1.74,3.43,3.43,0,0,1-3.72,3.54,3.86,3.86,0,0,1-3.77-2.76l1.61-.67a2.45,2.45,0,0,0,2.19,1.77,1.68,1.68,0,0,0,1.77-1.72c0-1-.73-1.35-1.75-1.8a6.92,6.92,0,0,1-2.62-1.58,2.33,2.33,0,0,1-.5-1.59,2.9,2.9,0,0,1,3.15-3,3.1,3.1,0,0,1,3,1.95Z"/><path class="cls-2" d="M472.05,253.71v9.08h-1.87v-9.08H469V252h1.15v-3.9h1.87V252h1.87v1.71Z"/><path class="cls-2" d="M475,257.43a5.72,5.72,0,1,1,5.72,5.67A5.54,5.54,0,0,1,475,257.43Zm1.93,0a3.8,3.8,0,1,0,3.79-4A3.74,3.74,0,0,0,476.94,257.43Z"/><path class="cls-2" d="M491.18,268.77h-1.87V252h1.87v1.5a4.67,4.67,0,0,1,3.7-1.76c3.38,0,5.25,2.8,5.25,5.72s-1.9,5.64-5.17,5.64a4.6,4.6,0,0,1-3.78-1.82Zm7-11.31c0-2.66-1.8-4.06-3.54-4.06a3.75,3.75,0,0,0-3.59,4c0,2.21,1.4,4,3.62,4S498.21,259.62,498.21,257.46Z"/><path class="cls-2" d="M504.86,268.77H503V252h1.87v1.5a4.64,4.64,0,0,1,3.69-1.76c3.38,0,5.25,2.8,5.25,5.72s-1.89,5.64-5.17,5.64a4.59,4.59,0,0,1-3.77-1.82Zm7-11.31c0-2.66-1.79-4.06-3.54-4.06a3.74,3.74,0,0,0-3.58,4c0,2.21,1.4,4,3.61,4S511.88,259.62,511.88,257.46Z"/><path class="cls-2" d="M526.23,260a6.41,6.41,0,0,1-1.32,1.74,5.22,5.22,0,0,1-3.59,1.33c-2.6,0-5.33-1.64-5.33-5.64,0-3.23,2-5.72,5.22-5.72a4.85,4.85,0,0,1,4.09,2,7.32,7.32,0,0,1,1,4.06h-8.4a3.47,3.47,0,0,0,3.43,3.67,3.31,3.31,0,0,0,2.21-.78,4.24,4.24,0,0,0,1.12-1.49Zm-1.84-3.82a3.24,3.24,0,0,0-3.18-2.81,3.29,3.29,0,0,0-3.17,2.81Z"/><path class="cls-2" d="M529.17,252H531v1.17a3,3,0,0,1,2.45-1.43,3.86,3.86,0,0,1,1.66.44l-.88,1.69a1.93,1.93,0,0,0-1.1-.37,1.81,1.81,0,0,0-1.5.68,4.61,4.61,0,0,0-.63,2.91v5.7h-1.87Z"/><path class="cls-2" d="M536.81,260.45a1.3,1.3,0,1,1,0,2.6,1.3,1.3,0,1,1,0-2.6Z"/><path class="cls-2" d="M185.65,60H167.73V71.9h16.8v9h-16.8v23.52h-10.4V51h28.32Z"/><path class="cls-2" d="M249,77.74c0,16.24-11.68,27.84-28.48,27.84S192.05,94,192.05,77.74s11.68-27.92,28.48-27.92S249,61.5,249,77.74Zm-10.72,0c0-10.8-7.36-18.48-17.76-18.48s-17.76,7.68-17.76,18.48,7.36,18.4,17.76,18.4S238.29,88.54,238.29,77.74Z"/><path class="cls-2" d="M274.05,51c7.36,0,11.12,1.92,13.6,4a15.16,15.16,0,0,1,5.28,12c0,5.2-2.08,9.76-6.24,12.56a14.79,14.79,0,0,1-5.84,2.32l16.64,22.48h-13L270.29,82.94H269v21.44h-10.4V51Zm-5,24.56h3c2,0,10.24-.24,10.24-8.08s-8.16-8-10.08-8H269Z"/><path class="cls-2" d="M314.92,73.58,334.53,51h13.12L325.08,75.66l23.77,28.72H335.08l-19-23.92-1.2,1.2v22.72h-10.4V51h10.4Z"/><path class="cls-2" d="M385,60H365.8V71.9h18.4v9H365.8V95.42H385v9H355.4V51H385Z"/><path class="cls-2" d="M410.52,51c7.36,0,11.12,1.92,13.6,4a15.16,15.16,0,0,1,5.28,12c0,5.2-2.08,9.76-6.24,12.56a14.79,14.79,0,0,1-5.84,2.32L434,104.38H421L406.76,82.94h-1.28v21.44h-10.4V51Zm-5,24.56h3c2,0,10.24-.24,10.24-8.08s-8.16-8-10.08-8h-3.12Z"/><path class="cls-2" d="M457.8,60v44.4H447.4V60h-12V51h34.4v9Z"/></svg>
