<svg id="Layer_1" data-name="Layer 1" xmlns="http://www.w3.org/2000/svg" width="660" height="430" viewBox="0 0 660 430"><defs><style>.cls-1{fill:#f4912d;}.cls-2{fill:#fff;}</style></defs><title>dilemma_2_forkert</title><rect class="cls-1" x="1.5" y="2" width="657" height="426" rx="36.87" ry="36.87"/><path class="cls-2" d="M82.74,151.84h3.53a9.49,9.49,0,0,1,6.4,2,8.49,8.49,0,0,1,3,6.66,8.26,8.26,0,0,1-3,6.66c-1.59,1.35-3.25,2-6.34,2H82.74Zm1.92,15.53h1.69a7.44,7.44,0,0,0,5-1.56,6.65,6.65,0,0,0,2.34-5.28c0-4.16-2.92-6.86-7.31-6.86H84.66Z"/><path class="cls-2" d="M108.27,166.43a6.26,6.26,0,0,1-1.33,1.74,5.22,5.22,0,0,1-3.59,1.33c-2.6,0-5.33-1.64-5.33-5.64,0-3.23,2-5.72,5.23-5.72a4.83,4.83,0,0,1,4.08,2,7.26,7.26,0,0,1,1,4.06H100a3.45,3.45,0,0,0,3.43,3.67,3.28,3.28,0,0,0,2.21-.78,4.5,4.5,0,0,0,1.12-1.49Zm-1.85-3.82a3.22,3.22,0,0,0-3.17-2.81,3.27,3.27,0,0,0-3.17,2.81Z"/><path class="cls-2" d="M113.13,160.11v9.08h-1.87v-9.08h-1.15V158.4h1.15v-3.9h1.87v3.9H115v1.71Z"/><path class="cls-2" d="M132.39,166.43a6.22,6.22,0,0,1-1.32,1.74,5.22,5.22,0,0,1-3.59,1.33c-2.6,0-5.33-1.64-5.33-5.64,0-3.23,2-5.72,5.23-5.72a4.84,4.84,0,0,1,4.08,2,7.26,7.26,0,0,1,1,4.06h-8.4a3.46,3.46,0,0,0,3.44,3.67,3.3,3.3,0,0,0,2.21-.78,4.34,4.34,0,0,0,1.11-1.49Zm-1.84-3.82a3.23,3.23,0,0,0-3.17-2.81,3.27,3.27,0,0,0-3.17,2.81Z"/><path class="cls-2" d="M135.33,158.4h1.88v1.17a3,3,0,0,1,2.44-1.43,3.86,3.86,0,0,1,1.66.44l-.88,1.69a1.9,1.9,0,0,0-1.09-.36,1.82,1.82,0,0,0-1.51.67,4.7,4.7,0,0,0-.62,2.91v5.7h-1.88Z"/><path class="cls-2" d="M151,164.69a3.66,3.66,0,0,0,.52,2.31,2.56,2.56,0,0,0,3.79,0,3.66,3.66,0,0,0,.52-2.31V158.4h1.88v6.5a4.29,4.29,0,0,1-1,3.25,4.72,4.72,0,0,1-6.61,0,4.33,4.33,0,0,1-1-3.25v-6.5H151Z"/><path class="cls-2" d="M163.07,150.23v19H161.2v-19Z"/><path class="cls-2" d="M165.93,163.83a5.72,5.72,0,1,1,5.72,5.67A5.54,5.54,0,0,1,165.93,163.83Zm1.93,0a3.8,3.8,0,1,0,3.79-4A3.74,3.74,0,0,0,167.86,163.83Z"/><path class="cls-2" d="M180.75,158.4l3.23,7.28,3.22-7.28h2.08L184,169.89l-5.31-11.49Z"/><path class="cls-2" d="M193.13,150.23v19h-1.87v-19Z"/><path class="cls-2" d="M197.6,153a1.33,1.33,0,1,1-1.33,1.32A1.33,1.33,0,0,1,197.6,153Zm.94,5.41v10.79h-1.88V158.4Z"/><path class="cls-2" d="M210.34,158.4h1.87v10.53a6.8,6.8,0,0,1-1,4.24,5.24,5.24,0,0,1-4.31,2,5.34,5.34,0,0,1-3.85-1.46,4.86,4.86,0,0,1-1.41-3.48h1.85a3.2,3.2,0,0,0,3.43,3.27,3,3,0,0,0,2.86-1.5,5,5,0,0,0,.6-2.76v-1.56a4.53,4.53,0,0,1-3.69,1.82A5.12,5.12,0,0,1,203,168a5.82,5.82,0,0,1-1.56-4.26,5.66,5.66,0,0,1,1.56-4.19,5.32,5.32,0,0,1,3.69-1.45,4.49,4.49,0,0,1,3.69,1.79Zm-5.93,2.42a4.09,4.09,0,0,0-1.09,3,4.16,4.16,0,0,0,1.22,3.17,3.27,3.27,0,0,0,2.32.89,3.23,3.23,0,0,0,2.36-.91,4.39,4.39,0,0,0,1.22-3.12,4.26,4.26,0,0,0-1.14-3.05,3.49,3.49,0,0,0-2.44-1A3.31,3.31,0,0,0,204.41,160.82Z"/><path class="cls-2" d="M217.67,160.11v9.08H215.8v-9.08h-1.14V158.4h1.14v-3.9h1.87v3.9h1.87v1.71Z"/><path class="cls-2" d="M235.64,158.4h1.87v10.79h-1.87v-1.51A4.56,4.56,0,0,1,232,169.5c-2.73,0-5.26-1.92-5.26-5.72s2.5-5.64,5.26-5.64a4.47,4.47,0,0,1,3.69,1.79Zm-7,5.38c0,2.31,1.3,4.06,3.53,4.06s3.59-1.9,3.59-4a3.65,3.65,0,0,0-3.59-4C230.31,159.8,228.62,161.15,228.62,163.78Z"/><path class="cls-2" d="M243,160.11v9.08H241.1v-9.08H240V158.4h1.15v-3.9H243v3.9h1.87v1.71Z"/><path class="cls-2" d="M260.93,150.23h1.88v19h-1.88v-1.51a4.53,4.53,0,0,1-3.69,1.82c-2.73,0-5.25-1.92-5.25-5.72s2.5-5.64,5.25-5.64a4.45,4.45,0,0,1,3.69,1.79Zm-7,13.55c0,2.31,1.3,4.06,3.54,4.06s3.59-1.9,3.59-4a3.65,3.65,0,0,0-3.59-4C255.6,159.8,253.91,161.15,253.91,163.78Z"/><path class="cls-2" d="M275.91,166.43a6.26,6.26,0,0,1-1.33,1.74A5.18,5.18,0,0,1,271,169.5c-2.6,0-5.33-1.64-5.33-5.64,0-3.23,2-5.72,5.22-5.72a4.83,4.83,0,0,1,4.08,2,7.26,7.26,0,0,1,1,4.06h-8.4a3.46,3.46,0,0,0,3.43,3.67,3.26,3.26,0,0,0,2.21-.78,4.24,4.24,0,0,0,1.12-1.49Zm-1.85-3.82a3.22,3.22,0,0,0-3.17-2.81,3.29,3.29,0,0,0-3.17,2.81Z"/><path class="cls-2" d="M280.72,150.23v19h-1.87v-19Z"/><path class="cls-2" d="M293.82,166.43a6.41,6.41,0,0,1-1.32,1.74,5.22,5.22,0,0,1-3.59,1.33c-2.6,0-5.33-1.64-5.33-5.64,0-3.23,2-5.72,5.23-5.72a4.84,4.84,0,0,1,4.08,2,7.34,7.34,0,0,1,1,4.06h-8.4a3.46,3.46,0,0,0,3.44,3.67,3.3,3.3,0,0,0,2.21-.78,4.34,4.34,0,0,0,1.11-1.49ZM292,162.61a3.23,3.23,0,0,0-3.17-2.81,3.29,3.29,0,0,0-3.18,2.81Z"/><path class="cls-2" d="M302.14,163.83a5.72,5.72,0,1,1,5.72,5.67A5.54,5.54,0,0,1,302.14,163.83Zm1.93,0a3.8,3.8,0,1,0,3.79-4A3.74,3.74,0,0,0,304.07,163.83Z"/><path class="cls-2" d="M324.71,158.4h1.87v10.53a6.8,6.8,0,0,1-1,4.24,5.24,5.24,0,0,1-4.31,2,5.34,5.34,0,0,1-3.85-1.46,4.86,4.86,0,0,1-1.41-3.48h1.85a3.42,3.42,0,0,0,.83,2.23,3.34,3.34,0,0,0,2.6,1,3,3,0,0,0,2.86-1.5,5,5,0,0,0,.6-2.76v-1.56A4.53,4.53,0,0,1,321,169.5a5.12,5.12,0,0,1-3.69-1.46,5.82,5.82,0,0,1-1.56-4.26,5.66,5.66,0,0,1,1.56-4.19,5.32,5.32,0,0,1,3.69-1.45,4.47,4.47,0,0,1,3.69,1.79Zm-5.93,2.42a4.09,4.09,0,0,0-1.09,3,4.16,4.16,0,0,0,1.22,3.17,3.27,3.27,0,0,0,2.32.89,3.21,3.21,0,0,0,2.36-.91,4.39,4.39,0,0,0,1.23-3.12,4.26,4.26,0,0,0-1.15-3.05,3.49,3.49,0,0,0-2.44-1A3.31,3.31,0,0,0,318.78,160.82Z"/><path class="cls-2" d="M336.7,158.4l3.22,7.28,3.22-7.28h2.08l-5.3,11.49-5.3-11.49Z"/><path class="cls-2" d="M348.14,153a1.33,1.33,0,1,1-1.33,1.32A1.33,1.33,0,0,1,348.14,153Zm.93,5.41v10.79H347.2V158.4Z"/><path class="cls-2" d="M360.88,150.23h1.87v19h-1.87v-1.51a4.56,4.56,0,0,1-3.7,1.82c-2.73,0-5.25-1.92-5.25-5.72s2.5-5.64,5.25-5.64a4.49,4.49,0,0,1,3.7,1.79Zm-7,13.55c0,2.31,1.3,4.06,3.53,4.06s3.59-1.9,3.59-4a3.65,3.65,0,0,0-3.59-4C355.55,159.8,353.86,161.15,353.86,163.78Z"/><path class="cls-2" d="M375.85,166.43a6.41,6.41,0,0,1-1.32,1.74,5.22,5.22,0,0,1-3.59,1.33c-2.6,0-5.33-1.64-5.33-5.64,0-3.23,2-5.72,5.22-5.72a4.85,4.85,0,0,1,4.09,2,7.34,7.34,0,0,1,1,4.06h-8.4a3.46,3.46,0,0,0,3.43,3.67,3.26,3.26,0,0,0,2.21-.78,4.24,4.24,0,0,0,1.12-1.49ZM374,162.61a3.24,3.24,0,0,0-3.18-2.81,3.29,3.29,0,0,0-3.17,2.81Z"/><path class="cls-2" d="M378.79,158.4h1.87v1.17a3,3,0,0,1,2.45-1.43,3.86,3.86,0,0,1,1.66.44l-.88,1.69a1.91,1.91,0,0,0-1.1-.36,1.8,1.8,0,0,0-1.5.67,4.61,4.61,0,0,0-.63,2.91v5.7h-1.87Z"/><path class="cls-2" d="M395.43,166.43a6.26,6.26,0,0,1-1.33,1.74,5.19,5.19,0,0,1-3.58,1.33c-2.6,0-5.33-1.64-5.33-5.64,0-3.23,2-5.72,5.22-5.72a4.83,4.83,0,0,1,4.08,2,7.26,7.26,0,0,1,1,4.06h-8.4a3.46,3.46,0,0,0,3.43,3.67,3.26,3.26,0,0,0,2.21-.78,4.24,4.24,0,0,0,1.12-1.49Zm-1.85-3.82a3.22,3.22,0,0,0-3.17-2.81,3.29,3.29,0,0,0-3.17,2.81Z"/><path class="cls-2" d="M402.81,160.89a1.65,1.65,0,0,0-1.5-1.09A1.19,1.19,0,0,0,400,161c0,.78.52,1,1.74,1.54a6.5,6.5,0,0,1,2.7,1.66A2.55,2.55,0,0,1,405,166a3.42,3.42,0,0,1-3.71,3.54,3.85,3.85,0,0,1-3.77-2.76l1.61-.67a2.44,2.44,0,0,0,2.18,1.77,1.68,1.68,0,0,0,1.77-1.72c0-1-.73-1.35-1.74-1.79a7.19,7.19,0,0,1-2.63-1.59,2.37,2.37,0,0,1-.49-1.59,2.89,2.89,0,0,1,3.14-3,3.11,3.11,0,0,1,3,2Z"/><path class="cls-2" d="M417.09,166.43a6.26,6.26,0,0,1-1.33,1.74,5.22,5.22,0,0,1-3.59,1.33c-2.6,0-5.33-1.64-5.33-5.64,0-3.23,2-5.72,5.23-5.72a4.83,4.83,0,0,1,4.08,2,7.26,7.26,0,0,1,1,4.06h-8.4a3.45,3.45,0,0,0,3.43,3.67,3.28,3.28,0,0,0,2.21-.78,4.5,4.5,0,0,0,1.12-1.49Zm-1.85-3.82a3.22,3.22,0,0,0-3.17-2.81,3.27,3.27,0,0,0-3.17,2.81Z"/><path class="cls-2" d="M420,158.4h1.87v1.25a3.79,3.79,0,0,1,3.09-1.51,3.67,3.67,0,0,1,3.1,1.48,4.84,4.84,0,0,1,.62,2.88v6.69h-1.87v-6.63a3.13,3.13,0,0,0-.5-2,2.09,2.09,0,0,0-1.76-.78,2.35,2.35,0,0,0-1.9.83,4.55,4.55,0,0,0-.78,2.91v5.65H420Z"/><path class="cls-2" d="M440.51,150.23h1.88v19h-1.88v-1.51a4.53,4.53,0,0,1-3.69,1.82c-2.73,0-5.25-1.92-5.25-5.72s2.5-5.64,5.25-5.64a4.45,4.45,0,0,1,3.69,1.79Zm-7,13.55c0,2.31,1.3,4.06,3.54,4.06s3.59-1.9,3.59-4a3.66,3.66,0,0,0-3.59-4C435.18,159.8,433.49,161.15,433.49,163.78Z"/><path class="cls-2" d="M455.49,166.43a6.26,6.26,0,0,1-1.33,1.74,5.19,5.19,0,0,1-3.58,1.33c-2.61,0-5.33-1.64-5.33-5.64,0-3.23,2-5.72,5.22-5.72a4.83,4.83,0,0,1,4.08,2,7.26,7.26,0,0,1,1,4.06h-8.4a3.46,3.46,0,0,0,3.43,3.67,3.26,3.26,0,0,0,2.21-.78,4.37,4.37,0,0,0,1.12-1.49Zm-1.85-3.82a3.22,3.22,0,0,0-3.17-2.81,3.27,3.27,0,0,0-3.17,2.81Z"/><path class="cls-2" d="M464.48,158.4h1.88v1.25a3.77,3.77,0,0,1,3.09-1.51,3.66,3.66,0,0,1,3.09,1.48,4.76,4.76,0,0,1,.63,2.88v6.69H471.3v-6.63a3.2,3.2,0,0,0-.5-2,2.09,2.09,0,0,0-1.76-.78,2.34,2.34,0,0,0-1.9.83,4.55,4.55,0,0,0-.78,2.91v5.65h-1.88Z"/><path class="cls-2" d="M486.32,160.32a5.34,5.34,0,0,1,1.15,3.51,5.53,5.53,0,0,1-5.72,5.67,5.59,5.59,0,0,1-3.49-1.09L476.68,170l-1.2-1.17,1.59-1.56a5.62,5.62,0,0,1-1-3.41,5.54,5.54,0,0,1,5.72-5.69,5.44,5.44,0,0,1,3.38,1l1.58-1.56,1.15,1.17Zm-2.49.08a3.83,3.83,0,0,0-5.88,3.43,4.56,4.56,0,0,0,.5,2.13Zm-4.24,6.76a3.56,3.56,0,0,0,2.16.68,3.73,3.73,0,0,0,3.79-4,4.32,4.32,0,0,0-.57-2.23Z"/><path class="cls-2" d="M498.6,158.4h1.87v10.53a6.8,6.8,0,0,1-1,4.24,5.27,5.27,0,0,1-4.32,2,5.36,5.36,0,0,1-3.85-1.46,4.9,4.9,0,0,1-1.4-3.48h1.85a3.2,3.2,0,0,0,3.43,3.27A3,3,0,0,0,498,172a5.1,5.1,0,0,0,.6-2.76v-1.56a4.56,4.56,0,0,1-3.7,1.82,5.14,5.14,0,0,1-3.69-1.46,5.82,5.82,0,0,1-1.56-4.26,5.66,5.66,0,0,1,1.56-4.19,5.34,5.34,0,0,1,3.69-1.45,4.49,4.49,0,0,1,3.7,1.79Zm-5.93,2.42a4.09,4.09,0,0,0-1.09,3A4.16,4.16,0,0,0,492.8,167a3.49,3.49,0,0,0,4.68,0,4.39,4.39,0,0,0,1.22-3.12,4.3,4.3,0,0,0-1.14-3.05,3.51,3.51,0,0,0-2.45-1A3.31,3.31,0,0,0,492.67,160.82Z"/><path class="cls-2" d="M513.57,166.43a6.41,6.41,0,0,1-1.32,1.74,5.22,5.22,0,0,1-3.59,1.33c-2.6,0-5.33-1.64-5.33-5.64,0-3.23,2-5.72,5.22-5.72a4.85,4.85,0,0,1,4.09,2,7.34,7.34,0,0,1,1,4.06h-8.4a3.46,3.46,0,0,0,3.43,3.67,3.26,3.26,0,0,0,2.21-.78,4.24,4.24,0,0,0,1.12-1.49Zm-1.84-3.82a3.24,3.24,0,0,0-3.18-2.81,3.29,3.29,0,0,0-3.17,2.81Z"/><path class="cls-2" d="M516.51,158.4h1.87v1.25a3.79,3.79,0,0,1,3.1-1.51,3.66,3.66,0,0,1,3.09,1.48,4.76,4.76,0,0,1,.62,2.88v6.69h-1.87v-6.63a3.19,3.19,0,0,0-.49-2,2.13,2.13,0,0,0-1.77-.78,2.37,2.37,0,0,0-1.9.83,4.55,4.55,0,0,0-.78,2.91v5.65h-1.87Z"/><path class="cls-2" d="M528.26,162.69H534v1.92h-5.72Z"/><path class="cls-2" d="M84.14,200.39H82.27v-19h1.87v9.67a4.64,4.64,0,0,1,3.69-1.76c3.38,0,5.25,2.8,5.25,5.72s-1.89,5.64-5.17,5.64a4.59,4.59,0,0,1-3.77-1.82Zm7-5.33c0-2.66-1.79-4.06-3.54-4.06A3.74,3.74,0,0,0,84,195c0,2.21,1.4,4,3.61,4S91.16,197.21,91.16,195.06Z"/><path class="cls-2" d="M96.88,184.19a1.33,1.33,0,1,1-1.33,1.32A1.33,1.33,0,0,1,96.88,184.19Zm.94,5.41v10.79H95.94V189.6Z"/><path class="cls-2" d="M103.22,181.43v19h-1.87v-19Z"/><path class="cls-2" d="M108.63,181.43v19h-1.87v-19Z"/><path class="cls-2" d="M121.74,197.63a6.45,6.45,0,0,1-1.33,1.74,5.22,5.22,0,0,1-3.59,1.33c-2.6,0-5.33-1.64-5.33-5.64,0-3.23,2-5.72,5.23-5.72a4.84,4.84,0,0,1,4.08,2,7.16,7.16,0,0,1,1,4.06h-8.39a3.45,3.45,0,0,0,3.43,3.67,3.31,3.31,0,0,0,2.21-.79,4.37,4.37,0,0,0,1.12-1.48Zm-1.85-3.82a3.23,3.23,0,0,0-3.17-2.81,3.29,3.29,0,0,0-3.18,2.81Z"/><path class="cls-2" d="M132.94,181.43h1.87v19h-1.87v-1.51a4.55,4.55,0,0,1-3.69,1.82c-2.73,0-5.25-1.93-5.25-5.72s2.49-5.64,5.25-5.64a4.45,4.45,0,0,1,3.69,1.79Zm-7,13.55c0,2.31,1.3,4.06,3.54,4.06s3.58-1.9,3.58-4a3.65,3.65,0,0,0-3.58-4C127.61,191,125.92,192.35,125.92,195Z"/><path class="cls-2" d="M147.92,197.63a6.26,6.26,0,0,1-1.33,1.74A5.22,5.22,0,0,1,143,200.7c-2.6,0-5.33-1.64-5.33-5.64,0-3.23,2-5.72,5.23-5.72a4.84,4.84,0,0,1,4.08,2,7.24,7.24,0,0,1,1,4.06h-8.4A3.46,3.46,0,0,0,143,199a3.29,3.29,0,0,0,2.21-.79,4.37,4.37,0,0,0,1.12-1.48Zm-1.85-3.82A3.23,3.23,0,0,0,142.9,191a3.27,3.27,0,0,0-3.17,2.81Z"/><path class="cls-2" d="M150.85,189.6h1.88v1.17a3,3,0,0,1,2.44-1.43,3.83,3.83,0,0,1,1.66.44l-.88,1.69a1.9,1.9,0,0,0-1.09-.37,1.83,1.83,0,0,0-1.51.68,4.68,4.68,0,0,0-.62,2.91v5.7h-1.88Z"/><path class="cls-2" d="M172.88,189.6h1.87v10.79h-1.87v-1.51a4.59,4.59,0,0,1-3.7,1.82c-2.73,0-5.25-1.93-5.25-5.72s2.5-5.64,5.25-5.64a4.49,4.49,0,0,1,3.7,1.79Zm-7,5.38c0,2.31,1.3,4.06,3.53,4.06s3.59-1.9,3.59-4a3.65,3.65,0,0,0-3.59-4C167.55,191,165.86,192.35,165.86,195Z"/><path class="cls-2" d="M180.21,191.31v9.08h-1.87v-9.08h-1V189.6h1v-4.71a3.69,3.69,0,0,1,1-3,3.36,3.36,0,0,1,2.15-.7,3.62,3.62,0,0,1,1.33.23v1.82a3.3,3.3,0,0,0-1.22-.23,1.31,1.31,0,0,0-1.2.57,3.3,3.3,0,0,0-.23,1.56v4.5h2.65v1.71Z"/><path class="cls-2" d="M192.45,206.37h-1.87V189.6h1.87v1.5a4.67,4.67,0,0,1,3.7-1.76c3.38,0,5.25,2.8,5.25,5.72s-1.9,5.64-5.18,5.64a4.59,4.59,0,0,1-3.77-1.82Zm7-11.31c0-2.66-1.79-4.06-3.53-4.06a3.75,3.75,0,0,0-3.59,4c0,2.21,1.4,4,3.61,4S199.47,197.21,199.47,195.06Z"/><path class="cls-2" d="M213.83,197.63a6.66,6.66,0,0,1-1.33,1.74,5.22,5.22,0,0,1-3.59,1.33c-2.6,0-5.33-1.64-5.33-5.64,0-3.23,2-5.72,5.23-5.72a4.84,4.84,0,0,1,4.08,2,7.16,7.16,0,0,1,1,4.06h-8.4a3.47,3.47,0,0,0,3.44,3.67,3.31,3.31,0,0,0,2.21-.79,4.37,4.37,0,0,0,1.12-1.48ZM212,193.81a3.23,3.23,0,0,0-3.17-2.81,3.29,3.29,0,0,0-3.18,2.81Z"/><path class="cls-2" d="M216.76,189.6h1.87v1.17a3,3,0,0,1,2.45-1.43,3.83,3.83,0,0,1,1.66.44l-.88,1.69a1.93,1.93,0,0,0-1.09-.37,1.81,1.81,0,0,0-1.51.68,4.65,4.65,0,0,0-.63,2.91v5.7h-1.87Z"/><path class="cls-2" d="M228.62,192.09a1.66,1.66,0,0,0-1.51-1.09,1.19,1.19,0,0,0-1.3,1.22c0,.78.52,1,1.74,1.54a6.63,6.63,0,0,1,2.71,1.66,2.58,2.58,0,0,1,.57,1.74,3.44,3.44,0,0,1-3.72,3.54,3.86,3.86,0,0,1-3.77-2.76l1.61-.67a2.46,2.46,0,0,0,2.19,1.77,1.68,1.68,0,0,0,1.77-1.72c0-1-.73-1.35-1.75-1.8a6.92,6.92,0,0,1-2.62-1.58,2.33,2.33,0,0,1-.5-1.59,2.9,2.9,0,0,1,3.15-3,3.1,3.1,0,0,1,3,1.95Z"/><path class="cls-2" d="M232.65,195a5.72,5.72,0,1,1,5.72,5.67A5.54,5.54,0,0,1,232.65,195Zm1.92,0a3.81,3.81,0,1,0,3.8-4A3.75,3.75,0,0,0,234.57,195Z"/><path class="cls-2" d="M247,189.6h1.87v1.24a3.81,3.81,0,0,1,3.09-1.5,3.67,3.67,0,0,1,3.1,1.48,4.84,4.84,0,0,1,.62,2.88v6.69h-1.87v-6.63a3.19,3.19,0,0,0-.49-2,2.13,2.13,0,0,0-1.77-.78,2.37,2.37,0,0,0-1.9.83,4.53,4.53,0,0,0-.78,2.91v5.65H247Z"/><path class="cls-2" d="M268.74,197.63a6.45,6.45,0,0,1-1.33,1.74,5.22,5.22,0,0,1-3.59,1.33c-2.6,0-5.33-1.64-5.33-5.64,0-3.23,2-5.72,5.23-5.72a4.84,4.84,0,0,1,4.08,2,7.16,7.16,0,0,1,1,4.06h-8.39a3.46,3.46,0,0,0,3.43,3.67,3.31,3.31,0,0,0,2.21-.79,4.37,4.37,0,0,0,1.12-1.48Zm-1.85-3.82a3.23,3.23,0,0,0-3.17-2.81,3.27,3.27,0,0,0-3.17,2.81Z"/><path class="cls-2" d="M271.67,189.6h1.88v1.17a3,3,0,0,1,2.44-1.43,3.83,3.83,0,0,1,1.66.44l-.88,1.69a1.93,1.93,0,0,0-1.09-.37,1.83,1.83,0,0,0-1.51.68,4.68,4.68,0,0,0-.62,2.91v5.7h-1.88Z"/><path class="cls-2" d="M287.3,195.89a3.66,3.66,0,0,0,.52,2.31,2.57,2.57,0,0,0,3.8,0,3.66,3.66,0,0,0,.52-2.31V189.6H294v6.5a4.29,4.29,0,0,1-1,3.25,4.71,4.71,0,0,1-6.6,0,4.29,4.29,0,0,1-1-3.25v-6.5h1.87Z"/><path class="cls-2" d="M297.54,189.6h1.88v1.24a3.78,3.78,0,0,1,3.09-1.5,3.66,3.66,0,0,1,3.09,1.48,4.76,4.76,0,0,1,.63,2.88v6.69h-1.87v-6.63a3.2,3.2,0,0,0-.5-2,2.1,2.1,0,0,0-1.77-.78,2.33,2.33,0,0,0-1.89.83,4.53,4.53,0,0,0-.78,2.91v5.65h-1.88Z"/><path class="cls-2" d="M318,181.43h1.87v19H318v-1.51a4.55,4.55,0,0,1-3.69,1.82c-2.73,0-5.25-1.93-5.25-5.72s2.49-5.64,5.25-5.64a4.45,4.45,0,0,1,3.69,1.79ZM311,195c0,2.31,1.3,4.06,3.54,4.06s3.58-1.9,3.58-4a3.65,3.65,0,0,0-3.58-4C312.7,191,311,192.35,311,195Z"/><path class="cls-2" d="M333,197.63a6.26,6.26,0,0,1-1.33,1.74,5.22,5.22,0,0,1-3.59,1.33c-2.6,0-5.33-1.64-5.33-5.64,0-3.23,2-5.72,5.23-5.72a4.84,4.84,0,0,1,4.08,2,7.16,7.16,0,0,1,1,4.06h-8.39a3.46,3.46,0,0,0,3.43,3.67,3.29,3.29,0,0,0,2.21-.79,4.37,4.37,0,0,0,1.12-1.48Zm-1.85-3.82A3.23,3.23,0,0,0,328,191a3.27,3.27,0,0,0-3.17,2.81Z"/><path class="cls-2" d="M335.94,189.6h1.88v1.17a3,3,0,0,1,2.44-1.43,3.83,3.83,0,0,1,1.66.44l-.88,1.69a1.93,1.93,0,0,0-1.09-.37,1.83,1.83,0,0,0-1.51.68,4.68,4.68,0,0,0-.62,2.91v5.7h-1.88Z"/><path class="cls-2" d="M354.85,184.86h-2.92l1-1.82h3.82v17.35h-1.92Z"/><path class="cls-2" d="M372.14,195.6a5.31,5.31,0,0,1-10.61,0,4.39,4.39,0,0,1,2.62-4.24,4.23,4.23,0,0,1-2.1-3.79,4.79,4.79,0,1,1,9.57,0,4.22,4.22,0,0,1-2.11,3.79A4.38,4.38,0,0,1,372.14,195.6Zm-1.93,0a3.38,3.38,0,0,0-6.76,0,3.38,3.38,0,0,0,6.76,0Zm-.41-8a3,3,0,1,0-3,3A2.92,2.92,0,0,0,369.8,187.59Z"/><path class="cls-2" d="M390.31,189.6h1.87v10.79h-1.87v-1.51a4.55,4.55,0,0,1-3.69,1.82c-2.73,0-5.25-1.93-5.25-5.72s2.49-5.64,5.25-5.64a4.45,4.45,0,0,1,3.69,1.79Zm-7,5.38c0,2.31,1.3,4.06,3.54,4.06s3.58-1.9,3.58-4a3.65,3.65,0,0,0-3.58-4C385,191,383.29,192.35,383.29,195Zm3.95-12a2.24,2.24,0,1,1-2.24,2.24A2.26,2.26,0,0,1,387.24,183Zm0,3.33a1.09,1.09,0,1,0-1.09-1.09A1.13,1.13,0,0,0,387.24,186.32Z"/><path class="cls-2" d="M395.72,189.6h1.87v1.17a3,3,0,0,1,2.44-1.43,3.87,3.87,0,0,1,1.67.44l-.89,1.69a1.88,1.88,0,0,0-1.09-.37,1.84,1.84,0,0,0-1.51.68,4.68,4.68,0,0,0-.62,2.91v5.7h-1.87Z"/><path class="cls-2" d="M404,197.84l1.72.62-2.63,5.88-1.22-.5Z"/><path class="cls-2" d="M414.7,195a5.72,5.72,0,1,1,5.72,5.67A5.53,5.53,0,0,1,414.7,195Zm1.92,0a3.8,3.8,0,1,0,3.8-4A3.75,3.75,0,0,0,416.62,195Z"/><path class="cls-2" d="M437.26,189.6h1.88v10.53a6.8,6.8,0,0,1-1,4.24,5.27,5.27,0,0,1-4.32,2,5.34,5.34,0,0,1-3.85-1.46,4.86,4.86,0,0,1-1.4-3.48h1.84a3.37,3.37,0,0,0,.84,2.23,3.32,3.32,0,0,0,2.6,1,3,3,0,0,0,2.86-1.5,5.09,5.09,0,0,0,.59-2.76v-1.56a4.55,4.55,0,0,1-3.69,1.82,5.18,5.18,0,0,1-3.69-1.46,5.84,5.84,0,0,1-1.56-4.26,5.66,5.66,0,0,1,1.56-4.19,5.34,5.34,0,0,1,3.69-1.45,4.46,4.46,0,0,1,3.69,1.79ZM431.34,192a4.63,4.63,0,0,0,.13,6.14,3.48,3.48,0,0,0,4.68,0,4.39,4.39,0,0,0,1.22-3.12,4.25,4.25,0,0,0-1.15-3,3.43,3.43,0,0,0-2.44-1A3.34,3.34,0,0,0,431.34,192Z"/><path class="cls-2" d="M447.12,192.09a1.66,1.66,0,0,0-1.51-1.09,1.19,1.19,0,0,0-1.3,1.22c0,.78.52,1,1.74,1.54a6.63,6.63,0,0,1,2.71,1.66,2.58,2.58,0,0,1,.57,1.74,3.44,3.44,0,0,1-3.72,3.54,3.86,3.86,0,0,1-3.77-2.76l1.61-.67a2.45,2.45,0,0,0,2.19,1.77,1.68,1.68,0,0,0,1.76-1.72c0-1-.72-1.35-1.74-1.8a6.92,6.92,0,0,1-2.62-1.58,2.33,2.33,0,0,1-.5-1.59,2.9,2.9,0,0,1,3.15-3,3.1,3.1,0,0,1,3,1.95Z"/><path class="cls-2" d="M460.09,189.6H462v10.79h-1.87v-1.51a4.55,4.55,0,0,1-3.69,1.82c-2.73,0-5.25-1.93-5.25-5.72s2.49-5.64,5.25-5.64a4.45,4.45,0,0,1,3.69,1.79Zm-7,5.38c0,2.31,1.3,4.06,3.54,4.06s3.59-1.9,3.59-4a3.66,3.66,0,0,0-3.59-4C454.76,191,453.07,192.35,453.07,195ZM457,183a2.24,2.24,0,1,1-2.23,2.24A2.26,2.26,0,0,1,457,183Zm0,3.33a1.09,1.09,0,1,0-1.09-1.09A1.14,1.14,0,0,0,457,186.32Z"/><path class="cls-2" d="M476,192.09a1.65,1.65,0,0,0-1.51-1.09,1.19,1.19,0,0,0-1.29,1.22c0,.78.51,1,1.74,1.54a6.57,6.57,0,0,1,2.7,1.66,2.53,2.53,0,0,1,.57,1.74,3.44,3.44,0,0,1-3.72,3.54,3.86,3.86,0,0,1-3.77-2.76l1.62-.67a2.43,2.43,0,0,0,2.18,1.77,1.68,1.68,0,0,0,1.77-1.72c0-1-.73-1.35-1.74-1.8a7,7,0,0,1-2.63-1.58,2.32,2.32,0,0,1-.49-1.59,2.89,2.89,0,0,1,3.14-3,3.12,3.12,0,0,1,3,1.95Z"/><path class="cls-2" d="M490.28,197.63a6.45,6.45,0,0,1-1.33,1.74,5.22,5.22,0,0,1-3.59,1.33c-2.6,0-5.33-1.64-5.33-5.64,0-3.23,2-5.72,5.23-5.72a4.83,4.83,0,0,1,4.08,2,7.24,7.24,0,0,1,1,4.06H482a3.46,3.46,0,0,0,3.43,3.67,3.31,3.31,0,0,0,2.21-.79,4.37,4.37,0,0,0,1.12-1.48Zm-1.85-3.82a3.23,3.23,0,0,0-3.17-2.81,3.27,3.27,0,0,0-3.17,2.81Z"/><path class="cls-2" d="M495.09,181.43v19h-1.88v-19Z"/><path class="cls-2" d="M499.14,189.6l3.23,7.28,3.22-7.28h2.08l-5.3,11.49-5.31-11.49Z"/><path class="cls-2" d="M509,195a5.72,5.72,0,1,1,5.72,5.67A5.54,5.54,0,0,1,509,195Zm1.92,0a3.81,3.81,0,1,0,3.8-4A3.75,3.75,0,0,0,510.89,195Z"/><path class="cls-2" d="M523.27,189.6h1.87v1.14a3.15,3.15,0,0,1,2.68-1.4,3.23,3.23,0,0,1,2.94,1.74,3.59,3.59,0,0,1,3.25-1.74c3.2,0,3.51,2.67,3.51,4.21v6.84h-1.87v-6.56c0-1.22-.16-2.83-1.93-2.83-2.16,0-2.39,2.08-2.39,3.38v6h-1.87V194c0-.75,0-3-2-3-2.13,0-2.37,2.21-2.37,3.51v5.88h-1.87Z"/><path class="cls-2" d="M90.54,212.63h1.87v19H90.54v-1.51a4.59,4.59,0,0,1-3.7,1.82c-2.73,0-5.25-1.93-5.25-5.72s2.5-5.64,5.25-5.64a4.49,4.49,0,0,1,3.7,1.79Zm-7,13.55c0,2.31,1.3,4,3.53,4s3.59-1.89,3.59-4a3.65,3.65,0,0,0-3.59-4C85.21,222.2,83.52,223.55,83.52,226.18Z"/><path class="cls-2" d="M105.51,228.83a6.41,6.41,0,0,1-1.32,1.74,5.22,5.22,0,0,1-3.59,1.33c-2.6,0-5.33-1.64-5.33-5.64,0-3.23,2-5.72,5.22-5.72a4.85,4.85,0,0,1,4.09,2,7.32,7.32,0,0,1,1,4.06h-8.4a3.46,3.46,0,0,0,3.43,3.66,3.31,3.31,0,0,0,2.21-.77A4.24,4.24,0,0,0,104,228ZM103.67,225a3.24,3.24,0,0,0-3.18-2.81A3.29,3.29,0,0,0,97.32,225Z"/><path class="cls-2" d="M108.45,220.8h1.87V222a3.82,3.82,0,0,1,3.1-1.5,3.66,3.66,0,0,1,3.09,1.48,4.76,4.76,0,0,1,.62,2.88v6.69h-1.87V225a3.19,3.19,0,0,0-.49-2,2.13,2.13,0,0,0-1.77-.78,2.37,2.37,0,0,0-1.9.83,4.55,4.55,0,0,0-.78,2.91v5.65h-1.87Z"/><path class="cls-2" d="M127.66,215.39a1.33,1.33,0,1,1-1.32,1.32A1.33,1.33,0,0,1,127.66,215.39Zm.94,5.41v10.79h-1.87V220.8Z"/><path class="cls-2" d="M132.13,220.8H134V222a3.79,3.79,0,0,1,3.09-1.5,3.68,3.68,0,0,1,3.1,1.48,4.84,4.84,0,0,1,.62,2.88v6.69H139V225a3.2,3.2,0,0,0-.5-2,2.09,2.09,0,0,0-1.76-.78,2.35,2.35,0,0,0-1.9.83,4.55,4.55,0,0,0-.78,2.91v5.65h-1.88Z"/><path class="cls-2" d="M144.88,220.8l3.22,7.28,3.22-7.28h2.08l-5.3,11.49-5.31-11.49Z"/><path class="cls-2" d="M154.7,226.23a5.72,5.72,0,1,1,5.72,5.67A5.54,5.54,0,0,1,154.7,226.23Zm1.93,0a3.8,3.8,0,1,0,3.79-4A3.74,3.74,0,0,0,156.63,226.23Z"/><path class="cls-2" d="M170.87,212.63v19H169v-19Z"/><path class="cls-2" d="M174.93,220.8l3.22,7.28,3.23-7.28h2.08l-5.31,11.49-5.3-11.49Z"/><path class="cls-2" d="M195,228.83a6.41,6.41,0,0,1-1.32,1.74,5.22,5.22,0,0,1-3.59,1.33c-2.6,0-5.33-1.64-5.33-5.64,0-3.23,2-5.72,5.22-5.72a4.85,4.85,0,0,1,4.09,2,7.32,7.32,0,0,1,1,4.06h-8.4a3.46,3.46,0,0,0,3.43,3.66,3.31,3.31,0,0,0,2.21-.77,4.24,4.24,0,0,0,1.12-1.49ZM193.16,225A3.24,3.24,0,0,0,190,222.2a3.29,3.29,0,0,0-3.17,2.81Z"/><path class="cls-2" d="M197.94,220.8h1.87V222a3,3,0,0,1,2.45-1.43,3.86,3.86,0,0,1,1.66.44l-.88,1.69a1.93,1.93,0,0,0-1.1-.37,1.81,1.81,0,0,0-1.5.68,4.58,4.58,0,0,0-.63,2.91v5.7h-1.87Z"/><path class="cls-2" d="M214.58,228.83a6.26,6.26,0,0,1-1.33,1.74,5.19,5.19,0,0,1-3.58,1.33c-2.6,0-5.33-1.64-5.33-5.64,0-3.23,2-5.72,5.22-5.72a4.83,4.83,0,0,1,4.08,2,7.24,7.24,0,0,1,1,4.06h-8.4a3.46,3.46,0,0,0,3.43,3.66,3.31,3.31,0,0,0,2.21-.77A4.24,4.24,0,0,0,213,228ZM212.73,225a3.22,3.22,0,0,0-3.17-2.81,3.29,3.29,0,0,0-3.17,2.81Z"/><path class="cls-2" d="M225.79,212.63h1.87v19h-1.87v-1.51a4.59,4.59,0,0,1-3.7,1.82c-2.73,0-5.25-1.93-5.25-5.72s2.5-5.64,5.25-5.64a4.49,4.49,0,0,1,3.7,1.79Zm-7,13.55c0,2.31,1.3,4,3.53,4s3.59-1.89,3.59-4a3.65,3.65,0,0,0-3.59-4C220.46,222.2,218.77,223.55,218.77,226.18Z"/><path class="cls-2" d="M240.76,228.83a6.41,6.41,0,0,1-1.32,1.74,5.22,5.22,0,0,1-3.59,1.33c-2.6,0-5.33-1.64-5.33-5.64,0-3.23,2-5.72,5.22-5.72a4.85,4.85,0,0,1,4.09,2,7.32,7.32,0,0,1,1,4.06h-8.4a3.46,3.46,0,0,0,3.43,3.66,3.31,3.31,0,0,0,2.21-.77A4.24,4.24,0,0,0,239.2,228ZM238.92,225a3.24,3.24,0,0,0-3.18-2.81,3.29,3.29,0,0,0-3.17,2.81Z"/><path class="cls-2" d="M249.76,212.63h1.87V222a3.81,3.81,0,0,1,3.09-1.5,3.67,3.67,0,0,1,3.1,1.48,4.84,4.84,0,0,1,.62,2.88v6.69h-1.87V225a3.19,3.19,0,0,0-.49-2,2.13,2.13,0,0,0-1.77-.78,2.37,2.37,0,0,0-1.9.83,4.55,4.55,0,0,0-.78,2.91v5.65h-1.87Z"/><path class="cls-2" d="M270.25,220.8h1.87v10.79h-1.87v-1.51a4.59,4.59,0,0,1-3.7,1.82c-2.73,0-5.25-1.93-5.25-5.72s2.5-5.64,5.25-5.64a4.49,4.49,0,0,1,3.7,1.79Zm-7,5.38c0,2.31,1.3,4,3.54,4s3.59-1.89,3.59-4a3.66,3.66,0,0,0-3.59-4C264.91,222.2,263.22,223.55,263.22,226.18Z"/><path class="cls-2" d="M275.65,220.8h1.87V222a3,3,0,0,1,2.45-1.43,3.86,3.86,0,0,1,1.66.44l-.88,1.69a1.93,1.93,0,0,0-1.09-.37,1.81,1.81,0,0,0-1.51.68,4.65,4.65,0,0,0-.63,2.91v5.7h-1.87Z"/><path class="cls-2" d="M297.67,220.8h1.88v10.53a6.8,6.8,0,0,1-1,4.24,5.27,5.27,0,0,1-4.32,2,5.34,5.34,0,0,1-3.85-1.46,4.86,4.86,0,0,1-1.4-3.48h1.84a3.37,3.37,0,0,0,.84,2.23,3.32,3.32,0,0,0,2.6,1,3,3,0,0,0,2.86-1.51,5,5,0,0,0,.59-2.75v-1.56A4.55,4.55,0,0,1,294,231.9a5.14,5.14,0,0,1-3.69-1.46,5.84,5.84,0,0,1-1.56-4.26,5.66,5.66,0,0,1,1.56-4.19,5.34,5.34,0,0,1,3.69-1.45,4.46,4.46,0,0,1,3.69,1.79Zm-5.92,2.41a4.63,4.63,0,0,0,.13,6.14,3.52,3.52,0,0,0,4.68,0,4.43,4.43,0,0,0,1.22-3.12,4.26,4.26,0,0,0-1.15-3.05,3.43,3.43,0,0,0-2.44-1A3.34,3.34,0,0,0,291.75,223.21Z"/><path class="cls-2" d="M304,215.39a1.33,1.33,0,1,1-1.33,1.32A1.33,1.33,0,0,1,304,215.39Zm.93,5.41v10.79h-1.87V220.8Z"/><path class="cls-2" d="M309,220.8l3.22,7.28,3.23-7.28h2.08l-5.31,11.49-5.3-11.49Z"/><path class="cls-2" d="M329.08,228.83a6.41,6.41,0,0,1-1.32,1.74,5.24,5.24,0,0,1-3.59,1.33c-2.6,0-5.33-1.64-5.33-5.64,0-3.23,2-5.72,5.22-5.72a4.85,4.85,0,0,1,4.09,2,7.32,7.32,0,0,1,1,4.06h-8.4a3.46,3.46,0,0,0,3.43,3.66,3.31,3.31,0,0,0,2.21-.77,4.24,4.24,0,0,0,1.12-1.49ZM327.24,225a3.24,3.24,0,0,0-3.18-2.81,3.29,3.29,0,0,0-3.17,2.81Z"/><path class="cls-2" d="M333.94,222.51v9.08h-1.87v-9.08h-1.14V220.8h1.14v-3.9h1.87v3.9h1.88v1.71Z"/><path class="cls-2" d="M345.51,212.63v19h-1.87v-19Z"/><path class="cls-2" d="M348.37,226.23a5.72,5.72,0,1,1,5.72,5.67A5.54,5.54,0,0,1,348.37,226.23Zm1.93,0a3.8,3.8,0,1,0,3.79-4A3.74,3.74,0,0,0,350.3,226.23Z"/><path class="cls-2" d="M363.19,220.8l3.23,7.28,3.22-7.28h2.08l-5.3,11.49-5.31-11.49Z"/><path class="cls-2" d="M381.68,222.51v9.08h-1.87v-9.08h-1.15V220.8h1.15v-3.9h1.87v3.9h1.87v1.71Z"/><path class="cls-2" d="M386.25,215.39a1.33,1.33,0,1,1-1.32,1.32A1.33,1.33,0,0,1,386.25,215.39Zm.94,5.41v10.79h-1.87V220.8Z"/><path class="cls-2" d="M392.6,212.63v19h-1.88v-19Z"/><path class="cls-2" d="M410.46,212.63h1.87v19h-1.87v-1.51a4.59,4.59,0,0,1-3.69,1.82c-2.73,0-5.26-1.93-5.26-5.72s2.5-5.64,5.26-5.64a4.47,4.47,0,0,1,3.69,1.79Zm-7,13.55c0,2.31,1.3,4,3.53,4s3.59-1.89,3.59-4a3.65,3.65,0,0,0-3.59-4C405.13,222.2,403.44,223.55,403.44,226.18Z"/><path class="cls-2" d="M425.43,228.83a6.41,6.41,0,0,1-1.32,1.74,5.22,5.22,0,0,1-3.59,1.33c-2.6,0-5.33-1.64-5.33-5.64,0-3.23,2-5.72,5.23-5.72a4.84,4.84,0,0,1,4.08,2,7.32,7.32,0,0,1,1,4.06h-8.4a3.46,3.46,0,0,0,3.44,3.66,3.34,3.34,0,0,0,2.21-.77,4.5,4.5,0,0,0,1.12-1.49ZM423.59,225a3.23,3.23,0,0,0-3.17-2.81,3.29,3.29,0,0,0-3.18,2.81Z"/><path class="cls-2" d="M430.3,222.51v9.08h-1.88v-9.08h-1.14V220.8h1.14v-3.9h1.88v3.9h1.87v1.71Z"/><path class="cls-2" d="M435.13,229.25a1.3,1.3,0,1,1-1.3,1.3A1.32,1.32,0,0,1,435.13,229.25Z"/><path class="cls-2" d="M186.65,62H168.73V73.9h16.8v9h-16.8v23.52h-10.4V53h28.32Z"/><path class="cls-2" d="M250,79.74c0,16.24-11.68,27.84-28.48,27.84S193.05,96,193.05,79.74s11.68-27.92,28.48-27.92S250,63.5,250,79.74Zm-10.72,0c0-10.8-7.36-18.48-17.76-18.48s-17.76,7.68-17.76,18.48,7.36,18.4,17.76,18.4S239.29,90.54,239.29,79.74Z"/><path class="cls-2" d="M275.05,53c7.36,0,11.12,1.92,13.6,4a15.16,15.16,0,0,1,5.28,12c0,5.2-2.08,9.76-6.24,12.56a14.79,14.79,0,0,1-5.84,2.32l16.64,22.48h-13L271.29,84.94H270v21.44h-10.4V53Zm-5,24.56h3c2,0,10.24-.24,10.24-8.08s-8.16-8-10.08-8H270Z"/><path class="cls-2" d="M315.92,75.58,335.53,53h13.12L326.08,77.66l23.77,28.72H336.08l-19-23.92-1.2,1.2v22.72h-10.4V53h10.4Z"/><path class="cls-2" d="M386,62H366.8V73.9h18.4v9H366.8V97.42H386v9H356.4V53H386Z"/><path class="cls-2" d="M411.52,53c7.36,0,11.12,1.92,13.6,4a15.16,15.16,0,0,1,5.28,12c0,5.2-2.08,9.76-6.24,12.56a14.79,14.79,0,0,1-5.84,2.32L435,106.38H422L407.76,84.94h-1.28v21.44h-10.4V53Zm-5,24.56h3c2,0,10.24-.24,10.24-8.08s-8.16-8-10.08-8h-3.12Z"/><path class="cls-2" d="M458.8,62v44.4H448.4V62h-12V53h34.4v9Z"/></svg>
