<svg id="Layer_1" data-name="Layer 1" xmlns="http://www.w3.org/2000/svg" width="660" height="430" viewBox="0 0 660 430"><defs><style>.cls-1{fill:#f4912d;}.cls-2{fill:#fff;}</style></defs><title>dilemma_1_korrekt</title><rect class="cls-1" x="1.5" y="2" width="657" height="426" rx="36.87" ry="36.87"/><path class="cls-2" d="M170.73,77.58,190.33,55h13.12L180.89,79.66l23.76,28.72H190.89l-19-23.92-1.2,1.2v22.72h-10.4V55h10.4Z"/><path class="cls-2" d="M262.25,81.74c0,16.24-11.68,27.84-28.48,27.84S205.29,98,205.29,81.74,217,53.82,233.77,53.82,262.25,65.5,262.25,81.74Zm-10.72,0c0-10.8-7.36-18.48-17.76-18.48S216,70.94,216,81.74s7.36,18.4,17.76,18.4S251.53,92.54,251.53,81.74Z"/><path class="cls-2" d="M287.29,55c7.36,0,11.12,1.92,13.6,4a15.16,15.16,0,0,1,5.28,12c0,5.2-2.08,9.76-6.24,12.56a14.79,14.79,0,0,1-5.84,2.32l16.64,22.48h-13L283.53,86.94h-1.28v21.44h-10.4V55Zm-5,24.56h3c2,0,10.24-.24,10.24-8.08s-8.16-8-10.08-8h-3.12Z"/><path class="cls-2" d="M333.21,55c7.36,0,11.12,1.92,13.6,4a15.16,15.16,0,0,1,5.28,12c0,5.2-2.08,9.76-6.24,12.56A14.79,14.79,0,0,1,340,85.9l16.64,22.48h-13L329.44,86.94h-1.27v21.44H317.76V55Zm-5,24.56h2.95c2,0,10.25-.24,10.25-8.08s-8.16-8-10.08-8h-3.12Z"/><path class="cls-2" d="M393.28,64h-19.2V75.9h18.4v9h-18.4V99.42h19.2v9h-29.6V55h29.6Z"/><path class="cls-2" d="M413.76,77.58,433.36,55h13.12L423.92,79.66l23.76,28.72H433.92L415,84.46l-1.2,1.2v22.72h-10.4V55h10.4Z"/><path class="cls-2" d="M471,64v44.4h-10.4V64h-12V55H483v9Z"/><path class="cls-2" d="M82.74,151.84h3.53a9.49,9.49,0,0,1,6.4,2,8.49,8.49,0,0,1,3,6.66,8.26,8.26,0,0,1-3,6.66c-1.59,1.35-3.25,2-6.34,2H82.74Zm1.92,15.53h1.69a7.44,7.44,0,0,0,5-1.56,6.65,6.65,0,0,0,2.34-5.28c0-4.16-2.92-6.86-7.31-6.86H84.66Z"/><path class="cls-2" d="M108.27,166.43a6.26,6.26,0,0,1-1.33,1.74,5.22,5.22,0,0,1-3.59,1.33c-2.6,0-5.33-1.64-5.33-5.64,0-3.23,2-5.72,5.23-5.72a4.83,4.83,0,0,1,4.08,2,7.26,7.26,0,0,1,1,4.06H100a3.45,3.45,0,0,0,3.43,3.67,3.28,3.28,0,0,0,2.21-.78,4.5,4.5,0,0,0,1.12-1.49Zm-1.85-3.82a3.22,3.22,0,0,0-3.17-2.81,3.27,3.27,0,0,0-3.17,2.81Z"/><path class="cls-2" d="M113.13,160.11v9.08h-1.87v-9.08h-1.15V158.4h1.15v-3.9h1.87v3.9H115v1.71Z"/><path class="cls-2" d="M132.4,166.43a6.45,6.45,0,0,1-1.33,1.74,5.22,5.22,0,0,1-3.59,1.33c-2.6,0-5.33-1.64-5.33-5.64,0-3.23,2-5.72,5.23-5.72a4.84,4.84,0,0,1,4.08,2,7.34,7.34,0,0,1,1,4.06h-8.4a3.46,3.46,0,0,0,3.44,3.67,3.3,3.3,0,0,0,2.21-.78,4.34,4.34,0,0,0,1.11-1.49Zm-1.85-3.82a3.23,3.23,0,0,0-3.17-2.81,3.29,3.29,0,0,0-3.18,2.81Z"/><path class="cls-2" d="M135.33,158.4h1.87v1.17a3,3,0,0,1,2.45-1.43,3.86,3.86,0,0,1,1.66.44l-.88,1.69a1.9,1.9,0,0,0-1.09-.36,1.81,1.81,0,0,0-1.51.67,4.68,4.68,0,0,0-.63,2.91v5.7h-1.87Z"/><path class="cls-2" d="M151,164.69a3.66,3.66,0,0,0,.52,2.31,2.56,2.56,0,0,0,3.79,0,3.66,3.66,0,0,0,.52-2.31V158.4h1.88v6.5a4.29,4.29,0,0,1-1,3.25,4.72,4.72,0,0,1-6.61,0,4.33,4.33,0,0,1-1-3.25v-6.5H151Z"/><path class="cls-2" d="M163.07,150.23v19H161.2v-19Z"/><path class="cls-2" d="M165.93,163.83a5.72,5.72,0,1,1,5.72,5.67A5.54,5.54,0,0,1,165.93,163.83Zm1.93,0a3.8,3.8,0,1,0,3.79-4A3.74,3.74,0,0,0,167.86,163.83Z"/><path class="cls-2" d="M180.75,158.4l3.23,7.28,3.22-7.28h2.08L184,169.89l-5.31-11.49Z"/><path class="cls-2" d="M193.13,150.23v19h-1.87v-19Z"/><path class="cls-2" d="M197.6,153a1.33,1.33,0,1,1-1.33,1.32A1.33,1.33,0,0,1,197.6,153Zm.94,5.41v10.79h-1.88V158.4Z"/><path class="cls-2" d="M210.34,158.4h1.87v10.53a6.8,6.8,0,0,1-1,4.24,5.24,5.24,0,0,1-4.31,2,5.34,5.34,0,0,1-3.85-1.46,4.86,4.86,0,0,1-1.41-3.48h1.85a3.2,3.2,0,0,0,3.43,3.27,3,3,0,0,0,2.86-1.5,5,5,0,0,0,.6-2.76v-1.56a4.53,4.53,0,0,1-3.69,1.82A5.12,5.12,0,0,1,203,168a5.82,5.82,0,0,1-1.56-4.26,5.66,5.66,0,0,1,1.56-4.19,5.32,5.32,0,0,1,3.69-1.45,4.49,4.49,0,0,1,3.69,1.79Zm-5.93,2.42a4.09,4.09,0,0,0-1.09,3,4.16,4.16,0,0,0,1.22,3.17,3.27,3.27,0,0,0,2.32.89,3.23,3.23,0,0,0,2.36-.91,4.39,4.39,0,0,0,1.22-3.12,4.26,4.26,0,0,0-1.14-3.05,3.49,3.49,0,0,0-2.44-1A3.31,3.31,0,0,0,204.41,160.82Z"/><path class="cls-2" d="M217.67,160.11v9.08H215.8v-9.08h-1.14V158.4h1.14v-3.9h1.87v3.9h1.87v1.71Z"/><path class="cls-2" d="M235.64,158.4h1.87v10.79h-1.87v-1.51A4.56,4.56,0,0,1,232,169.5c-2.73,0-5.26-1.92-5.26-5.72s2.5-5.64,5.26-5.64a4.47,4.47,0,0,1,3.69,1.79Zm-7,5.38c0,2.31,1.3,4.06,3.53,4.06s3.59-1.9,3.59-4a3.65,3.65,0,0,0-3.59-4C230.31,159.8,228.62,161.15,228.62,163.78Z"/><path class="cls-2" d="M243,160.11v9.08H241.1v-9.08H240V158.4h1.15v-3.9H243v3.9h1.87v1.71Z"/><path class="cls-2" d="M260.93,150.23h1.88v19h-1.88v-1.51a4.53,4.53,0,0,1-3.69,1.82c-2.73,0-5.25-1.92-5.25-5.72s2.5-5.64,5.25-5.64a4.45,4.45,0,0,1,3.69,1.79Zm-7,13.55c0,2.31,1.3,4.06,3.54,4.06s3.59-1.9,3.59-4a3.66,3.66,0,0,0-3.59-4C255.6,159.8,253.91,161.15,253.91,163.78Z"/><path class="cls-2" d="M275.91,166.43a6.26,6.26,0,0,1-1.33,1.74A5.19,5.19,0,0,1,271,169.5c-2.6,0-5.33-1.64-5.33-5.64,0-3.23,2-5.72,5.22-5.72a4.83,4.83,0,0,1,4.08,2,7.26,7.26,0,0,1,1,4.06h-8.4a3.46,3.46,0,0,0,3.43,3.67,3.26,3.26,0,0,0,2.21-.78,4.24,4.24,0,0,0,1.12-1.49Zm-1.85-3.82a3.22,3.22,0,0,0-3.17-2.81,3.29,3.29,0,0,0-3.17,2.81Z"/><path class="cls-2" d="M280.72,150.23v19h-1.87v-19Z"/><path class="cls-2" d="M293.82,166.43a6.41,6.41,0,0,1-1.32,1.74,5.22,5.22,0,0,1-3.59,1.33c-2.6,0-5.33-1.64-5.33-5.64,0-3.23,2-5.72,5.23-5.72a4.84,4.84,0,0,1,4.08,2,7.34,7.34,0,0,1,1,4.06h-8.4a3.46,3.46,0,0,0,3.44,3.67,3.3,3.3,0,0,0,2.21-.78,4.34,4.34,0,0,0,1.11-1.49ZM292,162.61a3.23,3.23,0,0,0-3.17-2.81,3.29,3.29,0,0,0-3.18,2.81Z"/><path class="cls-2" d="M304.69,169.19h-1.87v-19h1.87v9.68a4.63,4.63,0,0,1,3.69-1.77c3.38,0,5.26,2.81,5.26,5.72s-1.9,5.64-5.18,5.64a4.59,4.59,0,0,1-3.77-1.82Zm7-5.33c0-2.65-1.79-4.06-3.53-4.06a3.74,3.74,0,0,0-3.59,4c0,2.21,1.4,4,3.61,4S311.71,166,311.71,163.86Z"/><path class="cls-2" d="M317.43,153a1.33,1.33,0,1,1-1.33,1.32A1.33,1.33,0,0,1,317.43,153Zm.94,5.41v10.79H316.5V158.4Z"/><path class="cls-2" d="M323.77,150.23v19H321.9v-19Z"/><path class="cls-2" d="M329.18,150.23v19h-1.87v-19Z"/><path class="cls-2" d="M342.29,166.43a6.45,6.45,0,0,1-1.33,1.74,5.22,5.22,0,0,1-3.59,1.33c-2.6,0-5.33-1.64-5.33-5.64,0-3.23,2-5.72,5.23-5.72a4.84,4.84,0,0,1,4.08,2,7.18,7.18,0,0,1,1,4.06H334a3.45,3.45,0,0,0,3.43,3.67,3.3,3.3,0,0,0,2.21-.78,4.5,4.5,0,0,0,1.12-1.49Zm-1.85-3.82a3.23,3.23,0,0,0-3.17-2.81,3.27,3.27,0,0,0-3.17,2.81Z"/><path class="cls-2" d="M353.49,150.23h1.87v19h-1.87v-1.51a4.53,4.53,0,0,1-3.69,1.82c-2.73,0-5.25-1.92-5.25-5.72s2.49-5.64,5.25-5.64a4.45,4.45,0,0,1,3.69,1.79Zm-7,13.55c0,2.31,1.3,4.06,3.54,4.06s3.59-1.9,3.59-4a3.66,3.66,0,0,0-3.59-4C348.16,159.8,346.47,161.15,346.47,163.78Z"/><path class="cls-2" d="M368.47,166.43a6.26,6.26,0,0,1-1.33,1.74,5.22,5.22,0,0,1-3.59,1.33c-2.6,0-5.33-1.64-5.33-5.64,0-3.23,2-5.72,5.23-5.72a4.83,4.83,0,0,1,4.08,2,7.26,7.26,0,0,1,1,4.06h-8.4a3.45,3.45,0,0,0,3.43,3.67,3.28,3.28,0,0,0,2.21-.78,4.5,4.5,0,0,0,1.12-1.49Zm-1.85-3.82a3.22,3.22,0,0,0-3.17-2.81,3.27,3.27,0,0,0-3.17,2.81Z"/><path class="cls-2" d="M371.41,158.4h1.87v1.17a3,3,0,0,1,2.44-1.43,3.91,3.91,0,0,1,1.67.44l-.89,1.69a1.86,1.86,0,0,0-1.09-.36,1.84,1.84,0,0,0-1.51.67,4.7,4.7,0,0,0-.62,2.91v5.7h-1.87Z"/><path class="cls-2" d="M394.73,166.43a6.26,6.26,0,0,1-1.33,1.74,5.22,5.22,0,0,1-3.59,1.33c-2.6,0-5.33-1.64-5.33-5.64,0-3.23,2-5.72,5.23-5.72a4.83,4.83,0,0,1,4.08,2,7.26,7.26,0,0,1,1,4.06h-8.4a3.45,3.45,0,0,0,3.43,3.67,3.28,3.28,0,0,0,2.21-.78,4.5,4.5,0,0,0,1.12-1.49Zm-1.85-3.82a3.22,3.22,0,0,0-3.17-2.81,3.27,3.27,0,0,0-3.17,2.81Z"/><path class="cls-2" d="M399.54,150.23v19h-1.87v-19Z"/><path class="cls-2" d="M404.94,150.23v19h-1.87v-19Z"/><path class="cls-2" d="M418.05,166.43a6.26,6.26,0,0,1-1.33,1.74,5.22,5.22,0,0,1-3.59,1.33c-2.6,0-5.33-1.64-5.33-5.64,0-3.23,2-5.72,5.23-5.72a4.83,4.83,0,0,1,4.08,2,7.26,7.26,0,0,1,1,4.06h-8.4a3.45,3.45,0,0,0,3.43,3.67,3.28,3.28,0,0,0,2.21-.78,4.5,4.5,0,0,0,1.12-1.49Zm-1.85-3.82A3.22,3.22,0,0,0,413,159.8a3.27,3.27,0,0,0-3.17,2.81Z"/><path class="cls-2" d="M421,158.4h1.87v1.17a3,3,0,0,1,2.44-1.43,3.91,3.91,0,0,1,1.67.44l-.89,1.69a1.86,1.86,0,0,0-1.09-.36,1.84,1.84,0,0,0-1.51.67,4.7,4.7,0,0,0-.62,2.91v5.7H421Z"/><path class="cls-2" d="M435.26,158.4l3.22,7.28,3.23-7.28h2.08l-5.31,11.49-5.3-11.49Z"/><path class="cls-2" d="M446.7,153a1.33,1.33,0,1,1-1.33,1.32A1.33,1.33,0,0,1,446.7,153Zm.94,5.41v10.79h-1.88V158.4Z"/><path class="cls-2" d="M459.44,150.23h1.87v19h-1.87v-1.51a4.53,4.53,0,0,1-3.69,1.82c-2.73,0-5.25-1.92-5.25-5.72s2.49-5.64,5.25-5.64a4.45,4.45,0,0,1,3.69,1.79Zm-7,13.55c0,2.31,1.3,4.06,3.54,4.06s3.58-1.9,3.58-4a3.65,3.65,0,0,0-3.58-4C454.11,159.8,452.42,161.15,452.42,163.78Z"/><path class="cls-2" d="M474.42,166.43a6.45,6.45,0,0,1-1.33,1.74,5.22,5.22,0,0,1-3.59,1.33c-2.6,0-5.33-1.64-5.33-5.64,0-3.23,2-5.72,5.23-5.72a4.84,4.84,0,0,1,4.08,2,7.18,7.18,0,0,1,1,4.06H466.1a3.45,3.45,0,0,0,3.43,3.67,3.3,3.3,0,0,0,2.21-.78,4.5,4.5,0,0,0,1.12-1.49Zm-1.85-3.82a3.23,3.23,0,0,0-3.17-2.81,3.27,3.27,0,0,0-3.17,2.81Z"/><path class="cls-2" d="M476.68,163.83a5.72,5.72,0,1,1,5.72,5.67A5.54,5.54,0,0,1,476.68,163.83Zm1.92,0a3.8,3.8,0,1,0,3.8-4A3.75,3.75,0,0,0,478.6,163.83Z"/><path class="cls-2" d="M500.54,166.43a6.41,6.41,0,0,1-1.32,1.74,5.22,5.22,0,0,1-3.59,1.33c-2.6,0-5.33-1.64-5.33-5.64,0-3.23,2-5.72,5.23-5.72a4.84,4.84,0,0,1,4.08,2,7.26,7.26,0,0,1,1,4.06h-8.4a3.46,3.46,0,0,0,3.44,3.67,3.3,3.3,0,0,0,2.21-.78,4.34,4.34,0,0,0,1.11-1.49Zm-1.84-3.82a3.23,3.23,0,0,0-3.17-2.81,3.29,3.29,0,0,0-3.18,2.81Z"/><path class="cls-2" d="M503.48,158.4h1.87v1.17a3,3,0,0,1,2.45-1.43,3.86,3.86,0,0,1,1.66.44l-.88,1.69a1.9,1.9,0,0,0-1.09-.36,1.81,1.81,0,0,0-1.51.67,4.68,4.68,0,0,0-.63,2.91v5.7h-1.87Z"/><path class="cls-2" d="M525.5,158.4h1.88v10.79H525.5v-1.51a4.53,4.53,0,0,1-3.69,1.82c-2.73,0-5.25-1.92-5.25-5.72s2.5-5.64,5.25-5.64a4.45,4.45,0,0,1,3.69,1.79Zm-7,5.38c0,2.31,1.3,4.06,3.54,4.06s3.59-1.9,3.59-4a3.66,3.66,0,0,0-3.59-4C520.17,159.8,518.48,161.15,518.48,163.78Z"/><path class="cls-2" d="M532.84,160.11v9.08H531v-9.08h-1V158.4h1v-4.71a3.74,3.74,0,0,1,1-3,3.37,3.37,0,0,1,2.16-.7,3.62,3.62,0,0,1,1.33.23V152a3.3,3.3,0,0,0-1.22-.23,1.31,1.31,0,0,0-1.2.57,3.3,3.3,0,0,0-.23,1.56v4.5h2.65v1.71Z"/><path class="cls-2" d="M90.54,189.6h1.87v10.79H90.54v-1.51a4.59,4.59,0,0,1-3.7,1.82c-2.73,0-5.25-1.93-5.25-5.72s2.5-5.64,5.25-5.64a4.49,4.49,0,0,1,3.7,1.79Zm-7,5.38c0,2.31,1.3,4.06,3.53,4.06s3.59-1.9,3.59-4a3.65,3.65,0,0,0-3.59-4C85.21,191,83.52,192.35,83.52,195Z"/><path class="cls-2" d="M95.94,189.6h1.88v1.24a3.79,3.79,0,0,1,3.09-1.5,3.66,3.66,0,0,1,3.09,1.48,4.76,4.76,0,0,1,.63,2.88v6.69h-1.87v-6.63a3.2,3.2,0,0,0-.5-2,2.1,2.1,0,0,0-1.77-.78,2.33,2.33,0,0,0-1.89.83,4.53,4.53,0,0,0-.78,2.91v5.65H95.94Z"/><path class="cls-2" d="M116.43,181.43h1.87v19h-1.87v-1.51a4.55,4.55,0,0,1-3.69,1.82c-2.73,0-5.25-1.93-5.25-5.72s2.49-5.64,5.25-5.64a4.45,4.45,0,0,1,3.69,1.79Zm-7,13.55c0,2.31,1.3,4.06,3.54,4.06s3.59-1.9,3.59-4a3.66,3.66,0,0,0-3.59-4C111.1,191,109.41,192.35,109.41,195Z"/><path class="cls-2" d="M121.84,189.6h1.87v1.17a3,3,0,0,1,2.45-1.43,3.86,3.86,0,0,1,1.66.44l-.88,1.69a1.93,1.93,0,0,0-1.1-.37,1.81,1.81,0,0,0-1.5.68,4.58,4.58,0,0,0-.63,2.91v5.7h-1.87Z"/><path class="cls-2" d="M138.48,197.63a6.26,6.26,0,0,1-1.33,1.74,5.19,5.19,0,0,1-3.58,1.33c-2.6,0-5.33-1.64-5.33-5.64,0-3.23,2-5.72,5.22-5.72a4.83,4.83,0,0,1,4.08,2,7.24,7.24,0,0,1,1,4.06h-8.4a3.47,3.47,0,0,0,3.43,3.67,3.27,3.27,0,0,0,2.21-.79,4.13,4.13,0,0,0,1.12-1.48Zm-1.85-3.82a3.22,3.22,0,0,0-3.17-2.81,3.29,3.29,0,0,0-3.17,2.81Z"/><path class="cls-2" d="M148.41,184.19a1.33,1.33,0,1,1-1.33,1.32A1.33,1.33,0,0,1,148.41,184.19Zm.94,5.41v10.79h-1.87V189.6Z"/><path class="cls-2" d="M163.39,192.09a1.66,1.66,0,0,0-1.51-1.09,1.19,1.19,0,0,0-1.3,1.22c0,.78.52,1,1.74,1.54a6.5,6.5,0,0,1,2.7,1.66,2.54,2.54,0,0,1,.58,1.74,3.44,3.44,0,0,1-3.72,3.54,3.86,3.86,0,0,1-3.77-2.76l1.61-.67A2.44,2.44,0,0,0,161.9,199a1.68,1.68,0,0,0,1.77-1.72c0-1-.73-1.35-1.74-1.8a7.06,7.06,0,0,1-2.63-1.58,2.37,2.37,0,0,1-.49-1.59,2.9,2.9,0,0,1,3.15-3,3.1,3.1,0,0,1,3,1.95Z"/><path class="cls-2" d="M177.66,197.63a6.26,6.26,0,0,1-1.33,1.74,5.19,5.19,0,0,1-3.58,1.33c-2.6,0-5.33-1.64-5.33-5.64,0-3.23,2-5.72,5.22-5.72a4.83,4.83,0,0,1,4.08,2,7.24,7.24,0,0,1,1,4.06h-8.4a3.47,3.47,0,0,0,3.43,3.67,3.27,3.27,0,0,0,2.21-.79,4.13,4.13,0,0,0,1.12-1.48Zm-1.85-3.82a3.22,3.22,0,0,0-3.17-2.81,3.29,3.29,0,0,0-3.17,2.81Z"/><path class="cls-2" d="M182.47,181.43V193.6l3.95-4h2.45l-4.63,4.62,5.46,6.17h-2.45l-4.31-4.92-.47.47v4.45H180.6v-19Z"/><path class="cls-2" d="M196,192.09a1.66,1.66,0,0,0-1.51-1.09,1.19,1.19,0,0,0-1.3,1.22c0,.78.52,1,1.74,1.54a6.5,6.5,0,0,1,2.7,1.66,2.54,2.54,0,0,1,.58,1.74,3.44,3.44,0,0,1-3.72,3.54,3.86,3.86,0,0,1-3.77-2.76l1.61-.67a2.44,2.44,0,0,0,2.18,1.77,1.68,1.68,0,0,0,1.77-1.72c0-1-.73-1.35-1.74-1.8a7.06,7.06,0,0,1-2.63-1.58,2.37,2.37,0,0,1-.49-1.59,2.9,2.9,0,0,1,3.15-3,3.1,3.1,0,0,1,3,1.95Z"/><path class="cls-2" d="M202.59,195.89a3.66,3.66,0,0,0,.52,2.31,2.57,2.57,0,0,0,3.8,0,3.66,3.66,0,0,0,.52-2.31V189.6h1.87v6.5a4.29,4.29,0,0,1-1,3.25,4.71,4.71,0,0,1-6.6,0,4.29,4.29,0,0,1-1-3.25v-6.5h1.87Z"/><path class="cls-2" d="M222.41,197.63a6.45,6.45,0,0,1-1.33,1.74,5.22,5.22,0,0,1-3.59,1.33c-2.6,0-5.33-1.64-5.33-5.64,0-3.23,2-5.72,5.23-5.72a4.84,4.84,0,0,1,4.08,2,7.16,7.16,0,0,1,1,4.06h-8.39a3.46,3.46,0,0,0,3.43,3.67,3.31,3.31,0,0,0,2.21-.79,4.37,4.37,0,0,0,1.12-1.48Zm-1.85-3.82a3.23,3.23,0,0,0-3.17-2.81,3.27,3.27,0,0,0-3.17,2.81Z"/><path class="cls-2" d="M227.22,181.43v19h-1.88v-19Z"/><path class="cls-2" d="M232.62,181.43v19h-1.87v-19Z"/><path class="cls-2" d="M245.73,197.63a6.26,6.26,0,0,1-1.33,1.74,5.22,5.22,0,0,1-3.59,1.33c-2.6,0-5.33-1.64-5.33-5.64,0-3.23,2-5.72,5.23-5.72a4.83,4.83,0,0,1,4.08,2,7.24,7.24,0,0,1,1,4.06h-8.4a3.46,3.46,0,0,0,3.43,3.67,3.29,3.29,0,0,0,2.21-.79,4.37,4.37,0,0,0,1.12-1.48Zm-1.85-3.82a3.22,3.22,0,0,0-3.17-2.81,3.27,3.27,0,0,0-3.17,2.81Z"/><path class="cls-2" d="M259.17,192.09a1.66,1.66,0,0,0-1.51-1.09,1.19,1.19,0,0,0-1.3,1.22c0,.78.52,1,1.74,1.54a6.63,6.63,0,0,1,2.71,1.66,2.58,2.58,0,0,1,.57,1.74,3.44,3.44,0,0,1-3.72,3.54,3.86,3.86,0,0,1-3.77-2.76l1.61-.67a2.45,2.45,0,0,0,2.19,1.77,1.68,1.68,0,0,0,1.77-1.72c0-1-.73-1.35-1.75-1.8a6.92,6.92,0,0,1-2.62-1.58,2.33,2.33,0,0,1-.5-1.59,2.9,2.9,0,0,1,3.15-3,3.1,3.1,0,0,1,3,1.95Z"/><path class="cls-2" d="M264.81,184.19a1.33,1.33,0,1,1-1.33,1.32A1.33,1.33,0,0,1,264.81,184.19Zm.94,5.41v10.79h-1.88V189.6Z"/><path class="cls-2" d="M271.21,191.31v9.08h-1.88v-9.08h-1.14V189.6h1.14v-3.9h1.88v3.9h1.87v1.71Z"/><path class="cls-2" d="M276.72,195.89a3.66,3.66,0,0,0,.52,2.31,2.56,2.56,0,0,0,3.79,0,3.66,3.66,0,0,0,.52-2.31V189.6h1.88v6.5a4.29,4.29,0,0,1-1,3.25,4.72,4.72,0,0,1-6.61,0,4.33,4.33,0,0,1-1-3.25v-6.5h1.87Z"/><path class="cls-2" d="M295.23,189.6h1.87v10.79h-1.87v-1.51a4.55,4.55,0,0,1-3.69,1.82c-2.73,0-5.25-1.93-5.25-5.72s2.49-5.64,5.25-5.64a4.45,4.45,0,0,1,3.69,1.79Zm-7,5.38c0,2.31,1.3,4.06,3.54,4.06s3.58-1.9,3.58-4a3.65,3.65,0,0,0-3.58-4C289.9,191,288.21,192.35,288.21,195Z"/><path class="cls-2" d="M302.56,191.31v9.08h-1.87v-9.08h-1.15V189.6h1.15v-3.9h1.87v3.9h1.87v1.71Z"/><path class="cls-2" d="M307.14,184.19a1.33,1.33,0,1,1-1.33,1.32A1.33,1.33,0,0,1,307.14,184.19Zm.93,5.41v10.79H306.2V189.6Z"/><path class="cls-2" d="M310.93,195a5.72,5.72,0,1,1,5.72,5.67A5.54,5.54,0,0,1,310.93,195Zm1.93,0a3.8,3.8,0,1,0,3.79-4A3.74,3.74,0,0,0,312.86,195Z"/><path class="cls-2" d="M325.23,189.6h1.87v1.24a3.82,3.82,0,0,1,3.1-1.5,3.66,3.66,0,0,1,3.09,1.48,4.76,4.76,0,0,1,.63,2.88v6.69H332v-6.63a3.19,3.19,0,0,0-.49-2,2.11,2.11,0,0,0-1.77-.78,2.37,2.37,0,0,0-1.9.83,4.59,4.59,0,0,0-.78,2.91v5.65h-1.87Z"/><path class="cls-2" d="M347,197.63a6.26,6.26,0,0,1-1.33,1.74,5.19,5.19,0,0,1-3.58,1.33c-2.6,0-5.33-1.64-5.33-5.64,0-3.23,2-5.72,5.22-5.72a4.83,4.83,0,0,1,4.08,2,7.24,7.24,0,0,1,1,4.06h-8.4a3.47,3.47,0,0,0,3.43,3.67,3.27,3.27,0,0,0,2.21-.79,4.13,4.13,0,0,0,1.12-1.48Zm-1.85-3.82A3.22,3.22,0,0,0,342,191a3.29,3.29,0,0,0-3.17,2.81Z"/><path class="cls-2" d="M350,189.6h1.87v1.17a3,3,0,0,1,2.44-1.43,3.87,3.87,0,0,1,1.67.44l-.89,1.69a1.88,1.88,0,0,0-1.09-.37,1.84,1.84,0,0,0-1.51.68,4.68,4.68,0,0,0-.62,2.91v5.7H350Z"/><path class="cls-2" d="M358.25,197.84l1.72.62-2.63,5.88-1.22-.5Z"/><path class="cls-2" d="M374.06,192.09a1.66,1.66,0,0,0-1.51-1.09,1.19,1.19,0,0,0-1.3,1.22c0,.78.52,1,1.74,1.54a6.63,6.63,0,0,1,2.71,1.66,2.53,2.53,0,0,1,.57,1.74,3.44,3.44,0,0,1-3.72,3.54,3.86,3.86,0,0,1-3.77-2.76l1.61-.67a2.46,2.46,0,0,0,2.19,1.77,1.68,1.68,0,0,0,1.77-1.72c0-1-.73-1.35-1.75-1.8a6.92,6.92,0,0,1-2.62-1.58,2.33,2.33,0,0,1-.5-1.59,2.9,2.9,0,0,1,3.15-3,3.1,3.1,0,0,1,3,1.95Z"/><path class="cls-2" d="M378.09,195a5.72,5.72,0,1,1,5.72,5.67A5.54,5.54,0,0,1,378.09,195Zm1.92,0a3.81,3.81,0,1,0,3.8-4A3.75,3.75,0,0,0,380,195Z"/><path class="cls-2" d="M392.39,189.6h1.87v1.14a3.14,3.14,0,0,1,2.68-1.4,3.23,3.23,0,0,1,2.94,1.74,3.59,3.59,0,0,1,3.25-1.74c3.2,0,3.51,2.67,3.51,4.21v6.84h-1.87v-6.56c0-1.22-.16-2.83-1.93-2.83-2.16,0-2.39,2.08-2.39,3.38v6h-1.87V194c0-.75,0-3-1.95-3-2.14,0-2.37,2.21-2.37,3.51v5.88h-1.87Z"/><path class="cls-2" d="M416.26,189.6h1.87v1.14a3.14,3.14,0,0,1,2.68-1.4,3.19,3.19,0,0,1,2.93,1.74,3.6,3.6,0,0,1,3.25-1.74c3.2,0,3.51,2.67,3.51,4.21v6.84h-1.87v-6.56c0-1.22-.15-2.83-1.92-2.83-2.16,0-2.39,2.08-2.39,3.38v6h-1.88V194c0-.75,0-3-1.95-3s-2.36,2.21-2.36,3.51v5.88h-1.87Z"/><path class="cls-2" d="M442.33,189.6h1.88v10.79h-1.88v-1.51a4.55,4.55,0,0,1-3.69,1.82c-2.73,0-5.25-1.93-5.25-5.72s2.5-5.64,5.25-5.64a4.45,4.45,0,0,1,3.69,1.79Zm-7,5.38c0,2.31,1.3,4.06,3.54,4.06s3.59-1.9,3.59-4a3.66,3.66,0,0,0-3.59-4C437,191,435.31,192.35,435.31,195Z"/><path class="cls-2" d="M447.74,189.6h1.87v1.24a3.82,3.82,0,0,1,3.1-1.5,3.66,3.66,0,0,1,3.09,1.48,4.76,4.76,0,0,1,.63,2.88v6.69h-1.88v-6.63a3.19,3.19,0,0,0-.49-2,2.11,2.11,0,0,0-1.77-.78,2.37,2.37,0,0,0-1.9.83,4.59,4.59,0,0,0-.78,2.91v5.65h-1.87Z"/><path class="cls-2" d="M467,184.19a1.33,1.33,0,1,1-1.33,1.32A1.33,1.33,0,0,1,467,184.19Zm.93,5.41v10.79H466V189.6Z"/><path class="cls-2" d="M473.3,181.43V193.6l3.95-4h2.45l-4.63,4.62,5.46,6.17h-2.45l-4.31-4.92-.47.47v4.45h-1.87v-19Z"/><path class="cls-2" d="M484.27,181.43V193.6l4-4h2.45L486,194.22l5.46,6.17h-2.44l-4.32-4.92-.47.47v4.45H482.4v-19Z"/><path class="cls-2" d="M502.68,197.63a6.26,6.26,0,0,1-1.33,1.74,5.19,5.19,0,0,1-3.58,1.33c-2.6,0-5.34-1.64-5.34-5.64,0-3.23,2-5.72,5.23-5.72a4.83,4.83,0,0,1,4.08,2,7.24,7.24,0,0,1,1,4.06h-8.4a3.46,3.46,0,0,0,3.43,3.67,3.29,3.29,0,0,0,2.21-.79,4.13,4.13,0,0,0,1.12-1.48Zm-1.85-3.82a3.22,3.22,0,0,0-3.17-2.81,3.28,3.28,0,0,0-3.17,2.81Z"/><path class="cls-2" d="M511.67,181.43h1.88v9.41a3.79,3.79,0,0,1,3.09-1.5,3.66,3.66,0,0,1,3.09,1.48,4.76,4.76,0,0,1,.63,2.88v6.69h-1.87v-6.63a3.2,3.2,0,0,0-.5-2,2.1,2.1,0,0,0-1.77-.78,2.33,2.33,0,0,0-1.89.83,4.53,4.53,0,0,0-.78,2.91v5.65h-1.88Z"/><path class="cls-2" d="M532.16,189.6H534v10.79h-1.87v-1.51a4.55,4.55,0,0,1-3.69,1.82c-2.73,0-5.25-1.93-5.25-5.72s2.49-5.64,5.25-5.64a4.45,4.45,0,0,1,3.69,1.79Zm-7,5.38c0,2.31,1.3,4.06,3.54,4.06s3.59-1.9,3.59-4a3.66,3.66,0,0,0-3.59-4C526.83,191,525.14,192.35,525.14,195Z"/><path class="cls-2" d="M537.57,189.6h1.87v1.17a3,3,0,0,1,2.45-1.43,3.86,3.86,0,0,1,1.66.44l-.88,1.69a1.93,1.93,0,0,0-1.1-.37,1.81,1.81,0,0,0-1.5.68,4.58,4.58,0,0,0-.63,2.91v5.7h-1.87Z"/><path class="cls-2" d="M84.19,222.51v9.08H82.32v-9.08h-1V220.8h1v-4.71a3.73,3.73,0,0,1,1-3,3.37,3.37,0,0,1,2.16-.7,3.55,3.55,0,0,1,1.32.23v1.82a3.3,3.3,0,0,0-1.22-.23,1.3,1.3,0,0,0-1.19.57,3.17,3.17,0,0,0-.24,1.56v4.5h2.65v1.71Z"/><path class="cls-2" d="M96.78,220.8h1.87v10.79H96.78v-1.51a4.59,4.59,0,0,1-3.7,1.82c-2.73,0-5.25-1.93-5.25-5.72s2.5-5.64,5.25-5.64a4.49,4.49,0,0,1,3.7,1.79Zm-7,5.38c0,2.31,1.3,4,3.53,4s3.59-1.89,3.59-4a3.65,3.65,0,0,0-3.59-4C91.45,222.2,89.76,223.55,89.76,226.18Zm3.95-12a2.24,2.24,0,1,1-2.24,2.24A2.25,2.25,0,0,1,93.71,214.19Zm0,3.33a1.09,1.09,0,1,0-1.09-1.09A1.13,1.13,0,0,0,93.71,217.52Z"/><path class="cls-2" d="M111.75,228.83a6.41,6.41,0,0,1-1.32,1.74,5.22,5.22,0,0,1-3.59,1.33c-2.6,0-5.33-1.64-5.33-5.64,0-3.23,2-5.72,5.22-5.72a4.85,4.85,0,0,1,4.09,2,7.32,7.32,0,0,1,1,4.06h-8.4a3.46,3.46,0,0,0,3.43,3.66,3.31,3.31,0,0,0,2.21-.77,4.24,4.24,0,0,0,1.12-1.49ZM109.91,225a3.24,3.24,0,0,0-3.18-2.81,3.29,3.29,0,0,0-3.17,2.81Z"/><path class="cls-2" d="M116.61,222.51v9.08h-1.87v-9.08H113.6V220.8h1.14v-3.9h1.87v3.9h1.88v1.71Z"/><path class="cls-2" d="M128.18,212.63v19h-1.87v-19Z"/><path class="cls-2" d="M131,226.23a5.72,5.72,0,1,1,5.72,5.67A5.54,5.54,0,0,1,131,226.23Zm1.93,0a3.8,3.8,0,1,0,3.79-4A3.74,3.74,0,0,0,133,226.23Z"/><path class="cls-2" d="M145.86,220.8l3.23,7.28,3.22-7.28h2.08l-5.3,11.49-5.31-11.49Z"/><path class="cls-2" d="M164.35,222.51v9.08h-1.87v-9.08h-1.15V220.8h1.15v-3.9h1.87v3.9h1.87v1.71Z"/><path class="cls-2" d="M168.92,215.39a1.33,1.33,0,1,1-1.32,1.32A1.33,1.33,0,0,1,168.92,215.39Zm.94,5.41v10.79H168V220.8Z"/><path class="cls-2" d="M175.27,212.63v19H173.4v-19Z"/><path class="cls-2" d="M193.13,220.8H195v10.79h-1.87v-1.51a4.59,4.59,0,0,1-3.69,1.82c-2.73,0-5.26-1.93-5.26-5.72s2.5-5.64,5.26-5.64a4.45,4.45,0,0,1,3.69,1.79Zm-7,5.38c0,2.31,1.3,4,3.54,4s3.58-1.89,3.58-4a3.65,3.65,0,0,0-3.58-4C187.8,222.2,186.11,223.55,186.11,226.18Z"/><path class="cls-2" d="M200.46,222.51v9.08h-1.87v-9.08h-1.15V220.8h1.15v-3.9h1.87v3.9h1.87v1.71Z"/><path class="cls-2" d="M218.43,212.63h1.87v19h-1.87v-1.51a4.59,4.59,0,0,1-3.7,1.82c-2.73,0-5.25-1.93-5.25-5.72s2.5-5.64,5.25-5.64a4.49,4.49,0,0,1,3.7,1.79Zm-7,13.55c0,2.31,1.3,4,3.53,4s3.59-1.89,3.59-4a3.65,3.65,0,0,0-3.59-4C213.1,222.2,211.41,223.55,211.41,226.18Z"/><path class="cls-2" d="M233.4,228.83a6.41,6.41,0,0,1-1.32,1.74,5.22,5.22,0,0,1-3.59,1.33c-2.6,0-5.33-1.64-5.33-5.64,0-3.23,2-5.72,5.22-5.72a4.85,4.85,0,0,1,4.09,2,7.32,7.32,0,0,1,1,4.06h-8.4a3.46,3.46,0,0,0,3.43,3.66,3.31,3.31,0,0,0,2.21-.77,4.24,4.24,0,0,0,1.12-1.49ZM231.56,225a3.24,3.24,0,0,0-3.18-2.81,3.29,3.29,0,0,0-3.17,2.81Z"/><path class="cls-2" d="M238.21,212.63v19h-1.87v-19Z"/><path class="cls-2" d="M251.32,228.83a6.45,6.45,0,0,1-1.33,1.74,5.22,5.22,0,0,1-3.59,1.33c-2.6,0-5.33-1.64-5.33-5.64,0-3.23,2-5.72,5.23-5.72a4.84,4.84,0,0,1,4.08,2,7.16,7.16,0,0,1,1,4.06H243a3.45,3.45,0,0,0,3.43,3.66,3.34,3.34,0,0,0,2.21-.77,4.5,4.5,0,0,0,1.12-1.49ZM249.47,225a3.23,3.23,0,0,0-3.17-2.81,3.29,3.29,0,0,0-3.18,2.81Z"/><path class="cls-2" d="M255.45,229.25a1.3,1.3,0,1,1-1.3,1.3A1.32,1.32,0,0,1,255.45,229.25Z"/></svg>
