<svg xmlns="http://www.w3.org/2000/svg" width="170" height="180" viewBox="0 0 170 180"><defs><style>.cls-1{fill:#152230;}.cls-2{fill:#fff;}.cls-3{fill:#e9eced;}.cls-4{fill:#89cce5;}</style></defs><title>gem_knap</title><g id="Layer_3" data-name="Layer 3"><rect class="cls-1" x="1" y="1.5" width="168" height="177" rx="16.8" ry="16.8"/><path class="cls-2" d="M58.62,146.25h9.45v.54A12.44,12.44,0,0,1,65.89,154,10.17,10.17,0,0,1,57.46,158a11.73,11.73,0,1,1,.07-23.46,11.3,11.3,0,0,1,6.94,2.25,13.68,13.68,0,0,1,2.61,2.68l-1.87,1.7a11.86,11.86,0,0,0-2.14-2.34A8.3,8.3,0,0,0,57.56,137a9.35,9.35,0,0,0-.06,18.7,7.9,7.9,0,0,0,6.93-3.8,7.23,7.23,0,0,0,.92-3.23H58.62Z"/><path class="cls-2" d="M84.46,137.34H75.21v6.73h9v2.38h-9v8.8h9.25v2.38H72.7V135H84.46Z"/><path class="cls-2" d="M88.3,157.63l3.78-23.93,8.7,19.14,8.87-19.17,3.54,24H110.6l-2.14-15.77-7.72,16.73-7.61-16.73-2.24,15.77Z"/><path class="cls-3" d="M129,31v73a3.5,3.5,0,0,1-3.5,3.5H65.25a3.66,3.66,0,0,1-1.23-.22,3.75,3.75,0,0,1-1-.57L43.28,90.55A3.5,3.5,0,0,1,42,87.84V31a3.5,3.5,0,0,1,3.5-3.5h80A3.5,3.5,0,0,1,129,31Z"/><path class="cls-4" d="M117,28.24V67.76a2.74,2.74,0,0,1-2.74,2.74H57.74A2.74,2.74,0,0,1,55,67.76V28.24a3,3,0,0,1,.1-.74h61.8A3,3,0,0,1,117,28.24Z"/><path class="cls-4" d="M108,84.08v22.84a2.2,2.2,0,0,1-.07.58H65.25a3.66,3.66,0,0,1-1.23-.22c0-.12,0-.24,0-.36V84.08a2.57,2.57,0,0,1,2.58-2.58h38.84A2.57,2.57,0,0,1,108,84.08Z"/><rect class="cls-3" x="65" y="35.5" width="43" height="3" rx="1.5" ry="1.5"/><rect class="cls-3" x="65" y="41.5" width="43" height="3" rx="1.5" ry="1.5"/><rect class="cls-3" x="65" y="47.5" width="43" height="3" rx="1.5" ry="1.5"/><rect class="cls-3" x="65" y="53.5" width="43" height="3" rx="1.5" ry="1.5"/><rect class="cls-3" x="65" y="59.5" width="43" height="3" rx="1.5" ry="1.5"/><path class="cls-3" d="M80,88.69v18.62a1.21,1.21,0,0,1,0,.19H70a1.21,1.21,0,0,1,0-.19V88.69a2.19,2.19,0,0,1,2.19-2.19h5.62A2.19,2.19,0,0,1,80,88.69Z"/></g></svg>
