<svg id="Layer_1" data-name="Layer 1" xmlns="http://www.w3.org/2000/svg" width="660" height="430" viewBox="0 0 660 430"><defs><style>.cls-1{fill:#f4912d;}.cls-2{fill:#fff;}.cls-3{fill:#152230;}</style></defs><title>indstillinger_skaerm</title><rect class="cls-1" x="1.5" y="2" width="657" height="426" rx="36.87" ry="36.87"/><path class="cls-2" d="M84,83.71v50H74.2v-50Z"/><path class="cls-2" d="M95.35,133.74v-50h6.75l30.45,33.38V83.71h9.75v50h-6.75L105.1,100.29v33.45Z"/><path class="cls-2" d="M166.75,83.71c7,0,13.05.75,18.6,4.88,6.07,4.58,9.6,11.85,9.6,20.17s-3.45,15.53-10,20.18c-5.85,4.12-11.33,4.8-18.3,4.8H153.7v-50Zm-3.3,41.63h3c2.47,0,7.87-.15,12.22-3.3,4-2.85,6.23-8,6.23-13.28a16.66,16.66,0,0,0-6.15-13.34c-4.05-3-9-3.3-12.3-3.3h-3Z"/><path class="cls-2" d="M228.55,95.12a9.77,9.77,0,0,0-8.18-4.28c-5.25,0-6.9,3.3-6.9,5.85a4.21,4.21,0,0,0,1.58,3.37c1.2,1.13,2.85,1.73,6,2.85,3.9,1.35,7.57,2.7,10.12,5a13.6,13.6,0,0,1,4.28,10.5c0,9.75-7,16.42-17.4,16.42a20.56,20.56,0,0,1-17.25-9.45l6.37-6.07a11.74,11.74,0,0,0,10.5,6.67c4.43,0,7.73-2.7,7.73-6.9a5.82,5.82,0,0,0-2-4.5c-1.88-1.72-4.88-2.7-7.73-3.67a24.09,24.09,0,0,1-8.32-4.35,11.65,11.65,0,0,1-4-9.3c0-7.35,5-14.7,16.05-14.7a19.25,19.25,0,0,1,14.18,5.85Z"/><path class="cls-2" d="M259,92.12v41.62h-9.75V92.12H238V83.71h32.25v8.41Z"/><path class="cls-2" d="M286.15,83.71v50H276.4v-50Z"/><path class="cls-2" d="M307.3,83.71v41.63h15.45v8.4h-25.2v-50Z"/><path class="cls-2" d="M339.25,83.71v41.63H354.7v8.4H329.5v-50Z"/><path class="cls-2" d="M371.2,83.71v50h-9.75v-50Z"/><path class="cls-2" d="M382.6,133.74v-50h6.75l30.45,33.38V83.71h9.75v50H422.8l-30.45-33.45v33.45Z"/><path class="cls-2" d="M466.3,107h22.95v.6c0,3.38-.45,13.88-7.35,20.7-5.18,5.18-11.55,6.6-17.78,6.6s-12.67-1.27-18.15-6.75c-1.72-1.72-7.42-8-7.42-19.27a25.56,25.56,0,0,1,7.35-18.6c3.75-3.82,10.05-7.65,19.72-7.65a24.26,24.26,0,0,1,11.55,2.62,23.66,23.66,0,0,1,9.38,9.16l-8.48,4.57A13.61,13.61,0,0,0,472.22,93a16.38,16.38,0,0,0-7.05-1.57,16.93,16.93,0,0,0-11.55,4.43c-2.85,2.77-5,7.57-5,13.19,0,6.68,2.85,10.65,4.95,12.68a15.4,15.4,0,0,0,11.1,4.27,16.65,16.65,0,0,0,9.82-3,13.37,13.37,0,0,0,4.73-7.65H466.3Z"/><path class="cls-2" d="M526,92.12H508v11.17h17.25v8.4H508v13.65h18v8.4H498.25v-50H526Z"/><path class="cls-2" d="M549.92,83.71c6.9,0,10.43,1.81,12.75,3.75a14.2,14.2,0,0,1,5,11.25c0,4.88-2,9.15-5.85,11.78a13.81,13.81,0,0,1-5.47,2.17l15.6,21.08H559.75l-13.35-20.1h-1.2v20.1h-9.75v-50Zm-4.72,23H548c1.88,0,9.6-.23,9.6-7.57s-7.65-7.5-9.45-7.5H545.2Z"/><rect class="cls-3" x="78.5" y="179" width="148" height="65" rx="16.8" ry="16.8"/><path class="cls-2" d="M105.53,223.13l3.77-23.93,8.7,19.14,8.88-19.17,3.53,24h-2.58l-2.14-15.77L118,224.09l-7.61-16.73-2.25,15.77Z"/><path class="cls-2" d="M138.17,214.36c0,1.91,0,4,1.8,5.51a6.07,6.07,0,0,0,7.48,0c1.8-1.53,1.8-3.6,1.8-5.51v-13.9h2.52V215a8.78,8.78,0,0,1-1.43,5.44,8.71,8.71,0,0,1-13.26,0,8.78,8.78,0,0,1-1.43-5.44V200.46h2.52Z"/><path class="cls-2" d="M167.75,205a5.35,5.35,0,0,0-1.33-1.7,4.07,4.07,0,0,0-2.55-.79,3.49,3.49,0,0,0-3.81,3.51,2.39,2.39,0,0,0,.85,2,7.52,7.52,0,0,0,2.38,1.43l2.18.95a11.12,11.12,0,0,1,3.5,2.14,5.44,5.44,0,0,1,1.63,4.11,7.28,7.28,0,0,1-12.1,5.14,8.32,8.32,0,0,1-2.11-4l2.45-.68a5.32,5.32,0,0,0,1.36,2.89,4.34,4.34,0,0,0,3.26,1.25,4.29,4.29,0,0,0,4.56-4.48A3.42,3.42,0,0,0,166.9,214a9.91,9.91,0,0,0-2.72-1.56l-2-1a10.14,10.14,0,0,1-3-1.87,4.7,4.7,0,0,1-1.56-3.71c0-3.5,2.68-5.85,6.35-5.85a6.13,6.13,0,0,1,3.64,1,6.78,6.78,0,0,1,2.21,2.51Z"/><path class="cls-2" d="M177.74,200.46v22.67h-2.51V200.46Z"/><path class="cls-2" d="M186.11,210.18l9.65-9.72h3.4L188.55,211l10.95,12.1H196l-9.28-10.4-.64.65v9.75h-2.52V200.46h2.52Z"/><rect class="cls-3" x="78.5" y="286" width="227" height="65" rx="16.8" ry="16.8"/><path class="cls-2" d="M107.83,307.46v20.29h6.25v2.38h-8.77V307.46Z"/><path class="cls-2" d="M121.12,320.38l-7.45-12.92h2.93l5.78,10.13,5.84-10.13h2.93l-7.52,12.92v9.75h-2.51Z"/><path class="cls-2" d="M134.35,307.46H139a12.33,12.33,0,0,1,8.36,2.65,11,11,0,0,1,3.88,8.7,10.83,10.83,0,0,1-4,8.71c-2.07,1.77-4.25,2.61-8.3,2.61h-4.58Zm2.51,20.29h2.21a9.66,9.66,0,0,0,6.49-2,8.66,8.66,0,0,0,3.06-6.9c0-5.44-3.8-9-9.55-9h-2.21Z"/><path class="cls-2" d="M167.6,309.84h-9.25v6.73h9V319h-9v8.8h9.25v2.38H155.83V307.46H167.6Z"/><path class="cls-2" d="M182.56,309.84h-7.82v6.7h7.54v2.38h-7.54v11.21h-2.52V307.46h10.34Z"/><path class="cls-2" d="M197.31,309.84h-7.82v6.7H197v2.38h-7.55v11.21H187V307.46h10.33Z"/><path class="cls-2" d="M213.5,309.84h-9.25v6.73h9V319h-9v8.8h9.25v2.38H201.73V307.46H213.5Z"/><path class="cls-2" d="M220.64,317.18l9.65-9.72h3.4L223.08,318,234,330.13h-3.47l-9.28-10.4-.64.65v9.75h-2.52V307.46h2.52Z"/><path class="cls-2" d="M243,309.84v20.29h-2.52V309.84H235v-2.38h13.53v2.38Z"/><path class="cls-2" d="M263.68,309.84h-9.25v6.73h9V319h-9v8.8h9.25v2.38H251.92V307.46h11.76Z"/><path class="cls-2" d="M271.94,307.46a9.92,9.92,0,0,1,5.51,1.26A6.3,6.3,0,0,1,274.22,320l7.21,10.13h-3.06l-6.91-9.92h-.64v9.92H268.3V307.46ZM270.82,318h1.6c3.12,0,5-1.49,5-4.14a3.54,3.54,0,0,0-1.8-3.34,6.53,6.53,0,0,0-3.26-.64h-1.53Z"/></svg>
