<svg id="Layer_1" data-name="Layer 1" xmlns="http://www.w3.org/2000/svg" width="270" height="70" viewBox="0 0 270 70"><defs><style>.cls-1{fill:#152230;}.cls-2{fill:#fff;}</style></defs><title>indstillinger_knap</title><rect class="cls-1" x="2.5" y="2.5" width="265" height="65" rx="16.8" ry="16.8"/><path class="cls-2" d="M32.94,24V46.63H30.42V24Z"/><path class="cls-2" d="M38.79,46.63V23L56.47,41.54V24H59V47.65L41.3,29.13v17.5Z"/><path class="cls-2" d="M64.83,24h4.62a12.37,12.37,0,0,1,8.37,2.65,11,11,0,0,1,3.87,8.7,10.82,10.82,0,0,1-4,8.71c-2.08,1.77-4.25,2.61-8.3,2.61H64.83Zm2.52,20.29h2.21a9.66,9.66,0,0,0,6.49-2,8.66,8.66,0,0,0,3.06-6.9c0-5.44-3.81-9-9.55-9H67.35Z"/><path class="cls-2" d="M96.45,28.45a5.35,5.35,0,0,0-1.33-1.7A4.05,4.05,0,0,0,92.57,26a3.48,3.48,0,0,0-3.8,3.51,2.36,2.36,0,0,0,.85,2A7.52,7.52,0,0,0,92,32.87l2.17,1A11,11,0,0,1,97.67,36a5.45,5.45,0,0,1,1.64,4.11A7.29,7.29,0,0,1,87.2,45.21a8.32,8.32,0,0,1-2.11-4l2.45-.68a5.39,5.39,0,0,0,1.36,2.89,4.36,4.36,0,0,0,3.27,1.25,4.29,4.29,0,0,0,4.55-4.48,3.39,3.39,0,0,0-1.12-2.66A9.91,9.91,0,0,0,92.88,36l-2-1a10.27,10.27,0,0,1-3-1.87,4.73,4.73,0,0,1-1.56-3.71c0-3.5,2.69-5.85,6.36-5.85a6.17,6.17,0,0,1,3.64,1,6.87,6.87,0,0,1,2.21,2.51Z"/><path class="cls-2" d="M108.08,26.34V46.63h-2.52V26.34h-5.5V24h13.53v2.38Z"/><path class="cls-2" d="M119.5,24V46.63H117V24Z"/><path class="cls-2" d="M127.87,24V44.25h6.25v2.38h-8.77V24Z"/><path class="cls-2" d="M140,24V44.25h6.25v2.38h-8.77V24Z"/><path class="cls-2" d="M152.21,24V46.63h-2.52V24Z"/><path class="cls-2" d="M158.06,46.63V23l17.68,18.53V24h2.51V47.65L160.57,29.13v17.5Z"/><path class="cls-2" d="M195.8,35.25h9.45v.54A12.44,12.44,0,0,1,203.07,43,10.17,10.17,0,0,1,194.64,47a11.52,11.52,0,0,1-11.76-11.73,11.56,11.56,0,0,1,11.83-11.73,11.29,11.29,0,0,1,6.93,2.25,14,14,0,0,1,2.62,2.68l-1.87,1.7a12.17,12.17,0,0,0-2.14-2.34A8.3,8.3,0,0,0,194.74,26a9.07,9.07,0,0,0-9.28,9.39,9.08,9.08,0,0,0,9.21,9.31,7.9,7.9,0,0,0,6.94-3.8,7.23,7.23,0,0,0,.92-3.23H195.8Z"/><path class="cls-2" d="M221.64,26.34h-9.25v6.73h9v2.38h-9v8.8h9.25v2.38H209.87V24h11.77Z"/><path class="cls-2" d="M229.9,24a9.92,9.92,0,0,1,5.51,1.26,5.91,5.91,0,0,1,2.48,5,6,6,0,0,1-5.71,6.25l7.2,10.13h-3.06l-6.9-9.92h-.64v9.92h-2.52V24Zm-1.12,10.5h1.59c3.13,0,5-1.49,5-4.14a3.54,3.54,0,0,0-1.8-3.34,6.55,6.55,0,0,0-3.26-.64h-1.53Z"/></svg>
