<svg id="Layer_1" data-name="Layer 1" xmlns="http://www.w3.org/2000/svg" width="660" height="430" viewBox="0 0 660 430"><defs><style>.cls-1{fill:#f4912d;}.cls-2{fill:#fff;}</style></defs><title>introduktion_skaerm</title><rect class="cls-1" x="1.5" y="2" width="657" height="426" rx="36.87" ry="36.87"/><path class="cls-2" d="M71.7,64.71v50H62v-50Z"/><path class="cls-2" d="M83.1,114.74v-50h6.75l30.44,33.38V64.71H130v50h-6.75L92.85,81.29v33.45Z"/><path class="cls-2" d="M157.2,73.12v41.62h-9.75V73.12H136.2V64.71h32.25v8.41Z"/><path class="cls-2" d="M189.07,64.71c6.9,0,10.42,1.81,12.75,3.75a14.23,14.23,0,0,1,5,11.25c0,4.88-2,9.15-5.85,11.78a13.94,13.94,0,0,1-5.47,2.17L211,114.74H198.89l-13.35-20.1h-1.19v20.1H174.6v-50Zm-4.72,23h2.77c1.88,0,9.6-.23,9.6-7.57s-7.65-7.5-9.45-7.5h-2.92Z"/><path class="cls-2" d="M268.64,89.76c0,15.23-10.95,26.1-26.7,26.1S215.25,105,215.25,89.76s10.95-26.17,26.69-26.17S268.64,74.54,268.64,89.76Zm-10.05,0c0-10.12-6.9-17.32-16.65-17.32s-16.65,7.2-16.65,17.32S232.19,107,241.94,107,258.59,99.89,258.59,89.76Z"/><path class="cls-2" d="M290.69,64.71c7,0,13.05.75,18.6,4.88,6.08,4.58,9.6,11.85,9.6,20.17s-3.45,15.53-10.05,20.18c-5.85,4.12-11.32,4.8-18.3,4.8h-12.9v-50Zm-3.3,41.63h3c2.48,0,7.88-.15,12.23-3.3,4-2.85,6.22-8,6.22-13.28s-2.17-10.34-6.15-13.34-9-3.3-12.3-3.3h-3Z"/><path class="cls-2" d="M337.64,64.71V96.14a10.89,10.89,0,0,0,2.4,7.42,10.88,10.88,0,0,0,15.9,0c1.13-1.27,2.4-3.6,2.4-7.42V64.71h9.75v30.6c0,4.73-.75,9.53-3.75,13.35-3.6,4.73-9.9,7.2-16.35,7.2s-12.75-2.47-16.35-7.2c-3-3.82-3.75-8.62-3.75-13.35V64.71Z"/><path class="cls-2" d="M389.24,85.86l18.38-21.15h12.3l-21.15,23.1L421,114.74h-12.9L390.37,92.31l-1.13,1.13v21.3h-9.75v-50h9.75Z"/><path class="cls-2" d="M442.94,73.12v41.62h-9.75V73.12H421.94V64.71h32.25v8.41Z"/><path class="cls-2" d="M470.09,64.71v50h-9.75v-50Z"/><path class="cls-2" d="M532.49,89.76c0,15.23-11,26.1-26.7,26.1s-26.7-10.87-26.7-26.1,11-26.17,26.7-26.17S532.49,74.54,532.49,89.76Zm-10,0c0-10.12-6.9-17.32-16.65-17.32s-16.65,7.2-16.65,17.32S496,107,505.79,107,522.44,99.89,522.44,89.76Z"/><path class="cls-2" d="M541.49,114.74v-50h6.75l30.45,33.38V64.71h9.75v50h-6.75L551.24,81.29v33.45Z"/><path class="cls-2" d="M72.74,154.84h3.53a9.49,9.49,0,0,1,6.4,2,8.49,8.49,0,0,1,3,6.66,8.26,8.26,0,0,1-3,6.66c-1.59,1.35-3.25,2-6.34,2H72.74Zm1.92,15.53h1.69a7.44,7.44,0,0,0,5-1.56,6.65,6.65,0,0,0,2.34-5.28c0-4.16-2.92-6.86-7.31-6.86H74.66Z"/><path class="cls-2" d="M90.57,167.69a3.66,3.66,0,0,0,.52,2.31,2.57,2.57,0,0,0,3.8,0,3.66,3.66,0,0,0,.52-2.31V161.4h1.87v6.5a4.29,4.29,0,0,1-1,3.25,4.71,4.71,0,0,1-6.6,0,4.29,4.29,0,0,1-1-3.25v-6.5h1.87Z"/><path class="cls-2" d="M108.75,172.19h-1.88v-19h1.88v9.68a4.62,4.62,0,0,1,3.69-1.77c3.38,0,5.25,2.81,5.25,5.72s-1.9,5.64-5.17,5.64a4.56,4.56,0,0,1-3.77-1.82Zm7-5.33c0-2.65-1.8-4.06-3.54-4.06a3.75,3.75,0,0,0-3.59,4c0,2.21,1.4,4,3.62,4S115.77,169,115.77,166.86Z"/><path class="cls-2" d="M122.42,153.23v19h-1.87v-19Z"/><path class="cls-2" d="M126.89,156a1.33,1.33,0,1,1-1.32,1.32A1.33,1.33,0,0,1,126.89,156Zm.94,5.41v10.79H126V161.4Z"/><path class="cls-2" d="M131.88,161.4l3.23,7.28,3.22-7.28h2.08l-5.3,11.49L129.8,161.4Z"/><path class="cls-2" d="M152,169.43a6.45,6.45,0,0,1-1.33,1.74A5.22,5.22,0,0,1,147,172.5c-2.6,0-5.33-1.64-5.33-5.64,0-3.23,2-5.72,5.23-5.72a4.84,4.84,0,0,1,4.08,2,7.26,7.26,0,0,1,1,4.06h-8.4a3.45,3.45,0,0,0,3.43,3.67,3.3,3.3,0,0,0,2.21-.78,4.5,4.5,0,0,0,1.12-1.49Zm-1.85-3.82a3.23,3.23,0,0,0-3.17-2.81,3.27,3.27,0,0,0-3.17,2.81Z"/><path class="cls-2" d="M154.89,161.4h1.88v1.17a3,3,0,0,1,2.44-1.43,3.83,3.83,0,0,1,1.66.44l-.88,1.69a1.9,1.9,0,0,0-1.09-.36,1.82,1.82,0,0,0-1.51.67,4.7,4.7,0,0,0-.62,2.91v5.7h-1.88Z"/><path class="cls-2" d="M170.52,167.69A3.66,3.66,0,0,0,171,170a2.57,2.57,0,0,0,3.8,0,3.66,3.66,0,0,0,.52-2.31V161.4h1.87v6.5a4.29,4.29,0,0,1-1,3.25,4.71,4.71,0,0,1-6.6,0,4.29,4.29,0,0,1-1-3.25v-6.5h1.87Z"/><path class="cls-2" d="M189,153.23h1.87v19H189v-1.51a4.53,4.53,0,0,1-3.69,1.82c-2.73,0-5.25-1.92-5.25-5.72s2.49-5.64,5.25-5.64a4.45,4.45,0,0,1,3.69,1.79Zm-7,13.55c0,2.31,1.3,4.06,3.54,4.06s3.59-1.9,3.59-4a3.66,3.66,0,0,0-3.59-4C183.7,162.8,182,164.15,182,166.78Z"/><path class="cls-2" d="M198.88,163.89a1.65,1.65,0,0,0-1.5-1.09,1.19,1.19,0,0,0-1.3,1.22c0,.78.52,1,1.74,1.54a6.5,6.5,0,0,1,2.7,1.66,2.56,2.56,0,0,1,.58,1.74,3.43,3.43,0,0,1-3.72,3.54,3.86,3.86,0,0,1-3.77-2.76l1.61-.67a2.44,2.44,0,0,0,2.18,1.77,1.68,1.68,0,0,0,1.77-1.72c0-1-.73-1.35-1.74-1.79a7.19,7.19,0,0,1-2.63-1.59,2.37,2.37,0,0,1-.49-1.59,2.89,2.89,0,0,1,3.15-3,3.1,3.1,0,0,1,3,2Z"/><path class="cls-2" d="M211.86,161.4h1.87v10.79h-1.87v-1.51a4.54,4.54,0,0,1-3.69,1.82c-2.73,0-5.25-1.92-5.25-5.72s2.49-5.64,5.25-5.64a4.45,4.45,0,0,1,3.69,1.79Zm-7,5.38c0,2.31,1.3,4.06,3.54,4.06s3.58-1.9,3.58-4a3.65,3.65,0,0,0-3.58-4C206.53,162.8,204.84,164.15,204.84,166.78Z"/><path class="cls-2" d="M219.19,163.11v9.08h-1.87v-9.08h-1.15V161.4h1.15v-3.9h1.87v3.9h1.87v1.71Z"/><path class="cls-2" d="M230.81,163.11v9.08h-1.87v-9.08h-1V161.4h1v-4.71a3.74,3.74,0,0,1,1-3,3.37,3.37,0,0,1,2.16-.7,3.55,3.55,0,0,1,1.32.23V155a3.3,3.3,0,0,0-1.22-.23,1.3,1.3,0,0,0-1.19.57,3.17,3.17,0,0,0-.24,1.56v4.5h2.65v1.71Z"/><path class="cls-2" d="M234.45,166.83a5.72,5.72,0,1,1,5.72,5.67A5.54,5.54,0,0,1,234.45,166.83Zm1.93,0a3.8,3.8,0,1,0,3.79-4A3.74,3.74,0,0,0,236.38,166.83Z"/><path class="cls-2" d="M248.75,161.4h1.87v1.17a3,3,0,0,1,2.45-1.43,3.86,3.86,0,0,1,1.66.44l-.88,1.69a1.9,1.9,0,0,0-1.09-.36,1.81,1.81,0,0,0-1.51.67,4.68,4.68,0,0,0-.63,2.91v5.7h-1.87Z"/><path class="cls-2" d="M264.43,163.11v9.08h-1.87v-9.08h-1.15V161.4h1.15v-3.9h1.87v3.9h1.87v1.71Z"/><path class="cls-2" d="M268.07,161.4h1.87v1.17a3,3,0,0,1,2.44-1.43,3.87,3.87,0,0,1,1.67.44l-.88,1.69a1.91,1.91,0,0,0-1.1-.36,1.84,1.84,0,0,0-1.51.67,4.7,4.7,0,0,0-.62,2.91v5.7h-1.87Z"/><path class="cls-2" d="M284.71,169.43a6.26,6.26,0,0,1-1.33,1.74,5.2,5.2,0,0,1-3.59,1.33c-2.59,0-5.33-1.64-5.33-5.64,0-3.23,2-5.72,5.23-5.72a4.83,4.83,0,0,1,4.08,2,7.26,7.26,0,0,1,1,4.06h-8.4a3.46,3.46,0,0,0,3.43,3.67,3.26,3.26,0,0,0,2.21-.78,4.24,4.24,0,0,0,1.12-1.49Zm-1.85-3.82a3.22,3.22,0,0,0-3.17-2.81,3.28,3.28,0,0,0-3.17,2.81Z"/><path class="cls-2" d="M302,153.23h1.87v19H302v-1.51a4.53,4.53,0,0,1-3.69,1.82c-2.73,0-5.25-1.92-5.25-5.72s2.49-5.64,5.25-5.64a4.45,4.45,0,0,1,3.69,1.79Zm-7,13.55c0,2.31,1.3,4.06,3.54,4.06s3.59-1.9,3.59-4a3.66,3.66,0,0,0-3.59-4C296.64,162.8,295,164.15,295,166.78Z"/><path class="cls-2" d="M308.06,156a1.33,1.33,0,1,1-1.33,1.32A1.33,1.33,0,0,1,308.06,156Zm.93,5.41v10.79h-1.87V161.4Z"/><path class="cls-2" d="M314.4,153.23v19h-1.87v-19Z"/><path class="cls-2" d="M327.5,169.43a6.41,6.41,0,0,1-1.32,1.74,5.22,5.22,0,0,1-3.59,1.33c-2.6,0-5.33-1.64-5.33-5.64,0-3.23,2-5.72,5.23-5.72a4.84,4.84,0,0,1,4.08,2,7.34,7.34,0,0,1,1,4.06h-8.4a3.46,3.46,0,0,0,3.44,3.67,3.3,3.3,0,0,0,2.21-.78,4.34,4.34,0,0,0,1.11-1.49Zm-1.84-3.82a3.23,3.23,0,0,0-3.17-2.81,3.29,3.29,0,0,0-3.18,2.81Z"/><path class="cls-2" d="M330.44,161.4h1.87v1.14a3.15,3.15,0,0,1,2.68-1.4,3.24,3.24,0,0,1,2.94,1.74,3.59,3.59,0,0,1,3.25-1.74c3.2,0,3.51,2.68,3.51,4.21v6.84h-1.87v-6.56c0-1.22-.16-2.83-1.93-2.83-2.15,0-2.39,2.08-2.39,3.38v6h-1.87v-6.4c0-.75,0-3-1.95-3s-2.37,2.21-2.37,3.51v5.88h-1.87Z"/><path class="cls-2" d="M348.25,161.4h1.87v1.14a3.15,3.15,0,0,1,2.68-1.4,3.24,3.24,0,0,1,2.94,1.74,3.59,3.59,0,0,1,3.25-1.74c3.2,0,3.51,2.68,3.51,4.21v6.84h-1.87v-6.56c0-1.22-.16-2.83-1.93-2.83-2.15,0-2.39,2.08-2.39,3.38v6h-1.87v-6.4c0-.75,0-3-1.95-3s-2.37,2.21-2.37,3.51v5.88h-1.87Z"/><path class="cls-2" d="M374.33,161.4h1.87v10.79h-1.87v-1.51a4.53,4.53,0,0,1-3.69,1.82c-2.73,0-5.25-1.92-5.25-5.72s2.49-5.64,5.25-5.64a4.45,4.45,0,0,1,3.69,1.79Zm-7,5.38c0,2.31,1.3,4.06,3.54,4.06s3.58-1.9,3.58-4a3.65,3.65,0,0,0-3.58-4C369,162.8,367.31,164.15,367.31,166.78Z"/><path class="cls-2" d="M389.31,169.43a6.45,6.45,0,0,1-1.33,1.74,5.22,5.22,0,0,1-3.59,1.33c-2.6,0-5.33-1.64-5.33-5.64,0-3.23,2-5.72,5.23-5.72a4.84,4.84,0,0,1,4.08,2,7.18,7.18,0,0,1,1,4.06H381a3.45,3.45,0,0,0,3.43,3.67,3.3,3.3,0,0,0,2.21-.78,4.5,4.5,0,0,0,1.12-1.49Zm-1.85-3.82a3.23,3.23,0,0,0-3.17-2.81,3.27,3.27,0,0,0-3.17,2.81Z"/><path class="cls-2" d="M392.24,161.4h1.88v1.17a3,3,0,0,1,2.44-1.43,3.83,3.83,0,0,1,1.66.44l-.88,1.69a1.9,1.9,0,0,0-1.09-.36,1.82,1.82,0,0,0-1.51.67,4.7,4.7,0,0,0-.62,2.91v5.7h-1.88Z"/><path class="cls-2" d="M406.93,156a1.33,1.33,0,1,1-1.32,1.32A1.33,1.33,0,0,1,406.93,156Zm.94,5.41v10.79H406V161.4Z"/><path class="cls-2" d="M419.39,163.11v9.08h-1.88v-9.08h-1V161.4h1v-4.71a3.74,3.74,0,0,1,1-3,3.37,3.37,0,0,1,2.16-.7,3.62,3.62,0,0,1,1.33.23V155a3.3,3.3,0,0,0-1.22-.23,1.31,1.31,0,0,0-1.2.57,3.3,3.3,0,0,0-.23,1.56v4.5H422v1.71Z"/><path class="cls-2" d="M423,166.83a5.72,5.72,0,1,1,5.72,5.67A5.53,5.53,0,0,1,423,166.83Zm1.92,0a3.8,3.8,0,1,0,3.8-4A3.75,3.75,0,0,0,425,166.83Z"/><path class="cls-2" d="M437.33,161.4h1.87v1.17a3,3,0,0,1,2.44-1.43,3.91,3.91,0,0,1,1.67.44l-.89,1.69a1.86,1.86,0,0,0-1.09-.36,1.84,1.84,0,0,0-1.51.67,4.7,4.7,0,0,0-.62,2.91v5.7h-1.87Z"/><path class="cls-2" d="M446.89,172.19H445v-19h1.87v9.68a4.65,4.65,0,0,1,3.7-1.77c3.38,0,5.25,2.81,5.25,5.72s-1.9,5.64-5.18,5.64a4.59,4.59,0,0,1-3.77-1.82Zm7-5.33c0-2.65-1.79-4.06-3.53-4.06a3.75,3.75,0,0,0-3.59,4c0,2.21,1.4,4,3.61,4S453.91,169,453.91,166.86Z"/><path class="cls-2" d="M459.63,156a1.33,1.33,0,1,1-1.32,1.32A1.33,1.33,0,0,1,459.63,156Zm.94,5.41v10.79H458.7V161.4Z"/><path class="cls-2" d="M464.11,161.4H466v1.25a3.77,3.77,0,0,1,3.09-1.51,3.67,3.67,0,0,1,3.1,1.48,4.84,4.84,0,0,1,.62,2.88v6.69h-1.87v-6.63a3.13,3.13,0,0,0-.5-2,2.09,2.09,0,0,0-1.76-.78,2.34,2.34,0,0,0-1.9.83,4.55,4.55,0,0,0-.78,2.91v5.65h-1.87Z"/><path class="cls-2" d="M484.59,153.23h1.87v19h-1.87v-1.51a4.53,4.53,0,0,1-3.69,1.82c-2.73,0-5.25-1.92-5.25-5.72s2.49-5.64,5.25-5.64a4.45,4.45,0,0,1,3.69,1.79Zm-7,13.55c0,2.31,1.3,4.06,3.54,4.06s3.59-1.9,3.59-4a3.66,3.66,0,0,0-3.59-4C479.26,162.8,477.57,164.15,477.57,166.78Z"/><path class="cls-2" d="M499.57,169.43a6.26,6.26,0,0,1-1.33,1.74,5.22,5.22,0,0,1-3.59,1.33c-2.6,0-5.33-1.64-5.33-5.64,0-3.23,2-5.72,5.23-5.72a4.83,4.83,0,0,1,4.08,2,7.26,7.26,0,0,1,1,4.06h-8.4a3.45,3.45,0,0,0,3.43,3.67,3.28,3.28,0,0,0,2.21-.78,4.37,4.37,0,0,0,1.12-1.49Zm-1.85-3.82a3.22,3.22,0,0,0-3.17-2.81,3.27,3.27,0,0,0-3.17,2.81Z"/><path class="cls-2" d="M504.38,153.23v19h-1.87v-19Z"/><path class="cls-2" d="M512.36,163.89a1.66,1.66,0,0,0-1.51-1.09,1.19,1.19,0,0,0-1.3,1.22c0,.78.52,1,1.74,1.54a6.63,6.63,0,0,1,2.71,1.66,2.55,2.55,0,0,1,.57,1.74,3.43,3.43,0,0,1-3.72,3.54,3.86,3.86,0,0,1-3.77-2.76l1.61-.67a2.46,2.46,0,0,0,2.19,1.77,1.68,1.68,0,0,0,1.77-1.72c0-1-.73-1.35-1.75-1.79a7,7,0,0,1-2.62-1.59,2.33,2.33,0,0,1-.5-1.59,2.9,2.9,0,0,1,3.15-3,3.1,3.1,0,0,1,3,2Z"/><path class="cls-2" d="M526.63,169.43a6.41,6.41,0,0,1-1.32,1.74,5.22,5.22,0,0,1-3.59,1.33c-2.6,0-5.33-1.64-5.33-5.64,0-3.23,2-5.72,5.23-5.72a4.84,4.84,0,0,1,4.08,2,7.34,7.34,0,0,1,1,4.06h-8.4a3.46,3.46,0,0,0,3.44,3.67,3.3,3.3,0,0,0,2.21-.78,4.34,4.34,0,0,0,1.11-1.49Zm-1.84-3.82a3.23,3.23,0,0,0-3.17-2.81,3.29,3.29,0,0,0-3.18,2.81Z"/><path class="cls-2" d="M535.63,161.4h1.87v1.14a3.15,3.15,0,0,1,2.68-1.4,3.24,3.24,0,0,1,2.94,1.74,3.59,3.59,0,0,1,3.25-1.74c3.2,0,3.51,2.68,3.51,4.21v6.84H548v-6.56c0-1.22-.16-2.83-1.93-2.83-2.16,0-2.39,2.08-2.39,3.38v6h-1.87v-6.4c0-.75,0-3-2-3-2.13,0-2.37,2.21-2.37,3.51v5.88h-1.87Z"/><path class="cls-2" d="M563,169.43a6.26,6.26,0,0,1-1.33,1.74,5.22,5.22,0,0,1-3.59,1.33c-2.6,0-5.33-1.64-5.33-5.64,0-3.23,2-5.72,5.23-5.72a4.83,4.83,0,0,1,4.08,2,7.26,7.26,0,0,1,1,4.06h-8.4a3.45,3.45,0,0,0,3.43,3.67,3.28,3.28,0,0,0,2.21-.78,4.5,4.5,0,0,0,1.12-1.49Zm-1.85-3.82A3.22,3.22,0,0,0,558,162.8a3.27,3.27,0,0,0-3.17,2.81Z"/><path class="cls-2" d="M574.21,153.23h1.88v19h-1.88v-1.51a4.53,4.53,0,0,1-3.69,1.82c-2.73,0-5.25-1.92-5.25-5.72s2.5-5.64,5.25-5.64a4.45,4.45,0,0,1,3.69,1.79Zm-7,13.55c0,2.31,1.3,4.06,3.54,4.06s3.59-1.9,3.59-4a3.66,3.66,0,0,0-3.59-4C568.88,162.8,567.19,164.15,567.19,166.78Z"/><path class="cls-2" d="M74.14,203.39H72.27v-19h1.87v9.67a4.64,4.64,0,0,1,3.69-1.76c3.38,0,5.25,2.8,5.25,5.72s-1.89,5.64-5.17,5.64a4.59,4.59,0,0,1-3.77-1.82Zm7-5.33c0-2.66-1.79-4.06-3.54-4.06A3.74,3.74,0,0,0,74,198c0,2.21,1.4,4,3.61,4S81.16,200.21,81.16,198.06Z"/><path class="cls-2" d="M86.88,187.19a1.33,1.33,0,1,1-1.33,1.32A1.33,1.33,0,0,1,86.88,187.19Zm.94,5.41v10.79H85.94V192.6Z"/><path class="cls-2" d="M93.22,184.43v19H91.35v-19Z"/><path class="cls-2" d="M98.63,184.43v19H96.76v-19Z"/><path class="cls-2" d="M111.74,200.63a6.45,6.45,0,0,1-1.33,1.74,5.22,5.22,0,0,1-3.59,1.33c-2.6,0-5.33-1.64-5.33-5.64,0-3.23,2-5.72,5.23-5.72a4.84,4.84,0,0,1,4.08,2,7.16,7.16,0,0,1,1,4.06h-8.39a3.45,3.45,0,0,0,3.43,3.67,3.31,3.31,0,0,0,2.21-.79,4.37,4.37,0,0,0,1.12-1.48Zm-1.85-3.82a3.23,3.23,0,0,0-3.17-2.81,3.29,3.29,0,0,0-3.18,2.81Z"/><path class="cls-2" d="M122.94,184.43h1.87v19h-1.87v-1.51a4.55,4.55,0,0,1-3.69,1.82c-2.73,0-5.25-1.93-5.25-5.72s2.49-5.64,5.25-5.64a4.45,4.45,0,0,1,3.69,1.79Zm-7,13.55c0,2.31,1.3,4.06,3.54,4.06s3.58-1.9,3.58-4a3.65,3.65,0,0,0-3.58-4C117.61,194,115.92,195.35,115.92,198Z"/><path class="cls-2" d="M136.62,184.43h1.87v19h-1.87v-1.51a4.59,4.59,0,0,1-3.7,1.82c-2.72,0-5.25-1.93-5.25-5.72s2.5-5.64,5.25-5.64a4.49,4.49,0,0,1,3.7,1.79Zm-7,13.55c0,2.31,1.3,4.06,3.53,4.06s3.59-1.9,3.59-4a3.65,3.65,0,0,0-3.59-4C131.29,194,129.6,195.35,129.6,198Z"/><path class="cls-2" d="M151.59,200.63a6.41,6.41,0,0,1-1.32,1.74,5.22,5.22,0,0,1-3.59,1.33c-2.6,0-5.33-1.64-5.33-5.64,0-3.23,2-5.72,5.22-5.72a4.85,4.85,0,0,1,4.09,2,7.32,7.32,0,0,1,1,4.06h-8.4a3.47,3.47,0,0,0,3.44,3.67,3.26,3.26,0,0,0,2.2-.79,4.13,4.13,0,0,0,1.12-1.48Zm-1.84-3.82a3.24,3.24,0,0,0-3.18-2.81,3.29,3.29,0,0,0-3.17,2.81Z"/><path class="cls-2" d="M156.4,184.43v19h-1.87v-19Z"/><path class="cls-2" d="M160.87,187.19a1.33,1.33,0,1,1-1.32,1.32A1.33,1.33,0,0,1,160.87,187.19Zm.94,5.41v10.79h-1.87V192.6Z"/><path class="cls-2" d="M165.35,192.6h1.87v1.24a3.81,3.81,0,0,1,3.09-1.5,3.67,3.67,0,0,1,3.1,1.48,4.84,4.84,0,0,1,.62,2.88v6.69h-1.87v-6.63a3.13,3.13,0,0,0-.5-2,2.09,2.09,0,0,0-1.76-.78,2.35,2.35,0,0,0-1.9.83,4.53,4.53,0,0,0-.78,2.91v5.65h-1.87Z"/><path class="cls-2" d="M185.83,192.6h1.88v10.53a6.8,6.8,0,0,1-1,4.24,5.27,5.27,0,0,1-4.32,2,5.34,5.34,0,0,1-3.85-1.46,4.86,4.86,0,0,1-1.4-3.48h1.84a3.37,3.37,0,0,0,.84,2.23,3.32,3.32,0,0,0,2.6,1,3,3,0,0,0,2.86-1.5,5.09,5.09,0,0,0,.59-2.76v-1.56a4.55,4.55,0,0,1-3.69,1.82,5.18,5.18,0,0,1-3.69-1.46,5.84,5.84,0,0,1-1.56-4.26,5.66,5.66,0,0,1,1.56-4.19,5.34,5.34,0,0,1,3.69-1.45,4.46,4.46,0,0,1,3.69,1.79ZM179.91,195a4.63,4.63,0,0,0,.13,6.14,3.48,3.48,0,0,0,4.68,0,4.39,4.39,0,0,0,1.22-3.12,4.25,4.25,0,0,0-1.15-3,3.43,3.43,0,0,0-2.44-1A3.34,3.34,0,0,0,179.91,195Z"/><path class="cls-2" d="M199.17,209.37H197.3V192.6h1.87v1.5a4.65,4.65,0,0,1,3.69-1.76c3.38,0,5.26,2.8,5.26,5.72s-1.9,5.64-5.18,5.64a4.59,4.59,0,0,1-3.77-1.82Zm7-11.31c0-2.66-1.79-4.06-3.53-4.06a3.74,3.74,0,0,0-3.59,4c0,2.21,1.4,4,3.61,4S206.19,200.21,206.19,198.06Z"/><path class="cls-2" d="M219.24,192.6h1.88v10.79h-1.88v-1.51a4.55,4.55,0,0,1-3.69,1.82c-2.73,0-5.25-1.93-5.25-5.72s2.49-5.64,5.25-5.64a4.45,4.45,0,0,1,3.69,1.79Zm-7,5.38c0,2.31,1.3,4.06,3.54,4.06s3.59-1.9,3.59-4a3.66,3.66,0,0,0-3.59-4C213.91,194,212.22,195.35,212.22,198Zm3.95-12a2.24,2.24,0,1,1-2.23,2.24A2.26,2.26,0,0,1,216.17,186Zm0,3.33a1.09,1.09,0,1,0-1.09-1.09A1.14,1.14,0,0,0,216.17,189.32Z"/><path class="cls-2" d="M230.71,192.6h1.87v1.24a3.81,3.81,0,0,1,3.09-1.5,3.67,3.67,0,0,1,3.1,1.48,4.84,4.84,0,0,1,.62,2.88v6.69h-1.87v-6.63a3.19,3.19,0,0,0-.49-2,2.13,2.13,0,0,0-1.77-.78,2.37,2.37,0,0,0-1.9.83,4.53,4.53,0,0,0-.78,2.91v5.65h-1.87Z"/><path class="cls-2" d="M252.5,200.63a6.45,6.45,0,0,1-1.33,1.74,5.22,5.22,0,0,1-3.59,1.33c-2.6,0-5.33-1.64-5.33-5.64,0-3.23,2-5.72,5.23-5.72a4.84,4.84,0,0,1,4.08,2,7.16,7.16,0,0,1,1,4.06h-8.39a3.46,3.46,0,0,0,3.43,3.67,3.31,3.31,0,0,0,2.21-.79,4.37,4.37,0,0,0,1.12-1.48Zm-1.85-3.82a3.23,3.23,0,0,0-3.17-2.81,3.27,3.27,0,0,0-3.17,2.81Z"/><path class="cls-2" d="M257.36,194.31v9.08h-1.87v-9.08h-1.15V192.6h1.15v-3.9h1.87v3.9h1.87v1.71Z"/><path class="cls-2" d="M263.44,194.31v9.08h-1.87v-9.08h-1.15V192.6h1.15v-3.9h1.87v3.9h1.87v1.71Z"/><path class="cls-2" d="M276.65,200.63a6.26,6.26,0,0,1-1.33,1.74,5.22,5.22,0,0,1-3.59,1.33c-2.6,0-5.33-1.64-5.33-5.64,0-3.23,2-5.72,5.23-5.72a4.83,4.83,0,0,1,4.08,2,7.24,7.24,0,0,1,1,4.06h-8.4a3.46,3.46,0,0,0,3.43,3.67,3.29,3.29,0,0,0,2.21-.79,4.24,4.24,0,0,0,1.12-1.48Zm-1.85-3.82a3.22,3.22,0,0,0-3.17-2.81,3.27,3.27,0,0,0-3.17,2.81Z"/><path class="cls-2" d="M281.51,194.31v9.08h-1.87v-9.08h-1.15V192.6h1.15v-3.9h1.87v3.9h1.87v1.71Z"/><path class="cls-2" d="M286.35,201.05a1.3,1.3,0,1,1-1.3,1.3A1.32,1.32,0,0,1,286.35,201.05Z"/><path class="cls-2" d="M297.6,186h3.54a9.49,9.49,0,0,1,6.4,2,8.49,8.49,0,0,1,3,6.66,8.23,8.23,0,0,1-3,6.65c-1.59,1.36-3.25,2-6.35,2H297.6Zm1.93,15.53h1.69a7.41,7.41,0,0,0,5-1.56,6.65,6.65,0,0,0,2.34-5.28c0-4.16-2.91-6.87-7.3-6.87h-1.69Z"/><path class="cls-2" d="M315.44,198.89a3.66,3.66,0,0,0,.52,2.31,2.29,2.29,0,0,0,1.9.84,2.25,2.25,0,0,0,1.89-.84,3.6,3.6,0,0,0,.53-2.31V192.6h1.87v6.5a4.29,4.29,0,0,1-1,3.25,4.72,4.72,0,0,1-6.61,0,4.33,4.33,0,0,1-1-3.25v-6.5h1.87Z"/><path class="cls-2" d="M331.74,192.6h1.87v1.14a3.15,3.15,0,0,1,2.68-1.4,3.23,3.23,0,0,1,2.94,1.74,3.59,3.59,0,0,1,3.25-1.74c3.2,0,3.51,2.67,3.51,4.21v6.84h-1.87v-6.56c0-1.22-.16-2.83-1.93-2.83-2.15,0-2.39,2.08-2.39,3.38v6h-1.87V197c0-.75,0-3-1.95-3-2.13,0-2.37,2.21-2.37,3.51v5.88h-1.87Z"/><path class="cls-2" d="M348.87,198a5.72,5.72,0,1,1,5.72,5.67A5.54,5.54,0,0,1,348.87,198Zm1.93,0a3.8,3.8,0,1,0,3.79-4A3.74,3.74,0,0,0,350.8,198Z"/><path class="cls-2" d="M371.44,184.43h1.87v19h-1.87v-1.51a4.55,4.55,0,0,1-3.69,1.82c-2.73,0-5.25-1.93-5.25-5.72s2.49-5.64,5.25-5.64a4.45,4.45,0,0,1,3.69,1.79Zm-7,13.55c0,2.31,1.3,4.06,3.54,4.06s3.59-1.9,3.59-4a3.66,3.66,0,0,0-3.59-4C366.11,194,364.42,195.35,364.42,198Z"/><path class="cls-2" d="M378.77,194.31v9.08H376.9v-9.08h-1.14V192.6h1.14v-3.9h1.87v3.9h1.88v1.71Z"/><path class="cls-2" d="M390.68,192.6h1.87v10.79h-1.87v-1.51A4.55,4.55,0,0,1,387,203.7c-2.73,0-5.25-1.93-5.25-5.72s2.49-5.64,5.25-5.64a4.45,4.45,0,0,1,3.69,1.79Zm-7,5.38c0,2.31,1.3,4.06,3.54,4.06s3.59-1.9,3.59-4a3.66,3.66,0,0,0-3.59-4C385.35,194,383.66,195.35,383.66,198Z"/><path class="cls-2" d="M404.36,192.6h1.87v10.53a6.8,6.8,0,0,1-1,4.24,5.72,5.72,0,0,1-8.16.54,4.86,4.86,0,0,1-1.41-3.48h1.85a3.2,3.2,0,0,0,3.43,3.27,3,3,0,0,0,2.86-1.5,5,5,0,0,0,.6-2.76v-1.56a4.59,4.59,0,0,1-3.69,1.82,5.21,5.21,0,0,1-3.7-1.46,5.88,5.88,0,0,1-1.56-4.26,5.66,5.66,0,0,1,1.56-4.19,5.35,5.35,0,0,1,3.7-1.45,4.49,4.49,0,0,1,3.69,1.79ZM398.43,195a4.12,4.12,0,0,0-1.09,3,4.16,4.16,0,0,0,1.22,3.17,3.26,3.26,0,0,0,2.31.89,3.2,3.2,0,0,0,2.37-.92,4.35,4.35,0,0,0,1.22-3.12,4.29,4.29,0,0,0-1.14-3,3.45,3.45,0,0,0-2.45-1A3.34,3.34,0,0,0,398.43,195Z"/><path class="cls-2" d="M419.33,200.63a6.41,6.41,0,0,1-1.32,1.74,5.22,5.22,0,0,1-3.59,1.33c-2.6,0-5.33-1.64-5.33-5.64,0-3.23,2-5.72,5.23-5.72a4.84,4.84,0,0,1,4.08,2,7.32,7.32,0,0,1,1,4.06H411a3.47,3.47,0,0,0,3.44,3.67,3.31,3.31,0,0,0,2.21-.79,4.21,4.21,0,0,0,1.11-1.48Zm-1.84-3.82a3.23,3.23,0,0,0-3.17-2.81,3.29,3.29,0,0,0-3.18,2.81Z"/><path class="cls-2" d="M422.27,192.6h1.87v1.17a3,3,0,0,1,2.45-1.43,3.86,3.86,0,0,1,1.66.44l-.88,1.69a1.93,1.93,0,0,0-1.09-.37,1.81,1.81,0,0,0-1.51.68,4.65,4.65,0,0,0-.63,2.91v5.7h-1.87Z"/><path class="cls-2" d="M438,194.31v9.08h-1.87v-9.08h-1.15V192.6h1.15v-3.9H438v3.9h1.87v1.71Z"/><path class="cls-2" d="M441.59,192.6h1.87v1.17a3,3,0,0,1,2.44-1.43,3.87,3.87,0,0,1,1.67.44l-.89,1.69a1.88,1.88,0,0,0-1.09-.37,1.84,1.84,0,0,0-1.51.68,4.68,4.68,0,0,0-.62,2.91v5.7h-1.87Z"/><path class="cls-2" d="M458.23,200.63a6.26,6.26,0,0,1-1.33,1.74,5.2,5.2,0,0,1-3.59,1.33c-2.6,0-5.33-1.64-5.33-5.64,0-3.23,2-5.72,5.23-5.72a4.83,4.83,0,0,1,4.08,2,7.24,7.24,0,0,1,1,4.06h-8.4a3.46,3.46,0,0,0,3.43,3.67,3.29,3.29,0,0,0,2.21-.79,4.24,4.24,0,0,0,1.12-1.48Zm-1.85-3.82a3.22,3.22,0,0,0-3.17-2.81,3.27,3.27,0,0,0-3.17,2.81Z"/><path class="cls-2" d="M476.79,200.63a6.41,6.41,0,0,1-1.32,1.74,5.22,5.22,0,0,1-3.59,1.33c-2.6,0-5.33-1.64-5.33-5.64,0-3.23,2-5.72,5.22-5.72a4.85,4.85,0,0,1,4.09,2,7.32,7.32,0,0,1,1,4.06h-8.4A3.47,3.47,0,0,0,471.9,202a3.27,3.27,0,0,0,2.21-.79,4.13,4.13,0,0,0,1.12-1.48ZM475,196.81a3.24,3.24,0,0,0-3.18-2.81,3.29,3.29,0,0,0-3.17,2.81Z"/><path class="cls-2" d="M480.61,196.89h5.72v1.92h-5.72Z"/><path class="cls-2" d="M489.4,192.6h1.87v1.14a3.15,3.15,0,0,1,2.68-1.4,3.23,3.23,0,0,1,2.94,1.74,3.59,3.59,0,0,1,3.25-1.74c3.2,0,3.51,2.67,3.51,4.21v6.84h-1.87v-6.56c0-1.22-.16-2.83-1.93-2.83-2.15,0-2.39,2.08-2.39,3.38v6h-1.87V197c0-.75,0-3-1.95-3s-2.37,2.21-2.37,3.51v5.88H489.4Z"/><path class="cls-2" d="M515.48,192.6h1.87v10.79h-1.87v-1.51a4.55,4.55,0,0,1-3.69,1.82c-2.73,0-5.25-1.93-5.25-5.72s2.49-5.64,5.25-5.64a4.45,4.45,0,0,1,3.69,1.79Zm-7,5.38c0,2.31,1.3,4.06,3.54,4.06s3.58-1.9,3.58-4a3.65,3.65,0,0,0-3.58-4C510.15,194,508.46,195.35,508.46,198Z"/><path class="cls-2" d="M521.82,187.19a1.33,1.33,0,1,1-1.32,1.32A1.33,1.33,0,0,1,521.82,187.19Zm.94,5.41v10.79h-1.87V192.6Z"/><path class="cls-2" d="M528.17,184.43v19h-1.88v-19Z"/><path class="cls-2" d="M536.15,195.09a1.66,1.66,0,0,0-1.51-1.09,1.19,1.19,0,0,0-1.3,1.22c0,.78.52,1,1.74,1.54a6.63,6.63,0,0,1,2.71,1.66,2.58,2.58,0,0,1,.57,1.74,3.44,3.44,0,0,1-3.72,3.54,3.86,3.86,0,0,1-3.77-2.76l1.61-.67a2.45,2.45,0,0,0,2.19,1.77,1.68,1.68,0,0,0,1.76-1.72c0-1-.72-1.35-1.74-1.8a6.92,6.92,0,0,1-2.62-1.58,2.33,2.33,0,0,1-.5-1.59,2.9,2.9,0,0,1,3.15-3,3.1,3.1,0,0,1,3,1.95Z"/><path class="cls-2" d="M546.24,198A5.72,5.72,0,1,1,552,203.7,5.53,5.53,0,0,1,546.24,198Zm1.92,0a3.8,3.8,0,1,0,3.8-4A3.75,3.75,0,0,0,548.16,198Z"/><path class="cls-2" d="M568.8,192.6h1.88v10.53a6.8,6.8,0,0,1-1,4.24,5.27,5.27,0,0,1-4.32,2,5.34,5.34,0,0,1-3.85-1.46,4.86,4.86,0,0,1-1.4-3.48h1.84a3.37,3.37,0,0,0,.84,2.23,3.32,3.32,0,0,0,2.6,1,3,3,0,0,0,2.86-1.5,5.09,5.09,0,0,0,.59-2.76v-1.56a4.55,4.55,0,0,1-3.69,1.82,5.18,5.18,0,0,1-3.69-1.46,5.84,5.84,0,0,1-1.56-4.26,5.66,5.66,0,0,1,1.56-4.19,5.34,5.34,0,0,1,3.69-1.45,4.46,4.46,0,0,1,3.69,1.79ZM562.88,195a4.63,4.63,0,0,0,.13,6.14,3.48,3.48,0,0,0,4.68,0,4.39,4.39,0,0,0,1.22-3.12,4.25,4.25,0,0,0-1.15-3,3.43,3.43,0,0,0-2.44-1A3.34,3.34,0,0,0,562.88,195Z"/><path class="cls-2" d="M74.19,225.51v9.08H72.32v-9.08h-1V223.8h1v-4.71a3.73,3.73,0,0,1,1-3,3.37,3.37,0,0,1,2.16-.7,3.55,3.55,0,0,1,1.32.23v1.82a3.3,3.3,0,0,0-1.22-.23,1.3,1.3,0,0,0-1.19.57,3.17,3.17,0,0,0-.24,1.56v4.5h2.65v1.71Z"/><path class="cls-2" d="M86.78,223.8h1.87v10.79H86.78v-1.51a4.59,4.59,0,0,1-3.7,1.82c-2.73,0-5.25-1.93-5.25-5.72s2.5-5.64,5.25-5.64a4.49,4.49,0,0,1,3.7,1.79Zm-7,5.38c0,2.31,1.3,4,3.53,4s3.59-1.89,3.59-4a3.65,3.65,0,0,0-3.59-4C81.45,225.2,79.76,226.55,79.76,229.18Zm3.95-12a2.24,2.24,0,1,1-2.24,2.24A2.25,2.25,0,0,1,83.71,217.19Zm0,3.33a1.09,1.09,0,1,0-1.09-1.09A1.13,1.13,0,0,0,83.71,220.52Z"/><path class="cls-2" d="M92.18,223.8h1.88V225a3,3,0,0,1,2.44-1.43,3.83,3.83,0,0,1,1.66.44l-.88,1.69a1.93,1.93,0,0,0-1.09-.37,1.83,1.83,0,0,0-1.51.68,4.68,4.68,0,0,0-.62,2.91v5.7H92.18Z"/><path class="cls-2" d="M105.94,215.63h1.87V225a3.81,3.81,0,0,1,3.09-1.5A3.67,3.67,0,0,1,114,225a4.84,4.84,0,0,1,.62,2.88v6.69h-1.87V228a3.19,3.19,0,0,0-.49-2,2.13,2.13,0,0,0-1.77-.78,2.35,2.35,0,0,0-1.9.83,4.55,4.55,0,0,0-.78,2.91v5.65h-1.87Z"/><path class="cls-2" d="M127.46,231.83a6.22,6.22,0,0,1-1.32,1.74,5.22,5.22,0,0,1-3.59,1.33c-2.6,0-5.33-1.64-5.33-5.64,0-3.23,2-5.72,5.23-5.72a4.84,4.84,0,0,1,4.08,2,7.16,7.16,0,0,1,1,4.06h-8.4a3.46,3.46,0,0,0,3.44,3.66,3.34,3.34,0,0,0,2.21-.77,4.5,4.5,0,0,0,1.12-1.49ZM125.62,228a3.23,3.23,0,0,0-3.17-2.81,3.27,3.27,0,0,0-3.17,2.81Z"/><path class="cls-2" d="M130.4,223.8h1.88V225a3,3,0,0,1,2.44-1.43,3.83,3.83,0,0,1,1.66.44l-.88,1.69a1.93,1.93,0,0,0-1.09-.37,1.83,1.83,0,0,0-1.51.68,4.68,4.68,0,0,0-.62,2.91v5.7H130.4Z"/><path class="cls-2" d="M147,231.83a6.41,6.41,0,0,1-1.32,1.74,5.22,5.22,0,0,1-3.59,1.33c-2.6,0-5.33-1.64-5.33-5.64,0-3.23,2-5.72,5.23-5.72a4.84,4.84,0,0,1,4.08,2,7.32,7.32,0,0,1,1,4.06h-8.4a3.46,3.46,0,0,0,3.44,3.66,3.34,3.34,0,0,0,2.21-.77,4.34,4.34,0,0,0,1.11-1.49ZM145.2,228A3.24,3.24,0,0,0,142,225.2a3.29,3.29,0,0,0-3.18,2.81Z"/><path class="cls-2" d="M151.91,225.51v9.08H150v-9.08h-1V223.8h1v-4.71a3.73,3.73,0,0,1,1-3,3.37,3.37,0,0,1,2.16-.7,3.62,3.62,0,0,1,1.33.23v1.82a3.35,3.35,0,0,0-1.23-.23,1.3,1.3,0,0,0-1.19.57,3.3,3.3,0,0,0-.23,1.56v4.5h2.65v1.71Z"/><path class="cls-2" d="M158.66,225.51v9.08h-1.87v-9.08h-1.14V223.8h1.14v-3.9h1.87v3.9h1.88v1.71Z"/><path class="cls-2" d="M171.87,231.83a6.41,6.41,0,0,1-1.32,1.74A5.22,5.22,0,0,1,167,234.9c-2.6,0-5.33-1.64-5.33-5.64,0-3.23,2-5.72,5.22-5.72a4.85,4.85,0,0,1,4.09,2,7.32,7.32,0,0,1,1,4.06h-8.4a3.46,3.46,0,0,0,3.43,3.66,3.31,3.31,0,0,0,2.21-.77,4.24,4.24,0,0,0,1.12-1.49ZM170,228a3.24,3.24,0,0,0-3.18-2.81,3.29,3.29,0,0,0-3.17,2.81Z"/><path class="cls-2" d="M174.81,223.8h1.87V225a3,3,0,0,1,2.45-1.43,3.86,3.86,0,0,1,1.66.44l-.88,1.69a1.93,1.93,0,0,0-1.1-.37,1.81,1.81,0,0,0-1.5.68,4.58,4.58,0,0,0-.63,2.91v5.7h-1.87Z"/><path class="cls-2" d="M190.49,225.51v9.08h-1.87v-9.08h-1.15V223.8h1.15v-3.9h1.87v3.9h1.87v1.71Z"/><path class="cls-2" d="M194.13,223.8H196V225a3,3,0,0,1,2.44-1.43,3.87,3.87,0,0,1,1.67.44l-.89,1.69a1.88,1.88,0,0,0-1.09-.37,1.84,1.84,0,0,0-1.51.68,4.68,4.68,0,0,0-.62,2.91v5.7h-1.87Z"/><path class="cls-2" d="M210.77,231.83a6.26,6.26,0,0,1-1.33,1.74,5.22,5.22,0,0,1-3.59,1.33c-2.6,0-5.33-1.64-5.33-5.64,0-3.23,2-5.72,5.23-5.72a4.83,4.83,0,0,1,4.08,2,7.24,7.24,0,0,1,1,4.06h-8.4a3.45,3.45,0,0,0,3.43,3.66,3.34,3.34,0,0,0,2.21-.77,4.5,4.5,0,0,0,1.12-1.49ZM208.92,228a3.22,3.22,0,0,0-3.17-2.81,3.27,3.27,0,0,0-3.17,2.81Z"/><path class="cls-2" d="M220.28,223.8l3.23,7.28,3.22-7.28h2.08l-5.3,11.49L218.2,223.8Z"/><path class="cls-2" d="M239.05,223.8h1.88v10.79h-1.88v-1.51a4.55,4.55,0,0,1-3.69,1.82c-2.73,0-5.25-1.93-5.25-5.72s2.5-5.64,5.25-5.64a4.45,4.45,0,0,1,3.69,1.79Zm-7,5.38c0,2.31,1.29,4,3.53,4s3.59-1.89,3.59-4a3.66,3.66,0,0,0-3.59-4C233.72,225.2,232,226.55,232,229.18Z"/><path class="cls-2" d="M246.33,215.63v19h-1.87v-19Z"/><path class="cls-2" d="M258.14,223.8H260v10.53a6.8,6.8,0,0,1-1,4.24,5.72,5.72,0,0,1-8.16.54,4.86,4.86,0,0,1-1.41-3.48h1.85a3.2,3.2,0,0,0,3.43,3.27,3,3,0,0,0,2.86-1.51,5,5,0,0,0,.6-2.75v-1.56a4.59,4.59,0,0,1-3.69,1.82,5.16,5.16,0,0,1-3.7-1.46,5.88,5.88,0,0,1-1.56-4.26,5.66,5.66,0,0,1,1.56-4.19,5.35,5.35,0,0,1,3.7-1.45,4.49,4.49,0,0,1,3.69,1.79Zm-5.93,2.41a4.66,4.66,0,0,0,.13,6.14,3.52,3.52,0,0,0,4.68,0,4.39,4.39,0,0,0,1.22-3.12,4.3,4.3,0,0,0-1.14-3.05,3.45,3.45,0,0,0-2.45-1A3.34,3.34,0,0,0,252.21,226.21Z"/><path class="cls-2" d="M263.55,223.8h1.87v1.14a3.14,3.14,0,0,1,2.68-1.4,3.19,3.19,0,0,1,2.93,1.74,3.6,3.6,0,0,1,3.25-1.74c3.2,0,3.51,2.67,3.51,4.21v6.84h-1.87V228c0-1.23-.15-2.84-1.92-2.84-2.16,0-2.39,2.08-2.39,3.38v6h-1.88v-6.4c0-.75,0-3-2-3s-2.36,2.21-2.36,3.51v5.88h-1.87Z"/><path class="cls-2" d="M283.23,230.09a3.66,3.66,0,0,0,.52,2.31,2.58,2.58,0,0,0,3.79,0,3.66,3.66,0,0,0,.52-2.31V223.8h1.88v6.5a4.29,4.29,0,0,1-1,3.25,4.72,4.72,0,0,1-6.61,0,4.33,4.33,0,0,1-1-3.25v-6.5h1.87Z"/><path class="cls-2" d="M295.34,215.63v19h-1.87v-19Z"/><path class="cls-2" d="M299.82,218.39a1.33,1.33,0,1,1-1.33,1.32A1.33,1.33,0,0,1,299.82,218.39Zm.93,5.41v10.79h-1.87V223.8Z"/><path class="cls-2" d="M312.56,223.8h1.87v10.53a6.8,6.8,0,0,1-1,4.24,5.27,5.27,0,0,1-4.32,2,5.34,5.34,0,0,1-3.85-1.46,4.9,4.9,0,0,1-1.4-3.48h1.85a3.2,3.2,0,0,0,3.43,3.27,3,3,0,0,0,2.86-1.51,5,5,0,0,0,.6-2.75v-1.56a4.59,4.59,0,0,1-3.7,1.82,5.14,5.14,0,0,1-3.69-1.46,5.84,5.84,0,0,1-1.56-4.26,5.66,5.66,0,0,1,1.56-4.19,5.34,5.34,0,0,1,3.69-1.45,4.49,4.49,0,0,1,3.7,1.79Zm-5.93,2.41a4.66,4.66,0,0,0,.13,6.14,3.52,3.52,0,0,0,4.68,0,4.39,4.39,0,0,0,1.22-3.12,4.3,4.3,0,0,0-1.14-3.05,3.47,3.47,0,0,0-2.45-1A3.34,3.34,0,0,0,306.63,226.21Z"/><path class="cls-2" d="M318,215.63h1.87V225a3.82,3.82,0,0,1,3.1-1.5A3.66,3.66,0,0,1,326,225a4.76,4.76,0,0,1,.63,2.88v6.69h-1.87V228a3.2,3.2,0,0,0-.5-2,2.1,2.1,0,0,0-1.77-.78,2.33,2.33,0,0,0-1.89.83,4.56,4.56,0,0,0-.79,2.91v5.65H318Z"/><path class="cls-2" d="M339.49,231.83a6.26,6.26,0,0,1-1.33,1.74,5.18,5.18,0,0,1-3.58,1.33c-2.6,0-5.33-1.64-5.33-5.64,0-3.23,2-5.72,5.22-5.72a4.83,4.83,0,0,1,4.08,2,7.24,7.24,0,0,1,1,4.06h-8.4a3.46,3.46,0,0,0,3.43,3.66,3.31,3.31,0,0,0,2.21-.77,4.24,4.24,0,0,0,1.12-1.49ZM337.64,228a3.22,3.22,0,0,0-3.17-2.81A3.29,3.29,0,0,0,331.3,228Z"/><path class="cls-2" d="M350.7,215.63h1.87v19H350.7v-1.51a4.59,4.59,0,0,1-3.7,1.82c-2.73,0-5.25-1.93-5.25-5.72s2.5-5.64,5.25-5.64a4.49,4.49,0,0,1,3.7,1.79Zm-7,13.55c0,2.31,1.3,4,3.53,4s3.59-1.89,3.59-4a3.65,3.65,0,0,0-3.59-4C345.37,225.2,343.68,226.55,343.68,229.18Z"/><path class="cls-2" d="M365.67,231.83a6.41,6.41,0,0,1-1.32,1.74,5.22,5.22,0,0,1-3.59,1.33c-2.6,0-5.33-1.64-5.33-5.64,0-3.23,2-5.72,5.22-5.72a4.85,4.85,0,0,1,4.09,2,7.32,7.32,0,0,1,1,4.06h-8.4a3.46,3.46,0,0,0,3.43,3.66,3.31,3.31,0,0,0,2.21-.77,4.24,4.24,0,0,0,1.12-1.49ZM363.83,228a3.24,3.24,0,0,0-3.18-2.81,3.29,3.29,0,0,0-3.17,2.81Z"/><path class="cls-2" d="M368.61,223.8h1.87V225a3,3,0,0,1,2.45-1.43,3.86,3.86,0,0,1,1.66.44l-.88,1.69a1.93,1.93,0,0,0-1.1-.37,1.81,1.81,0,0,0-1.5.68,4.58,4.58,0,0,0-.63,2.91v5.7h-1.87Z"/><path class="cls-2" d="M376.25,232.25a1.3,1.3,0,0,1,0,2.6,1.3,1.3,0,0,1,0-2.6Z"/><path class="cls-2" d="M395.26,220.68a4.07,4.07,0,0,0-1-1.3,3.14,3.14,0,0,0-1.95-.6,2.66,2.66,0,0,0-2.92,2.68A1.83,1.83,0,0,0,390,223a5.76,5.76,0,0,0,1.82,1.1l1.67.72a8.62,8.62,0,0,1,2.68,1.64,4.2,4.2,0,0,1,1.24,3.15,5.56,5.56,0,0,1-9.25,3.93,6.27,6.27,0,0,1-1.61-3.07l1.87-.52a4.05,4.05,0,0,0,1,2.21,3.55,3.55,0,0,0,6-2.47,2.6,2.6,0,0,0-.86-2,7.56,7.56,0,0,0-2.08-1.2l-1.56-.73a7.46,7.46,0,0,1-2.31-1.43,3.56,3.56,0,0,1-1.2-2.83c0-2.68,2.05-4.47,4.86-4.47a4.68,4.68,0,0,1,2.78.78,5.21,5.21,0,0,1,1.69,1.92Z"/><path class="cls-2" d="M410.08,231.83a6.26,6.26,0,0,1-1.33,1.74,5.19,5.19,0,0,1-3.58,1.33c-2.6,0-5.34-1.64-5.34-5.64,0-3.23,2-5.72,5.23-5.72a4.83,4.83,0,0,1,4.08,2,7.24,7.24,0,0,1,1,4.06h-8.4a3.46,3.46,0,0,0,3.43,3.66,3.31,3.31,0,0,0,2.21-.77,4.24,4.24,0,0,0,1.12-1.49ZM408.23,228a3.22,3.22,0,0,0-3.17-2.81,3.29,3.29,0,0,0-3.17,2.81Z"/><path class="cls-2" d="M419.07,215.63H421V225a3.81,3.81,0,0,1,3.09-1.5,3.66,3.66,0,0,1,3.09,1.48,4.76,4.76,0,0,1,.63,2.88v6.69h-1.87V228a3.2,3.2,0,0,0-.5-2,2.1,2.1,0,0,0-1.77-.78,2.33,2.33,0,0,0-1.89.83,4.55,4.55,0,0,0-.78,2.91v5.65h-1.88Z"/><path class="cls-2" d="M431.81,223.8l3.23,7.28,3.22-7.28h2.08L435,235.29l-5.31-11.49Z"/><path class="cls-2" d="M441.64,229.23a5.72,5.72,0,1,1,5.72,5.67A5.54,5.54,0,0,1,441.64,229.23Zm1.93,0a3.8,3.8,0,1,0,3.79-4A3.74,3.74,0,0,0,443.57,229.23Z"/><path class="cls-2" d="M455.94,223.8h1.87V225a3,3,0,0,1,2.45-1.43,3.86,3.86,0,0,1,1.66.44l-.88,1.69a1.93,1.93,0,0,0-1.09-.37,1.81,1.81,0,0,0-1.51.68,4.65,4.65,0,0,0-.63,2.91v5.7h-1.87Z"/><path class="cls-2" d="M469.7,223.8h1.87v1.14a3.14,3.14,0,0,1,2.68-1.4,3.19,3.19,0,0,1,2.93,1.74,3.6,3.6,0,0,1,3.25-1.74c3.2,0,3.51,2.67,3.51,4.21v6.84h-1.87V228c0-1.23-.15-2.84-1.92-2.84-2.16,0-2.39,2.08-2.39,3.38v6h-1.88v-6.4c0-.75,0-3-1.95-3s-2.36,2.21-2.36,3.51v5.88H469.7Z"/><path class="cls-2" d="M495.77,223.8h1.88v10.79h-1.88v-1.51a4.55,4.55,0,0,1-3.69,1.82c-2.73,0-5.25-1.93-5.25-5.72s2.5-5.64,5.25-5.64a4.45,4.45,0,0,1,3.69,1.79Zm-7,5.38c0,2.31,1.3,4,3.54,4s3.59-1.89,3.59-4a3.66,3.66,0,0,0-3.59-4C490.44,225.2,488.75,226.55,488.75,229.18Z"/><path class="cls-2" d="M501.18,223.8h1.87V225a3.82,3.82,0,0,1,3.1-1.5,3.66,3.66,0,0,1,3.09,1.48,4.76,4.76,0,0,1,.63,2.88v6.69H508V228a3.19,3.19,0,0,0-.49-2,2.13,2.13,0,0,0-1.77-.78,2.37,2.37,0,0,0-1.9.83,4.61,4.61,0,0,0-.78,2.91v5.65h-1.87Z"/><path class="cls-2" d="M521.67,223.8h1.87v10.53a6.8,6.8,0,0,1-1,4.24,5.24,5.24,0,0,1-4.31,2,5.32,5.32,0,0,1-3.85-1.46,4.86,4.86,0,0,1-1.41-3.48h1.85a3.2,3.2,0,0,0,3.43,3.27,3,3,0,0,0,2.86-1.51,5,5,0,0,0,.6-2.75v-1.56A4.57,4.57,0,0,1,518,234.9a5.12,5.12,0,0,1-3.69-1.46,5.83,5.83,0,0,1-1.57-4.26,5.62,5.62,0,0,1,1.57-4.19,5.32,5.32,0,0,1,3.69-1.45,4.49,4.49,0,0,1,3.69,1.79Zm-5.93,2.41a4.66,4.66,0,0,0,.13,6.14,3.26,3.26,0,0,0,2.32.88,3.22,3.22,0,0,0,2.36-.9,4.39,4.39,0,0,0,1.22-3.12,4.3,4.3,0,0,0-1.14-3.05,3.45,3.45,0,0,0-2.44-1A3.35,3.35,0,0,0,515.74,226.21Z"/><path class="cls-2" d="M536.64,231.83a6.22,6.22,0,0,1-1.32,1.74,5.22,5.22,0,0,1-3.59,1.33c-2.6,0-5.33-1.64-5.33-5.64,0-3.23,2-5.72,5.23-5.72a4.84,4.84,0,0,1,4.08,2,7.24,7.24,0,0,1,1,4.06h-8.4a3.46,3.46,0,0,0,3.44,3.66,3.34,3.34,0,0,0,2.21-.77,4.34,4.34,0,0,0,1.11-1.49ZM534.8,228a3.23,3.23,0,0,0-3.17-2.81,3.27,3.27,0,0,0-3.17,2.81Z"/><path class="cls-2" d="M553.91,215.63h1.87v19h-1.87v-1.51a4.59,4.59,0,0,1-3.69,1.82c-2.73,0-5.26-1.93-5.26-5.72s2.5-5.64,5.26-5.64a4.47,4.47,0,0,1,3.69,1.79Zm-7,13.55c0,2.31,1.3,4,3.53,4s3.59-1.89,3.59-4a3.65,3.65,0,0,0-3.59-4C548.58,225.2,546.89,226.55,546.89,229.18Z"/><path class="cls-2" d="M561.19,230.09a3.66,3.66,0,0,0,.52,2.31,2.58,2.58,0,0,0,3.79,0,3.66,3.66,0,0,0,.52-2.31V223.8h1.88v6.5a4.29,4.29,0,0,1-1,3.25,4.72,4.72,0,0,1-6.61,0,4.33,4.33,0,0,1-1-3.25v-6.5h1.87Z"/><path class="cls-2" d="M74.14,246.83V259l4-4h2.45l-4.63,4.62,5.46,6.17H78.92l-4.31-4.92-.47.47v4.45H72.27v-19Z"/><path class="cls-2" d="M91.51,255h1.87v10.79H91.51v-1.51a4.59,4.59,0,0,1-3.69,1.82c-2.73,0-5.26-1.93-5.26-5.72s2.5-5.64,5.26-5.64a4.47,4.47,0,0,1,3.69,1.79Zm-7,5.38c0,2.31,1.3,4.06,3.53,4.06s3.59-1.9,3.59-4a3.65,3.65,0,0,0-3.59-4C86.18,256.4,84.49,257.75,84.49,260.38Z"/><path class="cls-2" d="M96.92,255h1.87v1.25a3.77,3.77,0,0,1,3.09-1.51,3.67,3.67,0,0,1,3.1,1.48,4.84,4.84,0,0,1,.62,2.88v6.69h-1.87v-6.63a3.13,3.13,0,0,0-.5-2,2.09,2.09,0,0,0-1.76-.78,2.35,2.35,0,0,0-1.9.83,4.55,4.55,0,0,0-.78,2.91v5.65H96.92Z"/><path class="cls-2" d="M117.12,256.71v9.08h-1.87v-9.08h-1V255h1v-4.71a3.69,3.69,0,0,1,1-3,3.32,3.32,0,0,1,2.15-.7,3.62,3.62,0,0,1,1.33.23v1.82a3.3,3.3,0,0,0-1.22-.23,1.31,1.31,0,0,0-1.2.57,3.3,3.3,0,0,0-.23,1.56V255h2.65v1.71Z"/><path class="cls-2" d="M129.7,255h1.87v10.79H129.7v-1.51A4.55,4.55,0,0,1,126,266.1c-2.73,0-5.25-1.93-5.25-5.72s2.49-5.64,5.25-5.64a4.45,4.45,0,0,1,3.69,1.79Zm-7,5.38c0,2.31,1.3,4.06,3.54,4.06s3.58-1.9,3.58-4a3.65,3.65,0,0,0-3.58-4C124.37,256.4,122.68,257.75,122.68,260.38Zm3.95-12a2.24,2.24,0,1,1-2.23,2.24A2.26,2.26,0,0,1,126.63,248.39Zm0,3.33a1.09,1.09,0,1,0-1.09-1.09A1.13,1.13,0,0,0,126.63,251.72Z"/><path class="cls-2" d="M141.17,255H143v1.17a3,3,0,0,1,2.44-1.43,3.91,3.91,0,0,1,1.67.44l-.89,1.69a1.88,1.88,0,0,0-1.09-.37,1.84,1.84,0,0,0-1.51.68,4.7,4.7,0,0,0-.62,2.91v5.7h-1.87Z"/><path class="cls-2" d="M149.8,249.59a1.33,1.33,0,1,1-1.33,1.32A1.33,1.33,0,0,1,149.8,249.59Zm.93,5.41v10.79h-1.87V255Z"/><path class="cls-2" d="M162.54,255h1.87v10.53a6.8,6.8,0,0,1-1,4.24,5.72,5.72,0,0,1-8.16.54,4.86,4.86,0,0,1-1.41-3.48h1.85a3.2,3.2,0,0,0,3.43,3.27,3,3,0,0,0,2.86-1.5,5,5,0,0,0,.6-2.76v-1.56a4.59,4.59,0,0,1-3.69,1.82,5.21,5.21,0,0,1-3.7-1.46,5.86,5.86,0,0,1-1.56-4.26,5.66,5.66,0,0,1,1.56-4.19,5.35,5.35,0,0,1,3.7-1.45,4.49,4.49,0,0,1,3.69,1.79Zm-5.93,2.42a4.09,4.09,0,0,0-1.09,3,4.16,4.16,0,0,0,1.22,3.17,3.49,3.49,0,0,0,4.68,0,4.39,4.39,0,0,0,1.22-3.12,4.3,4.3,0,0,0-1.14-3.05,3.45,3.45,0,0,0-2.45-1A3.31,3.31,0,0,0,156.61,257.42Z"/><path class="cls-2" d="M169.87,256.71v9.08H168v-9.08h-1.15V255H168v-3.9h1.87V255h1.87v1.71Z"/><path class="cls-2" d="M174.45,249.59a1.33,1.33,0,1,1-1.33,1.32A1.33,1.33,0,0,1,174.45,249.59Zm.93,5.41v10.79h-1.87V255Z"/><path class="cls-2" d="M187.19,255h1.87v10.53a6.8,6.8,0,0,1-1,4.24,5.27,5.27,0,0,1-4.32,2,5.36,5.36,0,0,1-3.85-1.46,4.86,4.86,0,0,1-1.4-3.48h1.84a3.37,3.37,0,0,0,.84,2.23,3.32,3.32,0,0,0,2.6,1,3,3,0,0,0,2.86-1.5,5.1,5.1,0,0,0,.6-2.76v-1.56a4.59,4.59,0,0,1-3.7,1.82,5.18,5.18,0,0,1-3.69-1.46,5.82,5.82,0,0,1-1.56-4.26,5.66,5.66,0,0,1,1.56-4.19,5.34,5.34,0,0,1,3.69-1.45,4.49,4.49,0,0,1,3.7,1.79Zm-5.93,2.42a4.09,4.09,0,0,0-1.09,3,4.16,4.16,0,0,0,1.22,3.17,3.49,3.49,0,0,0,4.68,0,4.43,4.43,0,0,0,1.22-3.12,4.3,4.3,0,0,0-1.14-3.05,3.47,3.47,0,0,0-2.45-1A3.31,3.31,0,0,0,181.26,257.42Z"/><path class="cls-2" d="M202.16,263a6.26,6.26,0,0,1-1.33,1.74,5.19,5.19,0,0,1-3.58,1.33c-2.6,0-5.33-1.64-5.33-5.64,0-3.23,2-5.72,5.22-5.72a4.82,4.82,0,0,1,4.08,2,7.24,7.24,0,0,1,1,4.06h-8.4a3.47,3.47,0,0,0,3.43,3.67,3.31,3.31,0,0,0,2.21-.78,4.24,4.24,0,0,0,1.12-1.49Zm-1.85-3.82a3.22,3.22,0,0,0-3.17-2.81,3.29,3.29,0,0,0-3.17,2.81Z"/><path class="cls-2" d="M206.29,263.45a1.3,1.3,0,1,1,0,2.6,1.3,1.3,0,1,1,0-2.6Z"/></svg>
