<?xml version="1.0" encoding="utf-8"?>
<!-- Generator: Adobe Illustrator 23.0.1, SVG Export Plug-In . SVG Version: 6.00 Build 0)  -->
<svg version="1.1" id="Layer_1" xmlns="http://www.w3.org/2000/svg" xmlns:xlink="http://www.w3.org/1999/xlink" x="0px" y="0px"
	 viewBox="0 0 660 430" style="enable-background:new 0 0 660 430;" xml:space="preserve">
<style type="text/css">
	.st0{fill:#F4912D;}
	.st1{fill:#FFFFFF;}
</style>
<title>introduktion_skaerm</title>
<path class="st0" d="M38.4,2h583.3c20.4,0,36.9,16.5,36.9,36.9v352.3c0,20.4-16.5,36.9-36.9,36.9H38.4C18,428,1.5,411.5,1.5,391.1
	V38.9C1.5,18.5,18,2,38.4,2z"/>
<path class="st1" d="M71.7,64.7v50H62v-50H71.7z"/>
<path class="st1" d="M83.1,114.7v-50h6.8l30.4,33.4V64.7h9.7v50h-6.8L92.8,81.3v33.5L83.1,114.7z"/>
<path class="st1" d="M157.2,73.1v41.6h-9.8V73.1h-11.2v-8.4h32.2v8.4L157.2,73.1z"/>
<path class="st1" d="M189.1,64.7c6.9,0,10.4,1.8,12.8,3.8c3.3,2.8,5.1,6.9,5,11.2c0,4.9-2,9.2-5.9,11.8c-1.6,1.1-3.5,1.8-5.5,2.2
	l15.5,21.1h-12.1l-13.4-20.1h-1.2v20.1h-9.7v-50L189.1,64.7z M184.4,87.7h2.8c1.9,0,9.6-0.2,9.6-7.6s-7.6-7.5-9.4-7.5h-2.9
	L184.4,87.7z"/>
<path class="st1" d="M268.6,89.8c0,15.2-11,26.1-26.7,26.1s-26.7-10.9-26.7-26.1s10.9-26.2,26.7-26.2S268.6,74.5,268.6,89.8z
	 M258.6,89.8c0-10.1-6.9-17.3-16.6-17.3s-16.6,7.2-16.6,17.3s6.9,17.2,16.6,17.2S258.6,99.9,258.6,89.8L258.6,89.8z"/>
<path class="st1" d="M290.7,64.7c7,0,13,0.8,18.6,4.9c6.1,4.6,9.6,11.8,9.6,20.2s-3.5,15.5-10,20.2c-5.9,4.1-11.3,4.8-18.3,4.8
	h-12.9v-50L290.7,64.7z M287.4,106.3h3c2.5,0,7.9-0.2,12.2-3.3c4-2.8,6.2-8,6.2-13.3s-2.2-10.3-6.1-13.3s-9-3.3-12.3-3.3h-3
	L287.4,106.3z"/>
<path class="st1" d="M337.6,64.7v31.4c-0.1,2.7,0.7,5.3,2.4,7.4c4.1,4.4,11,4.6,15.4,0.5c0.2-0.2,0.4-0.3,0.5-0.5
	c1.1-1.3,2.4-3.6,2.4-7.4V64.7h9.8v30.6c0,4.7-0.8,9.5-3.8,13.3c-3.6,4.7-9.9,7.2-16.4,7.2s-12.8-2.5-16.4-7.2
	c-3-3.8-3.8-8.6-3.8-13.3V64.7H337.6z"/>
<path class="st1" d="M389.2,85.9l18.4-21.2h12.3l-21.1,23.1l22.2,26.9h-12.9l-17.7-22.4l-1.1,1.1v21.3h-9.8v-50h9.8V85.9z"/>
<path class="st1" d="M442.9,73.1v41.6h-9.8V73.1h-11.2v-8.4h32.2v8.4L442.9,73.1z"/>
<path class="st1" d="M470.1,64.7v50h-9.8v-50H470.1z"/>
<path class="st1" d="M532.5,89.8c0,15.2-11,26.1-26.7,26.1s-26.7-10.9-26.7-26.1s11-26.2,26.7-26.2S532.5,74.5,532.5,89.8z
	 M522.5,89.8c0-10.1-6.9-17.3-16.6-17.3s-16.6,7.2-16.6,17.3S496,107,505.8,107S522.4,99.9,522.5,89.8L522.5,89.8z"/>
<path class="st1" d="M541.5,114.7v-50h6.8l30.5,33.4V64.7h9.8v50h-6.8l-30.5-33.4v33.5L541.5,114.7z"/>
<g>
	<path class="st1" d="M61.7,138.2h3.4c1.7,0,4,0.2,6.1,1.9c1.5,1.3,2.8,3.4,2.8,6.4c0,3.5-1.7,5.4-2.9,6.4c-1.5,1.3-3.1,1.9-6.1,1.9
		h-3.4V138.2z M63.6,153.2h1.6c1.3,0,3.1-0.1,4.8-1.5c1.2-1,2.2-2.7,2.2-5.1c0-4-2.8-6.6-7-6.6h-1.6V153.2z"/>
	<path class="st1" d="M78.9,150.6c0,0.7,0,1.6,0.5,2.2c0.3,0.3,0.8,0.8,1.8,0.8c1,0,1.5-0.5,1.8-0.8c0.5-0.6,0.5-1.5,0.5-2.2v-6h1.8
		v6.2c0,1.3-0.1,2.2-0.9,3.1c-0.9,1-2.1,1.3-3.2,1.3c-1,0-2.2-0.3-3.2-1.3c-0.8-0.9-0.9-1.8-0.9-3.1v-6.2h1.8V150.6z"/>
	<path class="st1" d="M96.3,154.9h-1.8v-18.2h1.8v9.3c1.2-1.5,2.8-1.7,3.5-1.7c3.2,0,5,2.7,5,5.5c0,2.8-1.8,5.4-5,5.4
		c-1.7,0-2.8-0.8-3.6-1.7V154.9z M103.1,149.8c0-2.5-1.7-3.9-3.4-3.9c-1.7,0-3.4,1.4-3.4,3.9c0,2.1,1.3,3.8,3.5,3.8
		C101.8,153.6,103.1,151.9,103.1,149.8z"/>
	<path class="st1" d="M109.5,136.7v18.2h-1.8v-18.2H109.5z"/>
	<path class="st1" d="M113.8,139.3c0.7,0,1.3,0.6,1.3,1.3c0,0.7-0.6,1.3-1.3,1.3c-0.7,0-1.3-0.6-1.3-1.3
		C112.5,139.9,113.1,139.3,113.8,139.3z M114.7,144.5v10.4h-1.8v-10.4H114.7z"/>
	<path class="st1" d="M118.6,144.5l3.1,7l3.1-7h2l-5.1,11l-5.1-11H118.6z"/>
	<path class="st1" d="M137.9,152.3c-0.3,0.6-0.8,1.2-1.3,1.7c-0.9,0.8-2.1,1.3-3.4,1.3c-2.5,0-5.1-1.6-5.1-5.4c0-3.1,1.9-5.5,5-5.5
		c2,0,3.3,1,3.9,1.9c0.6,0.9,1,2.5,1,3.9h-8.1c0,2.1,1.5,3.5,3.3,3.5c0.8,0,1.5-0.2,2.1-0.8c0.5-0.4,0.9-0.9,1.1-1.4L137.9,152.3z
		 M136.1,148.6c-0.3-1.6-1.5-2.7-3-2.7c-1.5,0-2.8,1.1-3,2.7H136.1z"/>
	<path class="st1" d="M140.7,144.5h1.8v1.1c0.2-0.3,0.9-1.4,2.3-1.4c0.5,0,1.1,0.2,1.6,0.4l-0.8,1.6c-0.4-0.3-0.8-0.3-1-0.3
		c-0.7,0-1.2,0.3-1.4,0.6c-0.3,0.4-0.6,1.1-0.6,2.8v5.5h-1.8V144.5z"/>
	<path class="st1" d="M155.7,150.6c0,0.7,0,1.6,0.5,2.2c0.3,0.3,0.8,0.8,1.8,0.8c1,0,1.5-0.5,1.8-0.8c0.5-0.6,0.5-1.5,0.5-2.2v-6
		h1.8v6.2c0,1.3-0.1,2.2-0.9,3.1c-0.9,1-2.1,1.3-3.2,1.3c-1,0-2.2-0.3-3.2-1.3c-0.8-0.9-0.9-1.8-0.9-3.1v-6.2h1.8V150.6z"/>
	<path class="st1" d="M173.5,136.7h1.8v18.2h-1.8v-1.4c-0.6,0.8-1.7,1.7-3.5,1.7c-2.6,0-5-1.8-5-5.5c0-3.6,2.4-5.4,5-5.4
		c2,0,3.1,1.1,3.5,1.7V136.7z M166.8,149.7c0,2.2,1.2,3.9,3.4,3.9c2.2,0,3.4-1.8,3.4-3.9c0-2.7-1.8-3.8-3.4-3.8
		C168.4,145.9,166.8,147.2,166.8,149.7z"/>
	<path class="st1" d="M183,146.9c-0.2-0.6-0.8-1-1.4-1c-0.6,0-1.2,0.4-1.2,1.2c0,0.7,0.5,1,1.7,1.5c1.5,0.6,2.2,1.1,2.6,1.6
		c0.4,0.5,0.5,1.1,0.5,1.7c0,2.2-1.6,3.4-3.6,3.4c-0.4,0-2.7,0-3.6-2.6l1.5-0.6c0.2,0.5,0.8,1.7,2.1,1.7c1.2,0,1.7-0.9,1.7-1.6
		c0-1-0.7-1.3-1.7-1.7c-1.2-0.5-2-1-2.5-1.5c-0.4-0.5-0.5-1-0.5-1.5c0-1.8,1.3-2.9,3-2.9c0.5,0,2,0.1,2.8,1.9L183,146.9z"/>
	<path class="st1" d="M195.5,144.5h1.8v10.4h-1.8v-1.4c-0.6,0.8-1.7,1.7-3.5,1.7c-2.6,0-5-1.8-5-5.5c0-3.6,2.4-5.4,5-5.4
		c2,0,3.1,1.1,3.5,1.7V144.5z M188.7,149.7c0,2.2,1.2,3.9,3.4,3.9c2.2,0,3.4-1.8,3.4-3.9c0-2.7-1.8-3.8-3.4-3.8
		C190.4,145.9,188.7,147.2,188.7,149.7z"/>
	<path class="st1" d="M202.5,146.2v8.7h-1.8v-8.7h-1.1v-1.6h1.1v-3.7h1.8v3.7h1.8v1.6H202.5z"/>
	<path class="st1" d="M213.7,146.2v8.7h-1.8v-8.7h-1v-1.6h1V140c0-0.9,0.1-2.1,1-2.9c0.5-0.4,1.2-0.7,2.1-0.7c0.6,0,1.1,0.1,1.3,0.2
		v1.8c-0.4-0.2-0.8-0.2-1.2-0.2c-0.4,0-0.9,0.1-1.1,0.5c-0.2,0.4-0.2,1-0.2,1.5v4.3h2.5v1.6H213.7z"/>
	<path class="st1" d="M217.2,149.8c0-3.1,2.3-5.5,5.5-5.5s5.5,2.3,5.5,5.5c0,3.1-2.3,5.4-5.5,5.4
		C219.6,155.2,217.2,152.9,217.2,149.8z M219.1,149.8c0,2.5,1.8,3.8,3.6,3.8c1.9,0,3.6-1.3,3.6-3.8c0-2.5-1.7-3.9-3.6-3.9
		S219.1,147.2,219.1,149.8z"/>
	<path class="st1" d="M231,144.5h1.8v1.1c0.2-0.3,0.9-1.4,2.3-1.4c0.5,0,1.1,0.2,1.6,0.4l-0.8,1.6c-0.4-0.3-0.8-0.3-1-0.3
		c-0.7,0-1.2,0.3-1.4,0.6c-0.3,0.4-0.6,1.1-0.6,2.8v5.5H231V144.5z"/>
	<path class="st1" d="M246,146.2v8.7h-1.8v-8.7h-1.1v-1.6h1.1v-3.7h1.8v3.7h1.8v1.6H246z"/>
	<path class="st1" d="M249.5,144.5h1.8v1.1c0.2-0.3,0.9-1.4,2.3-1.4c0.5,0,1.1,0.2,1.6,0.4l-0.8,1.6c-0.4-0.3-0.8-0.3-1-0.3
		c-0.7,0-1.2,0.3-1.4,0.6c-0.3,0.4-0.6,1.1-0.6,2.8v5.5h-1.8V144.5z"/>
	<path class="st1" d="M265.5,152.3c-0.3,0.6-0.8,1.2-1.3,1.7c-0.9,0.8-2.1,1.3-3.4,1.3c-2.5,0-5.1-1.6-5.1-5.4c0-3.1,1.9-5.5,5-5.5
		c2,0,3.3,1,3.9,1.9c0.6,0.9,1,2.5,1,3.9h-8.1c0,2.1,1.5,3.5,3.3,3.5c0.8,0,1.5-0.2,2.1-0.8c0.5-0.4,0.9-0.9,1.1-1.4L265.5,152.3z
		 M263.7,148.6c-0.3-1.6-1.5-2.7-3-2.7c-1.5,0-2.8,1.1-3,2.7H263.7z"/>
	<path class="st1" d="M282.1,136.7h1.8v18.2h-1.8v-1.4c-0.6,0.8-1.7,1.7-3.5,1.7c-2.6,0-5-1.8-5-5.5c0-3.6,2.4-5.4,5-5.4
		c2,0,3.1,1.1,3.5,1.7V136.7z M275.4,149.7c0,2.2,1.2,3.9,3.4,3.9c2.2,0,3.4-1.8,3.4-3.9c0-2.7-1.8-3.8-3.4-3.8
		C277,145.9,275.4,147.2,275.4,149.7z"/>
	<path class="st1" d="M288,139.3c0.7,0,1.3,0.6,1.3,1.3c0,0.7-0.6,1.3-1.3,1.3c-0.7,0-1.3-0.6-1.3-1.3
		C286.7,139.9,287.3,139.3,288,139.3z M288.9,144.5v10.4h-1.8v-10.4H288.9z"/>
	<path class="st1" d="M294.1,136.7v18.2h-1.8v-18.2H294.1z"/>
	<path class="st1" d="M306.7,152.3c-0.3,0.6-0.8,1.2-1.3,1.7c-0.9,0.8-2.1,1.3-3.4,1.3c-2.5,0-5.1-1.6-5.1-5.4c0-3.1,1.9-5.5,5-5.5
		c2,0,3.3,1,3.9,1.9c0.6,0.9,1,2.5,1,3.9h-8.1c0,2.1,1.5,3.5,3.3,3.5c0.8,0,1.5-0.2,2.1-0.8c0.5-0.4,0.9-0.9,1.1-1.4L306.7,152.3z
		 M304.9,148.6c-0.3-1.6-1.5-2.7-3-2.7c-1.5,0-2.8,1.1-3,2.7H304.9z"/>
	<path class="st1" d="M309.5,144.5h1.8v1.1c0.6-0.8,1.5-1.3,2.6-1.3c1.9,0,2.6,1.3,2.8,1.7c1-1.6,2.4-1.7,3.1-1.7
		c3.1,0,3.4,2.6,3.4,4v6.6h-1.8v-6.3c0-1.2-0.1-2.7-1.8-2.7c-2.1,0-2.3,2-2.3,3.2v5.8h-1.8v-6.1c0-0.7,0-2.9-1.9-2.9
		c-2,0-2.3,2.1-2.3,3.4v5.6h-1.8V144.5z"/>
	<path class="st1" d="M326.6,144.5h1.8v1.1c0.6-0.8,1.5-1.3,2.6-1.3c1.9,0,2.6,1.3,2.8,1.7c1-1.6,2.4-1.7,3.1-1.7
		c3.1,0,3.4,2.6,3.4,4v6.6h-1.8v-6.3c0-1.2-0.1-2.7-1.8-2.7c-2.1,0-2.3,2-2.3,3.2v5.8h-1.8v-6.1c0-0.7,0-2.9-1.9-2.9
		c-2,0-2.3,2.1-2.3,3.4v5.6h-1.8V144.5z"/>
	<path class="st1" d="M351.7,144.5h1.8v10.4h-1.8v-1.4c-0.6,0.8-1.7,1.7-3.5,1.7c-2.6,0-5-1.8-5-5.5c0-3.6,2.4-5.4,5-5.4
		c2,0,3.1,1.1,3.5,1.7V144.5z M344.9,149.7c0,2.2,1.2,3.9,3.4,3.9c2.2,0,3.4-1.8,3.4-3.9c0-2.7-1.8-3.8-3.4-3.8
		C346.6,145.9,344.9,147.2,344.9,149.7z"/>
	<path class="st1" d="M366.1,152.3c-0.3,0.6-0.8,1.2-1.3,1.7c-1,0.8-2.1,1.3-3.4,1.3c-2.5,0-5.1-1.6-5.1-5.4c0-3.1,1.9-5.5,5-5.5
		c2,0,3.3,1,3.9,1.9c0.6,0.9,1,2.5,1,3.9h-8.1c0,2.1,1.5,3.5,3.3,3.5c0.8,0,1.5-0.2,2.1-0.8c0.5-0.4,0.8-0.9,1.1-1.4L366.1,152.3z
		 M364.3,148.6c-0.3-1.6-1.5-2.7-3-2.7s-2.8,1.1-3,2.7H364.3z"/>
	<path class="st1" d="M368.9,144.5h1.8v1.1c0.2-0.3,1-1.4,2.3-1.4c0.5,0,1.1,0.2,1.6,0.4l-0.8,1.6c-0.4-0.3-0.8-0.3-1-0.3
		c-0.7,0-1.2,0.3-1.5,0.6c-0.3,0.4-0.6,1.1-0.6,2.8v5.5h-1.8V144.5z"/>
	<path class="st1" d="M383,139.3c0.7,0,1.3,0.6,1.3,1.3c0,0.7-0.6,1.3-1.3,1.3c-0.7,0-1.3-0.6-1.3-1.3
		C381.8,139.9,382.3,139.3,383,139.3z M383.9,144.5v10.4h-1.8v-10.4H383.9z"/>
	<path class="st1" d="M395,146.2v8.7h-1.8v-8.7h-1v-1.6h1V140c0-0.9,0.1-2.1,1-2.9c0.5-0.4,1.2-0.7,2.1-0.7c0.6,0,1.1,0.1,1.3,0.2
		v1.8c-0.4-0.2-0.8-0.2-1.2-0.2c-0.4,0-0.9,0.1-1.1,0.5c-0.2,0.4-0.2,1-0.2,1.5v4.3h2.5v1.6H395z"/>
	<path class="st1" d="M398.5,149.8c0-3.1,2.3-5.5,5.5-5.5c3.2,0,5.5,2.3,5.5,5.5c0,3.1-2.3,5.4-5.5,5.4
		C400.9,155.2,398.5,152.9,398.5,149.8z M400.4,149.8c0,2.5,1.8,3.8,3.6,3.8c1.9,0,3.6-1.3,3.6-3.8c0-2.5-1.7-3.9-3.6-3.9
		C402.1,145.9,400.4,147.2,400.4,149.8z"/>
	<path class="st1" d="M412.3,144.5h1.8v1.1c0.2-0.3,1-1.4,2.3-1.4c0.5,0,1.1,0.2,1.6,0.4l-0.8,1.6c-0.4-0.3-0.8-0.3-1-0.3
		c-0.7,0-1.2,0.3-1.5,0.6c-0.3,0.4-0.6,1.1-0.6,2.8v5.5h-1.8V144.5z"/>
	<path class="st1" d="M421.5,154.9h-1.8v-18.2h1.8v9.3c1.2-1.5,2.8-1.7,3.5-1.7c3.2,0,5,2.7,5,5.5c0,2.8-1.8,5.4-5,5.4
		c-1.7,0-2.8-0.8-3.6-1.7V154.9z M428.2,149.8c0-2.5-1.7-3.9-3.4-3.9c-1.7,0-3.4,1.4-3.4,3.9c0,2.1,1.3,3.8,3.5,3.8
		C426.9,153.6,428.2,151.9,428.2,149.8z"/>
	<path class="st1" d="M433.7,139.3c0.7,0,1.3,0.6,1.3,1.3c0,0.7-0.6,1.3-1.3,1.3c-0.7,0-1.3-0.6-1.3-1.3
		C432.4,139.9,433,139.3,433.7,139.3z M434.6,144.5v10.4h-1.8v-10.4H434.6z"/>
	<path class="st1" d="M438,144.5h1.8v1.2c0.3-0.4,1.2-1.4,3-1.4c1.2,0,2.3,0.5,3,1.4c0.5,0.8,0.6,1.6,0.6,2.8v6.4h-1.8v-6.4
		c0-0.6,0-1.3-0.5-1.9c-0.4-0.4-0.9-0.7-1.7-0.7c-0.6,0-1.3,0.2-1.8,0.8c-0.7,0.8-0.8,2-0.8,2.8v5.4H438V144.5z"/>
	<path class="st1" d="M457.7,136.7h1.8v18.2h-1.8v-1.4c-0.6,0.8-1.7,1.7-3.5,1.7c-2.6,0-5-1.8-5-5.5c0-3.6,2.4-5.4,5-5.4
		c2,0,3.1,1.1,3.5,1.7V136.7z M451,149.7c0,2.2,1.2,3.9,3.4,3.9c2.2,0,3.4-1.8,3.4-3.9c0-2.7-1.8-3.8-3.4-3.8
		C452.6,145.9,451,147.2,451,149.7z"/>
	<path class="st1" d="M472.1,152.3c-0.3,0.6-0.8,1.2-1.3,1.7c-1,0.8-2.1,1.3-3.4,1.3c-2.5,0-5.1-1.6-5.1-5.4c0-3.1,1.9-5.5,5-5.5
		c2,0,3.3,1,3.9,1.9c0.7,0.9,1,2.5,1,3.9h-8.1c0,2.1,1.5,3.5,3.3,3.5c0.8,0,1.5-0.2,2.1-0.8c0.5-0.4,0.8-0.9,1.1-1.4L472.1,152.3z
		 M470.3,148.6c-0.3-1.6-1.5-2.7-3-2.7c-1.5,0-2.8,1.1-3,2.7H470.3z"/>
	<path class="st1" d="M476.7,136.7v18.2h-1.8v-18.2H476.7z"/>
	<path class="st1" d="M484.4,146.9c-0.2-0.6-0.8-1-1.5-1c-0.6,0-1.2,0.4-1.2,1.2c0,0.7,0.5,1,1.7,1.5c1.5,0.6,2.2,1.1,2.6,1.6
		c0.5,0.5,0.5,1.1,0.5,1.7c0,2.2-1.6,3.4-3.6,3.4c-0.4,0-2.7,0-3.6-2.6l1.5-0.6c0.2,0.5,0.8,1.7,2.1,1.7c1.2,0,1.7-0.9,1.7-1.6
		c0-1-0.7-1.3-1.7-1.7c-1.2-0.5-2-1-2.5-1.5c-0.4-0.5-0.5-1-0.5-1.5c0-1.8,1.3-2.9,3-2.9c0.5,0,2,0.1,2.8,1.9L484.4,146.9z"/>
	<path class="st1" d="M498.1,152.3c-0.3,0.6-0.8,1.2-1.3,1.7c-1,0.8-2.1,1.3-3.4,1.3c-2.5,0-5.1-1.6-5.1-5.4c0-3.1,1.9-5.5,5-5.5
		c2,0,3.3,1,3.9,1.9c0.6,0.9,1,2.5,1,3.9h-8.1c0,2.1,1.5,3.5,3.3,3.5c0.8,0,1.5-0.2,2.1-0.8c0.5-0.4,0.8-0.9,1.1-1.4L498.1,152.3z
		 M496.4,148.6c-0.3-1.6-1.5-2.7-3-2.7s-2.8,1.1-3,2.7H496.4z"/>
	<path class="st1" d="M506.8,144.5h1.8v1.1c0.6-0.8,1.5-1.3,2.6-1.3c1.9,0,2.6,1.3,2.8,1.7c1-1.6,2.4-1.7,3.1-1.7
		c3.1,0,3.4,2.6,3.4,4v6.6h-1.8v-6.3c0-1.2-0.2-2.7-1.8-2.7c-2.1,0-2.3,2-2.3,3.2v5.8h-1.8v-6.1c0-0.7,0-2.9-1.9-2.9
		c-2,0-2.3,2.1-2.3,3.4v5.6h-1.8V144.5z"/>
	<path class="st1" d="M533.1,152.3c-0.3,0.6-0.8,1.2-1.3,1.7c-1,0.8-2.1,1.3-3.4,1.3c-2.5,0-5.1-1.6-5.1-5.4c0-3.1,1.9-5.5,5-5.5
		c2,0,3.3,1,3.9,1.9c0.7,0.9,1,2.5,1,3.9h-8.1c0,2.1,1.5,3.5,3.3,3.5c0.8,0,1.5-0.2,2.1-0.8c0.5-0.4,0.8-0.9,1.1-1.4L533.1,152.3z
		 M531.3,148.6c-0.3-1.6-1.5-2.7-3-2.7c-1.5,0-2.8,1.1-3,2.7H531.3z"/>
	<path class="st1" d="M543.9,136.7h1.8v18.2h-1.8v-1.4c-0.6,0.8-1.7,1.7-3.5,1.7c-2.6,0-5-1.8-5-5.5c0-3.6,2.4-5.4,5-5.4
		c2,0,3.1,1.1,3.5,1.7V136.7z M537.1,149.7c0,2.2,1.2,3.9,3.4,3.9c2.2,0,3.4-1.8,3.4-3.9c0-2.7-1.8-3.8-3.4-3.8
		C538.8,145.9,537.1,147.2,537.1,149.7z"/>
	<path class="st1" d="M63.1,184.9h-1.8v-18.2h1.8v9.3c1.2-1.5,2.8-1.7,3.5-1.7c3.2,0,5,2.7,5,5.5c0,2.8-1.8,5.4-5,5.4
		c-1.7,0-2.8-0.8-3.6-1.7V184.9z M69.8,179.8c0-2.5-1.7-3.9-3.4-3.9c-1.7,0-3.4,1.4-3.4,3.9c0,2.1,1.3,3.8,3.5,3.8
		C68.5,183.6,69.8,181.9,69.8,179.8z"/>
	<path class="st1" d="M75.3,169.3c0.7,0,1.3,0.6,1.3,1.3c0,0.7-0.6,1.3-1.3,1.3c-0.7,0-1.3-0.6-1.3-1.3
		C74,169.9,74.6,169.3,75.3,169.3z M76.2,174.5v10.4h-1.8v-10.4H76.2z"/>
	<path class="st1" d="M81.4,166.7v18.2h-1.8v-18.2H81.4z"/>
	<path class="st1" d="M86.6,166.7v18.2h-1.8v-18.2H86.6z"/>
	<path class="st1" d="M99.2,182.3c-0.3,0.6-0.8,1.2-1.3,1.7c-0.9,0.8-2.1,1.3-3.4,1.3c-2.5,0-5.1-1.6-5.1-5.4c0-3.1,1.9-5.5,5-5.5
		c2,0,3.3,1,3.9,1.9c0.6,0.9,1,2.5,1,3.9h-8.1c0,2.1,1.5,3.5,3.3,3.5c0.8,0,1.5-0.2,2.1-0.8c0.5-0.4,0.9-0.9,1.1-1.4L99.2,182.3z
		 M97.4,178.6c-0.3-1.6-1.5-2.7-3-2.7c-1.5,0-2.8,1.1-3,2.7H97.4z"/>
	<path class="st1" d="M110,166.7h1.8v18.2H110v-1.4c-0.6,0.8-1.7,1.7-3.5,1.7c-2.6,0-5-1.8-5-5.5c0-3.6,2.4-5.4,5-5.4
		c2,0,3.1,1.1,3.5,1.7V166.7z M103.2,179.7c0,2.2,1.2,3.9,3.4,3.9c2.2,0,3.4-1.8,3.4-3.9c0-2.7-1.8-3.8-3.4-3.8
		C104.9,175.9,103.2,177.2,103.2,179.7z"/>
	<path class="st1" d="M123.1,166.7h1.8v18.2h-1.8v-1.4c-0.6,0.8-1.7,1.7-3.5,1.7c-2.6,0-5-1.8-5-5.5c0-3.6,2.4-5.4,5-5.4
		c2,0,3.1,1.1,3.5,1.7V166.7z M116.4,179.7c0,2.2,1.2,3.9,3.4,3.9c2.2,0,3.4-1.8,3.4-3.9c0-2.7-1.8-3.8-3.4-3.8
		C118,175.9,116.4,177.2,116.4,179.7z"/>
	<path class="st1" d="M137.5,182.3c-0.3,0.6-0.8,1.2-1.3,1.7c-0.9,0.8-2.1,1.3-3.4,1.3c-2.5,0-5.1-1.6-5.1-5.4c0-3.1,1.9-5.5,5-5.5
		c2,0,3.3,1,3.9,1.9c0.6,0.9,1,2.5,1,3.9h-8.1c0,2.1,1.5,3.5,3.3,3.5c0.9,0,1.5-0.2,2.1-0.8c0.5-0.4,0.9-0.9,1.1-1.4L137.5,182.3z
		 M135.8,178.6c-0.3-1.6-1.5-2.7-3-2.7c-1.5,0-2.8,1.1-3,2.7H135.8z"/>
	<path class="st1" d="M142.2,166.7v18.2h-1.8v-18.2H142.2z"/>
	<path class="st1" d="M146.5,169.3c0.7,0,1.3,0.6,1.3,1.3c0,0.7-0.6,1.3-1.3,1.3c-0.7,0-1.3-0.6-1.3-1.3
		C145.2,169.9,145.8,169.3,146.5,169.3z M147.4,174.5v10.4h-1.8v-10.4H147.4z"/>
	<path class="st1" d="M150.8,174.5h1.8v1.2c0.3-0.4,1.2-1.4,3-1.4c1.2,0,2.3,0.5,3,1.4c0.5,0.8,0.6,1.6,0.6,2.8v6.4h-1.8v-6.4
		c0-0.6-0.1-1.3-0.5-1.9c-0.3-0.4-0.9-0.7-1.7-0.7c-0.6,0-1.3,0.2-1.8,0.8c-0.7,0.8-0.8,2-0.8,2.8v5.4h-1.8V174.5z"/>
	<path class="st1" d="M170.4,174.5h1.8v10.1c0,1.1,0,2.7-1,4.1c-0.8,1-2.2,1.9-4.1,1.9c-1.8,0-3-0.7-3.7-1.4
		c-0.7-0.7-1.4-1.8-1.4-3.3h1.8c0,0.9,0.3,1.6,0.8,2.1c0.7,0.8,1.7,1,2.5,1c1.3,0,2.1-0.5,2.7-1.5c0.5-0.8,0.6-1.8,0.6-2.6v-1.5
		c-0.6,0.8-1.7,1.7-3.5,1.7c-1.5,0-2.7-0.6-3.5-1.4c-0.7-0.7-1.5-2-1.5-4.1c0-2,0.8-3.3,1.5-4c0.9-0.8,2.1-1.4,3.5-1.4
		c1.5,0,2.7,0.6,3.5,1.7V174.5z M164.8,176.9c-0.9,0.9-1,2-1,2.8c0,0.9,0.2,2.1,1.2,3c0.6,0.5,1.3,0.8,2.2,0.8s1.7-0.3,2.3-0.9
		c0.7-0.7,1.2-1.8,1.2-3s-0.4-2.3-1.1-2.9c-0.6-0.6-1.4-0.9-2.3-0.9C166,175.9,165.3,176.4,164.8,176.9z"/>
	<path class="st1" d="M183.3,190.7h-1.8v-16.1h1.8v1.4c1.2-1.5,2.8-1.7,3.5-1.7c3.2,0,5,2.7,5,5.5c0,2.8-1.8,5.4-5,5.4
		c-1.7,0-2.8-0.8-3.6-1.7V190.7z M190,179.8c0-2.5-1.7-3.9-3.4-3.9c-1.7,0-3.4,1.4-3.4,3.9c0,2.1,1.4,3.8,3.5,3.8
		C188.7,183.6,190,181.9,190,179.8z"/>
	<path class="st1" d="M202.6,174.5h1.8v10.4h-1.8v-1.4c-0.6,0.8-1.7,1.7-3.5,1.7c-2.6,0-5-1.8-5-5.5c0-3.6,2.4-5.4,5-5.4
		c2,0,3.1,1.1,3.5,1.7V174.5z M195.8,179.7c0,2.2,1.2,3.9,3.4,3.9c2.2,0,3.4-1.8,3.4-3.9c0-2.7-1.8-3.8-3.4-3.8
		C197.4,175.9,195.8,177.2,195.8,179.7z M199.6,168.2c1.2,0,2.1,1,2.1,2.1s-1,2.1-2.1,2.1s-2.1-1-2.1-2.1S198.4,168.2,199.6,168.2z
		 M199.6,171.4c0.5,0,1-0.5,1-1s-0.5-1-1-1s-1,0.5-1,1S199.1,171.4,199.6,171.4z"/>
	<path class="st1" d="M213.6,174.5h1.8v1.2c0.3-0.4,1.2-1.4,3-1.4c1.2,0,2.3,0.5,3,1.4c0.5,0.8,0.6,1.6,0.6,2.8v6.4h-1.8v-6.4
		c0-0.6,0-1.3-0.5-1.9c-0.3-0.4-0.9-0.7-1.7-0.7c-0.6,0-1.3,0.2-1.8,0.8c-0.7,0.8-0.8,2-0.8,2.8v5.4h-1.8V174.5z"/>
	<path class="st1" d="M234.5,182.3c-0.3,0.6-0.8,1.2-1.3,1.7c-0.9,0.8-2.1,1.3-3.4,1.3c-2.5,0-5.1-1.6-5.1-5.4c0-3.1,1.9-5.5,5-5.5
		c2,0,3.3,1,3.9,1.9c0.6,0.9,1,2.5,1,3.9h-8.1c0,2.1,1.5,3.5,3.3,3.5c0.8,0,1.5-0.2,2.1-0.8c0.5-0.4,0.9-0.9,1.1-1.4L234.5,182.3z
		 M232.8,178.6c-0.3-1.6-1.5-2.7-3-2.7c-1.5,0-2.8,1.1-3,2.7H232.8z"/>
	<path class="st1" d="M239.2,176.2v8.7h-1.8v-8.7h-1.1v-1.6h1.1v-3.7h1.8v3.7h1.8v1.6H239.2z"/>
	<path class="st1" d="M245.1,176.2v8.7h-1.8v-8.7h-1.1v-1.6h1.1v-3.7h1.8v3.7h1.8v1.6H245.1z"/>
	<path class="st1" d="M257.8,182.3c-0.3,0.6-0.8,1.2-1.3,1.7c-0.9,0.8-2.1,1.3-3.4,1.3c-2.5,0-5.1-1.6-5.1-5.4c0-3.1,1.9-5.5,5-5.5
		c2,0,3.3,1,3.9,1.9c0.6,0.9,1,2.5,1,3.9h-8.1c0,2.1,1.5,3.5,3.3,3.5c0.8,0,1.5-0.2,2.1-0.8c0.5-0.4,0.9-0.9,1.1-1.4L257.8,182.3z
		 M256,178.6c-0.3-1.6-1.5-2.7-3-2.7c-1.5,0-2.8,1.1-3,2.7H256z"/>
	<path class="st1" d="M262.4,176.2v8.7h-1.8v-8.7h-1.1v-1.6h1.1v-3.7h1.8v3.7h1.8v1.6H262.4z"/>
	<path class="st1" d="M267.1,182.7c0.7,0,1.2,0.6,1.2,1.2s-0.6,1.2-1.2,1.2s-1.2-0.6-1.2-1.2S266.4,182.7,267.1,182.7z"/>
	<path class="st1" d="M279.8,168.2v16.7h-1.8v-16.7H279.8z"/>
	<path class="st1" d="M293.7,176.9c-0.2-0.6-0.8-1-1.4-1c-0.6,0-1.2,0.4-1.2,1.2c0,0.7,0.5,1,1.7,1.5c1.5,0.6,2.2,1.1,2.6,1.6
		c0.4,0.5,0.5,1.1,0.5,1.7c0,2.2-1.6,3.4-3.6,3.4c-0.4,0-2.7,0-3.6-2.6l1.5-0.6c0.2,0.5,0.8,1.7,2.1,1.7c1.2,0,1.7-0.9,1.7-1.6
		c0-1-0.7-1.3-1.7-1.7c-1.2-0.5-2-1-2.5-1.5c-0.4-0.5-0.5-1-0.5-1.5c0-1.8,1.3-2.9,3-2.9c0.6,0,2,0.1,2.8,1.9L293.7,176.9z"/>
	<path class="st1" d="M300,190.7h-1.8v-16.1h1.8v1.4c1.2-1.5,2.8-1.7,3.5-1.7c3.2,0,5,2.7,5,5.5c0,2.8-1.8,5.4-5,5.4
		c-1.7,0-2.8-0.8-3.6-1.7V190.7z M306.8,179.8c0-2.5-1.7-3.9-3.4-3.9c-1.7,0-3.4,1.4-3.4,3.9c0,2.1,1.3,3.8,3.5,3.8
		C305.5,183.6,306.8,181.9,306.8,179.8z"/>
	<path class="st1" d="M312.3,169.3c0.7,0,1.3,0.6,1.3,1.3c0,0.7-0.6,1.3-1.3,1.3c-0.7,0-1.3-0.6-1.3-1.3
		C311,169.9,311.6,169.3,312.3,169.3z M313.2,174.5v10.4h-1.8v-10.4H313.2z"/>
	<path class="st1" d="M318.4,166.7v18.2h-1.8v-18.2H318.4z"/>
	<path class="st1" d="M323.6,166.7v18.2h-1.8v-18.2H323.6z"/>
	<path class="st1" d="M336.2,182.3c-0.3,0.6-0.8,1.2-1.3,1.7c-0.9,0.8-2.1,1.3-3.4,1.3c-2.5,0-5.1-1.6-5.1-5.4c0-3.1,1.9-5.5,5-5.5
		c2,0,3.3,1,3.9,1.9c0.7,0.9,1,2.5,1,3.9h-8.1c0,2.1,1.5,3.5,3.3,3.5c0.8,0,1.5-0.2,2.1-0.8c0.5-0.4,0.9-0.9,1.1-1.4L336.2,182.3z
		 M334.4,178.6c-0.3-1.6-1.5-2.7-3-2.7c-1.5,0-2.8,1.1-3,2.7H334.4z"/>
	<path class="st1" d="M340.9,176.2v8.7h-1.8v-8.7H338v-1.6h1.1v-3.7h1.8v3.7h1.8v1.6H340.9z"/>
	<path class="st1" d="M350.2,174.5h1.8v1.1c0.6-0.8,1.5-1.3,2.6-1.3c1.9,0,2.6,1.3,2.8,1.7c1-1.6,2.4-1.7,3.1-1.7
		c3.1,0,3.4,2.6,3.4,4v6.6h-1.8v-6.3c0-1.2-0.2-2.7-1.8-2.7c-2.1,0-2.3,2-2.3,3.2v5.8h-1.8v-6.1c0-0.7,0-2.9-1.9-2.9
		c-2,0-2.3,2.1-2.3,3.4v5.6h-1.8V174.5z"/>
	<path class="st1" d="M366.7,179.8c0-3.1,2.3-5.5,5.5-5.5c3.2,0,5.5,2.3,5.5,5.5c0,3.1-2.3,5.4-5.5,5.4
		C369,185.2,366.7,182.9,366.7,179.8z M368.5,179.8c0,2.5,1.8,3.8,3.6,3.8c1.9,0,3.6-1.3,3.6-3.8c0-2.5-1.7-3.9-3.6-3.9
		C370.3,175.9,368.5,177.2,368.5,179.8z"/>
	<path class="st1" d="M388.4,166.7h1.8v18.2h-1.8v-1.4c-0.6,0.8-1.7,1.7-3.5,1.7c-2.6,0-5-1.8-5-5.5c0-3.6,2.4-5.4,5-5.4
		c2,0,3.1,1.1,3.5,1.7V166.7z M381.6,179.7c0,2.2,1.2,3.9,3.4,3.9c2.2,0,3.4-1.8,3.4-3.9c0-2.7-1.8-3.8-3.4-3.8
		C383.2,175.9,381.6,177.2,381.6,179.7z"/>
	<path class="st1" d="M395.4,176.2v8.7h-1.8v-8.7h-1.1v-1.6h1.1v-3.7h1.8v3.7h1.8v1.6H395.4z"/>
	<path class="st1" d="M406.9,174.5h1.8v10.4h-1.8v-1.4c-0.6,0.8-1.7,1.7-3.5,1.7c-2.6,0-5-1.8-5-5.5c0-3.6,2.4-5.4,5-5.4
		c2,0,3.1,1.1,3.5,1.7V174.5z M400.1,179.7c0,2.2,1.2,3.9,3.4,3.9c2.2,0,3.4-1.8,3.4-3.9c0-2.7-1.8-3.8-3.4-3.8
		C401.7,175.9,400.1,177.2,400.1,179.7z"/>
	<path class="st1" d="M420,174.5h1.8v10.1c0,1.1,0,2.7-1,4.1c-0.8,1-2.2,1.9-4.1,1.9c-1.8,0-3-0.7-3.7-1.4c-0.7-0.7-1.3-1.8-1.3-3.3
		h1.8c0,0.9,0.3,1.6,0.8,2.1c0.8,0.8,1.7,1,2.5,1c1.3,0,2.1-0.5,2.8-1.5c0.5-0.8,0.6-1.8,0.6-2.6v-1.5c-0.6,0.8-1.7,1.7-3.5,1.7
		c-1.5,0-2.7-0.6-3.5-1.4c-0.7-0.7-1.5-2-1.5-4.1c0-2,0.8-3.3,1.5-4c0.9-0.8,2.1-1.4,3.5-1.4c1.5,0,2.7,0.6,3.5,1.7V174.5z
		 M414.3,176.9c-0.9,0.9-1,2-1,2.8c0,0.9,0.2,2.1,1.2,3c0.6,0.5,1.3,0.8,2.2,0.8c0.9,0,1.7-0.3,2.3-0.9c0.7-0.7,1.2-1.8,1.2-3
		s-0.5-2.3-1.1-2.9c-0.6-0.6-1.4-0.9-2.3-0.9C415.6,175.9,414.8,176.4,414.3,176.9z"/>
	<path class="st1" d="M434.4,182.3c-0.3,0.6-0.8,1.2-1.3,1.7c-1,0.8-2.1,1.3-3.4,1.3c-2.5,0-5.1-1.6-5.1-5.4c0-3.1,1.9-5.5,5-5.5
		c2,0,3.3,1,3.9,1.9c0.6,0.9,1,2.5,1,3.9h-8.1c0,2.1,1.5,3.5,3.3,3.5c0.8,0,1.5-0.2,2.1-0.8c0.5-0.4,0.8-0.9,1.1-1.4L434.4,182.3z
		 M432.6,178.6c-0.3-1.6-1.5-2.7-3-2.7s-2.8,1.1-3,2.7H432.6z"/>
	<path class="st1" d="M437.2,174.5h1.8v1.1c0.2-0.3,1-1.4,2.3-1.4c0.5,0,1.1,0.2,1.6,0.4l-0.8,1.6c-0.4-0.3-0.8-0.3-1-0.3
		c-0.7,0-1.2,0.3-1.5,0.6c-0.3,0.4-0.6,1.1-0.6,2.8v5.5h-1.8V174.5z"/>
	<path class="st1" d="M458.4,166.7h1.8v18.2h-1.8v-1.4c-0.6,0.8-1.7,1.7-3.5,1.7c-2.6,0-5-1.8-5-5.5c0-3.6,2.4-5.4,5-5.4
		c2,0,3.1,1.1,3.5,1.7V166.7z M451.7,179.7c0,2.2,1.2,3.9,3.4,3.9c2.2,0,3.4-1.8,3.4-3.9c0-2.7-1.8-3.8-3.4-3.8
		C453.3,175.9,451.7,177.2,451.7,179.7z"/>
	<path class="st1" d="M465.4,180.6c0,0.7,0,1.6,0.5,2.2c0.3,0.3,0.8,0.8,1.8,0.8c1,0,1.5-0.5,1.8-0.8c0.5-0.6,0.5-1.5,0.5-2.2v-6
		h1.8v6.2c0,1.3-0.1,2.2-0.9,3.1c-0.9,1-2.1,1.3-3.2,1.3c-1,0-2.2-0.3-3.2-1.3c-0.8-0.9-1-1.8-1-3.1v-6.2h1.8V180.6z"/>
	<path class="st1" d="M482.9,176.2v8.7h-1.8v-8.7H480v-1.6h1.1v-3.7h1.8v3.7h1.8v1.6H482.9z"/>
	<path class="st1" d="M486.4,174.5h1.8v1.1c0.2-0.3,1-1.4,2.3-1.4c0.5,0,1.1,0.2,1.6,0.4l-0.8,1.6c-0.4-0.3-0.8-0.3-1-0.3
		c-0.7,0-1.2,0.3-1.5,0.6c-0.3,0.4-0.6,1.1-0.6,2.8v5.5h-1.8V174.5z"/>
	<path class="st1" d="M502.4,182.3c-0.3,0.6-0.8,1.2-1.3,1.7c-1,0.8-2.1,1.3-3.4,1.3c-2.5,0-5.1-1.6-5.1-5.4c0-3.1,1.9-5.5,5-5.5
		c2,0,3.3,1,3.9,1.9c0.7,0.9,1,2.5,1,3.9h-8.1c0,2.1,1.5,3.5,3.3,3.5c0.8,0,1.5-0.2,2.1-0.8c0.5-0.4,0.8-0.9,1.1-1.4L502.4,182.3z
		 M500.7,178.6c-0.3-1.6-1.5-2.7-3-2.7c-1.5,0-2.8,1.1-3,2.7H500.7z"/>
	<path class="st1" d="M512.9,184.9h-1.8v-18.2h1.8v9.3c1.2-1.5,2.8-1.7,3.5-1.7c3.2,0,5,2.7,5,5.5c0,2.8-1.8,5.4-5,5.4
		c-1.7,0-2.8-0.8-3.6-1.7V184.9z M519.6,179.8c0-2.5-1.7-3.9-3.4-3.9c-1.7,0-3.4,1.4-3.4,3.9c0,2.1,1.3,3.8,3.5,3.8
		C518.4,183.6,519.6,181.9,519.6,179.8z"/>
	<path class="st1" d="M533.4,182.3c-0.3,0.6-0.8,1.2-1.3,1.7c-1,0.8-2.1,1.3-3.4,1.3c-2.5,0-5.1-1.6-5.1-5.4c0-3.1,1.9-5.5,5-5.5
		c2,0,3.3,1,3.9,1.9c0.7,0.9,1,2.5,1,3.9h-8.1c0,2.1,1.5,3.5,3.3,3.5c0.8,0,1.5-0.2,2.1-0.8c0.5-0.4,0.8-0.9,1.1-1.4L533.4,182.3z
		 M531.7,178.6c-0.3-1.6-1.5-2.7-3-2.7c-1.5,0-2.8,1.1-3,2.7H531.7z"/>
	<path class="st1" d="M540.5,176.9c-0.2-0.6-0.8-1-1.5-1c-0.6,0-1.2,0.4-1.2,1.2c0,0.7,0.5,1,1.7,1.5c1.5,0.6,2.2,1.1,2.6,1.6
		c0.5,0.5,0.5,1.1,0.5,1.7c0,2.2-1.6,3.4-3.6,3.4c-0.4,0-2.7,0-3.6-2.6l1.5-0.6c0.2,0.5,0.8,1.7,2.1,1.7c1.2,0,1.7-0.9,1.7-1.6
		c0-1-0.7-1.3-1.7-1.7c-1.2-0.5-2-1-2.5-1.5c-0.4-0.5-0.5-1-0.5-1.5c0-1.8,1.3-2.9,3-2.9c0.5,0,2,0.1,2.8,1.9L540.5,176.9z"/>
	<path class="st1" d="M546.9,166.7v11.7l3.8-3.8h2.3l-4.4,4.4l5.2,5.9h-2.3l-4.1-4.7l-0.5,0.4v4.3h-1.8v-18.2H546.9z"/>
	<path class="st1" d="M564.6,182.3c-0.3,0.6-0.8,1.2-1.3,1.7c-1,0.8-2.1,1.3-3.4,1.3c-2.5,0-5.1-1.6-5.1-5.4c0-3.1,1.9-5.5,5-5.5
		c2,0,3.3,1,3.9,1.9c0.6,0.9,1,2.5,1,3.9h-8.1c0,2.1,1.5,3.5,3.3,3.5c0.8,0,1.5-0.2,2.1-0.8c0.5-0.4,0.8-0.9,1.1-1.4L564.6,182.3z
		 M562.8,178.6c-0.3-1.6-1.5-2.7-3-2.7s-2.8,1.1-3,2.7H562.8z"/>
	<path class="st1" d="M575.3,166.7h1.8v18.2h-1.8v-1.4c-0.6,0.8-1.7,1.7-3.5,1.7c-2.6,0-5-1.8-5-5.5c0-3.6,2.4-5.4,5-5.4
		c2,0,3.1,1.1,3.5,1.7V166.7z M568.6,179.7c0,2.2,1.2,3.9,3.4,3.9c2.2,0,3.4-1.8,3.4-3.9c0-2.7-1.8-3.8-3.4-3.8
		C570.2,175.9,568.6,177.2,568.6,179.7z"/>
	<path class="st1" d="M589.7,182.3c-0.3,0.6-0.8,1.2-1.3,1.7c-1,0.8-2.1,1.3-3.4,1.3c-2.5,0-5.1-1.6-5.1-5.4c0-3.1,1.9-5.5,5-5.5
		c2,0,3.3,1,3.9,1.9c0.6,0.9,1,2.5,1,3.9h-8.1c0,2.1,1.5,3.5,3.3,3.5c0.8,0,1.5-0.2,2.1-0.8c0.5-0.4,0.8-0.9,1.1-1.4L589.7,182.3z
		 M588,178.6c-0.3-1.6-1.5-2.7-3-2.7s-2.8,1.1-3,2.7H588z"/>
	<path class="st1" d="M592.6,174.5h1.8v1.1c0.2-0.3,1-1.4,2.3-1.4c0.5,0,1.1,0.2,1.6,0.4l-0.8,1.6c-0.4-0.3-0.8-0.3-1-0.3
		c-0.7,0-1.2,0.3-1.5,0.6c-0.3,0.4-0.6,1.1-0.6,2.8v5.5h-1.8V174.5z"/>
	<path class="st1" d="M61.3,204.5h1.8v1.1c0.6-0.8,1.5-1.3,2.6-1.3c1.9,0,2.6,1.3,2.8,1.7c1-1.6,2.4-1.7,3.1-1.7
		c3.1,0,3.4,2.6,3.4,4v6.6h-1.8v-6.3c0-1.2-0.1-2.7-1.8-2.7c-2.1,0-2.3,2-2.3,3.2v5.8h-1.8v-6.1c0-0.7,0-2.9-1.9-2.9
		c-2,0-2.3,2.1-2.3,3.4v5.6h-1.8V204.5z"/>
	<path class="st1" d="M87.6,212.3c-0.3,0.6-0.8,1.2-1.3,1.7c-0.9,0.8-2.1,1.3-3.4,1.3c-2.5,0-5.1-1.6-5.1-5.4c0-3.1,1.9-5.5,5-5.5
		c2,0,3.3,1,3.9,1.9c0.6,0.9,1,2.5,1,3.9h-8.1c0,2.1,1.5,3.5,3.3,3.5c0.9,0,1.5-0.2,2.1-0.8c0.5-0.4,0.9-0.9,1.1-1.4L87.6,212.3z
		 M85.8,208.6c-0.3-1.6-1.5-2.7-3-2.7c-1.5,0-2.8,1.1-3,2.7H85.8z"/>
	<path class="st1" d="M98.4,196.7h1.8v18.2h-1.8v-1.4c-0.6,0.8-1.7,1.7-3.5,1.7c-2.6,0-5-1.8-5-5.5c0-3.6,2.4-5.4,5-5.4
		c2,0,3.1,1.1,3.5,1.7V196.7z M91.6,209.7c0,2.2,1.2,3.9,3.4,3.9c2.2,0,3.4-1.8,3.4-3.9c0-2.7-1.8-3.8-3.4-3.8
		C93.2,205.9,91.6,207.2,91.6,209.7z"/>
	<path class="st1" d="M118.6,212.3c-0.3,0.6-0.8,1.2-1.3,1.7c-0.9,0.8-2.1,1.3-3.4,1.3c-2.5,0-5.1-1.6-5.1-5.4c0-3.1,1.9-5.5,5-5.5
		c2,0,3.3,1,3.9,1.9c0.6,0.9,1,2.5,1,3.9h-8.1c0,2.1,1.5,3.5,3.3,3.5c0.9,0,1.5-0.2,2.1-0.8c0.5-0.4,0.9-0.9,1.1-1.4L118.6,212.3z
		 M116.8,208.6c-0.3-1.6-1.5-2.7-3-2.7c-1.5,0-2.8,1.1-3,2.7H116.8z"/>
	<path class="st1" d="M123.3,206.2v8.7h-1.8v-8.7h-1.1v-1.6h1.1v-3.7h1.8v3.7h1.8v1.6H123.3z"/>
	<path class="st1" d="M132.6,204.5h1.8v1.2c0.3-0.4,1.2-1.4,3-1.4c1.2,0,2.3,0.5,3,1.4c0.5,0.8,0.6,1.6,0.6,2.8v6.4h-1.8v-6.4
		c0-0.6,0-1.3-0.5-1.9c-0.3-0.4-0.9-0.7-1.7-0.7c-0.6,0-1.3,0.2-1.8,0.8c-0.7,0.8-0.8,2-0.8,2.8v5.4h-1.8V204.5z"/>
	<path class="st1" d="M153.6,206.4c0.5,0.6,1.1,1.6,1.1,3.4c0,3.2-2.3,5.4-5.5,5.4c-1.7,0-2.8-0.6-3.3-1l-1.5,1.5l-1.1-1.1l1.5-1.5
		c-0.4-0.5-1-1.5-1-3.3c0-3.2,2.3-5.5,5.5-5.5c1.7,0,2.7,0.6,3.2,1l1.5-1.5l1.1,1.1L153.6,206.4z M151.2,206.5
		c-0.6-0.4-1.2-0.6-2-0.6c-1.9,0-3.6,1.3-3.6,3.9c0,0.8,0.2,1.5,0.5,2L151.2,206.5z M147.1,213c0.5,0.4,1.2,0.6,2.1,0.6
		c1.9,0,3.6-1.3,3.6-3.8c0-0.8-0.2-1.5-0.6-2.1L147.1,213z"/>
	<path class="st1" d="M165.4,204.5h1.8v10.1c0,1.1,0,2.7-1,4.1c-0.8,1-2.2,1.9-4.1,1.9c-1.8,0-3-0.7-3.7-1.4
		c-0.7-0.7-1.3-1.8-1.3-3.3h1.8c0,0.9,0.3,1.6,0.8,2.1c0.7,0.8,1.7,1,2.5,1c1.3,0,2.1-0.5,2.7-1.5c0.5-0.8,0.6-1.8,0.6-2.6v-1.5
		c-0.6,0.8-1.7,1.7-3.5,1.7c-1.5,0-2.7-0.6-3.5-1.4c-0.7-0.7-1.5-2-1.5-4.1c0-2,0.7-3.3,1.5-4c0.9-0.8,2.1-1.4,3.5-1.4
		c1.5,0,2.7,0.6,3.5,1.7V204.5z M159.7,206.9c-0.9,0.9-1,2-1,2.8c0,0.9,0.2,2.1,1.2,3c0.6,0.5,1.3,0.8,2.2,0.8s1.7-0.3,2.3-0.9
		c0.7-0.7,1.2-1.8,1.2-3s-0.4-2.3-1.1-2.9c-0.6-0.6-1.4-0.9-2.3-0.9C160.9,205.9,160.2,206.4,159.7,206.9z"/>
	<path class="st1" d="M179.8,212.3c-0.3,0.6-0.8,1.2-1.3,1.7c-0.9,0.8-2.1,1.3-3.4,1.3c-2.5,0-5.1-1.6-5.1-5.4c0-3.1,1.9-5.5,5-5.5
		c2,0,3.3,1,3.9,1.9c0.6,0.9,1,2.5,1,3.9h-8.1c0,2.1,1.5,3.5,3.3,3.5c0.8,0,1.5-0.2,2.1-0.8c0.5-0.4,0.9-0.9,1.1-1.4L179.8,212.3z
		 M178,208.6c-0.3-1.6-1.5-2.7-3-2.7c-1.5,0-2.8,1.1-3,2.7H178z"/>
	<path class="st1" d="M182.6,204.5h1.8v1.2c0.3-0.4,1.2-1.4,3-1.4c1.2,0,2.3,0.5,3,1.4c0.5,0.8,0.6,1.6,0.6,2.8v6.4h-1.8v-6.4
		c0-0.6,0-1.3-0.5-1.9c-0.3-0.4-0.9-0.7-1.7-0.7c-0.6,0-1.3,0.2-1.8,0.8c-0.7,0.8-0.8,2-0.8,2.8v5.4h-1.8V204.5z"/>
	<path class="st1" d="M196.2,214.9h-1.8v-18.2h1.8v9.3c1.2-1.5,2.8-1.7,3.5-1.7c3.2,0,5,2.7,5,5.5c0,2.8-1.8,5.4-5,5.4
		c-1.7,0-2.8-0.8-3.6-1.7V214.9z M202.9,209.8c0-2.5-1.7-3.9-3.4-3.9c-1.7,0-3.4,1.4-3.4,3.9c0,2.1,1.4,3.8,3.5,3.8
		C201.6,213.6,202.9,211.9,202.9,209.8z"/>
	<path class="st1" d="M208.4,199.3c0.7,0,1.3,0.6,1.3,1.3c0,0.7-0.6,1.3-1.3,1.3c-0.7,0-1.3-0.6-1.3-1.3
		C207.1,199.9,207.7,199.3,208.4,199.3z M209.3,204.5v10.4h-1.8v-10.4H209.3z"/>
	<path class="st1" d="M214.5,196.7v18.2h-1.8v-18.2H214.5z"/>
	<path class="st1" d="M219.7,196.7v18.2h-1.8v-18.2H219.7z"/>
	<path class="st1" d="M232.3,212.3c-0.3,0.6-0.8,1.2-1.3,1.7c-0.9,0.8-2.1,1.3-3.4,1.3c-2.5,0-5.1-1.6-5.1-5.4c0-3.1,1.9-5.5,5-5.5
		c2,0,3.3,1,3.9,1.9c0.6,0.9,1,2.5,1,3.9h-8.1c0,2.1,1.5,3.5,3.3,3.5c0.9,0,1.5-0.2,2.1-0.8c0.5-0.4,0.9-0.9,1.1-1.4L232.3,212.3z
		 M230.5,208.6c-0.3-1.6-1.5-2.7-3-2.7c-1.5,0-2.8,1.1-3,2.7H230.5z"/>
	<path class="st1" d="M243.1,196.7h1.8v18.2h-1.8v-1.4c-0.6,0.8-1.7,1.7-3.5,1.7c-2.6,0-5-1.8-5-5.5c0-3.6,2.4-5.4,5-5.4
		c2,0,3.1,1.1,3.5,1.7V196.7z M236.3,209.7c0,2.2,1.2,3.9,3.4,3.9c2.2,0,3.4-1.8,3.4-3.9c0-2.7-1.8-3.8-3.4-3.8
		C237.9,205.9,236.3,207.2,236.3,209.7z"/>
	<path class="st1" d="M257.5,212.3c-0.3,0.6-0.8,1.2-1.3,1.7c-0.9,0.8-2.1,1.3-3.4,1.3c-2.5,0-5.1-1.6-5.1-5.4c0-3.1,1.9-5.5,5-5.5
		c2,0,3.3,1,3.9,1.9c0.6,0.9,1,2.5,1,3.9h-8.1c0,2.1,1.5,3.5,3.3,3.5c0.8,0,1.5-0.2,2.1-0.8c0.5-0.4,0.9-0.9,1.1-1.4L257.5,212.3z
		 M255.7,208.6c-0.3-1.6-1.5-2.7-3-2.7c-1.5,0-2.8,1.1-3,2.7H255.7z"/>
	<path class="st1" d="M265.5,209.8c0-3.1,2.3-5.5,5.5-5.5s5.5,2.3,5.5,5.5c0,3.1-2.3,5.4-5.5,5.4S265.5,212.9,265.5,209.8z
		 M267.3,209.8c0,2.5,1.8,3.8,3.6,3.8c1.9,0,3.6-1.3,3.6-3.8c0-2.5-1.8-3.9-3.6-3.9S267.3,207.2,267.3,209.8z"/>
	<path class="st1" d="M287.2,204.5h1.8v10.1c0,1.1,0,2.7-1,4.1c-0.8,1-2.2,1.9-4.1,1.9c-1.8,0-3-0.7-3.7-1.4
		c-0.7-0.7-1.3-1.8-1.3-3.3h1.8c0,0.9,0.3,1.6,0.8,2.1c0.7,0.8,1.7,1,2.5,1c1.3,0,2.1-0.5,2.7-1.5c0.5-0.8,0.6-1.8,0.6-2.6v-1.5
		c-0.6,0.8-1.7,1.7-3.5,1.7c-1.5,0-2.7-0.6-3.5-1.4c-0.7-0.7-1.5-2-1.5-4.1c0-2,0.7-3.3,1.5-4c0.9-0.8,2.1-1.4,3.5-1.4
		c1.5,0,2.7,0.6,3.5,1.7V204.5z M281.5,206.9c-0.9,0.9-1,2-1,2.8c0,0.9,0.2,2.1,1.2,3c0.6,0.5,1.3,0.8,2.2,0.8s1.7-0.3,2.3-0.9
		c0.7-0.7,1.2-1.8,1.2-3s-0.4-2.3-1.1-2.9c-0.6-0.6-1.4-0.9-2.3-0.9C282.7,205.9,282,206.4,281.5,206.9z"/>
	<path class="st1" d="M302.5,206.9c-0.2-0.6-0.8-1-1.4-1c-0.6,0-1.2,0.4-1.2,1.2c0,0.7,0.5,1,1.7,1.5c1.5,0.6,2.2,1.1,2.6,1.6
		c0.4,0.5,0.5,1.1,0.5,1.7c0,2.2-1.6,3.4-3.6,3.4c-0.4,0-2.7,0-3.6-2.6l1.5-0.6c0.2,0.5,0.8,1.7,2.1,1.7c1.2,0,1.7-0.9,1.7-1.6
		c0-1-0.7-1.3-1.7-1.7c-1.2-0.5-2-1-2.5-1.5c-0.4-0.5-0.5-1-0.5-1.5c0-1.8,1.3-2.9,3-2.9c0.6,0,2,0.1,2.8,1.9L302.5,206.9z"/>
	<path class="st1" d="M308.8,196.7v11.7l3.8-3.8h2.3l-4.4,4.4l5.2,5.9h-2.3l-4.1-4.7l-0.5,0.4v4.3H307v-18.2H308.8z"/>
	<path class="st1" d="M325.5,204.5h1.8v10.4h-1.8v-1.4c-0.6,0.8-1.7,1.7-3.5,1.7c-2.6,0-5-1.8-5-5.5c0-3.6,2.4-5.4,5-5.4
		c2,0,3.1,1.1,3.5,1.7V204.5z M318.7,209.7c0,2.2,1.2,3.9,3.4,3.9c2.2,0,3.4-1.8,3.4-3.9c0-2.7-1.8-3.8-3.4-3.8
		C320.4,205.9,318.7,207.2,318.7,209.7z"/>
	<path class="st1" d="M332.5,196.7v18.2h-1.8v-18.2H332.5z"/>
	<path class="st1" d="M341.7,196.7h1.8v9c0.3-0.4,1.2-1.4,3-1.4c1.2,0,2.3,0.5,3,1.4c0.5,0.8,0.6,1.6,0.6,2.8v6.4h-1.8v-6.4
		c0-0.6,0-1.3-0.5-1.9c-0.3-0.4-0.9-0.7-1.7-0.7c-0.6,0-1.3,0.2-1.8,0.8c-0.7,0.8-0.8,2-0.8,2.8v5.4h-1.8V196.7z"/>
	<path class="st1" d="M362.4,212.3c-0.3,0.6-0.7,1.2-1.3,1.7c-0.9,0.8-2.1,1.3-3.4,1.3c-2.5,0-5.1-1.6-5.1-5.4c0-3.1,1.9-5.5,5-5.5
		c2,0,3.3,1,3.9,1.9c0.6,0.9,1,2.5,1,3.9h-8.1c0,2.1,1.5,3.5,3.3,3.5c0.8,0,1.5-0.2,2.1-0.8c0.5-0.4,0.8-0.9,1.1-1.4L362.4,212.3z
		 M360.6,208.6c-0.3-1.6-1.5-2.7-3-2.7s-2.8,1.1-3,2.7H360.6z"/>
	<path class="st1" d="M365.2,204.5h1.8v1.1c0.2-0.3,1-1.4,2.3-1.4c0.5,0,1.1,0.2,1.6,0.4l-0.8,1.6c-0.4-0.3-0.8-0.3-1-0.3
		c-0.7,0-1.2,0.3-1.5,0.6c-0.3,0.4-0.6,1.1-0.6,2.8v5.5h-1.8V204.5z"/>
	<path class="st1" d="M381.2,212.3c-0.3,0.6-0.8,1.2-1.3,1.7c-1,0.8-2.1,1.3-3.4,1.3c-2.5,0-5.1-1.6-5.1-5.4c0-3.1,1.9-5.5,5-5.5
		c2,0,3.3,1,3.9,1.9c0.7,0.9,1,2.5,1,3.9h-8.1c0,2.1,1.5,3.5,3.3,3.5c0.8,0,1.5-0.2,2.1-0.8c0.5-0.4,0.8-0.9,1.1-1.4L381.2,212.3z
		 M379.5,208.6c-0.3-1.6-1.5-2.7-3-2.7c-1.5,0-2.8,1.1-3,2.7H379.5z"/>
	<path class="st1" d="M385.9,206.2v8.7h-1.8v-8.7h-1v-1.6h1V200c0-0.9,0.1-2.1,1-2.9c0.5-0.4,1.2-0.7,2.1-0.7c0.6,0,1.1,0.1,1.3,0.2
		v1.8c-0.4-0.2-0.8-0.2-1.2-0.2c-0.4,0-0.9,0.1-1.1,0.5c-0.2,0.4-0.2,1-0.2,1.5v4.3h2.5v1.6H385.9z"/>
	<path class="st1" d="M392.4,206.2v8.7h-1.8v-8.7h-1.1v-1.6h1.1v-3.7h1.8v3.7h1.8v1.6H392.4z"/>
	<path class="st1" d="M405.1,212.3c-0.3,0.6-0.8,1.2-1.3,1.7c-1,0.8-2.1,1.3-3.4,1.3c-2.5,0-5.1-1.6-5.1-5.4c0-3.1,1.9-5.5,5-5.5
		c2,0,3.3,1,3.9,1.9c0.6,0.9,1,2.5,1,3.9h-8.1c0,2.1,1.5,3.5,3.3,3.5c0.8,0,1.5-0.2,2.1-0.8c0.5-0.4,0.8-0.9,1.1-1.4L405.1,212.3z
		 M403.3,208.6c-0.3-1.6-1.5-2.7-3-2.7s-2.8,1.1-3,2.7H403.3z"/>
	<path class="st1" d="M407.9,204.5h1.8v1.1c0.2-0.3,1-1.4,2.3-1.4c0.5,0,1.1,0.2,1.6,0.4l-0.8,1.6c-0.4-0.3-0.8-0.3-1-0.3
		c-0.7,0-1.2,0.3-1.5,0.6c-0.3,0.4-0.6,1.1-0.6,2.8v5.5h-1.8V204.5z"/>
	<path class="st1" d="M421.7,204.5l3.1,7l3.1-7h2l-5.1,11l-5.1-11H421.7z"/>
	<path class="st1" d="M448.2,212.3c-0.7,1.3-2.1,2.9-4.7,2.9c-0.9,0-2.8-0.1-4.1-2.1c-1,1.8-2.8,2.1-3.9,2.1c-2.4,0-4.5-1.1-4.5-3.4
		c0-2.2,1.9-3.4,4.3-3.4c1.2,0,2.2,0.3,3,0.9c0-0.6-0.1-1.5-0.5-2.2c-0.5-0.9-1.4-1.2-2.5-1.2c-1.2,0-2.6,0.4-3.2,0.6v-1.7
		c1.4-0.5,2.4-0.5,3.2-0.5c1.1,0,3,0.2,3.9,2.1c0.8-1.4,2.3-2.1,4-2.1c3,0,4.9,2.2,4.9,5.6v0.2h-8.1c0.1,2,1.5,3.5,3.3,3.5
		c1.4,0,2.6-1,3.2-2.2L448.2,212.3z M432.9,211.8c0,0.8,0.5,1.8,2.6,1.8s2.8-1,2.8-1.8c0-0.7-0.7-1.7-2.7-1.7
		C433.8,210,432.9,210.8,432.9,211.8z M446.5,208.6c-0.2-1.7-1.5-2.7-3.1-2.7c-1.5,0-2.8,1-3,2.7H446.5z"/>
	<path class="st1" d="M452.9,196.7v18.2h-1.8v-18.2H452.9z"/>
	<path class="st1" d="M464.3,204.5h1.8v10.1c0,1.1,0,2.7-1,4.1c-0.8,1-2.2,1.9-4.1,1.9c-1.8,0-3-0.7-3.7-1.4
		c-0.7-0.7-1.3-1.8-1.3-3.3h1.8c0,0.9,0.3,1.6,0.8,2.1c0.8,0.8,1.7,1,2.5,1c1.3,0,2.1-0.5,2.8-1.5c0.5-0.8,0.6-1.8,0.6-2.6v-1.5
		c-0.6,0.8-1.7,1.7-3.5,1.7c-1.5,0-2.7-0.6-3.5-1.4c-0.7-0.7-1.5-2-1.5-4.1c0-2,0.8-3.3,1.5-4c0.9-0.8,2.1-1.4,3.5-1.4
		c1.5,0,2.7,0.6,3.5,1.7V204.5z M458.6,206.9c-0.9,0.9-1,2-1,2.8c0,0.9,0.2,2.1,1.2,3c0.6,0.5,1.3,0.8,2.2,0.8
		c0.9,0,1.7-0.3,2.3-0.9c0.7-0.7,1.2-1.8,1.2-3s-0.5-2.3-1.1-2.9c-0.6-0.6-1.4-0.9-2.3-0.9C459.8,205.9,459.1,206.4,458.6,206.9z"/>
	<path class="st1" d="M478.7,212.3c-0.3,0.6-0.8,1.2-1.3,1.7c-1,0.8-2.1,1.3-3.4,1.3c-2.5,0-5.1-1.6-5.1-5.4c0-3.1,1.9-5.5,5-5.5
		c2,0,3.3,1,3.9,1.9c0.6,0.9,1,2.5,1,3.9h-8.1c0,2.1,1.5,3.5,3.3,3.5c0.8,0,1.5-0.2,2.1-0.8c0.5-0.4,0.8-0.9,1.1-1.4L478.7,212.3z
		 M476.9,208.6c-0.3-1.6-1.5-2.7-3-2.7s-2.8,1.1-3,2.7H476.9z"/>
	<path class="st1" d="M486.7,209.8c0-3.1,2.3-5.5,5.5-5.5c3.2,0,5.5,2.3,5.5,5.5c0,3.1-2.3,5.4-5.5,5.4
		C489,215.2,486.7,212.9,486.7,209.8z M488.5,209.8c0,2.5,1.8,3.8,3.6,3.8c1.9,0,3.6-1.3,3.6-3.8c0-2.5-1.7-3.9-3.6-3.9
		C490.3,205.9,488.5,207.2,488.5,209.8z"/>
	<path class="st1" d="M500.4,204.5h1.8v1.1c0.6-0.8,1.5-1.3,2.6-1.3c1.9,0,2.6,1.3,2.8,1.7c1-1.6,2.4-1.7,3.1-1.7
		c3.1,0,3.4,2.6,3.4,4v6.6h-1.8v-6.3c0-1.2-0.2-2.7-1.8-2.7c-2.1,0-2.3,2-2.3,3.2v5.8h-1.8v-6.1c0-0.7,0-2.9-1.9-2.9
		c-2,0-2.3,2.1-2.3,3.4v5.6h-1.8V204.5z"/>
	<path class="st1" d="M531.3,196.7h1.8v18.2h-1.8v-1.4c-0.6,0.8-1.7,1.7-3.5,1.7c-2.6,0-5-1.8-5-5.5c0-3.6,2.4-5.4,5-5.4
		c2,0,3.1,1.1,3.5,1.7V196.7z M524.6,209.7c0,2.2,1.2,3.9,3.4,3.9c2.2,0,3.4-1.8,3.4-3.9c0-2.7-1.8-3.8-3.4-3.8
		C526.2,205.9,524.6,207.2,524.6,209.7z"/>
	<path class="st1" d="M538.3,210.6c0,0.7,0,1.6,0.5,2.2c0.3,0.3,0.8,0.8,1.8,0.8c1,0,1.5-0.5,1.8-0.8c0.5-0.6,0.5-1.5,0.5-2.2v-6
		h1.8v6.2c0,1.3-0.1,2.2-0.9,3.1c-0.9,1-2.1,1.3-3.2,1.3c-1,0-2.2-0.3-3.2-1.3c-0.8-0.9-1-1.8-1-3.1v-6.2h1.8V210.6z"/>
	<path class="st1" d="M554.5,204.5l3.1,7l3.1-7h2l-5.1,11l-5.1-11H554.5z"/>
	<path class="st1" d="M565.5,199.3c0.7,0,1.3,0.6,1.3,1.3c0,0.7-0.6,1.3-1.3,1.3c-0.7,0-1.3-0.6-1.3-1.3
		C564.2,199.9,564.8,199.3,565.5,199.3z M566.4,204.5v10.4h-1.8v-10.4H566.4z"/>
	<path class="st1" d="M571.6,196.7v18.2h-1.8v-18.2H571.6z"/>
	<path class="st1" d="M69.2,234.5H71v10.1c0,1.1,0,2.7-1,4.1c-0.8,1-2.2,1.9-4.1,1.9c-1.8,0-3-0.7-3.7-1.4c-0.7-0.7-1.4-1.8-1.4-3.3
		h1.8c0,0.9,0.3,1.6,0.8,2.1c0.7,0.8,1.7,1,2.5,1c1.3,0,2.1-0.5,2.7-1.5c0.5-0.8,0.6-1.8,0.6-2.6v-1.5c-0.6,0.8-1.7,1.7-3.5,1.7
		c-1.5,0-2.7-0.6-3.5-1.4c-0.7-0.7-1.5-2-1.5-4.1c0-2,0.8-3.3,1.5-4c0.9-0.8,2.1-1.4,3.5-1.4c1.5,0,2.7,0.6,3.5,1.7V234.5z
		 M63.5,236.9c-0.9,0.9-1,2-1,2.8c0,0.9,0.2,2.1,1.2,3c0.6,0.5,1.3,0.8,2.2,0.8s1.7-0.3,2.3-0.9c0.7-0.7,1.2-1.8,1.2-3
		s-0.4-2.3-1.1-2.9c-0.6-0.6-1.4-0.9-2.3-0.9C64.8,235.9,64,236.4,63.5,236.9z"/>
	<path class="st1" d="M83.6,242.3c-0.3,0.6-0.8,1.2-1.3,1.7c-0.9,0.8-2.1,1.3-3.4,1.3c-2.5,0-5.1-1.6-5.1-5.4c0-3.1,1.9-5.5,5-5.5
		c2,0,3.3,1,3.9,1.9c0.6,0.9,1,2.5,1,3.9h-8.1c0,2.1,1.5,3.5,3.3,3.5c0.9,0,1.5-0.2,2.1-0.8c0.5-0.4,0.9-0.9,1.1-1.4L83.6,242.3z
		 M81.8,238.6c-0.3-1.6-1.5-2.7-3-2.7c-1.5,0-2.8,1.1-3,2.7H81.8z"/>
	<path class="st1" d="M86.4,234.5h1.8v1.1c0.6-0.8,1.5-1.3,2.6-1.3c1.9,0,2.6,1.3,2.8,1.7c1-1.6,2.4-1.7,3.1-1.7
		c3.1,0,3.4,2.6,3.4,4v6.6h-1.8v-6.3c0-1.2-0.1-2.7-1.8-2.7c-2.1,0-2.3,2-2.3,3.2v5.8h-1.8v-6.1c0-0.7,0-2.9-1.9-2.9
		c-2,0-2.3,2.1-2.3,3.4v5.6h-1.8V234.5z"/>
	<path class="st1" d="M103.6,234.5h1.8v1.1c0.6-0.8,1.5-1.3,2.6-1.3c1.9,0,2.6,1.3,2.8,1.7c1-1.6,2.4-1.7,3.1-1.7
		c3.1,0,3.4,2.6,3.4,4v6.6h-1.8v-6.3c0-1.2-0.1-2.7-1.8-2.7c-2.1,0-2.3,2-2.3,3.2v5.8h-1.8v-6.1c0-0.7,0-2.9-1.9-2.9
		c-2,0-2.3,2.1-2.3,3.4v5.6h-1.8V234.5z"/>
	<path class="st1" d="M129.9,242.3c-0.3,0.6-0.8,1.2-1.3,1.7c-0.9,0.8-2.1,1.3-3.4,1.3c-2.5,0-5.1-1.6-5.1-5.4c0-3.1,1.9-5.5,5-5.5
		c2,0,3.3,1,3.9,1.9c0.6,0.9,1,2.5,1,3.9h-8.1c0,2.1,1.5,3.5,3.3,3.5c0.8,0,1.5-0.2,2.1-0.8c0.5-0.4,0.9-0.9,1.1-1.4L129.9,242.3z
		 M128.1,238.6c-0.3-1.6-1.5-2.7-3-2.7c-1.5,0-2.8,1.1-3,2.7H128.1z"/>
	<path class="st1" d="M140.3,244.9h-1.8v-18.2h1.8v9.3c1.2-1.5,2.8-1.7,3.5-1.7c3.2,0,5,2.7,5,5.5c0,2.8-1.8,5.4-5,5.4
		c-1.7,0-2.8-0.8-3.6-1.7V244.9z M147.1,239.8c0-2.5-1.7-3.9-3.4-3.9c-1.7,0-3.4,1.4-3.4,3.9c0,2.1,1.4,3.8,3.5,3.8
		C145.8,243.6,147.1,241.9,147.1,239.8z"/>
	<path class="st1" d="M160.9,242.3c-0.3,0.6-0.8,1.2-1.3,1.7c-0.9,0.8-2.1,1.3-3.4,1.3c-2.5,0-5.1-1.6-5.1-5.4c0-3.1,1.9-5.5,5-5.5
		c2,0,3.3,1,3.9,1.9c0.6,0.9,1,2.5,1,3.9h-8.1c0,2.1,1.5,3.5,3.3,3.5c0.8,0,1.5-0.2,2.1-0.8c0.5-0.4,0.9-0.9,1.1-1.4L160.9,242.3z
		 M159.1,238.6c-0.3-1.6-1.5-2.7-3-2.7c-1.5,0-2.8,1.1-3,2.7H159.1z"/>
	<path class="st1" d="M168,236.9c-0.2-0.6-0.8-1-1.4-1c-0.6,0-1.2,0.4-1.2,1.2c0,0.7,0.5,1,1.7,1.5c1.5,0.6,2.2,1.1,2.6,1.6
		c0.4,0.5,0.5,1.1,0.5,1.7c0,2.2-1.6,3.4-3.6,3.4c-0.4,0-2.7,0-3.6-2.6l1.5-0.6c0.2,0.5,0.8,1.7,2.1,1.7c1.2,0,1.7-0.9,1.7-1.6
		c0-1-0.7-1.3-1.7-1.7c-1.2-0.5-2-1-2.5-1.5c-0.4-0.5-0.5-1-0.5-1.5c0-1.8,1.3-2.9,3-2.9c0.6,0,2,0.1,2.8,1.9L168,236.9z"/>
	<path class="st1" d="M174.3,226.7v11.7l3.8-3.8h2.3L176,239l5.2,5.9h-2.3l-4.1-4.7l-0.5,0.4v4.3h-1.8v-18.2H174.3z"/>
	<path class="st1" d="M192,242.3c-0.3,0.6-0.8,1.2-1.3,1.7c-0.9,0.8-2.1,1.3-3.4,1.3c-2.5,0-5.1-1.6-5.1-5.4c0-3.1,1.9-5.5,5-5.5
		c2,0,3.3,1,3.9,1.9c0.6,0.9,1,2.5,1,3.9H184c0,2.1,1.5,3.5,3.3,3.5c0.9,0,1.5-0.2,2.1-0.8c0.5-0.4,0.9-0.9,1.1-1.4L192,242.3z
		 M190.2,238.6c-0.3-1.6-1.5-2.7-3-2.7c-1.5,0-2.8,1.1-3,2.7H190.2z"/>
	<path class="st1" d="M202.8,226.7h1.8v18.2h-1.8v-1.4c-0.6,0.8-1.7,1.7-3.5,1.7c-2.6,0-5-1.8-5-5.5c0-3.6,2.4-5.4,5-5.4
		c2,0,3.1,1.1,3.5,1.7V226.7z M196,239.7c0,2.2,1.2,3.9,3.4,3.9c2.2,0,3.4-1.8,3.4-3.9c0-2.7-1.8-3.8-3.4-3.8
		C197.7,235.9,196,237.2,196,239.7z"/>
	<path class="st1" d="M217.2,242.3c-0.3,0.6-0.8,1.2-1.3,1.7c-0.9,0.8-2.1,1.3-3.4,1.3c-2.5,0-5.1-1.6-5.1-5.4c0-3.1,1.9-5.5,5-5.5
		c2,0,3.3,1,3.9,1.9c0.6,0.9,1,2.5,1,3.9h-8.1c0,2.1,1.5,3.5,3.3,3.5c0.8,0,1.5-0.2,2.1-0.8c0.5-0.4,0.9-0.9,1.1-1.4L217.2,242.3z
		 M215.4,238.6c-0.3-1.6-1.5-2.7-3-2.7c-1.5,0-2.8,1.1-3,2.7H215.4z"/>
	<path class="st1" d="M220,234.5h1.8v1.2c0.3-0.4,1.2-1.4,3-1.4c1.2,0,2.3,0.5,3,1.4c0.5,0.8,0.6,1.6,0.6,2.8v6.4h-1.8v-6.4
		c0-0.6,0-1.3-0.5-1.9c-0.3-0.4-0.9-0.7-1.7-0.7c-0.6,0-1.3,0.2-1.8,0.8c-0.7,0.8-0.8,2-0.8,2.8v5.4H220V234.5z"/>
	<path class="st1" d="M232.4,242.5l1.6,0.6l-2.5,5.6l-1.2-0.5L232.4,242.5z"/>
	<path class="st1" d="M247.6,236.9c-0.2-0.6-0.8-1-1.4-1c-0.6,0-1.2,0.4-1.2,1.2c0,0.7,0.5,1,1.7,1.5c1.5,0.6,2.2,1.1,2.6,1.6
		c0.4,0.5,0.5,1.1,0.5,1.7c0,2.2-1.6,3.4-3.6,3.4c-0.4,0-2.7,0-3.6-2.6l1.5-0.6c0.2,0.5,0.8,1.7,2.1,1.7c1.2,0,1.7-0.9,1.7-1.6
		c0-1-0.7-1.3-1.7-1.7c-1.2-0.5-2-1-2.5-1.5c-0.4-0.5-0.5-1-0.5-1.5c0-1.8,1.3-2.9,3-2.9c0.5,0,2,0.1,2.8,1.9L247.6,236.9z"/>
	<path class="st1" d="M253.9,226.7v18.2h-1.8v-18.2H253.9z"/>
	<path class="st1" d="M266.5,242.3c-0.3,0.6-0.8,1.2-1.3,1.7c-0.9,0.8-2.1,1.3-3.4,1.3c-2.5,0-5.1-1.6-5.1-5.4c0-3.1,1.9-5.5,5-5.5
		c2,0,3.3,1,3.9,1.9c0.6,0.9,1,2.5,1,3.9h-8.1c0,2.1,1.5,3.5,3.3,3.5c0.9,0,1.5-0.2,2.1-0.8c0.5-0.4,0.9-0.9,1.1-1.4L266.5,242.3z
		 M264.7,238.6c-0.3-1.6-1.5-2.7-3-2.7c-1.5,0-2.8,1.1-3,2.7H264.7z"/>
	<path class="st1" d="M271.2,236.2v8.7h-1.8v-8.7h-1.1v-1.6h1.1v-3.7h1.8v3.7h1.8v1.6H271.2z"/>
	<path class="st1" d="M277,236.2v8.7h-1.8v-8.7h-1.1v-1.6h1.1v-3.7h1.8v3.7h1.8v1.6H277z"/>
	<path class="st1" d="M289.7,242.3c-0.3,0.6-0.8,1.2-1.3,1.7c-0.9,0.8-2.1,1.3-3.4,1.3c-2.5,0-5.1-1.6-5.1-5.4c0-3.1,1.9-5.5,5-5.5
		c2,0,3.3,1,3.9,1.9c0.6,0.9,1,2.5,1,3.9h-8.1c0,2.1,1.5,3.5,3.3,3.5c0.8,0,1.5-0.2,2.1-0.8c0.5-0.4,0.9-0.9,1.1-1.4L289.7,242.3z
		 M287.9,238.6c-0.3-1.6-1.5-2.7-3-2.7c-1.5,0-2.8,1.1-3,2.7H287.9z"/>
	<path class="st1" d="M306.3,226.7h1.8v18.2h-1.8v-1.4c-0.6,0.8-1.7,1.7-3.5,1.7c-2.6,0-5-1.8-5-5.5c0-3.6,2.4-5.4,5-5.4
		c2,0,3.1,1.1,3.5,1.7V226.7z M299.5,239.7c0,2.2,1.2,3.9,3.4,3.9c2.2,0,3.4-1.8,3.4-3.9c0-2.7-1.8-3.8-3.4-3.8
		C301.2,235.9,299.5,237.2,299.5,239.7z"/>
	<path class="st1" d="M320.7,242.3c-0.3,0.6-0.8,1.2-1.3,1.7c-0.9,0.8-2.1,1.3-3.4,1.3c-2.5,0-5.1-1.6-5.1-5.4c0-3.1,1.9-5.5,5-5.5
		c2,0,3.3,1,3.9,1.9c0.6,0.9,1,2.5,1,3.9h-8.1c0,2.1,1.5,3.5,3.3,3.5c0.8,0,1.5-0.2,2.1-0.8c0.5-0.4,0.9-0.9,1.1-1.4L320.7,242.3z
		 M318.9,238.6c-0.3-1.6-1.5-2.7-3-2.7c-1.5,0-2.8,1.1-3,2.7H318.9z"/>
	<path class="st1" d="M323.5,234.5h1.8v1.2c0.3-0.4,1.2-1.4,3-1.4c1.2,0,2.3,0.5,3,1.4c0.5,0.8,0.6,1.6,0.6,2.8v6.4h-1.8v-6.4
		c0-0.6,0-1.3-0.5-1.9c-0.3-0.4-0.9-0.7-1.7-0.7c-0.6,0-1.3,0.2-1.8,0.8c-0.7,0.8-0.8,2-0.8,2.8v5.4h-1.8V234.5z"/>
	<path class="st1" d="M350.3,242.3c-0.3,0.6-0.8,1.2-1.3,1.7c-1,0.8-2.1,1.3-3.4,1.3c-2.5,0-5.1-1.6-5.1-5.4c0-3.1,1.9-5.5,5-5.5
		c2,0,3.3,1,3.9,1.9c0.6,0.9,1,2.5,1,3.9h-8.1c0,2.1,1.5,3.5,3.3,3.5c0.9,0,1.5-0.2,2.1-0.8c0.5-0.4,0.8-0.9,1.1-1.4L350.3,242.3z
		 M348.5,238.6c-0.3-1.6-1.5-2.7-3-2.7c-1.5,0-2.8,1.1-3,2.7H348.5z"/>
	<path class="st1" d="M354.9,226.7v18.2h-1.8v-18.2H354.9z"/>
	<path class="st1" d="M360.1,226.7v18.2h-1.8v-18.2H360.1z"/>
	<path class="st1" d="M372.7,242.3c-0.3,0.6-0.8,1.2-1.3,1.7c-1,0.8-2.1,1.3-3.4,1.3c-2.5,0-5.1-1.6-5.1-5.4c0-3.1,1.9-5.5,5-5.5
		c2,0,3.3,1,3.9,1.9c0.6,0.9,1,2.5,1,3.9h-8.1c0,2.1,1.5,3.5,3.3,3.5c0.8,0,1.5-0.2,2.1-0.8c0.5-0.4,0.8-0.9,1.1-1.4L372.7,242.3z
		 M370.9,238.6c-0.3-1.6-1.5-2.7-3-2.7s-2.8,1.1-3,2.7H370.9z"/>
	<path class="st1" d="M375.5,234.5h1.8v1.1c0.2-0.3,1-1.4,2.3-1.4c0.5,0,1.1,0.2,1.6,0.4l-0.8,1.6c-0.4-0.3-0.8-0.3-1-0.3
		c-0.7,0-1.2,0.3-1.5,0.6c-0.3,0.4-0.6,1.1-0.6,2.8v5.5h-1.8V234.5z"/>
	<path class="st1" d="M389.3,234.5l3.1,7l3.1-7h2l-5.1,11l-5.1-11H389.3z"/>
	<path class="st1" d="M400.3,229.3c0.7,0,1.3,0.6,1.3,1.3c0,0.7-0.6,1.3-1.3,1.3c-0.7,0-1.3-0.6-1.3-1.3
		C399,229.9,399.6,229.3,400.3,229.3z M401.2,234.5v10.4h-1.8v-10.4H401.2z"/>
	<path class="st1" d="M412.5,226.7h1.8v18.2h-1.8v-1.4c-0.6,0.8-1.7,1.7-3.5,1.7c-2.6,0-5-1.8-5-5.5c0-3.6,2.4-5.4,5-5.4
		c2,0,3.1,1.1,3.5,1.7V226.7z M405.8,239.7c0,2.2,1.2,3.9,3.4,3.9c2.2,0,3.4-1.8,3.4-3.9c0-2.7-1.8-3.8-3.4-3.8
		C407.4,235.9,405.8,237.2,405.8,239.7z"/>
	<path class="st1" d="M426.9,242.3c-0.3,0.6-0.8,1.2-1.3,1.7c-1,0.8-2.1,1.3-3.4,1.3c-2.5,0-5.1-1.6-5.1-5.4c0-3.1,1.9-5.5,5-5.5
		c2,0,3.3,1,3.9,1.9c0.6,0.9,1,2.5,1,3.9h-8.1c0,2.1,1.5,3.5,3.3,3.5c0.8,0,1.5-0.2,2.1-0.8c0.5-0.4,0.8-0.9,1.1-1.4L426.9,242.3z
		 M425.1,238.6c-0.3-1.6-1.5-2.7-3-2.7s-2.8,1.1-3,2.7H425.1z"/>
	<path class="st1" d="M429.7,234.5h1.8v1.1c0.2-0.3,1-1.4,2.3-1.4c0.5,0,1.1,0.2,1.6,0.4l-0.8,1.6c-0.4-0.3-0.8-0.3-1-0.3
		c-0.7,0-1.2,0.3-1.5,0.6c-0.3,0.4-0.6,1.1-0.6,2.8v5.5h-1.8V234.5z"/>
	<path class="st1" d="M445.7,242.3c-0.3,0.6-0.8,1.2-1.3,1.7c-1,0.8-2.1,1.3-3.4,1.3c-2.5,0-5.1-1.6-5.1-5.4c0-3.1,1.9-5.5,5-5.5
		c2,0,3.3,1,3.9,1.9c0.6,0.9,1,2.5,1,3.9h-8.1c0,2.1,1.5,3.5,3.3,3.5c0.8,0,1.5-0.2,2.1-0.8c0.5-0.4,0.8-0.9,1.1-1.4L445.7,242.3z
		 M444,238.6c-0.3-1.6-1.5-2.7-3-2.7s-2.8,1.1-3,2.7H444z"/>
	<path class="st1" d="M452.8,236.9c-0.2-0.6-0.8-1-1.5-1c-0.6,0-1.2,0.4-1.2,1.2c0,0.7,0.5,1,1.7,1.5c1.5,0.6,2.2,1.1,2.6,1.6
		c0.5,0.5,0.5,1.1,0.5,1.7c0,2.2-1.6,3.4-3.6,3.4c-0.4,0-2.7,0-3.6-2.6l1.5-0.6c0.2,0.5,0.8,1.7,2.1,1.7c1.2,0,1.7-0.9,1.7-1.6
		c0-1-0.7-1.3-1.7-1.7c-1.2-0.5-2-1-2.5-1.5c-0.4-0.5-0.5-1-0.5-1.5c0-1.8,1.3-2.9,3-2.9c0.5,0,2,0.1,2.8,1.9L452.8,236.9z"/>
	<path class="st1" d="M466.6,242.3c-0.3,0.6-0.8,1.2-1.3,1.7c-1,0.8-2.1,1.3-3.4,1.3c-2.5,0-5.1-1.6-5.1-5.4c0-3.1,1.9-5.5,5-5.5
		c2,0,3.3,1,3.9,1.9c0.6,0.9,1,2.5,1,3.9h-8.1c0,2.1,1.5,3.5,3.3,3.5c0.8,0,1.5-0.2,2.1-0.8c0.5-0.4,0.8-0.9,1.1-1.4L466.6,242.3z
		 M464.8,238.6c-0.3-1.6-1.5-2.7-3-2.7s-2.8,1.1-3,2.7H464.8z"/>
	<path class="st1" d="M469.4,234.5h1.8v1.2c0.3-0.4,1.2-1.4,3-1.4c1.2,0,2.3,0.5,3,1.4c0.5,0.8,0.6,1.6,0.6,2.8v6.4h-1.8v-6.4
		c0-0.6,0-1.3-0.5-1.9c-0.4-0.4-0.9-0.7-1.7-0.7c-0.6,0-1.3,0.2-1.8,0.8c-0.7,0.8-0.8,2-0.8,2.8v5.4h-1.8V234.5z"/>
	<path class="st1" d="M489.1,226.7h1.8v18.2h-1.8v-1.4c-0.6,0.8-1.7,1.7-3.5,1.7c-2.6,0-5-1.8-5-5.5c0-3.6,2.4-5.4,5-5.4
		c2,0,3.1,1.1,3.5,1.7V226.7z M482.3,239.7c0,2.2,1.2,3.9,3.4,3.9c2.2,0,3.4-1.8,3.4-3.9c0-2.7-1.8-3.8-3.4-3.8
		C484,235.9,482.3,237.2,482.3,239.7z"/>
	<path class="st1" d="M503.5,242.3c-0.3,0.6-0.8,1.2-1.3,1.7c-1,0.8-2.1,1.3-3.4,1.3c-2.5,0-5.1-1.6-5.1-5.4c0-3.1,1.9-5.5,5-5.5
		c2,0,3.3,1,3.9,1.9c0.6,0.9,1,2.5,1,3.9h-8.1c0,2.1,1.5,3.5,3.3,3.5c0.8,0,1.5-0.2,2.1-0.8c0.5-0.4,0.8-0.9,1.1-1.4L503.5,242.3z
		 M501.7,238.6c-0.3-1.6-1.5-2.7-3-2.7s-2.8,1.1-3,2.7H501.7z"/>
	<path class="st1" d="M520.1,226.7h1.8v18.2h-1.8v-1.4c-0.6,0.8-1.7,1.7-3.5,1.7c-2.6,0-5-1.8-5-5.5c0-3.6,2.4-5.4,5-5.4
		c2,0,3.1,1.1,3.5,1.7V226.7z M513.3,239.7c0,2.2,1.2,3.9,3.4,3.9c2.2,0,3.4-1.8,3.4-3.9c0-2.7-1.8-3.8-3.4-3.8
		C515,235.9,513.3,237.2,513.3,239.7z"/>
	<path class="st1" d="M534.5,242.3c-0.3,0.6-0.8,1.2-1.3,1.7c-1,0.8-2.1,1.3-3.4,1.3c-2.5,0-5.1-1.6-5.1-5.4c0-3.1,1.9-5.5,5-5.5
		c2,0,3.3,1,3.9,1.9c0.6,0.9,1,2.5,1,3.9h-8.1c0,2.1,1.5,3.5,3.3,3.5c0.8,0,1.5-0.2,2.1-0.8c0.5-0.4,0.8-0.9,1.1-1.4L534.5,242.3z
		 M532.7,238.6c-0.3-1.6-1.5-2.7-3-2.7s-2.8,1.1-3,2.7H532.7z"/>
	<path class="st1" d="M537.3,234.5h1.8v1.2c0.3-0.4,1.2-1.4,3-1.4c1.2,0,2.3,0.5,3,1.4c0.5,0.8,0.6,1.6,0.6,2.8v6.4h-1.8v-6.4
		c0-0.6,0-1.3-0.5-1.9c-0.4-0.4-0.9-0.7-1.7-0.7c-0.6,0-1.3,0.2-1.8,0.8c-0.7,0.8-0.8,2-0.8,2.8v5.4h-1.8V234.5z"/>
	<path class="st1" d="M550.2,242.7c0.7,0,1.2,0.6,1.2,1.2s-0.6,1.2-1.2,1.2s-1.2-0.6-1.2-1.2S549.5,242.7,550.2,242.7z"/>
	<path class="st1" d="M568.5,231.5c-0.2-0.4-0.6-0.9-1-1.2c-0.3-0.2-0.9-0.6-1.9-0.6c-1.6,0-2.8,1-2.8,2.6c0,0.7,0.2,1,0.6,1.5
		c0.5,0.5,1.1,0.8,1.7,1l1.6,0.7c1,0.4,1.9,0.9,2.6,1.6c0.9,0.8,1.2,1.8,1.2,3c0,3.1-2.3,5.1-5.3,5.1c-1.1,0-2.5-0.2-3.6-1.3
		c-0.8-0.8-1.3-1.9-1.5-2.9l1.8-0.5c0.1,0.9,0.5,1.6,1,2.1c0.7,0.7,1.5,0.9,2.4,0.9c2.3,0,3.3-1.6,3.3-3.3c0-0.8-0.2-1.4-0.8-1.9
		c-0.5-0.5-1.1-0.8-2-1.1l-1.5-0.7c-0.6-0.3-1.5-0.6-2.2-1.4c-0.7-0.7-1.1-1.5-1.1-2.7c0-2.6,2-4.3,4.7-4.3c1,0,1.8,0.2,2.7,0.8
		c0.7,0.5,1.2,1.1,1.6,1.8L568.5,231.5z"/>
	<path class="st1" d="M582.7,242.3c-0.3,0.6-0.8,1.2-1.3,1.7c-1,0.8-2.1,1.3-3.4,1.3c-2.5,0-5.1-1.6-5.1-5.4c0-3.1,1.9-5.5,5-5.5
		c2,0,3.3,1,3.9,1.9c0.7,0.9,1,2.5,1,3.9h-8.1c0,2.1,1.5,3.5,3.3,3.5c0.8,0,1.5-0.2,2.1-0.8c0.5-0.4,0.8-0.9,1.1-1.4L582.7,242.3z
		 M581,238.6c-0.3-1.6-1.5-2.7-3-2.7c-1.5,0-2.8,1.1-3,2.7H581z"/>
	<path class="st1" d="M61.3,256.7h1.8v9c0.3-0.4,1.2-1.4,3-1.4c1.2,0,2.3,0.5,3,1.4c0.5,0.8,0.6,1.6,0.6,2.8v6.4h-1.8v-6.4
		c0-0.6,0-1.3-0.5-1.9c-0.3-0.4-0.9-0.7-1.7-0.7c-0.6,0-1.3,0.2-1.8,0.8c-0.7,0.8-0.8,2-0.8,2.8v5.4h-1.8V256.7z"/>
	<path class="st1" d="M73.5,264.5l3.1,7l3.1-7h2l-5.1,11l-5.1-11H73.5z"/>
	<path class="st1" d="M83,269.8c0-3.1,2.3-5.5,5.5-5.5s5.5,2.3,5.5,5.5c0,3.1-2.3,5.4-5.5,5.4C85.3,275.2,83,272.9,83,269.8z
		 M84.8,269.8c0,2.5,1.8,3.8,3.6,3.8c1.9,0,3.6-1.3,3.6-3.8c0-2.5-1.7-3.9-3.6-3.9S84.8,267.2,84.8,269.8z"/>
	<path class="st1" d="M96.7,264.5h1.8v1.1c0.2-0.3,0.9-1.4,2.3-1.4c0.5,0,1.1,0.2,1.6,0.4l-0.8,1.6c-0.4-0.3-0.8-0.3-1-0.3
		c-0.7,0-1.2,0.3-1.4,0.6c-0.3,0.4-0.6,1.1-0.6,2.8v5.5h-1.8V264.5z"/>
	<path class="st1" d="M109.9,264.5h1.8v1.1c0.6-0.8,1.5-1.3,2.6-1.3c1.9,0,2.6,1.3,2.8,1.7c1-1.6,2.4-1.7,3.1-1.7
		c3.1,0,3.4,2.6,3.4,4v6.6h-1.8v-6.3c0-1.2-0.1-2.7-1.8-2.7c-2.1,0-2.3,2-2.3,3.2v5.8h-1.8v-6.1c0-0.7,0-2.9-1.9-2.9
		c-2,0-2.3,2.1-2.3,3.4v5.6h-1.8V264.5z"/>
	<path class="st1" d="M135,264.5h1.8v10.4H135v-1.4c-0.6,0.8-1.7,1.7-3.5,1.7c-2.6,0-5-1.8-5-5.5c0-3.6,2.4-5.4,5-5.4
		c2,0,3.1,1.1,3.5,1.7V264.5z M128.3,269.7c0,2.2,1.2,3.9,3.4,3.9c2.2,0,3.4-1.8,3.4-3.9c0-2.7-1.8-3.8-3.4-3.8
		C129.9,265.9,128.3,267.2,128.3,269.7z"/>
	<path class="st1" d="M140.2,264.5h1.8v1.2c0.3-0.4,1.2-1.4,3-1.4c1.2,0,2.3,0.5,3,1.4c0.5,0.8,0.6,1.6,0.6,2.8v6.4h-1.8v-6.4
		c0-0.6,0-1.3-0.5-1.9c-0.3-0.4-0.9-0.7-1.7-0.7c-0.6,0-1.3,0.2-1.8,0.8c-0.7,0.8-0.8,2-0.8,2.8v5.4h-1.8V264.5z"/>
	<path class="st1" d="M159.9,264.5h1.8v10.1c0,1.1,0,2.7-1,4.1c-0.8,1-2.2,1.9-4.1,1.9c-1.8,0-3-0.7-3.7-1.4
		c-0.7-0.7-1.3-1.8-1.3-3.3h1.8c0,0.9,0.3,1.6,0.8,2.1c0.7,0.8,1.7,1,2.5,1c1.3,0,2.1-0.5,2.7-1.5c0.5-0.8,0.6-1.8,0.6-2.6v-1.5
		c-0.6,0.8-1.7,1.7-3.5,1.7c-1.5,0-2.7-0.6-3.5-1.4c-0.7-0.7-1.5-2-1.5-4.1c0-2,0.7-3.3,1.5-4c0.9-0.8,2.1-1.4,3.5-1.4
		c1.5,0,2.7,0.6,3.5,1.7V264.5z M154.2,266.9c-0.9,0.9-1,2-1,2.8c0,0.9,0.2,2.1,1.2,3c0.6,0.5,1.3,0.8,2.2,0.8s1.7-0.3,2.3-0.9
		c0.7-0.7,1.2-1.8,1.2-3s-0.4-2.3-1.1-2.9c-0.6-0.6-1.4-0.9-2.3-0.9C155.5,265.9,154.7,266.4,154.2,266.9z"/>
	<path class="st1" d="M174.3,272.3c-0.3,0.6-0.8,1.2-1.3,1.7c-0.9,0.8-2.1,1.3-3.4,1.3c-2.5,0-5.1-1.6-5.1-5.4c0-3.1,1.9-5.5,5-5.5
		c2,0,3.3,1,3.9,1.9c0.6,0.9,1,2.5,1,3.9h-8.1c0,2.1,1.5,3.5,3.3,3.5c0.8,0,1.5-0.2,2.1-0.8c0.5-0.4,0.9-0.9,1.1-1.4L174.3,272.3z
		 M172.5,268.6c-0.3-1.6-1.5-2.7-3-2.7c-1.5,0-2.8,1.1-3,2.7H172.5z"/>
	<path class="st1" d="M190.9,256.7h1.8v18.2h-1.8v-1.4c-0.6,0.8-1.7,1.7-3.5,1.7c-2.6,0-5-1.8-5-5.5c0-3.6,2.4-5.4,5-5.4
		c2,0,3.1,1.1,3.5,1.7V256.7z M184.2,269.7c0,2.2,1.2,3.9,3.4,3.9c2.2,0,3.4-1.8,3.4-3.9c0-2.7-1.8-3.8-3.4-3.8
		C185.8,265.9,184.2,267.2,184.2,269.7z"/>
	<path class="st1" d="M197.9,270.6c0,0.7,0,1.6,0.5,2.2c0.3,0.3,0.8,0.8,1.8,0.8c1,0,1.5-0.5,1.8-0.8c0.5-0.6,0.5-1.5,0.5-2.2v-6
		h1.8v6.2c0,1.3-0.1,2.2-1,3.1c-0.9,1-2.1,1.3-3.2,1.3c-1,0-2.2-0.3-3.2-1.3c-0.8-0.9-0.9-1.8-0.9-3.1v-6.2h1.8V270.6z"/>
	<path class="st1" d="M215.4,256.7v11.7l3.8-3.8h2.3l-4.4,4.4l5.2,5.9H220l-4.1-4.7l-0.5,0.4v4.3h-1.8v-18.2H215.4z"/>
	<path class="st1" d="M232.1,264.5h1.8v10.4h-1.8v-1.4c-0.6,0.8-1.7,1.7-3.5,1.7c-2.6,0-5-1.8-5-5.5c0-3.6,2.4-5.4,5-5.4
		c2,0,3.1,1.1,3.5,1.7V264.5z M225.3,269.7c0,2.2,1.2,3.9,3.4,3.9c2.2,0,3.4-1.8,3.4-3.9c0-2.7-1.8-3.8-3.4-3.8
		C227,265.9,225.3,267.2,225.3,269.7z"/>
	<path class="st1" d="M237.3,264.5h1.8v1.2c0.3-0.4,1.2-1.4,3-1.4c1.2,0,2.3,0.5,3,1.4c0.5,0.8,0.6,1.6,0.6,2.8v6.4h-1.8v-6.4
		c0-0.6-0.1-1.3-0.5-1.9c-0.3-0.4-0.9-0.7-1.7-0.7c-0.6,0-1.3,0.2-1.8,0.8c-0.7,0.8-0.8,2-0.8,2.8v5.4h-1.8V264.5z"/>
	<path class="st1" d="M256.7,266.2v8.7h-1.8v-8.7h-1v-1.6h1V260c0-0.9,0.1-2.1,1-2.9c0.5-0.4,1.2-0.7,2.1-0.7c0.6,0,1.1,0.1,1.3,0.2
		v1.8c-0.4-0.2-0.8-0.2-1.2-0.2c-0.4,0-0.9,0.1-1.1,0.5c-0.2,0.4-0.2,1-0.2,1.5v4.3h2.5v1.6H256.7z"/>
	<path class="st1" d="M268.8,264.5h1.8v10.4h-1.8v-1.4c-0.6,0.8-1.7,1.7-3.5,1.7c-2.6,0-5-1.8-5-5.5c0-3.6,2.4-5.4,5-5.4
		c2,0,3.1,1.1,3.5,1.7V264.5z M262,269.7c0,2.2,1.2,3.9,3.4,3.9c2.2,0,3.4-1.8,3.4-3.9c0-2.7-1.8-3.8-3.4-3.8
		C263.7,265.9,262,267.2,262,269.7z M265.8,258.2c1.2,0,2.1,1,2.1,2.1s-1,2.1-2.1,2.1s-2.1-1-2.1-2.1S264.7,258.2,265.8,258.2z
		 M265.8,261.4c0.5,0,1-0.5,1-1s-0.5-1-1-1s-1,0.5-1,1S265.3,261.4,265.8,261.4z"/>
	<path class="st1" d="M279.8,264.5h1.8v1.1c0.2-0.3,0.9-1.4,2.3-1.4c0.5,0,1.1,0.2,1.6,0.4l-0.9,1.6c-0.4-0.3-0.8-0.3-1-0.3
		c-0.7,0-1.2,0.3-1.4,0.6c-0.3,0.4-0.6,1.1-0.6,2.8v5.5h-1.8V264.5z"/>
	<path class="st1" d="M288.1,259.3c0.7,0,1.3,0.6,1.3,1.3c0,0.7-0.6,1.3-1.3,1.3c-0.7,0-1.3-0.6-1.3-1.3
		C286.8,259.9,287.4,259.3,288.1,259.3z M289,264.5v10.4h-1.8v-10.4H289z"/>
	<path class="st1" d="M300.4,264.5h1.8v10.1c0,1.1,0,2.7-1,4.1c-0.8,1-2.2,1.9-4.1,1.9c-1.8,0-3-0.7-3.7-1.4
		c-0.7-0.7-1.3-1.8-1.3-3.3h1.8c0,0.9,0.3,1.6,0.8,2.1c0.7,0.8,1.7,1,2.5,1c1.3,0,2.1-0.5,2.7-1.5c0.5-0.8,0.6-1.8,0.6-2.6v-1.5
		c-0.6,0.8-1.7,1.7-3.5,1.7c-1.5,0-2.7-0.6-3.5-1.4c-0.7-0.7-1.5-2-1.5-4.1c0-2,0.7-3.3,1.5-4c0.9-0.8,2.1-1.4,3.5-1.4
		c1.5,0,2.7,0.6,3.5,1.7V264.5z M294.7,266.9c-0.9,0.9-1,2-1,2.8c0,0.9,0.2,2.1,1.2,3c0.6,0.5,1.3,0.8,2.2,0.8s1.7-0.3,2.3-0.9
		c0.7-0.7,1.2-1.8,1.2-3s-0.4-2.3-1.1-2.9c-0.6-0.6-1.4-0.9-2.3-0.9C295.9,265.9,295.2,266.4,294.7,266.9z"/>
	<path class="st1" d="M307.4,266.2v8.7h-1.8v-8.7h-1.1v-1.6h1.1v-3.7h1.8v3.7h1.8v1.6H307.4z"/>
	<path class="st1" d="M311.8,259.3c0.7,0,1.3,0.6,1.3,1.3c0,0.7-0.6,1.3-1.3,1.3c-0.7,0-1.3-0.6-1.3-1.3
		C310.5,259.9,311.1,259.3,311.8,259.3z M312.7,264.5v10.4h-1.8v-10.4H312.7z"/>
	<path class="st1" d="M324.1,264.5h1.8v10.1c0,1.1,0,2.7-1,4.1c-0.8,1-2.2,1.9-4.1,1.9c-1.8,0-3-0.7-3.7-1.4
		c-0.7-0.7-1.4-1.8-1.4-3.3h1.8c0,0.9,0.3,1.6,0.8,2.1c0.7,0.8,1.7,1,2.5,1c1.3,0,2.1-0.5,2.7-1.5c0.5-0.8,0.6-1.8,0.6-2.6v-1.5
		c-0.6,0.8-1.7,1.7-3.5,1.7c-1.5,0-2.7-0.6-3.5-1.4c-0.7-0.7-1.5-2-1.5-4.1c0-2,0.8-3.3,1.5-4c0.9-0.8,2.1-1.4,3.5-1.4
		c1.5,0,2.7,0.6,3.5,1.7V264.5z M318.4,266.9c-0.9,0.9-1,2-1,2.8c0,0.9,0.2,2.1,1.2,3c0.6,0.5,1.3,0.8,2.2,0.8s1.7-0.3,2.3-0.9
		c0.7-0.7,1.2-1.8,1.2-3s-0.4-2.3-1.1-2.9c-0.6-0.6-1.4-0.9-2.3-0.9C319.6,265.9,318.9,266.4,318.4,266.9z"/>
	<path class="st1" d="M338.5,272.3c-0.3,0.6-0.8,1.2-1.3,1.7c-1,0.8-2.1,1.3-3.4,1.3c-2.5,0-5.1-1.6-5.1-5.4c0-3.1,1.9-5.5,5-5.5
		c2,0,3.3,1,3.9,1.9c0.6,0.9,1,2.5,1,3.9h-8.1c0,2.1,1.5,3.5,3.3,3.5c0.9,0,1.5-0.2,2.1-0.8c0.5-0.4,0.8-0.9,1.1-1.4L338.5,272.3z
		 M336.7,268.6c-0.3-1.6-1.5-2.7-3-2.7c-1.5,0-2.8,1.1-3,2.7H336.7z"/>
	<path class="st1" d="M342.4,272.7c0.7,0,1.2,0.6,1.2,1.2s-0.6,1.2-1.2,1.2s-1.2-0.6-1.2-1.2S341.8,272.7,342.4,272.7z"/>
</g>
</svg>
