<svg id="Layer_1" data-name="Layer 1" xmlns="http://www.w3.org/2000/svg" width="70" height="60" viewBox="0 0 70 60"><defs><style>.cls-1{fill:#152230;}.cls-2{fill:#fff;}</style></defs><title>luk_knap</title><rect class="cls-1" x="4" y="2" width="62" height="56" rx="16.8" ry="16.8"/><path class="cls-2" d="M43.26,29.6l10.63-9.94A5.2,5.2,0,0,0,54,12.14,5.63,5.63,0,0,0,46.25,12L35.62,22,25.33,11.65a5.62,5.62,0,0,0-7.76-.13A5.2,5.2,0,0,0,17.44,19L27.72,29.33l-10.63,10A5.19,5.19,0,0,0,17,46.79a5.61,5.61,0,0,0,7.76.14L35.36,37l10.29,10.3a5.62,5.62,0,0,0,7.77.14,5.2,5.2,0,0,0,.13-7.52Z"/></svg>
