<svg id="Layer_1" data-name="Layer 1" xmlns="http://www.w3.org/2000/svg" width="110" height="70" viewBox="0 0 110 70"><defs><style>.cls-1{fill:#152230;}.cls-2{fill:#fff;}</style></defs><title>ok_knap</title><rect class="cls-1" x="4" y="2.5" width="102" height="65" rx="16.8" ry="16.8"/><path class="cls-2" d="M31.59,35.31A11.57,11.57,0,0,1,43.38,23.58a11.73,11.73,0,1,1,0,23.46A11.57,11.57,0,0,1,31.59,35.31Zm2.58,0A9.22,9.22,0,1,0,43.38,26,9.24,9.24,0,0,0,34.17,35.31Z"/><path class="cls-2" d="M62.32,33.68,72,24h3.4L64.77,34.53l11,12.1H72.25L63,36.23l-.65.65v9.75H59.81V24h2.51Z"/></svg>
