<svg id="Layer_1" data-name="Layer 1" xmlns="http://www.w3.org/2000/svg" width="850" height="620" viewBox="0 0 850 620"><defs><style>.cls-1{fill:#152230;}.cls-2{fill:#f2902c;}.cls-3{fill:#fff;}</style></defs><title>privatsnak_logo</title><path class="cls-1" d="M124.65,306.08c-4.47,1.51-7.58,5-11.21,7.75-12.77,9.6-25.4,19.39-38.11,29.09-1,.76-1.93,2.25-3.37,1.66-1.8-.72-1.08-2.59-1.09-4-.05-19.66-.19-39.32.09-59,.06-4.61-1.4-5.5-5.65-5.41-12.49.27-25,.17-37.48,0-15.18-.15-26.34-11.64-26.33-26.8,0-71.81.35-143.62-.16-215.43-.13-18.34,13-29.73,29.78-29.71q395.13.45,790.26.21c16.22,0,27.22,11,27.22,27.27q0,108.72.06,217.43c0,13.63-7.12,22.54-21.56,26.84-2.83.05-5.65.14-8.48.14H348.91q-90.45,0-180.89,0c-3.76,0-6.94.55-10.07,3.19-6.35,5.34-13.39,9.86-19.78,15.17C133.63,298.33,128,300.87,124.65,306.08Z"/><path class="cls-2" d="M124.65,306.08c3.33-5.21,9-7.75,13.52-11.53,6.39-5.31,13.43-9.83,19.78-15.17,3.13-2.64,6.31-3.2,10.07-3.19q90.45.07,180.89,0H818.62c2.83,0,5.65-.09,8.48-.14,1.57,3,5.09,2.68,7.53,4.29,8.32,5.46,12.57,12.81,12.56,22.83,0,72-.26,144,.21,215.92.1,15-10.83,29-29,29q-192.93-.39-385.86-.13c-46.48,0-93,.11-139.44-.09a20.73,20.73,0,0,0-13.58,4.71Q246.8,577.88,214,603c-5,3.84-10.14,7.49-15.16,11.29-3.12,2.37-4.25,1.55-4.25-2.23q0-28.23-.13-56.47c0-7.54-.15-7.65-7.52-7.66-11.33,0-22.67-.35-34,.1-15.84.63-28.41-12-28.34-28.58.28-69.47.13-138.95.12-208.42C124.76,309.4,124.69,307.74,124.65,306.08Z"/><path class="cls-3" d="M146.1,210.5H109.55V69.91h58.18q23.67,0,36.26,12.31t12.59,34.68q0,22.38-12.59,34.68t-36.26,12.31H146.1Zm0-76.07h12.12q20.13,0,20.13-17.53T158.22,99.37H146.1Z"/><path class="cls-3" d="M345.74,210.5h-45.5l-34.86-54.07V210.5H228.83V69.91H285.7a56.05,56.05,0,0,1,20.51,3.45,38.6,38.6,0,0,1,23,23.22,48,48,0,0,1,2.89,16.78q0,16-7.73,26t-22.84,13.52Zm-80.36-77.75h6.89q10.82,0,16.6-4.48t5.78-12.86q0-8.39-5.78-12.87t-16.6-4.47h-6.89Z"/><path class="cls-3" d="M393.43,69.91V210.5H356.89V69.91Z"/><path class="cls-3" d="M443.74,69.91l33.93,85.59,34.12-85.59h39.72L492.22,210.5H463.13L404,69.91Z"/><path class="cls-3" d="M631.05,187.07h-52.2l-8.39,24.43h-39L585,70.91h39.9L678.41,211.5h-39Zm-9.69-27.78L605,112.49l-16.41,46.8Z"/><path class="cls-3" d="M732.48,101.87V211.5H695.94V101.87h-30v-31H762.5v31Z"/><path class="cls-3" d="M309.91,376.44a45.05,45.05,0,0,0-11.9-7.15A31.62,31.62,0,0,0,286.48,367q-7.07,0-11.53,3.35a10.43,10.43,0,0,0-4.46,8.74,8.71,8.71,0,0,0,2.23,6.13,19.36,19.36,0,0,0,5.86,4.19,49.2,49.2,0,0,0,8.18,3.06c3,.87,6,1.8,9,2.79q17.85,6,26.12,15.9t8.28,25.94a50.4,50.4,0,0,1-3.63,19.52,40.71,40.71,0,0,1-10.6,15,48.78,48.78,0,0,1-17.1,9.67,71.36,71.36,0,0,1-23,3.44q-26.58,0-49.27-15.81l15.62-29.37a63.09,63.09,0,0,0,16.18,10.78,38.73,38.73,0,0,0,15.8,3.53q8.93,0,13.29-4.09a12.4,12.4,0,0,0,4.37-9.29,12.63,12.63,0,0,0-1.11-5.49,12.07,12.07,0,0,0-3.72-4.28,29.76,29.76,0,0,0-6.79-3.62c-2.79-1.12-6.17-2.35-10.13-3.72q-7.06-2.24-13.85-4.93a43.2,43.2,0,0,1-12.09-7.16A33.26,33.26,0,0,1,235.63,400q-3.25-6.8-3.26-17.2a49.83,49.83,0,0,1,3.44-18.88,42.17,42.17,0,0,1,9.67-14.5A43.07,43.07,0,0,1,260.73,340a57.66,57.66,0,0,1,20.17-3.35,88.44,88.44,0,0,1,21.76,2.89A95.79,95.79,0,0,1,324.41,348Z"/><path class="cls-3" d="M343.93,480.75V340.56h36.45l67.31,85.72V340.56h36.25V480.75H447.69L380.38,395v85.71Z"/><path class="cls-3" d="M590.48,456.4H538.42l-8.36,24.35H491.19l53.37-140.19h39.79l53.36,140.19H598.85Zm-9.66-27.71L564.45,382l-16.36,46.67Z"/><path class="cls-3" d="M681,398.39l44.44-57.83h45l-55.6,66.38,60.8,73.81H728.45L681,420v60.8H644.59V340.56H681Z"/></svg>
