<svg xmlns="http://www.w3.org/2000/svg" xmlns:xlink="http://www.w3.org/1999/xlink" width="1600" height="900" viewBox="0 0 1600 900"><defs><style>.cls-1,.cls-22{fill:none;}.cls-2,.cls-21{fill:#fff;}.cls-20,.cls-3{fill:#89cce5;}.cls-4{fill:#5b391a;}.cls-19,.cls-28,.cls-5{fill:#f4912d;}.cls-6{fill:#2b2b1c;}.cls-7{fill:#2b5b23;}.cls-8{fill:#94bc5b;}.cls-9{fill:#3a3a25;}.cls-10{fill:#ededb0;}.cls-11{fill:#c6c6c6;}.cls-12{fill:#4c4c4c;}.cls-13{fill:#7f7f7f;}.cls-14{fill:#2d2d2d;}.cls-15{fill:#aaa;}.cls-16{fill:#d8d8d8;}.cls-17{clip-path:url(#clip-path);}.cls-18{fill:#152230;}.cls-18,.cls-26{stroke:#ffd48d;}.cls-18,.cls-19,.cls-20,.cls-21,.cls-22,.cls-23,.cls-24,.cls-25,.cls-26,.cls-27,.cls-28{stroke-miterlimit:10;}.cls-19,.cls-20{stroke:#89cce5;}.cls-21,.cls-22,.cls-23,.cls-27,.cls-28{stroke:#f4912d;}.cls-24,.cls-25{stroke:#000;}.cls-24{opacity:0.14;}.cls-26,.cls-27{fill:#ffd48d;}.cls-29{fill:#e9eced;}</style><clipPath id="clip-path"><rect class="cls-1" x="372.04" y="297.56" width="662.52" height="372.64"/></clipPath></defs><title>Scene_1</title><g id="Hvid_skærm" data-name="Hvid skærm"><rect class="cls-2" x="115.87" y="59.72" width="1274.81" height="751.26" rx="28"/><rect class="cls-3" width="1600" height="900"/><rect class="cls-2" x="314.45" y="149.41" width="1001.49" height="546.89"/></g><g id="Bord_plante" data-name="Bord, plante"><rect class="cls-4" y="718.83" width="1600" height="181.17"/><path class="cls-5" d="M1357.23,657.16,1388,811.22s53.92,11.55,146.36,0l19.25-154.06S1445.81,707.23,1357.23,657.16Z"/><path class="cls-6" d="M1357.23,649.06s74.27,59.75,196.42,0C1553.65,649.06,1460.26,623.14,1357.23,649.06Z"/><path class="cls-7" d="M1514.67,655.54S1556,635.91,1569.4,467.6c3.44-43-1.75-39-5.84-40.76-5.26-2.27-31.6-7.3-40.66,19.36-11.46,33.69-20.42,75.7-20.42,75.7s-8,38.08-12.76,75.71C1485.57,630.2,1505.72,647.44,1514.67,655.54Z"/><path class="cls-7" d="M1437.55,657.23s44-18.63,54.76-204.91c7.16-123.94-24.71-62.62-46.84-7.69a301,301,0,0,0-15.79,55.61s-9.25,36.66-11.31,76.2c-1.53,29.42,3,57.11,8.39,72Z"/><ellipse class="cls-8" cx="1464.45" cy="522.6" rx="135.39" ry="5.94" transform="translate(669.74 1859.07) rotate(-78.9)"/><ellipse class="cls-8" cx="1439.59" cy="513.6" rx="99.79" ry="3.57" transform="translate(658.5 1827.41) rotate(-78.9)"/><ellipse class="cls-8" cx="1515.73" cy="536.23" rx="104.91" ry="4.51" transform="matrix(0.15, -0.99, 0.99, 0.15, 761.75, 1956.26)"/><ellipse class="cls-8" cx="1542.72" cy="535.23" rx="111.27" ry="3.92" transform="translate(785.74 1982.1) rotate(-81.52)"/><ellipse class="cls-9" cx="1448.81" cy="645.25" rx="17.82" ry="10.35"/><ellipse class="cls-9" cx="1500.09" cy="642.92" rx="10.92" ry="6.95"/><circle class="cls-9" cx="1518.39" cy="649.23" r="11.45"/><circle class="cls-9" cx="1429.56" cy="641.96" r="6.64"/><circle class="cls-9" cx="1471.5" cy="649.87" r="8.88"/><ellipse class="cls-9" cx="1418.07" cy="649.23" rx="11.5" ry="6.95"/><ellipse class="cls-9" cx="1398.47" cy="645.25" rx="7.79" ry="5.51"/><ellipse class="cls-9" cx="1431.99" cy="657.75" rx="9.05" ry="10.53"/><ellipse class="cls-9" cx="1482.23" cy="645.25" rx="10.74" ry="12.21"/><rect class="cls-10" x="1466.44" y="704.32" width="68.16" height="6.63" transform="translate(-125.33 377.61) rotate(-13.77)"/><rect class="cls-10" x="1388.31" y="721.75" width="59.52" height="6.63" transform="translate(266.64 -375.32) rotate(16.62)"/><rect class="cls-10" x="1472.86" y="738.18" width="42.65" height="5.3" transform="translate(-159.1 521.57) rotate(-18.82)"/><rect class="cls-10" x="1379.92" y="693.25" width="76.29" height="7.96" transform="translate(173.13 -276) rotate(11.83)"/><rect class="cls-10" x="1469.14" y="775.09" width="34.28" height="6.63" transform="translate(-171.64 521.03) rotate(-18.82)"/><rect class="cls-10" x="1408.34" y="766.42" width="29.17" height="6.63" transform="translate(279.62 -374.84) rotate(16.62)"/></g><g id="Skærm_opbygning" data-name="Skærm opbygning"><path class="cls-11" d="M1330.68,696.3h-24.1v.28a28,28,0,0,0-3.9-.28H83.87a27.75,27.75,0,0,0-3.9.28v-.28H55.87v24.1h.28a27.86,27.86,0,0,0-.28,3.9V783a28.08,28.08,0,0,0,28,28H1302.68a28.08,28.08,0,0,0,28-28V724.3a27.86,27.86,0,0,0-.28-3.9h.28Z"/><path class="cls-12" d="M286.45,59.72H83.87a28.08,28.08,0,0,0-28,28V696.3H314.45V59.72Z"/><path class="cls-13" d="M1302.68,59.72H342.45c-.39,0-.77,0-1.14,0v0H314.45v89.69H1330.68V87.72A28.08,28.08,0,0,0,1302.68,59.72Z"/><path class="cls-12" d="M548.49,811s7.63,77.15-53.43,89H850.52s-41.44-12.18-38.17-89Z"/><rect class="cls-11" x="1315.94" y="149.41" width="14.74" height="546.89"/><g id="Apple"><path class="cls-12" d="M693.55,758.69a16.74,16.74,0,0,1,15.85-17.6,17.67,17.67,0,0,1,2.92.1,30.1,30.1,0,1,0-.52,33.3l-.65,0A16.74,16.74,0,0,1,693.55,758.69Z"/><ellipse class="cls-12" cx="687.32" cy="718.83" rx="8.17" ry="2.88" transform="translate(-292.33 547.3) rotate(-36.35)"/></g></g><g id="Textbokse"><rect class="cls-14" x="55.38" y="477.6" width="258.58" height="109.49"/><path class="cls-2" d="M80.47,509.75V518H77.4V497.66h3.48a15.48,15.48,0,0,1,3.86.36,5.05,5.05,0,0,1,2.32,1.34,5.8,5.8,0,0,1,1.76,4.33A5.61,5.61,0,0,1,87,508.12a7.41,7.41,0,0,1-5,1.63Zm0-2.85h1.15q4.23,0,4.23-3.25c0-2.11-1.45-3.15-4.36-3.15h-1Z"/><path class="cls-2" d="M100.16,505.17h3V518h-3v-1.35a5.71,5.71,0,0,1-8.35-.21,7.16,7.16,0,0,1-1.73-4.9,7,7,0,0,1,1.73-4.82,5.57,5.57,0,0,1,4.33-1.92,5.44,5.44,0,0,1,4,1.85Zm-7,6.39a4.49,4.49,0,0,0,1,3,3.26,3.26,0,0,0,2.56,1.18,3.41,3.41,0,0,0,2.67-1.14,4.9,4.9,0,0,0,0-6,3.38,3.38,0,0,0-2.64-1.14,3.27,3.27,0,0,0-2.56,1.16A4.24,4.24,0,0,0,93.12,511.56Z"/><path class="cls-2" d="M111.16,515.63l-5.77-10.46h3.44l3.93,7.39,3.66-7.39h3.35L109.54,525h-3.39Z"/><path class="cls-2" d="M125.43,509.75V518h-3.07V497.66h3.48a15.53,15.53,0,0,1,3.86.36,5.1,5.1,0,0,1,2.32,1.34,5.8,5.8,0,0,1,1.75,4.33,5.58,5.58,0,0,1-1.87,4.43,7.41,7.41,0,0,1-5.05,1.63Zm0-2.85h1.15q4.23,0,4.23-3.25c0-2.11-1.46-3.15-4.37-3.15h-1Z"/><path class="cls-2" d="M145.11,505.17h3V518h-3v-1.35a5.7,5.7,0,0,1-8.34-.21,7.16,7.16,0,0,1-1.73-4.9,7,7,0,0,1,1.73-4.82,5.56,5.56,0,0,1,4.32-1.92,5.41,5.41,0,0,1,4,1.85Zm-7,6.39a4.45,4.45,0,0,0,1,3,3.26,3.26,0,0,0,2.56,1.18,3.39,3.39,0,0,0,2.66-1.14,4.86,4.86,0,0,0,0-6,3.36,3.36,0,0,0-2.63-1.14,3.25,3.25,0,0,0-2.56,1.16A4.24,4.24,0,0,0,138.07,511.56Z"/><path class="cls-2" d="M154.8,495.75V518h-3V495.75Z"/><rect class="cls-2" x="74.96" y="535.6" width="218.44" height="1.58"/><rect class="cls-2" x="75.45" y="549.62" width="218.44" height="1.58"/><rect class="cls-2" x="75.45" y="563.63" width="218.44" height="1.58"/><rect class="cls-14" x="55.38" y="368.38" width="258.58" height="109.49"/><path class="cls-2" d="M77.4,408.8V388.45h3.06a13.54,13.54,0,0,1,3.26.31,5,5,0,0,1,2.07,1.07,5.45,5.45,0,0,1,1.35,1.94,5.73,5.73,0,0,1,.52,2.37A4.83,4.83,0,0,1,86,397.85a4.87,4.87,0,0,1,2.56,1.93,5.5,5.5,0,0,1,.95,3.19,5.8,5.8,0,0,1-4,5.45,13.46,13.46,0,0,1-3.46.38Zm3.07-11.61h1a3.57,3.57,0,0,0,2.51-.76,3,3,0,0,0,.79-2.24,2.83,2.83,0,0,0-.81-2.18,3.46,3.46,0,0,0-2.38-.74H80.47Zm0,8.72h1.9a4.75,4.75,0,0,0,3.06-.81,2.82,2.82,0,0,0,1-2.24,2.88,2.88,0,0,0-1-2.22,5.12,5.12,0,0,0-3.44-.88H80.47Z"/><path class="cls-2" d="M92.19,402.29a6.39,6.39,0,0,1,2-4.73,7,7,0,0,1,9.73,0,6.87,6.87,0,0,1,0,9.66A6.81,6.81,0,0,1,99,409.17a6.55,6.55,0,0,1-4.84-2A6.64,6.64,0,0,1,92.19,402.29Zm3,0a4.38,4.38,0,0,0,1,3.05A3.65,3.65,0,0,0,99,406.52a3.61,3.61,0,0,0,2.78-1.12,4.83,4.83,0,0,0,0-6A3.65,3.65,0,0,0,99,398.28a3.6,3.6,0,0,0-2.76,1.13A4.16,4.16,0,0,0,95.23,402.34Z"/><path class="cls-2" d="M108.42,402.29a6.39,6.39,0,0,1,2-4.73,7,7,0,0,1,9.73,0,6.87,6.87,0,0,1,0,9.66,6.83,6.83,0,0,1-4.92,1.94,6.53,6.53,0,0,1-4.84-2A6.64,6.64,0,0,1,108.42,402.29Zm3,0a4.38,4.38,0,0,0,1,3.05,4,4,0,0,0,5.57,0,4.83,4.83,0,0,0,0-6,3.65,3.65,0,0,0-2.79-1.13,3.6,3.6,0,0,0-2.75,1.13A4.17,4.17,0,0,0,111.45,402.34Z"/><path class="cls-2" d="M129.52,406h7.63v2.79H123.64L132,398.73H125.4V396h12.42Z"/><path class="cls-2" d="M143,398.73V408.8h-3V398.73h-1.26V396H140v-4.71h3V396h2.31v2.77Z"/><path class="cls-2" d="M147.78,407.32a1.73,1.73,0,0,1,.54-1.27,1.83,1.83,0,1,1,1.29,3.12,1.79,1.79,0,0,1-1.83-1.85Z"/><path class="cls-2" d="M165.64,396.51v3.95a7,7,0,0,0-1.82-1.7,3.53,3.53,0,0,0-1.86-.48,3.66,3.66,0,0,0-2.78,1.17,4.14,4.14,0,0,0-1.11,2.94,4.21,4.21,0,0,0,1.07,3,3.62,3.62,0,0,0,2.76,1.16,3.72,3.72,0,0,0,1.88-.46,7.44,7.44,0,0,0,1.86-1.74v3.91a7.72,7.72,0,0,1-3.61.94,6.94,6.94,0,0,1-5-1.92,6.47,6.47,0,0,1-2-4.82,6.53,6.53,0,0,1,2-4.85,6.85,6.85,0,0,1,5-2A7.54,7.54,0,0,1,165.64,396.51Z"/><path class="cls-2" d="M167.91,402.29a6.35,6.35,0,0,1,2-4.73,6.62,6.62,0,0,1,4.85-2,6.72,6.72,0,0,1,4.88,2,6.88,6.88,0,0,1,0,9.66,6.79,6.79,0,0,1-4.91,1.94,6.52,6.52,0,0,1-4.84-2A6.64,6.64,0,0,1,167.91,402.29Zm3,0a4.33,4.33,0,0,0,1,3.05,3.63,3.63,0,0,0,2.78,1.13,3.6,3.6,0,0,0,2.78-1.12,4.83,4.83,0,0,0,0-6,4,4,0,0,0-5.54,0A4.16,4.16,0,0,0,170.94,402.34Z"/><path class="cls-2" d="M184.74,396h3v1.19a6.5,6.5,0,0,1,1.46-1.22,3.54,3.54,0,0,1,1.62-.33,3.94,3.94,0,0,1,3.44,1.9,4.49,4.49,0,0,1,3.79-1.9c2.89,0,4.34,1.76,4.34,5.26v7.94h-3v-7.13a5.48,5.48,0,0,0-.45-2.61,1.64,1.64,0,0,0-1.52-.78,2,2,0,0,0-1.79.92,6,6,0,0,0-.56,3v6.63h-3v-7.09c0-2.29-.66-3.43-2-3.43a2,2,0,0,0-1.83.94,5.86,5.86,0,0,0-.57,2.95v6.63h-3Z"/><rect class="cls-2" x="75.68" y="424.67" width="218.44" height="1.58"/><rect class="cls-2" x="76.16" y="438.68" width="218.44" height="1.58"/><rect class="cls-2" x="76.16" y="452.7" width="218.44" height="1.58"/><rect class="cls-15" x="55.38" y="260.48" width="258.58" height="109.49"/><path class="cls-2" d="M92.44,281.64v3.63a8.52,8.52,0,0,0-5.51-2.22,7,7,0,0,0-5.28,2.25,7.6,7.6,0,0,0-2.17,5.48,7.44,7.44,0,0,0,2.17,5.41,7.12,7.12,0,0,0,5.3,2.2,6.33,6.33,0,0,0,2.75-.53,7.41,7.41,0,0,0,1.31-.71,14.92,14.92,0,0,0,1.43-1.08v3.71a11.09,11.09,0,0,1-5.53,1.49,10.21,10.21,0,0,1-7.45-3,10.1,10.1,0,0,1-3.07-7.41A10.41,10.41,0,0,1,79,283.88a10.58,10.58,0,0,1,13.48-2.24Z"/><path class="cls-2" d="M105.22,288.06h3V300.9h-3v-1.35a5.69,5.69,0,0,1-8.35-.21,7.15,7.15,0,0,1-1.72-4.9,7,7,0,0,1,1.72-4.82,5.59,5.59,0,0,1,4.33-1.92,5.44,5.44,0,0,1,4,1.85Zm-7,6.38a4.45,4.45,0,0,0,1,3,3.24,3.24,0,0,0,2.56,1.18,3.41,3.41,0,0,0,2.66-1.14,4.9,4.9,0,0,0,0-6,3.38,3.38,0,0,0-2.64-1.14,3.27,3.27,0,0,0-2.56,1.16A4.3,4.3,0,0,0,98.18,294.44Z"/><path class="cls-2" d="M111.94,288.06h3v1.18a6.15,6.15,0,0,1,1.46-1.21,3.54,3.54,0,0,1,1.62-.33,3.92,3.92,0,0,1,3.44,1.9,4.47,4.47,0,0,1,3.79-1.9q4.34,0,4.34,5.26v7.94h-3v-7.14a5.48,5.48,0,0,0-.45-2.61,1.65,1.65,0,0,0-1.52-.77,1.91,1.91,0,0,0-1.78.92,5.86,5.86,0,0,0-.56,3v6.63h-3v-7.1q0-3.42-2-3.42a2,2,0,0,0-1.83.93,5.9,5.9,0,0,0-.57,3v6.63h-3Z"/><path class="cls-2" d="M132.85,282.72a1.95,1.95,0,0,1,1.93-1.92,1.87,1.87,0,0,1,1.37.57,1.81,1.81,0,0,1,.56,1.36,1.85,1.85,0,0,1-.56,1.37,1.82,1.82,0,0,1-1.36.57,1.86,1.86,0,0,1-1.37-.57A1.88,1.88,0,0,1,132.85,282.72Zm3.42,5.34V300.9h-3V288.06Z"/><path class="cls-2" d="M143,278.63V300.9h-3V278.63Z"/><path class="cls-2" d="M149.71,278.63V300.9h-3V278.63Z"/><path class="cls-2" d="M162.94,288.06h3V300.9h-3v-1.35a5.69,5.69,0,0,1-8.35-.21,7.16,7.16,0,0,1-1.73-4.9,7,7,0,0,1,1.73-4.82,5.57,5.57,0,0,1,4.33-1.92,5.44,5.44,0,0,1,4,1.85Zm-7,6.38a4.45,4.45,0,0,0,1,3,3.22,3.22,0,0,0,2.55,1.18,3.41,3.41,0,0,0,2.67-1.14,4.9,4.9,0,0,0,0-6,3.38,3.38,0,0,0-2.64-1.14,3.27,3.27,0,0,0-2.56,1.16A4.25,4.25,0,0,0,155.9,294.44Z"/><path class="cls-2" d="M177.85,300.9,182.13,279l7,15.82L196.36,279l3.85,21.89h-3.15l-2-12.29-6,13.22-5.86-13.23L181,300.9Z"/><path class="cls-2" d="M213.42,288.06h3V300.9h-3v-1.35a5.69,5.69,0,0,1-8.35-.21,7.16,7.16,0,0,1-1.73-4.9,7,7,0,0,1,1.73-4.82,5.57,5.57,0,0,1,4.33-1.92,5.44,5.44,0,0,1,4,1.85Zm-7,6.38a4.45,4.45,0,0,0,1,3,3.22,3.22,0,0,0,2.55,1.18,3.41,3.41,0,0,0,2.67-1.14,4.9,4.9,0,0,0,0-6,3.38,3.38,0,0,0-2.64-1.14,3.27,3.27,0,0,0-2.56,1.16A4.25,4.25,0,0,0,206.38,294.44Z"/><path class="cls-2" d="M229.61,278.63h3V300.9h-3v-1.35a5.57,5.57,0,0,1-4,1.72,5.67,5.67,0,0,1-4.38-1.93,7.16,7.16,0,0,1-1.73-4.9,6.92,6.92,0,0,1,1.73-4.8,5.55,5.55,0,0,1,8.35-.09Zm-7,15.81a4.49,4.49,0,0,0,1,3,3.26,3.26,0,0,0,2.56,1.18,3.41,3.41,0,0,0,2.67-1.14,4.9,4.9,0,0,0,0-6,3.38,3.38,0,0,0-2.64-1.14,3.27,3.27,0,0,0-2.56,1.16A4.25,4.25,0,0,0,222.57,294.44Z"/><path class="cls-2" d="M243.79,290.24l-2.45,1.31c-.39-.79-.87-1.19-1.44-1.19a1,1,0,0,0-.7.27.92.92,0,0,0-.29.7c0,.49.57,1,1.72,1.46a10.23,10.23,0,0,1,3.17,1.87,3.18,3.18,0,0,1,.82,2.31,4,4,0,0,1-1.37,3.11,4.91,4.91,0,0,1-7.79-2l2.53-1.17a5.28,5.28,0,0,0,.8,1.17,1.85,1.85,0,0,0,1.3.51q1.5,0,1.5-1.38c0-.52-.39-1-1.16-1.47l-.9-.44-.91-.43a5.68,5.68,0,0,1-1.82-1.27,3.14,3.14,0,0,1-.67-2.07,3.66,3.66,0,0,1,1.15-2.77,4,4,0,0,1,2.85-1.09A3.89,3.89,0,0,1,243.79,290.24Z"/><path class="cls-2" d="M259,295.17h-9.2a3.87,3.87,0,0,0,1,2.52,3.1,3.1,0,0,0,2.33.93,3,3,0,0,0,1.83-.53,7.23,7.23,0,0,0,1.62-1.95l2.51,1.39a10.21,10.21,0,0,1-1.23,1.7,6.45,6.45,0,0,1-1.38,1.16,5.63,5.63,0,0,1-1.6.66,7.3,7.3,0,0,1-1.86.22,6,6,0,0,1-4.61-1.85,6.92,6.92,0,0,1-1.74-4.93,7.1,7.1,0,0,1,1.69-4.93,6.42,6.42,0,0,1,9-.05,7.09,7.09,0,0,1,1.63,5Zm-3.05-2.42a2.84,2.84,0,0,0-3-2.37,3,3,0,0,0-1,.16,2.85,2.85,0,0,0-.87.48,2.76,2.76,0,0,0-.66.74,3.41,3.41,0,0,0-.43,1Z"/><path class="cls-2" d="M262.22,288.06h3v1.18a4.87,4.87,0,0,1,3.51-1.54,4.42,4.42,0,0,1,3.49,1.41,5.79,5.79,0,0,1,1.08,3.92v7.87h-3v-7.18a4.72,4.72,0,0,0-.52-2.62,2.15,2.15,0,0,0-1.88-.74,2.28,2.28,0,0,0-2.09,1,6.63,6.63,0,0,0-.61,3.36v6.2h-3Z"/><rect class="cls-2" x="75.21" y="315.22" width="218.44" height="1.58"/><rect class="cls-2" x="75.69" y="329.24" width="218.44" height="1.58"/><rect class="cls-2" x="75.69" y="343.25" width="218.44" height="1.58"/><rect class="cls-14" x="55.38" y="587.08" width="258.58" height="109.49"/><path class="cls-2" d="M77.4,627.5V607.15h4.27a15.65,15.65,0,0,1,4.85.6,9.13,9.13,0,0,1,3.47,2,10.53,10.53,0,0,1-.13,15.15,9.58,9.58,0,0,1-3.45,2,15.67,15.67,0,0,1-4.79.57Zm3.07-2.89h1.39a11.59,11.59,0,0,0,3.44-.43,7.19,7.19,0,0,0,2.48-1.46,7,7,0,0,0,2.26-5.4,7.05,7.05,0,0,0-2.24-5.43q-2-1.86-5.94-1.86H80.47Z"/><path class="cls-2" d="M105.9,614.66h3V627.5h-3v-1.34a5.7,5.7,0,0,1-8.34-.21A7.18,7.18,0,0,1,95.83,621a6.94,6.94,0,0,1,1.73-4.81,5.57,5.57,0,0,1,4.32-1.93,5.45,5.45,0,0,1,4,1.85Zm-7,6.38a4.49,4.49,0,0,0,1,3,3.25,3.25,0,0,0,2.56,1.17,3.4,3.4,0,0,0,2.66-1.13,4.86,4.86,0,0,0,0-6,3.32,3.32,0,0,0-2.63-1.15,3.29,3.29,0,0,0-2.56,1.16A4.26,4.26,0,0,0,98.86,621Z"/><path class="cls-2" d="M112.63,614.66h3v1.19a4.84,4.84,0,0,1,3.5-1.55,4.44,4.44,0,0,1,3.5,1.41,5.79,5.79,0,0,1,1.08,3.92v7.87h-3v-7.17a4.68,4.68,0,0,0-.53-2.62,2.1,2.1,0,0,0-1.87-.74,2.31,2.31,0,0,0-2.1,1,6.79,6.79,0,0,0-.6,3.36v6.2h-3Z"/><path class="cls-2" d="M134.9,616.85l-2.46,1.3c-.38-.79-.86-1.18-1.43-1.18a1,1,0,0,0-.7.27.88.88,0,0,0-.29.69c0,.49.57,1,1.71,1.46a10.22,10.22,0,0,1,3.18,1.88,3.22,3.22,0,0,1,.82,2.3,4,4,0,0,1-1.38,3.11,4.91,4.91,0,0,1-7.79-2l2.53-1.17a5.77,5.77,0,0,0,.81,1.17,1.85,1.85,0,0,0,1.29.5c1,0,1.5-.46,1.5-1.37,0-.53-.38-1-1.16-1.48l-.89-.43-.91-.44a5.57,5.57,0,0,1-1.82-1.26,3.12,3.12,0,0,1-.67-2.07,3.67,3.67,0,0,1,1.14-2.77,4,4,0,0,1,2.85-1.1A3.89,3.89,0,0,1,134.9,616.85Z"/><path class="cls-2" d="M141.35,605.23v13.58l4.18-4.15h4l-5.58,5.39,6,7.45h-3.85l-4.24-5.42-.48.48v4.94h-3V605.23Z"/><path class="cls-2" d="M163.09,621.78h-9.2a3.92,3.92,0,0,0,1,2.52,3.17,3.17,0,0,0,2.33.92,3.08,3.08,0,0,0,1.84-.53,7.62,7.62,0,0,0,1.62-2l2.5,1.4a9.55,9.55,0,0,1-1.22,1.69A6.26,6.26,0,0,1,160.6,627a5.32,5.32,0,0,1-1.59.67,7.79,7.79,0,0,1-1.86.21,6.06,6.06,0,0,1-4.62-1.85,6.9,6.9,0,0,1-1.74-4.93,7.14,7.14,0,0,1,1.69-4.93,6.42,6.42,0,0,1,9,0,7.11,7.11,0,0,1,1.64,5Zm-3-2.43a2.84,2.84,0,0,0-3-2.37,3.12,3.12,0,0,0-1,.17,2.89,2.89,0,0,0-.86.47,3.22,3.22,0,0,0-.67.75,3.62,3.62,0,0,0-.42,1Z"/><path class="cls-2" d="M175.24,627.5V607.15h3.06a13.45,13.45,0,0,1,3.25.31,4.87,4.87,0,0,1,2.07,1.07,5.47,5.47,0,0,1,1.36,1.94,5.88,5.88,0,0,1,.51,2.37,4.8,4.8,0,0,1-1.67,3.71,5,5,0,0,1,2.56,1.93,5.74,5.74,0,0,1-.74,7.23,5.61,5.61,0,0,1-2.28,1.41,13.49,13.49,0,0,1-3.47.38Zm3.07-11.61h1a3.57,3.57,0,0,0,2.51-.76,3,3,0,0,0,.8-2.24,2.8,2.8,0,0,0-.82-2.18,3.42,3.42,0,0,0-2.37-.74h-1.08Zm0,8.72h1.9a4.75,4.75,0,0,0,3.06-.81,2.84,2.84,0,0,0,1-2.24,2.91,2.91,0,0,0-1-2.22,5.15,5.15,0,0,0-3.45-.88h-1.55Z"/><path class="cls-2" d="M200.1,614.66h3V627.5h-3v-1.34a5.7,5.7,0,0,1-8.34-.21A7.13,7.13,0,0,1,190,621a6.9,6.9,0,0,1,1.73-4.81,5.57,5.57,0,0,1,4.32-1.93,5.48,5.48,0,0,1,4,1.85Zm-7,6.38a4.49,4.49,0,0,0,1,3,3.25,3.25,0,0,0,2.56,1.17,3.42,3.42,0,0,0,2.66-1.13,4.86,4.86,0,0,0,0-6,3.35,3.35,0,0,0-2.64-1.15,3.27,3.27,0,0,0-2.55,1.16A4.26,4.26,0,0,0,193.06,621Z"/><path class="cls-2" d="M206.82,614.66h3v1.19a4.88,4.88,0,0,1,3.51-1.55,4.41,4.41,0,0,1,3.49,1.41,5.74,5.74,0,0,1,1.09,3.92v7.87h-3v-7.17a4.68,4.68,0,0,0-.53-2.62,2.11,2.11,0,0,0-1.87-.74,2.28,2.28,0,0,0-2.1,1,6.77,6.77,0,0,0-.61,3.36v6.2h-3Z"/><path class="cls-2" d="M224.6,605.23v13.58l4.18-4.15h4l-5.58,5.39,6,7.45h-3.85l-4.25-5.42-.47.48v4.94h-3V605.23Z"/><path class="cls-2" d="M255.93,622.56h-8.71L245,627.5h-3.31l10.07-21.63,9.72,21.63h-3.36Zm-1.25-2.89-3-6.92-3.16,6.92Z"/><path class="cls-2" d="M273,605l2.45,1.08-11.65,27L261.35,632Z"/><path class="cls-2" d="M289.47,610.18,287,611.65a4.34,4.34,0,0,0-1.33-1.58,3.53,3.53,0,0,0-3.82.31,2.22,2.22,0,0,0-.85,1.79q0,1.49,2.22,2.4l2,.83a8.67,8.67,0,0,1,3.62,2.44,5.51,5.51,0,0,1,1.15,3.54,6.19,6.19,0,0,1-1.87,4.64,6.44,6.44,0,0,1-4.68,1.85,6.24,6.24,0,0,1-4.38-1.57,7.22,7.22,0,0,1-2.12-4.42l3.11-.68a5.34,5.34,0,0,0,.74,2.48A3.49,3.49,0,0,0,286,624a3.29,3.29,0,0,0,.95-2.44,3.4,3.4,0,0,0-.16-1.08,2.59,2.59,0,0,0-.52-.91,3.89,3.89,0,0,0-.9-.78,8.94,8.94,0,0,0-1.32-.69l-2-.82q-4.19-1.77-4.18-5.17a4.87,4.87,0,0,1,1.75-3.83,6.33,6.33,0,0,1,4.37-1.56A6.08,6.08,0,0,1,289.47,610.18Z"/><rect class="cls-2" x="75.21" y="641.83" width="218.44" height="1.58"/><rect class="cls-2" x="75.69" y="655.84" width="218.44" height="1.58"/><rect class="cls-2" x="75.69" y="669.86" width="218.44" height="1.58"/><rect class="cls-14" x="55.87" y="149.41" width="258.58" height="109.49"/><path class="cls-2" d="M84.78,181.15l6.3,8.68H87.33l-5.82-8.33H81v8.33H77.89V169.47h3.6q4,0,5.82,1.52a5.56,5.56,0,0,1,2,4.46,5.73,5.73,0,0,1-1.24,3.71A5.47,5.47,0,0,1,84.78,181.15ZM81,178.82h1c2.9,0,4.36-1.11,4.36-3.33s-1.42-3.13-4.25-3.13H81Z"/><path class="cls-2" d="M104.84,184.11H95.63a4,4,0,0,0,1,2.52,3.17,3.17,0,0,0,2.34.92,3.07,3.07,0,0,0,1.83-.53,7.62,7.62,0,0,0,1.62-2l2.5,1.4a9.55,9.55,0,0,1-1.22,1.69,6.26,6.26,0,0,1-1.39,1.16,5.59,5.59,0,0,1-1.59.67,7.79,7.79,0,0,1-1.86.21,6,6,0,0,1-4.61-1.85,6.92,6.92,0,0,1-1.74-4.93,7.14,7.14,0,0,1,1.68-4.93,5.83,5.83,0,0,1,4.51-1.86,5.73,5.73,0,0,1,4.48,1.81,7.09,7.09,0,0,1,1.64,5Zm-3-2.43a2.84,2.84,0,0,0-3-2.37,3.11,3.11,0,0,0-1,.16,2.92,2.92,0,0,0-.86.48,3,3,0,0,0-.67.74,3.69,3.69,0,0,0-.42,1Z"/><path class="cls-2" d="M107.63,171.65a1.85,1.85,0,0,1,.57-1.35,1.88,1.88,0,0,1,1.36-.56,1.9,1.9,0,0,1,1.37.56,1.94,1.94,0,0,1,0,2.73,1.84,1.84,0,0,1-1.36.57,1.95,1.95,0,0,1-1.94-1.95ZM111,177v19.83h-3V177Z"/><path class="cls-2" d="M122.26,179.18l-2.45,1.3c-.38-.79-.86-1.18-1.43-1.18a1,1,0,0,0-.7.27.88.88,0,0,0-.29.69c0,.49.57,1,1.71,1.46a10.44,10.44,0,0,1,3.18,1.87,3.22,3.22,0,0,1,.81,2.31,4,4,0,0,1-1.37,3.11,4.91,4.91,0,0,1-7.79-2l2.53-1.18a5.26,5.26,0,0,0,.81,1.18,1.85,1.85,0,0,0,1.29.5c1,0,1.5-.46,1.5-1.37,0-.53-.38-1-1.16-1.48l-.89-.43-.91-.44a5.32,5.32,0,0,1-1.82-1.27,3.08,3.08,0,0,1-.68-2.06,3.68,3.68,0,0,1,1.15-2.77,4,4,0,0,1,2.85-1.1A3.88,3.88,0,0,1,122.26,179.18Z"/><path class="cls-2" d="M137.45,184.11h-9.2a3.92,3.92,0,0,0,1,2.52,3.13,3.13,0,0,0,2.33.92,3,3,0,0,0,1.83-.53,7.41,7.41,0,0,0,1.63-2l2.5,1.4a10.11,10.11,0,0,1-1.23,1.69,6.45,6.45,0,0,1-1.38,1.16,5.53,5.53,0,0,1-1.6.67,7.76,7.76,0,0,1-1.85.21,6.06,6.06,0,0,1-4.62-1.85,6.92,6.92,0,0,1-1.74-4.93,7.1,7.1,0,0,1,1.69-4.93,5.82,5.82,0,0,1,4.51-1.86,5.75,5.75,0,0,1,4.48,1.81,7.09,7.09,0,0,1,1.63,5Zm-3-2.43a2.85,2.85,0,0,0-3-2.37,3,3,0,0,0-1,.16,2.69,2.69,0,0,0-.86.48,2.8,2.8,0,0,0-.67.74,3.15,3.15,0,0,0-.42,1Z"/><path class="cls-2" d="M143.66,167.56v13.58l4.18-4.15h4l-5.57,5.39,6,7.45h-3.85l-4.24-5.42-.48.48v4.94h-3V167.56Z"/><path class="cls-2" d="M153,183.32a6.38,6.38,0,0,1,2-4.74,6.65,6.65,0,0,1,4.85-2,6.73,6.73,0,0,1,4.88,2,6.88,6.88,0,0,1,0,9.66,6.8,6.8,0,0,1-4.92,1.94,6.51,6.51,0,0,1-4.83-2A6.64,6.64,0,0,1,153,183.32Zm3,.05a4.29,4.29,0,0,0,1,3,3.6,3.6,0,0,0,2.78,1.14,3.65,3.65,0,0,0,2.78-1.12,4.83,4.83,0,0,0,0-6,4,4,0,0,0-5.54,0A4.14,4.14,0,0,0,156,183.37Z"/><path class="cls-2" d="M169.83,177h3v1.15a5.46,5.46,0,0,1,1.45-1.18,3.32,3.32,0,0,1,1.53-.33,4.79,4.79,0,0,1,2.45.77l-1.36,2.71a2.84,2.84,0,0,0-1.65-.6q-2.41,0-2.42,3.66v6.66h-3Z"/><path class="cls-2" d="M184,179.76v10.07h-3V179.76h-1.27V177H181v-4.71h3V177h2.31v2.77Z"/><path class="cls-2" d="M209.14,184.89h-8.71l-2.27,4.94h-3.31l10.08-21.64,9.71,21.64h-3.36ZM207.89,182l-3-6.92L201.71,182Z"/><path class="cls-2" d="M226.19,167.34l2.45,1.08-11.65,27-2.43-1.09Z"/><path class="cls-2" d="M242.68,172.51,240.19,174a4.26,4.26,0,0,0-1.33-1.58,3.55,3.55,0,0,0-3.82.3,2.25,2.25,0,0,0-.85,1.8q0,1.49,2.22,2.4l2,.83a8.57,8.57,0,0,1,3.62,2.44,5.47,5.47,0,0,1,1.15,3.54,6.21,6.21,0,0,1-1.87,4.64,6.44,6.44,0,0,1-4.68,1.85,6.24,6.24,0,0,1-4.38-1.57,7.25,7.25,0,0,1-2.12-4.42l3.11-.68A5.34,5.34,0,0,0,234,186a3.51,3.51,0,0,0,5.15.35,3.29,3.29,0,0,0,1-2.44,3.5,3.5,0,0,0-.16-1.09,2.64,2.64,0,0,0-.52-.9,3.89,3.89,0,0,0-.9-.78,8.94,8.94,0,0,0-1.32-.69l-2-.82q-4.19-1.77-4.18-5.17a4.91,4.91,0,0,1,1.75-3.84,6.38,6.38,0,0,1,4.37-1.55A6.08,6.08,0,0,1,242.68,172.51Z"/><rect class="cls-2" x="75.69" y="204.15" width="218.44" height="1.58"/><rect class="cls-2" x="76.18" y="218.17" width="218.44" height="1.58"/><rect class="cls-2" x="76.18" y="232.19" width="218.44" height="1.58"/><rect class="cls-13" x="314.45" y="59.72" width="408.68" height="89.69"/><path class="cls-2" d="M345.41,86.34h-6.78l-1.76,3.84h-2.58l7.84-16.82,7.56,16.82h-2.62Zm-1-2.25-2.35-5.38-2.46,5.38Z"/><path class="cls-2" d="M359.57,76.6h-5.52v3.8h5.33v2.25h-5.33v7.53h-2.38V74.35h7.9Z"/><path class="cls-2" d="M371.29,76.71l-1.94,1.15a3.27,3.27,0,0,0-1-1.23A2.43,2.43,0,0,0,367,76.3a2.48,2.48,0,0,0-1.65.56,1.78,1.78,0,0,0-.65,1.4c0,.77.57,1.39,1.72,1.86l1.58.65a6.8,6.8,0,0,1,2.82,1.9,4.33,4.33,0,0,1,.89,2.76,4.82,4.82,0,0,1-1.45,3.6,5,5,0,0,1-3.65,1.44,4.89,4.89,0,0,1-3.4-1.22,5.63,5.63,0,0,1-1.65-3.44l2.42-.53a4.2,4.2,0,0,0,.57,1.93,2.51,2.51,0,0,0,2.16,1,2.48,2.48,0,0,0,1.85-.74,2.82,2.82,0,0,0,.61-2.75,2.05,2.05,0,0,0-.4-.7,3,3,0,0,0-.7-.61,6.88,6.88,0,0,0-1-.54l-1.53-.63q-3.25-1.38-3.25-4a3.82,3.82,0,0,1,1.36-3A5,5,0,0,1,367,74,4.73,4.73,0,0,1,371.29,76.71Z"/><path class="cls-2" d="M383.32,76.6H377v3.8h6.16v2.25H377v5.29h6.35v2.24h-8.74V74.35h8.74Z"/><path class="cls-2" d="M386.46,90.18V73.27L398,85.35v-11h2.39v16.8L388.85,79.1V90.18Z"/><path class="cls-2" d="M404.19,90.18V74.35h3.32a12.21,12.21,0,0,1,3.77.47,7.12,7.12,0,0,1,2.7,1.57,7.59,7.59,0,0,1,2.45,5.88,7.5,7.5,0,0,1-2.55,5.9,7.32,7.32,0,0,1-2.69,1.57,12.08,12.08,0,0,1-3.72.44Zm2.38-2.24h1.08a9.2,9.2,0,0,0,2.68-.34,5.51,5.51,0,0,0,1.93-1.14A5.42,5.42,0,0,0,414,82.27,5.51,5.51,0,0,0,412.28,78a6.64,6.64,0,0,0-4.63-1.44h-1.08Z"/><path class="cls-2" d="M428.17,76.6h-6.35v3.8H428v2.25h-6.16v5.29h6.35v2.24h-8.74V74.35h8.74Z"/><path class="cls-2" d="M436.67,83.44l4.9,6.74h-2.92l-4.52-6.48h-.43v6.48h-2.39V74.35h2.8a7,7,0,0,1,4.53,1.18A4.36,4.36,0,0,1,440.18,79a4.47,4.47,0,0,1-1,2.89A4.35,4.35,0,0,1,436.67,83.44Zm-3-1.82h.76c2.26,0,3.39-.86,3.39-2.59s-1.1-2.43-3.3-2.43h-.85Z"/><path class="cls-2" d="M443.87,81.32a1.43,1.43,0,0,1,1.42-1.4,1.38,1.38,0,0,1,1,.42,1.36,1.36,0,0,1,.42,1,1.43,1.43,0,0,1-2.44,1A1.37,1.37,0,0,1,443.87,81.32Zm0,7.71a1.43,1.43,0,0,1,1.42-1.41,1.43,1.43,0,0,1,1,2.44,1.4,1.4,0,0,1-1,.41A1.4,1.4,0,0,1,443.87,89Z"/><path class="cls-2" d="M488.05,75.2V78a6.65,6.65,0,0,0-4.28-1.73,5.47,5.47,0,0,0-4.12,1.75A5.92,5.92,0,0,0,478,82.32a5.76,5.76,0,0,0,1.68,4.2,5.58,5.58,0,0,0,4.13,1.71,5,5,0,0,0,2.14-.41,5.71,5.71,0,0,0,1-.55,11.6,11.6,0,0,0,1.11-.84v2.88a8.62,8.62,0,0,1-4.3,1.16A8,8,0,0,1,478,88.1a7.85,7.85,0,0,1-2.39-5.76,8.11,8.11,0,0,1,2-5.39A8,8,0,0,1,483.93,74,8.09,8.09,0,0,1,488.05,75.2Z"/><path class="cls-2" d="M498,80.2h2.32v10H498v-1A4.43,4.43,0,0,1,491.5,89a5.55,5.55,0,0,1-1.35-3.81,5.35,5.35,0,0,1,1.35-3.74,4.33,4.33,0,0,1,6.49-.07Zm-5.48,5a3.49,3.49,0,0,0,.77,2.34,2.55,2.55,0,0,0,2,.91,2.62,2.62,0,0,0,2.07-.88,3.8,3.8,0,0,0,0-4.64,2.61,2.61,0,0,0-2-.89,2.57,2.57,0,0,0-2,.9A3.36,3.36,0,0,0,492.51,85.16Z"/><path class="cls-2" d="M503.22,80.2h2.3v.92a4.76,4.76,0,0,1,1.14-.94,2.67,2.67,0,0,1,1.26-.26,3.06,3.06,0,0,1,2.68,1.48,3.46,3.46,0,0,1,2.94-1.48q3.38,0,3.38,4.09v6.17H514.6V84.64a4.28,4.28,0,0,0-.35-2,1.25,1.25,0,0,0-1.18-.61,1.51,1.51,0,0,0-1.39.72,4.65,4.65,0,0,0-.43,2.31v5.15h-2.32V84.67c0-1.78-.51-2.67-1.54-2.67a1.54,1.54,0,0,0-1.42.73,4.5,4.5,0,0,0-.45,2.3v5.15h-2.3Z"/><path class="cls-2" d="M519.48,76A1.5,1.5,0,0,1,522,75a1.38,1.38,0,0,1,.44,1A1.5,1.5,0,0,1,521,77.56,1.5,1.5,0,0,1,519.48,76Zm2.66,4.16v10h-2.31v-10Z"/><path class="cls-2" d="M527.37,72.86V90.18h-2.31V72.86Z"/><path class="cls-2" d="M532.6,72.86V90.18h-2.31V72.86Z"/><path class="cls-2" d="M542.88,80.2h2.32v10h-2.32v-1a4.43,4.43,0,0,1-6.49-.17,5.54,5.54,0,0,1-1.34-3.81,5.35,5.35,0,0,1,1.34-3.74,4.32,4.32,0,0,1,3.36-1.5,4.27,4.27,0,0,1,3.13,1.43Zm-5.48,5a3.49,3.49,0,0,0,.77,2.34,2.55,2.55,0,0,0,2,.91,2.62,2.62,0,0,0,2.07-.88,3.8,3.8,0,0,0,0-4.64,2.61,2.61,0,0,0-2.05-.89,2.57,2.57,0,0,0-2,.9A3.36,3.36,0,0,0,537.4,85.16Z"/><path class="cls-2" d="M554.48,90.18l3.33-17,5.43,12.31,5.63-12.31,3,17h-2.45l-1.53-9.55L563.2,90.91l-4.55-10.29L557,90.18Z"/><path class="cls-2" d="M582.14,80.2h2.32v10h-2.32v-1a4.43,4.43,0,0,1-6.49-.17,5.59,5.59,0,0,1-1.34-3.81,5.39,5.39,0,0,1,1.34-3.74,4.34,4.34,0,0,1,3.36-1.5,4.25,4.25,0,0,1,3.13,1.43Zm-5.47,5a3.44,3.44,0,0,0,.77,2.34,2.51,2.51,0,0,0,2,.91,2.65,2.65,0,0,0,2.08-.88,3.8,3.8,0,0,0,0-4.64,2.63,2.63,0,0,0-2-.89,2.54,2.54,0,0,0-2,.9A3.31,3.31,0,0,0,576.67,85.16Z"/><path class="cls-2" d="M594.73,72.86h2.32V90.18h-2.32v-1a4.28,4.28,0,0,1-3.08,1.33,4.41,4.41,0,0,1-3.41-1.5,5.59,5.59,0,0,1-1.34-3.81,5.39,5.39,0,0,1,1.34-3.73,4.32,4.32,0,0,1,6.49-.08Zm-5.47,12.3A3.44,3.44,0,0,0,590,87.5a2.53,2.53,0,0,0,2,.91,2.65,2.65,0,0,0,2.07-.88,3.8,3.8,0,0,0,0-4.64A2.63,2.63,0,0,0,592,82a2.54,2.54,0,0,0-2,.9A3.31,3.31,0,0,0,589.26,85.16Z"/><path class="cls-2" d="M605.77,81.9l-1.91,1c-.3-.61-.67-.92-1.12-.92a.76.76,0,0,0-.54.21.71.71,0,0,0-.23.54c0,.38.45.76,1.34,1.14a8,8,0,0,1,2.47,1.45,2.53,2.53,0,0,1,.63,1.8,3.15,3.15,0,0,1-1.06,2.42,3.67,3.67,0,0,1-2.51.92A3.62,3.62,0,0,1,599.29,88l2-.91a4.25,4.25,0,0,0,.62.91,1.44,1.44,0,0,0,1,.39c.78,0,1.16-.36,1.16-1.07,0-.41-.3-.79-.9-1.15l-.69-.33-.71-.34a4.44,4.44,0,0,1-1.42-1,2.4,2.4,0,0,1-.52-1.61,2.87,2.87,0,0,1,.89-2.15,3.13,3.13,0,0,1,2.22-.85A3,3,0,0,1,605.77,81.9Z"/><path class="cls-2" d="M617.58,85.73h-7.16a3,3,0,0,0,.8,2,2.44,2.44,0,0,0,1.82.72,2.36,2.36,0,0,0,1.42-.41,5.72,5.72,0,0,0,1.26-1.52l1.95,1.09a8.31,8.31,0,0,1-.95,1.32,5.61,5.61,0,0,1-1.08.9,4.4,4.4,0,0,1-1.24.52,6,6,0,0,1-1.44.16A4.68,4.68,0,0,1,609.37,89,5.34,5.34,0,0,1,608,85.2a5.53,5.53,0,0,1,1.32-3.84,5,5,0,0,1,7,0,5.52,5.52,0,0,1,1.27,3.87Zm-2.37-1.88A2.22,2.22,0,0,0,612.88,82a2.3,2.3,0,0,0-.79.13,2.2,2.2,0,0,0-.67.37,2.42,2.42,0,0,0-.52.58,2.55,2.55,0,0,0-.32.77Z"/><path class="cls-2" d="M620.1,80.2h2.32v.92a3.8,3.8,0,0,1,2.73-1.2,3.41,3.41,0,0,1,2.71,1.1,4.47,4.47,0,0,1,.85,3v6.12h-2.32V84.6a3.71,3.71,0,0,0-.41-2,1.67,1.67,0,0,0-1.46-.57,1.78,1.78,0,0,0-1.63.76,5.27,5.27,0,0,0-.47,2.61v4.82H620.1Z"/><path class="cls-2" d="M342.12,111.8v13.58h-2.39V111.8h-3.64v-2.25h9.66v2.25Z"/><path class="cls-2" d="M350.27,109.55v15.83h-2.39V109.55Z"/><path class="cls-2" d="M356.47,109.55v13.59h4.65v2.24h-7V109.55Z"/><path class="cls-2" d="M363.31,116.52a1.43,1.43,0,0,1,1.42-1.4,1.38,1.38,0,0,1,1,.42,1.36,1.36,0,0,1,.42,1,1.42,1.42,0,0,1-1.43,1.43,1.42,1.42,0,0,1-1.42-1.45Zm0,7.71a1.43,1.43,0,0,1,1.42-1.41,1.38,1.38,0,0,1,1,.42,1.36,1.36,0,0,1,.42,1,1.44,1.44,0,0,1-2.44,1A1.37,1.37,0,0,1,363.31,124.23Z"/><path class="cls-2" d="M477.38,115.4h2.31v.92a4.4,4.4,0,0,1,1.14-.94,2.62,2.62,0,0,1,1.26-.26,3.06,3.06,0,0,1,2.68,1.48,3.44,3.44,0,0,1,2.94-1.48q3.38,0,3.37,4.09v6.17h-2.31v-5.54a4.28,4.28,0,0,0-.35-2,1.26,1.26,0,0,0-1.18-.61,1.5,1.5,0,0,0-1.39.72,4.64,4.64,0,0,0-.44,2.31v5.15h-2.32v-5.51q0-2.67-1.53-2.67a1.53,1.53,0,0,0-1.42.73,4.5,4.5,0,0,0-.45,2.3v5.15h-2.31Z"/><path class="cls-2" d="M493.65,111.24a1.5,1.5,0,0,1,1.49-1.48,1.5,1.5,0,0,1,1.51,1.49,1.46,1.46,0,0,1-.44,1.07,1.44,1.44,0,0,1-1.06.44,1.46,1.46,0,0,1-1.06-.44A1.43,1.43,0,0,1,493.65,111.24Zm2.65,4.16v10H494v-10Z"/><path class="cls-2" d="M508.88,125.15c0,.47,0,.88,0,1.24a9.53,9.53,0,0,1-.13,1,4.38,4.38,0,0,1-1,1.94,4.7,4.7,0,0,1-3.73,1.56,5,5,0,0,1-3.29-1.08,4.41,4.41,0,0,1-1.54-3.06h2.32a2.64,2.64,0,0,0,.44,1.13,2.47,2.47,0,0,0,2.09.94c1.69,0,2.54-1,2.54-3.11v-1.39a4.35,4.35,0,0,1-3.17,1.4,4.26,4.26,0,0,1-3.35-1.48,5.47,5.47,0,0,1-1.31-3.74,5.77,5.77,0,0,1,1.22-3.71,4.25,4.25,0,0,1,3.47-1.62,4.05,4.05,0,0,1,3.14,1.4V115.4h2.3Zm-2.21-4.74a3.37,3.37,0,0,0-.78-2.33,2.6,2.6,0,0,0-2-.89,2.46,2.46,0,0,0-2.07,1,3.56,3.56,0,0,0-.69,2.26,3.52,3.52,0,0,0,.69,2.24,2.5,2.5,0,0,0,2.07,1,2.53,2.53,0,0,0,2.09-1A3.47,3.47,0,0,0,506.67,120.41Z"/><rect class="cls-13" x="1212.29" y="77.48" width="82.44" height="34.09"/><path class="cls-2" d="M1230.4,97.54h5.9v2.25h-10.64l5.5-6.65c.54-.67,1-1.24,1.36-1.73a12.77,12.77,0,0,0,.83-1.22,3.43,3.43,0,0,0,.59-1.73,2.48,2.48,0,0,0-.78-1.86,2.67,2.67,0,0,0-1.93-.75c-1.6,0-2.52,1-2.75,2.85h-2.38c.39-3.34,2.07-5,5.06-5a5.1,5.1,0,0,1,3.63,1.38,4.46,4.46,0,0,1,1.47,3.4,5.11,5.11,0,0,1-.68,2.53,12.57,12.57,0,0,1-1,1.54c-.45.59-1,1.29-1.7,2.09Z"/><path class="cls-2" d="M1243.54,92.44v-2a4.23,4.23,0,0,0,2-.34,2.1,2.1,0,0,0,.93-1.91,2.17,2.17,0,0,0-.68-1.65,2.38,2.38,0,0,0-1.73-.65,2.26,2.26,0,0,0-1.54.49,3.18,3.18,0,0,0-.78,1.66h-2.38a5.51,5.51,0,0,1,1.52-3.28,4.64,4.64,0,0,1,3.21-1,4.74,4.74,0,0,1,3.39,1.23,4.1,4.1,0,0,1,1.32,3.15,3.89,3.89,0,0,1-1.73,3.38,4,4,0,0,1,2,3.77,4.58,4.58,0,0,1-1.43,3.48,5.14,5.14,0,0,1-3.68,1.36,4.72,4.72,0,0,1-4.25-2.11,5.42,5.42,0,0,1-.73-2.44h2.31a2.58,2.58,0,0,0,2.76,2.37,2.57,2.57,0,0,0,1.92-.77,2.77,2.77,0,0,0,.75-2,2.44,2.44,0,0,0-1.13-2.27A4.25,4.25,0,0,0,1243.54,92.44Z"/><path class="cls-2" d="M1252.88,90.93a1.33,1.33,0,0,1,.42-1,1.36,1.36,0,0,1,1-.42,1.38,1.38,0,0,1,1,.42,1.36,1.36,0,0,1,.42,1,1.43,1.43,0,1,1-2.85,0Zm0,7.71a1.43,1.43,0,0,1,1.42-1.41,1.38,1.38,0,0,1,1,.42,1.36,1.36,0,0,1,.42,1,1.43,1.43,0,1,1-2.85,0Z"/><path class="cls-2" d="M1263.23,86.19h-2.73l1.31-2.23h3.81V99.79h-2.39Z"/><path class="cls-2" d="M1273.13,86.19h-2.74L1271.7,84h3.82V99.79h-2.39Z"/><rect class="cls-16" x="369.26" y="172.6" width="665.3" height="91.13"/><path d="M390.84,192h5.86v-5.3h2.05v13.57H396.7v-6.34h-5.86v6.34h-2V186.68h2Z"/><path d="M409.42,196.43h-6.14a2.58,2.58,0,0,0,.69,1.68,2.08,2.08,0,0,0,1.55.62,2,2,0,0,0,1.22-.36,4.84,4.84,0,0,0,1.09-1.3l1.67.93a7,7,0,0,1-.82,1.13,4.19,4.19,0,0,1-.93.78,3.55,3.55,0,0,1-1.06.44,4.86,4.86,0,0,1-1.24.14,4,4,0,0,1-3.07-1.23,4.58,4.58,0,0,1-1.16-3.29,4.73,4.73,0,0,1,1.12-3.28,3.88,3.88,0,0,1,3-1.24,3.83,3.83,0,0,1,3,1.2,4.73,4.73,0,0,1,1.09,3.32Zm-2-1.62a1.9,1.9,0,0,0-2-1.58,2.15,2.15,0,0,0-.68.11,2,2,0,0,0-.57.32,2.17,2.17,0,0,0-.45.5,2.55,2.55,0,0,0-.28.65Z"/><path d="M414,198.66l-3.85-7h2.29l2.62,4.92,2.45-4.92h2.23l-6.82,13.21h-2.26Z"/><path d="M421.57,199.26a1.16,1.16,0,0,1,.36-.85,1.18,1.18,0,0,1,.86-.36,1.16,1.16,0,0,1,.86.36,1.22,1.22,0,0,1,0,1.73,1.14,1.14,0,0,1-.86.35,1.18,1.18,0,0,1-.87-.35A1.21,1.21,0,0,1,421.57,199.26Zm.23-2V186.68h2v10.54Z"/><path d="M392.54,235.4v11.65h-2.05V235.4h-3.12v-1.92h8.28v1.92Z"/><path d="M397.13,234.93a1.19,1.19,0,0,1,.38-.9,1.23,1.23,0,0,1,.9-.38,1.28,1.28,0,0,1,.92.38,1.22,1.22,0,0,1,.37.9,1.25,1.25,0,0,1-.37.92,1.28,1.28,0,0,1-1.82,0A1.22,1.22,0,0,1,397.13,234.93Zm2.28,3.56V251.7h-2V238.49Z"/><path d="M409.71,243.23h-6.14a2.58,2.58,0,0,0,.69,1.68,2.08,2.08,0,0,0,1.55.62,2,2,0,0,0,1.22-.36,4.84,4.84,0,0,0,1.09-1.3l1.67.93a7,7,0,0,1-.82,1.13,4.19,4.19,0,0,1-.93.78,3.55,3.55,0,0,1-1.06.44,4.86,4.86,0,0,1-1.24.14,4,4,0,0,1-3.07-1.23,4.58,4.58,0,0,1-1.16-3.29,4.73,4.73,0,0,1,1.12-3.28,3.88,3.88,0,0,1,3-1.24,3.83,3.83,0,0,1,3,1.2,4.73,4.73,0,0,1,1.09,3.32Zm-2-1.62a1.9,1.9,0,0,0-2-1.58,2.15,2.15,0,0,0-.68.11,2,2,0,0,0-.57.32,2.17,2.17,0,0,0-.45.5,2.55,2.55,0,0,0-.28.65Z"/><path d="M413.85,232.2v9.05l2.78-2.76h2.66l-3.72,3.59,4,5H417l-2.83-3.62-.31.32v3.3h-2V232.2Z"/><path d="M428.37,232.2v14.85h-2V232.2Z"/><path d="M430.57,234.93a1.3,1.3,0,0,1,1.28-1.28,1.26,1.26,0,0,1,.92.38,1.23,1.23,0,0,1,.38.9,1.26,1.26,0,0,1-.38.92,1.24,1.24,0,0,1-.91.38,1.3,1.3,0,0,1-1.29-1.3Zm2.28,3.56v8.56h-2v-8.56Z"/><path d="M443.63,246.84c0,.41,0,.76,0,1.07a5.48,5.48,0,0,1-.11.81,3.65,3.65,0,0,1-.82,1.67,4,4,0,0,1-3.19,1.33,4.3,4.3,0,0,1-2.83-.92,3.74,3.74,0,0,1-1.31-2.63h2a2.28,2.28,0,0,0,.38,1,2.13,2.13,0,0,0,1.79.8c1.45,0,2.17-.89,2.17-2.67v-1.19a3.78,3.78,0,0,1-5.58-.06,4.71,4.71,0,0,1-1.12-3.21,5,5,0,0,1,1-3.18,3.62,3.62,0,0,1,3-1.39,3.45,3.45,0,0,1,2.69,1.2v-1h2Zm-1.9-4.06a2.9,2.9,0,0,0-.66-2,2.23,2.23,0,0,0-1.74-.77,2.11,2.11,0,0,0-1.77.84,3.44,3.44,0,0,0,0,3.85,2.15,2.15,0,0,0,1.77.82,2.19,2.19,0,0,0,1.8-.83A3,3,0,0,0,441.73,242.78Z"/><path d="M453.92,243.23h-6.13a2.62,2.62,0,0,0,.68,1.68,2.12,2.12,0,0,0,1.56.62,2,2,0,0,0,1.22-.36,4.66,4.66,0,0,0,1.08-1.3l1.67.93a6.44,6.44,0,0,1-.81,1.13,4.19,4.19,0,0,1-.93.78,3.66,3.66,0,0,1-1.06.44,4.86,4.86,0,0,1-1.24.14,4,4,0,0,1-3.08-1.23,4.62,4.62,0,0,1-1.16-3.29,4.74,4.74,0,0,1,1.13-3.28,4.29,4.29,0,0,1,6,0,4.73,4.73,0,0,1,1.09,3.32Zm-2-1.62a1.89,1.89,0,0,0-2-1.58,2.15,2.15,0,0,0-.68.11,2,2,0,0,0-.57.32,2,2,0,0,0-.45.5,2.55,2.55,0,0,0-.28.65Z"/><path d="M461.54,247.05l2.86-14.59L469.06,243l4.82-10.54,2.57,14.59h-2.1l-1.31-8.2-4,8.82-3.9-8.82-1.46,8.2Z"/><path d="M478.65,234.93a1.19,1.19,0,0,1,.38-.9,1.27,1.27,0,0,1,1.81,0,1.19,1.19,0,0,1,.38.9,1.22,1.22,0,0,1-.38.92,1.2,1.2,0,0,1-.9.38,1.24,1.24,0,0,1-.91-.38A1.22,1.22,0,0,1,478.65,234.93Zm2.27,3.56v8.56h-2v-8.56Z"/><path d="M485.41,232.2v9.05l2.78-2.76h2.66l-3.72,3.59,4,5h-2.57l-2.83-3.62-.31.32v3.3h-2V232.2Z"/><path d="M494.37,232.2v9.05l2.79-2.76h2.65l-3.72,3.59,4,5h-2.56l-2.83-3.62-.32.32v3.3h-2V232.2Z"/><path d="M508.86,243.23h-6.13a2.58,2.58,0,0,0,.69,1.68,2.08,2.08,0,0,0,1.55.62,2,2,0,0,0,1.22-.36,4.66,4.66,0,0,0,1.08-1.3l1.67.93a6.44,6.44,0,0,1-.81,1.13,4.19,4.19,0,0,1-.93.78,3.55,3.55,0,0,1-1.06.44,4.86,4.86,0,0,1-1.24.14,4,4,0,0,1-3.08-1.23,4.62,4.62,0,0,1-1.16-3.29,4.74,4.74,0,0,1,1.13-3.28,4.29,4.29,0,0,1,6,0,4.73,4.73,0,0,1,1.09,3.32Zm-2-1.62a1.89,1.89,0,0,0-2-1.58,2.15,2.15,0,0,0-.68.11,2,2,0,0,0-.57.32,2,2,0,0,0-.45.5,2.55,2.55,0,0,0-.28.65Z"/><path d="M513,232.2v14.85h-2V232.2Z"/><path d="M523,238.49v4.91q0,2.13,1.68,2.13t1.68-2.13v-4.91h2v4.95a5.52,5.52,0,0,1-.26,1.78,3,3,0,0,1-.85,1.2,4.16,4.16,0,0,1-5.09,0,3.08,3.08,0,0,1-.87-1.2,5,5,0,0,1-.25-1.78v-4.95Z"/><path d="M537.18,232.2h2v14.85h-2v-.9a3.69,3.69,0,0,1-2.64,1.14,3.78,3.78,0,0,1-2.92-1.28,4.75,4.75,0,0,1-1.15-3.27,4.61,4.61,0,0,1,1.15-3.2,3.7,3.7,0,0,1,5.56-.06Zm-4.69,10.54a3,3,0,0,0,.66,2,2.17,2.17,0,0,0,1.7.79,2.28,2.28,0,0,0,1.78-.76,3.24,3.24,0,0,0,0-4,2.25,2.25,0,0,0-1.76-.77,2.16,2.16,0,0,0-1.7.78A2.79,2.79,0,0,0,532.49,242.74Z"/><path d="M549.27,240.33v6.72h-2v-6.72h-.7v-1.84h.7v-3.31a3.59,3.59,0,0,1,.56-2.28,2.75,2.75,0,0,1,2.25-.94,4,4,0,0,1,1.33.31v2l-.2-.1a2.47,2.47,0,0,0-1.06-.33.72.72,0,0,0-.71.38,3.73,3.73,0,0,0-.18,1.42v2.83h2.15v1.84Z"/><path d="M552.56,238.49h2v.76a3.74,3.74,0,0,1,1-.78,2.14,2.14,0,0,1,1-.22,3.19,3.19,0,0,1,1.63.51l-.9,1.81a1.9,1.9,0,0,0-1.1-.41c-1.08,0-1.62.82-1.62,2.45v4.44h-2Z"/><path d="M565.48,238.49h2v8.56h-2v-.9a3.8,3.8,0,0,1-5.56-.14,4.75,4.75,0,0,1-1.15-3.27,4.63,4.63,0,0,1,1.15-3.21,3.73,3.73,0,0,1,2.88-1.28,3.63,3.63,0,0,1,2.68,1.23Zm-4.69,4.25a3,3,0,0,0,.66,2,2.17,2.17,0,0,0,1.7.79,2.28,2.28,0,0,0,1.78-.76,3.24,3.24,0,0,0,0-4,2.25,2.25,0,0,0-1.76-.77,2.16,2.16,0,0,0-1.7.78A2.84,2.84,0,0,0,560.79,242.74Z"/><path d="M577.5,251.7h-2V238.49h2v.93a3.65,3.65,0,0,1,2.65-1.17,3.69,3.69,0,0,1,2.91,1.3,4.71,4.71,0,0,1,1.16,3.26,4.63,4.63,0,0,1-1.15,3.21,3.76,3.76,0,0,1-5.57.07Zm4.7-8.88a3,3,0,0,0-.67-2,2.16,2.16,0,0,0-1.7-.78,2.24,2.24,0,0,0-1.77.76,2.85,2.85,0,0,0-.68,2,2.93,2.93,0,0,0,.68,2,2.23,2.23,0,0,0,1.76.77,2.12,2.12,0,0,0,1.69-.78A2.78,2.78,0,0,0,582.2,242.82Z"/><path d="M592.62,238.49h2v8.56h-2v-.9a3.8,3.8,0,0,1-5.56-.14,4.75,4.75,0,0,1-1.15-3.27,4.63,4.63,0,0,1,1.15-3.21,3.73,3.73,0,0,1,2.88-1.28,3.63,3.63,0,0,1,2.68,1.23Zm-4.69,4.25a3,3,0,0,0,.66,2,2.17,2.17,0,0,0,1.7.79,2.28,2.28,0,0,0,1.78-.76,3.24,3.24,0,0,0,0-4,2.25,2.25,0,0,0-1.76-.77,2.16,2.16,0,0,0-1.7.78A2.84,2.84,0,0,0,587.93,242.74Z"/><path d="M597.11,238.49h2v.76a3.91,3.91,0,0,1,1-.78,2.19,2.19,0,0,1,1-.22,3.22,3.22,0,0,1,1.64.51l-.91,1.81a1.9,1.9,0,0,0-1.1-.41c-1.08,0-1.62.82-1.62,2.45v4.44h-2Z"/><path d="M610,238.49h2v8.56h-2v-.9a3.81,3.81,0,0,1-5.57-.14,4.8,4.8,0,0,1-1.15-3.27,4.68,4.68,0,0,1,1.15-3.21,3.74,3.74,0,0,1,2.89-1.28,3.65,3.65,0,0,1,2.68,1.23Zm-4.7,4.25a3,3,0,0,0,.66,2,2.17,2.17,0,0,0,1.71.79,2.28,2.28,0,0,0,1.77-.76,3.24,3.24,0,0,0,0-4,2.23,2.23,0,0,0-1.76-.77,2.19,2.19,0,0,0-1.7.78A2.84,2.84,0,0,0,605.33,242.74Z"/><path d="M616.49,232.2v14.85h-2V232.2Z"/><path d="M621,232.2v14.85h-2V232.2Z"/><path d="M631.27,243.23h-6.14a2.68,2.68,0,0,0,.69,1.68,2.09,2.09,0,0,0,1.56.62,2,2,0,0,0,1.22-.36,5,5,0,0,0,1.08-1.3l1.67.93a6.46,6.46,0,0,1-.82,1.13,4.15,4.15,0,0,1-.92.78,3.61,3.61,0,0,1-1.07.44,4.83,4.83,0,0,1-1.23.14,4,4,0,0,1-3.08-1.23,4.62,4.62,0,0,1-1.16-3.29,4.73,4.73,0,0,1,1.12-3.28,4.3,4.3,0,0,1,6,0,4.73,4.73,0,0,1,1.09,3.32Zm-2-1.62a1.9,1.9,0,0,0-2-1.58,2.09,2.09,0,0,0-.67.11,2,2,0,0,0-.58.32,1.93,1.93,0,0,0-.44.5,2,2,0,0,0-.28.65Z"/><path d="M635.41,232.2v14.85h-2V232.2Z"/><path d="M639.89,232.2v9.05l2.79-2.76h2.65l-3.72,3.59,4,5H643l-2.83-3.62-.32.32v3.3h-2V232.2Z"/><path d="M648.86,232.2v14.85h-2V232.2Z"/><path d="M657.67,238.49h2v8.56h-2v-.9a3.8,3.8,0,0,1-5.56-.14,4.75,4.75,0,0,1-1.15-3.27,4.63,4.63,0,0,1,1.15-3.21,3.73,3.73,0,0,1,2.88-1.28,3.63,3.63,0,0,1,2.68,1.23ZM653,242.74a3,3,0,0,0,.66,2,2.17,2.17,0,0,0,1.7.79,2.28,2.28,0,0,0,1.78-.76,3.28,3.28,0,0,0,0-4,2.25,2.25,0,0,0-1.76-.77,2.16,2.16,0,0,0-1.7.78A2.79,2.79,0,0,0,653,242.74Z"/><path d="M667.13,239.94l-1.64.87c-.25-.52-.57-.79-1-.79a.66.66,0,0,0-.47.18.61.61,0,0,0-.19.47c0,.32.38.65,1.14,1a6.89,6.89,0,0,1,2.12,1.25,2.14,2.14,0,0,1,.54,1.54,2.69,2.69,0,0,1-.91,2.07,3.28,3.28,0,0,1-5.2-1.31l1.69-.78a3.53,3.53,0,0,0,.54.78,1.24,1.24,0,0,0,.86.34c.67,0,1-.31,1-.92,0-.35-.26-.68-.77-1l-.6-.29-.61-.29a3.81,3.81,0,0,1-1.21-.85,2,2,0,0,1-.45-1.38,2.43,2.43,0,0,1,.77-1.84,2.66,2.66,0,0,1,1.9-.73A2.58,2.58,0,0,1,667.13,239.94Z"/><path d="M674.43,239.94l-1.63.87c-.26-.52-.58-.79-1-.79a.67.67,0,0,0-.47.18.65.65,0,0,0-.19.47c0,.32.38.65,1.14,1a6.76,6.76,0,0,1,2.12,1.25,2.15,2.15,0,0,1,.55,1.54,2.7,2.7,0,0,1-.92,2.07,3.27,3.27,0,0,1-5.19-1.31l1.69-.78a3.6,3.6,0,0,0,.53.78,1.24,1.24,0,0,0,.86.34c.67,0,1-.31,1-.92,0-.35-.25-.68-.77-1l-.6-.29-.6-.29a3.75,3.75,0,0,1-1.22-.85,2.09,2.09,0,0,1-.44-1.38,2.42,2.42,0,0,1,.76-1.84,2.68,2.68,0,0,1,1.9-.73A2.58,2.58,0,0,1,674.43,239.94Z"/><path d="M684.56,243.23h-6.14a2.63,2.63,0,0,0,.69,1.68,2.08,2.08,0,0,0,1.55.62,2,2,0,0,0,1.23-.36,5,5,0,0,0,1.08-1.3l1.67.93a6.46,6.46,0,0,1-.82,1.13,4.39,4.39,0,0,1-.92.78,3.72,3.72,0,0,1-1.07.44,4.86,4.86,0,0,1-1.24.14,4,4,0,0,1-3.07-1.23,4.58,4.58,0,0,1-1.16-3.29,4.73,4.73,0,0,1,1.12-3.28,4.3,4.3,0,0,1,6,0,4.78,4.78,0,0,1,1.09,3.32Zm-2-1.62a1.9,1.9,0,0,0-2-1.58,2.09,2.09,0,0,0-.67.11,1.94,1.94,0,0,0-1,.82,2.26,2.26,0,0,0-.29.65Z"/><path d="M686.72,238.49h2v.79a3.22,3.22,0,0,1,2.33-1,2.93,2.93,0,0,1,2.33.94,3.84,3.84,0,0,1,.72,2.61v5.25h-2v-4.79a3.14,3.14,0,0,0-.35-1.74,1.43,1.43,0,0,0-1.25-.5,1.54,1.54,0,0,0-1.4.65,4.51,4.51,0,0,0-.4,2.25v4.13h-2Z"/><path d="M696.9,246.06a1.16,1.16,0,0,1,.36-.85,1.23,1.23,0,1,1-.36.85Z"/><path d="M708.08,247.05V233.48h2.84a10.38,10.38,0,0,1,3.24.4,6,6,0,0,1,2.31,1.34,6.51,6.51,0,0,1,2.1,5,6.42,6.42,0,0,1-2.19,5.06,6.29,6.29,0,0,1-2.3,1.35,10.51,10.51,0,0,1-3.19.38Zm2-1.93h.93a7.79,7.79,0,0,0,2.29-.29,4.66,4.66,0,0,0,3.17-4.57,4.71,4.71,0,0,0-1.5-3.62,5.63,5.63,0,0,0-4-1.24h-.93Z"/><path d="M728.56,243.23h-6.13a2.58,2.58,0,0,0,.69,1.68,2.08,2.08,0,0,0,1.55.62,2,2,0,0,0,1.22-.36,4.66,4.66,0,0,0,1.08-1.3l1.67.93a6.44,6.44,0,0,1-.81,1.13,4.19,4.19,0,0,1-.93.78,3.55,3.55,0,0,1-1.06.44,4.86,4.86,0,0,1-1.24.14,4,4,0,0,1-3.08-1.23,4.62,4.62,0,0,1-1.16-3.29,4.74,4.74,0,0,1,1.13-3.28,4.29,4.29,0,0,1,6,0,4.73,4.73,0,0,1,1.09,3.32Zm-2-1.62a1.89,1.89,0,0,0-2-1.58,2.15,2.15,0,0,0-.68.11,2,2,0,0,0-.57.32,2,2,0,0,0-.45.5,2.55,2.55,0,0,0-.28.65Z"/><path d="M732.7,232.2v14.85h-2V232.2Z"/><path d="M747.07,232.2h2v14.85h-2v-.9a3.69,3.69,0,0,1-2.64,1.14,3.78,3.78,0,0,1-2.92-1.28,4.75,4.75,0,0,1-1.15-3.27,4.61,4.61,0,0,1,1.15-3.2,3.7,3.7,0,0,1,5.56-.06Zm-4.69,10.54a3,3,0,0,0,.66,2,2.17,2.17,0,0,0,1.71.79,2.28,2.28,0,0,0,1.77-.76,3.24,3.24,0,0,0,0-4,2.25,2.25,0,0,0-1.76-.77,2.16,2.16,0,0,0-1.7.78A2.84,2.84,0,0,0,742.38,242.74Z"/><path d="M759.35,243.23h-6.13a2.62,2.62,0,0,0,.68,1.68,2.12,2.12,0,0,0,1.56.62,2,2,0,0,0,1.22-.36,4.66,4.66,0,0,0,1.08-1.3l1.67.93a6.46,6.46,0,0,1-.82,1.13,3.94,3.94,0,0,1-.92.78,3.66,3.66,0,0,1-1.06.44,4.91,4.91,0,0,1-1.24.14,4,4,0,0,1-3.08-1.23,4.62,4.62,0,0,1-1.16-3.29,4.74,4.74,0,0,1,1.13-3.28,4.29,4.29,0,0,1,6,0,4.73,4.73,0,0,1,1.09,3.32Zm-2-1.62a1.89,1.89,0,0,0-2-1.58,2.15,2.15,0,0,0-.68.11,2.19,2.19,0,0,0-.58.32,1.93,1.93,0,0,0-.44.5,2.24,2.24,0,0,0-.28.65Z"/><path d="M763.71,240.33v6.72h-2v-6.72h-.84v-1.84h.84v-3.14h2v3.14h1.54v1.84Z"/><path d="M774.13,232.2v14.85h-2V232.2Z"/><path d="M776.33,234.93a1.3,1.3,0,0,1,1.29-1.28,1.25,1.25,0,0,1,.91.38,1.23,1.23,0,0,1,.38.9,1.26,1.26,0,0,1-.38.92,1.24,1.24,0,0,1-.91.38,1.3,1.3,0,0,1-1.29-1.3Zm2.28,3.56v8.56h-2v-8.56Z"/><path d="M789.39,246.84c0,.41,0,.76,0,1.07a5.48,5.48,0,0,1-.11.81,3.65,3.65,0,0,1-.82,1.67,4,4,0,0,1-3.19,1.33,4.25,4.25,0,0,1-2.82-.92,3.75,3.75,0,0,1-1.32-2.63h2a2.42,2.42,0,0,0,.38,1,2.14,2.14,0,0,0,1.8.8c1.44,0,2.17-.89,2.17-2.67v-1.19a3.71,3.71,0,0,1-2.72,1.2,3.67,3.67,0,0,1-2.87-1.26,4.71,4.71,0,0,1-1.12-3.21,4.91,4.91,0,0,1,1-3.18,3.62,3.62,0,0,1,3-1.39,3.48,3.48,0,0,1,2.69,1.2v-1h2Zm-1.89-4.06a2.9,2.9,0,0,0-.67-2,2.21,2.21,0,0,0-1.73-.77,2.13,2.13,0,0,0-1.78.84,3.44,3.44,0,0,0,0,3.85,2.15,2.15,0,0,0,1.78.82,2.18,2.18,0,0,0,1.79-.83A3,3,0,0,0,787.5,242.78Z"/><path d="M799.69,243.23h-6.14a2.58,2.58,0,0,0,.69,1.68,2.08,2.08,0,0,0,1.55.62,2,2,0,0,0,1.22-.36,4.66,4.66,0,0,0,1.08-1.3l1.67.93a6.44,6.44,0,0,1-.81,1.13,4.19,4.19,0,0,1-.93.78,3.55,3.55,0,0,1-1.06.44,4.86,4.86,0,0,1-1.24.14,4,4,0,0,1-3.07-1.23,4.58,4.58,0,0,1-1.16-3.29,4.73,4.73,0,0,1,1.12-3.28,3.88,3.88,0,0,1,3-1.24,3.83,3.83,0,0,1,3,1.2,4.73,4.73,0,0,1,1.09,3.32Zm-2-1.62a1.91,1.91,0,0,0-2-1.58,2.15,2.15,0,0,0-.68.11,2,2,0,0,0-.57.32,2,2,0,0,0-.45.5,2.55,2.55,0,0,0-.28.65Z"/><path d="M807.4,238.49h2v.79a4.07,4.07,0,0,1,1-.81,2.28,2.28,0,0,1,1.08-.22,2.63,2.63,0,0,1,2.29,1.26,3,3,0,0,1,2.52-1.26q2.89,0,2.89,3.5v5.3h-2v-4.76a3.66,3.66,0,0,0-.3-1.74,1.1,1.1,0,0,0-1-.52,1.29,1.29,0,0,0-1.19.62,3.93,3.93,0,0,0-.38,2v4.43h-2v-4.73c0-1.53-.44-2.29-1.32-2.29a1.32,1.32,0,0,0-1.22.63,3.91,3.91,0,0,0-.38,2v4.43h-2Z"/><path d="M829.44,243.23H823.3a2.58,2.58,0,0,0,.69,1.68,2.08,2.08,0,0,0,1.55.62,2,2,0,0,0,1.22-.36,4.84,4.84,0,0,0,1.09-1.3l1.67.93a6.46,6.46,0,0,1-.82,1.13,4.39,4.39,0,0,1-.92.78,3.72,3.72,0,0,1-1.07.44,4.86,4.86,0,0,1-1.24.14,4,4,0,0,1-3.07-1.23,4.58,4.58,0,0,1-1.16-3.29,4.73,4.73,0,0,1,1.12-3.28,4.3,4.3,0,0,1,6,0,4.78,4.78,0,0,1,1.09,3.32Zm-2-1.62a1.9,1.9,0,0,0-2-1.58,2.2,2.2,0,0,0-.68.11,2,2,0,0,0-.57.32,2.17,2.17,0,0,0-.45.5,2.55,2.55,0,0,0-.28.65Z"/><path d="M837.91,232.2h2v14.85h-2v-.9a3.7,3.7,0,0,1-2.65,1.14,3.76,3.76,0,0,1-2.91-1.28,4.76,4.76,0,0,1-1.16-3.27,4.61,4.61,0,0,1,1.16-3.2,3.7,3.7,0,0,1,5.56-.06Zm-4.69,10.54a3,3,0,0,0,.66,2,2.15,2.15,0,0,0,1.7.79,2.31,2.31,0,0,0,1.78-.76,3.28,3.28,0,0,0,0-4,2.26,2.26,0,0,0-1.76-.77,2.19,2.19,0,0,0-1.71.78A2.84,2.84,0,0,0,833.22,242.74Z"/><path d="M854.26,232.2h2v14.85h-2v-.9a3.7,3.7,0,0,1-2.65,1.14,3.8,3.8,0,0,1-2.92-1.28,4.8,4.8,0,0,1-1.15-3.27,4.65,4.65,0,0,1,1.15-3.2,3.69,3.69,0,0,1,2.88-1.29,3.65,3.65,0,0,1,2.69,1.23Zm-4.7,10.54a3,3,0,0,0,.66,2,2.17,2.17,0,0,0,1.71.79,2.28,2.28,0,0,0,1.77-.76,3.24,3.24,0,0,0,0-4A2.22,2.22,0,0,0,852,240a2.19,2.19,0,0,0-1.71.78A2.84,2.84,0,0,0,849.56,242.74Z"/><path d="M866.54,243.23H860.4a2.58,2.58,0,0,0,.69,1.68,2.08,2.08,0,0,0,1.55.62,2,2,0,0,0,1.22-.36,4.66,4.66,0,0,0,1.08-1.3l1.67.93a6.44,6.44,0,0,1-.81,1.13,4.19,4.19,0,0,1-.93.78,3.55,3.55,0,0,1-1.06.44,4.86,4.86,0,0,1-1.24.14,4,4,0,0,1-3.07-1.23,4.58,4.58,0,0,1-1.17-3.29,4.74,4.74,0,0,1,1.13-3.28,3.88,3.88,0,0,1,3-1.24,3.83,3.83,0,0,1,3,1.2,4.73,4.73,0,0,1,1.09,3.32Zm-2-1.62a1.89,1.89,0,0,0-2-1.58,2.15,2.15,0,0,0-.68.11,2,2,0,0,0-.57.32,2,2,0,0,0-.45.5,2.55,2.55,0,0,0-.28.65Z"/><path d="M880.56,238.49h2v8.56h-2v-.9A3.8,3.8,0,0,1,875,246a4.75,4.75,0,0,1-1.15-3.27,4.63,4.63,0,0,1,1.15-3.21,3.73,3.73,0,0,1,2.88-1.28,3.63,3.63,0,0,1,2.68,1.23Zm-4.69,4.25a3,3,0,0,0,.66,2,2.17,2.17,0,0,0,1.7.79,2.28,2.28,0,0,0,1.78-.76,3.24,3.24,0,0,0,0-4,2.25,2.25,0,0,0-1.76-.77,2.16,2.16,0,0,0-1.7.78A2.79,2.79,0,0,0,875.87,242.74Z"/><path d="M885,238.49h2v.79a3.22,3.22,0,0,1,2.34-1,2.94,2.94,0,0,1,2.33.94,3.84,3.84,0,0,1,.72,2.61v5.25h-2v-4.79a3.06,3.06,0,0,0-.35-1.74,1.41,1.41,0,0,0-1.25-.5,1.52,1.52,0,0,0-1.39.65,4.49,4.49,0,0,0-.41,2.25v4.13h-2Z"/><path d="M901.23,232.2h2v14.85h-2v-.9a3.71,3.71,0,0,1-2.65,1.14,3.8,3.8,0,0,1-2.92-1.28,4.75,4.75,0,0,1-1.15-3.27,4.61,4.61,0,0,1,1.15-3.2,3.71,3.71,0,0,1,5.57-.06Zm-4.7,10.54a3,3,0,0,0,.66,2,2.17,2.17,0,0,0,1.71.79,2.28,2.28,0,0,0,1.77-.76,3.24,3.24,0,0,0,0-4,2.25,2.25,0,0,0-1.76-.77,2.17,2.17,0,0,0-1.7.78A2.84,2.84,0,0,0,896.53,242.74Z"/><path d="M905.71,238.49h2v.76a3.72,3.72,0,0,1,1-.78,2.19,2.19,0,0,1,1-.22,3.22,3.22,0,0,1,1.64.51l-.91,1.81a1.88,1.88,0,0,0-1.1-.41c-1.08,0-1.61.82-1.61,2.45v4.44h-2Z"/><path d="M920.11,243.23H914a2.62,2.62,0,0,0,.68,1.68,2.12,2.12,0,0,0,1.56.62,2,2,0,0,0,1.22-.36,4.66,4.66,0,0,0,1.08-1.3l1.67.93a7,7,0,0,1-.81,1.13,4.19,4.19,0,0,1-.93.78,3.66,3.66,0,0,1-1.06.44,4.91,4.91,0,0,1-1.24.14,4,4,0,0,1-3.08-1.23,4.62,4.62,0,0,1-1.16-3.29,4.74,4.74,0,0,1,1.13-3.28,4.29,4.29,0,0,1,6,0,4.73,4.73,0,0,1,1.09,3.32Zm-2-1.62a1.89,1.89,0,0,0-2-1.58,2.15,2.15,0,0,0-.68.11,2.19,2.19,0,0,0-.58.32,1.93,1.93,0,0,0-.44.5,2.24,2.24,0,0,0-.28.65Z"/><path d="M922.79,246.06a1.16,1.16,0,0,1,.36-.85,1.22,1.22,0,1,1-.36.85Zm.23-2V233.48h2V244Z"/><circle class="cls-16" cx="1158.02" cy="103.58" r="28.1"/><path class="cls-2" d="M1151.11,113.23a12.89,12.89,0,0,1-4.68,1,11.33,11.33,0,0,1-8-3.12,10.93,10.93,0,0,1-3.16-7.58,10.94,10.94,0,0,1,11-10.93,12.88,12.88,0,0,1,4.87,1.07v6.45a5.8,5.8,0,0,0-4.72-2.27,5.24,5.24,0,0,0-3.74,1.37,5.82,5.82,0,0,0-1.81,4.27,5.72,5.72,0,0,0,1.69,4.06,5.81,5.81,0,0,0,3.86,1.44,6.13,6.13,0,0,0,4.72-2.19Z"/><path class="cls-2" d="M1153.61,113.79,1157.13,93h5.34l4.21,11.11L1171.14,93h5.4l3.12,20.81h-5.4l-1.53-12-5,12h-2.15l-4.81-12-1.78,12Z"/><g class="cls-17"><rect class="cls-18" x="372.46" y="297.56" width="662.1" height="375.56"/><rect class="cls-19" x="372.25" y="297.77" width="662.1" height="219.08"/><rect class="cls-20" x="408.25" y="517.27" width="609.55" height="103.49" rx="12"/><rect class="cls-21" x="451.5" y="517.06" width="25.24" height="103.49" rx="11.88"/><rect class="cls-21" x="691.1" y="517.06" width="25.24" height="103.49" rx="11.88"/><rect class="cls-21" x="642.68" y="517.06" width="25.24" height="103.49" rx="11.88"/><rect class="cls-21" x="594.68" y="517.47" width="25.24" height="103.49" rx="11.88"/><rect class="cls-21" x="546.26" y="517.06" width="25.24" height="103.49" rx="11.88"/><rect class="cls-21" x="499.5" y="517.06" width="25.24" height="103.49" rx="11.88"/><rect class="cls-21" x="842.55" y="517.06" width="25.24" height="103.49" rx="11.88"/><rect class="cls-21" x="794.96" y="517.06" width="25.24" height="103.49" rx="11.88"/><rect class="cls-21" x="745.31" y="517.06" width="25.24" height="103.49" rx="11.88"/><rect class="cls-21" x="938.14" y="517.06" width="25.24" height="103.49" rx="11.88"/><rect class="cls-21" x="891.38" y="517.06" width="25.24" height="103.49" rx="11.88"/><path class="cls-22" d="M943.73,594.82a103.2,103.2,0,0,0,20,2.56,104.35,104.35,0,0,0,32.17-4"/><path class="cls-22" d="M942.69,590.92l2.49,5"/><path class="cls-22" d="M945.18,574.23l2.48-5"/><ellipse class="cls-21" cx="405.36" cy="526.45" rx="5.17" ry="5.22"/><ellipse class="cls-21" cx="408.25" cy="582.78" rx="5.17" ry="5.22"/><ellipse class="cls-21" cx="409.49" cy="569.43" rx="5.17" ry="5.22"/><ellipse class="cls-21" cx="408.25" cy="554.4" rx="5.17" ry="5.22"/><ellipse class="cls-21" cx="405.36" cy="539.38" rx="5.17" ry="5.22"/><ellipse class="cls-21" cx="408.25" cy="611.99" rx="5.17" ry="5.22"/><ellipse class="cls-21" cx="407.84" cy="597.39" rx="5.17" ry="5.22"/><ellipse class="cls-21" cx="1017.8" cy="553.15" rx="5.17" ry="5.22"/><ellipse class="cls-21" cx="1017.8" cy="539.38" rx="5.17" ry="5.22"/><ellipse class="cls-21" cx="1017.8" cy="525.61" rx="5.17" ry="5.22"/><ellipse class="cls-21" cx="1017.8" cy="596.55" rx="5.17" ry="5.22"/><ellipse class="cls-21" cx="1017.8" cy="580.69" rx="5.17" ry="5.22"/><ellipse class="cls-21" cx="1017.8" cy="565.25" rx="5.17" ry="5.22"/><ellipse class="cls-21" cx="1017.8" cy="611.99" rx="5.17" ry="5.22"/><path class="cls-23" d="M496.11,522.9l-46-35.86c-.9-.7-.93-2.5-.07-4l22.64-39.73c.86-1.51,2.42-2.4,3.47-2l53.91,22c1.81.74,2.37,3,1.22,5L501,521.45C499.88,523.46,497.66,524.11,496.11,522.9Z"/><path d="M470,499.14,449,484.91a5.05,5.05,0,0,1-1.35-7l17.81-26.65a5,5,0,0,1,6.89-1.35l20.94,14.23a5.05,5.05,0,0,1,1.35,6.95l-17.81,26.65A5,5,0,0,1,470,499.14Z"/><ellipse cx="473.76" cy="453.8" rx="20.16" ry="9.71" transform="translate(-172.37 567.4) rotate(-53.74)"/><ellipse cx="468.08" cy="482.33" rx="8.74" ry="16.93" transform="translate(-100.16 123.38) rotate(-13.58)"/><path class="cls-24" d="M961,556.73a6.64,6.64,0,0,0-1.36-.41M578,510.13l-1.42,27.39-25.06-2.21,7.86-21.13c1.07-2.87-.68-6.24-3.84-7.47l-64.92-25.17a4.73,4.73,0,0,0-1.89-2.58c-4.05-2.58-11.95,2.35-17.63,11a34.21,34.21,0,0,0-4.74,10.41l-10.72,18a4.44,4.44,0,0,0,1.47,6.13l.36.21a1.91,1.91,0,0,0,.69,1.63l19.88,13.43-12.24,51.21c-1.25,5.25-.66,10.12,1.36,10.67l14.74,4a2.11,2.11,0,0,0,2-.74,4.32,4.32,0,0,0,4.62,2.72l83.18-6.67a13.26,13.26,0,0,0,6.62-2.23,9.38,9.38,0,0,0,3.49.63l102.68-1.38a7.32,7.32,0,0,0,5.07-2.18,15.28,15.28,0,0,0,7.56,1.62l106.82-2.93a6.69,6.69,0,0,0,4.34-1.75c1.2,2.36,6.57,4.12,12.92,4.08L945.68,596a10,10,0,0,0,5.34-1.41,6.09,6.09,0,0,0,3.83,1.05L996,593.27l.39.17a6.66,6.66,0,0,0,6.17-.55,7.65,7.65,0,0,0,6.93-7.63l0-4.83a6.57,6.57,0,0,0-6.86-6.84M698.47,505.65,574.92,570.08a12.92,12.92,0,0,0-7-.38l-78.75,15.63,5.69-34.28,6.4,4.33c1.46,1,3.47.25,4.45-1.63l1.87-3.59L534,565c3,1.67,6.27.74,7.32-2.08l2.88-7.75a5.15,5.15,0,0,0,2.1.68l29.27,2.69Zm368.19-.22c2.65,1.71,5.43,2.33,7.07,1.75a6.37,6.37,0,0,0,3.1,3l4,1.76-2.44.15a5.91,5.91,0,0,0-1.27.21c-.68-1.57-3.14-2.85-6.18-3l-124.2-7.89c-5.13-.32-9.76.56-12.14,2.13a5.81,5.81,0,0,0-5.2-3.94l-76.44-6.46a6.79,6.79,0,0,0-1.07-2.35,55.47,55.47,0,0,0,8.37.36c10.37-.29,18.85-3.07,18.9-6.19s-8.36-5.4-18.75-5.08a58.88,58.88,0,0,0-7.38.68,7.07,7.07,0,0,0,.35-2.11,6.41,6.41,0,0,0-.17-1.59"/><path class="cls-25" d="M730.36,541.63a.5.5,0,0,0-.49.48.46.46,0,0,0,.48.46.5.5,0,0,0,.49-.49A.45.45,0,0,0,730.36,541.63Z"/><path class="cls-26" d="M992.16,577.13h-2.23l-35.55-19.75a5.46,5.46,0,0,0-1.24-.5,11.77,11.77,0,0,0-3.85-6L845,457.22c-4.77-4.28-9.68-6.87-12.44-6.79a7.23,7.23,0,0,0-3.83,0L707,483.92a22,22,0,0,0-3.08,1.09,12.6,12.6,0,0,0-4.54,1.68,7.35,7.35,0,0,0-3.68-1.86l-17.81-3.2L594,448.79c-5.37-2.1-10.59-1.31-11.43,1.82l-6.16,22.8c-.55,2.06,1,4.43,3.67,6.23l-2.4,29.63-26.52-4.43,9.11-22.4c1.23-3-.5-6.84-3.8-8.45l-69.79-33.9a4.43,4.43,0,0,0-6.06,2.5l-17.42,42.82a6.16,6.16,0,0,0,2.13,7.18l7.77,5.13-17.49,62.22c-1.64,5.81-1.2,11.34,1,12.1l16.15,5.48a2.24,2.24,0,0,0,2.21-.7,4.89,4.89,0,0,0,5,3.37l90.37-1.84a13.35,13.35,0,0,0,7.1-2,9.51,9.51,0,0,0,3.69.92l106.66,5.24a7,7,0,0,0,5.21-2,15.23,15.23,0,0,0,7.63,2.23l105.92,3.63a5.89,5.89,0,0,0,4.22-1.58c1.14,2.57,6.31,4.75,12.44,5.09l117.22,6.67a8.19,8.19,0,0,0,4.91-1.14,5.52,5.52,0,0,0,3.51,1.31h37.42l.36.19a5.3,5.3,0,0,0,5.55-.19c3.41,0,6.19-3.3,6.19-7.33v-4.89C998.35,580.43,995.57,577.13,992.16,577.13ZM567.34,543.78l-85.73,11.56L491,509.53l40.23,26.57c3.12,2.06,6.72,1.29,8-1.74l3.38-8.31a5.77,5.77,0,0,0,2.22.91l31.07,5.19-1,12.57A13.47,13.47,0,0,0,567.34,543.78Zm381.49,33.35a5.06,5.06,0,0,0-1.17.14c-.62-1.64-2.87-3.1-5.66-3.49L825.45,557.56c-4.93-.69-9.4-.07-11.72,1.4a6.17,6.17,0,0,0-5-4.47l-80.49-13c.18-2.51.28-5.07.28-7.69,0-2.11-.07-4.18-.19-6.22L831.78,486l106.27,83.63c2.43,1.91,5,2.72,6.48,2.23a6.82,6.82,0,0,0,2.84,3.24l3.69,2Z"/><ellipse class="cls-27" cx="726.52" cy="543.88" rx="7.49" ry="7.71" transform="translate(-83.33 134.27) rotate(-9.99)"/><ellipse class="cls-27" cx="727.04" cy="526.49" rx="7.49" ry="7.71" transform="translate(-80.31 134.1) rotate(-9.99)"/><ellipse class="cls-27" cx="741.31" cy="534.79" rx="5.96" ry="18.63" transform="translate(175.03 1252.34) rotate(-87.53)"/><ellipse class="cls-27" cx="722.72" cy="549.44" rx="0.48" ry="0.5" transform="translate(-84.35 133.7) rotate(-9.99)"/><ellipse class="cls-27" cx="724.4" cy="525.63" rx="0.48" ry="0.5" transform="translate(-80.2 133.63) rotate(-9.99)"/><ellipse class="cls-27" cx="734.52" cy="543.46" rx="0.48" ry="0.5" transform="translate(-83.14 135.65) rotate(-9.99)"/><ellipse class="cls-27" cx="726.78" cy="543.14" rx="0.48" ry="0.5" transform="translate(-83.2 134.31) rotate(-9.99)"/><ellipse class="cls-27" cx="735.03" cy="526.08" rx="0.48" ry="0.5" transform="translate(-80.11 135.48) rotate(-9.99)"/><ellipse class="cls-27" cx="726.62" cy="548.61" rx="0.48" ry="0.5" transform="translate(-84.15 134.36) rotate(-9.99)"/><ellipse class="cls-27" cx="719.53" cy="542.84" rx="0.48" ry="0.5" transform="translate(-83.26 133.04) rotate(-9.99)"/><ellipse class="cls-27" cx="728.15" cy="529.77" rx="0.48" ry="0.5" transform="translate(-80.86 134.34) rotate(-9.99)"/><ellipse class="cls-28" cx="681.6" cy="528.86" rx="2.84" ry="3.36"/><path class="cls-22" d="M613.3,475.75A123.59,123.59,0,0,0,641.44,492c5.87,2.42,12.38,5.05,21.52,6.26,8.13,1.08,14.54,2.28,21.93-.42a32.11,32.11,0,0,0,12-7.93"/><ellipse class="cls-28" cx="619.92" cy="499.53" rx="2.9" ry="2.92"/><ellipse class="cls-28" cx="613.3" cy="542.93" rx="2.9" ry="2.92"/><path class="cls-22" d="M630.26,492a19.18,19.18,0,0,1,2.9,10.85c-.38,8.72-6.87,13.85-7.86,14.6"/><path class="cls-22" d="M621.44,558.8a19.08,19.08,0,0,0,4.39-10.33c.84-8.69-4.88-14.69-5.75-15.57"/><path class="cls-22" d="M646.4,502.87q8.61,0,17.8.42c9.42.42,18.4,1.15,26.9,2.08"/><path class="cls-22" d="M646.4,556.7q8.61,0,17.8-.42c9.42-.42,18.4-1.15,26.9-2.08"/><path class="cls-22" d="M693.43,580.49l9.68-15.24"/><path class="cls-22" d="M702.54,484.3l9.67,15.23"/><line class="cls-22" x1="951.18" y1="577.15" x2="994.21" y2="577.15"/></g><ellipse cx="489.98" cy="485.25" rx="8.41" ry="6.37" transform="translate(-117.95 159.72) rotate(-16.55)"/><ellipse class="cls-2" cx="495.31" cy="485.69" rx="3.12" ry="2.44" transform="translate(-198.4 486.37) rotate(-44.49)"/><path class="cls-2" d="M490.21,490c-.49,0-.62-.91-.29-1.94s1-1.78,1.48-1.78"/><ellipse cx="498.31" cy="461.71" rx="6.78" ry="7.89" transform="translate(-167.96 329.13) rotate(-31.56)"/><ellipse class="cls-2" cx="502.33" cy="464.92" rx="3.02" ry="2.52" transform="translate(-88.77 810.01) rotate(-73.06)"/><path class="cls-2" d="M502.23,458.59c-.36-.31-1.15.21-1.74,1.14s-.74,1.87-.4,2.21"/><ellipse class="cls-26" cx="693.16" cy="391.5" rx="9.93" ry="14.48"/><rect x="669.37" y="359.63" width="28.55" height="46.35" rx="12"/><rect class="cls-29" x="672.58" y="366.46" width="21.77" height="34.76" rx="10.25"/><rect class="cls-26" x="666.71" y="396.32" width="19.15" height="9.52" rx="4.48" transform="translate(-102.72 294.44) rotate(-22.88)"/><circle class="cls-5" cx="856.21" cy="484.61" r="0.62"/><circle class="cls-5" cx="868.21" cy="499.5" r="0.62"/><circle class="cls-5" cx="868.21" cy="577.72" r="0.62"/><circle class="cls-5" cx="852.48" cy="581.44" r="0.62"/><circle class="cls-5" cx="857.45" cy="562.4" r="0.62"/><circle class="cls-5" cx="842.97" cy="571.51" r="0.62"/><circle class="cls-5" cx="575.64" cy="570.68" r="0.62"/><circle class="cls-5" cx="585.16" cy="570.68" r="0.62"/><circle class="cls-5" cx="575.64" cy="563.65" r="0.62"/><path class="cls-26" d="M693.58,485.43H678.27c-2.73,0-4.72-3.78-4.42-8.19l4.56-68.3a3.16,3.16,0,0,1,3.08-3h8.87a3.16,3.16,0,0,1,3.07,3l4.57,68.3C698.29,481.65,696.31,485.43,693.58,485.43Z"/></g></svg>
