<svg xmlns="http://www.w3.org/2000/svg" width="1600" height="900" viewBox="0 0 1600 900"><defs><style>.cls-1{fill:#89cce5;}.cls-2{fill:#fff;}.cls-3{fill:#5b391a;}.cls-4{fill:#f4912d;}.cls-5{fill:#2b2b1c;}.cls-6{fill:#2b5b23;}.cls-7{fill:#94bc5b;}.cls-8{fill:#3a3a25;}.cls-9{fill:#ededb0;}.cls-10{fill:#c6c6c6;}.cls-11{fill:#4c4c4c;}.cls-12{fill:#7f7f7f;}.cls-13{fill:#2d2d2d;}.cls-14{fill:#aaa;}.cls-15{fill:#d8d8d8;}.cls-16{fill:#152230;}.cls-17{fill:#ffd48d;}.cls-18{fill:#e9eced;}.cls-19{fill:none;}</style></defs><title>Scene_3</title><g id="Hvid_skærm" data-name="Hvid skærm"><rect class="cls-1" width="1600" height="900"/><rect class="cls-2" x="314.45" y="149.41" width="1001.49" height="546.89"/></g><g id="Bord_plante" data-name="Bord, plante"><rect class="cls-3" y="718.83" width="1600" height="181.17"/><path class="cls-4" d="M1357.23,657.16,1388,811.22s53.92,11.55,146.36,0l19.25-154.06S1445.81,707.23,1357.23,657.16Z"/><path class="cls-5" d="M1357.23,649.06s74.27,59.75,196.42,0C1553.65,649.06,1460.26,623.14,1357.23,649.06Z"/><path class="cls-6" d="M1514.67,655.54S1556,635.91,1569.4,467.6c3.44-43-1.75-39-5.84-40.76-5.26-2.27-31.6-7.3-40.66,19.36-11.46,33.69-20.42,75.7-20.42,75.7s-8,38.08-12.76,75.71C1485.57,630.2,1505.72,647.44,1514.67,655.54Z"/><path class="cls-6" d="M1437.55,657.23s44-18.63,54.76-204.91c7.16-123.94-24.71-62.62-46.84-7.69a301,301,0,0,0-15.79,55.61s-9.25,36.66-11.31,76.2c-1.53,29.42,3,57.11,8.39,72Z"/><ellipse class="cls-7" cx="1464.45" cy="522.6" rx="135.39" ry="5.94" transform="translate(669.74 1859.07) rotate(-78.9)"/><ellipse class="cls-7" cx="1439.59" cy="513.6" rx="99.79" ry="3.57" transform="translate(658.5 1827.41) rotate(-78.9)"/><ellipse class="cls-7" cx="1515.73" cy="536.23" rx="104.91" ry="4.51" transform="translate(761.75 1956.26) rotate(-81.52)"/><ellipse class="cls-7" cx="1542.72" cy="535.23" rx="111.27" ry="3.92" transform="translate(785.74 1982.1) rotate(-81.52)"/><ellipse class="cls-8" cx="1448.81" cy="645.25" rx="17.82" ry="10.35"/><ellipse class="cls-8" cx="1500.09" cy="642.92" rx="10.92" ry="6.95"/><circle class="cls-8" cx="1518.39" cy="649.23" r="11.45"/><circle class="cls-8" cx="1429.56" cy="641.96" r="6.64"/><circle class="cls-8" cx="1471.5" cy="649.87" r="8.88"/><ellipse class="cls-8" cx="1418.07" cy="649.23" rx="11.5" ry="6.95"/><ellipse class="cls-8" cx="1398.47" cy="645.25" rx="7.79" ry="5.51"/><ellipse class="cls-8" cx="1431.99" cy="657.75" rx="9.05" ry="10.53"/><ellipse class="cls-8" cx="1482.23" cy="645.25" rx="10.74" ry="12.21"/><rect class="cls-9" x="1466.44" y="704.32" width="68.16" height="6.63" transform="translate(-125.33 377.61) rotate(-13.77)"/><rect class="cls-9" x="1388.31" y="721.75" width="59.52" height="6.63" transform="translate(266.64 -375.32) rotate(16.62)"/><rect class="cls-9" x="1472.86" y="738.18" width="42.65" height="5.3" transform="translate(-159.1 521.57) rotate(-18.82)"/><rect class="cls-9" x="1379.92" y="693.25" width="76.29" height="7.96" transform="translate(173.13 -276) rotate(11.83)"/><rect class="cls-9" x="1469.14" y="775.09" width="34.28" height="6.63" transform="translate(-171.64 521.03) rotate(-18.82)"/><rect class="cls-9" x="1408.34" y="766.42" width="29.17" height="6.63" transform="matrix(0.96, 0.29, -0.29, 0.96, 279.62, -374.84)"/></g><g id="Skærm_opbygning" data-name="Skærm opbygning"><path class="cls-10" d="M1330.68,696.3h-24.1v.28a28,28,0,0,0-3.9-.28H83.87a27.75,27.75,0,0,0-3.9.28v-.28H55.87v24.1h.28a27.86,27.86,0,0,0-.28,3.9V783a28.08,28.08,0,0,0,28,28H1302.68a28.08,28.08,0,0,0,28-28V724.3a27.86,27.86,0,0,0-.28-3.9h.28Z"/><path class="cls-11" d="M286.45,59.72H83.87a28.08,28.08,0,0,0-28,28V696.3H314.45V59.72Z"/><path class="cls-12" d="M1302.68,59.72H342.45c-.39,0-.77,0-1.14,0v0H314.45v89.69H1330.68V87.72A28.08,28.08,0,0,0,1302.68,59.72Z"/><path class="cls-11" d="M548.49,811s7.63,77.15-53.43,89H850.52s-41.44-12.18-38.17-89Z"/><rect class="cls-10" x="1315.94" y="149.41" width="14.74" height="546.89"/><g id="Apple"><path class="cls-11" d="M693.55,758.69a16.74,16.74,0,0,1,15.85-17.6,17.67,17.67,0,0,1,2.92.1,30.1,30.1,0,1,0-.52,33.3l-.65,0A16.74,16.74,0,0,1,693.55,758.69Z"/><ellipse class="cls-11" cx="687.32" cy="718.83" rx="8.17" ry="2.88" transform="translate(-292.33 547.3) rotate(-36.35)"/></g></g><g id="Textbokse"><rect class="cls-13" x="55.87" y="586.81" width="258.58" height="109.49"/><path class="cls-2" d="M77.89,627.23V606.88H81a13.45,13.45,0,0,1,3.25.31,5,5,0,0,1,2.07,1.07,5.56,5.56,0,0,1,1.36,1.94,5.9,5.9,0,0,1,.52,2.37,4.81,4.81,0,0,1-1.68,3.71A4.92,4.92,0,0,1,89,618.22a5.46,5.46,0,0,1,1,3.19,5.4,5.4,0,0,1-1.69,4A5.51,5.51,0,0,1,86,626.85a13.06,13.06,0,0,1-3.47.38ZM81,615.62h1a3.52,3.52,0,0,0,2.51-.76,2.9,2.9,0,0,0,.8-2.23,2.81,2.81,0,0,0-.82-2.19A3.42,3.42,0,0,0,82,609.7H81Zm0,8.73h1.9a4.74,4.74,0,0,0,3.06-.82,2.85,2.85,0,0,0,1-2.24,2.88,2.88,0,0,0-1-2.22,5.14,5.14,0,0,0-3.44-.88H81Z"/><path class="cls-2" d="M92.68,620.72a6.37,6.37,0,0,1,2-4.73,7,7,0,0,1,9.73,0,6.87,6.87,0,0,1,0,9.66,6.79,6.79,0,0,1-4.92,1.94,6.52,6.52,0,0,1-4.84-2A6.64,6.64,0,0,1,92.68,620.72Zm3,0a4.36,4.36,0,0,0,1,3.05,4,4,0,0,0,5.56,0,4.78,4.78,0,0,0,0-6,3.92,3.92,0,0,0-5.53,0A4.08,4.08,0,0,0,95.71,620.77Z"/><path class="cls-2" d="M108.91,620.72a6.37,6.37,0,0,1,2-4.73,7,7,0,0,1,9.73,0,6.87,6.87,0,0,1,0,9.66,6.79,6.79,0,0,1-4.92,1.94,6.52,6.52,0,0,1-4.84-2A6.64,6.64,0,0,1,108.91,620.72Zm3,0a4.32,4.32,0,0,0,1,3.05,4,4,0,0,0,5.56,0,4.82,4.82,0,0,0,0-6,3.92,3.92,0,0,0-5.53,0A4.08,4.08,0,0,0,111.94,620.77Z"/><path class="cls-2" d="M130,624.44h7.64v2.79H124.12l8.32-10.07h-6.55v-2.77h12.42Z"/><path class="cls-2" d="M143.48,617.16v10.07h-3V617.16h-1.27v-2.77h1.27v-4.7h3v4.7h2.3v2.77Z"/><path class="cls-2" d="M148.26,625.76a1.74,1.74,0,0,1,.54-1.28,1.84,1.84,0,0,1,3.13,1.29,1.81,1.81,0,0,1-.54,1.31,1.89,1.89,0,0,1-2.6,0A1.83,1.83,0,0,1,148.26,625.76Z"/><path class="cls-2" d="M166.13,615v3.94a7.36,7.36,0,0,0-1.82-1.7,3.53,3.53,0,0,0-1.86-.48,3.62,3.62,0,0,0-2.78,1.18,4.1,4.1,0,0,0-1.11,2.94,4.16,4.16,0,0,0,1.07,3,3.57,3.57,0,0,0,2.75,1.16,3.78,3.78,0,0,0,1.89-.46,7.8,7.8,0,0,0,1.86-1.74v3.92a7.86,7.86,0,0,1-3.62.93,6.93,6.93,0,0,1-5-1.92,6.41,6.41,0,0,1-2-4.81,6.5,6.5,0,0,1,2-4.86,6.88,6.88,0,0,1,5-2A7.42,7.42,0,0,1,166.13,615Z"/><path class="cls-2" d="M168.39,620.72a6.41,6.41,0,0,1,2-4.73,7,7,0,0,1,9.73,0,6.87,6.87,0,0,1,0,9.66,6.77,6.77,0,0,1-4.92,1.94,6.55,6.55,0,0,1-4.84-2A6.64,6.64,0,0,1,168.39,620.72Zm3,0a4.36,4.36,0,0,0,1,3.05,4,4,0,0,0,5.57,0,4.82,4.82,0,0,0,0-6,3.62,3.62,0,0,0-2.78-1.14,3.58,3.58,0,0,0-2.76,1.14A4.12,4.12,0,0,0,171.43,620.77Z"/><path class="cls-2" d="M185.23,614.39h3v1.19a6,6,0,0,1,1.46-1.21,3.54,3.54,0,0,1,1.62-.33,3.92,3.92,0,0,1,3.44,1.9,4.44,4.44,0,0,1,3.78-1.9c2.9,0,4.34,1.75,4.34,5.26v7.93h-3V620.1a5.48,5.48,0,0,0-.45-2.61,1.61,1.61,0,0,0-1.51-.78,1.94,1.94,0,0,0-1.79.93,6,6,0,0,0-.56,3v6.63h-3v-7.09c0-2.28-.66-3.43-2-3.43a2,2,0,0,0-1.82.94,5.86,5.86,0,0,0-.57,3v6.63h-3Z"/><rect class="cls-2" x="76.16" y="643.1" width="218.44" height="1.58"/><rect class="cls-2" x="76.65" y="657.11" width="218.44" height="1.58"/><rect class="cls-2" x="76.65" y="671.13" width="218.44" height="1.58"/><rect class="cls-13" x="55.87" y="477.49" width="258.58" height="109.49"/><path class="cls-2" d="M92.93,498.65v3.64a8.48,8.48,0,0,0-5.51-2.23,7,7,0,0,0-5.29,2.25A7.61,7.61,0,0,0,80,507.8a7.42,7.42,0,0,0,2.16,5.4,7.13,7.13,0,0,0,5.3,2.2,6.57,6.57,0,0,0,2.76-.52,8.21,8.21,0,0,0,1.31-.72,14.52,14.52,0,0,0,1.43-1.08v3.71a11.13,11.13,0,0,1-5.54,1.49,10.45,10.45,0,0,1-10.52-10.46,10.46,10.46,0,0,1,2.57-6.93,10.6,10.6,0,0,1,13.49-2.24Z"/><path class="cls-2" d="M105.71,505.07h3v12.84h-3v-1.35a5.69,5.69,0,0,1-8.35-.21,7.16,7.16,0,0,1-1.73-4.9,6.93,6.93,0,0,1,1.73-4.81,5.54,5.54,0,0,1,4.32-1.93,5.48,5.48,0,0,1,4,1.85Zm-7,6.38a4.49,4.49,0,0,0,1,3,3.23,3.23,0,0,0,2.56,1.18,3.41,3.41,0,0,0,2.67-1.14,4.89,4.89,0,0,0,0-5.95,3.35,3.35,0,0,0-2.64-1.15,3.27,3.27,0,0,0-2.56,1.16A4.25,4.25,0,0,0,98.67,511.45Z"/><path class="cls-2" d="M112.43,505.07h3v1.18a6.2,6.2,0,0,1,1.46-1.21,3.54,3.54,0,0,1,1.62-.33,3.92,3.92,0,0,1,3.44,1.9,4.44,4.44,0,0,1,3.79-1.9q4.33,0,4.33,5.26v7.94h-3v-7.13a5.48,5.48,0,0,0-.45-2.61,1.61,1.61,0,0,0-1.51-.78,2,2,0,0,0-1.79.92,6,6,0,0,0-.56,3v6.63h-3v-7.09c0-2.29-.66-3.43-2-3.43a2,2,0,0,0-1.82.93,5.9,5.9,0,0,0-.57,3v6.63h-3Z"/><path class="cls-2" d="M133.34,499.73a1.93,1.93,0,0,1,1.92-1.91,1.87,1.87,0,0,1,1.37.56,1.84,1.84,0,0,1,.57,1.36,1.86,1.86,0,0,1-.57,1.37,1.8,1.8,0,0,1-1.35.57,1.84,1.84,0,0,1-1.37-.57A1.88,1.88,0,0,1,133.34,499.73Zm3.41,5.34v12.84h-3V505.07Z"/><path class="cls-2" d="M143.48,495.64v22.27h-3V495.64Z"/><path class="cls-2" d="M150.2,495.64v22.27h-3V495.64Z"/><path class="cls-2" d="M163.42,505.07h3v12.84h-3v-1.35a5.68,5.68,0,0,1-8.34-.21,7.16,7.16,0,0,1-1.73-4.9,6.93,6.93,0,0,1,1.73-4.81,5.54,5.54,0,0,1,4.32-1.93,5.45,5.45,0,0,1,4,1.85Zm-7,6.38a4.45,4.45,0,0,0,1,3,3.23,3.23,0,0,0,2.56,1.18,3.38,3.38,0,0,0,2.66-1.14,4.85,4.85,0,0,0,0-5.95,3.32,3.32,0,0,0-2.63-1.15,3.25,3.25,0,0,0-2.56,1.16A4.26,4.26,0,0,0,156.38,511.45Z"/><path class="cls-2" d="M178.33,517.91,182.62,496l7,15.82L196.84,496l3.85,21.89h-3.15l-2-12.29-6,13.22-5.85-13.23-2.19,12.3Z"/><path class="cls-2" d="M213.9,505.07h3v12.84h-3v-1.35a5.68,5.68,0,0,1-8.34-.21,7.16,7.16,0,0,1-1.73-4.9,6.93,6.93,0,0,1,1.73-4.81,5.54,5.54,0,0,1,4.32-1.93,5.45,5.45,0,0,1,4,1.85Zm-7,6.38a4.45,4.45,0,0,0,1,3,3.23,3.23,0,0,0,2.56,1.18,3.38,3.38,0,0,0,2.66-1.14,4.85,4.85,0,0,0,0-5.95,3.32,3.32,0,0,0-2.63-1.15,3.25,3.25,0,0,0-2.56,1.16A4.26,4.26,0,0,0,206.86,511.45Z"/><path class="cls-2" d="M230.09,495.64h3v22.27h-3v-1.35a5.51,5.51,0,0,1-4,1.72,5.63,5.63,0,0,1-4.37-1.93,7.16,7.16,0,0,1-1.73-4.9,6.92,6.92,0,0,1,1.73-4.8,5.53,5.53,0,0,1,8.34-.09Zm-7,15.81a4.45,4.45,0,0,0,1,3,3.23,3.23,0,0,0,2.56,1.18,3.38,3.38,0,0,0,2.66-1.14,4.85,4.85,0,0,0,0-5.95,3.32,3.32,0,0,0-2.63-1.15,3.25,3.25,0,0,0-2.56,1.16A4.26,4.26,0,0,0,223.05,511.45Z"/><path class="cls-2" d="M244.28,507.26l-2.45,1.3c-.39-.79-.87-1.19-1.44-1.19a1,1,0,0,0-.7.27,1,1,0,0,0-.29.7c0,.49.57,1,1.71,1.46a10.19,10.19,0,0,1,3.18,1.87,3.18,3.18,0,0,1,.82,2.31,4,4,0,0,1-1.37,3.11,4.91,4.91,0,0,1-7.79-2l2.53-1.18a5.72,5.72,0,0,0,.8,1.18,1.85,1.85,0,0,0,1.29.5c1,0,1.51-.46,1.51-1.37,0-.53-.39-1-1.16-1.48l-.9-.44-.91-.43a5.42,5.42,0,0,1-1.82-1.27,3.09,3.09,0,0,1-.67-2.07,3.64,3.64,0,0,1,1.15-2.76,4,4,0,0,1,2.84-1.1A3.89,3.89,0,0,1,244.28,507.26Z"/><path class="cls-2" d="M259.47,512.19h-9.21a4,4,0,0,0,1,2.52,3.17,3.17,0,0,0,2.34.92,3.07,3.07,0,0,0,1.83-.53,7.62,7.62,0,0,0,1.62-2l2.5,1.4a9.55,9.55,0,0,1-1.22,1.69A6.26,6.26,0,0,1,257,517.4a5.59,5.59,0,0,1-1.59.67,7.79,7.79,0,0,1-1.86.21,6,6,0,0,1-4.61-1.85,6.92,6.92,0,0,1-1.74-4.93,7.14,7.14,0,0,1,1.68-4.93,5.83,5.83,0,0,1,4.51-1.86,5.73,5.73,0,0,1,4.48,1.81,7.09,7.09,0,0,1,1.64,5Zm-3.05-2.43a2.84,2.84,0,0,0-3-2.37,3.11,3.11,0,0,0-1,.16,2.92,2.92,0,0,0-.86.48,3,3,0,0,0-.67.74,3.69,3.69,0,0,0-.42,1Z"/><path class="cls-2" d="M262.71,505.07h3v1.18a4.89,4.89,0,0,1,3.51-1.54,4.43,4.43,0,0,1,3.49,1.41,5.79,5.79,0,0,1,1.08,3.92v7.87h-3v-7.17a4.74,4.74,0,0,0-.53-2.63,2.12,2.12,0,0,0-1.87-.74,2.31,2.31,0,0,0-2.1,1,6.76,6.76,0,0,0-.6,3.36v6.2h-3Z"/><rect class="cls-2" x="75.69" y="532.23" width="218.44" height="1.58"/><rect class="cls-2" x="76.18" y="546.25" width="218.44" height="1.58"/><rect class="cls-2" x="76.18" y="560.26" width="218.44" height="1.58"/><rect class="cls-13" x="55.87" y="258.36" width="258.58" height="109.49"/><path class="cls-2" d="M81,290.51v8.27H77.89V278.42h3.48a15.53,15.53,0,0,1,3.86.36,5.1,5.1,0,0,1,2.32,1.34,5.8,5.8,0,0,1,1.76,4.33,5.55,5.55,0,0,1-1.88,4.42,7.39,7.39,0,0,1-5.05,1.64Zm0-2.85h1.15q4.23,0,4.23-3.25c0-2.11-1.46-3.16-4.36-3.16H81Z"/><path class="cls-2" d="M100.64,285.93h3v12.85h-3v-1.35a5.7,5.7,0,0,1-8.34-.21,7.16,7.16,0,0,1-1.73-4.9,7,7,0,0,1,1.73-4.82,5.56,5.56,0,0,1,4.32-1.92,5.43,5.43,0,0,1,4,1.84Zm-7,6.39a4.45,4.45,0,0,0,1,3,3.26,3.26,0,0,0,2.56,1.18,3.38,3.38,0,0,0,2.66-1.14,4.86,4.86,0,0,0,0-6,3.35,3.35,0,0,0-2.63-1.15,3.29,3.29,0,0,0-2.56,1.16A4.29,4.29,0,0,0,93.6,292.32Z"/><path class="cls-2" d="M110.43,288.7v10.08h-3V288.7h-1.27v-2.77h1.27v-4.7h3v4.7h2.3v2.77Z"/><path class="cls-2" d="M114.75,285.93h3v1.15a5.44,5.44,0,0,1,1.45-1.17,3.32,3.32,0,0,1,1.53-.33,4.8,4.8,0,0,1,2.45.76l-1.36,2.72a2.86,2.86,0,0,0-1.65-.61c-1.62,0-2.42,1.22-2.42,3.67v6.66h-3Z"/><path class="cls-2" d="M124.81,280.6a1.92,1.92,0,0,1,3.29-1.35,1.82,1.82,0,0,1,.57,1.36,1.87,1.87,0,0,1-.57,1.37,1.8,1.8,0,0,1-1.35.57,1.84,1.84,0,0,1-1.37-.57A1.88,1.88,0,0,1,124.81,280.6Zm3.41,5.33v12.85h-3V285.93Z"/><path class="cls-2" d="M142,286.49v3.94a7,7,0,0,0-1.82-1.7,3.47,3.47,0,0,0-1.85-.48,3.69,3.69,0,0,0-2.79,1.18,4.14,4.14,0,0,0-1.1,2.94,4.2,4.2,0,0,0,1.06,3,3.59,3.59,0,0,0,2.76,1.17,3.72,3.72,0,0,0,1.88-.47,7.44,7.44,0,0,0,1.86-1.74v3.92a7.79,7.79,0,0,1-3.61.93,6.91,6.91,0,0,1-5-1.92,6.42,6.42,0,0,1-2-4.81,6.5,6.5,0,0,1,2-4.85,6.89,6.89,0,0,1,5-2A7.39,7.39,0,0,1,142,286.49Z"/><path class="cls-2" d="M148.51,276.51v13.58l4.18-4.16h4l-5.57,5.4,6,7.45h-3.85L149,293.36l-.48.47v4.95h-3V276.51Z"/><path class="cls-2" d="M167.89,298.78V278.42H171a13.47,13.47,0,0,1,3.26.32,5,5,0,0,1,2.07,1.06,5.7,5.7,0,0,1,1.36,1.94,5.93,5.93,0,0,1,.51,2.38,4.83,4.83,0,0,1-1.67,3.7,4.86,4.86,0,0,1,2.55,1.94,5.77,5.77,0,0,1-3,8.63,12.94,12.94,0,0,1-3.46.39ZM171,287.16h1a3.52,3.52,0,0,0,2.51-.76,2.94,2.94,0,0,0,.8-2.23,2.81,2.81,0,0,0-.82-2.18,3.4,3.4,0,0,0-2.37-.75H171Zm0,8.73h1.9a4.68,4.68,0,0,0,3.06-.82,2.81,2.81,0,0,0,1-2.24,2.85,2.85,0,0,0-1-2.21,5.11,5.11,0,0,0-3.44-.89H171Z"/><path class="cls-2" d="M192.76,285.93h3v12.85h-3v-1.35a5.71,5.71,0,0,1-8.35-.21,7.16,7.16,0,0,1-1.73-4.9,7,7,0,0,1,1.73-4.82,5.57,5.57,0,0,1,4.33-1.92,5.47,5.47,0,0,1,4,1.84Zm-7,6.39a4.45,4.45,0,0,0,1,3,3.22,3.22,0,0,0,2.55,1.18,3.41,3.41,0,0,0,2.67-1.14,4.9,4.9,0,0,0,0-6,3.39,3.39,0,0,0-2.64-1.15,3.3,3.3,0,0,0-2.56,1.16A4.33,4.33,0,0,0,185.72,292.32Z"/><path class="cls-2" d="M199.48,285.93h3v1.19a4.87,4.87,0,0,1,3.51-1.54,4.42,4.42,0,0,1,3.49,1.41,5.78,5.78,0,0,1,1.08,3.92v7.87h-3V291.6A4.62,4.62,0,0,0,207,289a2.12,2.12,0,0,0-1.87-.74,2.28,2.28,0,0,0-2.09,1,6.63,6.63,0,0,0-.61,3.36v6.2h-3Z"/><path class="cls-2" d="M226.7,298.47c0,.61,0,1.14,0,1.6a10.89,10.89,0,0,1-.17,1.22,5.42,5.42,0,0,1-1.24,2.5,6,6,0,0,1-4.78,2,6.42,6.42,0,0,1-4.24-1.38,5.66,5.66,0,0,1-2-4h3a3.4,3.4,0,0,0,.56,1.47,3.19,3.19,0,0,0,2.69,1.2c2.17,0,3.26-1.34,3.26-4v-1.79a5.56,5.56,0,0,1-4.08,1.8,5.47,5.47,0,0,1-4.29-1.89,7,7,0,0,1-1.69-4.82,7.38,7.38,0,0,1,1.57-4.77,5.44,5.44,0,0,1,4.45-2.08,5.19,5.19,0,0,1,4,1.8v-1.45h3Zm-2.84-6.09a4.31,4.31,0,0,0-1-3,3.28,3.28,0,0,0-2.59-1.15,3.22,3.22,0,0,0-2.67,1.25,5.19,5.19,0,0,0,0,5.78,3.21,3.21,0,0,0,2.67,1.23,3.28,3.28,0,0,0,2.69-1.24A4.47,4.47,0,0,0,223.86,292.38Z"/><rect class="cls-2" x="75.69" y="313.1" width="218.44" height="1.58"/><rect class="cls-2" x="76.18" y="327.11" width="218.44" height="1.58"/><rect class="cls-2" x="76.18" y="341.13" width="218.44" height="1.58"/><rect class="cls-14" x="55.87" y="148.87" width="258.58" height="109.49"/><path class="cls-2" d="M89.4,172l-2.49,1.47a4.26,4.26,0,0,0-1.34-1.58,3.1,3.1,0,0,0-1.7-.42,3.15,3.15,0,0,0-2.12.72,2.27,2.27,0,0,0-.84,1.8c0,1,.74,1.79,2.21,2.4l2,.83a8.68,8.68,0,0,1,3.63,2.44,5.53,5.53,0,0,1,1.14,3.54,6.21,6.21,0,0,1-1.87,4.64,6.41,6.41,0,0,1-4.68,1.85A6.23,6.23,0,0,1,79,188.09a7.21,7.21,0,0,1-2.13-4.42L80,183a5.34,5.34,0,0,0,.74,2.48,3.52,3.52,0,0,0,5.16.35,3.33,3.33,0,0,0,1-2.44,3.46,3.46,0,0,0-.17-1.09,2.79,2.79,0,0,0-.51-.9,4.18,4.18,0,0,0-.91-.78,8.33,8.33,0,0,0-1.31-.69l-2-.82c-2.78-1.18-4.18-2.9-4.18-5.17a4.91,4.91,0,0,1,1.76-3.84,6.36,6.36,0,0,1,4.36-1.55A6.09,6.09,0,0,1,89.4,172Z"/><path class="cls-2" d="M96,167V180.6l4.18-4.15h4l-5.58,5.39,6,7.45h-3.85l-4.25-5.42-.47.48v4.94h-3V167Z"/><path class="cls-2" d="M115.51,176.45h3v12.84h-3v-1.35a5.68,5.68,0,0,1-8.34-.21,7.16,7.16,0,0,1-1.73-4.9,6.93,6.93,0,0,1,1.73-4.81,5.54,5.54,0,0,1,4.32-1.93,5.45,5.45,0,0,1,4,1.85Zm-7,6.38a4.45,4.45,0,0,0,1,3A3.23,3.23,0,0,0,112,187a3.38,3.38,0,0,0,2.66-1.14,4.85,4.85,0,0,0,0-6,3.32,3.32,0,0,0-2.63-1.15,3.29,3.29,0,0,0-2.56,1.16A4.26,4.26,0,0,0,108.47,182.83Z"/><path class="cls-2" d="M125.3,179.22v10.07h-3V179.22h-1.27v-2.77h1.27v-4.71h3v4.71h2.3v2.77Z"/><path class="cls-2" d="M151,171.2v3L141,179l10,4.73v3l-13.24-6.46v-2.6Z"/><path class="cls-2" d="M159.73,179.84v-2.63a5.4,5.4,0,0,0,2.63-.43,2.69,2.69,0,0,0,1.2-2.45,2.8,2.8,0,0,0-.87-2.13,3.11,3.11,0,0,0-2.23-.83,2.9,2.9,0,0,0-2,.62,4.11,4.11,0,0,0-1,2.14h-3.06a7.07,7.07,0,0,1,2-4.21,5.88,5.88,0,0,1,4.13-1.34,6.13,6.13,0,0,1,4.36,1.58,5.26,5.26,0,0,1,1.69,4.05,5,5,0,0,1-2.22,4.35,5.17,5.17,0,0,1,2.53,4.84,5.89,5.89,0,0,1-1.84,4.48,6.62,6.62,0,0,1-4.73,1.74,6.07,6.07,0,0,1-5.46-2.7,7.07,7.07,0,0,1-.94-3.14h3A3.62,3.62,0,0,0,158,186a3.56,3.56,0,0,0,2.39.78,3.32,3.32,0,0,0,2.47-1,3.55,3.55,0,0,0,1-2.57,3.12,3.12,0,0,0-1.47-2.92A5.34,5.34,0,0,0,159.73,179.84Z"/><path class="cls-2" d="M176.4,179.84v-2.63a5.35,5.35,0,0,0,2.62-.43,2.69,2.69,0,0,0,1.2-2.45,2.8,2.8,0,0,0-.87-2.13,3.07,3.07,0,0,0-2.23-.83,2.92,2.92,0,0,0-2,.62,4.19,4.19,0,0,0-1,2.14h-3.06a7.07,7.07,0,0,1,1.95-4.21,5.9,5.9,0,0,1,4.13-1.34,6.13,6.13,0,0,1,4.36,1.58,5.26,5.26,0,0,1,1.69,4.05,5,5,0,0,1-2.21,4.35,5.19,5.19,0,0,1,2.53,4.84,5.9,5.9,0,0,1-1.85,4.48,6.62,6.62,0,0,1-4.73,1.74,6.09,6.09,0,0,1-5.46-2.7,7.07,7.07,0,0,1-.93-3.14h3a3.32,3.32,0,0,0,3.55,3,3.31,3.31,0,0,0,2.46-1,3.55,3.55,0,0,0,1-2.57,3.13,3.13,0,0,0-1.46-2.92A5.39,5.39,0,0,0,176.4,179.84Z"/><rect class="cls-2" x="75.69" y="203.61" width="218.44" height="1.58"/><rect class="cls-2" x="76.18" y="217.63" width="218.44" height="1.58"/><rect class="cls-2" x="76.18" y="231.64" width="218.44" height="1.58"/><rect class="cls-13" x="55.87" y="367.84" width="258.58" height="109.49"/><path class="cls-2" d="M84.78,399.58l6.3,8.68H87.33l-5.82-8.33H81v8.33H77.89V387.9h3.6q4,0,5.82,1.52a5.58,5.58,0,0,1,2,4.46,5.73,5.73,0,0,1-1.24,3.71A5.47,5.47,0,0,1,84.78,399.58ZM81,397.25h1c2.9,0,4.36-1.11,4.36-3.33s-1.42-3.13-4.25-3.13H81Z"/><path class="cls-2" d="M104.84,402.54H95.63a4,4,0,0,0,1,2.52A3.17,3.17,0,0,0,99,406a3.07,3.07,0,0,0,1.83-.53,7.62,7.62,0,0,0,1.62-1.95l2.5,1.4a9.55,9.55,0,0,1-1.22,1.69,6.26,6.26,0,0,1-1.39,1.16,5.32,5.32,0,0,1-1.59.67,7.79,7.79,0,0,1-1.86.21,6,6,0,0,1-4.61-1.85,6.92,6.92,0,0,1-1.74-4.93,7.14,7.14,0,0,1,1.68-4.93,5.83,5.83,0,0,1,4.51-1.86,5.73,5.73,0,0,1,4.48,1.81,7.09,7.09,0,0,1,1.64,5Zm-3-2.43a2.84,2.84,0,0,0-3-2.37,3.11,3.11,0,0,0-1,.16,2.92,2.92,0,0,0-.86.48,3.17,3.17,0,0,0-.67.74,3.69,3.69,0,0,0-.42,1Z"/><path class="cls-2" d="M107.63,390.08a1.81,1.81,0,0,1,.57-1.34,1.85,1.85,0,0,1,1.36-.57,1.87,1.87,0,0,1,1.37.57,1.83,1.83,0,0,1,.56,1.35,1.87,1.87,0,0,1-.56,1.37,1.84,1.84,0,0,1-1.36.57,1.95,1.95,0,0,1-1.94-1.95Zm3.41,5.34v19.83h-3V395.42Z"/><path class="cls-2" d="M122.26,397.61l-2.45,1.3c-.38-.79-.86-1.18-1.43-1.18a1,1,0,0,0-.7.27.88.88,0,0,0-.29.69c0,.49.57,1,1.71,1.46a10.44,10.44,0,0,1,3.18,1.87,3.24,3.24,0,0,1,.81,2.31,4,4,0,0,1-1.37,3.11,4.91,4.91,0,0,1-7.79-2l2.53-1.18a5.26,5.26,0,0,0,.81,1.18,1.85,1.85,0,0,0,1.29.5c1,0,1.5-.46,1.5-1.37,0-.53-.38-1-1.16-1.48l-.89-.43-.91-.44a5.46,5.46,0,0,1-1.82-1.26,3.13,3.13,0,0,1-.68-2.07,3.68,3.68,0,0,1,1.15-2.77,4,4,0,0,1,2.85-1.1A3.88,3.88,0,0,1,122.26,397.61Z"/><path class="cls-2" d="M137.45,402.54h-9.2a3.92,3.92,0,0,0,1,2.52,3.13,3.13,0,0,0,2.33.92,3,3,0,0,0,1.83-.53,7.41,7.41,0,0,0,1.63-1.95l2.5,1.4a10.11,10.11,0,0,1-1.23,1.69,6.45,6.45,0,0,1-1.38,1.16,5.27,5.27,0,0,1-1.6.67,7.76,7.76,0,0,1-1.85.21,6.06,6.06,0,0,1-4.62-1.85,6.92,6.92,0,0,1-1.74-4.93,7.1,7.1,0,0,1,1.69-4.93,5.82,5.82,0,0,1,4.51-1.86,5.75,5.75,0,0,1,4.48,1.81,7.09,7.09,0,0,1,1.63,5Zm-3-2.43a2.85,2.85,0,0,0-3-2.37,3,3,0,0,0-1,.16,2.69,2.69,0,0,0-.86.48,3,3,0,0,0-.67.74,3.15,3.15,0,0,0-.42,1Z"/><path class="cls-2" d="M143.66,386v13.58l4.18-4.15h4l-5.57,5.39,6,7.45h-3.85l-4.24-5.42-.48.48v4.94h-3V386Z"/><path class="cls-2" d="M153,401.75a6.39,6.39,0,0,1,2-4.74,6.65,6.65,0,0,1,4.85-1.95,6.73,6.73,0,0,1,4.88,2,6.56,6.56,0,0,1,2,4.82,6.49,6.49,0,0,1-2,4.84,6.8,6.8,0,0,1-4.92,1.94,6.51,6.51,0,0,1-4.83-2A6.64,6.64,0,0,1,153,401.75Zm3,.05a4.33,4.33,0,0,0,1,3.05,4,4,0,0,0,5.56,0,4.83,4.83,0,0,0,0-6,4,4,0,0,0-5.54,0A4.14,4.14,0,0,0,156,401.8Z"/><path class="cls-2" d="M169.83,395.42h3v1.15a5.67,5.67,0,0,1,1.45-1.18,3.32,3.32,0,0,1,1.53-.33,4.79,4.79,0,0,1,2.45.77l-1.36,2.71a2.84,2.84,0,0,0-1.65-.6q-2.41,0-2.42,3.66v6.66h-3Z"/><path class="cls-2" d="M184,398.19v10.07h-3V398.19h-1.27v-2.77H181v-4.71h3v4.71h2.31v2.77Z"/><path class="cls-2" d="M209.14,403.32h-8.71l-2.27,4.94h-3.31l10.08-21.63,9.71,21.63h-3.36Zm-1.25-2.89-3-6.92-3.16,6.92Z"/><path class="cls-2" d="M226.19,385.77l2.45,1.08-11.65,27-2.43-1.09Z"/><path class="cls-2" d="M242.68,390.94l-2.49,1.47a4.26,4.26,0,0,0-1.33-1.58,3.55,3.55,0,0,0-3.82.3,2.25,2.25,0,0,0-.85,1.8q0,1.49,2.22,2.4l2,.83a8.67,8.67,0,0,1,3.62,2.44,5.51,5.51,0,0,1,1.15,3.54,6.21,6.21,0,0,1-1.87,4.64,6.44,6.44,0,0,1-4.68,1.85,6.24,6.24,0,0,1-4.38-1.57,7.25,7.25,0,0,1-2.12-4.42l3.11-.68a5.34,5.34,0,0,0,.74,2.48,3.51,3.51,0,0,0,5.15.35,3.29,3.29,0,0,0,1-2.44,3.4,3.4,0,0,0-.16-1.08,2.59,2.59,0,0,0-.52-.91,3.89,3.89,0,0,0-.9-.78,8.94,8.94,0,0,0-1.32-.69l-2-.82q-4.19-1.77-4.18-5.17a4.91,4.91,0,0,1,1.75-3.84,6.38,6.38,0,0,1,4.37-1.55A6.08,6.08,0,0,1,242.68,390.94Z"/><rect class="cls-2" x="75.69" y="422.58" width="218.44" height="1.58"/><rect class="cls-2" x="76.18" y="436.6" width="218.44" height="1.58"/><rect class="cls-2" x="76.18" y="450.61" width="218.44" height="1.58"/><rect class="cls-12" x="314.45" y="60.26" width="408.68" height="89.15"/><path class="cls-2" d="M345.41,86.71h-6.78l-1.76,3.82h-2.58l7.84-16.72,7.56,16.72h-2.62Zm-1-2.23-2.35-5.35-2.46,5.35Z"/><path class="cls-2" d="M359.57,77h-5.52v3.78h5.33V83h-5.33v7.49h-2.38V74.8h7.9Z"/><path class="cls-2" d="M371.29,77.14l-1.94,1.14a3.3,3.3,0,0,0-1-1.22,2.43,2.43,0,0,0-1.33-.33,2.48,2.48,0,0,0-1.65.56,1.76,1.76,0,0,0-.65,1.39c0,.77.57,1.39,1.72,1.86l1.58.64a6.7,6.7,0,0,1,2.82,1.89,4.24,4.24,0,0,1,.89,2.73,4.79,4.79,0,0,1-1.45,3.59,5,5,0,0,1-3.65,1.43,4.93,4.93,0,0,1-3.4-1.21,5.6,5.6,0,0,1-1.65-3.42l2.42-.53a4.15,4.15,0,0,0,.57,1.92A2.63,2.63,0,0,0,369.29,86a2.47,2.47,0,0,0-.13-.84,2.09,2.09,0,0,0-.4-.71,3.27,3.27,0,0,0-.7-.6,8,8,0,0,0-1-.53l-1.53-.63q-3.25-1.38-3.25-4a3.79,3.79,0,0,1,1.36-3,5,5,0,0,1,3.4-1.2A4.73,4.73,0,0,1,371.29,77.14Z"/><path class="cls-2" d="M383.32,77H377v3.78h6.16V83H377V88.3h6.35v2.23h-8.74V74.8h8.74Z"/><path class="cls-2" d="M386.46,90.53V73.73l11.54,12V74.8h2.39V91.49l-11.54-12v11Z"/><path class="cls-2" d="M404.19,90.53V74.8h3.32a11.91,11.91,0,0,1,3.77.47,7.07,7.07,0,0,1,2.7,1.55,8.12,8.12,0,0,1-.1,11.72,7.73,7.73,0,0,1-2.69,1.56,12.44,12.44,0,0,1-3.72.43Zm2.38-2.23h1.08a9.24,9.24,0,0,0,2.68-.33,5.51,5.51,0,0,0,1.93-1.14A5.36,5.36,0,0,0,414,82.66a5.44,5.44,0,0,0-1.74-4.19A6.64,6.64,0,0,0,407.65,77h-1.08Z"/><path class="cls-2" d="M428.17,77h-6.35v3.78H428V83h-6.16V88.3h6.35v2.23h-8.74V74.8h8.74Z"/><path class="cls-2" d="M436.67,83.83l4.9,6.7h-2.92l-4.52-6.44h-.43v6.44h-2.39V74.8h2.8A7,7,0,0,1,438.64,76a4.31,4.31,0,0,1,1.54,3.44,4.42,4.42,0,0,1-1,2.88A4.33,4.33,0,0,1,436.67,83.83Zm-3-1.81h.76q3.39,0,3.39-2.58c0-1.61-1.1-2.41-3.3-2.41h-.85Z"/><path class="cls-2" d="M443.87,81.73a1.33,1.33,0,0,1,.42-1,1.36,1.36,0,0,1,1-.42,1.38,1.38,0,0,1,1,.42,1.36,1.36,0,0,1,.42,1,1.43,1.43,0,1,1-2.85,0Zm0,7.66a1.42,1.42,0,0,1,1.42-1.4,1.41,1.41,0,0,1,1,2.42,1.4,1.4,0,0,1-1,.41,1.38,1.38,0,0,1-1-.41A1.35,1.35,0,0,1,443.87,89.39Z"/><path class="cls-2" d="M485.3,77.14l-1.93,1.14a3.4,3.4,0,0,0-1-1.22,2.39,2.39,0,0,0-1.32-.33,2.44,2.44,0,0,0-1.65.56,1.74,1.74,0,0,0-.66,1.39c0,.77.57,1.39,1.72,1.86l1.58.64a6.57,6.57,0,0,1,2.82,1.89,4.19,4.19,0,0,1,.89,2.73,4.79,4.79,0,0,1-1.45,3.59,5,5,0,0,1-3.64,1.43,4.94,4.94,0,0,1-3.41-1.21,5.6,5.6,0,0,1-1.65-3.42l2.42-.53a4,4,0,0,0,.58,1.92,2.73,2.73,0,0,0,4,.27A2.55,2.55,0,0,0,483.3,86a2.75,2.75,0,0,0-.12-.84,2.28,2.28,0,0,0-.4-.71,3.34,3.34,0,0,0-.71-.6,6.84,6.84,0,0,0-1-.53l-1.53-.63q-3.25-1.38-3.25-4a3.83,3.83,0,0,1,1.36-3,5,5,0,0,1,3.4-1.2A4.73,4.73,0,0,1,485.3,77.14Z"/><path class="cls-2" d="M490.46,73.32v10.5l3.25-3.21h3.1l-4.34,4.17,4.66,5.75h-3l-3.3-4.19-.37.37v3.82h-2.31V73.32Z"/><path class="cls-2" d="M505.62,80.61h2.31v9.92h-2.31v-1a4.44,4.44,0,0,1-6.49-.16,5.5,5.5,0,0,1-1.35-3.79,5.32,5.32,0,0,1,1.35-3.72,4.33,4.33,0,0,1,3.36-1.49,4.29,4.29,0,0,1,3.13,1.43Zm-5.48,4.93a3.44,3.44,0,0,0,.77,2.32,2.52,2.52,0,0,0,2,.91,2.65,2.65,0,0,0,2.07-.88,3.74,3.74,0,0,0,0-4.6,2.63,2.63,0,0,0-2.05-.89,2.55,2.55,0,0,0-2,.9A3.26,3.26,0,0,0,500.14,85.54Z"/><path class="cls-2" d="M513.23,82.75v7.78h-2.31V82.75h-1V80.61h1V77h2.31v3.64H515v2.14Z"/><path class="cls-2" d="M533.24,76.55v2.34l-7.77,3.66,7.77,3.66v2.33l-10.29-5v-2Z"/><path class="cls-2" d="M540,83.23v-2a4.23,4.23,0,0,0,2-.34A2.08,2.08,0,0,0,543,79a2.16,2.16,0,0,0-.67-1.64,2.45,2.45,0,0,0-1.74-.64,2.27,2.27,0,0,0-1.54.48,3.26,3.26,0,0,0-.77,1.65h-2.38a5.42,5.42,0,0,1,1.51-3.25,4.64,4.64,0,0,1,3.21-1,4.82,4.82,0,0,1,3.4,1.22,4.1,4.1,0,0,1,1.31,3.13,3.87,3.87,0,0,1-1.72,3.37,4,4,0,0,1,2,3.74,4.51,4.51,0,0,1-1.44,3.46,5.15,5.15,0,0,1-3.68,1.35,4.76,4.76,0,0,1-4.25-2.09,5.38,5.38,0,0,1-.72-2.43h2.3a2.84,2.84,0,0,0,.9,1.75,2.76,2.76,0,0,0,1.86.61,2.61,2.61,0,0,0,1.92-.77,2.71,2.71,0,0,0,.76-2,2.43,2.43,0,0,0-1.14-2.27A4.33,4.33,0,0,0,540,83.23Z"/><path class="cls-2" d="M553,83.23v-2a4.23,4.23,0,0,0,2-.34,2.08,2.08,0,0,0,.93-1.9,2.16,2.16,0,0,0-.67-1.64,2.45,2.45,0,0,0-1.74-.64,2.23,2.23,0,0,0-1.53.48,3.18,3.18,0,0,0-.78,1.65h-2.38a5.42,5.42,0,0,1,1.51-3.25,4.64,4.64,0,0,1,3.21-1,4.82,4.82,0,0,1,3.4,1.22,4.1,4.1,0,0,1,1.31,3.13,3.87,3.87,0,0,1-1.72,3.37,4,4,0,0,1,2,3.74,4.51,4.51,0,0,1-1.44,3.46,5.15,5.15,0,0,1-3.68,1.35,4.73,4.73,0,0,1-4.24-2.09,5.25,5.25,0,0,1-.73-2.43h2.3a2.84,2.84,0,0,0,.9,1.75,2.76,2.76,0,0,0,1.86.61,2.59,2.59,0,0,0,1.92-.77,2.71,2.71,0,0,0,.76-2A2.43,2.43,0,0,0,555,83.61,4.33,4.33,0,0,0,553,83.23Z"/><path class="cls-2" d="M342.12,112v13.5h-2.39V112h-3.64v-2.23h9.66V112Z"/><path class="cls-2" d="M350.27,109.79v15.73h-2.39V109.79Z"/><path class="cls-2" d="M356.47,109.79v13.5h4.65v2.23h-7V109.79Z"/><path class="cls-2" d="M363.31,116.72a1.33,1.33,0,0,1,.42-1,1.36,1.36,0,0,1,1-.42,1.38,1.38,0,0,1,1,.42,1.36,1.36,0,0,1,.42,1,1.38,1.38,0,0,1-.42,1,1.4,1.4,0,0,1-1,.41,1.42,1.42,0,0,1-1.42-1.44Zm0,7.66a1.35,1.35,0,0,1,.42-1,1.39,1.39,0,0,1,1-.41,1.41,1.41,0,0,1,1,.41,1.41,1.41,0,0,1,0,2,1.4,1.4,0,0,1-1,.41,1.38,1.38,0,0,1-1-.41A1.35,1.35,0,0,1,363.31,124.38Z"/><path class="cls-2" d="M477.38,115.6h2.31v.91a4.54,4.54,0,0,1,1.14-.93,2.74,2.74,0,0,1,1.26-.26,3.07,3.07,0,0,1,2.68,1.47,3.46,3.46,0,0,1,2.94-1.47q3.38,0,3.37,4.07v6.13h-2.31V120a4.29,4.29,0,0,0-.35-2,1.28,1.28,0,0,0-1.18-.6,1.51,1.51,0,0,0-1.39.71,4.59,4.59,0,0,0-.44,2.3v5.12h-2.32V120c0-1.77-.51-2.65-1.53-2.65a1.54,1.54,0,0,0-1.42.72,4.5,4.5,0,0,0-.45,2.29v5.12h-2.31Z"/><path class="cls-2" d="M493.65,111.47a1.39,1.39,0,0,1,.44-1,1.44,1.44,0,0,1,1.05-.44,1.46,1.46,0,0,1,1.07.44,1.4,1.4,0,0,1,.44,1,1.46,1.46,0,0,1-.44,1.06,1.44,1.44,0,0,1-1.06.44,1.46,1.46,0,0,1-1.06-.44A1.43,1.43,0,0,1,493.65,111.47Zm2.65,4.13v9.92H494V115.6Z"/><path class="cls-2" d="M508.88,125.29c0,.47,0,.88,0,1.24s-.08.67-.13.94a4.34,4.34,0,0,1-1,1.93A4.72,4.72,0,0,1,504,131a5,5,0,0,1-3.29-1.07,4.39,4.39,0,0,1-1.54-3h2.32A2.64,2.64,0,0,0,502,128a2.49,2.49,0,0,0,2.09.93c1.69,0,2.54-1,2.54-3.09v-1.39a4.35,4.35,0,0,1-3.17,1.4,4.28,4.28,0,0,1-3.35-1.47,5.43,5.43,0,0,1-1.31-3.72,5.71,5.71,0,0,1,1.22-3.69,4.27,4.27,0,0,1,3.47-1.61,4.05,4.05,0,0,1,3.14,1.4V115.6h2.3Zm-2.21-4.71a3.31,3.31,0,0,0-.78-2.31,2.6,2.6,0,0,0-2-.89,2.46,2.46,0,0,0-2.07,1,3.48,3.48,0,0,0-.69,2.24,3.42,3.42,0,0,0,.69,2.22,2.47,2.47,0,0,0,2.07,1,2.53,2.53,0,0,0,2.09-1A3.4,3.4,0,0,0,506.67,120.58Z"/><rect class="cls-15" x="369.26" y="172.85" width="674.39" height="91.13"/><path d="M390.85,196.24h5.85v-5.31h2.05V204.5H396.7v-6.34h-5.85v6.34H388.8V190.93h2.05Z"/><path d="M409.42,200.68h-6.14a2.54,2.54,0,0,0,.69,1.68,2.08,2.08,0,0,0,1.55.62,2,2,0,0,0,1.22-.36,4.84,4.84,0,0,0,1.09-1.3l1.67.94a6.86,6.86,0,0,1-.82,1.13,4.65,4.65,0,0,1-.92.77,3.72,3.72,0,0,1-1.07.44,4.86,4.86,0,0,1-1.24.14,4,4,0,0,1-3.07-1.23,4.57,4.57,0,0,1-1.16-3.28,4.74,4.74,0,0,1,1.12-3.29,4.3,4.3,0,0,1,6,0,4.78,4.78,0,0,1,1.09,3.32Zm-2-1.61a1.9,1.9,0,0,0-2-1.59,2.2,2.2,0,0,0-.68.11,2,2,0,0,0-.57.32,2.17,2.17,0,0,0-.45.5,2.48,2.48,0,0,0-.28.66Z"/><path d="M414,202.91l-3.85-7h2.29l2.62,4.92,2.45-4.92h2.23l-6.82,13.22h-2.26Z"/><path d="M431.58,197.4l-1.63.87c-.26-.53-.58-.8-1-.8a.68.68,0,0,0-.47.19.63.63,0,0,0-.19.46c0,.32.38.65,1.14,1a6.76,6.76,0,0,1,2.12,1.25,2.15,2.15,0,0,1,.55,1.54,2.69,2.69,0,0,1-.92,2.07,3.27,3.27,0,0,1-5.19-1.31l1.69-.78a3.6,3.6,0,0,0,.53.78,1.2,1.2,0,0,0,.86.34c.67,0,1-.31,1-.92,0-.35-.25-.68-.77-1l-.6-.29-.6-.29a3.61,3.61,0,0,1-1.22-.85,2.09,2.09,0,0,1-.44-1.38,2.42,2.42,0,0,1,.76-1.84,2.68,2.68,0,0,1,1.9-.73A2.58,2.58,0,0,1,431.58,197.4Z"/><path d="M435.89,189.65v9.06l2.79-2.77h2.65l-3.72,3.59,4,5H439l-2.83-3.62-.32.32v3.3h-2V189.65Z"/><path d="M448.88,195.94h2v8.56h-2v-.9a3.81,3.81,0,0,1-2.63,1.14,3.76,3.76,0,0,1-2.93-1.28,4.76,4.76,0,0,1-1.16-3.27,4.64,4.64,0,0,1,1.16-3.21,3.7,3.7,0,0,1,2.88-1.28,3.65,3.65,0,0,1,2.68,1.23Zm-4.69,4.25a3,3,0,0,0,.66,2,2.12,2.12,0,0,0,1.7.79,2.31,2.31,0,0,0,1.78-.76,3.28,3.28,0,0,0,0-4,2.26,2.26,0,0,0-1.76-.77,2.19,2.19,0,0,0-1.71.78A2.84,2.84,0,0,0,444.19,200.19Z"/><path d="M455.4,197.78v6.72h-2v-6.72h-.84v-1.84h.84V192.8h2v3.14h1.54v1.84Z"/><path d="M459.51,202l1.75.68-2.5,5-1.34-.55Z"/><path d="M471.43,197.78v6.72h-2v-6.72h-.84v-1.84h.84V192.8h2v3.14H473v1.84Z"/><path d="M474,192.38a1.22,1.22,0,0,1,.37-.9,1.27,1.27,0,0,1,.91-.38,1.24,1.24,0,0,1,.91.38,1.2,1.2,0,0,1,.38.91,1.22,1.22,0,0,1-.38.91,1.2,1.2,0,0,1-.9.38,1.28,1.28,0,0,1-.92-.38A1.25,1.25,0,0,1,474,192.38Zm2.27,3.56v8.56h-2v-8.56Z"/><path d="M480.77,189.65V204.5h-2V189.65Z"/><path d="M485.26,189.65V204.5h-2V189.65Z"/><path d="M490.62,202.91l-3.85-7h2.29l2.62,4.92,2.45-4.92h2.23l-6.82,13.22h-2.26Z"/><path d="M499.68,189.65v9.06l2.79-2.77h2.65l-3.72,3.59,4,5h-2.56L500,200.88l-.32.32v3.3h-2V189.65Z"/><path d="M508.65,189.65v9.06l2.78-2.77h2.66l-3.72,3.59,4,5h-2.57L509,200.88l-.31.32v3.3h-2V189.65Z"/><path d="M523.14,200.68H517a2.59,2.59,0,0,0,.69,1.68,2.08,2.08,0,0,0,1.55.62,2,2,0,0,0,1.23-.36,5,5,0,0,0,1.08-1.3l1.67.94a6.86,6.86,0,0,1-.82,1.13,4.38,4.38,0,0,1-.92.77,3.72,3.72,0,0,1-1.07.44,4.86,4.86,0,0,1-1.24.14,4,4,0,0,1-3.07-1.23,4.57,4.57,0,0,1-1.16-3.28,4.74,4.74,0,0,1,1.12-3.29,4.3,4.3,0,0,1,6,0,4.78,4.78,0,0,1,1.09,3.32Zm-2-1.61a1.9,1.9,0,0,0-2-1.59,2.09,2.09,0,0,0-.67.11,2,2,0,0,0-.58.32,1.93,1.93,0,0,0-.44.5,2,2,0,0,0-.28.66Z"/><path d="M530.85,195.94h2v.79a4.07,4.07,0,0,1,1-.81,2.34,2.34,0,0,1,1.08-.22,2.61,2.61,0,0,1,2.29,1.26,3,3,0,0,1,2.53-1.26c1.92,0,2.89,1.17,2.89,3.51v5.29h-2v-4.76a3.66,3.66,0,0,0-.3-1.74,1.09,1.09,0,0,0-1-.52,1.3,1.3,0,0,0-1.19.62,4,4,0,0,0-.37,2v4.42h-2v-4.73c0-1.52-.44-2.29-1.32-2.29a1.33,1.33,0,0,0-1.22.63,3.93,3.93,0,0,0-.38,2v4.42h-2Z"/><path d="M552.89,200.68h-6.14a2.64,2.64,0,0,0,.69,1.68A2.09,2.09,0,0,0,549,203a2,2,0,0,0,1.22-.36,5,5,0,0,0,1.08-1.3l1.67.94a6.86,6.86,0,0,1-.82,1.13,4.38,4.38,0,0,1-.92.77,3.61,3.61,0,0,1-1.07.44,4.83,4.83,0,0,1-1.23.14,4,4,0,0,1-3.08-1.23,4.61,4.61,0,0,1-1.16-3.28,4.74,4.74,0,0,1,1.12-3.29,4.3,4.3,0,0,1,6,0,4.78,4.78,0,0,1,1.09,3.32Zm-2-1.61a1.9,1.9,0,0,0-2-1.59,2.09,2.09,0,0,0-.67.11,2,2,0,0,0-.58.32,1.93,1.93,0,0,0-.44.5,2,2,0,0,0-.28.66Z"/><path d="M561.36,189.65h2V204.5h-2v-.9a3.69,3.69,0,0,1-2.64,1.14,3.74,3.74,0,0,1-2.92-1.28,4.75,4.75,0,0,1-1.15-3.27,4.61,4.61,0,0,1,1.15-3.2,3.7,3.7,0,0,1,5.56-.06Zm-4.69,10.54a3,3,0,0,0,.66,2,2.14,2.14,0,0,0,1.7.79,2.28,2.28,0,0,0,1.78-.76,3.28,3.28,0,0,0,0-4,2.25,2.25,0,0,0-1.76-.77,2.16,2.16,0,0,0-1.7.78A2.79,2.79,0,0,0,556.67,200.19Z"/><path d="M577.71,189.65h2V204.5h-2v-.9a3.8,3.8,0,0,1-5.56-.14,4.76,4.76,0,0,1-1.16-3.27,4.61,4.61,0,0,1,1.16-3.2,3.7,3.7,0,0,1,5.56-.06ZM573,200.19a3,3,0,0,0,.66,2,2.12,2.12,0,0,0,1.7.79,2.31,2.31,0,0,0,1.78-.76,3.28,3.28,0,0,0,0-4,2.26,2.26,0,0,0-1.76-.77,2.19,2.19,0,0,0-1.71.78A2.84,2.84,0,0,0,573,200.19Z"/><path d="M590,200.68h-6.14a2.59,2.59,0,0,0,.69,1.68,2.08,2.08,0,0,0,1.55.62,2,2,0,0,0,1.23-.36,5,5,0,0,0,1.08-1.3l1.67.94a6.86,6.86,0,0,1-.82,1.13,4.65,4.65,0,0,1-.92.77,3.72,3.72,0,0,1-1.07.44,4.86,4.86,0,0,1-1.24.14,4,4,0,0,1-3.07-1.23,4.57,4.57,0,0,1-1.16-3.28,4.74,4.74,0,0,1,1.12-3.29,4.3,4.3,0,0,1,6,0,4.78,4.78,0,0,1,1.09,3.32Zm-2-1.61a1.9,1.9,0,0,0-2-1.59,2.09,2.09,0,0,0-.67.11,1.94,1.94,0,0,0-1,.82,2.2,2.2,0,0,0-.29.66Z"/><path d="M601.33,192.84H599l1.12-1.91h3.27V204.5h-2Z"/><path d="M613.05,190.45l1.5,1.13L611.31,196l.45-.05a1.68,1.68,0,0,1,.29,0,3.8,3.8,0,0,1,2.85,1.26,4.21,4.21,0,0,1,1.2,3,4.56,4.56,0,0,1-4.53,4.53,4.58,4.58,0,0,1-3.23-1.31A4.17,4.17,0,0,1,607,200.3a5.89,5.89,0,0,1,1.32-3.41Zm1.05,9.87a2.57,2.57,0,0,0-4.38-1.83,2.45,2.45,0,0,0-.75,1.81,2.48,2.48,0,0,0,.75,1.81,2.52,2.52,0,0,0,1.83.74,2.54,2.54,0,0,0,2.55-2.53Z"/><path d="M630.21,195.94h2v8.56h-2v-.9a3.81,3.81,0,0,1-5.57-.14,4.8,4.8,0,0,1-1.15-3.27,4.68,4.68,0,0,1,1.15-3.21,3.74,3.74,0,0,1,2.89-1.28,3.65,3.65,0,0,1,2.68,1.23Zm-4.7,4.25a3,3,0,0,0,.66,2,2.14,2.14,0,0,0,1.71.79,2.28,2.28,0,0,0,1.77-.76,3.24,3.24,0,0,0,0-4,2.22,2.22,0,0,0-1.75-.77,2.19,2.19,0,0,0-1.71.78A2.84,2.84,0,0,0,625.51,200.19Zm.68-7.51a1.81,1.81,0,0,1,.56-1.33,1.84,1.84,0,0,1,1.35-.56A1.91,1.91,0,0,1,630,192.7a1.91,1.91,0,0,1-1.9,1.92,1.9,1.9,0,0,1-1.92-1.94Zm1,0a.85.85,0,0,0,.87.88.85.85,0,0,0,.87-.87.85.85,0,0,0-.87-.87,1,1,0,0,0-.35.07,1,1,0,0,0-.27.19.92.92,0,0,0-.19.28A.87.87,0,0,0,627.24,192.69Z"/><path d="M634.69,195.94h2v.76a3.72,3.72,0,0,1,1-.78,2.19,2.19,0,0,1,1-.22,3.22,3.22,0,0,1,1.64.51l-.91,1.81a1.86,1.86,0,0,0-1.1-.4c-1.07,0-1.61.81-1.61,2.44v4.44h-2Z"/><path d="M640.77,203.51a1.16,1.16,0,0,1,.36-.85,1.18,1.18,0,0,1,.86-.36,1.16,1.16,0,0,1,.86.36,1.22,1.22,0,0,1,0,1.73,1.14,1.14,0,0,1-.86.35,1.18,1.18,0,0,1-.87-.35A1.21,1.21,0,0,1,640.77,203.51Z"/><path d="M388.8,226.1V211.6L398.69,222v-9.43h2.05v14.39l-9.89-10.32v9.5Z"/><path d="M405.8,217.54v4.91c0,1.42.55,2.13,1.67,2.13s1.68-.71,1.68-2.13v-4.91h2v5a5.54,5.54,0,0,1-.25,1.78,3,3,0,0,1-.86,1.2,4.16,4.16,0,0,1-5.09,0,3,3,0,0,1-.87-1.2,5,5,0,0,1-.24-1.78v-5Z"/><path d="M421.16,211.25v7.28a3.65,3.65,0,0,1,2.69-1.23,3.71,3.71,0,0,1,2.88,1.29,4.61,4.61,0,0,1,1.15,3.2,4.68,4.68,0,0,1-1.16,3.27,3.8,3.8,0,0,1-5.56.14v.9h-2V211.25Zm4.7,10.63a3,3,0,0,0-.67-2,2.15,2.15,0,0,0-1.69-.79,2.29,2.29,0,0,0-1.78.77,2.84,2.84,0,0,0-.68,2,2.9,2.9,0,0,0,.67,2,2.23,2.23,0,0,0,1.76.77,2.2,2.2,0,0,0,1.71-.77A2.83,2.83,0,0,0,425.86,221.88Z"/><path d="M437.77,222.28h-6.13a2.58,2.58,0,0,0,.68,1.68,2.1,2.1,0,0,0,1.56.62,2,2,0,0,0,1.22-.35,5.31,5.31,0,0,0,1.08-1.31l1.67.94A6.86,6.86,0,0,1,437,225a4.38,4.38,0,0,1-.92.77,3.66,3.66,0,0,1-1.06.44,5,5,0,0,1-1.24.14,4,4,0,0,1-3.08-1.23,4.61,4.61,0,0,1-1.16-3.28,4.74,4.74,0,0,1,1.12-3.29,4.3,4.3,0,0,1,6,0,4.75,4.75,0,0,1,1.09,3.32Zm-2-1.61a1.9,1.9,0,0,0-2-1.59,2.09,2.09,0,0,0-.67.11,2.19,2.19,0,0,0-.58.32,1.93,1.93,0,0,0-.44.5,2.19,2.19,0,0,0-.28.66Z"/><path d="M439.93,211.25h2v7a3.41,3.41,0,0,1,2.33-.95,3,3,0,0,1,2.32.94,3.86,3.86,0,0,1,.74,2.61v5.25h-2V221a2.47,2.47,0,0,0-.36-1.5,1.45,1.45,0,0,0-1.18-.46,1.61,1.61,0,0,0-1.46.65,4.43,4.43,0,0,0-.41,2.23v4.14h-2Z"/><path d="M456.65,218.13,458,216.8l.9.95L457.58,219a4.54,4.54,0,0,1,1,2.8,4.27,4.27,0,0,1-1.33,3.2,4.37,4.37,0,0,1-3.22,1.3,4.7,4.7,0,0,1-2.83-.89l-1.3,1.25-.9-.91,1.29-1.28a4.72,4.72,0,0,1-.85-2.71,4.28,4.28,0,0,1,1.33-3.19A4.47,4.47,0,0,1,454,217.3,4.81,4.81,0,0,1,456.65,218.13Zm-1.43,1.36a2.73,2.73,0,0,0-1.24-.27,2.49,2.49,0,0,0-1.87.72,2.65,2.65,0,0,0-.69,1.91,3,3,0,0,0,.27,1.28Zm.95.89-3.59,3.72a2.79,2.79,0,0,0,1.39.35,2.43,2.43,0,0,0,1.84-.71,2.59,2.59,0,0,0,.7-1.9A3.36,3.36,0,0,0,456.17,220.38Z"/><path d="M461.69,217.54l2.21,4.8,2.21-4.8h2.22l-4.45,9.15-4.41-9.15Z"/><path d="M477.15,222.28H471a2.58,2.58,0,0,0,.68,1.68,2.12,2.12,0,0,0,1.56.62,2,2,0,0,0,1.22-.35,4.9,4.9,0,0,0,1.08-1.31l1.67.94a6.84,6.84,0,0,1-.81,1.13,4.43,4.43,0,0,1-.93.77,3.66,3.66,0,0,1-1.06.44,4.86,4.86,0,0,1-1.24.14,4,4,0,0,1-3.08-1.23,4.61,4.61,0,0,1-1.16-3.28,4.75,4.75,0,0,1,1.13-3.29,4.29,4.29,0,0,1,6,0,4.75,4.75,0,0,1,1.09,3.32Zm-2-1.61a1.89,1.89,0,0,0-2-1.59,2.15,2.15,0,0,0-.68.11,2,2,0,0,0-.57.32,2,2,0,0,0-.45.5,2.48,2.48,0,0,0-.28.66Z"/><path d="M479.32,217.54h2v.76a3.91,3.91,0,0,1,1-.78,2.19,2.19,0,0,1,1-.22,3.16,3.16,0,0,1,1.63.51l-.9,1.81a1.89,1.89,0,0,0-1.1-.4c-1.08,0-1.62.81-1.62,2.44v4.44h-2Z"/><path d="M491.3,214a1.23,1.23,0,0,1,.38-.9,1.28,1.28,0,0,1,1.82,0,1.24,1.24,0,0,1,.38.91,1.25,1.25,0,0,1-.38.91,1.22,1.22,0,0,1-.9.38,1.3,1.3,0,0,1-1.3-1.3Zm2.28,3.56v13.22h-2V217.54Z"/><path d="M503.88,222.28h-6.13a2.58,2.58,0,0,0,.68,1.68,2.1,2.1,0,0,0,1.56.62,2,2,0,0,0,1.22-.35,4.9,4.9,0,0,0,1.08-1.31l1.67.94a6.86,6.86,0,0,1-.82,1.13,4.14,4.14,0,0,1-.92.77,3.66,3.66,0,0,1-1.06.44,4.91,4.91,0,0,1-1.24.14,4,4,0,0,1-3.08-1.23,4.61,4.61,0,0,1-1.16-3.28,4.75,4.75,0,0,1,1.13-3.29,4.29,4.29,0,0,1,6,0,4.75,4.75,0,0,1,1.09,3.32Zm-2-1.61a1.89,1.89,0,0,0-2-1.59,2.15,2.15,0,0,0-.68.11,2.19,2.19,0,0,0-.58.32,1.93,1.93,0,0,0-.44.5,2.19,2.19,0,0,0-.28.66Z"/><path d="M514.32,225.9c0,.4,0,.76,0,1.06a5.83,5.83,0,0,1-.11.82,3.66,3.66,0,0,1-.82,1.66,4,4,0,0,1-3.19,1.33,4.2,4.2,0,0,1-2.82-.92,3.71,3.71,0,0,1-1.32-2.63h2a2.42,2.42,0,0,0,.38,1,2.13,2.13,0,0,0,1.79.8c1.45,0,2.18-.89,2.18-2.67v-1.19a3.72,3.72,0,0,1-2.72,1.2,3.67,3.67,0,0,1-2.87-1.26,4.71,4.71,0,0,1-1.12-3.21,4.91,4.91,0,0,1,1.05-3.18,3.62,3.62,0,0,1,3-1.39,3.48,3.48,0,0,1,2.69,1.2v-1h2Zm-1.9-4.07a2.9,2.9,0,0,0-.66-2,2.21,2.21,0,0,0-1.74-.76,2.1,2.1,0,0,0-1.77.83,3.44,3.44,0,0,0,0,3.85,2.15,2.15,0,0,0,1.77.82,2.19,2.19,0,0,0,1.8-.83A3,3,0,0,0,512.42,221.83Z"/><path d="M522.07,214a1.23,1.23,0,0,1,.38-.9,1.25,1.25,0,0,1,.91-.38,1.3,1.3,0,0,1,1.29,1.29,1.25,1.25,0,0,1-.38.91,1.22,1.22,0,0,1-.9.38,1.3,1.3,0,0,1-1.3-1.3Zm2.28,3.56v8.56h-2v-8.56Z"/><path d="M528.83,211.25v9.06l2.79-2.77h2.65l-3.71,3.59,4,5H532l-2.83-3.61-.32.31v3.3h-2V211.25Z"/><path d="M537.8,211.25v9.06l2.78-2.77h2.66l-3.72,3.59,4,5h-2.57l-2.83-3.61-.31.31v3.3h-2V211.25Z"/><path d="M552.29,222.28h-6.13a2.58,2.58,0,0,0,.68,1.68,2.12,2.12,0,0,0,1.56.62,2,2,0,0,0,1.22-.35,4.9,4.9,0,0,0,1.08-1.31l1.67.94a6.86,6.86,0,0,1-.82,1.13,4.14,4.14,0,0,1-.92.77,3.66,3.66,0,0,1-1.06.44,4.91,4.91,0,0,1-1.24.14,4,4,0,0,1-3.08-1.23,4.61,4.61,0,0,1-1.16-3.28,4.75,4.75,0,0,1,1.13-3.29,4.29,4.29,0,0,1,6,0,4.75,4.75,0,0,1,1.09,3.32Zm-2-1.61a1.89,1.89,0,0,0-2-1.59,2.15,2.15,0,0,0-.68.11,2.19,2.19,0,0,0-.58.32,1.93,1.93,0,0,0-.44.5,2.19,2.19,0,0,0-.28.66Z"/><path d="M566.32,217.54h2v8.56h-2v-.9a3.81,3.81,0,0,1-2.63,1.14,3.76,3.76,0,0,1-2.93-1.28,4.76,4.76,0,0,1-1.16-3.27,4.64,4.64,0,0,1,1.16-3.21,3.7,3.7,0,0,1,2.88-1.28,3.65,3.65,0,0,1,2.68,1.23Zm-4.69,4.25a3,3,0,0,0,.65,2,2.16,2.16,0,0,0,1.71.79,2.28,2.28,0,0,0,1.78-.76,3.28,3.28,0,0,0,0-4,2.26,2.26,0,0,0-1.76-.77,2.19,2.19,0,0,0-1.71.78A2.84,2.84,0,0,0,561.63,221.79Z"/><path d="M572.84,219.38v6.72h-2v-6.72H570v-1.84h.84V214.4h2v3.14h1.54v1.84Z"/><path d="M583.26,211.25v9.06l2.78-2.77h2.66L585,221.13l4,5H586.4l-2.83-3.61-.31.31v3.3h-2V211.25Z"/><path d="M597.09,218.13l1.35-1.33.9.95L598,219a4.54,4.54,0,0,1,1,2.8,4.27,4.27,0,0,1-1.33,3.2,4.36,4.36,0,0,1-3.21,1.3,4.71,4.71,0,0,1-2.84-.89l-1.3,1.25-.9-.91,1.29-1.28a4.72,4.72,0,0,1-.85-2.71,4.28,4.28,0,0,1,1.33-3.19,4.47,4.47,0,0,1,3.24-1.31A4.81,4.81,0,0,1,597.09,218.13Zm-1.43,1.36a2.73,2.73,0,0,0-1.24-.27,2.49,2.49,0,0,0-1.87.72,2.65,2.65,0,0,0-.69,1.91,3,3,0,0,0,.27,1.28Zm1,.89L593,224.1a2.79,2.79,0,0,0,1.39.35,2.43,2.43,0,0,0,1.84-.71,2.59,2.59,0,0,0,.7-1.9A3.36,3.36,0,0,0,596.61,220.38Z"/><path d="M603,211.25v7.28a3.65,3.65,0,0,1,2.69-1.23,3.71,3.71,0,0,1,2.88,1.29,4.61,4.61,0,0,1,1.15,3.2,4.68,4.68,0,0,1-1.16,3.27,3.8,3.8,0,0,1-5.56.14v.9h-2V211.25Zm4.7,10.63a3,3,0,0,0-.67-2,2.15,2.15,0,0,0-1.69-.79,2.29,2.29,0,0,0-1.78.77,2.84,2.84,0,0,0-.67,2,2.9,2.9,0,0,0,.66,2,2.23,2.23,0,0,0,1.76.77,2.2,2.2,0,0,0,1.71-.77A2.83,2.83,0,0,0,607.74,221.88Z"/><path d="M619.65,222.28h-6.13a2.58,2.58,0,0,0,.68,1.68,2.1,2.1,0,0,0,1.56.62,2,2,0,0,0,1.22-.35,4.9,4.9,0,0,0,1.08-1.31l1.67.94a6.86,6.86,0,0,1-.82,1.13,4.14,4.14,0,0,1-.92.77,3.66,3.66,0,0,1-1.06.44,4.91,4.91,0,0,1-1.24.14,4,4,0,0,1-3.08-1.23,4.61,4.61,0,0,1-1.16-3.28,4.75,4.75,0,0,1,1.13-3.29,4.29,4.29,0,0,1,6,0,4.75,4.75,0,0,1,1.09,3.32Zm-2-1.61a1.89,1.89,0,0,0-2-1.59,2.15,2.15,0,0,0-.68.11,2.19,2.19,0,0,0-.58.32,1.93,1.93,0,0,0-.44.5,2.19,2.19,0,0,0-.28.66Z"/><path d="M633.68,217.54h2v8.56h-2v-.9a3.81,3.81,0,0,1-5.57-.14,4.8,4.8,0,0,1-1.15-3.27,4.68,4.68,0,0,1,1.15-3.21A3.74,3.74,0,0,1,631,217.3a3.65,3.65,0,0,1,2.68,1.23Zm-4.7,4.25a3,3,0,0,0,.66,2,2.16,2.16,0,0,0,1.71.79,2.24,2.24,0,0,0,1.77-.76,3.24,3.24,0,0,0,0-4,2.22,2.22,0,0,0-1.75-.77,2.19,2.19,0,0,0-1.71.78A2.84,2.84,0,0,0,629,221.79Z"/><path d="M640.14,211.25V226.1h-2V211.25Z"/><path d="M644.62,211.25v9.06l2.79-2.77h2.65l-3.72,3.59,4,5h-2.56l-2.83-3.61-.32.31v3.3h-2V211.25Z"/><path d="M650.84,221.76a4.28,4.28,0,0,1,1.33-3.16,4.44,4.44,0,0,1,3.23-1.3,4.5,4.5,0,0,1,3.26,1.31,4.58,4.58,0,0,1,0,6.44,4.55,4.55,0,0,1-3.28,1.29,4.4,4.4,0,0,1-3.23-1.31A4.47,4.47,0,0,1,650.84,221.76Zm2,0a2.87,2.87,0,0,0,.69,2,2.66,2.66,0,0,0,3.71,0,3.23,3.23,0,0,0,0-4,2.44,2.44,0,0,0-1.86-.76,2.4,2.4,0,0,0-1.83.76A2.73,2.73,0,0,0,652.86,221.79Z"/><path d="M662.07,211.25h2v7a3.43,3.43,0,0,1,2.33-.95,3,3,0,0,1,2.32.94,3.8,3.8,0,0,1,.74,2.61v5.25h-2V221a2.47,2.47,0,0,0-.36-1.5,1.41,1.41,0,0,0-1.17-.46,1.61,1.61,0,0,0-1.46.65A4.31,4.31,0,0,0,664,222v4.14h-2Z"/><path d="M671.53,221.76a4.28,4.28,0,0,1,1.33-3.16,4.42,4.42,0,0,1,3.23-1.3,4.5,4.5,0,0,1,3.26,1.31,4.6,4.6,0,0,1,0,6.44,4.55,4.55,0,0,1-3.28,1.29,4.4,4.4,0,0,1-3.23-1.31A4.47,4.47,0,0,1,671.53,221.76Zm2,0a2.87,2.87,0,0,0,.69,2,2.66,2.66,0,0,0,3.71,0,3.23,3.23,0,0,0,0-4,2.44,2.44,0,0,0-1.86-.76,2.4,2.4,0,0,0-1.83.76A2.73,2.73,0,0,0,673.55,221.79Z"/><path d="M684.73,211.25V226.1h-2V211.25Z"/><path d="M694.83,219.38v6.72h-2v-6.72H692v-1.84h.84V214.4h2v3.14h1.54v1.84Z"/><path d="M697.42,214a1.22,1.22,0,0,1,.37-.9,1.27,1.27,0,0,1,.91-.38,1.24,1.24,0,0,1,.91.38,1.2,1.2,0,0,1,.38.91,1.22,1.22,0,0,1-.38.91,1.2,1.2,0,0,1-.9.38,1.28,1.28,0,0,1-.92-.38A1.25,1.25,0,0,1,697.42,214Zm2.27,3.56v8.56h-2v-8.56Z"/><path d="M704.18,211.25V226.1h-2V211.25Z"/><path d="M718.55,211.25h2V226.1h-2v-.9a3.71,3.71,0,0,1-2.65,1.14,3.77,3.77,0,0,1-2.92-1.28,4.75,4.75,0,0,1-1.15-3.27,4.61,4.61,0,0,1,1.15-3.2,3.71,3.71,0,0,1,5.57-.06Zm-4.7,10.54a3,3,0,0,0,.66,2,2.14,2.14,0,0,0,1.71.79,2.24,2.24,0,0,0,1.77-.76,3.24,3.24,0,0,0,0-4,2.25,2.25,0,0,0-1.76-.77,2.17,2.17,0,0,0-1.7.78A2.84,2.84,0,0,0,713.85,221.79Z"/><path d="M722.73,214a1.19,1.19,0,0,1,.38-.9,1.23,1.23,0,0,1,.9-.38,1.28,1.28,0,0,1,.92.38,1.23,1.23,0,0,1,.37.91,1.28,1.28,0,0,1-2.19.91A1.22,1.22,0,0,1,722.73,214Zm2.28,3.56v8.56h-2v-8.56Z"/><path d="M735.79,225.9c0,.4,0,.76,0,1.06a7.81,7.81,0,0,1-.11.82,3.68,3.68,0,0,1-.83,1.66,4,4,0,0,1-3.19,1.33,4.24,4.24,0,0,1-2.82-.92,3.79,3.79,0,0,1-1.32-2.63h2a2.28,2.28,0,0,0,.38,1,2.13,2.13,0,0,0,1.79.8c1.45,0,2.17-.89,2.17-2.67v-1.19a3.78,3.78,0,0,1-5.58-.06,4.71,4.71,0,0,1-1.12-3.21,4.9,4.9,0,0,1,1-3.18,3.62,3.62,0,0,1,3-1.39,3.45,3.45,0,0,1,2.69,1.2v-1h2Zm-1.9-4.07a2.85,2.85,0,0,0-.67-2,2.2,2.2,0,0,0-1.73-.76,2.1,2.1,0,0,0-1.77.83,3.44,3.44,0,0,0,0,3.85,2.33,2.33,0,0,0,3.56,0A2.93,2.93,0,0,0,733.89,221.83Z"/><path d="M743.84,217.54h2v.79a4.06,4.06,0,0,1,1-.81,2.34,2.34,0,0,1,1.08-.22,2.62,2.62,0,0,1,2.3,1.27,3,3,0,0,1,2.52-1.27q2.89,0,2.89,3.51v5.29h-2v-4.76a3.66,3.66,0,0,0-.3-1.74,1.1,1.1,0,0,0-1-.52,1.28,1.28,0,0,0-1.19.62,4,4,0,0,0-.38,2v4.42h-2v-4.73c0-1.52-.44-2.29-1.32-2.29a1.32,1.32,0,0,0-1.22.63,3.93,3.93,0,0,0-.38,2v4.42h-2Z"/><path d="M765.87,222.28h-6.13a2.54,2.54,0,0,0,.69,1.68,2.08,2.08,0,0,0,1.55.62,2,2,0,0,0,1.22-.35,4.9,4.9,0,0,0,1.08-1.31l1.67.94a6.84,6.84,0,0,1-.81,1.13,4.43,4.43,0,0,1-.93.77,3.55,3.55,0,0,1-1.06.44,4.86,4.86,0,0,1-1.24.14,4,4,0,0,1-3.08-1.23,4.61,4.61,0,0,1-1.16-3.28,4.75,4.75,0,0,1,1.13-3.29,4.29,4.29,0,0,1,6,0,4.75,4.75,0,0,1,1.09,3.32Zm-2-1.61a1.89,1.89,0,0,0-2-1.59,2.15,2.15,0,0,0-.68.11,2,2,0,0,0-.57.32,2,2,0,0,0-.45.5,2.48,2.48,0,0,0-.28.66Z"/><path d="M768,217.54h2v.76a3.91,3.91,0,0,1,1-.78,2.19,2.19,0,0,1,1-.22,3.22,3.22,0,0,1,1.64.51l-.91,1.81a1.89,1.89,0,0,0-1.1-.4c-1.08,0-1.62.81-1.62,2.44v4.44h-2Z"/><path d="M782.44,222.28h-6.13A2.58,2.58,0,0,0,777,224a2.12,2.12,0,0,0,1.56.62,2,2,0,0,0,1.22-.35,4.9,4.9,0,0,0,1.08-1.31l1.67.94a6.86,6.86,0,0,1-.82,1.13,4.14,4.14,0,0,1-.92.77,3.66,3.66,0,0,1-1.06.44,4.91,4.91,0,0,1-1.24.14,4,4,0,0,1-3.08-1.23,4.61,4.61,0,0,1-1.16-3.28,4.75,4.75,0,0,1,1.13-3.29,4.29,4.29,0,0,1,6,0,4.75,4.75,0,0,1,1.09,3.32Zm-2-1.61a1.89,1.89,0,0,0-2-1.59,2.15,2.15,0,0,0-.68.11,2.19,2.19,0,0,0-.58.32,1.93,1.93,0,0,0-.44.5,2.19,2.19,0,0,0-.28.66Z"/><path d="M784.91,225.11a1.22,1.22,0,0,1,2.44,0,1.19,1.19,0,0,1-.36.87,1.14,1.14,0,0,1-.86.35,1.18,1.18,0,0,1-.87-.35A1.21,1.21,0,0,1,784.91,225.11Z"/><path d="M389.48,234.13l3.76,9.4,3.8-9.4h2.24l-6.09,14.59-5.95-14.59Z"/><path d="M400.47,235.58a1.3,1.3,0,0,1,1.28-1.28,1.28,1.28,0,0,1,.92.38,1.23,1.23,0,0,1,.37.91,1.28,1.28,0,0,1-2.19.91A1.26,1.26,0,0,1,400.47,235.58Zm2.28,3.56v8.56h-2v-8.56Z"/><path d="M415.78,240.6l-1.63.87c-.26-.53-.58-.8-1-.8a.68.68,0,0,0-.47.19.59.59,0,0,0-.19.46c0,.32.38.65,1.14,1a6.76,6.76,0,0,1,2.12,1.25,2.14,2.14,0,0,1,.54,1.54,2.68,2.68,0,0,1-.91,2.07,3.27,3.27,0,0,1-5.19-1.31l1.68-.78a3.92,3.92,0,0,0,.54.78,1.2,1.2,0,0,0,.86.34c.67,0,1-.31,1-.92,0-.35-.26-.68-.77-1l-.6-.29-.61-.29a3.66,3.66,0,0,1-1.21-.85,2,2,0,0,1-.45-1.38,2.44,2.44,0,0,1,.77-1.84,2.66,2.66,0,0,1,1.9-.73A2.58,2.58,0,0,1,415.78,240.6Z"/><path d="M425.9,243.88h-6.13a2.54,2.54,0,0,0,.69,1.68,2.08,2.08,0,0,0,1.55.62,2,2,0,0,0,1.22-.35,4.9,4.9,0,0,0,1.08-1.31l1.67.94a6.84,6.84,0,0,1-.81,1.13,4.43,4.43,0,0,1-.93.77,3.55,3.55,0,0,1-1.06.44,4.86,4.86,0,0,1-1.24.14,4,4,0,0,1-3.08-1.23,4.61,4.61,0,0,1-1.16-3.28,4.75,4.75,0,0,1,1.13-3.29,3.88,3.88,0,0,1,3-1.24,3.83,3.83,0,0,1,3,1.2,4.73,4.73,0,0,1,1.09,3.32Zm-2-1.61a1.89,1.89,0,0,0-2-1.59,2.15,2.15,0,0,0-.68.11,2,2,0,0,0-.57.32,2,2,0,0,0-.45.5,2.48,2.48,0,0,0-.28.66Z"/><path d="M433,240.6l-1.63.87c-.26-.53-.58-.8-1-.8a.68.68,0,0,0-.47.19.59.59,0,0,0-.19.46c0,.32.38.65,1.14,1a6.76,6.76,0,0,1,2.12,1.25,2.15,2.15,0,0,1,.55,1.54,2.69,2.69,0,0,1-.92,2.07,3.27,3.27,0,0,1-5.19-1.31l1.68-.78a3.92,3.92,0,0,0,.54.78,1.2,1.2,0,0,0,.86.34c.67,0,1-.31,1-.92,0-.35-.25-.68-.77-1l-.6-.29-.6-.29a3.61,3.61,0,0,1-1.22-.85,2,2,0,0,1-.44-1.38,2.44,2.44,0,0,1,.76-1.84,2.66,2.66,0,0,1,1.9-.73A2.58,2.58,0,0,1,433,240.6Z"/><path d="M445.9,240.6l-1.63.87c-.26-.53-.58-.8-1-.8a.68.68,0,0,0-.47.19.59.59,0,0,0-.19.46c0,.32.38.65,1.14,1a6.76,6.76,0,0,1,2.12,1.25,2.14,2.14,0,0,1,.54,1.54,2.68,2.68,0,0,1-.91,2.07,3.27,3.27,0,0,1-5.19-1.31l1.68-.78a3.92,3.92,0,0,0,.54.78,1.2,1.2,0,0,0,.86.34c.67,0,1-.31,1-.92,0-.35-.26-.68-.77-1l-.6-.29-.61-.29a3.66,3.66,0,0,1-1.21-.85,2,2,0,0,1-.45-1.38,2.44,2.44,0,0,1,.77-1.84,2.66,2.66,0,0,1,1.9-.73A2.58,2.58,0,0,1,445.9,240.6Z"/><path d="M456,243.88h-6.13a2.54,2.54,0,0,0,.69,1.68,2.08,2.08,0,0,0,1.55.62,2,2,0,0,0,1.22-.35,4.9,4.9,0,0,0,1.08-1.31l1.67.94a6.84,6.84,0,0,1-.81,1.13,4.43,4.43,0,0,1-.93.77,3.55,3.55,0,0,1-1.06.44,4.86,4.86,0,0,1-1.24.14,4,4,0,0,1-3.08-1.23,4.61,4.61,0,0,1-1.16-3.28,4.75,4.75,0,0,1,1.13-3.29,3.88,3.88,0,0,1,3-1.24,3.83,3.83,0,0,1,3,1.2,4.73,4.73,0,0,1,1.09,3.32Zm-2-1.61a1.89,1.89,0,0,0-2-1.59,2.15,2.15,0,0,0-.68.11,2,2,0,0,0-.57.32,2,2,0,0,0-.45.5,2.48,2.48,0,0,0-.28.66Z"/><path d="M458.19,239.14h2v.79a3.22,3.22,0,0,1,2.34-1,2.94,2.94,0,0,1,2.33.94,3.84,3.84,0,0,1,.72,2.61v5.25h-2v-4.78a3.07,3.07,0,0,0-.35-1.75,1.41,1.41,0,0,0-1.24-.5,1.51,1.51,0,0,0-1.4.66,4.42,4.42,0,0,0-.41,2.24v4.13h-2Z"/><path d="M475.85,243.88h-6.13a2.58,2.58,0,0,0,.68,1.68,2.12,2.12,0,0,0,1.56.62,2,2,0,0,0,1.22-.35,4.9,4.9,0,0,0,1.08-1.31l1.67.94a6.86,6.86,0,0,1-.82,1.13,4.14,4.14,0,0,1-.92.77,3.66,3.66,0,0,1-1.06.44,4.91,4.91,0,0,1-1.24.14,4,4,0,0,1-3.08-1.23,4.61,4.61,0,0,1-1.16-3.28,4.75,4.75,0,0,1,1.13-3.29,4.29,4.29,0,0,1,6,0,4.73,4.73,0,0,1,1.09,3.32Zm-2-1.61a1.89,1.89,0,0,0-2-1.59,2.15,2.15,0,0,0-.68.11,2,2,0,0,0-.57.32,1.8,1.8,0,0,0-.45.5,2.19,2.19,0,0,0-.28.66Z"/><path d="M478,239.14h2v.76a3.91,3.91,0,0,1,1-.78,2.19,2.19,0,0,1,1-.22,3.16,3.16,0,0,1,1.63.51l-.9,1.81a1.89,1.89,0,0,0-1.1-.4c-1.08,0-1.62.81-1.62,2.44v4.44h-2Z"/><path d="M492.42,243.88h-6.13a2.58,2.58,0,0,0,.68,1.68,2.1,2.1,0,0,0,1.56.62,2,2,0,0,0,1.22-.35,5.09,5.09,0,0,0,1.08-1.31l1.67.94a6.86,6.86,0,0,1-.82,1.13,4.14,4.14,0,0,1-.92.77,3.66,3.66,0,0,1-1.06.44,5,5,0,0,1-1.24.14,4,4,0,0,1-3.08-1.23,4.61,4.61,0,0,1-1.16-3.28,4.75,4.75,0,0,1,1.13-3.29,4.29,4.29,0,0,1,6,0,4.73,4.73,0,0,1,1.09,3.32Zm-2-1.61a1.9,1.9,0,0,0-2-1.59,2.11,2.11,0,0,0-.68.11,2.19,2.19,0,0,0-.58.32,1.93,1.93,0,0,0-.44.5,2.19,2.19,0,0,0-.28.66Z"/><path d="M501.36,245.16l1.76.68-2.51,5-1.33-.55Zm-.48-5a1.23,1.23,0,0,1,1.22-1.21A1.22,1.22,0,0,1,503,241a1.15,1.15,0,0,1-.86.35,1.19,1.19,0,0,1-.87-.36A1.15,1.15,0,0,1,500.88,240.11Z"/><path d="M507.49,251.46l-1.82-.7a21.91,21.91,0,0,0,1.34-4.23,24.9,24.9,0,0,0,0-8.89,23.39,23.39,0,0,0-1.34-4.23l1.82-.71a23.87,23.87,0,0,1,0,18.76Z"/><rect class="cls-12" x="1200.33" y="81.82" width="82.44" height="34.09"/><path class="cls-2" d="M1218.87,90.54h-2.74l1.32-2.24h3.81v15.83h-2.39Z"/><path class="cls-2" d="M1228.21,95.9a3.9,3.9,0,0,1-1.74-3.36,4.31,4.31,0,0,1,1.32-3.21,4.56,4.56,0,0,1,3.31-1.3,4.48,4.48,0,0,1,3.29,1.3,4.33,4.33,0,0,1,1.31,3.23,4,4,0,0,1-1.74,3.33,3.65,3.65,0,0,1,1.5,1.49,4.46,4.46,0,0,1,.56,2.22,4.58,4.58,0,0,1-1.38,3.44,4.8,4.8,0,0,1-3.52,1.35,5,5,0,0,1-3.61-1.35,4.49,4.49,0,0,1-1.44-3.41A3.81,3.81,0,0,1,1228.21,95.9Zm.21,3.65a2.63,2.63,0,0,0,.76,1.89,2.5,2.5,0,0,0,1.86.77,2.53,2.53,0,0,0,1.86-.76,2.66,2.66,0,0,0,0-3.74,2.54,2.54,0,0,0-1.86-.77,2.56,2.56,0,0,0-1.85.77A2.5,2.5,0,0,0,1228.42,99.55Zm.29-7a2.37,2.37,0,1,0,.7-1.65A2.32,2.32,0,0,0,1228.71,92.54Z"/><path class="cls-2" d="M1239.34,95.27a1.43,1.43,0,0,1,1.42-1.4,1.38,1.38,0,0,1,1,.42,1.36,1.36,0,0,1,.42,1,1.43,1.43,0,1,1-2.85,0Zm0,7.71a1.43,1.43,0,0,1,1.42-1.41,1.38,1.38,0,0,1,1,.42,1.36,1.36,0,0,1,.42,1,1.44,1.44,0,0,1-2.44,1A1.37,1.37,0,0,1,1239.34,103Z"/><path class="cls-2" d="M1249.26,101.89h5.9v2.24h-10.63l5.49-6.65c.54-.67,1-1.24,1.36-1.73a11.43,11.43,0,0,0,.84-1.22,3.41,3.41,0,0,0,.58-1.73A2.44,2.44,0,0,0,1252,91a2.67,2.67,0,0,0-1.93-.75c-1.59,0-2.51.94-2.74,2.84H1245c.38-3.34,2.07-5,5-5a5.1,5.1,0,0,1,3.63,1.38,4.43,4.43,0,0,1,1.48,3.4,5.13,5.13,0,0,1-.69,2.53,11.21,11.21,0,0,1-1,1.54c-.45.59-1,1.29-1.7,2.09Z"/><path class="cls-2" d="M1257.86,96.11a9.54,9.54,0,0,1,1.76-6,4.61,4.61,0,0,1,7.65,0,9.71,9.71,0,0,1,1.76,6.15,9.69,9.69,0,0,1-1.76,6.13,4.68,4.68,0,0,1-3.81,2,4.75,4.75,0,0,1-3.84-2A9.87,9.87,0,0,1,1257.86,96.11Zm2.35,0a9.35,9.35,0,0,0,.91,4.38,2.44,2.44,0,0,0,4.65,0,8.85,8.85,0,0,0,.93-4.29,9,9,0,0,0-.93-4.31,2.43,2.43,0,0,0-4.64,0A8.7,8.7,0,0,0,1260.21,96.12Z"/><circle class="cls-15" cx="1153.5" cy="103.69" r="28.1"/><path class="cls-2" d="M1147,107.67a7.28,7.28,0,0,0,4.77,2.12,2.7,2.7,0,0,0,2.09-.72,1.82,1.82,0,0,0,.53-1.31,1.63,1.63,0,0,0-.59-1.25,7.72,7.72,0,0,0-2.68-1.09l-1.41-.43a6.85,6.85,0,0,1-3-1.69,5.24,5.24,0,0,1-1.19-3.68,6.81,6.81,0,0,1,1.91-5,7.32,7.32,0,0,1,5.33-2,14.63,14.63,0,0,1,6.43,1.68l-2.15,4.22a5.52,5.52,0,0,0-3.56-1.41,2.6,2.6,0,0,0-1.78.63,1.53,1.53,0,0,0-.53,1.12,1.37,1.37,0,0,0,.28.93,3.37,3.37,0,0,0,1.81.94l1.65.5a7.91,7.91,0,0,1,3.78,2.06,4.91,4.91,0,0,1,1.34,3.71,7.09,7.09,0,0,1-2,5.25,8.12,8.12,0,0,1-6.15,2.12,11.18,11.18,0,0,1-4.09-.69,14.33,14.33,0,0,1-3.15-1.65Z"/></g><g id="Mand_forgrund"><rect class="cls-16" x="369.47" y="551.71" width="674.39" height="118.05"/><rect class="cls-4" x="369.47" y="298.28" width="674.39" height="253.43"/><path class="cls-4" d="M1044.07,551.91H369.26V298.07h674.81Zm-674.39-.41h674v-253h-674Z"/><rect class="cls-1" x="440.33" y="552.11" width="526.1" height="98.67" rx="12"/><path class="cls-4" d="M961.37,651h-516a5.23,5.23,0,0,1-5.27-5.16V557.07a5.22,5.22,0,0,1,5.27-5.16h516a5.22,5.22,0,0,1,5.28,5.16v88.76A5.23,5.23,0,0,1,961.37,651Zm-516-98.67a4.81,4.81,0,0,0-4.85,4.75v88.76a4.81,4.81,0,0,0,4.85,4.74h516a4.8,4.8,0,0,0,4.85-4.74V557.07a4.8,4.8,0,0,0-4.85-4.75Z"/><rect class="cls-2" x="477.66" y="551.91" width="21.79" height="98.67" rx="10.7"/><path class="cls-4" d="M494.38,650.79H482.72a5.22,5.22,0,0,1-5.27-5.16V556.87a5.22,5.22,0,0,1,5.27-5.16h11.66a5.22,5.22,0,0,1,5.27,5.16v88.76A5.22,5.22,0,0,1,494.38,650.79Zm-11.66-98.67a4.8,4.8,0,0,0-4.85,4.75v88.76a4.8,4.8,0,0,0,4.85,4.74h11.66a4.8,4.8,0,0,0,4.85-4.74V556.87a4.8,4.8,0,0,0-4.85-4.75Z"/><rect class="cls-2" x="601.23" y="552.31" width="21.79" height="98.67" rx="10.7"/><path class="cls-4" d="M618,651.18H606.3A5.22,5.22,0,0,1,601,646V557.26a5.22,5.22,0,0,1,5.28-5.15H618a5.21,5.21,0,0,1,5.27,5.15V646A5.22,5.22,0,0,1,618,651.18ZM606.3,552.52a4.8,4.8,0,0,0-4.85,4.74V646a4.8,4.8,0,0,0,4.85,4.75H618a4.81,4.81,0,0,0,4.85-4.75V557.26a4.81,4.81,0,0,0-4.85-4.74Z"/><rect class="cls-2" x="559.45" y="551.91" width="21.79" height="98.67" rx="10.7"/><path class="cls-4" d="M576.17,650.79H564.51a5.22,5.22,0,0,1-5.27-5.16V556.87a5.22,5.22,0,0,1,5.27-5.16h11.66a5.22,5.22,0,0,1,5.27,5.16v88.76A5.22,5.22,0,0,1,576.17,650.79Zm-11.66-98.67a4.8,4.8,0,0,0-4.85,4.75v88.76a4.8,4.8,0,0,0,4.85,4.74h11.66a4.8,4.8,0,0,0,4.85-4.74V556.87a4.8,4.8,0,0,0-4.85-4.75Z"/><rect class="cls-2" x="519.09" y="551.91" width="21.79" height="98.67" rx="10.7"/><path class="cls-4" d="M535.81,650.79H524.15a5.22,5.22,0,0,1-5.27-5.16V556.87a5.22,5.22,0,0,1,5.27-5.16h11.66a5.22,5.22,0,0,1,5.28,5.16v88.76A5.23,5.23,0,0,1,535.81,650.79Zm-11.66-98.67a4.8,4.8,0,0,0-4.85,4.75v88.76a4.8,4.8,0,0,0,4.85,4.74h11.66a4.8,4.8,0,0,0,4.85-4.74V556.87a4.8,4.8,0,0,0-4.85-4.75Z"/><rect class="cls-2" x="897.68" y="551.91" width="21.79" height="98.67" rx="10.7"/><path class="cls-4" d="M914.41,650.79H902.74a5.22,5.22,0,0,1-5.27-5.16V556.87a5.22,5.22,0,0,1,5.27-5.16h11.67a5.22,5.22,0,0,1,5.27,5.16v88.76A5.23,5.23,0,0,1,914.41,650.79Zm-11.67-98.67a4.81,4.81,0,0,0-4.85,4.75v88.76a4.81,4.81,0,0,0,4.85,4.74h11.67a4.81,4.81,0,0,0,4.85-4.74V556.87a4.81,4.81,0,0,0-4.85-4.75Z"/><rect class="cls-2" x="857.32" y="551.91" width="21.79" height="98.67" rx="10.7"/><path class="cls-4" d="M874.05,650.79H862.38a5.23,5.23,0,0,1-5.27-5.16V556.87a5.22,5.22,0,0,1,5.27-5.16h11.67a5.22,5.22,0,0,1,5.27,5.16v88.76A5.23,5.23,0,0,1,874.05,650.79Zm-11.67-98.67a4.81,4.81,0,0,0-4.85,4.75v88.76a4.81,4.81,0,0,0,4.85,4.74h11.67a4.81,4.81,0,0,0,4.85-4.74V556.87a4.81,4.81,0,0,0-4.85-4.75Z"/><ellipse class="cls-2" cx="437.83" cy="560.87" rx="4.46" ry="4.97"/><path class="cls-4" d="M437.83,566.05a5.21,5.21,0,1,1,4.68-5.18A5,5,0,0,1,437.83,566.05Zm0-9.95a4.79,4.79,0,1,0,4.26,4.77A4.54,4.54,0,0,0,437.83,556.1Z"/><ellipse class="cls-2" cx="439.33" cy="614.57" rx="4.46" ry="4.97"/><path class="cls-4" d="M439.33,619.75a5.2,5.2,0,1,1,4.68-5.18A4.94,4.94,0,0,1,439.33,619.75Zm0-9.94a4.79,4.79,0,1,0,4.26,4.76A4.54,4.54,0,0,0,439.33,609.81Z"/><ellipse class="cls-2" cx="438.4" cy="601.84" rx="4.46" ry="4.97"/><path class="cls-4" d="M438.4,607a5.21,5.21,0,1,1,4.68-5.18A5,5,0,0,1,438.4,607Zm0-9.94a4.79,4.79,0,1,0,4.26,4.76A4.54,4.54,0,0,0,438.4,597.08Z"/><ellipse class="cls-2" cx="438.33" cy="587.52" rx="4.46" ry="4.97"/><path class="cls-4" d="M438.33,592.7a5.21,5.21,0,1,1,4.68-5.18A4.94,4.94,0,0,1,438.33,592.7Zm0-10a4.8,4.8,0,1,0,4.26,4.77A4.54,4.54,0,0,0,438.33,582.75Z"/><ellipse class="cls-2" cx="437.83" cy="573.2" rx="4.46" ry="4.97"/><path class="cls-4" d="M437.83,578.38a5.21,5.21,0,1,1,4.68-5.18A4.94,4.94,0,0,1,437.83,578.38Zm0-10a4.8,4.8,0,1,0,4.26,4.77A4.54,4.54,0,0,0,437.83,568.43Z"/><ellipse class="cls-2" cx="440.33" cy="642.42" rx="4.46" ry="4.97"/><path class="cls-4" d="M440.33,647.6a5.21,5.21,0,1,1,4.68-5.18A4.94,4.94,0,0,1,440.33,647.6Zm0-9.94a4.79,4.79,0,1,0,4.26,4.76A4.54,4.54,0,0,0,440.33,637.66Z"/><ellipse class="cls-2" cx="439.98" cy="628.5" rx="4.46" ry="4.97"/><path class="cls-4" d="M440,633.68a5.21,5.21,0,1,1,4.67-5.18A5,5,0,0,1,440,633.68Zm0-9.95a4.8,4.8,0,1,0,4.25,4.77A4.54,4.54,0,0,0,440,623.73Z"/><ellipse class="cls-2" cx="966.44" cy="586.33" rx="4.46" ry="4.97"/><path class="cls-4" d="M966.43,591.51a5.21,5.21,0,1,1,4.68-5.18A5,5,0,0,1,966.43,591.51Zm0-10a4.79,4.79,0,1,0,4.26,4.77A4.54,4.54,0,0,0,966.43,581.56Z"/><ellipse class="cls-2" cx="966.44" cy="573.2" rx="4.46" ry="4.97"/><path class="cls-4" d="M966.43,578.38a5.21,5.21,0,1,1,4.68-5.18A5,5,0,0,1,966.43,578.38Zm0-10a4.8,4.8,0,1,0,4.26,4.77A4.54,4.54,0,0,0,966.43,568.43Z"/><ellipse class="cls-2" cx="966.44" cy="560.07" rx="4.46" ry="4.97"/><path class="cls-4" d="M966.43,565.25a5.21,5.21,0,1,1,4.68-5.18A5,5,0,0,1,966.43,565.25Zm0-10a4.8,4.8,0,1,0,4.26,4.77A4.54,4.54,0,0,0,966.43,555.3Z"/><ellipse class="cls-2" cx="966.44" cy="627.7" rx="4.46" ry="4.97"/><path class="cls-4" d="M966.43,632.88a5.21,5.21,0,1,1,4.68-5.18A5,5,0,0,1,966.43,632.88Zm0-9.94a4.79,4.79,0,1,0,4.26,4.76A4.54,4.54,0,0,0,966.43,622.94Z"/><ellipse class="cls-2" cx="966.44" cy="612.59" rx="4.46" ry="4.97"/><path class="cls-4" d="M966.43,617.76a5.2,5.2,0,1,1,4.68-5.17A4.95,4.95,0,0,1,966.43,617.76Zm0-9.94a4.79,4.79,0,1,0,4.26,4.77A4.54,4.54,0,0,0,966.43,607.82Z"/><ellipse class="cls-2" cx="966.44" cy="597.87" rx="4.46" ry="4.97"/><path class="cls-4" d="M966.43,603a5.2,5.2,0,1,1,4.68-5.17A4.95,4.95,0,0,1,966.43,603Zm0-9.94a4.79,4.79,0,1,0,4.26,4.77A4.54,4.54,0,0,0,966.43,593.1Z"/><ellipse class="cls-2" cx="966.44" cy="642.42" rx="4.46" ry="4.97"/><path class="cls-4" d="M966.43,647.6a5.21,5.21,0,1,1,4.68-5.18A5,5,0,0,1,966.43,647.6Zm0-9.94a4.79,4.79,0,1,0,4.26,4.76A4.54,4.54,0,0,0,966.43,637.66Z"/><rect class="cls-2" x="684.45" y="551.91" width="21.79" height="98.67" rx="10.7"/><path class="cls-4" d="M701.18,650.79H689.52a5.23,5.23,0,0,1-5.28-5.16V556.87a5.22,5.22,0,0,1,5.28-5.16h11.66a5.22,5.22,0,0,1,5.27,5.16v88.76A5.22,5.22,0,0,1,701.18,650.79Zm-11.66-98.67a4.81,4.81,0,0,0-4.86,4.75v88.76a4.81,4.81,0,0,0,4.86,4.74h11.66a4.81,4.81,0,0,0,4.85-4.74V556.87a4.81,4.81,0,0,0-4.85-4.75Z"/><rect class="cls-2" x="642.67" y="551.91" width="21.79" height="98.67" rx="10.7"/><path class="cls-4" d="M659.39,650.79H647.73a5.23,5.23,0,0,1-5.28-5.16V556.87a5.22,5.22,0,0,1,5.28-5.16h11.66a5.22,5.22,0,0,1,5.27,5.16v88.76A5.22,5.22,0,0,1,659.39,650.79Zm-11.66-98.67a4.8,4.8,0,0,0-4.85,4.75v88.76a4.8,4.8,0,0,0,4.85,4.74h11.66a4.8,4.8,0,0,0,4.85-4.74V556.87a4.8,4.8,0,0,0-4.85-4.75Z"/><rect class="cls-2" x="815.18" y="551.91" width="21.79" height="98.67" rx="10.7"/><path class="cls-4" d="M831.9,650.79H820.24a5.22,5.22,0,0,1-5.27-5.16V556.87a5.22,5.22,0,0,1,5.27-5.16H831.9a5.22,5.22,0,0,1,5.27,5.16v88.76A5.22,5.22,0,0,1,831.9,650.79Zm-11.66-98.67a4.8,4.8,0,0,0-4.85,4.75v88.76a4.8,4.8,0,0,0,4.85,4.74H831.9a4.8,4.8,0,0,0,4.85-4.74V556.87a4.8,4.8,0,0,0-4.85-4.75Z"/><rect class="cls-2" x="774.1" y="551.91" width="21.79" height="98.67" rx="10.7"/><path class="cls-4" d="M790.83,650.79H779.16a5.23,5.23,0,0,1-5.27-5.16V556.87a5.22,5.22,0,0,1,5.27-5.16h11.67a5.22,5.22,0,0,1,5.27,5.16v88.76A5.22,5.22,0,0,1,790.83,650.79Zm-11.67-98.67a4.81,4.81,0,0,0-4.85,4.75v88.76a4.81,4.81,0,0,0,4.85,4.74h11.67a4.81,4.81,0,0,0,4.85-4.74V556.87a4.81,4.81,0,0,0-4.85-4.75Z"/><rect class="cls-2" x="731.24" y="551.91" width="21.79" height="98.67" rx="10.7"/><path class="cls-4" d="M748,650.79H736.3a5.23,5.23,0,0,1-5.27-5.16V556.87a5.22,5.22,0,0,1,5.27-5.16H748a5.22,5.22,0,0,1,5.27,5.16v88.76A5.22,5.22,0,0,1,748,650.79ZM736.3,552.12a4.81,4.81,0,0,0-4.85,4.75v88.76a4.81,4.81,0,0,0,4.85,4.74H748a4.81,4.81,0,0,0,4.85-4.74V556.87a4.81,4.81,0,0,0-4.85-4.75Z"/><path d="M737.34,401.85H681.51c-2.77,0-4.47-2.84-3.81-6.17l12.82-64.26c.23-1.14,1.68-2.06,3.24-2.06h31.33c1.55,0,3,.92,3.23,2.06l12.82,64.26C741.81,399,740.11,401.85,737.34,401.85Z"/><path class="cls-17" d="M737.34,402.05H681.51a3.82,3.82,0,0,1-3-1.39,6,6,0,0,1-1-5l12.82-64.26c.25-1.23,1.79-2.23,3.45-2.23h31.33c1.65,0,3.2,1,3.44,2.23l12.82,64.26a6,6,0,0,1-1,5A3.83,3.83,0,0,1,737.34,402.05Zm-43.58-72.48c-1.46,0-2.82.85-3,1.89l-12.82,64.26a5.61,5.61,0,0,0,.94,4.68,3.38,3.38,0,0,0,2.66,1.24h55.83A3.37,3.37,0,0,0,740,400.4a5.61,5.61,0,0,0,1-4.68l-12.82-64.26c-.21-1-1.57-1.89-3-1.89Z"/><path class="cls-17" d="M830.47,391.34l-.49-1c0-.55,0-.89,0-.89s-3.19-4.52-6.07-5.63c-5-1.91-14.41,4.1-12.52,8.64,1.16,2.79,6.61,5,11,5.28-.06,2.72,0,7.37,1.08,10.51l-.38-.9a1.45,1.45,0,0,0-2.06-.69L782,427a13.62,13.62,0,0,0-2.06,1.3c-3.46-3.58-9.74-6.72-17.15-8.16-9.59-1.86-18.11-.3-21.38,3.5l-.26-.07a3,3,0,0,0-2.58-1.83h-5.4a10.59,10.59,0,0,0-2.87,0H714.67c2.07,0,3.77-2.07,3.77-4.59V406.64h15.29c1.35,0,2.13-2.29,1.75-5l-8.72-62c-.16-1.15-1-2.07-1.83-2.07H695.14a2.22,2.22,0,0,0-1.83,2.07l-8.72,62c-.38,2.72.4,5,1.75,5h15.44v10.52c0,2.52,1.7,4.59,3.77,4.59h-22.5a11.17,11.17,0,0,0-4.14.23l-7,1.67c-3.27-3.8-11.79-5.36-21.38-3.5-7.41,1.44-13.7,4.58-17.16,8.16a14,14,0,0,0-2-1.3L592.2,406.7a1.46,1.46,0,0,0-2.06.69l-.38.9c1.08-3.14,1.15-7.79,1.08-10.51,4.45-.28,9.9-2.49,11.06-5.28,1.89-4.54-7.58-10.55-12.52-8.64-2.88,1.11-6.07,5.63-6.07,5.63s0,.34.05.89l-.5,1c-2.78,5.51-4.17,8.26-4,10.85.42,5.28,5.33,10.43,8.51,9.2a3.74,3.74,0,0,0,1.84-1.88l-.56,1.34a2.15,2.15,0,0,0,.75,2.42L625.91,440c2.05,1.5,4.21,2.27,5.66,2.13a1.72,1.72,0,0,0,1.26.51l11.83-.5a38.18,38.18,0,0,0,4.83-.21l30.39-1.28,4.83,54.51-.3-.5c-1.51-2.53-5.16-1.6-7.92,1.82l-33.86,42.08a3.7,3.7,0,0,0,0,3.89l2,3.43a22.4,22.4,0,0,0,3,7.49l29.2,49.57-22.53-1c-6.79,3.09-10.39,8.89-9.16,13.77,1.57,6.22,10.38,8.45,14.84,8.8,10.91.85,22.55-7.51,29.24-21l-2.2-.1.53-.38c.59-.43.66-1.8.14-3.09l-20.54-51.07,27-16.26a12.27,12.27,0,0,0,6.07,1.66,13.27,13.27,0,0,0,9.55-4.41,14.24,14.24,0,0,0,10.09,4.41,13.46,13.46,0,0,0,5.52-1.2l27.76,15.9-20.49,51c-.52,1.29-.45,2.66.14,3.09l.57.42-1.39.06c6.68,13.53,18.33,21.89,29.24,21,4.45-.35,13.26-2.58,14.83-8.8,1.24-4.88-2.37-10.68-9.16-13.77l-23.4,1,29.22-49.6c1.79-3,2.92-6.14,3-8l1-1.64a3.06,3.06,0,0,0-.15-3.53l-35.72-39.72a8.87,8.87,0,0,0-5.39-3.18,5,5,0,0,0,.24-1.1l4.89-55.21,23.21,1a38.42,38.42,0,0,0,4.84.21l11.82.5a1.74,1.74,0,0,0,1.27-.51c1.45.14,3.6-.63,5.66-2.13l36.46-26.71a2.13,2.13,0,0,0,.75-2.42l-.56-1.34a3.76,3.76,0,0,0,1.85,1.88c3.18,1.23,8.08-3.92,8.51-9.2C834.65,399.6,833.26,396.85,830.47,391.34Z"/><path class="cls-17" d="M661.47,624.76c-.51,0-1,0-1.52-.06-4.5-.35-13.44-2.67-15-9-1.29-5.08,2.61-11,9.28-14l0,0h0l22.15,1-29-49.24a23,23,0,0,1-3-7.52l-2-3.39a3.86,3.86,0,0,1,0-4.12l33.87-42.08c1.75-2.19,4-3.47,5.8-3.34a3,3,0,0,1,2.29,1.27l-4.73-53.43-30.19,1.28a38.14,38.14,0,0,1-4.85.2l-11.81.5a1.9,1.9,0,0,1-1.35-.5,9.67,9.67,0,0,1-5.71-2.18l-36.46-26.7a2.36,2.36,0,0,1-.9-2.45,3,3,0,0,1-.94.59,4,4,0,0,1-3.58-.6,12.08,12.08,0,0,1-5.21-8.78c-.22-2.64,1.18-5.42,4-10.95.17-.32.32-.63.47-.91,0-.51,0-.84,0-.85v-.07l0-.05c.14-.19,3.26-4.58,6.17-5.7,3.3-1.28,8.25.81,10.94,3.48,1.88,1.85,2.54,3.78,1.85,5.43-1.18,2.85-6.61,5.06-11,5.39a40,40,0,0,1-.63,8.7,1.47,1.47,0,0,1,.47-.27,1.77,1.77,0,0,1,1.4.12l39.15,20.31a12.77,12.77,0,0,1,1.93,1.21c3.65-3.7,10-6.71,17.14-8.09,9.4-1.82,18-.43,21.49,3.47l6.85-1.64a11.29,11.29,0,0,1,4.22-.23h20.86a4.9,4.9,0,0,1-2.37-4.38V406.85H686.34a1.5,1.5,0,0,1-1.13-.55c-.78-.88-1.11-2.72-.83-4.7l8.72-62a2.41,2.41,0,0,1,2-2.25h29.79a2.43,2.43,0,0,1,2,2.25l8.72,62c.28,2-.05,3.82-.83,4.7a1.5,1.5,0,0,1-1.13.55H718.65v10.31a4.9,4.9,0,0,1-2.37,4.38h14a10.44,10.44,0,0,1,2.9,0h5.37a3.19,3.19,0,0,1,2.72,1.86l0,0c3.48-3.9,12.09-5.29,21.5-3.47,7.1,1.38,13.49,4.39,17.13,8.09a14.32,14.32,0,0,1,1.94-1.21L821,406.52a1.75,1.75,0,0,1,1.39-.12,1.42,1.42,0,0,1,.48.27,39.37,39.37,0,0,1-.63-8.7c-4.42-.33-9.85-2.54-11-5.39-.68-1.65,0-3.58,1.85-5.43,2.7-2.67,7.64-4.76,10.94-3.48,2.91,1.12,6,5.51,6.17,5.7l0,.05v.07s0,.34,0,.85c.15.28.31.59.47.91h0c2.8,5.53,4.2,8.31,4,10.95a12.06,12.06,0,0,1-5.22,8.78,4,4,0,0,1-3.58.6,3.15,3.15,0,0,1-.94-.59,2.37,2.37,0,0,1-.89,2.45l-36.47,26.7c-2,1.46-4.17,2.3-5.71,2.18a1.87,1.87,0,0,1-1.34.5l-11.83-.5a38.36,38.36,0,0,1-4.85-.2l-23-1-4.87,55a5.49,5.49,0,0,1-.17.9,9.45,9.45,0,0,1,5.27,3.22L776.77,540a3.25,3.25,0,0,1,.17,3.78l-1,1.59c-.12,2-1.31,5.15-3,8.08l-29,49.28,23.06-1,.05,0c6.66,3,10.57,8.93,9.28,14-1.59,6.28-10.52,8.6-15,9-10.94.86-22.77-7.64-29.44-21.15l-.14-.28,1.12,0-.1-.08c-.67-.49-.76-1.95-.21-3.33L752.87,549l-27.51-15.76a13.54,13.54,0,0,1-5.51,1.17,14.49,14.49,0,0,1-10.09-4.31,13.34,13.34,0,0,1-9.55,4.31,12.29,12.29,0,0,1-6.06-1.62L667.4,548.9l20.47,50.91c.56,1.38.47,2.84-.2,3.33l-.06,0,1.93.09-.14.28C683,616.43,672,624.76,661.47,624.76Zm-7.13-22.62c-6.46,3-10.24,8.63-9,13.51,1.54,6.05,10.26,8.3,14.66,8.64,10.68.84,22.27-7.45,28.89-20.64l-2.47-.11,1-.73c.45-.33.58-1.55.06-2.85l-20.6-51.23.15-.09,27.11-16.33.11.07a11.94,11.94,0,0,0,6,1.63,13,13,0,0,0,9.4-4.34l.15-.16.15.16a14.08,14.08,0,0,0,9.94,4.34,13.14,13.14,0,0,0,5.43-1.18l.1-.05,28,16.05-.06.16-20.49,51c-.53,1.3-.39,2.52.06,2.85l1.05.77-1.66.07c6.62,13.19,18.2,21.48,28.89,20.64,4.4-.34,13.12-2.59,14.65-8.64,1.24-4.88-2.55-10.56-9-13.51l-23.73,1,.19-.33,29.22-49.6c1.72-2.91,2.89-6,3-8v0l1.09-1.69a2.9,2.9,0,0,0-.14-3.29l-35.72-39.71a8.71,8.71,0,0,0-5.24-3.12l-.27,0,.08-.25a4.69,4.69,0,0,0,.23-1.05l4.91-55.4,23.41,1a37.89,37.89,0,0,0,4.82.2l11.84.5a1.54,1.54,0,0,0,1.11-.45l.07-.06h.1c1.44.13,3.56-.67,5.51-2.1l36.47-26.7a2,2,0,0,0,.68-2.19l-.57-1.33.39-.18A3.56,3.56,0,0,0,826,411.2a3.73,3.73,0,0,0,3.2-.57,11.66,11.66,0,0,0,5-8.46c.21-2.53-1.18-5.27-4-10.74h0c-.17-.34-.33-.66-.49-.95l0-.06v-.06c0-.39,0-.68.05-.81-.38-.51-3.32-4.49-5.94-5.5-3-1.17-7.88.8-10.49,3.39-1,1-2.59,3-1.76,5,1.15,2.75,6.55,4.89,10.88,5.15l.2,0v.2c-.07,3.12,0,7.47,1.07,10.44l-.39.14-.39-.9a1.15,1.15,0,0,0-.7-.68,1.36,1.36,0,0,0-1.06.09l-39.15,20.31a13.31,13.31,0,0,0-2,1.29l-.15.11-.13-.14c-3.57-3.69-9.94-6.72-17-8.09-9.2-1.79-17.91-.38-21.18,3.42l-.09.1-.48-.12,0-.08a2.77,2.77,0,0,0-2.39-1.72h-5.4a10.81,10.81,0,0,0-2.84,0H714.67v-.42c2,0,3.56-2,3.56-4.38V406.43h15.5a1.06,1.06,0,0,0,.81-.4c.71-.79,1-2.51.73-4.37l-8.72-62c-.15-1-.87-1.89-1.62-1.89H695.14c-.74,0-1.47.85-1.62,1.89l-8.72,62c-.26,1.86,0,3.58.73,4.37a1.06,1.06,0,0,0,.81.4H702v10.73c0,2.42,1.6,4.38,3.56,4.38V422h-22.5a11,11,0,0,0-4.09.22l-7.1,1.7-.08-.1c-3.28-3.8-12-5.21-21.18-3.42-7.11,1.37-13.48,4.4-17,8.09l-.13.14-.16-.11a12.39,12.39,0,0,0-2-1.29L592.1,406.88a1.36,1.36,0,0,0-1.06-.09,1.2,1.2,0,0,0-.7.68l-.38.9-.4-.14c1-3,1.15-7.32,1.07-10.44v-.2l.2,0c4.33-.26,9.73-2.4,10.87-5.15.83-2-.74-4-1.76-5-2.61-2.59-7.44-4.56-10.48-3.39-2.62,1-5.57,5-5.94,5.5,0,.13,0,.42.05.81v.06l0,.06c-.16.29-.33.61-.5.95-2.76,5.47-4.15,8.21-3.94,10.74a11.63,11.63,0,0,0,5,8.46,3.73,3.73,0,0,0,3.2.57,3.6,3.6,0,0,0,1.74-1.79l.38.18-.56,1.34a1.92,1.92,0,0,0,.68,2.18L626,439.81c2,1.43,4.07,2.24,5.52,2.1h.09l.07.06a1.5,1.5,0,0,0,1.11.45l11.83-.5a39.59,39.59,0,0,0,4.82-.2l30.6-1.3,0,.2L685,496l-.77-1.3a2.59,2.59,0,0,0-2.13-1.33c-1.68-.11-3.77,1.11-5.44,3.18l-33.87,42.08a3.49,3.49,0,0,0,0,3.66l2.07,3.5a22.32,22.32,0,0,0,2.94,7.42l29.39,49.89Z"/><path class="cls-17" d="M730.4,495.6a17.28,17.28,0,0,0-1.31-1.26h2.21Z"/><path class="cls-17" d="M730.42,495.93l-.18-.19A15.29,15.29,0,0,0,729,494.5l-.42-.36h3.18Zm-.78-1.38c.25.24.5.48.73.72l.52-.72Z"/><ellipse class="cls-17" cx="698.91" cy="513.64" rx="7.6" ry="8.41"/><path class="cls-4" d="M698.91,522.25c-4.31,0-7.82-3.86-7.82-8.61s3.51-8.62,7.82-8.62,7.81,3.86,7.81,8.62S703.22,522.25,698.91,522.25Zm0-16.82c-4.08,0-7.39,3.68-7.39,8.21s3.31,8.2,7.39,8.2,7.39-3.68,7.39-8.2S703,505.43,698.91,505.43Z"/><ellipse class="cls-17" cx="714.11" cy="514.71" rx="7.6" ry="8.41"/><path class="cls-4" d="M714.11,523.32c-4.31,0-7.81-3.86-7.81-8.61s3.5-8.62,7.81-8.62,7.82,3.87,7.82,8.62S718.42,523.32,714.11,523.32Zm0-16.81c-4.07,0-7.39,3.68-7.39,8.2s3.32,8.2,7.39,8.2,7.39-3.68,7.39-8.2S718.19,506.51,714.11,506.51Z"/><ellipse class="cls-17" cx="706.51" cy="530.27" rx="6.15" ry="21.11"/><path class="cls-4" d="M706.51,551.59c-3.56,0-6.36-9.36-6.36-21.32S703,509,706.51,509s6.36,9.36,6.36,21.31S710.08,551.59,706.51,551.59Zm0-42.22c-3.22,0-5.93,9.57-5.93,20.9s2.71,20.91,5.93,20.91,5.94-9.57,5.94-20.91S709.73,509.37,706.51,509.37Z"/><ellipse class="cls-4" cx="714.76" cy="515.07" rx="0.49" ry="0.54"/><path class="cls-4" d="M714.76,515.81a.72.72,0,0,1-.7-.74.7.7,0,1,1,1.4,0A.72.72,0,0,1,714.76,515.81Zm0-1.07a.3.3,0,0,0-.27.33.28.28,0,1,0,.54,0A.3.3,0,0,0,714.76,514.74Z"/><ellipse class="cls-4" cx="699.23" cy="513.99" rx="0.49" ry="0.54"/><path class="cls-4" d="M699.23,514.74a.73.73,0,0,1-.69-.75.7.7,0,1,1,1.39,0A.73.73,0,0,1,699.23,514.74Zm0-1.08a.31.31,0,0,0-.27.33.3.3,0,0,0,.27.33.31.31,0,0,0,.28-.33A.31.31,0,0,0,699.23,513.66Z"/><ellipse class="cls-4" cx="716.7" cy="509.7" rx="0.49" ry="0.54"/><path class="cls-4" d="M716.7,510.44a.74.74,0,1,1,.7-.74A.72.72,0,0,1,716.7,510.44Zm0-1.07a.34.34,0,0,0,0,.66.33.33,0,0,0,0-.66Z"/><ellipse class="cls-4" cx="699.23" cy="509.7" rx="0.49" ry="0.54"/><path class="cls-4" d="M699.23,510.44a.74.74,0,1,1,.7-.74A.72.72,0,0,1,699.23,510.44Zm0-1.07a.34.34,0,0,0,0,.66.33.33,0,0,0,0-.66Z"/><ellipse class="cls-4" cx="695.03" cy="515.07" rx="0.49" ry="0.54"/><path class="cls-4" d="M695,515.81a.72.72,0,0,1-.7-.74.7.7,0,1,1,1.39,0A.72.72,0,0,1,695,515.81Zm0-1.07a.3.3,0,0,0-.28.33.28.28,0,1,0,.55,0A.3.3,0,0,0,695,514.74Z"/><ellipse class="cls-4" cx="710.39" cy="478.75" rx="0.97" ry="1.07"/><path class="cls-4" d="M710.39,480a1.28,1.28,0,1,1,1.18-1.28A1.24,1.24,0,0,1,710.39,480Zm0-2.15a.88.88,0,1,0,.76.87A.82.82,0,0,0,710.39,477.88Z"/><ellipse class="cls-4" cx="695.83" cy="452.63" rx="1.29" ry="1.43"/><path class="cls-4" d="M695.83,454.27a1.65,1.65,0,1,1,1.51-1.64A1.58,1.58,0,0,1,695.83,454.27Zm0-2.87a1.23,1.23,0,1,0,1.09,1.23A1.17,1.17,0,0,0,695.83,451.4Z"/><ellipse class="cls-4" cx="723.01" cy="452.63" rx="1.29" ry="1.43"/><path class="cls-4" d="M723,454.27a1.65,1.65,0,1,1,1.5-1.64A1.59,1.59,0,0,1,723,454.27Zm0-2.87a1.23,1.23,0,1,0,1.08,1.23A1.16,1.16,0,0,0,723,451.4Z"/><path class="cls-4" d="M695.31,479.88a46.91,46.91,0,0,1-1.63-8.27,47.64,47.64,0,0,1,0-9.7l.42,0a46.86,46.86,0,0,0,0,9.62,46.29,46.29,0,0,0,1.61,8.2Z"/><path class="cls-4" d="M723.61,479.88l-.41-.11A46.16,46.16,0,0,0,724.82,462l.41,0a46.93,46.93,0,0,1-1.62,18Z"/><polygon class="cls-4" points="691.19 495.02 683.75 490.01 683.98 489.67 691.42 494.68 691.19 495.02"/><polygon class="cls-4" points="725.4 495.89 725.24 495.51 734.86 491.66 735.02 492.04 725.4 495.89"/><ellipse class="cls-4" cx="678.53" cy="437.06" rx="0.49" ry="0.54"/><path class="cls-4" d="M678.53,437.81a.73.73,0,0,1-.7-.75.7.7,0,1,1,1.39,0A.73.73,0,0,1,678.53,437.81Zm0-1.08a.31.31,0,0,0-.28.33.31.31,0,0,0,.28.33.3.3,0,0,0,.27-.33A.31.31,0,0,0,678.53,436.73Z"/><ellipse class="cls-4" cx="740.97" cy="437.06" rx="0.49" ry="0.54"/><path class="cls-4" d="M741,437.81a.73.73,0,0,1-.7-.75.7.7,0,1,1,1.39,0A.73.73,0,0,1,741,437.81Zm0-1.08a.31.31,0,0,0-.28.33.28.28,0,1,0,.55,0A.31.31,0,0,0,741,436.73Z"/><path d="M731.26,346.18c-7.21,5.1-15.28,5.39-18,.65s.88-12.72,8.09-17.81"/><path d="M697.13,346.18c7.21,5.1,15.27,5.39,18,.65s-.89-12.72-8.1-17.81"/><path d="M687.83,345.29c7.2,5.81,14.88,6.78,17.16,2.17s-1.72-13-8.92-18.84"/><path d="M817.76,410l-12-9.77a2.06,2.06,0,0,1-.3-2.9l18-22.13a2.07,2.07,0,0,1,2.9-.3l12,9.77a2.07,2.07,0,0,1,.3,2.9l-18,22.13A2.06,2.06,0,0,1,817.76,410Z"/><rect class="cls-18" x="823.87" y="380.84" width="4.29" height="4.3" rx="2.11"/><path class="cls-18" d="M814.58,401.41,814,401a7.58,7.58,0,0,1-1.42-10.76l6.08-7.73a8,8,0,0,1,11-1.4l.58.44a7.59,7.59,0,0,1,1.42,10.76L825.58,400A8,8,0,0,1,814.58,401.41Z"/><rect class="cls-19" x="369.26" y="298.07" width="674.39" height="371.47"/><ellipse class="cls-4" cx="664.91" cy="563.47" rx="0.63" ry="0.62"/><path class="cls-4" d="M664.91,564.3a.83.83,0,1,1,.85-.83A.84.84,0,0,1,664.91,564.3Zm0-1.24a.41.41,0,1,0,.43.41A.41.41,0,0,0,664.91,563.06Z"/><ellipse class="cls-4" cx="674.61" cy="581.22" rx="0.63" ry="0.62"/><path class="cls-4" d="M674.61,582a.83.83,0,1,1,.85-.82A.83.83,0,0,1,674.61,582Zm0-1.23a.41.41,0,1,0,.43.41A.41.41,0,0,0,674.61,580.81Z"/><ellipse class="cls-4" cx="658.17" cy="557.69" rx="0.63" ry="0.62"/><path class="cls-4" d="M658.17,558.52a.83.83,0,1,1,.84-.83A.84.84,0,0,1,658.17,558.52Zm0-1.24a.42.42,0,0,0-.43.41.43.43,0,0,0,.85,0A.41.41,0,0,0,658.17,557.28Z"/><ellipse class="cls-4" cx="664.91" cy="577.5" rx="0.63" ry="0.62"/><path class="cls-4" d="M664.91,578.33a.83.83,0,1,1,.85-.83A.84.84,0,0,1,664.91,578.33Zm0-1.24a.42.42,0,1,0,.43.41A.42.42,0,0,0,664.91,577.09Z"/><ellipse class="cls-4" cx="749.69" cy="591.54" rx="0.63" ry="0.62"/><path class="cls-4" d="M749.69,592.36a.83.83,0,1,1,.84-.82A.84.84,0,0,1,749.69,592.36Zm0-1.23a.41.41,0,1,0,0,.82.41.41,0,1,0,0-.82Z"/><ellipse class="cls-4" cx="753.48" cy="577.5" rx="0.63" ry="0.62"/><path class="cls-4" d="M753.48,578.33a.83.83,0,1,1,.85-.83A.84.84,0,0,1,753.48,578.33Zm0-1.24a.42.42,0,1,0,0,.83.42.42,0,1,0,0-.83Z"/><ellipse class="cls-4" cx="746.73" cy="581.22" rx="0.63" ry="0.62"/><path class="cls-4" d="M746.73,582a.83.83,0,1,1,.85-.82A.83.83,0,0,1,746.73,582Zm0-1.23a.41.41,0,1,0,.43.41A.41.41,0,0,0,746.73,580.81Z"/><ellipse class="cls-4" cx="758.97" cy="563.47" rx="0.63" ry="0.62"/><path class="cls-4" d="M759,564.3a.83.83,0,1,1,.84-.83A.84.84,0,0,1,759,564.3Zm0-1.24a.41.41,0,1,0,.42.41A.42.42,0,0,0,759,563.06Z"/><ellipse class="cls-4" cx="750.53" cy="570.08" rx="0.63" ry="0.62"/><path class="cls-4" d="M750.53,570.9a.83.83,0,1,1,.84-.82A.83.83,0,0,1,750.53,570.9Zm0-1.24a.42.42,0,1,0,.42.42A.42.42,0,0,0,750.53,569.66Z"/><path class="cls-17" d="M820.09,407.65l-4.91-10.06a3.28,3.28,0,0,1,1.6-4.4l.28-.13a3.41,3.41,0,0,1,4.5,1.55l4.91,10.06a3.28,3.28,0,0,1-1.6,4.41l-.28.13A3.4,3.4,0,0,1,820.09,407.65Z"/><path class="cls-17" d="M823.15,409.74a3.61,3.61,0,0,1-1.21-.2,3.54,3.54,0,0,1-2-1.79L815,397.68a3.42,3.42,0,0,1-.14-2.68,3.5,3.5,0,0,1,1.83-2l.29-.13a3.66,3.66,0,0,1,2.74-.14,3.54,3.54,0,0,1,2,1.79l4.91,10.07a3.49,3.49,0,0,1-1.69,4.68l-.29.13A3.55,3.55,0,0,1,823.15,409.74Zm-4.64-16.8a3.28,3.28,0,0,0-1.36.3l-.29.14a3.06,3.06,0,0,0-1.61,1.76,3,3,0,0,0,.12,2.36l4.91,10.07A3.21,3.21,0,0,0,824.5,409l.29-.14a3.06,3.06,0,0,0,1.61-1.76,3,3,0,0,0-.12-2.36l-4.91-10.07A3.17,3.17,0,0,0,818.51,392.94Z"/><ellipse cx="699.69" cy="366.6" rx="5.25" ry="6.85" transform="translate(-80.3 491.44) rotate(-36.75)"/><ellipse class="cls-2" cx="700.87" cy="370.81" rx="2.01" ry="2.55" transform="translate(78.24 861.77) rotate(-66.14)"/><path class="cls-2" d="M696.12,368.18c-.12-.38.52-.74,1.4-.8s1.64.22,1.8.61"/><ellipse cx="720.13" cy="366.01" rx="6.51" ry="5.52" transform="translate(-11.29 708.89) rotate(-52.06)"/><ellipse class="cls-2" cx="718.82" cy="370.04" rx="2.48" ry="2.07" transform="translate(-34.4 76.29) rotate(-5.93)"/><path class="cls-2" d="M723.65,368.08c.13-.36-.5-.81-1.37-1s-1.65,0-1.81.36"/></g></svg>
