<svg xmlns="http://www.w3.org/2000/svg" width="160" height="180" viewBox="0 0 160 180"><defs><style>.cls-1{fill:#152230;}.cls-2{fill:#fff;}.cls-3{fill:#e9eced;}.cls-4{fill:#89cce5;}</style></defs><title>slet_knap</title><g id="Layer_3" data-name="Layer 3"><rect class="cls-1" y="1.5" width="160" height="177" rx="16.8" ry="16.8"/><path class="cls-2" d="M61.05,137.45a5.19,5.19,0,0,0-1.32-1.7,4.07,4.07,0,0,0-2.55-.79,3.49,3.49,0,0,0-3.81,3.51,2.39,2.39,0,0,0,.85,2,7.52,7.52,0,0,0,2.38,1.43l2.18.95a11.12,11.12,0,0,1,3.5,2.14,5.48,5.48,0,0,1,1.63,4.11,6.8,6.8,0,0,1-7.17,7,6.74,6.74,0,0,1-4.93-1.83,8.32,8.32,0,0,1-2.11-4l2.45-.68a5.32,5.32,0,0,0,1.36,2.89,4.34,4.34,0,0,0,3.26,1.25,4.3,4.3,0,0,0,4.56-4.48,3.4,3.4,0,0,0-1.13-2.66A9.76,9.76,0,0,0,57.48,145l-2-1a10.14,10.14,0,0,1-3-1.87,4.7,4.7,0,0,1-1.56-3.71c0-3.5,2.68-5.85,6.35-5.85a6.13,6.13,0,0,1,3.64,1,6.78,6.78,0,0,1,2.21,2.51Z"/><path class="cls-2" d="M71.05,133v20.29h6.26v2.38H68.54V133Z"/><path class="cls-2" d="M92.47,135.34H83.22v6.73h9v2.38h-9v8.8h9.25v2.38H80.71V133H92.47Z"/><path class="cls-2" d="M102.67,135.34v20.29h-2.52V135.34h-5.5V133h13.53v2.38Z"/><rect class="cls-3" x="46" y="37.5" width="67" height="6.61" rx="3.11" ry="3.11"/><rect class="cls-3" x="64" y="29.67" width="33" height="5.64" rx="2.05" ry="2.05"/><rect class="cls-3" x="48.93" y="46.59" width="61.13" height="67.91" rx="8.15" ry="8.15"/><rect class="cls-4" x="60.51" y="59.55" width="5.64" height="45.95" rx="2.82" ry="2.82"/><rect class="cls-4" x="91.96" y="59.86" width="5.64" height="45.95" rx="2.82" ry="2.82"/><rect class="cls-4" x="75.94" y="59.86" width="5.64" height="45.95" rx="2.82" ry="2.82"/></g></svg>
