<?xml version="1.0" encoding="utf-8"?>
<!-- Generator: Adobe Illustrator 23.0.1, SVG Export Plug-In . SVG Version: 6.00 Build 0)  -->
<svg version="1.1" id="Layer_1" xmlns="http://www.w3.org/2000/svg" xmlns:xlink="http://www.w3.org/1999/xlink" x="0px" y="0px"
	 viewBox="0 0 1260 670" style="enable-background:new 0 0 1260 670;" xml:space="preserve">
<style type="text/css">
	.st0{fill:#89CCE5;}
	.st1{fill:#F4912D;}
	.st2{fill:#FFFFFF;}
	.st3{fill:#152230;}
	.st4{fill:#DBC97F;}
	.st5{fill:#FFD48D;}
	.st6{fill:#D39346;}
	.st7{fill:#5B3E18;}
	.st8{fill:#D86F19;}
	.st9{fill:#F49C4D;}
	.st10{fill:#5E4018;}
	.st11{fill:#543D21;}
	.st12{fill:#2A4459;}
	.st13{fill:#7C470E;}
	.st14{fill:#EAAA39;}
</style>
<title>slutskaerm_fri_01</title>
<g>
	<path class="st0" d="M279.7,81.3c6.9-16.5-7.3-30.9-25.2-30.6C260.3,62.8,269,73.3,279.7,81.3"/>
</g>
<g>
	<path class="st0" d="M95.7,163.3c6.6-18.4-1.8-32.6-19.8-40.2C84.6,135.3,91.3,148.9,95.7,163.3"/>
</g>
<g>
	<path class="st1" d="M59.8,140c4.4-1.9,0.4-8.5-3.7-10.9c-7.4-4.5-14.9-9.1-22.3-13.6c10.1,5,18.2,13.1,23.2,23.2"/>
</g>
<g>
	<path class="st2" d="M51.8,165.8c4.4-1.9,0.4-8.5-3.7-10.9c-7.4-4.5-14.9-9.1-22.3-13.6c10.1,5,18.2,13.1,23.2,23.2"/>
</g>
<g>
	<path class="st3" d="M304.3,295.5c6.6-18.4-3.4-41-21.3-48.6c8.7,12.3,15.4,25.8,19.8,40.2"/>
</g>
<g>
	<path class="st1" d="M78.2,58.1c4.4-1.9,0.4-8.5-3.7-10.9c-7.4-4.5-14.9-9.1-22.3-13.6c10.1,5,18.2,13.1,23.2,23.2"/>
</g>
<g>
	<path class="st2" d="M106.8,161.1c4.8-0.5,2.9-8-0.3-11.6c-5.8-6.5-11.5-13.1-17.3-19.6c8.2,7.7,13.5,17.9,15.4,29"/>
</g>
<g>
	<path class="st2" d="M131.5,121.1c4.4-1.9,0.4-8.5-3.7-10.9c-7.4-4.5-14.9-9.1-22.3-13.6c10.1,5,18.2,13.1,23.2,23.2"/>
</g>
<g>
	<path class="st2" d="M354.3,130.3c5-1.5,6.2-6.1,2.7-10.8c-3.5-4.8-11.3-9.3-18.4-10.8c2.6,5.5,9.4,11.4,17.6,15.4"/>
</g>
<g>
	<path class="st2" d="M28.2,316.2l-6.9-26.7c-0.3-1.2-0.7-2.5-1.7-3.2c-2-1.4-4.6,0.4-6.2,2.2c-3.2,3.8-5.5,8.3-6.6,13.1
		c8.7,3.3,16.9,8,24.3,13.8"/>
</g>
<g>
	<path class="st0" d="M42.8,324.9c-11.1-11-24.3-19.5-38.9-25c5.6,16.6,23.7,28,41.1,25.7"/>
</g>
<g>
	<path class="st3" d="M303.6,395.8c5.5-9,7.7-19.7,6-30.1c-0.2-1.5-0.8-3.3-2.3-3.7c-1-0.3-2,0.2-2.8,0.8
		c-10.6,6.5-10.5,24.6,0.1,31"/>
</g>
<g>
	<path class="st1" d="M504.7,171c6.8-7.7,8.5-19.5,4.1-28.8c-1.6-3.4-5.9-6.7-8.6-4.2c-0.8,0.9-1.3,2-1.5,3.1
		C496.9,149.1,500.8,163.7,504.7,171"/>
</g>
<g>
	<path class="st3" d="M80.4,85.3c-3.1-11.9-11.1-21.8-22-27.4l19.1,23.9"/>
</g>
<g>
	<path class="st3" d="M40.8,282.5c-8.4-9.4-18.9-16.7-30.5-21.6c7,11.9,18.3,20.6,31.6,24.3"/>
</g>
<g>
	<path class="st3" d="M173.5,149.8c-8.4-9.4-18.9-16.7-30.5-21.6c7,11.9,18.3,20.6,31.6,24.3"/>
</g>
<g>
	<path class="st3" d="M172.8,553.1c-10.9-14-24.9-25.4-40.8-33.3c5.8,17.7,22.7,31.3,41.3,33.1"/>
</g>
<g>
	<path class="st0" d="M242.4,500.5c3.6-3.9,7.3-8.2,7.9-13.4s-4.1-11.2-9.2-9.8c-5.1,1.4-6.2,8.4-4.8,13.6
		c1.4,5.1,4.2,10.3,2.9,15.5l4.8-6.5"/>
</g>
<g>
	<path class="st1" d="M270.3,181.3c6.6-18.4-3.4-41-21.3-48.6c8.7,12.3,15.4,25.8,19.8,40.2"/>
</g>
<g>
	<path class="st0" d="M113.7,150.3c6.6-18.4-3.4-41-21.3-48.6c8.7,12.3,15.4,25.8,19.8,40.2"/>
</g>
<g>
	<path class="st0" d="M214.1,139c6.6-18.4-3.4-41-21.3-48.6c8.7,12.3,15.4,25.8,19.8,40.2"/>
</g>
<g>
	<path class="st1" d="M52.7,109.2c4.4-1.9,0.4-8.5-3.7-10.9c-7.4-4.5-14.9-9.1-22.3-13.6c10.1,5,18.2,13.1,23.2,23.2"/>
</g>
<g>
	<path class="st2" d="M179.9,149.6c4.4-1.9,0.4-8.5-3.7-10.9c-7.4-4.5-14.9-9.1-22.3-13.6c10.1,5,18.2,13.1,23.2,23.2"/>
</g>
<g>
	<path class="st2" d="M148.9,54.2c4.4-1.9,0.4-8.5-3.7-10.9c-7.4-4.5-14.9-9.1-22.3-13.6c10.1,5,18.2,13.1,23.2,23.2"/>
</g>
<g>
	<path class="st2" d="M227.2,36.4c6.3-4.5,9.3-13.2,7-20.6s-9.7-12.9-17.5-13c1.2,9.2,6.7,17.3,14.8,21.8"/>
</g>
<g>
	<path class="st3" d="M217.9,411.3c-10.9-14-24.9-25.4-40.8-33.3c5.8,17.7,22.7,31.3,41.3,33.1"/>
</g>
<g>
	<path class="st1" d="M56.8,198.1c6.6-18.4-3.4-41-21.3-48.6c8.7,12.3,15.4,25.8,19.8,40.2"/>
</g>
<g>
	<path class="st1" d="M21.2,193.7c-6.7,11-0.5,27.4,11.8,31.4"/>
</g>
<g>
	<path class="st1" d="M474.6,92.1c-6.7,11-0.5,27.4,11.8,31.4"/>
</g>
<g>
	<path class="st2" d="M230.5,320.7c4.7-11.4,2.4-25.3-5.7-34.6c-2.1-2.4-4.8-4.6-8-4.5c-5.6,0.1-8.4,7.6-6.4,12.8
		c2.1,5.2,7.1,8.4,11.6,11.6c4.6,3.2,9.4,7,10.6,12.4"/>
</g>
<g>
	<path class="st2" d="M41.3,249.2c-5.7-7.3-12.5-13.7-20.1-19c-3.4,3.2,0.4,9.1,4.9,10.7c4.4,1.6,9.8,1.7,12.9,5.2"/>
</g>
<g>
	<path class="st3" d="M275.9,494.9c9-13.3,12.6-29.6,9.9-45.4c-7.1,2.2-8.1,12-6.5,19.3s3.9,15.9-1,21.5"/>
</g>
<g>
	<path class="st2" d="M263.8,399.9c3.7-12.7-1.7-27.5-12.7-34.9c3.4,10.5,9,20.2,16.6,28.3"/>
</g>
<g>
	<path class="st0" d="M167.3,316c6.8-10.4,6-25.1-1.8-34.7c-9.1,6.7-9.8,22-1.4,29.5"/>
</g>
<g>
	<path class="st0" d="M167.9,316.5c7-10.9,6.3-25.6-1.8-35.7c-0.3-0.4-0.8-0.5-1.2-0.2c-9.5,7.3-10.2,22.7-1.4,30.9
		c0.8,0.7,1.9-0.6,1.1-1.3c-8-7.4-7.3-21.5,1.4-28.2l-1.2-0.2c7.6,9.5,8.4,23.4,1.9,33.7C166,316.4,167.4,317.4,167.9,316.5
		L167.9,316.5z"/>
</g>
<g>
	<path class="st0" d="M97.6,328.3c-1.1-12.3-5.2-24.1-11.9-34.4c-4.6,3.6-4.7,10.9-2,16c2.8,5.1,7.8,8.6,12.7,11.9"/>
</g>
<g>
	<path class="st0" d="M98.5,328.2c-1.2-12.4-5.3-24.3-12.1-34.8c-0.3-0.4-0.8-0.5-1.2-0.2c-4.3,3.7-5,9.6-3.2,14.8
		c2.3,6.5,8.5,10.7,13.9,14.5c0.9,0.6,2-0.7,1.1-1.3c-4.5-3-9.2-6.2-12-10.9c-2.9-4.7-3.2-11.7,1.3-15.6l-1.2-0.2
		c6.6,10.2,10.6,21.9,11.8,34C96.9,329.5,98.6,329.3,98.5,328.2L98.5,328.2z"/>
</g>
<g>
	<path class="st2" d="M350.4,315.7c8.4-14.7,14.3-30.7,17.3-47.3c0.8-4.2-0.4-10.4-4.7-9.9c-1.7,0.2-2.9,1.6-4,2.9
		c-11.7,14.8-15.4,35.6-9.4,53.6"/>
</g>
<g>
	<path class="st0" d="M42.8,377.1c-4.9-12.6-11.8-24.3-20.3-34.8c1.7,12.7,8.5,24.1,18.8,31.6"/>
</g>
<g>
	<path class="st0" d="M555.8,34.8c5.6-13.5-9.1-26.7-26.5-27.6C535.7,17.8,544.8,27.3,555.8,34.8"/>
</g>
<g>
	<path class="st1" d="M283.6,255.4c6.6-18.4-3.4-41-21.3-48.6c8.7,12.3,15.4,25.8,19.8,40.2"/>
</g>
<g>
	<path class="st0" d="M338.6,181c4.4-1.9,0.4-8.5-3.7-10.9c-7.4-4.5-14.9-9.1-22.3-13.6c10.1,5,18.2,13.1,23.2,23.2"/>
</g>
<g>
	<path class="st0" d="M368.8,134.2c6.6-18.4-3.4-41-21.3-48.6c8.7,12.3,15.4,25.8,19.8,40.2"/>
</g>
<g>
	<path class="st1" d="M192.5,154.5c4.4-1.9,0.4-8.5-3.7-10.9c-7.4-4.5-14.9-9.1-22.3-13.6c10.1,5,18.2,13.1,23.2,23.2"/>
</g>
<g>
	<path class="st2" d="M307.6,85.5c4.4-1.9,0.4-8.5-3.7-10.9c-7.4-4.5-14.9-9.1-22.3-13.6c10.1,5,18.2,13.1,23.2,23.2"/>
</g>
<g>
	<path class="st3" d="M560.1,215.2c6.6-18.4-3.4-41-21.3-48.6c8.7,12.3,15.4,25.8,19.8,40.2"/>
</g>
<g>
	<path class="st1" d="M188.6,70.8c4.4-1.9,0.4-8.5-3.7-10.9c-7.4-4.5-14.9-9.1-22.3-13.6c10.1,5,18.2,13.1,23.2,23.2"/>
</g>
<g>
	<path class="st1" d="M150.7,74.8c4.4-1.9,0.4-8.5-3.7-10.9c-7.4-4.5-14.9-9.1-22.3-13.6c10.1,5,18.2,13.1,23.2,23.2"/>
</g>
<g>
	<path class="st2" d="M433.9,121.3c4.8-0.5,2.9-8-0.3-11.6c-5.8-6.5-11.5-13.1-17.3-19.6c8.2,7.7,13.5,17.9,15.4,29"/>
</g>
<g>
	<path class="st2" d="M387.4,40.8c4.4-1.9,0.4-8.5-3.7-10.9c-7.4-4.5-14.9-9.1-22.3-13.6c10.1,5,18.2,13.1,23.2,23.2"/>
</g>
<g>
	<path class="st2" d="M543.9,57.1c5-1.5,6.2-6.1,2.7-10.8s-11.3-9.3-18.4-10.8c2.6,5.5,9.4,11.4,17.6,15.4"/>
</g>
<g>
	<path class="st2" d="M284.1,235.9l-6.9-26.7c-0.3-1.2-0.7-2.5-1.7-3.2c-2-1.4-4.6,0.4-6.2,2.2c-3.2,3.8-5.5,8.3-6.6,13.1
		c8.7,3.3,16.9,8,24.3,13.8"/>
</g>
<g>
	<path class="st2" d="M450.1,310.7c-2.7-9.4-8.8-17.5-17.2-22.6c4,9.9,10.2,18.9,18.1,26.1"/>
</g>
<g>
	<path class="st0" d="M417.7,392.9c0-13.5-9.1-26.6-21.7-31.4c5.8,12,15.5,21.7,27.5,27.5"/>
</g>
<g>
	<path class="st0" d="M243.5,311.9c-11.1-11-24.3-19.5-38.9-25c5.6,16.6,23.7,28,41.1,25.7"/>
</g>
<g>
	<path class="st3" d="M559.5,315.5c5.5-9,7.7-19.7,6-30.1c-0.2-1.5-0.8-3.3-2.3-3.7c-1-0.3-2,0.2-2.8,0.8
		c-10.6,6.5-10.5,24.6,0.1,31"/>
</g>
<g>
	<path class="st1" d="M584.6,153.6c6.8-7.7,8.5-19.5,4.1-28.8c-1.6-3.4-5.9-6.7-8.6-4.2c-0.8,0.9-1.3,2-1.5,3.1
		c-1.9,8-0.8,16.4,3.1,23.7"/>
</g>
<g>
	<path class="st3" d="M428,74c-3.1-11.9-11.1-21.8-22-27.4l19,23.9"/>
</g>
<g>
	<path class="st3" d="M288.6,405.4c-8.4-9.4-18.9-16.7-30.5-21.6c7,11.9,18.3,20.6,31.6,24.3"/>
</g>
<g>
	<path class="st3" d="M428.6,472.8c-10.9-14-24.9-25.4-40.8-33.3c5.8,17.7,22.7,31.3,41.3,33.1"/>
</g>
<g>
	<path class="st0" d="M498.2,420.2c3.6-3.9,7.3-8.2,7.9-13.4c0.5-5.3-4.1-11.2-9.2-9.8s-6.2,8.4-4.8,13.6c1.4,5.1,4.2,10.3,2.9,15.5
		l4.8-6.5"/>
</g>
<g>
	<path class="st1" d="M526.1,101c6.6-18.4-3.4-41-21.3-48.6c8.7,12.3,15.4,25.8,19.8,40.2"/>
</g>
<g>
	<path class="st0" d="M369.5,70c6.6-18.4-3.4-41-21.3-48.6c8.7,12.3,15.4,25.8,19.8,40.2"/>
</g>
<g>
	<path class="st1" d="M276.1,29.8c4.4-1.9,0.4-8.5-3.7-10.9c-7.4-4.5-14.9-9.1-22.3-13.6c10.1,5,18.2,13.1,23.2,23.2"/>
</g>
<g>
	<path class="st2" d="M435.8,69.4c4.4-1.9,0.4-8.5-3.7-10.9c-7.4-4.5-14.9-9.1-22.3-13.6c10.1,5,18.2,13.1,23.2,23.2"/>
</g>
<g>
	<path class="st2" d="M425.9,53.9c4.4-1.9,0.4-8.5-3.7-10.9c-7.4-4.5-14.9-9.1-22.3-13.6c10.1,5,18.2,13.1,23.2,23.2"/>
</g>
<g>
	<path class="st1" d="M345.2,86.1c6.6-18.4-3.4-41-21.3-48.6c8.7,12.3,15.4,25.8,19.8,40.2"/>
</g>
<g>
	<path class="st1" d="M247.6,111.7c8.1-12.8,4.2-31.6-8.2-40.2c-6.7,11-0.5,27.4,11.8,31.4"/>
</g>
<g>
	<path class="st2" d="M515.2,225.7c4.7-11.4,2.4-25.3-5.7-34.6c-2.1-2.4-4.8-4.6-8-4.5c-5.6,0.1-8.4,7.6-6.4,12.8s7.1,8.4,11.6,11.6
		c4.6,3.2,9.4,7,10.6,12.4"/>
</g>
<g>
	<path class="st2" d="M198.2,222c-5.7-7.3-12.5-13.7-20.1-19c-3.4,3.2,0.4,9.1,4.9,10.7c4.4,1.6,9.8,1.7,12.9,5.2"/>
</g>
<g>
	<path class="st2" d="M398.7,287.9c1.6-3.7,3.3-7.7,2-11.5s-7-6-9.3-2.7c-2.8,3.9,2.4,8.6,6.8,10.5l-1.6,4.8"/>
</g>
<g>
	<path class="st3" d="M464.8,402.7c5.8-8.7,7.8-19.4,5.6-29.7c-7.7,6.1-9.5,18.4-3.8,26.5"/>
</g>
<g>
	<path class="st2" d="M460.9,476.9c0.8-10.3-2.2-20.6-8.2-28.9c-4.5,7.2,0,18.3,8.2,20.4"/>
</g>
<g>
	<path class="st3" d="M531.7,414.6c9-13.3,12.6-29.6,9.9-45.4c-7.1,2.2-8.1,12-6.5,19.3s3.9,15.9-1,21.5"/>
</g>
<g>
	<path class="st2" d="M519.7,319.6c3.7-12.7-1.7-27.5-12.7-34.9c3.4,10.5,9,20.2,16.6,28.3"/>
</g>
<g>
	<path class="st2" d="M371,390.6c-7.5-8.9-16.3-16.7-26.1-23c5.4,10.7,15.3,18.3,27,21"/>
</g>
<g>
	<path class="st2" d="M352.5,441.9c-12.6-5.2-23.6-13.9-31.5-25c-2.4,9.5,1.5,20.2,9.5,25.9c8,5.6,19.5,5.7,27.6,0.3"/>
</g>
<g>
	<path class="st0" d="M423.1,235.7c6.8-10.4,6-25.1-1.8-34.7c-9.1,6.7-9.8,22-1.4,29.5"/>
</g>
<g>
	<path class="st0" d="M423.8,236.2c7-10.9,6.3-25.6-1.8-35.7c-0.3-0.4-0.8-0.5-1.2-0.2c-9.5,7.3-10.2,22.7-1.4,30.9
		c0.8,0.7,1.9-0.6,1.1-1.3c-8-7.4-7.3-21.5,1.4-28.2l-1.2-0.2c7.6,9.5,8.4,23.4,1.9,33.7C421.9,236.1,423.2,237.1,423.8,236.2
		L423.8,236.2z"/>
</g>
<g>
	<path class="st0" d="M489.9,217c-1.1-12.3-4-17.6-10.7-27.9c-4.6,3.6-4.7,10.9-2,16C480.1,210.2,485.1,213.7,489.9,217"/>
</g>
<g>
	<path class="st2" d="M606.2,235.4c8.4-14.7,14.3-30.7,17.3-47.3c0.8-4.2-0.4-10.4-4.7-9.9c-1.7,0.2-2.9,1.6-4,2.9
		c-11.7,14.8-15.4,35.6-9.4,53.6"/>
</g>
<g>
	<path class="st0" d="M255.5,268.3c-4.9-12.6-11.8-24.3-20.3-34.8c1.7,12.7,8.5,24.1,18.8,31.6"/>
</g>
<g>
	<path class="st0" d="M256.3,268c-5-12.6-11.9-24.4-20.4-35c-0.5-0.6-1.7-0.3-1.5,0.6c1.8,12.9,8.7,24.4,19.1,32.1
		c0.9,0.6,2-0.7,1.1-1.3c-10.1-7.4-16.8-18.6-18.5-31l-1.5,0.6c8.5,10.4,15.3,22.1,20.2,34.6c0.2,0.4,0.7,0.6,1.1,0.4
		C256.2,268.9,256.4,268.5,256.3,268L256.3,268z"/>
</g>
<g>
	<g>
		<path class="st1" d="M499.7,238.4H1221c20.4,0,36.9,16.5,36.9,36.9v332.3c0,20.4-16.5,36.9-36.9,36.9H499.7
			c-20.4,0-36.9-16.5-36.9-36.9V275.3C462.8,254.9,479.4,238.4,499.7,238.4z"/>
	</g>
	<g>
		<path class="st2" d="M524.3,288.5v41.6h-9.8v-41.6h-11.2v-8.4h32.2v8.4H524.3z"/>
	</g>
	<g>
		<path class="st2" d="M551.4,280.1v50h-9.8v-50H551.4z"/>
	</g>
	<g>
		<path class="st2" d="M572.6,280.1v41.6H588v8.4h-25.2v-50H572.6z"/>
	</g>
	<g>
		<path class="st2" d="M604.5,280.1v41.6H620v8.4h-25.2v-50H604.5z"/>
	</g>
	<g>
		<path class="st2" d="M633.1,307.3l-17.2-27.1h11.6l10.7,17.4l10.7-17.4h11.6l-17.6,27.1v22.9h-9.8V307.3z"/>
	</g>
	<g>
		<path class="st2" d="M675.8,301.3l18.4-21.1h12.3l-21.1,23.1l22.3,26.9h-12.9L677,307.8l-1.1,1.1v21.3H666v-50h9.8V301.3z"/>
	</g>
	<g>
		<path class="st2" d="M723.5,301.3l18.4-21.1h12.3l-21.2,23l22.3,26.9h-13l-17.7-22.4l-1.1,1.1v21.3h-9.8v-50h9.8V301.3z"/>
	</g>
	<g>
		<path class="st2" d="M789.2,288.5h-18v11.2h17.2v8.4h-17.2v13.6h18v8.4h-27.8v-50h27.7L789.2,288.5L789.2,288.5z"/>
	</g>
	<g>
		<path class="st2" d="M802.3,319.4c3.2,0,5.9,2.6,5.9,5.8c0,3.2-2.6,5.9-5.8,5.9s-5.9-2.6-5.9-5.8l0,0c0-3.2,2.5-5.8,5.7-5.8
			C802.2,319.4,802.3,319.4,802.3,319.4z M797.7,314.9v-34.8h9.3v34.8H797.7z"/>
	</g>
	<g>
		<path class="st2" d="M518,370.3h8.9v-7h1.9v17.4h-1.9v-8.5H518v8.5h-1.9v-17.4h1.9V370.3z"/>
	</g>
	<g>
		<path class="st2" d="M533.3,369.8l3.2,7.3l3.2-7.3h2.1l-5.3,11.5l-5.3-11.5H533.3z"/>
	</g>
	<g>
		<path class="st2" d="M544.8,364.4c0.7,0,1.3,0.6,1.3,1.3s-0.6,1.3-1.3,1.3s-1.3-0.6-1.3-1.3l0,0
			C543.5,365,544.1,364.4,544.8,364.4z M545.7,369.8v10.8h-1.9v-10.8H545.7z"/>
	</g>
	<g>
		<path class="st2" d="M553.7,372.3c-0.2-0.6-0.8-1.1-1.5-1.1c-0.7-0.1-1.2,0.4-1.3,1.1v0.1c0,0.8,0.5,1,1.7,1.5
			c1,0.3,2,0.9,2.7,1.7c0.4,0.5,0.6,1.1,0.6,1.7c0.1,1.9-1.4,3.5-3.3,3.6c-0.1,0-0.3,0-0.4,0c-1.7,0-3.3-1.1-3.8-2.8l1.6-0.7
			c0.3,1,1.2,1.7,2.2,1.8c0.9,0.1,1.7-0.7,1.8-1.6v-0.1c0-1-0.7-1.4-1.7-1.8c-1-0.3-1.9-0.9-2.6-1.6c-0.4-0.5-0.5-1-0.5-1.6
			c-0.1-1.6,1.2-2.9,2.8-3c0.1,0,0.2,0,0.4,0c1.3,0,2.5,0.8,3,2L553.7,372.3z"/>
	</g>
	<g>
		<path class="st2" d="M572.7,361.7h1.9v19h-1.9v-1.5c-0.9,1.2-2.2,1.8-3.7,1.8c-2.7,0-5.2-1.9-5.2-5.7c0-3.8,2.5-5.6,5.2-5.6
			c1.4,0,2.8,0.6,3.7,1.8V361.7z M565.7,375.2c0,2.3,1.3,4.1,3.5,4.1s3.6-1.9,3.6-4c0.2-2-1.3-3.8-3.3-4c-0.1,0-0.2,0-0.3,0
			C567.4,371.2,565.7,372.6,565.7,375.2L565.7,375.2z"/>
	</g>
	<g>
		<path class="st2" d="M580,376.1c-0.1,0.8,0.1,1.6,0.5,2.3c1,1,2.6,1.1,3.6,0.2c0.1-0.1,0.1-0.1,0.2-0.2c0.4-0.7,0.6-1.5,0.5-2.3
			v-6.3h1.9v6.5c0.1,1.2-0.2,2.4-1,3.2c-1.8,1.8-4.8,1.8-6.6,0c-0.8-0.9-1.1-2.1-1-3.2v-6.5h1.9L580,376.1z"/>
	</g>
	<g>
		<path class="st2" d="M596.8,369.8l3.2,7.3l3.2-7.3h2.1l-5.3,11.5l-5.3-11.5H596.8z"/>
	</g>
	<g>
		<path class="st2" d="M608.3,364.4c0.7,0,1.3,0.6,1.3,1.3s-0.6,1.3-1.3,1.3s-1.3-0.6-1.3-1.3l0,0C607,365,607.5,364.4,608.3,364.4z
			 M609.2,369.8v10.8h-1.9v-10.8H609.2z"/>
	</g>
	<g>
		<path class="st2" d="M614.6,361.7v19h-1.9v-19H614.6z"/>
	</g>
	<g>
		<path class="st2" d="M624.7,369.8l3.2,7.3l3.2-7.3h2.1l-5.3,11.5l-5.3-11.5H624.7z"/>
	</g>
	<g>
		<path class="st2" d="M636.2,364.4c0.7,0,1.3,0.6,1.3,1.3c0,0.7-0.6,1.3-1.3,1.3s-1.3-0.6-1.3-1.3l0,0
			C634.9,365,635.4,364.4,636.2,364.4z M637.1,369.8v10.8h-1.9v-10.8H637.1z"/>
	</g>
	<g>
		<path class="st2" d="M648.9,361.7h1.9v19h-1.9v-1.5c-0.9,1.2-2.2,1.8-3.7,1.8c-2.7,0-5.3-1.9-5.3-5.7c0-3.8,2.5-5.6,5.3-5.6
			c1.4,0,2.8,0.6,3.7,1.8V361.7z M641.9,375.2c0,2.3,1.3,4.1,3.5,4.1s3.6-1.9,3.6-4c0.2-2-1.3-3.8-3.3-4c-0.1,0-0.2,0-0.3,0
			C643.6,371.2,641.9,372.6,641.9,375.2L641.9,375.2z"/>
	</g>
	<g>
		<path class="st2" d="M663.9,377.9c-0.3,0.7-0.8,1.2-1.3,1.7c-1,0.9-2.3,1.4-3.6,1.3c-2.6,0-5.3-1.6-5.3-5.6c0-3.2,2-5.7,5.2-5.7
			c1.6-0.1,3.1,0.7,4.1,2c0.7,1.2,1.1,2.6,1,4.1h-8.4c-0.1,1.9,1.3,3.5,3.2,3.7c0.1,0,0.1,0,0.2,0c0.8,0,1.6-0.3,2.2-0.8
			c0.5-0.4,0.9-0.9,1.1-1.5L663.9,377.9z M662,374c-0.2-1.6-1.6-2.8-3.2-2.8c-1.6,0-2.9,1.2-3.2,2.8H662z"/>
	</g>
	<g>
		<path class="st2" d="M672.9,369.8h1.9v1.1c0.6-0.9,1.6-1.4,2.7-1.4c1.2,0,2.4,0.6,2.9,1.7c0.7-1.1,1.9-1.8,3.2-1.7
			c3.2,0,3.5,2.7,3.5,4.2v6.8h-1.9v-6.6c0-1.2-0.2-2.8-1.9-2.8c-2.2,0-2.4,2.1-2.4,3.4v6H679v-6.4c0-0.8,0-3-2-3
			c-2.1,0-2.4,2.2-2.4,3.5v5.9h-1.9v-10.7H672.9z"/>
	</g>
	<g>
		<path class="st2" d="M700.3,377.9c-0.3,0.7-0.8,1.2-1.3,1.7c-1,0.9-2.3,1.4-3.6,1.3c-2.6,0-5.3-1.6-5.3-5.6c0-3.2,2-5.7,5.2-5.7
			c1.6-0.1,3.1,0.7,4.1,2c0.7,1.2,1.1,2.6,1,4.1H692c-0.1,1.9,1.3,3.5,3.2,3.7c0.1,0,0.1,0,0.2,0c0.8,0,1.6-0.3,2.2-0.8
			c0.5-0.4,0.9-0.9,1.1-1.5L700.3,377.9z M698.4,374c-0.2-1.6-1.6-2.8-3.2-2.8c-1.6,0-2.9,1.2-3.2,2.8H698.4z"/>
	</g>
	<g>
		<path class="st2" d="M703.2,369.8h1.9v1.2c0.5-0.9,1.4-1.4,2.4-1.4c0.6,0,1.1,0.2,1.7,0.4l-0.9,1.7c-0.3-0.2-0.7-0.4-1.1-0.4
			c-0.6,0-1.1,0.2-1.5,0.7c-0.5,0.9-0.7,1.9-0.6,2.9v5.7h-1.9L703.2,369.8z"/>
	</g>
	<g>
		<path class="st2" d="M719.8,377.9c-0.3,0.7-0.8,1.2-1.3,1.7c-1,0.9-2.3,1.4-3.6,1.3c-2.6,0-5.3-1.6-5.3-5.6c0-3.2,2-5.7,5.2-5.7
			c1.6-0.1,3.1,0.7,4.1,2c0.7,1.2,1.1,2.6,1,4.1h-8.4c-0.1,1.9,1.3,3.5,3.2,3.7c0.1,0,0.1,0,0.2,0c0.8,0,1.6-0.3,2.2-0.8
			c0.5-0.4,0.9-0.9,1.1-1.5L719.8,377.9z M718,374c-0.2-1.6-1.6-2.8-3.2-2.8c-1.6,0-2.9,1.2-3.2,2.8H718z"/>
	</g>
	<g>
		<path class="st2" d="M728.2,375.3c0-3.2,2.5-5.7,5.7-5.8c3.2,0,5.7,2.5,5.8,5.7c0,3.2-2.5,5.7-5.7,5.8l0,0
			c-3.1,0.1-5.6-2.3-5.7-5.4C728.2,375.5,728.2,375.4,728.2,375.3z M730.1,375.3c0.1,2.1,1.9,3.7,4,3.6s3.7-1.9,3.6-4
			c-0.1-2-1.8-3.6-3.8-3.6c-2.1,0-3.8,1.6-3.8,3.7C730.1,375,730.1,375.1,730.1,375.3z"/>
	</g>
	<g>
		<path class="st2" d="M742.5,369.8h1.9v1.1c0.6-0.9,1.6-1.4,2.7-1.4c1.2,0,2.4,0.6,2.9,1.7c0.7-1.1,1.9-1.8,3.2-1.7
			c3.2,0,3.5,2.7,3.5,4.2v6.8h-1.9v-6.6c0-1.2-0.2-2.8-1.9-2.8c-2.2,0-2.4,2.1-2.4,3.4v6h-1.9v-6.4c0-0.8,0-3-2-3
			c-2.1,0-2.4,2.2-2.4,3.5v5.9h-1.9v-10.7H742.5z"/>
	</g>
	<g>
		<path class="st2" d="M768.2,380.6h-1.8v-19h1.9v9.7c0.9-1.1,2.3-1.8,3.7-1.8c3.4,0,5.3,2.8,5.3,5.7s-1.9,5.6-5.2,5.6
			c-1.5,0-2.9-0.6-3.8-1.8L768.2,380.6z M775.2,375.3c0-2.6-1.8-4.1-3.5-4.1c-2.1,0.1-3.7,1.8-3.6,3.9v0.1c0,2.2,1.4,4,3.6,4
			C773.9,379.2,775.2,377.4,775.2,375.3L775.2,375.3z"/>
	</g>
	<g>
		<path class="st2" d="M780.9,364.4c0.7,0,1.3,0.6,1.3,1.3c0,0.7-0.6,1.3-1.3,1.3s-1.3-0.6-1.3-1.3l0,0
			C779.6,365,780.2,364.4,780.9,364.4z M781.9,369.8v10.8H780v-10.8H781.9z"/>
	</g>
	<g>
		<path class="st2" d="M787.3,361.7v19h-1.9v-19H787.3z"/>
	</g>
	<g>
		<path class="st2" d="M792.7,361.7v19h-1.9v-19H792.7z"/>
	</g>
	<g>
		<path class="st2" d="M805.8,377.9c-0.3,0.7-0.8,1.2-1.3,1.7c-1,0.9-2.3,1.4-3.6,1.3c-2.6,0-5.3-1.6-5.3-5.6c0-3.2,2-5.7,5.2-5.7
			c1.6-0.1,3.1,0.7,4.1,2c0.7,1.2,1.1,2.6,1,4.1h-8.4c-0.1,1.9,1.3,3.5,3.2,3.7c0.1,0,0.1,0,0.2,0c0.8,0,1.6-0.3,2.2-0.8
			c0.5-0.4,0.9-0.9,1.1-1.5L805.8,377.9z M803.9,374c-0.2-1.6-1.6-2.8-3.2-2.8c-1.6,0-2.9,1.2-3.2,2.8H803.9z"/>
	</g>
	<g>
		<path class="st2" d="M817,361.7h1.9v19H817v-1.5c-0.9,1.1-2.2,1.8-3.6,1.8c-2.7,0-5.2-1.9-5.2-5.7c0-3.8,2.5-5.6,5.2-5.6
			c1.4,0,2.8,0.6,3.7,1.8L817,361.7z M810,375.2c0,2.3,1.3,4.1,3.5,4.1s3.6-1.9,3.6-4c0.2-2-1.3-3.8-3.3-4c-0.1,0-0.2,0-0.3,0
			C811.7,371.2,810,372.6,810,375.2L810,375.2z"/>
	</g>
	<g>
		<path class="st2" d="M830.7,361.7h1.9v19h-1.9v-1.5c-0.9,1.2-2.2,1.8-3.7,1.8c-2.7,0-5.2-1.9-5.2-5.7c0-3.8,2.5-5.6,5.2-5.6
			c1.4,0,2.8,0.6,3.7,1.8V361.7z M823.7,375.2c0,2.3,1.3,4.1,3.5,4.1s3.6-1.9,3.6-4c0.2-2-1.3-3.8-3.3-4c-0.1,0-0.2,0-0.3,0
			C825.3,371.2,823.7,372.6,823.7,375.2L823.7,375.2z"/>
	</g>
	<g>
		<path class="st2" d="M845.7,377.9c-0.3,0.7-0.8,1.2-1.3,1.7c-1,0.9-2.3,1.4-3.6,1.3c-2.6,0-5.3-1.6-5.3-5.6c0-3.2,2-5.7,5.2-5.7
			c1.6-0.1,3.1,0.7,4.1,2c0.7,1.2,1.1,2.6,1,4.1h-8.4c-0.1,1.9,1.3,3.5,3.2,3.7c0.1,0,0.1,0,0.2,0c0.8,0,1.6-0.3,2.2-0.8
			c0.5-0.4,0.9-0.9,1.1-1.5L845.7,377.9z M843.8,374c-0.2-1.6-1.6-2.8-3.2-2.8c-1.6,0-2.9,1.2-3.2,2.8H843.8z"/>
	</g>
	<g>
		<path class="st2" d="M850.5,361.7v19h-1.9v-19H850.5z"/>
	</g>
	<g>
		<path class="st2" d="M854.9,364.4c0.7,0,1.3,0.6,1.3,1.3c0,0.7-0.6,1.3-1.3,1.3s-1.3-0.6-1.3-1.3l0,0
			C853.6,365,854.2,364.4,854.9,364.4z M855.9,369.8v10.8H854v-10.8H855.9z"/>
	</g>
	<g>
		<path class="st2" d="M859.4,369.8h1.9v1.2c0.7-1,1.9-1.5,3.1-1.5c1.2,0,2.4,0.5,3.1,1.5c0.5,0.9,0.7,1.9,0.6,2.9v6.7h-1.9V374
			c0.1-0.7-0.1-1.4-0.5-2c-0.4-0.5-1.1-0.8-1.8-0.8s-1.4,0.3-1.9,0.8c-0.6,0.9-0.9,1.9-0.8,2.9v5.6h-1.9v-10.7H859.4z"/>
	</g>
	<g>
		<path class="st2" d="M879.9,369.8h1.9v10.5c0.1,1.5-0.2,3-1,4.2c-1,1.3-2.6,2.1-4.3,2c-1.4,0-2.8-0.5-3.9-1.5
			c-0.9-0.9-1.4-2.2-1.4-3.5h1.8c0,1.8,1.4,3.2,3.1,3.3c0.1,0,0.2,0,0.3,0c1.2,0.1,2.3-0.5,2.9-1.5c0.5-0.8,0.7-1.8,0.6-2.8v-1.6
			c-0.9,1.2-2.2,1.8-3.7,1.8c-1.4,0-2.7-0.5-3.7-1.5c-1.1-1.2-1.6-2.7-1.6-4.3c-0.1-1.6,0.5-3.1,1.6-4.2c1-0.9,2.3-1.5,3.7-1.5
			c1.5,0,2.8,0.6,3.7,1.8L879.9,369.8z M874,372.2c-0.8,0.8-1.1,1.9-1.1,3c-0.1,1.2,0.4,2.3,1.2,3.2c1.3,1.2,3.4,1.2,4.7,0
			c0.8-0.8,1.2-2,1.2-3.1s-0.4-2.2-1.1-3c-0.7-0.6-1.5-1-2.5-1C875.5,371.2,874.6,371.6,874,372.2L874,372.2z"/>
	</g>
	<g>
		<path class="st2" d="M893.2,386.6h-1.9v-16.8h1.9v1.5c0.9-1.1,2.3-1.8,3.7-1.8c3.4,0,5.2,2.8,5.2,5.7s-1.9,5.6-5.2,5.6
			c-1.5,0-2.9-0.6-3.8-1.8L893.2,386.6z M900.2,375.3c0-2.6-1.8-4.1-3.5-4.1c-2.1,0.1-3.7,1.8-3.6,3.9v0.1c0,2.2,1.4,4,3.6,4
			C898.9,379.2,900.2,377.4,900.2,375.3L900.2,375.3z"/>
	</g>
	<g>
		<path class="st2" d="M913.3,369.8h1.9v10.8h-1.9v-1.5c-0.9,1.2-2.2,1.8-3.7,1.8c-2.7,0-5.2-1.9-5.2-5.7c0-3.8,2.5-5.6,5.2-5.6
			c1.5,0,2.8,0.6,3.7,1.8V369.8z M906.3,375.2c0,2.3,1.3,4.1,3.5,4.1s3.6-1.9,3.6-4c0.2-2-1.3-3.8-3.3-4c-0.1,0-0.2,0-0.3,0
			C908,371.2,906.3,372.6,906.3,375.2L906.3,375.2z M910.3,363.2c1.2,0,2.2,1,2.2,2.2s-1,2.2-2.2,2.2s-2.2-1-2.2-2.2l0,0
			C908.1,364.2,909,363.3,910.3,363.2L910.3,363.2z M910.3,366.5c0.6,0,1.1-0.5,1-1.1s-0.5-1.1-1.1-1c-0.6,0-1,0.5-1,1.1
			C909.2,366,909.6,366.5,910.3,366.5L910.3,366.5z"/>
	</g>
	<g>
		<path class="st2" d="M924.8,369.8h1.9v1.2c0.7-1,1.9-1.5,3.1-1.5c1.2,0,2.4,0.5,3.1,1.5c0.5,0.9,0.7,1.9,0.6,2.9v6.7h-1.9V374
			c0.1-0.7-0.1-1.4-0.5-2c-0.4-0.5-1.1-0.8-1.8-0.8s-1.4,0.3-1.9,0.8c-0.6,0.9-0.9,1.9-0.8,2.9v5.6h-1.9L924.8,369.8z"/>
	</g>
	<g>
		<path class="st2" d="M946.6,377.9c-0.3,0.7-0.8,1.2-1.3,1.7c-1,0.9-2.3,1.4-3.6,1.3c-2.6,0-5.3-1.6-5.3-5.6c0-3.2,2-5.7,5.2-5.7
			c1.6-0.1,3.1,0.7,4.1,2c0.7,1.2,1.1,2.6,1,4.1h-8.4c-0.1,1.9,1.3,3.5,3.2,3.7c0.1,0,0.1,0,0.2,0c0.8,0,1.6-0.3,2.2-0.8
			c0.5-0.4,0.9-0.9,1.1-1.5L946.6,377.9z M944.7,374c-0.2-1.6-1.6-2.8-3.2-2.8c-1.6,0-2.9,1.2-3.2,2.8H944.7z"/>
	</g>
	<g>
		<path class="st2" d="M951.4,371.5v9.1h-1.9v-9.1h-1.2v-1.7h1.2v-3.9h1.9v3.9h1.9v1.7H951.4z"/>
	</g>
	<g>
		<path class="st2" d="M957.5,371.5v9.1h-1.9v-9.1h-1.1v-1.7h1.1v-3.9h1.9v3.9h1.9v1.7H957.5z"/>
	</g>
	<g>
		<path class="st2" d="M970.7,377.9c-0.3,0.7-0.8,1.2-1.3,1.7c-1,0.9-2.3,1.4-3.6,1.3c-2.6,0-5.3-1.6-5.3-5.6c0-3.2,2-5.7,5.2-5.7
			c1.6-0.1,3.1,0.7,4.1,2c0.7,1.2,1.1,2.6,1,4.1h-8.4c-0.1,1.9,1.3,3.5,3.2,3.7c0.1,0,0.1,0,0.2,0c0.8,0,1.6-0.3,2.2-0.8
			c0.5-0.4,0.9-0.9,1.1-1.5L970.7,377.9z M968.9,374c-0.2-1.6-1.6-2.8-3.2-2.8c-1.6,0-2.9,1.2-3.2,2.8H968.9z"/>
	</g>
	<g>
		<path class="st2" d="M975.6,371.5v9.1h-1.9v-9.1h-1.1v-1.7h1.1v-3.9h1.9v3.9h1.9v1.7H975.6z"/>
	</g>
	<g>
		<path class="st2" d="M979.8,378.1l1.7,0.6l-2.6,5.9l-1.2-0.5L979.8,378.1z"/>
	</g>
	<g>
		<path class="st2" d="M993.1,361.7v12.2l4-4h2.5l-4.6,4.6l5.5,6.2H998l-4.3-4.9l-0.5,0.5v4.4h-1.9v-19L993.1,361.7z"/>
	</g>
	<g>
		<path class="st2" d="M1010.4,369.8h1.9v10.8h-1.9v-1.5c-0.9,1.2-2.2,1.8-3.7,1.8c-2.7,0-5.3-1.9-5.3-5.7c0-3.8,2.5-5.6,5.3-5.6
			c1.4,0,2.8,0.6,3.7,1.8V369.8z M1003.4,375.2c0,2.3,1.3,4.1,3.5,4.1s3.6-1.9,3.6-4c0.2-2-1.3-3.8-3.3-4c-0.1,0-0.2,0-0.3,0
			C1005.1,371.2,1003.4,372.6,1003.4,375.2L1003.4,375.2z"/>
	</g>
	<g>
		<path class="st2" d="M1015.8,369.8h1.9v1.2c0.7-1,1.9-1.5,3.1-1.5c1.2-0.1,2.4,0.5,3.1,1.5c0.5,0.9,0.7,1.9,0.6,2.9v6.7h-1.9V374
			c0.1-0.7-0.1-1.4-0.5-2c-0.4-0.5-1.1-0.8-1.8-0.8s-1.4,0.3-1.9,0.8c-0.6,0.9-0.9,1.9-0.8,2.9v5.6h-1.9v-10.7H1015.8z"/>
	</g>
	<g>
		<path class="st2" d="M1042.3,361.7h1.9v19h-1.9v-1.5c-0.9,1.2-2.2,1.8-3.7,1.8c-2.7,0-5.2-1.9-5.2-5.7c0-3.8,2.5-5.6,5.2-5.6
			c1.4,0,2.8,0.6,3.7,1.8V361.7z M1035.3,375.2c0,2.3,1.3,4.1,3.5,4.1s3.6-1.9,3.6-4c0.2-2-1.3-3.8-3.3-4c-0.1,0-0.2,0-0.3,0
			C1037.1,371.2,1035.3,372.6,1035.3,375.2z"/>
	</g>
	<g>
		<path class="st2" d="M1049.7,376.1c-0.1,0.8,0.1,1.6,0.5,2.3c1,1,2.6,1.1,3.6,0.2c0.1-0.1,0.1-0.1,0.2-0.2
			c0.4-0.7,0.6-1.5,0.5-2.3v-6.3h1.8v6.5c0.1,1.2-0.2,2.4-1,3.2c-1.8,1.8-4.8,1.8-6.6,0c-0.8-0.9-1.1-2.1-1-3.2v-6.5h1.9
			L1049.7,376.1z"/>
	</g>
	<g>
		<path class="st2" d="M1067.8,361.7v19h-1.9v-19H1067.8z"/>
	</g>
	<g>
		<path class="st2" d="M1088.5,377.9c-0.9,1.9-2.8,3-4.9,3c-1.7,0.1-3.3-0.7-4.2-2.2c-0.8,1.4-2.4,2.2-4,2.2c-2.5,0-4.7-1.1-4.7-3.5
			s2-3.6,4.5-3.6c1.1,0,2.2,0.3,3.1,0.9c0-0.8-0.1-1.6-0.5-2.3c-0.5-0.9-1.5-1.4-2.6-1.2c-1.1,0-2.3,0.3-3.3,0.7v-1.8
			c1.1-0.4,2.2-0.6,3.3-0.6c1.7-0.2,3.3,0.7,4.1,2.2c0.9-1.4,2.5-2.2,4.2-2.2c3.1,0,5.1,2.3,5.1,5.9v0.2h-8.4
			c-0.1,2,1.5,3.6,3.4,3.7c1.4-0.1,2.7-1,3.3-2.3L1088.5,377.9z M1072.6,377.4c0,0.8,0.6,1.9,2.7,1.9c2.2,0,2.9-1.1,2.9-1.9
			s-0.7-1.8-2.8-1.8C1073.5,375.5,1072.6,376.4,1072.6,377.4z M1086.7,374c-0.2-1.8-1.8-3-3.6-2.8c-1.5,0.2-2.6,1.3-2.8,2.8H1086.7z
			"/>
	</g>
	<g>
		<path class="st2" d="M1095.9,372.3c-0.2-0.6-0.8-1.1-1.5-1.1c-0.7-0.1-1.2,0.4-1.3,1.1v0.1c0,0.8,0.5,1,1.7,1.5
			c1,0.3,2,0.9,2.7,1.7c0.4,0.5,0.6,1.1,0.6,1.7c0.1,1.9-1.4,3.5-3.3,3.6c-0.1,0-0.3,0-0.4,0c-1.7,0-3.3-1.1-3.8-2.8l1.6-0.7
			c0.3,1,1.2,1.7,2.2,1.8c0.9,0.1,1.7-0.7,1.8-1.6v-0.1c0-1-0.7-1.4-1.7-1.8c-1-0.3-1.9-0.9-2.6-1.6c-0.4-0.5-0.5-1-0.5-1.6
			c-0.1-1.6,1.2-2.9,2.8-3c0.1,0,0.2,0,0.4,0c1.3,0,2.5,0.8,3,2L1095.9,372.3z"/>
	</g>
	<g>
		<path class="st2" d="M1110.2,377.9c-0.3,0.7-0.8,1.2-1.3,1.7c-1,0.9-2.2,1.3-3.5,1.3c-2.6,0-5.3-1.6-5.3-5.6c0-3.2,2-5.7,5.2-5.7
			c1.6-0.1,3.1,0.7,4.1,2c0.7,1.2,1.1,2.6,1,4.1h-8.4c-0.1,1.9,1.3,3.5,3.2,3.7c0.1,0,0.1,0,0.2,0c0.8,0,1.6-0.3,2.2-0.8
			c0.5-0.4,0.9-0.9,1.1-1.5L1110.2,377.9z M1108.3,374c-0.2-1.6-1.6-2.8-3.2-2.8s-2.9,1.2-3.2,2.8H1108.3z"/>
	</g>
	<g>
		<path class="st2" d="M1119.2,369.8h1.9v1.1c0.6-0.9,1.6-1.4,2.7-1.4c1.2,0,2.4,0.6,2.9,1.7c0.7-1.1,1.9-1.8,3.2-1.7
			c3.2,0,3.5,2.7,3.5,4.2v6.8h-1.9v-6.6c0-1.2-0.2-2.8-1.9-2.8c-2.2,0-2.4,2.1-2.4,3.4v6h-1.9v-6.4c0-0.8,0-3-1.9-3
			c-2.1,0-2.4,2.2-2.4,3.5v5.9h-1.9v-10.7H1119.2z"/>
	</g>
	<g>
		<path class="st2" d="M1146.6,377.9c-0.3,0.7-0.8,1.2-1.3,1.7c-1,0.9-2.3,1.4-3.6,1.3c-2.6,0-5.3-1.6-5.3-5.6c0-3.2,2-5.7,5.2-5.7
			c1.6-0.1,3.1,0.7,4.1,2c0.7,1.2,1.1,2.6,1,4.1h-8.4c-0.1,1.9,1.3,3.5,3.2,3.7c0.1,0,0.1,0,0.2,0c0.8,0,1.6-0.3,2.2-0.8
			c0.5-0.4,0.9-0.9,1.1-1.5L1146.6,377.9z M1144.7,374c-0.2-1.6-1.6-2.8-3.2-2.8s-2.9,1.2-3.2,2.8H1144.7z"/>
	</g>
	<g>
		<path class="st2" d="M1149.5,369.8h1.9v1.2c0.5-0.9,1.4-1.4,2.4-1.4c0.6,0,1.1,0.2,1.7,0.4l-0.9,1.7c-0.3-0.2-0.7-0.4-1.1-0.4
			c-0.6,0-1.1,0.2-1.5,0.7c-0.5,0.9-0.7,1.9-0.6,2.9v5.7h-1.9V369.8z"/>
	</g>
	<g>
		<path class="st2" d="M1166.2,377.9c-0.3,0.7-0.8,1.2-1.3,1.7c-1,0.9-2.3,1.4-3.6,1.3c-2.6,0-5.3-1.6-5.3-5.6c0-3.2,2-5.7,5.2-5.7
			c1.6-0.1,3.1,0.7,4.1,2c0.7,1.2,1.1,2.6,1,4.1h-8.4c-0.1,1.9,1.3,3.5,3.2,3.7c0.1,0,0.1,0,0.2,0c0.8,0,1.6-0.3,2.2-0.8
			c0.5-0.4,0.9-0.9,1.1-1.5L1166.2,377.9z M1164.3,374c-0.2-1.6-1.6-2.8-3.2-2.8s-2.9,1.2-3.2,2.8H1164.3z"/>
	</g>
	<g>
		<path class="st2" d="M517.5,417.8h-1.9V401h1.9v1.5c0.9-1.1,2.3-1.8,3.7-1.8c3.4,0,5.2,2.8,5.2,5.7c0,2.9-1.9,5.6-5.2,5.6
			c-1.5,0-2.9-0.6-3.8-1.8L517.5,417.8L517.5,417.8z M524.5,406.5c0-2.7-1.8-4.1-3.5-4.1c-2.1,0.1-3.7,1.8-3.6,3.9v0.1
			c0,2.2,1.4,4,3.6,4C523.2,410.4,524.5,408.6,524.5,406.5L524.5,406.5z"/>
	</g>
	<g>
		<path class="st2" d="M537.6,401h1.9v10.8h-1.9v-1.5c-0.9,1.2-2.2,1.8-3.7,1.8c-2.7,0-5.2-1.9-5.2-5.7s2.5-5.6,5.2-5.6
			c1.4,0,2.8,0.6,3.7,1.8V401z M530.6,406.4c0,2.3,1.3,4.1,3.5,4.1s3.6-1.9,3.6-4c0.2-2-1.3-3.8-3.3-4c-0.1,0-0.2,0-0.3,0
			C532.2,402.4,530.5,403.8,530.6,406.4L530.6,406.4z M534.6,394.4c1.2,0,2.2,1,2.2,2.2s-1,2.2-2.2,2.2s-2.2-1-2.2-2.2l0,0
			C532.3,395.5,533.3,394.5,534.6,394.4L534.6,394.4z M534.6,397.7c0.6,0,1.1-0.5,1.1-1.1s-0.5-1.1-1.1-1.1s-1.1,0.5-1.1,1.1l0,0
			C533.5,397.2,533.9,397.7,534.6,397.7L534.6,397.7z"/>
	</g>
	<g>
		<path class="st2" d="M550.9,417.8H549V401h1.9v1.5c0.9-1.1,2.3-1.8,3.7-1.8c3.4,0,5.2,2.8,5.2,5.7c0,2.9-1.9,5.6-5.2,5.6
			c-1.5,0-2.9-0.6-3.8-1.8L550.9,417.8L550.9,417.8z M557.9,406.5c0-2.7-1.8-4.1-3.5-4.1c-2.1,0.1-3.7,1.8-3.6,3.9v0.1
			c0,2.2,1.4,4,3.6,4S557.9,408.6,557.9,406.5L557.9,406.5z"/>
	</g>
	<g>
		<path class="st2" d="M562.7,401h1.9v1.2c0.5-0.9,1.4-1.4,2.5-1.4c0.6,0,1.1,0.2,1.7,0.4l-0.9,1.7c-0.3-0.2-0.7-0.4-1.1-0.4
			c-0.6,0-1.1,0.2-1.5,0.7c-0.5,0.9-0.7,1.9-0.6,2.9v5.7h-1.9V401H562.7z"/>
	</g>
	<g>
		<path class="st2" d="M571.3,395.6c0.7,0,1.3,0.6,1.3,1.3s-0.6,1.3-1.3,1.3s-1.3-0.6-1.3-1.3l0,0
			C570,396.2,570.6,395.6,571.3,395.6z M572.3,401v10.8h-1.9V401H572.3z"/>
	</g>
	<g>
		<path class="st2" d="M576.3,401l3.2,7.3l3.2-7.3h2.1l-5.3,11.5l-5.3-11.5H576.3z"/>
	</g>
	<g>
		<path class="st2" d="M595.1,401h1.9v10.8h-1.9v-1.5c-0.9,1.2-2.2,1.8-3.7,1.8c-2.7,0-5.3-1.9-5.3-5.7s2.5-5.6,5.3-5.6
			c1.4,0,2.8,0.6,3.7,1.8V401z M588.1,406.4c0,2.3,1.3,4.1,3.5,4.1s3.6-1.9,3.6-4c0.2-2-1.3-3.8-3.3-4c-0.1,0-0.2,0-0.3,0
			C589.8,402.4,588.1,403.8,588.1,406.4L588.1,406.4z"/>
	</g>
	<g>
		<path class="st2" d="M602.4,402.7v9.1h-1.9v-9.1h-1.2V401h1.2v-3.9h1.9v3.9h1.9v1.7H602.4z"/>
	</g>
	<g>
		<path class="st2" d="M610.5,403.5c-0.2-0.6-0.8-1.1-1.5-1.1c-0.7-0.1-1.2,0.4-1.3,1.1v0.1c0,0.8,0.5,1,1.7,1.5
			c1,0.3,2,0.9,2.7,1.7c0.4,0.5,0.6,1.1,0.6,1.7c0.1,1.9-1.4,3.5-3.3,3.5c-0.1,0-0.3,0-0.4,0c-1.7,0-3.3-1.1-3.8-2.8l1.6-0.7
			c0.3,1,1.2,1.7,2.2,1.8c0.9,0.1,1.7-0.7,1.8-1.6v-0.1c0-1-0.7-1.4-1.7-1.8c-1-0.3-1.9-0.9-2.6-1.6c-0.4-0.5-0.5-1-0.5-1.6
			c-0.1-1.6,1.2-2.9,2.8-3c0.1,0,0.2,0,0.4,0c1.3-0.1,2.5,0.7,3,2L610.5,403.5z"/>
	</g>
	<g>
		<path class="st2" d="M615.2,401h1.9v1.2c0.7-1,1.9-1.5,3.1-1.5c1.2,0,2.4,0.5,3.1,1.5c0.5,0.9,0.7,1.9,0.6,2.9v6.7H622v-6.6
			c0.1-0.7-0.1-1.4-0.5-2c-0.4-0.5-1.1-0.8-1.8-0.8s-1.4,0.3-1.9,0.8c-0.6,0.9-0.9,1.9-0.8,2.9v5.6h-1.9V401H615.2z"/>
	</g>
	<g>
		<path class="st2" d="M635.7,401h1.9v10.8h-1.9v-1.5c-0.9,1.2-2.2,1.8-3.7,1.8c-2.7,0-5.2-1.9-5.2-5.7s2.5-5.6,5.2-5.6
			c1.4,0,2.8,0.6,3.7,1.8V401z M628.7,406.4c0,2.3,1.3,4.1,3.5,4.1s3.6-1.9,3.6-4c0.2-2-1.3-3.8-3.3-4c-0.1,0-0.2,0-0.3,0
			C630.3,402.4,628.7,403.8,628.7,406.4L628.7,406.4z"/>
	</g>
	<g>
		<path class="st2" d="M643,392.9V405l4-4h2.4l-4.6,4.6l5.5,6.2h-2.5l-4.3-4.9l-0.5,0.5v4.5h-1.9v-19L643,392.9z"/>
	</g>
	<g>
		<path class="st2" d="M653.3,409.5c0.7,0,1.3,0.6,1.3,1.3c0,0.7-0.6,1.3-1.3,1.3s-1.3-0.6-1.3-1.3S652.6,409.5,653.3,409.5z"/>
	</g>
	<g>
		<path class="st2" d="M666.3,392.9h1.9v19h-1.9v-1.5c-0.9,1.2-2.2,1.8-3.7,1.8c-2.7,0-5.2-1.9-5.2-5.7s2.5-5.6,5.2-5.6
			c1.5,0,2.8,0.6,3.7,1.8V392.9z M659.3,406.4c0,2.3,1.3,4.1,3.5,4.1s3.6-1.9,3.6-4c0.2-2-1.3-3.8-3.3-4c-0.1,0-0.2,0-0.3,0
			C661,402.4,659.3,403.8,659.3,406.4L659.3,406.4z"/>
	</g>
	<g>
		<path class="st2" d="M673.6,392.9V405l4-4h2.4l-4.7,4.6l5.5,6.2h-2.5l-4.3-4.9l-0.5,0.5v4.5h-1.9v-19L673.6,392.9z"/>
	</g>
	<g>
		<path class="st2" d="M683.3,409.3l1.7,0.6l-2.7,5.9l-1.2-0.5L683.3,409.3z"/>
	</g>
	<g>
		<path class="st2" d="M694.6,392.9h1.9v9.4c0.7-1,1.9-1.5,3.1-1.5c1.2,0,2.4,0.5,3.1,1.5c0.5,0.9,0.7,1.9,0.6,2.9v6.7h-1.9v-6.6
			c0.1-0.7-0.1-1.4-0.5-2c-0.4-0.5-1.1-0.8-1.8-0.8s-1.4,0.3-1.9,0.8c-0.6,0.9-0.9,1.9-0.8,2.9v5.6h-1.9v-18.9H694.6z"/>
	</g>
	<g>
		<path class="st2" d="M707.3,401l3.2,7.3l3.2-7.3h2.1l-5.3,11.5l-5.2-11.5H707.3z"/>
	</g>
	<g>
		<path class="st2" d="M717.2,406.4c0-3.2,2.5-5.7,5.7-5.8c3.2,0,5.7,2.5,5.8,5.7c0,3.2-2.5,5.7-5.7,5.8l0,0
			c-3.1,0.1-5.6-2.3-5.7-5.4C717.2,406.6,717.2,406.5,717.2,406.4z M719.1,406.4c0.1,2.1,1.9,3.7,4,3.6s3.7-1.9,3.6-4
			c-0.1-2-1.8-3.6-3.8-3.6c-2.1,0-3.8,1.6-3.8,3.7C719.1,406.2,719.1,406.3,719.1,406.4z"/>
	</g>
	<g>
		<path class="st2" d="M731.5,401h1.8v1.2c0.5-0.9,1.4-1.4,2.4-1.4c0.6,0,1.2,0.2,1.7,0.4l-0.9,1.7c-0.3-0.2-0.7-0.4-1.1-0.4
			c-0.6,0-1.1,0.2-1.5,0.7c-0.5,0.9-0.7,1.9-0.6,2.9v5.7h-1.9L731.5,401z"/>
	</g>
	<g>
		<path class="st2" d="M753.5,392.9h1.9v19h-1.9v-1.5c-0.9,1.2-2.2,1.8-3.7,1.8c-2.7,0-5.2-1.9-5.2-5.7s2.5-5.6,5.2-5.6
			c1.4,0,2.8,0.6,3.7,1.8V392.9z M746.5,406.4c0,2.3,1.3,4.1,3.5,4.1s3.6-1.9,3.6-4c0.2-2-1.3-3.8-3.3-4c-0.1,0-0.2,0-0.3,0
			C748.2,402.4,746.5,403.8,746.5,406.4L746.5,406.4z"/>
	</g>
	<g>
		<path class="st2" d="M760.8,407.3c-0.1,0.8,0.1,1.6,0.5,2.3c1,1,2.6,1.1,3.6,0.2c0.1-0.1,0.1-0.1,0.2-0.2c0.4-0.7,0.6-1.5,0.5-2.3
			V401h1.9v6.5c0.1,1.2-0.2,2.4-1,3.2c-1.8,1.8-4.8,1.8-6.6,0c-0.8-0.9-1.1-2.1-1-3.2V401h1.9L760.8,407.3z"/>
	</g>
	<g>
		<path class="st2" d="M776.4,406.4c0-3.2,2.5-5.7,5.7-5.8s5.7,2.5,5.8,5.7c0,3.2-2.5,5.7-5.7,5.8l0,0c-3.1,0.1-5.6-2.3-5.7-5.4
			C776.4,406.6,776.4,406.5,776.4,406.4z M778.4,406.4c0.1,2.1,1.9,3.7,4,3.6s3.7-1.9,3.6-4c-0.1-2-1.8-3.6-3.8-3.6
			c-2.1,0-3.8,1.6-3.8,3.7C778.3,406.2,778.3,406.3,778.4,406.4L778.4,406.4z"/>
	</g>
	<g>
		<path class="st2" d="M799,401h1.9v10.5c0.1,1.5-0.2,3-1,4.2c-1,1.3-2.6,2.1-4.3,2c-1.4,0-2.8-0.5-3.8-1.5
			c-0.9-0.9-1.4-2.2-1.4-3.5h1.8c0,0.8,0.3,1.6,0.8,2.2c0.7,0.7,1.6,1.1,2.6,1c1.2,0.1,2.3-0.5,2.9-1.5c0.5-0.8,0.7-1.8,0.6-2.8V410
			c-0.9,1.2-2.2,1.9-3.7,1.9c-1.4,0-2.7-0.5-3.7-1.5c-1.1-1.2-1.6-2.7-1.6-4.3c-0.1-1.6,0.5-3.1,1.6-4.2c1-0.9,2.3-1.5,3.7-1.5
			s2.8,0.6,3.7,1.8L799,401z M793.1,403.4c-0.8,0.8-1.1,1.9-1.1,3c-0.1,1.2,0.4,2.3,1.2,3.2c0.6,0.6,1.5,0.9,2.3,0.9
			c0.9,0,1.7-0.3,2.4-0.9c0.8-0.8,1.3-2,1.2-3.1c0-1.1-0.4-2.2-1.2-3c-0.6-0.6-1.5-1-2.4-1C794.6,402.4,793.7,402.8,793.1,403.4z"/>
	</g>
	<g>
		<path class="st2" d="M808.9,403.5c-0.2-0.6-0.8-1.1-1.5-1.1c-0.7-0.1-1.2,0.4-1.3,1.1v0.1c0,0.8,0.5,1,1.7,1.5
			c1,0.3,2,0.9,2.7,1.7c0.4,0.5,0.6,1.1,0.6,1.7c0.1,1.9-1.4,3.5-3.3,3.5c-0.1,0-0.3,0-0.4,0c-1.7,0-3.3-1.1-3.8-2.8l1.6-0.7
			c0.3,1,1.2,1.7,2.2,1.7c0.9,0.1,1.7-0.7,1.8-1.6v-0.1c0-1-0.7-1.4-1.7-1.8c-1-0.3-1.9-0.9-2.6-1.6c-0.4-0.5-0.5-1-0.5-1.6
			c-0.1-1.6,1.2-2.9,2.8-3c0.1,0,0.2,0,0.4,0c1.3-0.1,2.5,0.7,3,2L808.9,403.5z"/>
	</g>
	<g>
		<path class="st2" d="M821.8,401h1.9v10.8h-1.9v-1.5c-0.9,1.2-2.2,1.8-3.7,1.8c-2.7,0-5.3-1.9-5.3-5.7s2.5-5.6,5.3-5.6
			c1.4,0,2.8,0.6,3.7,1.8V401z M814.8,406.4c0,2.3,1.3,4.1,3.5,4.1s3.6-1.9,3.6-4c0.2-2-1.3-3.8-3.3-4c-0.1,0-0.2,0-0.3,0
			C816.5,402.4,814.8,403.8,814.8,406.4L814.8,406.4z M818.8,394.4c1.2,0,2.2,1,2.2,2.2s-1,2.2-2.2,2.2s-2.2-1-2.2-2.2l0,0
			C816.6,395.4,817.6,394.5,818.8,394.4L818.8,394.4z M818.8,397.7c0.6,0,1.1-0.5,1.1-1.1s-0.5-1.1-1.1-1.1s-1.1,0.5-1.1,1.1l0,0
			C817.7,397.2,818.2,397.7,818.8,397.7L818.8,397.7z"/>
	</g>
	<g>
		<path class="st2" d="M835.2,392.9V405l4-4h2.4l-4.6,4.6l5.5,6.2H840l-4.3-4.9l-0.5,0.5v4.5h-1.8v-19L835.2,392.9z"/>
	</g>
	<g>
		<path class="st2" d="M852.5,401h1.9v10.8h-1.9v-1.5c-0.9,1.2-2.2,1.8-3.7,1.8c-2.7,0-5.2-1.9-5.2-5.7s2.5-5.6,5.2-5.6
			c1.4,0,2.8,0.6,3.7,1.8V401z M845.5,406.4c0,2.3,1.3,4.1,3.5,4.1s3.6-1.9,3.6-4c0.2-2-1.3-3.8-3.3-4c-0.1,0-0.2,0-0.3,0
			C847.2,402.4,845.5,403.8,845.5,406.4L845.5,406.4z"/>
	</g>
	<g>
		<path class="st2" d="M857.9,401h1.9v1.2c0.7-1,1.9-1.5,3.1-1.5c1.2,0,2.4,0.5,3.1,1.5c0.5,0.9,0.7,1.9,0.6,2.9v6.7h-1.9v-6.6
			c0.1-0.7-0.1-1.4-0.5-2c-0.4-0.5-1.1-0.8-1.8-0.8s-1.4,0.3-1.9,0.8c-0.6,0.9-0.9,1.9-0.8,2.9v5.6h-1.9V401H857.9z"/>
	</g>
	<g>
		<path class="st2" d="M878.1,392.9v19h-1.9v-19H878.1z"/>
	</g>
	<g>
		<path class="st2" d="M898.8,409.1c-0.9,1.9-2.8,3-4.9,3c-1.7,0.1-3.3-0.7-4.2-2.2c-0.8,1.4-2.4,2.3-4,2.2c-2.5,0-4.7-1.1-4.7-3.5
			s2-3.6,4.5-3.6c1.1,0,2.2,0.3,3.1,0.9c0-0.8-0.1-1.6-0.5-2.3c-0.6-0.9-1.6-1.4-2.6-1.2c-1.1,0-2.3,0.3-3.3,0.7v-1.8
			c1.1-0.4,2.2-0.6,3.3-0.6c1.7-0.2,3.3,0.7,4.1,2.2c0.9-1.4,2.5-2.2,4.2-2.2c3.2,0,5.2,2.3,5.2,5.9v0.2h-8.4
			c-0.1,1.9,1.5,3.6,3.4,3.7c1.5-0.1,2.7-1,3.3-2.3L898.8,409.1z M882.8,408.6c0,0.8,0.6,1.9,2.7,1.9c2.2,0,2.9-1.1,2.9-1.9
			s-0.7-1.8-2.8-1.8C883.8,406.7,882.8,407.6,882.8,408.6L882.8,408.6z M897,405.2c-0.2-1.8-1.8-3-3.6-2.8c-1.5,0.2-2.6,1.3-2.8,2.8
			H897z"/>
	</g>
	<g>
		<path class="st2" d="M906.2,403.5c-0.2-0.6-0.8-1.1-1.5-1.1c-0.7-0.1-1.2,0.4-1.3,1.1v0.1c0,0.8,0.5,1,1.7,1.5
			c1,0.3,2,0.9,2.7,1.7c0.4,0.5,0.6,1.1,0.6,1.7c0.1,1.9-1.4,3.5-3.3,3.5c-0.1,0-0.3,0-0.4,0c-1.7,0-3.3-1.1-3.8-2.8l1.6-0.7
			c0.3,1,1.2,1.7,2.2,1.8c0.9,0,1.7-0.7,1.8-1.6v-0.1c0-1-0.7-1.4-1.7-1.8c-1-0.3-1.9-0.9-2.6-1.6c-0.4-0.5-0.5-1-0.5-1.6
			c-0.1-1.6,1.2-2.9,2.8-3c0.1,0,0.2,0,0.4,0c1.3-0.1,2.5,0.7,3,2L906.2,403.5z"/>
	</g>
	<g>
		<path class="st2" d="M920.5,409.1c-0.3,0.7-0.8,1.2-1.3,1.7c-1,0.9-2.3,1.4-3.6,1.3c-2.6,0-5.3-1.6-5.3-5.6c0-3.2,2-5.7,5.2-5.7
			c1.6-0.1,3.1,0.7,4.1,2c0.7,1.2,1.1,2.6,1,4.1h-8.4c-0.1,1.9,1.4,3.6,3.3,3.7c0.1,0,0.1,0,0.2,0c0.8,0,1.6-0.3,2.2-0.8
			c0.5-0.4,0.9-0.9,1.1-1.5L920.5,409.1z M918.6,405.2c-0.2-1.6-1.6-2.8-3.2-2.8c-1.6,0-2.9,1.2-3.2,2.8H918.6z"/>
	</g>
	<g>
		<path class="st2" d="M928.8,406.4c0-3.2,2.5-5.7,5.7-5.8c3.2,0,5.7,2.5,5.8,5.7c0,3.2-2.5,5.7-5.7,5.8l0,0
			c-3.1,0.1-5.6-2.3-5.7-5.4C928.8,406.6,928.8,406.5,928.8,406.4z M930.7,406.4c0.1,2.1,1.9,3.7,4,3.6s3.7-1.9,3.6-4
			c-0.1-2-1.8-3.6-3.8-3.6c-2.1,0-3.8,1.6-3.8,3.7C930.7,406.2,930.7,406.3,930.7,406.4L930.7,406.4z"/>
	</g>
	<g>
		<path class="st2" d="M943.1,401h1.9v1.1c0.6-0.9,1.6-1.4,2.7-1.4c1.2,0,2.4,0.6,2.9,1.7c0.7-1.1,1.9-1.8,3.2-1.7
			c3.2,0,3.5,2.7,3.5,4.2v6.8h-1.9v-6.6c0-1.2-0.2-2.8-1.9-2.8c-2.2,0-2.4,2.1-2.4,3.4v6h-1.9v-6.4c0-0.8,0-3-2-3
			c-2.1,0-2.4,2.2-2.4,3.5v5.9h-1.9V401H943.1z"/>
	</g>
	<g>
		<path class="st2" d="M968.8,411.8H967v-19h1.9v9.7c0.9-1.1,2.3-1.8,3.7-1.8c3.4,0,5.2,2.8,5.2,5.7c0,2.9-1.9,5.6-5.2,5.6
			c-1.5,0-2.9-0.6-3.8-1.8L968.8,411.8L968.8,411.8z M975.8,406.5c0-2.7-1.8-4.1-3.5-4.1c-2.1,0.1-3.7,1.8-3.6,3.9v0.1
			c-0.2,2,1.4,3.8,3.4,4c0.1,0,0.2,0,0.2,0C974.5,410.4,975.9,408.6,975.8,406.5L975.8,406.5z"/>
	</g>
	<g>
		<path class="st2" d="M982.5,392.9v19h-1.9v-19H982.5z"/>
	</g>
	<g>
		<path class="st2" d="M987.2,409.5c0.7,0,1.3,0.6,1.3,1.3c0,0.7-0.6,1.3-1.3,1.3s-1.3-0.6-1.3-1.3l0,0
			C986,410.1,986.5,409.5,987.2,409.5z"/>
	</g>
	<g>
		<path class="st2" d="M1000.2,401h1.9v10.8h-1.9v-1.5c-0.9,1.2-2.2,1.8-3.7,1.8c-2.7,0-5.3-1.9-5.3-5.7s2.5-5.6,5.3-5.6
			c1.4,0,2.8,0.6,3.7,1.8V401z M993.2,406.4c0,2.3,1.3,4.1,3.5,4.1s3.6-1.9,3.6-4c0.2-2-1.3-3.8-3.3-4c-0.1,0-0.2,0-0.3,0
			C994.9,402.4,993.2,403.8,993.2,406.4L993.2,406.4z"/>
	</g>
	<g>
		<path class="st2" d="M1006.8,409.5c0.7,0,1.3,0.6,1.3,1.3c0,0.7-0.6,1.3-1.3,1.3s-1.3-0.6-1.3-1.3l0,0
			C1005.6,410.1,1006.1,409.5,1006.8,409.5z"/>
	</g>
	<g>
		<path class="st2" d="M1019.5,392.9V405l4-4h2.5l-4.6,4.6l5.5,6.2h-2.4l-4.3-4.9l-0.5,0.5v4.5h-1.9v-19L1019.5,392.9z"/>
	</g>
	<g>
		<path class="st2" d="M1028.6,401h1.9v1.2c0.5-0.9,1.4-1.4,2.4-1.4c0.6,0,1.1,0.2,1.7,0.4l-0.9,1.7c-0.3-0.2-0.7-0.4-1.1-0.4
			c-0.6,0-1.1,0.2-1.5,0.7c-0.5,0.9-0.7,1.9-0.6,2.9v5.7h-1.9V401z"/>
	</g>
	<g>
		<path class="st2" d="M1035,406.4c0-3.2,2.5-5.7,5.7-5.8s5.7,2.5,5.8,5.7c0,3.2-2.5,5.7-5.7,5.8l0,0c-3.1,0.1-5.6-2.3-5.7-5.4
			C1035,406.6,1035,406.5,1035,406.4z M1036.9,406.4c0.1,2.1,1.9,3.7,4,3.6s3.7-1.9,3.6-4c-0.1-2-1.8-3.6-3.8-3.6
			c-2.1,0-3.8,1.6-3.8,3.7C1036.9,406.2,1036.9,406.3,1036.9,406.4L1036.9,406.4z"/>
	</g>
	<g>
		<path class="st2" d="M1051.2,417.8h-1.8V401h1.9v1.5c0.9-1.1,2.3-1.8,3.7-1.8c3.4,0,5.2,2.8,5.2,5.7c0,2.9-1.9,5.6-5.2,5.6
			c-1.5,0-2.9-0.6-3.8-1.8L1051.2,417.8z M1058.2,406.5c0-2.7-1.8-4.1-3.5-4.1c-2.1,0.1-3.7,1.8-3.6,3.9v0.1c-0.2,2,1.4,3.8,3.4,4
			c0.1,0,0.2,0,0.2,0C1056.9,410.4,1058.2,408.6,1058.2,406.5L1058.2,406.5z"/>
	</g>
	<g>
		<path class="st2" d="M1063.6,409.3l1.7,0.6l-2.6,5.9l-1.2-0.5L1063.6,409.3z"/>
	</g>
	<g>
		<path class="st2" d="M1079.4,403.5c-0.2-0.6-0.8-1.1-1.5-1.1c-0.7-0.1-1.2,0.4-1.3,1.1v0.1c0,0.8,0.5,1,1.7,1.5
			c1,0.3,2,0.9,2.7,1.7c0.4,0.5,0.6,1.1,0.6,1.7c0.1,1.9-1.4,3.5-3.3,3.5c-0.1,0-0.3,0-0.4,0c-1.7,0-3.3-1.1-3.8-2.8l1.6-0.7
			c0.3,1,1.2,1.7,2.2,1.8c0.9,0.1,1.7-0.7,1.8-1.6v-0.1c0-1-0.7-1.4-1.7-1.8c-1-0.3-1.9-0.9-2.6-1.6c-0.4-0.5-0.5-1-0.5-1.6
			c-0.1-1.6,1.2-2.9,2.8-3c0.1,0,0.2,0,0.4,0c1.3,0,2.5,0.7,3,2L1079.4,403.5z"/>
	</g>
	<g>
		<path class="st2" d="M1093.7,409.1c-0.3,0.7-0.8,1.2-1.3,1.7c-1,0.9-2.3,1.4-3.6,1.3c-2.6,0-5.3-1.6-5.3-5.6c0-3.2,2-5.7,5.2-5.7
			c1.6-0.1,3.1,0.7,4.1,2c0.7,1.2,1.1,2.6,1,4.1h-8.4c-0.1,1.9,1.3,3.5,3.2,3.7c0.1,0,0.1,0,0.2,0c0.8,0,1.6-0.3,2.2-0.8
			c0.5-0.4,0.9-0.9,1.1-1.5L1093.7,409.1z M1091.8,405.2c-0.2-1.6-1.6-2.8-3.2-2.8s-2.9,1.2-3.2,2.8H1091.8z"/>
	</g>
	<g>
		<path class="st2" d="M1099.7,406l-3.9-5h2.3l2.8,3.7l2.8-3.7h2.3l-4,5l4.5,5.8h-2.3l-3.4-4.4l-3.4,4.4h-2.3L1099.7,406z"/>
	</g>
	<g>
		<path class="st2" d="M1109,409.3l1.7,0.6l-2.6,5.9l-1.2-0.5L1109,409.3z"/>
	</g>
	<g>
		<path class="st2" d="M1189.9,410.4l1.7,0.6l-2.6,5.9l-1.2-0.5L1189.9,410.4z"/>
	</g>
	<g>
		<path class="st2" d="M1122.3,402.7v9.1h-1.9v-9.1h-1V401h1v-4.7c-0.1-1.1,0.2-2.2,1-3c0.6-0.5,1.4-0.7,2.2-0.7
			c0.5,0,0.9,0.1,1.3,0.2v1.8c-0.4-0.2-0.8-0.2-1.2-0.2c-0.5,0-0.9,0.2-1.2,0.6c-0.2,0.5-0.3,1-0.2,1.6v4.5h2.7v1.7L1122.3,402.7z"
			/>
	</g>
	<g>
		<path class="st2" d="M1136.3,402.9c0.8,1,1.2,2.2,1.2,3.5c0.1,3.1-2.3,5.6-5.4,5.7c-0.1,0-0.2,0-0.3,0c-1.3,0-2.5-0.3-3.5-1.1
			l-1.6,1.6l-1.2-1.2l1.6-1.6c-0.7-1-1-2.2-1-3.4c-0.1-3.1,2.3-5.6,5.4-5.7c0.1,0,0.2,0,0.3,0c1.2-0.1,2.4,0.3,3.4,1l1.6-1.6
			l1.2,1.2L1136.3,402.9z M1133.8,403c-1.8-1.1-4.2-0.6-5.3,1.2c-0.4,0.7-0.6,1.5-0.6,2.3c0,0.7,0.2,1.5,0.5,2.1L1133.8,403z
			 M1129.5,409.8c0.6,0.5,1.4,0.7,2.2,0.7c2.1,0,3.8-1.6,3.8-3.7c0-0.1,0-0.2,0-0.3c0-0.8-0.2-1.6-0.6-2.2L1129.5,409.8z"/>
	</g>
	<g>
		<path class="st2" d="M1142.1,392.9v19h-1.9v-19H1142.1z"/>
	</g>
	<g>
		<path class="st2" d="M1155.2,409.1c-0.3,0.7-0.8,1.2-1.3,1.7c-1,0.9-2.3,1.4-3.6,1.3c-2.6,0-5.3-1.6-5.3-5.6c0-3.2,2-5.7,5.2-5.7
			c1.6-0.1,3.1,0.7,4.1,2c0.7,1.2,1.1,2.6,1,4.1h-8.4c-0.1,1.9,1.4,3.5,3.3,3.6h0.1c0.8,0,1.6-0.3,2.2-0.8c0.5-0.4,0.9-0.9,1.1-1.5
			L1155.2,409.1z M1153.4,405.2c-0.2-1.6-1.6-2.8-3.2-2.8s-2.9,1.2-3.2,2.8H1153.4z"/>
	</g>
	<g>
		<path class="st2" d="M1160.1,392.9v19h-1.9v-19H1160.1z"/>
	</g>
	<g>
		<path class="st2" d="M1168,403.5c-0.2-0.6-0.8-1.1-1.5-1.1c-0.7-0.1-1.2,0.4-1.3,1.1v0.1c0,0.8,0.5,1,1.7,1.5c1,0.3,2,0.9,2.7,1.7
			c0.4,0.5,0.6,1.1,0.6,1.7c0.1,1.9-1.4,3.5-3.3,3.5c-0.1,0-0.3,0-0.4,0c-1.7,0-3.3-1.1-3.8-2.8l1.6-0.7c0.3,1,1.2,1.7,2.2,1.8
			c0.9,0.1,1.7-0.7,1.8-1.6v-0.1c0-1-0.7-1.4-1.7-1.8c-1-0.3-1.9-0.9-2.6-1.6c-0.4-0.5-0.5-1-0.5-1.6c-0.1-1.6,1.2-2.9,2.8-3
			c0.1,0,0.2,0,0.4,0c1.3-0.1,2.5,0.7,3,2L1168,403.5z"/>
	</g>
	<g>
		<path class="st2" d="M1182.3,409.1c-0.3,0.7-0.8,1.2-1.3,1.7c-1,0.9-2.3,1.4-3.6,1.3c-2.6,0-5.3-1.6-5.3-5.6c0-3.2,2-5.7,5.2-5.7
			c1.6-0.1,3.1,0.7,4.1,2c0.7,1.2,1.1,2.6,1,4.1h-8.4c-0.1,1.9,1.4,3.6,3.3,3.7c0.1,0,0.1,0,0.2,0c0.8,0,1.6-0.3,2.2-0.8
			c0.5-0.4,0.9-0.9,1.1-1.5L1182.3,409.1z M1180.5,405.2c-0.2-1.6-1.5-2.8-3.2-2.8c-1.6,0-2.9,1.2-3.2,2.8H1180.5z"/>
	</g>
	<g>
		<path class="st2" d="M1185.3,401h1.9v1.2c0.5-0.9,1.4-1.4,2.4-1.4c0.6,0,1.2,0.2,1.7,0.4l-0.9,1.7c-0.3-0.2-0.7-0.4-1.1-0.4
			c-0.6,0-1.1,0.2-1.5,0.7c-0.5,0.9-0.7,1.9-0.6,2.9v5.7h-1.9V401z"/>
	</g>
	<g>
		<path class="st2" d="M520.1,434.7c-0.2-0.6-0.8-1.1-1.5-1.1c-0.7-0.1-1.2,0.4-1.3,1.1v0.1c0,0.8,0.5,1,1.7,1.5
			c1,0.3,2,0.9,2.7,1.7c0.4,0.5,0.6,1.1,0.6,1.7c0.1,1.9-1.4,3.5-3.3,3.5c-0.1,0-0.3,0-0.4,0c-1.7,0-3.3-1.1-3.8-2.8l1.6-0.7
			c0.3,1,1.2,1.7,2.2,1.8c0.9,0.1,1.7-0.6,1.8-1.6v-0.1c0-1-0.7-1.4-1.7-1.8c-1-0.3-1.9-0.9-2.6-1.6c-0.4-0.5-0.5-1-0.5-1.6
			c-0.1-1.6,1.2-2.9,2.8-3c0.1,0,0.2,0,0.4,0c1.3,0,2.5,0.8,3,2L520.1,434.7z"/>
	</g>
	<g>
		<path class="st2" d="M534.3,440.3c-0.3,0.7-0.8,1.2-1.3,1.7c-1,0.9-2.3,1.4-3.6,1.3c-2.6,0-5.3-1.6-5.3-5.6c0-3.2,2-5.7,5.2-5.7
			c1.6-0.1,3.1,0.7,4.1,2c0.7,1.2,1.1,2.6,1,4.1H526c-0.1,1.9,1.3,3.5,3.2,3.7c0.1,0,0.1,0,0.2,0c0.8,0,1.6-0.3,2.2-0.8
			c0.5-0.4,0.9-0.9,1.1-1.5L534.3,440.3z M532.5,436.4c-0.2-1.6-1.5-2.8-3.1-2.8s-3,1.2-3.2,2.8H532.5z"/>
	</g>
	<g>
		<path class="st2" d="M539.1,424.1v12.2l4-4h2.4l-4.6,4.6l5.4,6.2h-2.4l-4.3-4.9l-0.5,0.5v4.4h-1.9v-19L539.1,424.1z"/>
	</g>
	<g>
		<path class="st2" d="M552.7,434.7c-0.2-0.6-0.8-1.1-1.5-1.1c-0.7-0.1-1.2,0.4-1.3,1.1v0.1c0,0.8,0.5,1,1.7,1.5
			c1,0.3,2,0.9,2.7,1.7c0.4,0.5,0.6,1.1,0.6,1.7c0.1,1.9-1.4,3.5-3.3,3.5c-0.1,0-0.3,0-0.4,0c-1.7,0-3.3-1.1-3.8-2.8l1.6-0.7
			c0.3,1,1.2,1.7,2.2,1.8c0.9,0.1,1.7-0.6,1.8-1.6v-0.1c0-1-0.7-1.4-1.7-1.8c-1-0.3-1.9-0.9-2.6-1.6c-0.4-0.5-0.5-1-0.5-1.6
			c-0.1-1.6,1.2-2.9,2.8-3c0.1,0,0.2,0,0.4,0c1.3,0,2.5,0.8,3,2L552.7,434.7z"/>
	</g>
	<g>
		<path class="st2" d="M559.3,438.5c-0.1,0.8,0.1,1.6,0.5,2.3c1,1,2.6,1.1,3.7,0.1l0.1-0.1c0.4-0.7,0.6-1.5,0.5-2.3v-6.3h1.9v6.5
			c0.1,1.2-0.2,2.4-1,3.2c-1.8,1.8-4.8,1.8-6.6,0c-0.8-0.9-1.1-2.1-1-3.2v-6.5h1.9L559.3,438.5z"/>
	</g>
	<g>
		<path class="st2" d="M577.8,432.2h1.9V443h-1.9v-1.5c-0.9,1.2-2.2,1.8-3.7,1.8c-2.7,0-5.2-1.9-5.2-5.7s2.5-5.6,5.2-5.6
			c1.4,0,2.8,0.6,3.7,1.8V432.2z M570.8,437.6c0,2.3,1.3,4,3.5,4s3.6-1.9,3.6-4c0.2-2-1.3-3.8-3.3-4c-0.1,0-0.2,0-0.3,0
			C572.4,433.6,570.8,435,570.8,437.6L570.8,437.6z"/>
	</g>
	<g>
		<path class="st2" d="M585.1,424.1v19h-1.9v-19H585.1z"/>
	</g>
	<g>
		<path class="st2" d="M589.5,426.8c0.7,0,1.3,0.6,1.3,1.3c0,0.7-0.6,1.3-1.3,1.3s-1.3-0.6-1.3-1.3l0,0
			C588.2,427.4,588.8,426.8,589.5,426.8z M590.5,432.2V443h-1.9v-10.8H590.5z"/>
	</g>
	<g>
		<path class="st2" d="M595.9,433.9v9.1H594v-9.1h-1.2v-1.7h1.2v-3.9h1.9v3.9h1.9v1.7H595.9z"/>
	</g>
	<g>
		<path class="st2" d="M609.1,440.3c-0.3,0.7-0.8,1.2-1.3,1.7c-1,0.9-2.3,1.4-3.6,1.3c-2.6,0-5.3-1.6-5.3-5.6c0-3.2,2-5.7,5.2-5.7
			c1.6-0.1,3.1,0.7,4.1,2c0.7,1.2,1.1,2.6,1,4.1h-8.4c-0.1,1.9,1.3,3.5,3.2,3.7c0.1,0,0.1,0,0.2,0c0.8,0,1.6-0.3,2.2-0.8
			c0.5-0.4,0.9-0.9,1.1-1.5L609.1,440.3z M607.3,436.4c-0.2-1.6-1.6-2.8-3.2-2.8c-1.6,0-2.9,1.2-3.2,2.8H607.3z"/>
	</g>
	<g>
		<path class="st2" d="M614,433.9v9.1h-1.9v-9.1H611v-1.7h1.1v-3.9h1.9v3.9h1.9v1.7H614z"/>
	</g>
	<g>
		<path class="st2" d="M633.3,440.3c-0.3,0.7-0.8,1.2-1.3,1.7c-1,0.9-2.3,1.4-3.6,1.3c-2.6,0-5.3-1.6-5.3-5.6c0-3.2,2-5.7,5.2-5.7
			c1.6-0.1,3.1,0.7,4.1,2c0.7,1.2,1.1,2.6,1,4.1H625c-0.1,1.9,1.3,3.5,3.2,3.7c0.1,0,0.1,0,0.2,0c0.8,0,1.6-0.3,2.2-0.8
			c0.5-0.4,0.9-0.9,1.1-1.5L633.3,440.3z M631.4,436.4c-0.2-1.6-1.6-2.8-3.2-2.8c-1.6,0-2.9,1.2-3.2,2.8H631.4z"/>
	</g>
	<g>
		<path class="st2" d="M638.1,424.1v19h-1.9v-19H638.1z"/>
	</g>
	<g>
		<path class="st2" d="M643.5,424.1v19h-1.9v-19H643.5z"/>
	</g>
	<g>
		<path class="st2" d="M656.6,440.3c-0.3,0.7-0.8,1.2-1.3,1.7c-1,0.9-2.3,1.4-3.6,1.3c-2.6,0-5.3-1.6-5.3-5.6c0-3.2,2-5.7,5.2-5.7
			c1.6-0.1,3.1,0.7,4.1,2c0.7,1.2,1.1,2.6,1,4.1h-8.4c-0.1,1.9,1.3,3.5,3.2,3.7c0.1,0,0.1,0,0.2,0c0.8,0,1.6-0.3,2.2-0.8
			c0.5-0.4,0.9-0.9,1.1-1.5L656.6,440.3z M654.7,436.4c-0.2-1.6-1.6-2.8-3.2-2.8c-1.6,0-2.9,1.2-3.2,2.8H654.7z"/>
	</g>
	<g>
		<path class="st2" d="M659.5,432.2h1.9v1.2c0.5-0.9,1.4-1.4,2.4-1.4c0.6,0,1.1,0.2,1.7,0.4l-0.9,1.7c-0.3-0.2-0.7-0.4-1.1-0.4
			c-0.6,0-1.1,0.2-1.5,0.7c-0.5,0.9-0.7,1.9-0.6,2.9v5.7h-1.9L659.5,432.2L659.5,432.2z"/>
	</g>
	<g>
		<path class="st2" d="M675.1,449h-1.9v-16.8h1.9v1.5c0.9-1.1,2.3-1.8,3.7-1.8c3.4,0,5.2,2.8,5.2,5.7c0,2.9-1.9,5.6-5.2,5.6
			c-1.5,0-2.9-0.6-3.8-1.8L675.1,449L675.1,449z M682.1,437.7c0-2.7-1.8-4.1-3.5-4.1c-2.1,0.1-3.7,1.8-3.6,3.9v0.1
			c0,2.2,1.4,4,3.6,4C680.8,441.6,682.2,439.8,682.1,437.7L682.1,437.7z"/>
	</g>
	<g>
		<path class="st2" d="M686.9,432.2h1.9v1.2c0.5-0.9,1.4-1.4,2.4-1.4c0.6,0,1.1,0.2,1.7,0.4l-0.9,1.7c-0.3-0.2-0.7-0.4-1.1-0.4
			c-0.6,0-1.1,0.2-1.5,0.7c-0.5,0.9-0.7,1.9-0.6,2.9v5.7h-1.9L686.9,432.2L686.9,432.2z"/>
	</g>
	<g>
		<path class="st2" d="M711.2,440.3c-0.9,1.9-2.8,3-4.9,3c-1.7,0.1-3.3-0.7-4.2-2.2c-0.8,1.4-2.4,2.3-4.1,2.2
			c-2.5,0-4.6-1.1-4.6-3.5s2-3.6,4.5-3.6c1.1,0,2.2,0.3,3.1,0.9c0-0.8-0.1-1.6-0.5-2.3c-0.6-0.9-1.6-1.4-2.6-1.2
			c-1.1,0-2.3,0.3-3.3,0.7v-1.8c1.1-0.4,2.2-0.6,3.4-0.6c1.7-0.2,3.3,0.7,4.1,2.2c0.9-1.4,2.5-2.2,4.2-2.2c3.1,0,5.1,2.3,5.1,5.9
			v0.2H703c-0.1,1.9,1.5,3.6,3.4,3.7c1.5-0.1,2.7-1,3.3-2.3L711.2,440.3z M695.3,439.8c0,0.8,0.6,1.8,2.7,1.8s2.9-1.1,2.9-1.9
			s-0.7-1.8-2.8-1.8C696.2,437.9,695.3,438.8,695.3,439.8z M709.4,436.4c-0.2-1.6-1.6-2.9-3.2-2.8c-1.6,0-3,1.2-3.2,2.8H709.4z"/>
	</g>
	<g>
		<path class="st2" d="M714.7,432.2l3.2,7.3l3.2-7.3h2.1l-5.3,11.5l-5.3-11.5H714.7z"/>
	</g>
	<g>
		<path class="st2" d="M734.8,440.3c-0.3,0.7-0.8,1.2-1.3,1.7c-1,0.9-2.3,1.4-3.6,1.3c-2.6,0-5.3-1.6-5.3-5.6c0-3.2,2-5.7,5.2-5.7
			c1.6-0.1,3.1,0.7,4.1,2c0.7,1.2,1.1,2.6,1,4.1h-8.4c-0.1,1.9,1.3,3.5,3.2,3.7c0.1,0,0.1,0,0.2,0c0.8,0,1.6-0.3,2.2-0.8
			c0.5-0.4,0.9-0.9,1.1-1.5L734.8,440.3z M733,436.4c-0.2-1.6-1.6-2.8-3.2-2.8c-1.6,0-2.9,1.2-3.2,2.8H733z"/>
	</g>
	<g>
		<path class="st2" d="M737.8,432.2h1.9v1.2c0.7-1,1.9-1.5,3.1-1.5c1.2-0.1,2.4,0.5,3.1,1.5c0.5,0.9,0.7,1.9,0.6,2.9v6.7h-1.9v-6.6
			c0.1-0.7-0.1-1.4-0.5-2c-0.4-0.5-1.1-0.8-1.8-0.8s-1.4,0.3-1.9,0.8c-0.6,0.9-0.9,1.9-0.8,2.9v5.6h-1.9v-10.7H737.8z"/>
	</g>
	<g>
		<path class="st2" d="M751.9,433.9v9.1H750v-9.1h-1.2v-1.7h1.2v-3.9h1.9v3.9h1.9v1.7H751.9z"/>
	</g>
	<g>
		<path class="st2" d="M756.5,426.8c0.7,0,1.3,0.6,1.3,1.3s-0.6,1.3-1.3,1.3s-1.3-0.6-1.3-1.3l0,0
			C755.2,427.4,755.7,426.8,756.5,426.8z M757.4,432.2V443h-1.9v-10.8H757.4z"/>
	</g>
	<g>
		<path class="st2" d="M760.3,437.7c0-3.2,2.5-5.7,5.7-5.8c3.2,0,5.7,2.5,5.8,5.7c0,3.2-2.5,5.7-5.7,5.8l0,0
			c-3.1,0.1-5.6-2.3-5.7-5.4C760.3,437.9,760.3,437.8,760.3,437.7z M762.2,437.7c0.1,2.1,1.9,3.7,4,3.6s3.7-1.9,3.6-4
			c-0.1-2-1.8-3.6-3.8-3.6c-2.1,0-3.8,1.6-3.8,3.7C762.2,437.4,762.2,437.5,762.2,437.7z"/>
	</g>
	<g>
		<path class="st2" d="M774.6,432.2h1.9v1.2c0.7-1,1.9-1.5,3.1-1.5c1.2,0,2.4,0.5,3.1,1.5c0.5,0.9,0.7,1.9,0.6,2.9v6.7h-1.9v-6.6
			c0.1-0.7-0.1-1.4-0.5-2c-0.4-0.5-1.1-0.8-1.8-0.8s-1.4,0.3-1.9,0.8c-0.6,0.9-0.9,1.9-0.8,2.9v5.6h-1.9L774.6,432.2z"/>
	</g>
	<g>
		<path class="st2" d="M788,440.7c0.7,0,1.3,0.6,1.3,1.3c0,0.7-0.6,1.3-1.3,1.3s-1.3-0.6-1.3-1.3l0,0
			C786.7,441.3,787.3,440.7,788,440.7z"/>
	</g>
	<g>
		<path class="st2" d="M837.3,301.8c3.9,0,7.3,0.4,10.4,2.7c3.5,2.7,5.5,6.9,5.4,11.3c0.1,4.5-2,8.7-5.6,11.3
			c-3.3,2.3-6.3,2.7-10.2,2.7H830v-28H837.3z M835.5,325.1h1.7c2.4,0.1,4.8-0.5,6.9-1.9c2.3-1.8,3.6-4.5,3.5-7.4
			c0.1-2.9-1.2-5.7-3.5-7.5c-2-1.3-4.5-2-6.9-1.8h-1.7V325.1z"/>
	</g>
	<g>
		<path class="st2" d="M863.6,301.8v17.6c-0.1,1.5,0.4,3,1.4,4.2c2.3,2.5,6.2,2.6,8.6,0.3c0.1-0.1,0.2-0.2,0.3-0.3
			c0.9-1.2,1.4-2.7,1.4-4.2v-17.6h5.5v17.1c0.2,2.7-0.6,5.3-2.1,7.5c-4.6,5.1-12.5,5.4-17.5,0.8c-0.3-0.3-0.5-0.5-0.8-0.8
			c-1.5-2.2-2.3-4.8-2.1-7.5v-17.1H863.6z"/>
	</g>
	<g>
		<path class="st2" d="M911.7,306.5h-9.4v6.3h8.8v4.7h-8.8v12.4h-5.5v-28h14.9V306.5z"/>
	</g>
	<g>
		<path class="st2" d="M921.9,301.8v28h-5.5v-28H921.9z"/>
	</g>
	<g>
		<path class="st2" d="M933.7,313.6l10.3-11.8h6.9L939,314.7l12.5,15.1h-7.2l-10-12.6l-0.6,0.6v11.9h-5.5v-28h5.5V313.6z"/>
	</g>
	<g>
		<path class="st2" d="M970.2,301.8v28h-5.5v-28H970.2z"/>
	</g>
	<g>
		<path class="st2" d="M976.6,329.8v-28h3.8l17,18.6v-18.6h5.5v28h-3.8L982,311.1v18.7H976.6z"/>
	</g>
	<g>
		<path class="st2" d="M1023.5,314.8h12.9v0.3c0,1.9-0.2,7.8-4.1,11.6c-2.9,2.9-6.5,3.7-10,3.7s-7.1-0.7-10.2-3.8
			c-2.8-2.9-4.3-6.8-4.2-10.8c-0.1-3.9,1.4-7.7,4.2-10.4c2.9-2.9,6.9-4.4,11-4.3c2.2-0.1,4.5,0.4,6.5,1.5c2.2,1.2,4,3,5.3,5.1
			l-4.8,2.6c-0.7-1.4-1.9-2.6-3.3-3.3c-1.2-0.6-2.6-0.9-4-0.9c-2.4,0-4.7,0.9-6.4,2.5c-1.9,2-2.9,4.7-2.8,7.4
			c-0.1,2.6,0.9,5.2,2.8,7.1c1.7,1.6,3.9,2.4,6.3,2.3c2,0,3.9-0.6,5.5-1.7c1.4-1.1,2.3-2.6,2.7-4.3h-7.2v-4.6H1023.5z"/>
	</g>
	<g>
		<path class="st2" d="M1056.9,306.5h-10.1v6.3h9.7v4.7h-9.7v7.6h10.1v4.7h-15.6v-28h15.5L1056.9,306.5z"/>
	</g>
	<g>
		<path class="st2" d="M1062.2,329.8v-28h3.8l17.1,18.6v-18.6h5.5v28h-3.8l-17.1-18.7v18.7H1062.2z"/>
	</g>
	<g>
		<path class="st2" d="M1118.4,308.2c-1-1.5-2.8-2.4-4.6-2.4c-2.9,0-3.9,1.8-3.9,3.3c0,0.7,0.3,1.4,0.9,1.9c1,0.7,2.1,1.3,3.4,1.6
			c2.1,0.6,4,1.5,5.7,2.8c1.6,1.5,2.5,3.7,2.4,5.9c0,5.5-4,9.2-9.8,9.2c-3.9,0-7.5-2-9.7-5.3l3.6-3.4c1.1,2.2,3.3,3.7,5.8,3.7
			s4.3-1.5,4.3-3.9c0-1-0.4-1.9-1.1-2.5c-1.3-1-2.8-1.7-4.3-2.1c-1.7-0.5-3.3-1.3-4.7-2.4c-1.5-1.3-2.3-3.2-2.2-5.1
			c0-4.1,2.8-8.2,9-8.2c3-0.1,5.9,1.1,8,3.2L1118.4,308.2z"/>
	</g>
	<g>
		<path class="st2" d="M1135.5,306.5v23.3h-5.5v-23.3h-6.3v-4.7h18.1v4.7H1135.5z"/>
	</g>
	<g>
		<path class="st2" d="M1153.3,301.8c3.9,0,5.8,1,7.1,2.1c1.8,1.6,2.9,3.9,2.8,6.3c0.2,3.8-2.6,7.2-6.3,7.8l8.7,11.8h-6.8l-7.5-11.3
			h-0.7v11.3h-5.4v-28L1153.3,301.8z M1150.7,314.7h1.5c1.1,0,5.4-0.1,5.4-4.2s-4.3-4.2-5.3-4.2h-1.6V314.7z"/>
	</g>
	<g>
		<path class="st2" d="M1185.9,323.9h-11.3l-2.5,5.9h-5.9l12.1-28h4.3l11.7,28h-5.9L1185.9,323.9z M1184.3,319.4l-4-10l-4,10H1184.3
			z"/>
	</g>
	<g>
		<path class="st2" d="M1212.4,306.5h-9.4v6.3h8.8v4.7h-8.8v12.4h-5.5v-28h14.9V306.5z"/>
	</g>
</g>
<g>
	<g>
		<ellipse class="st4" cx="262.1" cy="297.9" rx="71.6" ry="180.2"/>
		<path class="st5" d="M262.1,478.6c-39.7,0-72.1-81.1-72.1-180.7c0-99.7,32.3-180.7,72.1-180.7s72.1,81.1,72.1,180.7
			C334.2,397.6,301.9,478.6,262.1,478.6z M262.1,118.2c-39.2,0-71.1,80.6-71.1,179.7s31.9,179.7,71.1,179.7s71.1-80.6,71.1-179.7
			S301.3,118.2,262.1,118.2z"/>
	</g>
	<g>
		<ellipse class="st5" cx="260.4" cy="224.1" rx="53.9" ry="80.7"/>
		<path class="st5" d="M260.4,305.3c-30,0-54.4-36.4-54.4-81.2s24.4-81.2,54.4-81.2s54.4,36.4,54.4,81.2S290.4,305.3,260.4,305.3z
			 M260.4,143.9c-29.4,0-53.4,36-53.4,80.2s23.9,80.2,53.4,80.2s53.4-36,53.4-80.2S289.9,143.9,260.4,143.9z"/>
	</g>
	<g>

			<ellipse transform="matrix(4.013162e-02 -0.9992 0.9992 4.013162e-02 35.1936 427.4756)" cx="240.1" cy="195.4" rx="9.8" ry="6.8"/>
	</g>
	<g>

			<ellipse transform="matrix(3.996808e-02 -0.9992 0.9992 3.996808e-02 28.8062 433.4442)" class="st2" cx="240" cy="201.7" rx="3.3" ry="2.9"/>
	</g>
	<g>
		<path class="st2" d="M235.2,197.4c0-0.6,0.9-1.1,2-1c1.1,0,1.9,0.6,1.9,1.2"/>
	</g>
	<g>

			<ellipse transform="matrix(0.9992 -4.013157e-02 4.013157e-02 0.9992 -7.6928 11.3798)" cx="279.6" cy="197.3" rx="6.8" ry="9.8"/>
	</g>
	<g>

			<ellipse transform="matrix(0.9992 -4.013157e-02 4.013157e-02 0.9992 -7.9533 11.397)" class="st2" cx="279.9" cy="203.8" rx="2.9" ry="3.3"/>
	</g>
	<g>
		<path class="st2" d="M284.6,199.3c0-0.6-0.9-1.1-2-1s-1.9,0.6-1.9,1.2"/>
	</g>
	<g>
		<path class="st5" d="M257.3,289.9h10.1c2.5,0,4.5,2,4.5,4.5v54.8c0,2.5-2,4.5-4.5,4.5h-10.1c-2.5,0-4.5-2-4.5-4.5v-54.8
			C252.8,291.9,254.8,289.9,257.3,289.9z"/>
		<path class="st5" d="M267.3,354.1h-10.1c-2.7,0-5-2.2-5-5v-54.8c0-2.7,2.2-5,5-5h10.1c2.7,0,5,2.2,5,5v54.8
			C272.3,351.9,270.1,354.1,267.3,354.1z M257.3,290.4c-2.2,0-4,1.8-4,4v54.8c0,2.2,1.8,4,4,4h10.1c2.2,0,4-1.8,4-4v-54.8
			c0-2.2-1.8-4-4-4H257.3z"/>
	</g>
	<g>
		<ellipse class="st4" cx="260.6" cy="152" rx="36.2" ry="26.8"/>
		<path class="st5" d="M260.6,179.3c-20.2,0-36.7-12.3-36.7-27.3s16.4-27.3,36.7-27.3s36.7,12.3,36.7,27.3S280.8,179.3,260.6,179.3z
			 M260.6,125.7c-19.7,0-35.7,11.8-35.7,26.3s16,26.3,35.7,26.3s35.7-11.8,35.7-26.3S280.3,125.7,260.6,125.7z"/>
	</g>
	<g>
		<ellipse class="st0" cx="262.1" cy="475.5" rx="33.4" ry="123.6"/>
		<path class="st0" d="M262.1,599.6c-9.2,0-17.7-13-24.1-36.6c-6.3-23.4-9.8-54.5-9.8-87.5s3.5-64.1,9.8-87.5
			c6.4-23.6,14.9-36.6,24.1-36.6s17.7,13,24.1,36.6c6.3,23.4,9.8,54.5,9.8,87.5s-3.5,64.1-9.8,87.5
			C279.8,586.6,271.3,599.6,262.1,599.6z M262.1,352.5c-18.1,0-32.9,55.2-32.9,123.1s14.7,123.1,32.9,123.1S295,543.4,295,475.5
			S280.2,352.5,262.1,352.5z"/>
	</g>
	<g>

			<ellipse transform="matrix(0.401 -0.9161 0.9161 0.401 -414.5312 596.076)" class="st0" cx="248.5" cy="615" rx="51.8" ry="19.6"/>
		<path class="st0" d="M231,663.6c-1.2,0-2.4-0.2-3.4-0.7c-10.1-4.4-9-29.5,2.6-56l0,0c5.6-12.7,12.7-23.9,20-31.4
			c7.5-7.6,14.3-10.6,19.3-8.5c10.1,4.4,9,29.5-2.6,56c-5.6,12.7-12.7,23.9-20,31.4C241,660.5,235.5,663.6,231,663.6z M231.1,607.3
			c-11.3,25.9-12.7,50.4-3.1,54.7c4.6,2,11-0.9,18.2-8.2c7.3-7.4,14.3-18.5,19.8-31.1c11.3-25.9,12.7-50.4,3.1-54.7
			c-4.6-2-11,0.9-18.2,8.2C243.6,583.7,236.6,594.7,231.1,607.3L231.1,607.3z"/>
	</g>
	<g>
		<ellipse class="st0" cx="258.6" cy="614.9" rx="19.6" ry="51.8"/>
		<path class="st0" d="M258.6,667.3c-11.1,0-20.1-23.5-20.1-52.3s9-52.3,20.1-52.3s20.1,23.5,20.1,52.3S269.7,667.3,258.6,667.3z
			 M258.6,563.6c-10.5,0-19.1,23-19.1,51.3s8.6,51.3,19.1,51.3s19.1-23,19.1-51.3S269.1,563.6,258.6,563.6z"/>
	</g>
	<g>

			<ellipse transform="matrix(0.9069 -0.4214 0.4214 0.9069 -233.2496 174.5159)" class="st0" cx="278.2" cy="615" rx="19.6" ry="51.8"/>
		<path class="st0" d="M296.7,663.2c-4.5,0-10-3-15.9-8.8c-7.5-7.4-14.9-18.4-20.7-31c-12.2-26.2-13.9-51.2-3.8-55.9l0,0
			c10-4.7,28.1,12.8,40.2,39c5.9,12.6,9.5,25.3,10.3,35.8c0.8,10.7-1.5,17.8-6.4,20.1C299.2,663,298,663.2,296.7,663.2z
			 M256.6,568.5c-9.5,4.4-7.6,28.9,4.3,54.6c5.8,12.5,13.1,23.4,20.5,30.7c7.3,7.2,13.8,9.9,18.4,7.8c4.5-2.1,6.6-8.9,5.9-19.1
			c-0.8-10.4-4.4-23-10.2-35.5C283.6,581.3,266.2,564,256.6,568.5L256.6,568.5z"/>
	</g>
	<g>

			<ellipse transform="matrix(0.9069 -0.4214 0.4214 0.9069 -228.903 185.9283)" class="st0" cx="306.2" cy="610.9" rx="19.6" ry="51.8"/>
		<path class="st0" d="M324.6,659.1c-4.5,0-10-3-15.9-8.8c-7.5-7.4-14.9-18.4-20.7-31c-12.2-26.2-13.9-51.2-3.8-55.9l0,0
			c10-4.7,28.1,12.8,40.2,39c5.9,12.6,9.5,25.3,10.3,35.8c0.8,10.7-1.5,17.8-6.4,20.1C327.1,658.9,325.9,659.1,324.6,659.1z
			 M284.6,564.4c-9.5,4.4-7.6,28.9,4.3,54.6c5.8,12.5,13.1,23.4,20.5,30.7c7.3,7.2,13.8,9.9,18.4,7.8c4.5-2.1,6.6-8.9,5.9-19.1
			c-0.8-10.4-4.4-23-10.2-35.5C311.6,577.2,294.1,559.9,284.6,564.4L284.6,564.4z"/>
	</g>
	<g>

			<ellipse transform="matrix(0.401 -0.9161 0.9161 0.401 -426.3471 566.7581)" class="st0" cx="220.2" cy="609.4" rx="51.8" ry="19.6"/>
		<path class="st0" d="M202.6,658c-1.2,0-2.3-0.2-3.3-0.7c-10.1-4.4-9-29.5,2.6-56l0.5,0.2l-0.5-0.2c5.6-12.7,12.7-23.9,20-31.4
			c7.5-7.6,14.3-10.6,19.3-8.5c10.1,4.4,9,29.5-2.6,56C228.2,641.2,212.9,658,202.6,658z M237.7,561.8c-4.2,0-9.5,3-15.1,8.9
			c-7.3,7.4-14.3,18.5-19.8,31.1c-11.3,25.9-12.7,50.4-3.1,54.7c9.6,4.2,26.7-13.4,38-39.4c11.3-25.9,12.7-50.4,3.1-54.7
			C239.8,562,238.8,561.8,237.7,561.8z"/>
	</g>
	<g>
		<path class="st5" d="M259,365.4l-6.3-15.3c-0.7-1.8,0.1-3.9,1.9-4.6c0.4-0.2,0.9-0.3,1.3-0.3h12.5c2,0,3.5,1.6,3.5,3.5
			c0,0.5-0.1,0.9-0.3,1.3l-6.3,15.3c-0.7,1.8-2.8,2.7-4.6,1.9C260.1,367,259.4,366.3,259,365.4z"/>
	</g>
	<g>
		<ellipse class="st0" cx="246.3" cy="370.6" rx="13.2" ry="20.7"/>
		<path class="st0" d="M246.3,391.8c-7.6,0-13.7-9.5-13.7-21.2s6.2-21.2,13.7-21.2s13.7,9.5,13.7,21.2S253.9,391.8,246.3,391.8z
			 M246.3,350.4c-7,0-12.7,9.1-12.7,20.2s5.7,20.2,12.7,20.2s12.7-9.1,12.7-20.2S253.3,350.4,246.3,350.4z"/>
	</g>
	<g>
		<ellipse class="st0" cx="278" cy="370.6" rx="13.2" ry="20.7"/>
		<path class="st0" d="M278,391.8c-7.6,0-13.7-9.5-13.7-21.2s6.2-21.2,13.7-21.2s13.7,9.5,13.7,21.2S285.5,391.8,278,391.8z
			 M278,350.4c-7,0-12.7,9.1-12.7,20.2s5.7,20.2,12.7,20.2s12.7-9.1,12.7-20.2S285,350.4,278,350.4z"/>
	</g>
	<g>
		<ellipse class="st0" cx="228.8" cy="374.3" rx="13.2" ry="20.7"/>
		<path class="st0" d="M228.8,395.5c-7.6,0-13.7-9.5-13.7-21.2s6.2-21.2,13.7-21.2s13.7,9.5,13.7,21.2S236.3,395.5,228.8,395.5z
			 M228.8,354.1c-7,0-12.7,9.1-12.7,20.2s5.7,20.2,12.7,20.2s12.7-9.1,12.7-20.2S235.8,354.1,228.8,354.1z"/>
	</g>
	<g>
		<ellipse class="st0" cx="295.5" cy="374.3" rx="13.2" ry="20.7"/>
		<path class="st0" d="M295.5,395.5c-7.6,0-13.7-9.5-13.7-21.2s6.2-21.2,13.7-21.2s13.7,9.5,13.7,21.2S303.1,395.5,295.5,395.5z
			 M295.5,354.1c-7,0-12.7,9.1-12.7,20.2s5.7,20.2,12.7,20.2s12.7-9.1,12.7-20.2S302.5,354.1,295.5,354.1z"/>
	</g>
	<g>
		<ellipse class="st0" cx="215.3" cy="385.5" rx="13.2" ry="20.7"/>
		<path class="st0" d="M215.3,406.7c-7.6,0-13.7-9.5-13.7-21.2s6.2-21.2,13.7-21.2s13.7,9.5,13.7,21.2S222.9,406.7,215.3,406.7z
			 M215.3,365.3c-7,0-12.7,9.1-12.7,20.2s5.7,20.2,12.7,20.2s12.7-9.1,12.7-20.2S222.4,365.3,215.3,365.3z"/>
	</g>
	<g>
		<ellipse class="st0" cx="312.6" cy="385.5" rx="13.2" ry="20.7"/>
		<path class="st0" d="M312.6,406.7c-7.6,0-13.7-9.5-13.7-21.2s6.2-21.2,13.7-21.2s13.7,9.5,13.7,21.2S320.2,406.7,312.6,406.7z
			 M312.6,365.3c-7,0-12.7,9.1-12.7,20.2s5.7,20.2,12.7,20.2s12.7-9.1,12.7-20.2S319.7,365.3,312.6,365.3z"/>
	</g>
	<g>
		<path class="st6" d="M288.4,253.6c0,11.9-11.8,21.6-26.3,21.6s-26.3-9.7-26.3-21.6"/>
	</g>
</g>
<g>
	<ellipse class="st1" cx="131.3" cy="560.3" rx="33.4" ry="63.6"/>
</g>
<g>

		<ellipse transform="matrix(0.3356 -0.942 0.942 0.3356 -457.5487 471.1084)" class="st1" cx="105.2" cy="559.9" rx="63.6" ry="33.4"/>
</g>
<g>

		<ellipse transform="matrix(0.9599 -0.2805 0.2805 0.9599 -150.8901 65.4729)" class="st1" cx="153.3" cy="559.9" rx="33.4" ry="63.6"/>
</g>
<g>
	<path class="st7" d="M70.5,220h121.9c2.5,0,4.5,2,4.5,4.5v129.3c0,2.5-2,4.5-4.5,4.5H70.5c-2.5,0-4.5-2-4.5-4.5V224.5
		C66,222,68,220,70.5,220z"/>
</g>
<g>
	<ellipse class="st5" cx="131.5" cy="265.7" rx="61.3" ry="80.7"/>
	<path class="st5" d="M131.5,346.9c-34.1,0-61.8-36.4-61.8-81.2s27.7-81.2,61.8-81.2s61.8,36.4,61.8,81.2
		C193.3,310.4,165.5,346.9,131.5,346.9z M131.5,185.5c-33.5,0-60.8,36-60.8,80.2s27.3,80.2,60.8,80.2s60.8-36,60.8-80.2
		S165,185.5,131.5,185.5z"/>
</g>
<g>
	<ellipse transform="matrix(0.9992 -4.013157e-02 4.013157e-02 0.9992 -9.9285 6.1573)" cx="148.4" cy="250.4" rx="6.8" ry="9.8"/>
</g>
<g>

		<ellipse transform="matrix(0.9992 -4.013157e-02 4.013157e-02 0.9992 -10.1892 6.1705)" class="st2" cx="148.6" cy="256.9" rx="2.9" ry="3.3"/>
</g>
<g>
	<path class="st2" d="M153.3,252.4c0-0.6-0.9-1.1-2-1c-1.1,0-1.9,0.6-1.9,1.2"/>
</g>
<g>

		<ellipse transform="matrix(4.013181e-02 -0.9992 0.9992 4.013181e-02 -143.1436 350.9826)" cx="111.1" cy="250" rx="9.8" ry="6.8"/>
</g>
<g>

		<ellipse transform="matrix(3.996808e-02 -0.9992 0.9992 3.996808e-02 -149.5902 357.145)" class="st2" cx="111.1" cy="256.4" rx="3.3" ry="2.9"/>
</g>
<g>
	<path class="st2" d="M106.2,252c0-0.6,0.9-1.1,2-1c1.1,0,1.9,0.6,1.9,1.2"/>
</g>
<g>
	<path class="st5" d="M119.7,337h16.8c2.5,0,4.5,2,4.5,4.5v53.7c0,2.5-2,4.5-4.5,4.5h-16.8c-2.5,0-4.5-2-4.5-4.5v-53.7
		C115.2,339,117.2,337,119.7,337z"/>
</g>
<g>

		<ellipse transform="matrix(0.7071 -0.7071 0.7071 0.7071 -121.0371 133.0625)" class="st7" cx="100.1" cy="212.6" rx="43.1" ry="23.6"/>
</g>
<g>

		<ellipse transform="matrix(0.7071 -0.7071 0.7071 0.7071 -102.3002 178.0857)" class="st7" cx="163.8" cy="212.5" rx="23.7" ry="43.1"/>
</g>
<g>
	<path class="st6" d="M157.5,296.2c0,11.9-11.8,21.6-26.3,21.6s-26.3-9.7-26.3-21.6"/>
</g>
<g>
	<path class="st8" d="M181.8,440.1c-28.3,25.8-17.9,69.3-53.7,69.3c-36.4,0-19.8-48.5-50.7-69.3c-45.1-30.4,14.1-69.5,50.5-69.5
		S218.7,406.6,181.8,440.1z"/>
	<path class="st1" d="M128.1,509.9c-20.3,0-24.4-14.5-29.1-31.4c-3.8-13.4-8-28.7-21.9-38C59.9,428.9,59.2,417,61.7,409
		c6.4-21,41.8-38.9,66.2-38.9c23.9,0,56.7,15.7,64.8,36.8c4.5,11.6,0.8,23.2-10.6,33.6c-11.9,10.8-16.9,24.9-21.4,37.3
		C154.5,495,149.1,509.9,128.1,509.9z M127.9,371.1c-24.1,0-59,17.6-65.3,38.2c-3.4,11,1.8,21.5,15,30.4c14.2,9.6,18.5,25,22.3,38.6
		c4.6,16.4,8.6,30.6,28.1,30.6c20.3,0,25.6-14.6,31.7-31.5c4.5-12.5,9.6-26.8,21.7-37.7l0,0c11.1-10.1,14.7-21.3,10.4-32.5
		C183.8,386.6,151.5,371.1,127.9,371.1z"/>
</g>
<g>
	<circle class="st8" cx="186.2" cy="407.3" r="32.8"/>
</g>
<g>

		<ellipse transform="matrix(0.9985 -5.530038e-02 5.530038e-02 0.9985 -22.57 4.9081)" class="st8" cx="77.4" cy="410.3" rx="32.8" ry="32.8"/>
</g>
<g>
	<path class="st5" d="M125,390.6l-9.8-17c-1-1.7-0.4-3.9,1.3-4.8c0.5-0.3,1.2-0.5,1.8-0.5H138c2,0,3.5,1.6,3.5,3.5
		c0,0.6-0.2,1.2-0.5,1.8l-9.8,17c-1,1.7-3.2,2.3-4.8,1.3C125.8,391.6,125.3,391.2,125,390.6z"/>
</g>
<g>
	<path class="st9" d="M156.8,570.5c3.5,5.3,7,10.8,8.2,17c0.6,3.1,0.6,6.3,0.6,9.4v14.9c2.3-4.6,2.8-9.9,2.7-15
		c-0.3-10-3.7-20.5-11.6-26.7"/>
</g>
<g>
	<path class="st9" d="M102,568.2c-3.5,5.3-7,10.8-8.2,17c-0.6,3.1-0.6,6.3-0.6,9.4v14.9c-2.3-4.6-2.8-9.9-2.7-15
		c0.3-10,3.7-20.5,11.6-26.7"/>
</g>
<g>
	<path class="st9" d="M127.1,614.9c0-4.4,0.6-35.1,0.6-39.5c2.1,1.6,2.8,30.4,2.7,33s-1.4,5.1-3.6,6.5"/>
</g>
<g>
	<g>
		<path class="st3" d="M477.6,548H321.8c-4.4,0-8.2-4.2-8.8-9.8L293,359c-0.8-6.9,3.4-13,8.8-13h196.1c5.4,0,9.6,6.2,8.8,13
			l-20.3,179.2C485.7,543.8,482,548,477.6,548z"/>
	</g>
	<g>
		<ellipse cx="400.3" cy="454.6" rx="11" ry="53.1"/>
	</g>
	<g>
		<path class="st5" d="M438.5,320.6h-76.3c-21.6,0-23.4-11.2-21.7-23.9l13.9-105.4c2.4-18.5,18.7-32.3,37.9-32.3h14.2
			c19.3,0,35.7,13.8,38.4,32.3l15.3,105.1C462.1,309.2,461.4,320.6,438.5,320.6z"/>
		<path class="st5" d="M438.5,321.1h-76.3c-9.2,0-15.4-2-19-6.1c-4.4-5-4-12.4-3.2-18.4l13.9-105.4c2.5-18.7,19-32.7,38.4-32.7h14.2
			c19.5,0,36.2,14.1,38.9,32.7l15.3,105.1c1,6.9,1.4,13.9-2.8,18.7C454.5,319.1,448.1,321.1,438.5,321.1z M392.3,159.5
			c-18.9,0-35,13.7-37.4,31.9L341,296.8c-0.8,5.7-1.1,12.9,3,17.6c3.4,3.9,9.3,5.7,18.2,5.7h76.3c9.3,0,15.4-1.9,18.7-5.7
			c3.9-4.5,3.5-11.2,2.5-17.9l-15.3-105.1c-2.7-18.2-19-31.9-37.9-31.9H392.3z"/>
	</g>
	<g>

			<ellipse transform="matrix(0.9992 -4.013157e-02 4.013157e-02 0.9992 -8.4626 16.8353)" cx="415.1" cy="219.2" rx="6.8" ry="9.8"/>
	</g>
	<g>

			<ellipse transform="matrix(0.9992 -4.013157e-02 4.013157e-02 0.9992 -8.7271 16.8527)" class="st2" cx="415.4" cy="225.8" rx="2.9" ry="3.3"/>
	</g>
	<g>
		<path class="st2" d="M420.1,221.2c0-0.6-0.9-1.1-2-1s-1.9,0.6-1.9,1.2"/>
	</g>
	<g>

			<ellipse transform="matrix(4.013162e-02 -0.9992 0.9992 4.013162e-02 151.2283 595.7702)" cx="385.7" cy="219.2" rx="9.8" ry="6.8"/>
	</g>
	<g>

			<ellipse transform="matrix(3.996808e-02 -0.9992 0.9992 3.996808e-02 144.991 601.558)" class="st2" cx="385.5" cy="225.3" rx="3.3" ry="2.9"/>
	</g>
	<g>
		<path class="st2" d="M380.8,221.2c0-0.6,0.9-1.1,2-1s1.9,0.6,1.9,1.2"/>
	</g>
	<g>
		<path class="st5" d="M376.4,315.5h48.5c2.5,0,4.5,2,4.5,4.5v22.7c0,2.5-2,4.5-4.5,4.5h-48.5c-2.5,0-4.5-2-4.5-4.5V320
			C371.9,317.5,373.9,315.5,376.4,315.5z"/>
		<path class="st5" d="M424.9,347.7h-48.5c-2.7,0-5-2.2-5-5V320c0-2.7,2.2-5,5-5h48.5c2.7,0,5,2.2,5,5v22.7
			C429.8,345.5,427.6,347.7,424.9,347.7z M376.4,316c-2.2,0-4,1.8-4,4v22.7c0,2.2,1.8,4,4,4h48.5c2.2,0,4-1.8,4-4V320
			c0-2.2-1.8-4-4-4H376.4z"/>
	</g>
	<g>
		<path class="st10" d="M349.4,216c1.1-16.1,4.2-32.4,12.4-46.2c7.7-13,20.7-23.6,35.5-26c0.5-0.1,1,0.3,1.1,0.8
			c0,0.3-0.1,0.6-0.3,0.8l-13.4,14c8.5-13.8,27.4-16.3,43.6-15.5c-7.5-1.1-15.3,3.5-18.3,10.4c-0.2,0.5,0,1.1,0.5,1.3
			c0.2,0.1,0.4,0.1,0.6,0.1c9.8-2,19.8-2.6,29.7-1.7c0.5,0,0.9,0.5,0.9,1.1c0,0.5-0.4,0.8-0.8,0.9c-4.3,0.7-8.2,2.1-10.9,5.1
			c-0.4,0.4-0.3,1,0.1,1.4c0.2,0.2,0.5,0.3,0.9,0.2c10.8-1.9,22,1,30.5,8c0.4,0.3,0.5,1,0.1,1.4c-0.2,0.3-0.6,0.4-1,0.3
			c-7.5-1.9-15.2-2.9-23-3c-0.5,0-1,0.4-1,1c0,0.4,0.2,0.7,0.5,0.9c11.8,6.9,28.1,18.6,31.2,30.8c0.1,0.5-0.2,1.1-0.7,1.2
			c-0.2,0.1-0.4,0-0.6-0.1c-4.7-2.1-11.1-5.5-17.1-8.6c-0.5-0.3-1.1-0.1-1.3,0.4c-0.2,0.4-0.1,0.9,0.2,1.2c5,4.7,8.8,10.5,11,17
			c0.2,0.5-0.1,1.1-0.6,1.3c-0.3,0.1-0.5,0.1-0.8-0.1c-10-5.4-17-15.2-24.8-23.7c-8.3-9.1-19.6-17.4-31.7-15.6
			c-8.5,1.3-15.4,7.2-21.7,13l-31,27.8"/>
	</g>
	<g>
		<path class="st11" d="M362.3,192.9c-0.3-4.6,1.6-9.2,4.3-12.9c2.7-3.8,6.3-6.8,9.8-9.8c4.6-3.8,9.6-7.7,15.2-9.3
			c0.7-0.2,1.4,0.2,1.6,0.9c0.1,0.5,0,1-0.4,1.3c-0.7,0.7-1.4,1.3-2.1,2c-0.5,0.5-0.5,1.3,0,1.8c0.4,0.4,1,0.5,1.5,0.2
			c0.9-0.6,1.8-1.1,2.8-1.5c3.1-1.5,6.4-2.3,9.8-2.3c0.7,0,1.2,0.6,1.2,1.3c0,0.5-0.3,0.9-0.7,1.1c-8.3,3.6-15.7,9.3-22.4,15.5
			c-6.1,5.6-11.8,11.6-17,18"/>
	</g>
	<g>
		<path class="st10" d="M362.8,192.1c-0.3-8.9,6.1-15.7,12.4-21c3.2-2.7,6.4-5.4,10-7.5c1.7-1,3.5-1.9,5.3-2.6
			c0.8-0.3,1-0.7,1.5,0.2c0.4,0.8,0.3,0.7-0.3,1.2s-1.5,1.2-1.9,1.9c-0.8,1.7,1,3,2.6,2.4c2-0.9,3.7-2.1,5.8-2.7c1-0.3,2-0.6,3-0.7
			c0.4-0.1,5.4-0.7,3.5,1.2c-0.6,0.5-1.9,0.9-2.6,1.2c-0.9,0.4-1.7,0.9-2.6,1.4c-1.8,1-3.5,2.1-5.2,3.3c-3.1,2.1-6,4.4-8.8,6.9
			c-7.2,6.3-13.9,13.2-19.9,20.6c-0.5,0.6,0.3,1.3,0.8,0.8c6.2-7.6,13-14.6,20.4-21c3.6-3.1,7.4-5.9,11.4-8.4
			c1.8-1.1,3.7-2.2,5.7-3.1c1.1-0.5,2.7-0.9,2.8-2.4c0.1-3.3-5.7-1.6-7.3-1.2c-2.1,0.6-4.1,1.4-6,2.4c-0.4,0.2-2.2,1.5-1.8-0.7
			c0-0.3,1.1-1,1.3-1.2c0.5-0.5,0.9-0.8,1-1.5c0.5-3.6-4.7-1.2-6-0.6c-4,1.9-7.5,4.5-10.8,7.3c-7.4,6.1-15.7,13.5-15.3,23.9
			C361.8,192.8,362.9,192.8,362.8,192.1L362.8,192.1z"/>
	</g>
	<g>
		<path class="st12" d="M359.1,340.9l8.2-5.2c2.1-1.3,4.8-0.7,6.2,1.4l31.3,49.3c1.3,2.1,0.7,4.8-1.4,6.2l-8.2,5.2
			c-2.1,1.3-4.8,0.7-6.2-1.4L357.7,347C356.4,345,357,342.2,359.1,340.9z"/>
	</g>
	<g>
		<path class="st12" d="M402.6,399.1l-8.1-5.3c-2.1-1.3-2.2-4.8-0.4-7.6l31.1-47.6c1.9-2.9,5.1-4.1,7.1-2.8l8.1,5.3
			c2.1,1.3,2.2,4.8,1.9,5.4l-31.1,47.6C407.9,399.2,404.7,400.5,402.6,399.1z"/>
	</g>
	<g>
		<path d="M392.3,380.3h15.9c3.9,0,7,3.2,7,7c0,1.2-0.3,2.5-0.9,3.5l-8,13.8c-1.9,3.4-6.3,4.5-9.6,2.6c-1.1-0.6-2-1.5-2.6-2.6
			l-8-13.8c-1.9-3.4-0.8-7.7,2.6-9.6C389.8,380.6,391.1,380.3,392.3,380.3z"/>
	</g>
	<g>
		<polygon class="st5" points="372.4,335.3 426,335.5 401.1,380.5 		"/>
		<path class="st5" d="M401.1,381.5l-29.7-46.7l55.3,0.2L401.1,381.5z M373.3,335.8l27.8,43.8l24-43.6L373.3,335.8z"/>
	</g>
	<g>
		<path class="st6" d="M426.2,278.8c0,11.9-11.8,21.6-26.3,21.6s-26.3-9.7-26.3-21.6"/>
	</g>
	<g>
		<path d="M320.7,545.3h157.7c2.5,0,4.5,2,4.5,4.5v2.6c0,2.5-2,4.5-4.5,4.5H320.7c-2.5,0-4.5-2-4.5-4.5v-2.6
			C316.2,547.3,318.2,545.3,320.7,545.3z"/>
	</g>
	<g>
		<path class="st13" d="M414.2,562.9h-27.6c-5.8,0-10.5-4.7-10.5-10.5v-2.6c0-5.8,4.7-10.5,10.5-10.5h27.6c5.8,0,10.5,4.7,10.5,10.5
			v2.6C424.7,558.2,420,562.9,414.2,562.9z"/>
	</g>
	<g>
		<path class="st14" d="M404.4,549.1h8.2c1.1,0,2.1,0.9,2.1,2.1l0,0c0,1.1-0.9,2.1-2.1,2.1h-8.2c-1.1,0-2.1-0.9-2.1-2.1l0,0
			C402.3,550,403.2,549.1,404.4,549.1z"/>
	</g>
</g>
</svg>
