<?xml version="1.0" encoding="utf-8"?>
<!-- Generator: Adobe Illustrator 23.0.1, SVG Export Plug-In . SVG Version: 6.00 Build 0)  -->
<svg version="1.1" id="Layer_1" xmlns="http://www.w3.org/2000/svg" xmlns:xlink="http://www.w3.org/1999/xlink" x="0px" y="0px"
	 viewBox="0 0 1100 450" style="enable-background:new 0 0 1100 450;" xml:space="preserve">
<style type="text/css">
	.st0{fill:#F4912D;}
	.st1{fill:#FFFFFF;}
	.st2{fill:#E9ECED;}
	.st3{fill:#FFD48D;}
	.st4{fill:#152230;}
	.st5{fill:#89CCE5;}
	.st6{fill:#FFA85A;}
</style>
<title>slutskaerm_faengsel_01</title>
<g>
	<g>
		<path class="st0" d="M340,0h721.3c20.4,0,36.9,16.5,36.9,36.9v376.3c0,20.4-16.5,36.9-36.9,36.9H340c-20.4,0-36.9-16.5-36.9-36.9
			V36.9C303.2,16.5,319.7,0,340,0z"/>
		<path class="st1" d="M442.6,79.9c-3.6-5-5.5-11-5.4-17.1c-0.2-7.5,2.7-14.8,8-20.1c5.4-5.4,12.1-7.8,20.5-7.8
			c6.1-0.2,12.1,1.6,17.1,5l7.1-7l5.8,5.8l-7,7c3.6,4.9,5.5,10.9,5.4,17c0.1,7.4-2.7,14.6-7.8,20c-6.6,6.7-14.5,7.9-20.7,7.9
			c-6.7,0-11.8-1.2-17.1-5l-7.1,7.1l-5.9-5.8L442.6,79.9z M475.6,47.1c-3-1.9-6.4-2.8-9.9-2.8c-4.6-0.1-9,1.6-12.4,4.7
			c-3.6,3.4-5.4,8.1-5.4,14c-0.1,3.3,0.7,6.5,2.3,9.4L475.6,47.1z M455.8,78.4c3,1.8,6.4,2.7,9.9,2.7c4.7,0.2,9.3-1.6,12.6-5
			c3.4-3.6,5.3-8.4,5.1-13.4c0-3.3-0.8-6.6-2.3-9.6L455.8,78.4z"/>
		<path class="st1" d="M508,36l14.2,35.8L536.4,36h11.4l-22.6,53.4H519L496.6,36H508z"/>
		<path class="st1" d="M558,77.9c3.4,0,6.2,2.8,6.2,6.2s-2.8,6.2-6.2,6.2c-3.4,0-6.2-2.8-6.2-6.2c-0.1-3.4,2.7-6.2,6.1-6.2
			C557.9,77.9,558,77.9,558,77.9z M553,73.1V36h9.9v37.1H553z"/>
		<path class="st1" d="M366.4,120.8h3.5c2.3-0.1,4.6,0.6,6.4,2c2,1.7,3.1,4.1,3,6.7c0.1,2.6-1,5-3,6.7c-1.6,1.4-3.2,2-6.3,2h-3.6
			V120.8z M368.3,136.4h1.7c1.8,0.1,3.6-0.5,5-1.6c1.5-1.3,2.4-3.3,2.3-5.3c0-4.2-2.9-6.9-7.3-6.9h-1.7V136.4z"/>
		<path class="st1" d="M384.2,133.7c-0.1,0.8,0.1,1.6,0.5,2.3c1,1,2.6,1.1,3.6,0.2c0.1-0.1,0.1-0.1,0.2-0.2c0.4-0.7,0.6-1.5,0.5-2.3
			v-6.3h1.9v6.5c0.1,1.2-0.2,2.4-1,3.2c-1.8,1.8-4.8,1.8-6.6,0c-0.8-0.9-1.1-2.1-1-3.2v-6.5h1.9L384.2,133.7z"/>
		<path class="st1" d="M402.4,138.2h-1.9v-19h1.9v9.7c0.9-1.1,2.3-1.8,3.7-1.8c3.4,0,5.2,2.8,5.2,5.7s-1.9,5.6-5.2,5.6
			c-1.5,0-2.9-0.6-3.8-1.8L402.4,138.2z M409.4,132.9c0-2.6-1.8-4.1-3.5-4.1c-2.1,0.1-3.7,1.8-3.6,3.9c0,0,0,0.1,0,0.1
			c0,2.2,1.4,4,3.6,4S409.4,135,409.4,132.9L409.4,132.9z"/>
		<path class="st1" d="M423.8,129.3c0.8,1,1.2,2.2,1.1,3.5c-0.1,3.2-2.7,5.7-5.9,5.7c-1.2,0-2.3-0.4-3.3-1.1l-1.6,1.6l-1.2-1.2
			l1.6-1.6c-0.7-1-1-2.2-1-3.4c-0.1-3.1,2.3-5.6,5.4-5.7c0.1,0,0.2,0,0.3,0c1.2-0.1,2.4,0.3,3.4,1l1.6-1.6l1.1,1.2L423.8,129.3z
			 M421.3,129.4c-0.6-0.4-1.3-0.6-2.1-0.6c-2.1,0-3.8,1.6-3.8,3.7c0,0.1,0,0.2,0,0.3c0,0.7,0.2,1.5,0.5,2.1L421.3,129.4z
			 M417.1,136.2c0.6,0.5,1.4,0.7,2.1,0.7c2.1,0,3.8-1.6,3.8-3.7c0-0.1,0-0.2,0-0.3c0-0.8-0.2-1.6-0.6-2.2L417.1,136.2z"/>
		<path class="st1" d="M427.8,127.4h1.8v1.2c0.5-0.9,1.4-1.4,2.5-1.4c0.6,0,1.1,0.2,1.7,0.4l-0.9,1.7c-0.3-0.2-0.7-0.4-1.1-0.4
			c-0.6,0-1.1,0.2-1.5,0.7c-0.5,0.9-0.7,1.9-0.6,2.9v5.7h-1.9L427.8,127.4z"/>
		<path class="st1" d="M442.1,127.4l3.2,7.3l3.2-7.3h2.1l-5.3,11.5l-5.3-11.5L442.1,127.4z"/>
		<path class="st1" d="M453.6,122c0.7,0,1.3,0.6,1.3,1.3c0,0.7-0.6,1.3-1.3,1.3c-0.7,0-1.3-0.6-1.3-1.3c0,0,0,0,0,0
			C452.2,122.6,452.8,122,453.6,122z M454.5,127.4v10.8h-1.8v-10.8L454.5,127.4z"/>
		<path class="st1" d="M462.5,129.9c-0.2-0.6-0.8-1.1-1.5-1.1c-0.7-0.1-1.2,0.4-1.3,1.1c0,0,0,0.1,0,0.1c0,0.8,0.5,1,1.7,1.5
			c1,0.3,2,0.9,2.7,1.7c0.4,0.5,0.6,1.2,0.6,1.8c0.1,1.9-1.4,3.5-3.3,3.6c-0.1,0-0.3,0-0.4,0c-1.7,0-3.3-1.1-3.8-2.8l1.6-0.7
			c0.3,1,1.2,1.7,2.2,1.8c0.9,0.1,1.7-0.7,1.8-1.6c0,0,0-0.1,0-0.1c0-1-0.7-1.4-1.7-1.8c-1-0.3-1.9-0.9-2.6-1.6
			c-0.4-0.5-0.5-1-0.5-1.6c-0.1-1.6,1.2-2.9,2.8-3c0.1,0,0.2,0,0.4,0c1.3,0,2.5,0.8,3,2L462.5,129.9z"/>
		<path class="st1" d="M469.1,129.1v9.1h-1.9v-9.1h-1.1v-1.7h1.1v-3.9h1.9v3.9h1.9v1.7H469.1z"/>
		<path class="st1" d="M472.7,127.4h1.9v1.2c0.7-1,1.9-1.5,3.1-1.5c1.2,0,2.4,0.5,3.1,1.5c0.5,0.9,0.7,1.9,0.6,2.9v6.7h-1.9v-6.6
			c0.1-0.7-0.1-1.4-0.5-2c-0.4-0.5-1.1-0.8-1.8-0.8c-0.7,0-1.4,0.3-1.9,0.8c-0.6,0.9-0.8,1.9-0.8,2.9v5.6h-1.9L472.7,127.4z"/>
		<path class="st1" d="M484.3,132.8c0-3.2,2.5-5.7,5.7-5.8c3.2,0,5.7,2.5,5.8,5.7s-2.5,5.7-5.7,5.8c0,0,0,0,0,0
			c-3.1,0.1-5.6-2.3-5.7-5.4C484.3,133,484.3,132.9,484.3,132.8z M486.2,132.8c0.1,2.1,1.9,3.7,4,3.6c2.1-0.1,3.7-1.9,3.6-4
			c-0.1-2-1.8-3.6-3.8-3.6c-2.1,0-3.8,1.6-3.8,3.7C486.2,132.6,486.2,132.7,486.2,132.8z"/>
		<path class="st1" d="M500.5,119.2v12.2l4-4h2.4l-4.7,4.6l5.5,6.2h-2.5l-4.3-4.9l-0.5,0.5v4.4h-1.9v-19L500.5,119.2z"/>
		<path class="st1" d="M517.5,119.2v19h-1.8v-19L517.5,119.2z"/>
		<path class="st1" d="M538.2,135.5c-0.9,1.9-2.8,3-4.9,3c-1.7,0.1-3.3-0.7-4.2-2.2c-0.8,1.4-2.4,2.3-4.1,2.2
			c-2.5,0-4.6-1.1-4.6-3.5s2-3.6,4.5-3.6c1.1,0,2.2,0.3,3.1,0.9c0-0.8-0.1-1.6-0.5-2.3c-0.6-0.9-1.6-1.4-2.6-1.2
			c-1.1,0-2.3,0.3-3.3,0.7v-1.8c1.1-0.4,2.2-0.6,3.4-0.6c1.7-0.2,3.3,0.7,4.1,2.2c0.9-1.4,2.5-2.2,4.2-2.2c3.2,0,5.2,2.3,5.2,5.8
			v0.2h-8.4c-0.1,2,1.5,3.6,3.4,3.7c1.5-0.1,2.7-1,3.3-2.3L538.2,135.5z M522.2,135c0,0.8,0.6,1.9,2.7,1.9s2.9-1.1,2.9-1.9
			s-0.7-1.8-2.8-1.8C523.2,133.1,522.2,134,522.2,135z M536.4,131.6c-0.2-1.6-1.6-2.9-3.2-2.8c-1.6,0-3,1.2-3.2,2.8H536.4z"/>
		<path class="st1" d="M545.6,129.9c-0.2-0.6-0.8-1.1-1.5-1.1c-0.7-0.1-1.2,0.4-1.3,1.1c0,0,0,0.1,0,0.1c0,0.8,0.5,1,1.7,1.5
			c1,0.3,2,0.9,2.7,1.7c0.4,0.5,0.6,1.1,0.6,1.7c0.1,1.9-1.4,3.5-3.3,3.5c-0.1,0-0.3,0-0.4,0c-1.7,0-3.3-1.1-3.8-2.8l1.6-0.7
			c0.3,1,1.2,1.7,2.2,1.8c0.9,0.1,1.7-0.7,1.8-1.6c0,0,0-0.1,0-0.1c0-1-0.7-1.4-1.7-1.8c-1-0.3-1.9-0.9-2.6-1.6
			c-0.4-0.5-0.5-1-0.5-1.6c-0.1-1.6,1.2-2.9,2.8-3c0.1,0,0.2,0,0.4,0c1.3,0,2.5,0.8,3,2L545.6,129.9z"/>
		<path class="st1" d="M559.9,135.4c-0.3,0.7-0.8,1.2-1.3,1.7c-1,0.9-2.3,1.4-3.6,1.3c-2.6,0-5.3-1.6-5.3-5.6c0-3.2,2-5.7,5.2-5.7
			c1.6-0.1,3.1,0.7,4.1,2c0.7,1.2,1.1,2.6,1,4.1h-8.4c-0.1,1.9,1.3,3.5,3.2,3.7c0.1,0,0.1,0,0.2,0c0.8,0,1.6-0.3,2.2-0.8
			c0.5-0.4,0.9-0.9,1.1-1.5L559.9,135.4z M558,131.6c-0.2-1.6-1.6-2.8-3.2-2.8c-1.6,0-2.9,1.2-3.2,2.8H558z"/>
		<path class="st1" d="M568.2,132.8c0-3.2,2.5-5.7,5.7-5.8s5.7,2.5,5.8,5.7s-2.5,5.7-5.7,5.8c0,0,0,0,0,0c-3.1,0.1-5.6-2.3-5.7-5.3
			C568.2,133.1,568.2,132.9,568.2,132.8z M570.1,132.8c0.1,2.1,1.9,3.7,4,3.6c2.1-0.1,3.7-1.9,3.6-4c-0.1-2-1.8-3.6-3.8-3.6
			c-2.1,0-3.8,1.6-3.8,3.7C570.1,132.6,570.1,132.7,570.1,132.8z"/>
		<path class="st1" d="M584.4,144.2h-1.9v-16.8h1.9v1.5c0.9-1.1,2.3-1.8,3.7-1.8c3.4,0,5.2,2.8,5.2,5.7s-1.9,5.6-5.2,5.6
			c-1.5,0-2.9-0.6-3.8-1.8V144.2z M591.4,132.9c0-2.6-1.8-4.1-3.5-4.1c-2.1,0.1-3.7,1.8-3.6,3.9c0,0,0,0.1,0,0.1
			c-0.2,2,1.4,3.8,3.4,4c0.1,0,0.2,0,0.2,0C590,136.8,591.4,135,591.4,132.9L591.4,132.9z"/>
		<path class="st1" d="M604.1,144.2h-1.9v-16.8h1.9v1.5c0.9-1.1,2.3-1.8,3.7-1.8c3.4,0,5.3,2.8,5.3,5.7s-1.9,5.6-5.2,5.6
			c-1.5,0-2.9-0.6-3.8-1.8L604.1,144.2z M611.1,132.9c0-2.6-1.8-4.1-3.5-4.1c-2.1,0.1-3.7,1.8-3.6,3.9c0,0,0,0.1,0,0.1
			c0,2.2,1.4,4,3.6,4C609.8,136.8,611.1,135,611.1,132.9L611.1,132.9z"/>
		<path class="st1" d="M624.2,127.4h1.9v10.8h-1.9v-1.5c-0.9,1.2-2.2,1.8-3.7,1.8c-2.7,0-5.2-1.9-5.2-5.7s2.5-5.6,5.2-5.6
			c1.4,0,2.8,0.6,3.7,1.8V127.4z M617.2,132.8c0,2.3,1.3,4.1,3.5,4.1c2.2,0,3.6-1.9,3.6-4c0.2-2-1.3-3.8-3.3-4c-0.1,0-0.2,0-0.3,0
			C618.8,128.8,617.1,130.1,617.2,132.8L617.2,132.8z M621.2,120.8c1.2,0,2.2,1,2.2,2.2s-1,2.2-2.2,2.2c-1.2,0-2.2-1-2.2-2.2
			c0,0,0,0,0,0C618.9,121.8,619.9,120.8,621.2,120.8L621.2,120.8z M621.2,124.1c0.6,0,1.1-0.5,1.1-1.1c0-0.6-0.5-1.1-1.1-1.1
			c-0.6,0-1.1,0.5-1.1,1.1C620.1,123.6,620.5,124.1,621.2,124.1L621.2,124.1z"/>
		<path class="st1" d="M635.7,127.4h1.9v1.2c0.5-0.9,1.4-1.4,2.4-1.4c0.6,0,1.2,0.2,1.7,0.4l-0.9,1.7c-0.3-0.2-0.7-0.4-1.1-0.4
			c-0.6,0-1.1,0.2-1.5,0.7c-0.5,0.9-0.7,1.9-0.6,2.9v5.7h-1.9V127.4z"/>
		<path class="st1" d="M652.3,135.4c-0.3,0.7-0.8,1.2-1.3,1.7c-1,0.9-2.3,1.4-3.6,1.3c-2.6,0-5.3-1.6-5.3-5.6c0-3.2,2-5.7,5.2-5.7
			c1.6-0.1,3.1,0.7,4.1,2c0.7,1.2,1.1,2.6,1,4.1h-8.4c-0.1,1.9,1.3,3.5,3.2,3.7c0.1,0,0.1,0,0.2,0c0.8,0,1.6-0.3,2.2-0.8
			c0.5-0.4,0.9-0.9,1.1-1.5L652.3,135.4z M650.4,131.6c-0.2-1.6-1.6-2.8-3.2-2.8c-1.6,0-2.9,1.2-3.2,2.8H650.4z"/>
		<path class="st1" d="M663.5,127.4h1.9v10.5c0.1,1.5-0.2,3-1,4.2c-1,1.3-2.6,2.1-4.3,2c-1.4,0-2.8-0.5-3.9-1.5
			c-0.9-0.9-1.4-2.2-1.4-3.5h1.8c0,0.8,0.3,1.6,0.8,2.2c0.7,0.7,1.6,1.1,2.6,1c1.2,0.1,2.3-0.5,2.9-1.5c0.5-0.8,0.7-1.8,0.6-2.8
			v-1.6c-0.9,1.2-2.2,1.8-3.7,1.8c-1.4,0-2.7-0.5-3.7-1.5c-1.1-1.2-1.6-2.7-1.6-4.3c-0.1-1.6,0.5-3.1,1.6-4.2c1-0.9,2.3-1.5,3.7-1.4
			c1.4,0,2.8,0.6,3.7,1.8L663.5,127.4z M657.5,129.8c-0.8,0.8-1.1,1.9-1.1,3c-0.1,1.2,0.4,2.3,1.2,3.2c1.3,1.2,3.4,1.2,4.7,0
			c0.8-0.8,1.2-2,1.2-3.1c0-1.1-0.4-2.2-1.1-3.1c-0.7-0.6-1.5-1-2.4-1C659.1,128.8,658.2,129.2,657.5,129.8L657.5,129.8z"/>
		<path class="st1" d="M670.7,119.2v19h-1.9v-19L670.7,119.2z"/>
		<path class="st1" d="M683.9,135.4c-0.3,0.7-0.8,1.2-1.3,1.7c-1,0.9-2.3,1.4-3.6,1.3c-2.6,0-5.3-1.6-5.3-5.6c0-3.2,2-5.7,5.2-5.7
			c1.6-0.1,3.1,0.7,4.1,2c0.7,1.2,1.1,2.6,1,4.1h-8.4c-0.1,1.9,1.3,3.5,3.2,3.7c0.1,0,0.1,0,0.2,0c0.8,0,1.6-0.3,2.2-0.8
			c0.5-0.4,0.9-0.9,1.1-1.5L683.9,135.4z M682,131.6c-0.2-1.6-1.6-2.8-3.2-2.8c-1.6,0-2.9,1.2-3.2,2.8H682z"/>
		<path class="st1" d="M686.8,127.4h1.9v1.2c0.5-0.9,1.4-1.4,2.4-1.4c0.6,0,1.2,0.2,1.7,0.4l-0.9,1.7c-0.3-0.2-0.7-0.4-1.1-0.4
			c-0.6,0-1.1,0.2-1.5,0.7c-0.5,0.9-0.7,1.9-0.6,2.9v5.7h-1.9V127.4z"/>
		<path class="st1" d="M694.5,127.4h1.9v1.2c0.7-1,1.9-1.5,3.1-1.5c1.2,0,2.4,0.5,3.1,1.5c0.5,0.9,0.7,1.9,0.6,2.9v6.7h-1.9v-6.6
			c0.1-0.7-0.1-1.4-0.5-2c-0.4-0.5-1.1-0.8-1.8-0.8c-0.7,0-1.4,0.3-1.9,0.8c-0.6,0.9-0.9,1.9-0.8,2.9v5.6h-1.9V127.4z"/>
		<path class="st1" d="M716.3,135.4c-0.3,0.7-0.8,1.2-1.3,1.7c-1,0.9-2.3,1.4-3.6,1.3c-2.6,0-5.3-1.6-5.3-5.6c0-3.2,2-5.7,5.2-5.7
			c1.6-0.1,3.1,0.7,4.1,2c0.7,1.2,1.1,2.6,1,4.1h-8.4c-0.1,1.9,1.3,3.5,3.2,3.7c0.1,0,0.1,0,0.2,0c0.8,0,1.6-0.3,2.2-0.8
			c0.5-0.4,0.9-0.9,1.1-1.5L716.3,135.4z M714.4,131.6c-0.2-1.6-1.6-2.8-3.2-2.8c-1.6,0-2.9,1.2-3.2,2.8H714.4z"/>
		<path class="st1" d="M724.6,132.8c0-3.2,2.5-5.7,5.7-5.8c3.2,0,5.7,2.5,5.8,5.7c0,3.2-2.5,5.7-5.7,5.8c0,0,0,0,0,0
			c-3.1,0.1-5.6-2.3-5.7-5.4C724.6,133,724.6,132.9,724.6,132.8z M726.5,132.8c0.1,2.1,1.9,3.7,4,3.6c2.1-0.1,3.7-1.9,3.6-4
			c-0.1-2-1.8-3.6-3.8-3.6c-2.1,0-3.8,1.6-3.8,3.7C726.5,132.6,726.5,132.7,726.5,132.8z"/>
		<path class="st1" d="M738.9,127.4h1.9v1.1c0.6-0.9,1.6-1.4,2.7-1.4c1.2,0,2.4,0.6,2.9,1.7c0.7-1.1,1.9-1.8,3.2-1.7
			c3.2,0,3.5,2.7,3.5,4.2v6.8h-1.9v-6.6c0-1.2-0.2-2.8-1.9-2.8c-2.2,0-2.4,2.1-2.4,3.4v6h-1.9v-6.4c0-0.8,0-3-2-3
			c-2.1,0-2.4,2.2-2.4,3.5v5.9h-1.9V127.4z"/>
		<path class="st1" d="M764.7,138.2h-1.9v-19h1.9v9.7c0.9-1.1,2.3-1.8,3.7-1.8c3.4,0,5.2,2.8,5.2,5.7s-1.9,5.6-5.2,5.6
			c-1.5,0-2.9-0.6-3.8-1.8V138.2z M771.7,132.9c0-2.6-1.8-4.1-3.5-4.1c-2.1,0.1-3.7,1.8-3.6,3.9c0,0,0,0.1,0,0.1
			c-0.2,2,1.4,3.8,3.4,4c0.1,0,0.2,0,0.2,0C770.3,136.8,771.7,135,771.7,132.9z"/>
		<path class="st1" d="M777.4,122c0.7,0,1.3,0.6,1.3,1.3c0,0.7-0.6,1.3-1.3,1.3c-0.7,0-1.3-0.6-1.3-1.3c0,0,0,0,0,0
			C776.1,122.6,776.6,122,777.4,122z M778.3,127.4v10.8h-1.9v-10.8L778.3,127.4z"/>
		<path class="st1" d="M783.7,119.2v19h-1.9v-19L783.7,119.2z"/>
		<path class="st1" d="M789.1,119.2v19h-1.9v-19L789.1,119.2z"/>
		<path class="st1" d="M802.2,135.4c-0.3,0.7-0.8,1.2-1.3,1.7c-1,0.9-2.3,1.4-3.6,1.3c-2.6,0-5.3-1.6-5.3-5.6c0-3.2,2-5.7,5.2-5.7
			c1.6-0.1,3.1,0.7,4.1,2c0.7,1.2,1.1,2.6,1,4.1h-8.4c-0.1,1.9,1.3,3.5,3.2,3.7c0.1,0,0.1,0,0.2,0c0.8,0,1.6-0.3,2.2-0.8
			c0.5-0.4,0.9-0.9,1.1-1.5L802.2,135.4z M800.4,131.6c-0.2-1.6-1.6-2.8-3.2-2.8c-1.6,0-2.9,1.2-3.2,2.8H800.4z"/>
		<path class="st1" d="M813.4,119.2h1.9v19h-1.9v-1.5c-0.9,1.2-2.2,1.8-3.7,1.8c-2.7,0-5.2-1.9-5.2-5.7s2.5-5.6,5.2-5.6
			c1.4,0,2.8,0.6,3.7,1.8V119.2z M806.4,132.8c0,2.3,1.3,4.1,3.5,4.1c2.2,0,3.6-1.9,3.6-4c0.2-2-1.3-3.8-3.3-4c-0.1,0-0.2,0-0.3,0
			C808.1,128.8,806.4,130.1,806.4,132.8L806.4,132.8z"/>
		<path class="st1" d="M827.1,119.2h1.9v19h-1.9v-1.5c-0.9,1.2-2.2,1.8-3.7,1.8c-2.7,0-5.2-1.9-5.2-5.7s2.5-5.6,5.2-5.6
			c1.5,0,2.8,0.6,3.7,1.8V119.2z M820.1,132.8c0,2.3,1.3,4.1,3.5,4.1s3.6-1.9,3.6-4c0.2-2-1.3-3.8-3.3-4c-0.1,0-0.2,0-0.3,0
			C821.8,128.8,820.1,130.1,820.1,132.8L820.1,132.8z"/>
		<path class="st1" d="M842.1,135.4c-0.3,0.7-0.8,1.2-1.3,1.7c-1,0.9-2.3,1.4-3.6,1.3c-2.6,0-5.3-1.6-5.3-5.6c0-3.2,2-5.7,5.2-5.7
			c1.6-0.1,3.1,0.7,4.1,2c0.7,1.2,1.1,2.6,1,4.1h-8.4c-0.1,1.9,1.3,3.5,3.2,3.7c0.1,0,0.1,0,0.2,0c0.8,0,1.6-0.3,2.2-0.8
			c0.5-0.4,0.9-0.9,1.1-1.5L842.1,135.4z M840.2,131.6c-0.2-1.6-1.6-2.8-3.2-2.8c-1.6,0-2.9,1.2-3.2,2.8H840.2z"/>
		<path class="st1" d="M846.9,119.2v19H845v-19L846.9,119.2z"/>
		<path class="st1" d="M851.4,122c0.7,0,1.3,0.6,1.3,1.3s-0.6,1.3-1.3,1.3c-0.7,0-1.3-0.6-1.3-1.3c0,0,0,0,0,0
			C850.1,122.6,850.6,122,851.4,122z M852.3,127.4v10.8h-1.9v-10.8L852.3,127.4z"/>
		<path class="st1" d="M855.8,127.4h1.9v1.2c0.7-1,1.9-1.5,3.1-1.5c1.2,0,2.4,0.5,3.1,1.5c0.5,0.9,0.7,1.9,0.6,2.9v6.7h-1.9v-6.6
			c0.1-0.7-0.1-1.4-0.5-2c-0.4-0.5-1.1-0.8-1.8-0.8c-0.7,0-1.4,0.3-1.9,0.8c-0.6,0.9-0.9,1.9-0.8,2.9v5.6h-1.9L855.8,127.4z"/>
		<path class="st1" d="M876.3,127.4h1.9v10.5c0.1,1.5-0.2,3-1,4.2c-1,1.3-2.6,2.1-4.3,2c-1.4,0-2.8-0.5-3.8-1.5
			c-0.9-0.9-1.4-2.2-1.4-3.5h1.8c0,0.8,0.3,1.6,0.8,2.2c0.7,0.7,1.6,1.1,2.6,1c1.2,0.1,2.3-0.5,2.9-1.5c0.5-0.8,0.7-1.8,0.6-2.8
			v-1.6c-0.9,1.2-2.2,1.9-3.7,1.9c-1.4,0-2.7-0.5-3.7-1.5c-1.1-1.2-1.6-2.7-1.6-4.3c-0.1-1.6,0.5-3.1,1.6-4.2c1-0.9,2.3-1.5,3.7-1.4
			c1.4,0,2.8,0.6,3.7,1.8L876.3,127.4z M870.4,129.8c-0.8,0.8-1.1,1.9-1.1,3c-0.1,1.2,0.4,2.3,1.2,3.2c0.6,0.6,1.5,0.9,2.3,0.9
			c0.9,0,1.7-0.3,2.4-0.9c0.8-0.8,1.2-2,1.2-3.1c0-1.1-0.4-2.2-1.2-3.1c-0.7-0.6-1.5-1-2.4-1C871.9,128.8,871,129.2,870.4,129.8z"/>
		<path class="st1" d="M882.4,135.6l1.7,0.6l-2.6,5.9l-1.2-0.5L882.4,135.6z"/>
		<path class="st1" d="M893.7,119.2h1.9v9.4c0.7-1,1.9-1.5,3.1-1.5c1.2,0,2.4,0.5,3.1,1.5c0.5,0.9,0.7,1.9,0.6,2.9v6.7h-1.9v-6.6
			c0.1-0.7-0.1-1.4-0.5-2c-0.4-0.5-1.1-0.8-1.8-0.8c-0.7,0-1.4,0.3-1.9,0.8c-0.6,0.9-0.9,1.9-0.8,2.9v5.6h-1.9L893.7,119.2z"/>
		<path class="st1" d="M906.5,127.4l3.2,7.3l3.2-7.3h2.1l-5.3,11.5l-5.3-11.5H906.5z"/>
		<path class="st1" d="M917.9,122c0.7,0,1.3,0.6,1.3,1.3s-0.6,1.3-1.3,1.3c-0.7,0-1.3-0.6-1.3-1.3c0,0,0,0,0,0
			C916.6,122.6,917.2,122,917.9,122z M918.8,127.4v10.8H917v-10.8L918.8,127.4z"/>
		<path class="st1" d="M926.8,129.9c-0.2-0.6-0.8-1.1-1.5-1.1c-0.7-0.1-1.2,0.4-1.3,1.1c0,0,0,0.1,0,0.1c0,0.8,0.5,1,1.8,1.5
			c1,0.3,1.9,0.9,2.7,1.7c0.4,0.5,0.6,1.1,0.6,1.7c0.1,1.9-1.4,3.5-3.3,3.6c-0.1,0-0.3,0-0.4,0c-1.7,0-3.3-1.1-3.8-2.8l1.6-0.7
			c0.3,1,1.2,1.7,2.2,1.8c0.9,0.1,1.7-0.7,1.8-1.6c0,0,0-0.1,0-0.1c0-1-0.7-1.4-1.7-1.8c-1-0.3-1.9-0.9-2.6-1.6
			c-0.4-0.5-0.5-1-0.5-1.6c-0.1-1.6,1.2-2.9,2.8-3c0.1,0,0.2,0,0.4,0c1.3,0,2.5,0.8,3,2L926.8,129.9z"/>
		<path class="st1" d="M945.8,119.2h1.9v19h-1.9v-1.5c-0.9,1.2-2.2,1.8-3.7,1.8c-2.7,0-5.2-1.9-5.2-5.7s2.5-5.6,5.2-5.6
			c1.4,0,2.8,0.6,3.7,1.8V119.2z M938.8,132.8c0,2.3,1.3,4.1,3.5,4.1s3.6-1.9,3.6-4c0.2-2-1.3-3.8-3.3-4c-0.1,0-0.2,0-0.3,0
			C940.5,128.8,938.8,130.1,938.8,132.8L938.8,132.8z"/>
		<path class="st1" d="M953.1,133.7c-0.1,0.8,0.1,1.6,0.5,2.3c1,1,2.6,1.1,3.6,0.2c0.1-0.1,0.1-0.1,0.2-0.2c0.4-0.7,0.6-1.5,0.5-2.3
			v-6.3h1.9v6.5c0.1,1.2-0.2,2.4-1,3.2c-1.8,1.8-4.8,1.8-6.6,0c-0.8-0.9-1.1-2.1-1-3.2v-6.5h1.9V133.7z"/>
		<path class="st1" d="M970.4,122c0.7,0,1.3,0.6,1.3,1.3s-0.6,1.3-1.3,1.3c-0.7,0-1.3-0.6-1.3-1.3c0,0,0,0,0,0
			C969.1,122.6,969.6,122,970.4,122z M971.3,127.4v10.8h-1.9v-10.8L971.3,127.4z"/>
		<path class="st1" d="M976.7,119.2v12.2l4-4h2.4l-4.6,4.6l5.5,6.2h-2.4l-4.3-4.9l-0.5,0.5v4.4h-1.9v-19L976.7,119.2z"/>
		<path class="st1" d="M987.7,119.2v12.2l4-4h2.4l-4.7,4.6l5.5,6.2h-2.4l-4.3-4.9l-0.5,0.5v4.4h-1.9v-19L987.7,119.2z"/>
		<path class="st1" d="M1006.1,135.4c-0.3,0.7-0.8,1.2-1.3,1.7c-1,0.9-2.3,1.4-3.6,1.3c-2.6,0-5.3-1.6-5.3-5.6c0-3.2,2-5.7,5.2-5.7
			c1.6-0.1,3.1,0.7,4.1,2c0.7,1.2,1.1,2.6,1,4.1h-8.4c-0.1,1.9,1.3,3.5,3.2,3.7c0.1,0,0.1,0,0.2,0c0.8,0,1.6-0.3,2.2-0.8
			c0.5-0.4,0.9-0.9,1.1-1.5L1006.1,135.4z M1004.2,131.6c-0.2-1.6-1.6-2.8-3.2-2.8c-1.6,0-2.9,1.2-3.2,2.8H1004.2z"/>
		<path class="st1" d="M1015.6,127.4l3.2,7.3l3.2-7.3h2.1l-5.3,11.5l-5.3-11.5L1015.6,127.4z"/>
		<path class="st1" d="M1027,122c0.7,0,1.3,0.6,1.3,1.3c0,0.7-0.6,1.3-1.3,1.3c-0.7,0-1.3-0.6-1.3-1.3c0,0,0,0,0,0
			C1025.7,122.6,1026.3,122,1027,122z M1028,127.4v10.8h-1.9v-10.8L1028,127.4z"/>
		<path class="st1" d="M1033.4,119.2v19h-1.9v-19L1033.4,119.2z"/>
		<path class="st1" d="M375.5,166.6c-0.3,0.7-0.8,1.2-1.3,1.7c-1,0.9-2.3,1.4-3.6,1.3c-2.6,0-5.3-1.6-5.3-5.6c0-3.2,2-5.7,5.2-5.7
			c1.6-0.1,3.1,0.7,4.1,2c0.7,1.2,1.1,2.6,1,4.1h-8.4c-0.1,1.9,1.4,3.5,3.3,3.6c0.1,0,0.1,0,0.2,0c0.8,0,1.6-0.3,2.2-0.8
			c0.5-0.4,0.9-0.9,1.1-1.5L375.5,166.6z M373.7,162.8c-0.2-1.6-1.6-2.8-3.2-2.8c-1.6,0-2.9,1.2-3.2,2.8H373.7z"/>
		<path class="st1" d="M378.4,158.6h1.9v1.2c0.7-1,1.9-1.5,3.1-1.5c1.2,0,2.4,0.5,3.1,1.5c0.5,0.9,0.7,1.9,0.6,2.9v6.7h-1.9v-6.6
			c0.1-0.7-0.1-1.4-0.5-2c-0.4-0.5-1.1-0.8-1.8-0.8c-0.7,0-1.4,0.3-1.9,0.8c-0.6,0.9-0.9,1.9-0.8,2.9v5.6h-1.9V158.6z"/>
		<path class="st1" d="M398.9,150.4h1.9v19h-1.9v-1.5c-0.9,1.2-2.2,1.8-3.7,1.8c-2.7,0-5.2-1.9-5.2-5.7s2.5-5.6,5.2-5.6
			c1.4,0,2.8,0.6,3.7,1.8V150.4z M391.9,164c0,2.3,1.3,4.1,3.5,4.1s3.6-1.9,3.6-4c0.2-2-1.3-3.8-3.3-4c-0.1,0-0.2,0-0.3,0
			C393.6,160,391.9,161.4,391.9,164L391.9,164z"/>
		<path class="st1" d="M413.9,166.6c-0.3,0.7-0.8,1.2-1.3,1.7c-1,0.9-2.3,1.4-3.6,1.3c-2.6,0-5.3-1.6-5.3-5.6c0-3.2,2-5.7,5.2-5.7
			c1.6-0.1,3.1,0.7,4.1,2c0.7,1.2,1.1,2.6,1,4.1h-8.4c-0.1,1.9,1.3,3.5,3.2,3.7c0.1,0,0.1,0,0.2,0c0.8,0,1.6-0.3,2.2-0.8
			c0.5-0.4,0.9-0.9,1.1-1.5L413.9,166.6z M412.1,162.8c-0.2-1.6-1.6-2.8-3.2-2.8c-1.6,0-2.9,1.2-3.2,2.8H412.1z"/>
		<path class="st1" d="M423.8,153.2c0.7,0,1.3,0.6,1.3,1.3c0,0.7-0.6,1.3-1.3,1.3c-0.7,0-1.3-0.6-1.3-1.3c0,0,0,0,0,0
			C422.5,153.8,423.1,153.2,423.8,153.2z M424.8,158.6v10.8h-1.9v-10.8H424.8z"/>
		<path class="st1" d="M436.3,160.3v9.1h-1.9v-9.1h-1v-1.7h1v-4.7c-0.1-1.1,0.2-2.2,1-3c0.6-0.5,1.4-0.7,2.2-0.7
			c0.5,0,0.9,0.1,1.3,0.2v1.8c-0.4-0.2-0.8-0.2-1.2-0.2c-0.5,0-0.9,0.2-1.2,0.6c-0.2,0.5-0.3,1-0.2,1.6v4.5h2.6v1.7L436.3,160.3z"/>
		<path class="st1" d="M457.7,166.7c-0.9,1.9-2.8,3-4.9,3c-1.7,0.1-3.3-0.7-4.2-2.2c-0.8,1.4-2.4,2.3-4,2.2c-2.5,0-4.7-1.1-4.7-3.5
			s2-3.6,4.5-3.6c1.1,0,2.2,0.3,3.1,0.9c0.1-0.8-0.1-1.6-0.5-2.3c-0.5-0.9-1.5-1.4-2.6-1.2c-1.1,0-2.3,0.3-3.3,0.7v-1.8
			c1.1-0.4,2.2-0.6,3.4-0.6c1.7-0.2,3.3,0.7,4.1,2.2c0.9-1.4,2.5-2.2,4.2-2.2c3.1,0,5.1,2.3,5.1,5.9v0.2h-8.4
			c-0.1,1.9,1.5,3.6,3.4,3.7c1.5-0.1,2.7-1,3.3-2.3L457.7,166.7z M441.8,166.2c0,0.8,0.6,1.9,2.7,1.9s2.9-1.1,2.9-1.9
			s-0.7-1.8-2.8-1.8C442.7,164.3,441.8,165.1,441.8,166.2L441.8,166.2z M455.9,162.8c-0.2-1.8-1.8-3-3.6-2.8
			c-1.5,0.2-2.6,1.3-2.8,2.8H455.9z"/>
		<path class="st1" d="M460.7,158.6h1.9v1.2c0.7-1,1.9-1.5,3.1-1.5c1.2,0,2.4,0.5,3.1,1.5c0.5,0.9,0.7,1.9,0.6,2.9v6.7h-1.9v-6.6
			c0.1-0.7-0.1-1.4-0.5-2c-0.4-0.5-1.1-0.8-1.8-0.8c-0.7,0-1.4,0.3-1.9,0.8c-0.6,0.9-0.9,1.9-0.8,2.9v5.6h-1.9V158.6z"/>
		<path class="st1" d="M481.2,158.6h1.9v10.5c0.1,1.5-0.2,3-1,4.2c-1,1.3-2.6,2.1-4.3,2c-1.4,0-2.8-0.5-3.9-1.5
			c-0.9-0.9-1.4-2.2-1.4-3.5h1.9c0,1.8,1.4,3.2,3.1,3.3c0.1,0,0.2,0,0.3,0c1.2,0.1,2.3-0.5,2.9-1.5c0.5-0.8,0.7-1.8,0.6-2.8v-1.6
			c-0.9,1.2-2.2,1.8-3.7,1.8c-1.4,0-2.7-0.5-3.7-1.5c-1.1-1.2-1.6-2.7-1.6-4.3c-0.1-1.6,0.5-3.1,1.6-4.2c1-0.9,2.3-1.5,3.7-1.4
			c1.4,0,2.8,0.6,3.7,1.8L481.2,158.6z M475.3,161c-0.8,0.8-1.1,1.9-1.1,3c-0.1,1.2,0.4,2.3,1.2,3.2c0.6,0.6,1.5,0.9,2.3,0.9
			c0.9,0,1.7-0.3,2.4-0.9c0.8-0.8,1.2-2,1.2-3.1c0-1.1-0.4-2.2-1.1-3c-0.6-0.6-1.5-1-2.4-1C476.8,160,475.9,160.4,475.3,161z"/>
		<path class="st1" d="M491.1,161.1c-0.2-0.6-0.8-1.1-1.5-1.1c-0.7-0.1-1.2,0.4-1.3,1.1c0,0,0,0.1,0,0.1c0,0.8,0.5,1,1.7,1.5
			c1,0.3,1.9,0.9,2.7,1.7c0.4,0.5,0.6,1.1,0.6,1.7c0.1,1.9-1.4,3.5-3.3,3.5c-0.1,0-0.3,0-0.4,0c-1.7,0-3.3-1.1-3.8-2.8l1.6-0.7
			c0.3,1,1.2,1.7,2.2,1.8c0.9,0.1,1.7-0.7,1.8-1.6c0,0,0-0.1,0-0.1c0-1-0.7-1.4-1.7-1.8c-1-0.3-1.9-0.9-2.6-1.6
			c-0.4-0.5-0.5-1-0.5-1.6c-0.1-1.6,1.2-2.9,2.8-3c0.1,0,0.2,0,0.4,0c1.3,0,2.5,0.7,3,1.9L491.1,161.1z"/>
		<path class="st1" d="M505.3,166.6c-0.3,0.7-0.8,1.2-1.3,1.7c-1,0.9-2.3,1.4-3.6,1.3c-2.6,0-5.3-1.6-5.3-5.6c0-3.2,2-5.7,5.2-5.7
			c1.6-0.1,3.1,0.7,4.1,2c0.7,1.2,1.1,2.6,1,4.1H497c-0.1,1.9,1.3,3.5,3.2,3.7c0.1,0,0.1,0,0.2,0c0.8,0,1.6-0.3,2.2-0.8
			c0.5-0.4,0.9-0.9,1.1-1.5L505.3,166.6z M503.5,162.8c-0.2-1.6-1.6-2.8-3.2-2.8c-1.6,0-2.9,1.2-3.2,2.8H503.5z"/>
		<path class="st1" d="M510.2,150.4v19h-1.9v-19H510.2z"/>
		<path class="st1" d="M514.9,167.1c0.7,0,1.3,0.6,1.3,1.3s-0.6,1.3-1.3,1.3c-0.7,0-1.3-0.6-1.3-1.3
			C513.6,167.6,514.2,167.1,514.9,167.1z"/>
		<path class="st1" d="M528.1,152v15.5h4.8v1.8h-6.7V152H528.1z"/>
		<path class="st1" d="M552.1,166.7c-0.9,1.9-2.8,3-4.9,3c-1.7,0.1-3.3-0.7-4.2-2.2c-0.8,1.4-2.4,2.3-4.1,2.2
			c-2.5,0-4.7-1.1-4.7-3.5s2-3.6,4.5-3.6c1.1,0,2.2,0.3,3.1,0.9c0-0.8-0.1-1.6-0.5-2.3c-0.6-0.9-1.6-1.4-2.6-1.2
			c-1.1,0-2.3,0.3-3.3,0.7v-1.8c1.1-0.4,2.2-0.6,3.3-0.6c1.7-0.2,3.3,0.7,4.1,2.2c0.9-1.4,2.5-2.2,4.2-2.2c3.1,0,5.1,2.3,5.1,5.9
			v0.2h-8.4c-0.1,1.9,1.5,3.6,3.4,3.7c1.5-0.1,2.7-1,3.3-2.3L552.1,166.7z M536.2,166.2c0,0.8,0.6,1.9,2.7,1.9
			c2.2,0,2.9-1.1,2.9-1.9s-0.7-1.8-2.8-1.8C537.1,164.3,536.2,165.1,536.2,166.2L536.2,166.2z M550.3,162.8c-0.2-1.8-1.8-3-3.6-2.8
			c-1.5,0.2-2.6,1.3-2.8,2.8H550.3z"/>
		<path class="st1" d="M559.5,161.1c-0.2-0.6-0.8-1.1-1.5-1.1c-0.7-0.1-1.2,0.4-1.3,1.1c0,0,0,0.1,0,0.1c0,0.8,0.5,1,1.7,1.5
			c1,0.3,2,0.9,2.7,1.7c0.4,0.5,0.6,1.1,0.6,1.7c0.1,1.9-1.4,3.5-3.3,3.5c-0.1,0-0.3,0-0.4,0c-1.7,0-3.3-1.1-3.8-2.8l1.6-0.7
			c0.3,1,1.2,1.7,2.2,1.7c0.9,0.1,1.7-0.7,1.8-1.6c0,0,0-0.1,0-0.1c0-1-0.7-1.4-1.7-1.8c-1-0.3-1.9-0.9-2.6-1.6
			c-0.4-0.5-0.5-1-0.5-1.6c-0.1-1.6,1.2-2.9,2.8-3c0.1,0,0.3,0,0.4,0c1.3-0.1,2.5,0.7,3,1.9L559.5,161.1z"/>
		<path class="st1" d="M570.3,158.6h1.9v1.1c0.6-0.9,1.6-1.4,2.7-1.4c1.2,0,2.4,0.6,2.9,1.7c0.7-1.1,1.9-1.8,3.2-1.7
			c3.2,0,3.5,2.7,3.5,4.2v6.8h-1.9v-6.6c0-1.2-0.2-2.8-1.9-2.8c-2.2,0-2.4,2.1-2.4,3.4v6h-1.9V163c0-0.8,0-3-2-3
			c-2.1,0-2.4,2.2-2.4,3.5v5.9h-1.9L570.3,158.6z"/>
		<path class="st1" d="M597.7,166.6c-0.3,0.7-0.8,1.2-1.3,1.7c-1,0.9-2.3,1.4-3.6,1.3c-2.6,0-5.3-1.6-5.3-5.6c0-3.2,2-5.7,5.2-5.7
			c1.6-0.1,3.1,0.7,4.1,2c0.7,1.2,1.1,2.6,1,4.1h-8.4c-0.1,1.9,1.3,3.5,3.2,3.7c0.1,0,0.1,0,0.2,0c0.8,0,1.6-0.3,2.2-0.8
			c0.5-0.4,0.9-0.9,1.1-1.5L597.7,166.6z M595.8,162.8c-0.2-1.6-1.5-2.8-3.1-2.8c-1.6,0-2.9,1.2-3.2,2.8H595.8z"/>
		<path class="st1" d="M600.7,158.6h1.9v1.2c0.5-0.9,1.4-1.4,2.4-1.4c0.6,0,1.1,0.2,1.7,0.4l-0.9,1.7c-0.3-0.2-0.7-0.4-1.1-0.4
			c-0.6,0-1.1,0.2-1.5,0.7c-0.5,0.9-0.7,1.9-0.6,2.9v5.7h-1.9V158.6z"/>
		<path class="st1" d="M617.3,166.6c-0.3,0.7-0.8,1.2-1.3,1.7c-1,0.9-2.3,1.4-3.6,1.3c-2.6,0-5.3-1.6-5.3-5.6c0-3.2,2-5.7,5.2-5.7
			c1.6-0.1,3.1,0.7,4.1,2c0.7,1.2,1.1,2.6,1,4.1h-8.4c-0.1,1.9,1.3,3.5,3.2,3.7c0.1,0,0.1,0,0.2,0c0.8,0,1.6-0.3,2.2-0.8
			c0.5-0.4,0.9-0.9,1.1-1.5L617.3,166.6z M615.4,162.8c-0.2-1.6-1.6-2.8-3.2-2.8c-1.6,0-2.9,1.2-3.2,2.8H615.4z"/>
		<path class="st1" d="M628.1,175.4h-1.9v-16.8h1.9v1.5c0.9-1.1,2.3-1.8,3.7-1.8c3.4,0,5.3,2.8,5.3,5.7s-1.9,5.6-5.2,5.6
			c-1.5,0-2.9-0.6-3.8-1.8L628.1,175.4z M635.1,164.1c0-2.7-1.8-4.1-3.5-4.1c-2.1,0.1-3.7,1.8-3.6,3.9c0,0,0,0.1,0,0.1
			c0,2.2,1.4,4,3.6,4C633.8,168,635.2,166.2,635.1,164.1L635.1,164.1z"/>
		<path class="st1" d="M648.2,158.6h1.9v10.8h-1.9v-1.5c-0.9,1.2-2.2,1.8-3.7,1.8c-2.7,0-5.2-1.9-5.2-5.7s2.5-5.6,5.2-5.6
			c1.4,0,2.8,0.6,3.7,1.8V158.6z M641.2,164c0,2.3,1.3,4.1,3.5,4.1c2.2,0,3.6-1.9,3.6-4c0.2-2-1.3-3.8-3.3-4c-0.1,0-0.2,0-0.3,0
			C642.9,160,641.2,161.4,641.2,164L641.2,164z M645.2,152c1.2,0,2.2,1,2.2,2.2c0,1.2-1,2.2-2.2,2.2c-1.2,0-2.2-1-2.2-2.2l0,0
			C643,153,643.9,152,645.2,152L645.2,152z M645.2,155.3c0.6,0,1.1-0.5,1.1-1.1c0-0.6-0.5-1.1-1.1-1.1c-0.6,0-1.1,0.5-1.1,1.1
			C644.1,154.8,644.6,155.3,645.2,155.3L645.2,155.3z"/>
		<path class="st1" d="M661.5,175.4h-1.9v-16.8h1.9v1.5c0.9-1.1,2.3-1.8,3.7-1.8c3.4,0,5.3,2.8,5.3,5.7s-1.9,5.6-5.2,5.6
			c-1.5,0-2.9-0.6-3.8-1.8L661.5,175.4z M668.5,164.1c0-2.7-1.8-4.1-3.5-4.1c-2.1,0.1-3.7,1.8-3.6,3.9c0,0,0,0.1,0,0.1
			c0,2.2,1.4,4,3.6,4C667.2,168,668.6,166.2,668.5,164.1L668.5,164.1z"/>
		<path class="st1" d="M673.4,158.6h1.9v1.2c0.5-0.9,1.4-1.4,2.4-1.4c0.6,0,1.2,0.2,1.7,0.4l-0.9,1.7c-0.3-0.2-0.7-0.4-1.1-0.4
			c-0.6,0-1.1,0.2-1.5,0.7c-0.5,0.9-0.7,1.9-0.6,2.9v5.7h-1.9V158.6z"/>
		<path class="st1" d="M682,153.2c0.7,0,1.3,0.6,1.3,1.3c0,0.7-0.6,1.3-1.3,1.3s-1.3-0.6-1.3-1.3c0,0,0,0,0,0
			C680.7,153.8,681.3,153.2,682,153.2z M682.9,158.6v10.8H681v-10.8H682.9z"/>
		<path class="st1" d="M687,158.6l3.2,7.3l3.2-7.3h2.1l-5.3,11.5l-5.3-11.5H687z"/>
		<path class="st1" d="M705.7,158.6h1.9v10.8h-1.9v-1.5c-0.9,1.2-2.2,1.8-3.7,1.8c-2.7,0-5.2-1.9-5.2-5.7s2.5-5.6,5.2-5.6
			c1.4,0,2.8,0.6,3.7,1.8L705.7,158.6z M698.7,164c0,2.3,1.3,4.1,3.5,4.1c2.2,0,3.6-1.9,3.6-4c0.2-2-1.3-3.8-3.3-4
			c-0.1,0-0.2,0-0.3,0C700.4,160,698.7,161.4,698.7,164L698.7,164z"/>
		<path class="st1" d="M713.1,160.3v9.1h-1.9v-9.1h-1.1v-1.7h1.1v-3.9h1.9v3.9h1.9v1.7L713.1,160.3z"/>
		<path class="st1" d="M721.2,161.1c-0.2-0.6-0.8-1.1-1.5-1.1c-0.7-0.1-1.2,0.4-1.3,1.1c0,0,0,0.1,0,0.1c0,0.8,0.5,1,1.7,1.5
			c1,0.3,2,0.9,2.7,1.7c0.4,0.5,0.6,1.1,0.6,1.7c0.1,1.9-1.4,3.5-3.3,3.5c-0.1,0-0.3,0-0.4,0c-1.7,0-3.3-1.1-3.8-2.8l1.6-0.7
			c0.3,1,1.2,1.7,2.2,1.7c0.9,0,1.7-0.7,1.8-1.6c0,0,0-0.1,0-0.1c0-1-0.7-1.4-1.7-1.8c-1-0.3-1.9-0.9-2.6-1.6
			c-0.4-0.5-0.5-1-0.5-1.6c-0.1-1.6,1.2-2.9,2.8-3c0.1,0,0.2,0,0.4,0c1.3-0.1,2.5,0.7,3,1.9L721.2,161.1z"/>
		<path class="st1" d="M725.9,158.6h1.9v1.2c0.7-1,1.9-1.5,3.1-1.5c1.2,0,2.4,0.5,3.1,1.5c0.5,0.9,0.7,1.9,0.6,2.9v6.7h-1.9v-6.6
			c0.1-0.7-0.1-1.4-0.5-2c-0.4-0.5-1.1-0.8-1.8-0.8c-0.7,0-1.4,0.3-1.9,0.8c-0.6,0.9-0.9,1.9-0.8,2.9v5.6h-1.9V158.6z"/>
		<path class="st1" d="M746.4,158.6h1.9v10.8h-1.9v-1.5c-0.9,1.2-2.2,1.8-3.7,1.8c-2.7,0-5.2-1.9-5.2-5.7s2.5-5.6,5.2-5.6
			c1.4,0,2.8,0.6,3.7,1.8V158.6z M739.4,164c0,2.3,1.3,4.1,3.5,4.1c2.2,0,3.6-1.9,3.6-4c0.2-2-1.3-3.8-3.3-4c-0.1,0-0.2,0-0.3,0
			C741,160,739.3,161.4,739.4,164L739.4,164z"/>
		<path class="st1" d="M753.7,150.4v12.2l4-4h2.5l-4.6,4.6l5.5,6.2h-2.4l-4.3-4.9l-0.5,0.5v4.4h-1.9v-19L753.7,150.4z"/>
		<path class="st1" d="M763.9,167.1c0.7,0,1.3,0.6,1.3,1.3s-0.6,1.3-1.3,1.3c-0.7,0-1.3-0.6-1.3-1.3c0,0,0,0,0,0
			C762.6,167.6,763.2,167.1,763.9,167.1z"/>
		<path class="st1" d="M776.9,150.4h1.9v19h-1.9v-1.5c-0.9,1.2-2.2,1.8-3.7,1.8c-2.7,0-5.3-1.9-5.3-5.7s2.5-5.6,5.3-5.6
			c1.4,0,2.8,0.6,3.7,1.8V150.4z M769.9,164c0,2.3,1.3,4.1,3.5,4.1c2.2,0,3.6-1.9,3.6-4c0.2-2-1.3-3.8-3.3-4c-0.1,0-0.2,0-0.3,0
			C771.6,160,769.9,161.4,769.9,164L769.9,164z"/>
		<path class="st1" d="M784.2,150.4v12.2l4-4h2.4l-4.6,4.6l5.5,6.2H789l-4.3-4.9l-0.5,0.5v4.4h-1.9v-19L784.2,150.4z"/>
		<path class="st1" d="M793.9,166.8l1.7,0.6l-2.6,5.9l-1.2-0.5L793.9,166.8z"/>
		<path class="st1" d="M805.3,150.4h1.9v9.4c0.7-1,1.9-1.5,3.1-1.5c1.2,0,2.4,0.5,3.1,1.5c0.5,0.9,0.7,1.9,0.6,2.9v6.7h-1.9v-6.6
			c0.1-0.7-0.1-1.4-0.5-2c-0.4-0.5-1.1-0.8-1.8-0.8c-0.7,0-1.4,0.3-1.9,0.8c-0.6,0.9-0.9,1.9-0.8,2.9v5.6h-1.9V150.4z"/>
		<path class="st1" d="M818,158.6l3.2,7.3l3.2-7.3h2.1l-5.3,11.5l-5.3-11.5H818z"/>
		<path class="st1" d="M827.9,164c0-3.2,2.5-5.7,5.7-5.8c3.2,0,5.7,2.5,5.8,5.7c0,3.2-2.5,5.7-5.7,5.8c0,0,0,0,0,0
			c-3.1,0.1-5.6-2.3-5.7-5.4C827.9,164.2,827.9,164.1,827.9,164z M829.8,164c0.1,2.1,1.9,3.7,4,3.6c2.1-0.1,3.7-1.9,3.6-4
			c-0.1-2-1.8-3.6-3.8-3.6c-2.1,0-3.8,1.6-3.8,3.7C829.8,163.8,829.8,163.9,829.8,164z"/>
		<path class="st1" d="M842.2,158.6h1.9v1.2c0.5-0.9,1.4-1.4,2.5-1.4c0.6,0,1.1,0.2,1.7,0.4l-0.9,1.7c-0.3-0.2-0.7-0.4-1.1-0.4
			c-0.6,0-1.1,0.2-1.5,0.7c-0.5,0.9-0.7,1.9-0.6,2.9v5.7h-1.9V158.6z"/>
		<path class="st1" d="M864.2,150.4h1.9v19h-1.9v-1.5c-0.9,1.2-2.2,1.8-3.7,1.8c-2.7,0-5.2-1.9-5.2-5.7s2.5-5.6,5.2-5.6
			c1.4,0,2.8,0.6,3.7,1.8V150.4z M857.2,164c0,2.3,1.3,4.1,3.5,4.1s3.6-1.9,3.6-4c0.2-2-1.3-3.8-3.3-4c-0.1,0-0.2,0-0.3,0
			C858.9,160,857.2,161.4,857.2,164L857.2,164z"/>
		<path class="st1" d="M871.5,164.9c-0.1,0.8,0.1,1.6,0.5,2.3c1,1,2.6,1.1,3.6,0.2c0.1-0.1,0.1-0.1,0.2-0.2c0.4-0.7,0.6-1.5,0.5-2.3
			v-6.3h1.9v6.5c0.1,1.2-0.2,2.4-1,3.2c-1.8,1.8-4.8,1.8-6.6,0c-0.8-0.9-1.1-2.1-1-3.2v-6.5h1.9L871.5,164.9z"/>
		<path class="st1" d="M887.1,164c0-3.2,2.5-5.7,5.7-5.8c3.2,0,5.7,2.5,5.8,5.7c0,3.2-2.5,5.7-5.7,5.8c0,0,0,0,0,0
			c-3.1,0.1-5.6-2.3-5.7-5.3C887.1,164.2,887.1,164.1,887.1,164z M889,164c0.1,2.1,1.9,3.7,4,3.6s3.7-1.9,3.6-4
			c-0.1-2-1.8-3.6-3.8-3.6c-2.1,0-3.8,1.6-3.8,3.7C889,163.8,889,163.9,889,164z"/>
		<path class="st1" d="M909.7,158.6h1.9v10.5c0.1,1.5-0.2,3-1,4.2c-1,1.3-2.6,2.1-4.3,2c-1.4,0-2.8-0.5-3.8-1.5
			c-0.9-0.9-1.4-2.2-1.4-3.5h1.8c0,0.8,0.3,1.6,0.8,2.2c0.7,0.7,1.6,1.1,2.6,1c1.2,0.1,2.3-0.5,2.9-1.5c0.5-0.8,0.7-1.8,0.6-2.8
			v-1.6c-0.9,1.2-2.2,1.8-3.7,1.8c-1.4,0-2.7-0.5-3.7-1.5c-1.1-1.2-1.6-2.7-1.6-4.3c-0.1-1.6,0.5-3.1,1.6-4.2c1-0.9,2.3-1.5,3.7-1.4
			c1.4,0,2.8,0.6,3.7,1.8L909.7,158.6z M903.7,161c-1.5,1.8-1.5,4.4,0.1,6.1c1.3,1.2,3.4,1.2,4.7,0c0.8-0.8,1.2-2,1.2-3.1
			c0-1.1-0.4-2.2-1.2-3c-0.6-0.6-1.5-1-2.4-1C905.3,160,904.4,160.3,903.7,161z"/>
		<path class="st1" d="M919.5,161.1c-0.2-0.6-0.8-1.1-1.5-1.1c-0.7-0.1-1.2,0.4-1.3,1.1c0,0,0,0.1,0,0.1c0,0.8,0.5,1,1.7,1.5
			c1,0.3,2,0.9,2.7,1.7c0.4,0.5,0.6,1.1,0.6,1.7c0.1,1.9-1.4,3.5-3.3,3.5c-0.1,0-0.3,0-0.4,0c-1.7,0-3.3-1.1-3.8-2.8l1.6-0.7
			c0.3,1,1.2,1.7,2.2,1.8c0.9,0,1.7-0.7,1.8-1.6c0,0,0-0.1,0-0.1c0-1-0.7-1.4-1.7-1.8c-1-0.3-1.9-0.9-2.6-1.6
			c-0.4-0.5-0.5-1-0.5-1.6c-0.1-1.6,1.2-2.9,2.8-3c0.1,0,0.2,0,0.4,0c1.3-0.1,2.5,0.7,3,1.9L919.5,161.1z"/>
		<path class="st1" d="M932.5,158.6h1.9v10.8h-1.9v-1.5c-0.9,1.2-2.2,1.8-3.7,1.8c-2.7,0-5.2-1.9-5.2-5.7s2.5-5.6,5.2-5.6
			c1.4,0,2.8,0.6,3.7,1.8V158.6z M925.5,164c0,2.3,1.3,4.1,3.5,4.1s3.6-1.9,3.6-4c0.2-2-1.3-3.8-3.3-4c-0.1,0-0.2,0-0.3,0
			C927.2,160,925.5,161.4,925.5,164L925.5,164z M929.5,152c1.2,0,2.2,1,2.2,2.2c0,1.2-1,2.2-2.2,2.2c-1.2,0-2.2-1-2.2-2.2
			c0,0,0,0,0,0C927.3,153,928.2,152.1,929.5,152L929.5,152z M929.5,155.3c0.6,0,1.1-0.5,1.1-1.1s-0.5-1.1-1.1-1.1
			c-0.6,0-1.1,0.5-1.1,1.1C928.4,154.8,928.8,155.3,929.5,155.3L929.5,155.3z"/>
		<path class="st1" d="M945.8,150.4v12.2l4-4h2.4l-4.6,4.6l5.5,6.2h-2.5l-4.3-4.9l-0.5,0.5v4.4H944v-19L945.8,150.4z"/>
		<path class="st1" d="M963.2,158.6h1.9v10.8h-1.9v-1.5c-0.9,1.2-2.2,1.8-3.7,1.8c-2.7,0-5.2-1.9-5.2-5.7s2.5-5.6,5.2-5.6
			c1.5,0,2.8,0.6,3.7,1.8V158.6z M956.2,164c0,2.3,1.3,4.1,3.5,4.1s3.6-1.9,3.6-4c0.2-2-1.3-3.8-3.3-4c-0.1,0-0.2,0-0.3,0
			C957.9,160,956.2,161.4,956.2,164L956.2,164z"/>
		<path class="st1" d="M968.6,158.6h1.9v1.2c0.7-1,1.9-1.5,3.1-1.5c1.2,0,2.4,0.5,3.1,1.5c0.5,0.9,0.7,1.9,0.6,2.9v6.7h-1.9v-6.6
			c0.1-0.7-0.1-1.4-0.5-2c-0.4-0.5-1.1-0.8-1.8-0.8c-0.7,0-1.4,0.3-1.9,0.8c-0.6,0.9-0.9,1.9-0.8,2.9v5.6h-1.9V158.6z"/>
		<path class="st1" d="M988.7,150.4v19h-1.9v-19H988.7z"/>
		<path class="st1" d="M1009.4,166.7c-0.9,1.9-2.8,3-4.9,3c-1.7,0.1-3.3-0.7-4.2-2.2c-0.8,1.4-2.4,2.2-4,2.2c-2.5,0-4.7-1.1-4.7-3.5
			s2-3.6,4.5-3.6c1.1,0,2.2,0.3,3.1,0.9c0-0.8-0.1-1.6-0.5-2.3c-0.5-0.9-1.5-1.4-2.6-1.2c-1.1,0-2.3,0.3-3.3,0.7v-1.8
			c1.1-0.4,2.2-0.6,3.3-0.6c1.7-0.2,3.3,0.7,4.1,2.2c0.9-1.4,2.5-2.2,4.2-2.2c3.1,0,5.1,2.3,5.1,5.9v0.2h-8.4
			c-0.1,2,1.5,3.6,3.4,3.7c1.4-0.1,2.7-1,3.3-2.3L1009.4,166.7z M993.5,166.2c0,0.8,0.6,1.9,2.7,1.9s2.9-1.1,2.9-1.9
			s-0.7-1.8-2.8-1.8C994.4,164.3,993.5,165.1,993.5,166.2L993.5,166.2z M1007.7,162.8c-0.2-1.8-1.8-3-3.6-2.8
			c-1.5,0.2-2.6,1.3-2.8,2.8H1007.7z"/>
		<path class="st1" d="M1016.9,161.1c-0.2-0.6-0.8-1.1-1.5-1.1c-0.7-0.1-1.2,0.4-1.3,1.1c0,0,0,0.1,0,0.1c0,0.8,0.5,1,1.7,1.5
			c1,0.3,2,0.9,2.7,1.7c0.4,0.5,0.6,1.1,0.6,1.7c0.1,1.9-1.4,3.5-3.3,3.5c-0.1,0-0.3,0-0.4,0c-1.7,0-3.3-1.1-3.8-2.8l1.6-0.7
			c0.3,1,1.2,1.7,2.2,1.8c0.9,0,1.7-0.7,1.8-1.6c0,0,0-0.1,0-0.1c0-1-0.7-1.4-1.7-1.8c-1-0.3-1.9-0.9-2.6-1.6
			c-0.4-0.5-0.5-1-0.5-1.6c-0.1-1.6,1.2-2.9,2.8-3c0.1,0,0.2,0,0.4,0c1.3-0.1,2.5,0.7,3,1.9L1016.9,161.1z"/>
		<path class="st1" d="M1031.1,166.6c-0.3,0.7-0.8,1.2-1.3,1.7c-1,0.9-2.3,1.4-3.6,1.3c-2.6,0-5.3-1.6-5.3-5.6c0-3.2,2-5.7,5.2-5.7
			c1.6-0.1,3.1,0.7,4.1,2c0.7,1.2,1.1,2.6,1,4.1h-8.4c-0.1,1.9,1.4,3.6,3.3,3.7c0.1,0,0.1,0,0.2,0c0.8,0,1.6-0.3,2.2-0.8
			c0.5-0.4,0.9-0.9,1.1-1.5L1031.1,166.6z M1029.3,162.8c-0.2-1.6-1.6-2.8-3.2-2.8c-1.6,0-2.9,1.2-3.2,2.8H1029.3z"/>
		<path class="st1" d="M365.3,195.2c0-3.2,2.5-5.7,5.7-5.8c3.2,0,5.7,2.5,5.8,5.7s-2.5,5.7-5.7,5.8c0,0,0,0,0,0
			c-3.1,0.1-5.6-2.3-5.7-5.4C365.3,195.4,365.3,195.3,365.3,195.2z M367.2,195.2c0.1,2.1,1.9,3.7,4,3.6s3.7-1.9,3.6-4
			c-0.1-2-1.8-3.6-3.8-3.6c-2.1,0-3.8,1.6-3.8,3.7C367.2,195,367.2,195.1,367.2,195.2z"/>
		<path class="st1" d="M379.6,189.8h1.9v1.1c0.6-0.9,1.6-1.4,2.7-1.4c1.2,0,2.4,0.6,2.9,1.7c0.7-1.1,1.9-1.8,3.2-1.7
			c3.2,0,3.5,2.7,3.5,4.2v6.8h-1.9V194c0-1.2-0.2-2.8-1.9-2.8c-2.1,0-2.4,2.1-2.4,3.4v6h-1.9v-6.4c0-0.8,0-3-2-3s-2.4,2.2-2.4,3.5
			v5.9h-1.8V189.8z"/>
		<path class="st1" d="M405.3,200.6h-1.9v-19h1.9v9.7c0.9-1.1,2.3-1.8,3.7-1.8c3.4,0,5.3,2.8,5.3,5.7s-1.9,5.6-5.2,5.6
			c-1.5,0-2.9-0.6-3.8-1.8V200.6z M412.3,195.3c0-2.7-1.8-4.1-3.5-4.1c-2.1,0.1-3.7,1.8-3.6,3.9c0,0,0,0.1,0,0.1c0,2.2,1.4,4,3.6,4
			C411,199.2,412.3,197.4,412.3,195.3L412.3,195.3z"/>
		<path class="st1" d="M419,181.6v19h-1.9v-19H419z"/>
		<path class="st1" d="M423.7,198.2c0.7,0,1.3,0.6,1.3,1.3s-0.6,1.3-1.3,1.3c-0.7,0-1.3-0.6-1.3-1.3
			C422.4,198.8,423,198.3,423.7,198.2z"/>
		<path class="st1" d="M436.7,189.8h1.9v10.8h-1.9v-1.5c-0.9,1.2-2.2,1.8-3.7,1.8c-2.7,0-5.3-1.9-5.3-5.7s2.5-5.6,5.3-5.6
			c1.4,0,2.8,0.6,3.7,1.8V189.8z M429.7,195.2c0,2.3,1.3,4,3.5,4c2.2,0,3.6-1.9,3.6-4c0.2-2-1.3-3.8-3.3-4c-0.1,0-0.2,0-0.3,0
			C431.4,191.2,429.7,192.6,429.7,195.2L429.7,195.2z"/>
		<path class="st1" d="M443.3,198.2c0.7,0,1.3,0.6,1.3,1.3s-0.6,1.3-1.3,1.3c-0.7,0-1.3-0.6-1.3-1.3
			C442,198.8,442.6,198.3,443.3,198.2z"/>
		<path class="st1" d="M456,181.6v12.2l4-4h2.4l-4.6,4.6l5.5,6.2h-2.4l-4.3-4.9l-0.5,0.5v4.4h-1.9v-19L456,181.6z"/>
		<path class="st1" d="M465.1,189.8h1.9v1.2c0.5-0.9,1.4-1.4,2.4-1.4c0.6,0,1.1,0.2,1.7,0.4l-0.9,1.7c-0.3-0.2-0.7-0.4-1.1-0.4
			c-0.6,0-1.1,0.2-1.5,0.7c-0.5,0.9-0.7,1.9-0.6,2.9v5.7h-1.9V189.8z"/>
		<path class="st1" d="M471.5,195.2c0-3.2,2.5-5.7,5.7-5.8c3.2,0,5.7,2.5,5.8,5.7s-2.5,5.7-5.7,5.8c0,0,0,0,0,0
			c-3.1,0.1-5.6-2.3-5.7-5.4C471.5,195.4,471.5,195.3,471.5,195.2z M473.4,195.2c0.1,2.1,1.9,3.7,4,3.6s3.7-1.9,3.6-4
			c-0.1-2-1.8-3.6-3.8-3.6c-2.1,0-3.8,1.6-3.8,3.7C473.4,195,473.4,195.1,473.4,195.2z"/>
		<path class="st1" d="M487.7,206.6h-1.9v-16.8h1.9v1.5c0.9-1.1,2.3-1.8,3.7-1.8c3.4,0,5.3,2.8,5.3,5.7s-1.9,5.6-5.2,5.6
			c-1.5,0-2.9-0.6-3.8-1.8V206.6z M494.7,195.3c0-2.7-1.8-4.1-3.5-4.1c-2.1,0.1-3.7,1.8-3.6,3.9c0,0,0,0.1,0,0.1c0,2.2,1.4,4,3.6,4
			C493.4,199.2,494.7,197.4,494.7,195.3L494.7,195.3z"/>
		<path class="st1" d="M500.1,198l1.7,0.6l-2.6,5.9l-1.2-0.5L500.1,198z"/>
		<path class="st1" d="M515.9,192.3c-0.2-0.6-0.8-1.1-1.5-1.1c-0.7-0.1-1.2,0.4-1.3,1.1c0,0,0,0.1,0,0.1c0,0.8,0.5,1,1.7,1.5
			c1,0.3,2,0.9,2.7,1.7c0.4,0.5,0.6,1.1,0.6,1.7c0.1,1.9-1.4,3.5-3.3,3.5c-0.1,0-0.3,0-0.4,0c-1.7,0-3.3-1.1-3.8-2.8l1.6-0.7
			c0.3,1,1.2,1.7,2.2,1.8c0.9,0.1,1.7-0.6,1.8-1.6c0,0,0-0.1,0-0.1c0-1-0.7-1.4-1.7-1.8c-1-0.3-1.9-0.9-2.6-1.6
			c-0.4-0.5-0.5-1-0.5-1.6c-0.1-1.6,1.2-2.9,2.8-3c0.1,0,0.2,0,0.4,0c1.3,0,2.5,0.8,3,2L515.9,192.3z"/>
		<path class="st1" d="M530.1,197.8c-0.3,0.7-0.8,1.2-1.3,1.7c-1,0.9-2.3,1.4-3.6,1.3c-2.6,0-5.3-1.6-5.3-5.6c0-3.2,2-5.7,5.2-5.7
			c1.6-0.1,3.1,0.7,4.1,2c0.7,1.2,1.1,2.6,1,4.1h-8.4c-0.1,1.9,1.3,3.5,3.3,3.7c0.1,0,0.1,0,0.2,0c0.8,0,1.6-0.3,2.2-0.8
			c0.5-0.4,0.9-0.9,1.1-1.5L530.1,197.8z M528.3,194c-0.2-1.6-1.6-2.8-3.2-2.8c-1.6,0-2.9,1.2-3.2,2.8H528.3z"/>
		<path class="st1" d="M536.1,194.8l-3.9-5h2.3l2.8,3.7l2.8-3.7h2.3l-4,5l4.5,5.8h-2.2l-3.4-4.4l-3.4,4.4h-2.3L536.1,194.8z"/>
		<path class="st1" d="M545.5,198l1.7,0.6l-2.6,5.9l-1.2-0.5L545.5,198z"/>
		<path class="st1" d="M558.8,191.5v9.1h-1.9v-9.1h-1v-1.7h1v-4.7c-0.1-1.1,0.2-2.2,1-3c0.6-0.5,1.4-0.7,2.2-0.7
			c0.5,0,0.9,0.1,1.3,0.2v1.8c-0.4-0.2-0.8-0.2-1.2-0.2c-0.5,0-0.9,0.2-1.2,0.6c-0.2,0.5-0.3,1-0.2,1.6v4.5h2.6v1.7L558.8,191.5z"/>
		<path class="st1" d="M572.7,191.7c0.8,1,1.2,2.2,1.1,3.5c-0.1,3.2-2.7,5.7-5.9,5.7c-1.2,0-2.3-0.4-3.3-1.1l-1.6,1.6l-1.2-1.2
			l1.6-1.6c-0.7-1-1-2.2-1-3.4c-0.1-3.1,2.3-5.6,5.4-5.7c0.1,0,0.2,0,0.3,0c1.2-0.1,2.4,0.3,3.4,1l1.6-1.6l1.1,1.2L572.7,191.7z
			 M570.2,191.8c-0.6-0.4-1.3-0.6-2.1-0.6c-2.1,0-3.8,1.6-3.8,3.7c0,0.1,0,0.2,0,0.3c0,0.7,0.2,1.5,0.5,2.1L570.2,191.8z M566,198.6
			c0.6,0.5,1.4,0.7,2.2,0.7c2.1,0,3.8-1.6,3.8-3.6c0-0.1,0-0.2,0-0.4c0-0.8-0.2-1.6-0.6-2.2L566,198.6z"/>
		<path class="st1" d="M578.6,181.6v19h-1.9v-19H578.6z"/>
		<path class="st1" d="M591.7,197.8c-0.3,0.7-0.8,1.2-1.3,1.7c-1,0.9-2.3,1.4-3.6,1.3c-2.6,0-5.3-1.6-5.3-5.6c0-3.2,2-5.7,5.2-5.7
			c1.6-0.1,3.1,0.7,4.1,2c0.7,1.2,1.1,2.6,1,4.1h-8.4c-0.1,1.9,1.3,3.5,3.2,3.7c0.1,0,0.1,0,0.2,0c0.8,0,1.6-0.3,2.2-0.8
			c0.5-0.4,0.9-0.9,1.1-1.5L591.7,197.8z M589.9,194c-0.2-1.6-1.6-2.8-3.2-2.8c-1.6,0-2.9,1.2-3.2,2.8L589.9,194z"/>
		<path class="st1" d="M596.5,181.6v19h-1.9v-19H596.5z"/>
		<path class="st1" d="M604.5,192.3c-0.2-0.6-0.8-1.1-1.5-1.1c-0.7-0.1-1.2,0.4-1.3,1.1c0,0,0,0.1,0,0.1c0,0.8,0.5,1,1.7,1.5
			c1,0.3,2,0.9,2.7,1.7c0.4,0.5,0.6,1.1,0.6,1.7c0.1,1.9-1.4,3.5-3.3,3.5c-0.1,0-0.3,0-0.4,0c-1.7,0-3.3-1.1-3.8-2.8l1.6-0.7
			c0.3,1,1.2,1.7,2.2,1.8c0.9,0.1,1.7-0.6,1.8-1.6c0-0.1,0-0.1,0-0.2c0-1-0.7-1.4-1.7-1.8c-1-0.3-1.9-0.9-2.6-1.6
			c-0.4-0.5-0.5-1-0.5-1.6c-0.1-1.6,1.2-2.9,2.8-3c0.1,0,0.2,0,0.4,0c1.3,0,2.5,0.8,3,2L604.5,192.3z"/>
		<path class="st1" d="M618.8,197.8c-0.3,0.7-0.8,1.2-1.3,1.7c-1,0.9-2.3,1.4-3.6,1.3c-2.6,0-5.3-1.6-5.3-5.6c0-3.2,2-5.7,5.2-5.7
			c1.6-0.1,3.1,0.7,4.1,2c0.7,1.2,1.1,2.6,1,4.1h-8.4c-0.1,1.9,1.3,3.5,3.3,3.7c0.1,0,0.1,0,0.2,0c0.8,0,1.6-0.3,2.2-0.8
			c0.5-0.4,0.9-0.9,1.1-1.5L618.8,197.8z M616.9,194c-0.2-1.6-1.6-2.8-3.2-2.8c-1.6,0-2.9,1.2-3.2,2.8H616.9z"/>
		<path class="st1" d="M621.7,189.8h1.9v1.2c0.5-0.9,1.4-1.4,2.5-1.4c0.6,0,1.1,0.2,1.6,0.4l-0.9,1.7c-0.3-0.2-0.7-0.4-1.1-0.4
			c-0.6,0-1.1,0.2-1.5,0.7c-0.5,0.9-0.7,1.9-0.6,2.9v5.7h-1.9L621.7,189.8z"/>
		<path class="st1" d="M639.9,192.3c-0.2-0.6-0.8-1.1-1.5-1.1c-0.7-0.1-1.2,0.4-1.3,1.1c0,0,0,0.1,0,0.1c0,0.8,0.5,1,1.7,1.5
			c1,0.3,2,0.9,2.7,1.7c0.4,0.5,0.6,1.1,0.6,1.7c0.1,1.9-1.4,3.5-3.3,3.5c-0.1,0-0.3,0-0.4,0c-1.7,0-3.3-1.1-3.8-2.8l1.6-0.7
			c0.3,1,1.2,1.7,2.2,1.8c0.9,0.1,1.7-0.6,1.8-1.6c0,0,0-0.1,0-0.1c0-1-0.7-1.4-1.8-1.8c-1-0.3-1.9-0.9-2.6-1.6
			c-0.4-0.5-0.5-1-0.5-1.6c-0.1-1.6,1.2-2.9,2.8-3c0.1,0,0.2,0,0.4,0c1.3,0,2.5,0.8,3,2L639.9,192.3z"/>
		<path class="st1" d="M654.2,197.8c-0.3,0.7-0.8,1.2-1.3,1.7c-1,0.9-2.3,1.4-3.6,1.3c-2.6,0-5.3-1.6-5.3-5.6c0-3.2,2-5.7,5.2-5.7
			c1.6-0.1,3.1,0.7,4.1,2c0.7,1.2,1.1,2.6,1,4.1h-8.4c-0.1,1.9,1.3,3.5,3.3,3.7c0.1,0,0.1,0,0.2,0c0.8,0,1.6-0.3,2.2-0.8
			c0.5-0.4,0.9-0.9,1.2-1.5L654.2,197.8z M652.3,194c-0.2-1.6-1.6-2.8-3.2-2.8c-1.6,0-2.9,1.2-3.2,2.8H652.3z"/>
		<path class="st1" d="M659,181.6v12.2l4-4h2.4l-4.6,4.6l5.5,6.2h-2.4l-4.3-4.9l-0.5,0.5v4.4h-1.9v-19L659,181.6z"/>
		<path class="st1" d="M672.5,192.3c-0.2-0.6-0.8-1.1-1.5-1.1c-0.7-0.1-1.2,0.4-1.3,1.1c0,0,0,0.1,0,0.1c0,0.8,0.5,1,1.7,1.5
			c1,0.3,2,0.9,2.7,1.7c0.4,0.5,0.6,1.1,0.6,1.7c0.1,1.9-1.4,3.5-3.3,3.5c-0.1,0-0.3,0-0.4,0c-1.7,0-3.3-1.1-3.8-2.8l1.6-0.7
			c0.3,1,1.2,1.7,2.2,1.8c0.9,0.1,1.7-0.6,1.8-1.6c0,0,0-0.1,0-0.1c0-1-0.7-1.4-1.8-1.8c-1-0.3-1.9-0.9-2.6-1.6
			c-0.4-0.5-0.5-1-0.5-1.6c-0.1-1.6,1.2-2.9,2.8-3c0.1,0,0.2,0,0.4,0c1.3,0,2.5,0.8,3,2L672.5,192.3z"/>
		<path class="st1" d="M679.1,196.1c-0.1,0.8,0.1,1.6,0.5,2.3c1,1,2.6,1.1,3.6,0.1c0,0,0.1-0.1,0.1-0.1c0.4-0.7,0.6-1.5,0.5-2.3
			v-6.3h1.9v6.5c0.1,1.2-0.2,2.4-1,3.2c-1.8,1.8-4.8,1.8-6.6,0c-0.8-0.9-1.1-2.1-1-3.2v-6.5h1.9L679.1,196.1z"/>
		<path class="st1" d="M697.7,189.8h1.9v10.8h-1.9v-1.5c-0.9,1.2-2.2,1.8-3.7,1.8c-2.7,0-5.3-1.9-5.3-5.7s2.5-5.6,5.3-5.6
			c1.4,0,2.8,0.6,3.7,1.8V189.8z M690.7,195.2c0,2.3,1.3,4,3.5,4c2.2,0,3.6-1.9,3.6-4c0.2-2-1.3-3.8-3.3-4c-0.1,0-0.2,0-0.3,0
			C692.3,191.2,690.7,192.6,690.7,195.2L690.7,195.2z"/>
		<path class="st1" d="M704.9,181.6v19H703v-19H704.9z"/>
		<path class="st1" d="M709.4,184.4c0.7,0,1.3,0.6,1.3,1.3c0,0.7-0.6,1.3-1.3,1.3c-0.7,0-1.3-0.6-1.3-1.3c0,0,0,0,0,0
			C708.1,185,708.7,184.4,709.4,184.4z M710.3,189.8v10.8h-1.9v-10.8H710.3z"/>
		<path class="st1" d="M715.8,191.5v9.1h-1.9v-9.1h-1.1v-1.7h1.1v-3.9h1.9v3.9h1.9v1.7L715.8,191.5z"/>
		<path class="st1" d="M729,197.8c-0.3,0.7-0.8,1.2-1.3,1.7c-1,0.9-2.3,1.4-3.6,1.3c-2.6,0-5.3-1.6-5.3-5.6c0-3.2,2-5.7,5.2-5.7
			c1.6-0.1,3.1,0.7,4.1,2c0.7,1.2,1.1,2.6,1,4.1h-8.4c-0.1,1.9,1.3,3.5,3.3,3.7c0.1,0,0.1,0,0.2,0c0.8,0,1.6-0.3,2.2-0.8
			c0.5-0.4,0.9-0.9,1.1-1.5L729,197.8z M727.1,194c-0.2-1.6-1.6-2.8-3.2-2.8c-1.6,0-2.9,1.2-3.2,2.8H727.1z"/>
		<path class="st1" d="M733.8,191.5v9.1H732v-9.1h-1.1v-1.7h1.1v-3.9h1.9v3.9h1.9v1.7L733.8,191.5z"/>
		<path class="st1" d="M753.1,197.8c-0.3,0.7-0.8,1.2-1.3,1.7c-1,0.9-2.3,1.4-3.6,1.3c-2.6,0-5.3-1.6-5.3-5.6c0-3.2,2-5.7,5.2-5.7
			c1.6-0.1,3.1,0.7,4.1,2c0.7,1.2,1.1,2.6,1,4.1h-8.4c-0.1,1.9,1.3,3.5,3.3,3.7c0.1,0,0.1,0,0.2,0c0.8,0,1.6-0.3,2.2-0.8
			c0.5-0.4,0.9-0.9,1.1-1.5L753.1,197.8z M751.3,194c-0.2-1.6-1.6-2.8-3.2-2.8c-1.6,0-2.9,1.2-3.2,2.8H751.3z"/>
		<path class="st1" d="M757.9,181.6v19h-1.9v-19H757.9z"/>
		<path class="st1" d="M763.3,181.6v19h-1.9v-19H763.3z"/>
		<path class="st1" d="M776.4,197.8c-0.3,0.7-0.8,1.2-1.3,1.7c-1,0.9-2.3,1.4-3.6,1.3c-2.6,0-5.3-1.6-5.3-5.6c0-3.2,2-5.7,5.2-5.7
			c1.6-0.1,3.1,0.7,4.1,2c0.7,1.2,1.1,2.6,1,4.1h-8.4c-0.1,1.9,1.3,3.5,3.3,3.7c0.1,0,0.1,0,0.2,0c0.8,0,1.6-0.3,2.2-0.8
			c0.5-0.4,0.9-0.9,1.1-1.5L776.4,197.8z M774.6,194c-0.2-1.6-1.6-2.8-3.2-2.8c-1.6,0-2.9,1.2-3.2,2.8H774.6z"/>
		<path class="st1" d="M779.4,189.8h1.9v1.2c0.5-0.9,1.4-1.4,2.5-1.4c0.6,0,1.1,0.2,1.7,0.4l-0.9,1.7c-0.3-0.2-0.7-0.4-1.1-0.4
			c-0.6,0-1.1,0.2-1.5,0.7c-0.5,0.9-0.7,1.9-0.6,2.9v5.7h-1.9V189.8z"/>
		<path class="st1" d="M795,206.6h-1.9v-16.8h1.9v1.5c0.9-1.1,2.3-1.8,3.7-1.8c3.4,0,5.2,2.8,5.2,5.7s-1.9,5.6-5.2,5.6
			c-1.5,0-2.9-0.6-3.8-1.8L795,206.6z M802,195.3c0-2.7-1.8-4.1-3.5-4.1c-2.1,0.1-3.7,1.8-3.6,3.9c0,0,0,0.1,0,0.1
			c0,2.2,1.4,4,3.6,4C800.7,199.2,802,197.4,802,195.3L802,195.3z"/>
		<path class="st1" d="M806.8,189.8h1.9v1.2c0.5-0.9,1.4-1.4,2.4-1.4c0.6,0,1.2,0.2,1.7,0.4l-0.9,1.7c-0.3-0.2-0.7-0.4-1.1-0.4
			c-0.6,0-1.1,0.2-1.5,0.7c-0.5,0.9-0.7,1.9-0.6,2.9v5.7h-1.9L806.8,189.8z"/>
		<path class="st1" d="M831.1,197.9c-0.9,1.9-2.8,3-4.9,3c-1.7,0.1-3.3-0.7-4.2-2.2c-0.8,1.4-2.4,2.3-4,2.2c-2.5,0-4.7-1.1-4.7-3.5
			s2-3.6,4.5-3.6c1.1,0,2.2,0.3,3.1,0.9c0.1-0.8-0.1-1.6-0.5-2.3c-0.5-0.9-1.5-1.4-2.6-1.2c-1.1,0-2.3,0.3-3.3,0.7v-1.8
			c1.1-0.4,2.2-0.6,3.3-0.6c1.7-0.2,3.3,0.7,4.1,2.2c0.9-1.4,2.5-2.2,4.2-2.2c3.2,0,5.2,2.3,5.2,5.9v0.2h-8.4
			c-0.1,1.9,1.5,3.6,3.4,3.7c1.4-0.1,2.7-1,3.3-2.3L831.1,197.9z M815.1,197.4c0,0.8,0.6,1.8,2.7,1.8s2.9-1.1,2.9-1.9
			s-0.7-1.8-2.8-1.8C816.1,195.5,815.1,196.4,815.1,197.4z M829.3,194c-0.2-1.8-1.8-3-3.6-2.8c-1.5,0.2-2.6,1.3-2.8,2.8H829.3z"/>
		<path class="st1" d="M834.6,189.8l3.2,7.3l3.2-7.3h2.1l-5.3,11.5l-5.3-11.5H834.6z"/>
		<path class="st1" d="M854.7,197.8c-0.3,0.7-0.8,1.2-1.3,1.7c-1,0.9-2.3,1.4-3.6,1.3c-2.6,0-5.3-1.6-5.3-5.6c0-3.2,2-5.7,5.2-5.7
			c1.6-0.1,3.1,0.7,4.1,2c0.7,1.2,1.1,2.6,1,4.1h-8.4c-0.1,1.9,1.3,3.5,3.3,3.7c0.1,0,0.1,0,0.2,0c0.8,0,1.6-0.3,2.2-0.8
			c0.5-0.4,0.9-0.9,1.1-1.5L854.7,197.8z M852.8,194c-0.2-1.6-1.6-2.8-3.2-2.8c-1.6,0-2.9,1.2-3.2,2.8L852.8,194z"/>
		<path class="st1" d="M857.6,189.8h1.9v1.2c0.7-1,1.9-1.5,3.1-1.5c1.2,0,2.4,0.5,3.1,1.5c0.5,0.9,0.7,1.9,0.6,2.9v6.7h-1.9V194
			c0.1-0.7-0.1-1.4-0.5-2c-0.4-0.5-1.1-0.8-1.8-0.8c-0.7,0-1.4,0.3-1.9,0.8c-0.6,0.9-0.9,1.9-0.8,2.9v5.6h-1.9L857.6,189.8z"/>
		<path class="st1" d="M871.7,191.5v9.1h-1.9v-9.1h-1.1v-1.7h1.1v-3.9h1.9v3.9h1.9v1.7L871.7,191.5z"/>
		<path class="st1" d="M876.3,184.4c0.7,0,1.3,0.6,1.3,1.3c0,0.7-0.6,1.3-1.3,1.3c-0.7,0-1.3-0.6-1.3-1.3c0,0,0,0,0,0
			C875,185,875.6,184.4,876.3,184.4z M877.3,189.8v10.8h-1.9v-10.8H877.3z"/>
		<path class="st1" d="M880.1,195.2c0-3.2,2.5-5.7,5.7-5.8c3.2,0,5.7,2.5,5.8,5.7c0,3.2-2.5,5.7-5.7,5.8c0,0,0,0,0,0
			c-3.1,0.1-5.6-2.3-5.7-5.4C880.1,195.4,880.1,195.3,880.1,195.2z M882,195.2c0.1,2.1,1.9,3.7,4,3.6s3.7-1.9,3.6-4
			c-0.1-2-1.8-3.6-3.8-3.6c-2.1,0-3.8,1.6-3.8,3.7C882,195,882,195.1,882,195.2z"/>
		<path class="st1" d="M894.4,189.8h1.9v1.2c0.7-1,1.9-1.5,3.1-1.5c1.2-0.1,2.4,0.5,3.1,1.5c0.5,0.9,0.7,1.9,0.6,2.9v6.7h-1.9V194
			c0.1-0.7-0.1-1.4-0.5-2c-0.4-0.5-1.1-0.8-1.8-0.8c-0.7,0-1.4,0.3-1.9,0.8c-0.6,0.9-0.9,1.9-0.8,2.9v5.6h-1.9L894.4,189.8z"/>
		<path class="st1" d="M907.8,198.2c0.7,0,1.3,0.6,1.3,1.3c0,0.7-0.6,1.3-1.3,1.3c-0.7,0-1.3-0.6-1.3-1.3c0,0,0,0,0,0
			C906.5,198.8,907.1,198.3,907.8,198.2z"/>
		<path class="st1" d="M608.4,58.5c4.2,0,7.8,0.5,11.2,2.9c3.7,2.9,5.9,7.4,5.8,12.1c0.2,4.8-2.1,9.3-6,12.1
			c-3.5,2.5-6.8,2.9-11,2.9h-7.7v-30L608.4,58.5z M606.4,83.5h1.8c2.6,0.1,5.2-0.6,7.3-2c2.5-1.9,3.8-4.9,3.7-8c0.1-3.1-1.3-6-3.7-8
			c-2.2-1.4-4.8-2.1-7.4-2h-1.8L606.4,83.5z"/>
		<path class="st1" d="M636.6,58.5v18.9c-0.1,1.6,0.4,3.2,1.4,4.4c2.5,2.6,6.6,2.8,9.2,0.3c0.1-0.1,0.2-0.2,0.3-0.3
			c1-1.3,1.5-2.8,1.4-4.4V58.5h5.8v18.4c0,2.8-0.5,5.7-2.2,8c-2.2,2.8-5.9,4.3-9.8,4.3s-7.6-1.5-9.8-4.3c-1.8-2.3-2.2-5.2-2.2-8
			V58.5H636.6z"/>
		<path class="st1" d="M680.9,58.5c4.1,0,6.2,1.1,7.6,2.2c2,1.7,3.1,4.2,3,6.8c0.1,2.8-1.2,5.5-3.5,7.1c-1,0.7-2.1,1.1-3.3,1.3
			l9.4,12.6h-7.3l-8-12h-0.7v12h-5.9v-30L680.9,58.5z M678,72.4h1.6c1.1,0,5.8-0.1,5.8-4.6s-4.6-4.5-5.7-4.5H678L678,72.4z"/>
		<path class="st1" d="M699.9,83.2c-2-2.8-3.1-6.2-3.1-9.6c-0.1-4.2,1.5-8.3,4.5-11.3c3-3,6.8-4.4,11.5-4.4c3.4-0.1,6.8,0.9,9.6,2.8
			l4-4l3.3,3.3l-4,4c2,2.8,3.1,6.1,3.1,9.6c0.1,4.2-1.5,8.2-4.4,11.2c-3.7,3.8-8.2,4.5-11.7,4.5c-3.4,0.2-6.8-0.8-9.6-2.8l-4,4
			l-3.3-3.3L699.9,83.2z M718.4,64.8c-1.7-1-3.6-1.6-5.6-1.6c-2.6-0.1-5.1,0.9-6.9,2.7c-2.1,2.1-3.2,4.9-3.1,7.9
			c0,1.8,0.4,3.7,1.3,5.3L718.4,64.8z M707.3,82.4c1.7,1,3.6,1.5,5.5,1.5c2.7,0.1,5.2-0.9,7.1-2.8c1.9-2,3-4.7,2.9-7.5
			c0-1.9-0.4-3.7-1.3-5.4L707.3,82.4z"/>
		<path class="st1" d="M749.8,72.5h13.8v0.4c0,2-0.3,8.3-4.4,12.4c-3.1,3.1-6.9,4-10.7,4c-3.7,0-7.6-0.8-10.9-4
			c-3-3.1-4.6-7.3-4.5-11.6c-0.1-4.2,1.5-8.2,4.4-11.2c3.1-3.1,7.4-4.8,11.8-4.6c2.4-0.1,4.8,0.5,6.9,1.6c2.4,1.3,4.3,3.2,5.6,5.5
			l-5.1,2.8c-0.8-1.5-2-2.8-3.5-3.6c-1.3-0.6-2.8-0.9-4.2-0.9c-2.6,0-5,0.9-6.9,2.6c-2,2.1-3.1,5-3,7.9c-0.1,2.8,1,5.6,3,7.6
			c1.8,1.7,4.2,2.6,6.7,2.6c2.1,0,4.2-0.6,5.9-1.8c1.4-1.2,2.4-2.8,2.8-4.6h-7.7L749.8,72.5z"/>
		<path class="st1" d="M785.3,58.5v30h-5.8v-30H785.3z"/>
		<path class="st1" d="M818.5,63.6h-10.1v6.7h9.5v5h-9.5v13.3h-5.9v-30h15.9V63.6z"/>
		<path class="st1" d="M838.1,82.2H826l-2.7,6.3h-6.3l13-30h15.8l2,5h-11l2.7,6.7h10.8l2.1,5h-10.9l3.3,8.2H856l2,5h-17.2
			L838.1,82.2z M836.4,77.5l-4.1-10.8l-4.4,10.8H836.4z"/>
		<path class="st1" d="M861.7,88.6v-30h4l18.3,20v-20h5.8v30h-4l-18.3-20.1v20.1H861.7z"/>
		<path class="st1" d="M911.8,72.5h13.8v0.4c0,2-0.3,8.3-4.4,12.4c-3.1,3.1-6.9,4-10.7,4s-7.6-0.8-10.9-4c-3-3.1-4.6-7.3-4.5-11.6
			c-0.1-4.2,1.5-8.2,4.4-11.2c3.1-3.1,7.4-4.8,11.8-4.6c2.4-0.1,4.8,0.5,6.9,1.6c2.4,1.3,4.3,3.2,5.6,5.5l-5.1,2.8
			c-0.8-1.5-2-2.8-3.5-3.6c-1.3-0.6-2.8-0.9-4.2-0.9c-2.6,0-5,0.9-6.9,2.6c-2,2.1-3.1,5-3,7.9c-0.1,2.8,1,5.6,3,7.6
			c1.8,1.7,4.2,2.6,6.7,2.6c2.1,0,4.2-0.6,5.9-1.8c1.4-1.2,2.4-2.8,2.8-4.6h-7.7L911.8,72.5z"/>
		<path class="st1" d="M945.8,65.4c-1.1-1.6-2.9-2.6-4.9-2.6c-3.2,0-4.1,2-4.1,3.5c0,0.8,0.3,1.5,0.9,2c0.7,0.7,1.7,1,3.6,1.7
			c2.3,0.8,4.5,1.6,6.1,3c1.7,1.6,2.7,3.9,2.6,6.3c0,5.8-4.2,9.8-10.4,9.8c-4.2,0-8.1-2.2-10.3-5.7l3.8-3.6c1.2,2.4,3.6,4,6.3,4
			c2.7,0,4.6-1.6,4.6-4.1c0-1-0.4-2-1.2-2.7c-1.4-1-3-1.8-4.6-2.2c-1.8-0.5-3.5-1.4-5-2.6c-1.6-1.4-2.5-3.4-2.4-5.5
			c0-4.4,3-8.8,9.6-8.8c3.2-0.1,6.3,1.2,8.5,3.5L945.8,65.4z"/>
		<path class="st1" d="M971.7,63.6h-10.8v6.7h10.3v5h-10.3v8.2h10.8v5H955v-30h16.6V63.6z"/>
		<path class="st1" d="M983.2,58.5v25h9.3v5h-15.1v-30H983.2z"/>
	</g>
	<g>
		<path class="st2" d="M346.7,51.3v352.5c0,12.5-7.3,23.3-17.7,28.2c-3.8,1.8-8.1,2.8-12.6,2.8H32.1c0,0,0,0,0,0
			c-7.2,0-13.7-2.5-18.9-6.8c-3.1-2.6-5.8-5.8-7.7-9.4c-2.3-4.4-3.7-9.4-3.7-14.8V51.3c0-9.8,4.4-18.5,11.4-24.2
			c5.2-4.2,11.8-6.8,18.9-6.8c0,0,0,0,0,0h284.3c4.5,0,8.7,1,12.6,2.8C339.5,28,346.7,38.8,346.7,51.3z"/>
		<path class="st3" d="M81.3,314.2l-40,34.7l-22.4,32.3l-9,26l-4.3,11.4c-2.3-4.4-3.7-9.4-3.7-14.8v-58.7l20.6-42.8l26-30.6
			c4.7-3.6,11.5-2.8,15.1,1.9l19.7,25.5C86.8,303.8,85.9,310.6,81.3,314.2z"/>
		<path class="st3" d="M346.7,325.1v68.4l-13.2-24.1l-35.9-25.1L253.9,314c-4.5-3.9-5-10.7-1.1-15.2l21.1-24.4
			c3.9-4.5,10.7-5,15.2-1.1l46.5,39.3c1,0.9,2,1.8,2.9,2.9L346.7,325.1z"/>
		<polygon class="st3" points="211.6,313 121.9,310.3 137.2,236.8 198.1,239.5 		"/>
		<path class="st4" d="M297.3,289.8c-0.4,1.5-1,2.9-1.8,4.3l-2.4,7.5l-3.5,11.1l-3.5,11.1l-3.5,11.1l-4,12.6l-3.5,11.1l-4,12.6
			l-3.5,11.1l-3.7,11.8l-3.5,11.1l-3.3,10.3l-3.5,11.1l-2.7,8.5H92l-3-8.5l-3.9-11.1l-3.6-10.3l-3.9-11.1l-4.1-11.8L69.7,371
			l-4.4-12.6l-3.9-11.1L57,334.8l-3.9-11.1l-3.9-11.1l-3.9-11.1l-2.6-7.5c-0.8-1.4-1.4-2.9-1.8-4.3c-1-3.8-0.6-7.7,0.9-11.1
			c2.6-5.8,8.3-10.2,15.6-10.2h63.8c1.3,0,2.6,0.4,3.7,1.3l11.5,9l14.2,11.1l15.2,11.8l2,1.5c2.2,1.7,5.2,1.7,7.4,0l1.9-1.5
			l14.8-11.8l13.9-11.1l11.1-8.9c1-0.8,2.4-1.3,3.7-1.3h60.2c7.3,0,13.1,4.4,15.6,10.2C297.9,282.1,298.3,286,297.3,289.8z"/>
		<path class="st3" d="M228.6,253.9l-113.8,0.5c-7.5,0-13.4-6.3-12.7-13.8l11.7-142.5c0.5-6.6,6.1-11.7,12.7-11.7h84.1
			c6.4,0,11.8,4.8,12.6,11.1l17.9,142C242.2,247.2,236.3,253.9,228.6,253.9z"/>
		<path d="M218.9,77.2l-36.8-1.9c-0.1,0-0.1,0-0.2,0h-47c-0.2,0-0.4,0-0.6,0.1l-22.2,5.1c-1.4,0.3-5.2,2.8-5.5,4.3l-2.8,11.5
			c0,0.2,0,0.4,0,0.5l-0.4,40.2c0,0.1,0,0.3,0,0.4l1.5,13.3c0,0.4,0.2,0.8,0.3,1.2l1.8,2.5c1.4,2.8,3.7-0.1,4.6-3.1l7.8-28.6
			c0-0.2,0.1-0.3,0.1-0.5l2.4-20.6c0.2-1.5,1.3-2.7,2.8-3l12.4-2.3c0.3,0,0.5-0.1,0.8-0.1l71.8,3.1c0.6,0,1.2,0.2,1.8,0.6l11.7,8.2
			c2,1.3,2.5-1.5,3.1-3.8l1.7-7.4c0.2-0.7,0.1-1.4-0.1-2l-5.9-15.3C221.4,78.1,220.3,77.2,218.9,77.2z"/>
		<path class="st5" d="M93.9,163.7l-18.4,22.2c-1.6,1.9-4.4,2.1-6.2,0.6c-0.4-0.3-0.7-0.7-1-1.1l-7-12.1c-1.2-2.1-0.5-4.8,1.6-6
			c0.2-0.1,0.4-0.2,0.6-0.3l25.4-10c2.3-0.9,4.8,0.3,5.7,2.6C95.1,160.9,94.9,162.5,93.9,163.7z"/>
		<path class="st5" d="M84.4,132.5l-26.5,7.3c-2.3,0.7-4.8-0.6-5.5-2.9c-0.1-0.4-0.2-0.9-0.2-1.3v-14.7c0-2.4,1.9-4.4,4.4-4.5
			c0.4,0,0.9,0.1,1.3,0.2l26.5,7.4c2.4,0.7,3.7,3.1,3.1,5.4C87.1,130.9,85.9,132.1,84.4,132.5z"/>
		<path class="st5" d="M88,102.1L63.2,90.8c-2.2-1-3.2-3.6-2.2-5.8c0.1-0.2,0.2-0.4,0.3-0.6l7.6-11.7c1.3-2,4.1-2.6,6.1-1.3
			c0.4,0.3,0.8,0.6,1.1,1.1l17.3,23.1c1.4,2,1,4.7-1,6.2C91.2,102.6,89.5,102.8,88,102.1z"/>
		<path class="st5" d="M243.6,167.5l18.4,22.2c1.6,1.9,4.3,2.1,6.2,0.6c0.4-0.3,0.7-0.7,1-1.2l7.1-12.1c1.2-2.1,0.5-4.8-1.6-6
			c-0.2-0.1-0.4-0.2-0.6-0.3l-25.4-10c-2.3-0.9-4.8,0.2-5.7,2.4C242.3,164.5,242.6,166.3,243.6,167.5z"/>
		<path class="st5" d="M246.7,128.7l26.5,7.3c2.3,0.7,4.8-0.7,5.4-3c0.1-0.4,0.2-0.8,0.2-1.2v-14.7c0-2.4-2-4.4-4.4-4.4
			c-0.4,0-0.8,0.1-1.2,0.2l-26.5,7.4c-2.4,0.7-3.7,3.1-3.1,5.4C244.1,127.1,245.2,128.3,246.7,128.7z"/>
		<path class="st5" d="M247.5,105.9l24.9-11.4c2.2-1,3.2-3.6,2.2-5.8c-0.1-0.2-0.2-0.4-0.3-0.6l-7.6-11.7c-1.3-2-4-2.6-6.1-1.3
			c-0.4,0.3-0.8,0.6-1.1,1.1l-17.3,23.1c-1.4,2-1,4.7,1,6.2C244.5,106.4,246.1,106.6,247.5,105.9z"/>
		<g>
			<ellipse transform="matrix(0.9887 -0.1498 0.1498 0.9887 -20.7741 24.4053)" cx="151.6" cy="150.1" rx="11.1" ry="16.1"/>

				<ellipse transform="matrix(0.9887 -0.1498 0.1498 0.9887 -22.3424 24.7652)" class="st1" cx="153.2" cy="160.7" rx="4.8" ry="5.4"/>
			<path class="st1" d="M144.3,154.8c-0.1-1,1.1-2,2.9-2.2s3.2,0.3,3.4,1.3"/>
		</g>
		<g>
			<ellipse transform="matrix(0.1095 -0.994 0.994 0.1095 26.2627 331.1739)" cx="198" cy="150.9" rx="15.7" ry="10.9"/>
			<ellipse transform="matrix(0.1095 -0.994 0.994 0.1095 14.911 339.2916)" class="st1" cx="196.8" cy="161.3" rx="5.2" ry="4.6"/>
			<path class="st1" d="M205.3,155.2c0.1-0.9-1.2-1.9-2.9-2c-1.7-0.2-3.1,0.4-3.2,1.4"/>
		</g>
		<path class="st6" d="M190.5,222.4c2.4,8.2-7.7,8.2-17.1,8.2s-19.6,0-17.1-8.2c2.6-8.6,7.7-16.5,17.1-16.5S188,213.8,190.5,222.4z"
			/>
		<path class="st1" d="M136.5,278.7l14.2,11.1H41c-1-3.8-0.6-7.7,0.9-11.1H136.5z"/>
		<path class="st1" d="M297.3,289.8H191.9l13.9-11.1h90.7C297.9,282.1,298.3,286,297.3,289.8z"/>
		<path class="st1" d="M293.2,301.6l-3.5,11.1H49.3l-3.9-11.1h120.5l2,1.5c2.2,1.7,5.2,1.7,7.4,0l1.9-1.5H293.2z"/>
		<polygon class="st1" points="286.1,323.7 282.6,334.8 57,334.8 53.1,323.7 		"/>
		<polygon class="st1" points="278.7,347.4 275.2,358.4 65.3,358.4 61.4,347.4 		"/>
		<polygon class="st1" points="271.2,371 267.7,382.1 73.5,382.1 69.7,371 		"/>
		<polygon class="st1" points="263.9,393.9 260.4,404.9 81.5,404.9 77.7,393.9 		"/>
		<polygon class="st1" points="257.2,415.3 253.6,426.4 89,426.4 85.1,415.3 		"/>
		<path class="st4" d="M236.5,79c-0.2,1-0.6,1.9-1.1,2.8c-1.9,3.2-5.3,5.4-9.3,5.4H104.8c-1.7,0-3.4-0.4-4.8-1.1
			c-2.8-1.4-4.7-4-5.4-7c-0.4-1.6-0.4-3.4,0-5.1l0.7-2.8l1.7-7.3c0.1-0.2,0.1-0.4,0.2-0.6c0.7-2.4,1.5-5.3,2.7-7.9
			c1.7-3.9,4.1-7.1,7.6-7.1h118.3c3.6,0,6,3.2,7.4,7.1c0.8,2.2,1.2,4.6,1.3,6.7c0,0.4,0,0.8,0.1,1.2c0,0.2,0,0.4,0.1,0.5l1.3,7.3
			l0.6,3.5C236.8,76.1,236.8,77.6,236.5,79z"/>
		<path class="st1" d="M234.5,63.3H97.2c0.7-2.4,1.5-5.3,2.7-7.9h133.2c0.8,2.2,1.2,4.6,1.3,6.7C234.4,62.5,234.4,62.9,234.5,63.3z"
			/>
		<path class="st1" d="M236.5,79H94.6c-0.4-1.6-0.4-3.4,0-5.1l0.7-2.8h140.6l0.6,3.5C236.8,76.1,236.8,77.6,236.5,79z"/>
		<path d="M151,119.8l-18,10.7c-0.4,0.2-0.5,0.7-0.3,1.1l0.8,1.6c0.1,0.4,0.6,0.5,0.9,0.4c0,0,0.1,0,0.1,0l18-10.7
			c0.4-0.2,0.5-0.7,0.3-1.1l-0.8-1.6C151.9,119.8,151.5,119.6,151,119.8C151.1,119.8,151.1,119.8,151,119.8z"/>
		<path d="M198.2,119.9l16.1,8.9c0.3,0.2,0.4,0.6,0.3,1l-0.6,1.4c-0.1,0.3-0.5,0.5-0.8,0.4c0,0-0.1,0-0.1,0l-16.1-8.9
			c-0.3-0.2-0.4-0.6-0.3-1l0.6-1.4C197.5,120,197.8,119.8,198.2,119.9C198.1,119.9,198.2,119.9,198.2,119.9z"/>
		<rect x="94.8" y="20.6" width="18.9" height="414.3"/>
		<rect x="214.3" y="20.6" width="18.9" height="414.3"/>
		<path d="M329.3,23.4v408.8c-3.8,1.8-8.1,2.8-12.6,2.8h-6.4V20.6h6.4C321.2,20.6,325.4,21.6,329.3,23.4z"/>
		<path d="M32.4,20.6v414.3c-7.2,0-13.7-2.5-18.9-6.8V27.4C18.7,23.1,25.2,20.6,32.4,20.6z"/>
	</g>
</g>
</svg>
