<?xml version="1.0" encoding="utf-8"?>
<!-- Generator: Adobe Illustrator 23.0.1, SVG Export Plug-In . SVG Version: 6.00 Build 0)  -->
<svg version="1.1" id="Layer_1" xmlns="http://www.w3.org/2000/svg" xmlns:xlink="http://www.w3.org/1999/xlink" x="0px" y="0px"
	 viewBox="0 0 1120 430" style="enable-background:new 0 0 1120 430;" xml:space="preserve">
<style type="text/css">
	.st0{fill:#F4912D;}
	.st1{fill:#FFFFFF;}
	.st2{fill:#FFD48D;}
	.st3{fill:#E9ECED;}
	.st4{fill:#89CCE5;}
	.st5{fill:#8F6745;}
	.st6{clip-path:url(#SVGID_2_);}
	.st7{fill:#664931;}
	.st8{fill:#6A4C33;}
	.st9{fill:#6E4F35;}
	.st10{fill:#725237;}
	.st11{fill:#765539;}
	.st12{fill:#7A573B;}
	.st13{clip-path:url(#SVGID_4_);}
	.st14{clip-path:url(#SVGID_6_);}
	.st15{fill:#7D5A3D;}
	.st16{fill:#815D3F;}
	.st17{fill:#856041;}
	.st18{fill:#896343;}
	.st19{fill:#8D6644;}
	.st20{clip-path:url(#SVGID_8_);}
	.st21{fill:#845F40;}
	.st22{clip-path:url(#SVGID_10_);}
	.st23{clip-path:url(#SVGID_12_);}
	.st24{clip-path:url(#SVGID_14_);}
	.st25{clip-path:url(#SVGID_16_);}
	.st26{fill:#966C49;}
	.st27{clip-path:url(#SVGID_18_);}
	.st28{clip-path:url(#SVGID_20_);}
	.st29{clip-path:url(#SVGID_22_);}
	.st30{clip-path:url(#SVGID_24_);}
	.st31{fill:#A77851;}
	.st32{fill:#020202;}
</style>
<title>slutskaerm_plet</title>
<path class="st0" d="M361.8,0.5H1083c20.4,0,36.9,16.5,36.9,36.9v355.3c0,20.4-16.5,36.9-36.9,36.9H361.8
	c-20.4,0-36.9-16.5-36.9-36.9V37.4C324.9,17,341.4,0.5,361.8,0.5z"/>
<path class="st1" d="M518.3,87.4c-3.6-5-5.5-11-5.4-17.1c-0.2-7.5,2.7-14.8,8-20.1c5.4-5.4,12.1-7.8,20.5-7.8
	c6.1-0.2,12.1,1.6,17.1,5l7.1-7l5.8,5.8l-7,7c3.6,4.9,5.5,10.9,5.4,17c0.1,7.4-2.7,14.6-7.8,20c-6.6,6.7-14.5,7.9-20.7,7.9
	c-6.7,0-11.8-1.2-17.1-5l-7.1,7.1l-5.9-5.8L518.3,87.4z M551.3,54.6c-3-1.9-6.4-2.8-9.9-2.8c-4.6-0.1-9,1.6-12.3,4.7
	c-3.6,3.4-5.4,8.1-5.4,14c-0.1,3.3,0.8,6.5,2.4,9.4L551.3,54.6z M531.5,85.9c3,1.8,6.4,2.7,9.9,2.7c4.7,0.2,9.3-1.6,12.6-5
	c3.4-3.6,5.3-8.4,5.1-13.4c0-3.3-0.8-6.6-2.3-9.6L531.5,85.9z"/>
<path class="st1" d="M583.7,43.5l14.2,35.8l14.2-35.8h11.4L601,96.9h-6.2l-22.4-53.4H583.7z"/>
<path class="st1" d="M633.8,85.4c3.4,0,6.2,2.8,6.2,6.2s-2.8,6.2-6.2,6.2s-6.2-2.8-6.2-6.2l0,0l0,0c-0.1-3.4,2.7-6.2,6.1-6.2l0,0
	H633.8z M628.8,80.6V43.5h9.9v37.1H628.8z"/>
<path class="st1" d="M388.1,128.3h3.5c2.3-0.1,4.6,0.6,6.4,2c2,1.6,3.1,4.1,3,6.7c0.1,2.6-1,5-3,6.7c-1.6,1.4-3.2,2-6.3,2h-3.6
	V128.3z M390,143.9h1.7c1.8,0.1,3.6-0.5,5-1.6c1.5-1.3,2.4-3.3,2.3-5.3c0-4.2-2.9-6.9-7.3-6.9H390V143.9z"/>
<path class="st1" d="M406,141.2c-0.1,0.8,0.1,1.6,0.5,2.3c1,1.1,2.6,1.1,3.6,0.2l0.2-0.2c0.4-0.7,0.6-1.5,0.5-2.3v-6.3h1.9v6.5
	c0.1,1.2-0.2,2.4-1,3.2c-1.8,1.8-4.8,1.8-6.6,0c-0.8-0.9-1.1-2.1-1-3.2v-6.5h1.9V141.2z"/>
<path class="st1" d="M424.1,145.7h-1.9v-19h1.9v9.7c0.9-1.1,2.3-1.8,3.7-1.8c3.4,0,5.2,2.8,5.2,5.7s-1.9,5.6-5.2,5.6
	c-1.5,0-2.9-0.6-3.8-1.8L424.1,145.7L424.1,145.7z M431.1,140.4c0-2.6-1.8-4.1-3.5-4.1c-2.1,0.1-3.7,1.8-3.6,3.9v0.1
	c0,2.2,1.4,4,3.6,4S431.1,142.5,431.1,140.4L431.1,140.4z"/>
<path class="st1" d="M445.5,136.8c0.8,1,1.2,2.2,1.1,3.5c-0.1,3.2-2.7,5.7-5.9,5.7l0,0c-1.2,0-2.3-0.4-3.3-1.1l-1.6,1.6l-1.2-1.2
	l1.6-1.6c-0.7-1-1-2.2-1-3.4c-0.1-3.1,2.3-5.6,5.4-5.7l0,0h0.3c1.2-0.1,2.4,0.3,3.4,1l1.6-1.6l1.1,1.2L445.5,136.8z M443,136.9
	c-0.6-0.4-1.3-0.6-2.1-0.6c-2.1,0-3.8,1.6-3.8,3.6l0,0c0,0.1,0,0.2,0,0.3c0,0.7,0.2,1.5,0.5,2.1L443,136.9z M438.8,143.7
	c0.6,0.5,1.4,0.7,2.1,0.7c2.1,0,3.8-1.6,3.8-3.7l0,0c0-0.1,0-0.2,0-0.3c0-0.8-0.2-1.6-0.6-2.2L438.8,143.7z"/>
<path class="st1" d="M449.5,134.9h1.8v1.2c0.5-0.9,1.4-1.4,2.5-1.4c0.6,0,1.1,0.2,1.7,0.4l-0.9,1.7c-0.8-0.6-1.9-0.4-2.6,0.3
	c-0.5,0.9-0.7,1.9-0.6,2.9v5.7h-1.9V134.9z"/>
<path class="st1" d="M465.2,126.7v19h-1.9v-19H465.2z"/>
<path class="st1" d="M485.9,143c-0.9,1.9-2.8,3-4.9,3c-1.7,0.1-3.3-0.8-4.2-2.2c-0.8,1.4-2.4,2.3-4.1,2.2c-2.5,0-4.6-1.1-4.6-3.5
	s2-3.6,4.5-3.6c1.1-0.1,2.2,0.3,3.1,0.9c0-0.8-0.1-1.6-0.5-2.3c-0.6-0.9-1.6-1.4-2.6-1.2c-1.1,0.1-2.3,0.3-3.3,0.7v-1.8
	c1.1-0.4,2.2-0.6,3.4-0.6c1.7-0.2,3.3,0.7,4.1,2.2c0.9-1.4,2.5-2.2,4.2-2.2c3.1,0,5.1,2.3,5.1,5.9v0.2h-8.4c-0.1,2,1.5,3.6,3.4,3.7
	c1.5-0.1,2.7-1,3.3-2.3L485.9,143z M469.9,142.5c0,0.8,0.6,1.9,2.7,1.9s2.9-1.1,2.9-1.9s-0.7-1.8-2.8-1.8
	C470.9,140.6,469.9,141.4,469.9,142.5L469.9,142.5z M484.1,139.1c-0.2-1.6-1.6-2.9-3.2-2.8c-1.6,0-3,1.2-3.2,2.8H484.1z"/>
<path class="st1" d="M493.3,137.4c-0.2-0.6-0.8-1.1-1.5-1.1c-0.6-0.1-1.2,0.4-1.3,1.1l0,0v0.1c0,0.8,0.5,1,1.7,1.5
	c1,0.3,2,0.9,2.7,1.7c0.4,0.5,0.6,1.1,0.6,1.7c0.1,1.9-1.4,3.5-3.3,3.6c-0.1,0-0.3,0-0.4,0c-1.7,0-3.3-1.1-3.8-2.8l1.6-0.7
	c0.3,1,1.2,1.7,2.2,1.8c0.9,0.1,1.7-0.7,1.8-1.6l0,0v-0.1c0-1-0.7-1.4-1.7-1.8c-1-0.3-1.9-0.9-2.6-1.6c-0.3-0.5-0.5-1-0.5-1.6
	c-0.1-1.6,1.2-2.9,2.8-3h0.4c1.3,0,2.5,0.8,3,2L493.3,137.4z"/>
<path class="st1" d="M507.6,142.9c-0.3,0.7-0.8,1.2-1.3,1.7c-1,0.9-2.3,1.4-3.6,1.3c-2.6,0-5.3-1.6-5.3-5.6c0-3.2,2-5.7,5.2-5.7
	c1.6-0.1,3.1,0.7,4.1,2c0.7,1.2,1.1,2.6,1,4.1h-8.4c-0.1,1.9,1.3,3.5,3.2,3.7l0,0h0.2c0.8,0,1.6-0.3,2.2-0.8
	c0.5-0.4,0.9-0.9,1.1-1.5L507.6,142.9z M505.7,139.1c-0.2-1.6-1.6-2.8-3.2-2.8s-2.9,1.2-3.2,2.8H505.7z"/>
<path class="st1" d="M515.9,140.3c0-3.2,2.5-5.7,5.7-5.8c3.2,0,5.7,2.5,5.8,5.7c0,3.2-2.5,5.7-5.7,5.8l0,0c-3,0.1-5.6-2.3-5.7-5.3
	l0,0C515.9,140.6,515.9,140.4,515.9,140.3z M517.8,140.3c0.1,2.1,1.9,3.7,4,3.6s3.7-1.9,3.6-4c-0.1-2-1.8-3.6-3.8-3.6
	c-2.1,0-3.8,1.6-3.8,3.7l0,0V140.3z"/>
<path class="st1" d="M532,151.7h-1.9v-16.8h1.9v1.5c0.9-1.1,2.3-1.8,3.7-1.8c3.4,0,5.2,2.8,5.2,5.7s-1.9,5.6-5.2,5.6
	c-1.5,0-2.9-0.6-3.8-1.8L532,151.7L532,151.7z M539,140.4c0-2.6-1.8-4.1-3.5-4.1c-2.1,0.1-3.7,1.8-3.6,3.9v0.1c-0.2,2,1.3,3.8,3.4,4
	h0.2C537.7,144.3,539.1,142.5,539,140.4L539,140.4z"/>
<path class="st1" d="M551.8,151.7h-1.9v-16.8h1.9v1.5c0.9-1.1,2.3-1.8,3.7-1.8c3.4,0,5.3,2.8,5.3,5.7s-1.9,5.6-5.2,5.6
	c-1.5,0-2.9-0.6-3.8-1.8V151.7z M558.8,140.4c0-2.6-1.8-4.1-3.5-4.1c-2.1,0.1-3.7,1.8-3.6,3.9v0.1c0,2.2,1.4,4,3.6,4
	S558.8,142.5,558.8,140.4L558.8,140.4z"/>
<path class="st1" d="M571.8,134.9h1.9v10.8h-1.9v-1.5c-0.9,1.2-2.2,1.8-3.7,1.8c-2.7,0-5.2-1.9-5.2-5.7s2.5-5.6,5.2-5.6
	c1.4,0,2.8,0.6,3.7,1.8V134.9z M564.8,140.3c0,2.3,1.3,4.1,3.5,4.1c2-0.1,3.7-1.8,3.6-3.8c0-0.1,0-0.1,0-0.2c0.2-2-1.3-3.8-3.3-4
	l0,0h-0.3C566.5,136.3,564.8,137.6,564.8,140.3L564.8,140.3z M568.8,128.3c1.5,0,2.7,1.2,2.6,2.7c0,1.5-1.2,2.7-2.7,2.6
	s-2.7-1.2-2.6-2.7C566.2,129.5,567.3,128.3,568.8,128.3L568.8,128.3z M568.8,131.6c0.6,0,1.1-0.5,1.1-1.1s-0.5-1.1-1.1-1.1
	s-1.1,0.5-1.1,1.1C567.8,131.1,568.2,131.6,568.8,131.6L568.8,131.6z"/>
<path class="st1" d="M583.3,134.9h1.9v1.2c0.5-0.9,1.4-1.4,2.4-1.4c0.6,0,1.2,0.2,1.7,0.4l-0.9,1.7c-0.3-0.2-0.7-0.4-1.1-0.4
	c-0.6,0-1.1,0.2-1.5,0.7c-0.5,0.9-0.7,1.9-0.6,2.9v5.7h-1.9L583.3,134.9L583.3,134.9z"/>
<path class="st1" d="M600,142.9c-0.3,0.7-0.8,1.2-1.3,1.7c-1,0.9-2.3,1.4-3.6,1.3c-2.6,0-5.3-1.6-5.3-5.6c0-3.2,2-5.7,5.2-5.7
	c1.6-0.1,3.1,0.7,4.1,2c0.7,1.2,1.1,2.6,1,4.1h-8.4c-0.1,1.9,1.3,3.5,3.2,3.7l0,0h0.2c0.8,0,1.6-0.3,2.2-0.8
	c0.5-0.4,0.9-0.9,1.1-1.5L600,142.9z M598.2,139.1c-0.2-1.6-1.6-2.8-3.2-2.8c-1.6,0-2.9,1.2-3.2,2.8H598.2z"/>
<path class="st1" d="M611.2,134.9h1.8v10.5c0.1,1.5-0.2,3-1,4.2c-1,1.3-2.6,2.1-4.3,2c-1.4,0-2.8-0.5-3.8-1.5
	c-0.9-0.9-1.4-2.2-1.4-3.5h1.8c0,0.8,0.3,1.6,0.8,2.2c0.7,0.7,1.6,1.1,2.6,1c1.2,0.1,2.3-0.5,2.9-1.5c0.5-0.8,0.7-1.8,0.6-2.8v-1.6
	c-0.9,1.2-2.2,1.8-3.7,1.8c-1.4,0-2.7-0.5-3.7-1.5c-1.1-1.2-1.6-2.7-1.6-4.3c-0.1-1.6,0.5-3.1,1.6-4.2c1-0.9,2.3-1.5,3.7-1.4
	c1.5,0,2.8,0.6,3.7,1.8L611.2,134.9L611.2,134.9z M605.2,137.3c-0.8,0.8-1.1,1.9-1.1,3c-0.1,1.2,0.4,2.3,1.2,3.2
	c1.3,1.2,3.4,1.2,4.7,0c0.8-0.8,1.2-2,1.2-3.1s-0.4-2.2-1.1-3.1c-0.7-0.6-1.5-1-2.5-1C606.8,136.3,605.9,136.7,605.2,137.3
	L605.2,137.3z"/>
<path class="st1" d="M618.4,126.7v19h-1.9v-19H618.4z"/>
<path class="st1" d="M631.5,142.9c-0.3,0.7-0.8,1.2-1.3,1.7c-1,0.9-2.3,1.4-3.6,1.3c-2.6,0-5.3-1.6-5.3-5.6c0-3.2,2-5.7,5.2-5.7
	c1.6-0.1,3.1,0.7,4.1,2c0.7,1.2,1.1,2.6,1,4.1h-8.4c-0.1,1.9,1.3,3.5,3.2,3.7l0,0h0.2c0.8,0,1.6-0.3,2.2-0.8
	c0.5-0.4,0.9-0.9,1.2-1.5L631.5,142.9z M629.7,139.1c-0.2-1.6-1.6-2.8-3.2-2.8c-1.6,0-2.9,1.2-3.2,2.8H629.7z"/>
<path class="st1" d="M634.5,134.9h1.9v1.2c0.5-0.9,1.4-1.4,2.4-1.4c0.6,0,1.2,0.2,1.7,0.4l-0.9,1.7c-0.8-0.6-1.9-0.4-2.6,0.3
	c-0.5,0.9-0.7,1.9-0.6,2.9v5.7h-1.9L634.5,134.9z"/>
<path class="st1" d="M642.2,134.9h1.9v1.2c0.7-1,1.9-1.5,3.1-1.5c1.2,0,2.4,0.5,3.1,1.5c0.5,0.9,0.7,1.9,0.6,2.9v6.7H649v-6.6
	c0.1-0.7-0.1-1.4-0.5-2c-0.4-0.5-1.1-0.8-1.8-0.8s-1.4,0.3-1.9,0.8c-0.6,0.9-0.8,1.9-0.8,2.9v5.6h-1.9L642.2,134.9z"/>
<path class="st1" d="M664,142.9c-0.3,0.7-0.8,1.2-1.3,1.7c-1,0.9-2.3,1.4-3.6,1.3c-2.6,0-5.3-1.6-5.3-5.6c0-3.2,2-5.7,5.2-5.7
	c1.6-0.1,3.1,0.7,4.1,2c0.7,1.2,1.1,2.6,1,4.1h-8.4c-0.1,1.9,1.3,3.5,3.2,3.7l0,0h0.2c0.8,0,1.6-0.3,2.2-0.8
	c0.5-0.4,0.9-0.9,1.1-1.5L664,142.9z M662.2,139.1c-0.2-1.6-1.5-2.8-3.2-2.8c-1.6,0-2.9,1.2-3.2,2.8H662.2z"/>
<path class="st1" d="M672.3,140.3c0-3.2,2.5-5.7,5.7-5.8c3.2,0,5.7,2.5,5.8,5.7c0,3.2-2.5,5.7-5.7,5.8l0,0c-3.1,0.1-5.6-2.3-5.7-5.4
	C672.3,140.5,672.3,140.4,672.3,140.3z M674.2,140.3c0.1,2.1,1.9,3.7,4,3.6c2.1-0.1,3.7-1.9,3.6-4c-0.1-2-1.8-3.6-3.8-3.6
	c-2.1,0-3.8,1.6-3.8,3.7l0,0V140.3z"/>
<path class="st1" d="M686.6,134.9h1.9v1.1c0.6-0.9,1.6-1.4,2.7-1.4c1.2,0,2.4,0.6,2.9,1.7c0.7-1.1,1.9-1.8,3.2-1.7
	c3.2,0,3.5,2.7,3.5,4.2v6.8H699V139c0-1.2-0.2-2.8-1.9-2.8c-2.2,0-2.4,2.1-2.4,3.4v6h-1.9v-6.4c0-0.8,0-3-2-3
	c-2.1,0-2.4,2.2-2.4,3.5v5.9h-1.9L686.6,134.9z"/>
<path class="st1" d="M712.4,145.7h-1.9v-19h1.9v9.7c0.9-1.1,2.3-1.8,3.7-1.8c3.4,0,5.2,2.8,5.2,5.7s-1.9,5.7-5.2,5.7
	c-1.5,0-2.9-0.6-3.8-1.8L712.4,145.7z M719.4,140.4c0-2.6-1.8-4.1-3.5-4.1c-2.1,0.1-3.7,1.8-3.6,3.9v0.1c-0.2,2,1.3,3.8,3.4,4h0.2
	C718,144.3,719.4,142.5,719.4,140.4z"/>
<path class="st1" d="M725.1,129.5c0.7,0,1.3,0.6,1.3,1.3s-0.6,1.3-1.3,1.3s-1.3-0.6-1.3-1.3l0,0
	C723.7,130.1,724.3,129.5,725.1,129.5L725.1,129.5z M726,134.9v10.8h-1.9v-10.8H726z"/>
<path class="st1" d="M731.4,126.7v19h-1.9v-19H731.4z"/>
<path class="st1" d="M736.8,126.7v19H735v-19H736.8z"/>
<path class="st1" d="M749.9,142.9c-0.3,0.7-0.8,1.2-1.3,1.7c-1,0.9-2.3,1.4-3.6,1.3c-2.6,0-5.3-1.6-5.3-5.6c0-3.2,2-5.7,5.2-5.7
	c1.6-0.1,3.1,0.7,4.1,2c0.7,1.2,1.1,2.6,1,4.1h-8.4c-0.1,1.9,1.3,3.5,3.2,3.7l0,0h0.2c0.8,0,1.6-0.3,2.2-0.8
	c0.5-0.4,0.9-0.9,1.1-1.5L749.9,142.9z M748.1,139.1c-0.2-1.6-1.6-2.8-3.2-2.8c-1.6,0-2.9,1.2-3.2,2.8H748.1z"/>
<path class="st1" d="M761.1,126.7h1.9v19h-1.9v-1.5c-0.9,1.2-2.2,1.8-3.7,1.8c-2.7,0-5.3-1.9-5.3-5.7s2.5-5.6,5.3-5.6
	c1.4,0,2.8,0.6,3.7,1.8V126.7z M754.1,140.3c0,2.3,1.3,4.1,3.5,4.1s3.6-1.9,3.6-4c0.2-2-1.2-3.8-3.2-4c0,0,0,0-0.1,0h-0.3
	C755.8,136.3,754.1,137.6,754.1,140.3L754.1,140.3z"/>
<path class="st1" d="M774.8,126.7h1.9v19h-1.9v-1.5c-0.9,1.2-2.2,1.8-3.7,1.8c-2.7,0-5.2-1.9-5.2-5.7s2.5-5.6,5.2-5.6
	c1.4,0,2.8,0.6,3.7,1.8V126.7z M767.8,140.3c0,2.3,1.3,4.1,3.5,4.1c2.1-0.1,3.7-1.8,3.6-3.8c0-0.1,0-0.1,0-0.2c0.2-2-1.2-3.8-3.2-4
	c0,0,0,0-0.1,0h-0.3C769.5,136.3,767.8,137.6,767.8,140.3L767.8,140.3z"/>
<path class="st1" d="M789.8,142.9c-0.3,0.7-0.8,1.2-1.3,1.7c-1,0.9-2.3,1.4-3.6,1.3c-2.6,0-5.3-1.6-5.3-5.6c0-3.2,2-5.7,5.2-5.7
	c1.6-0.1,3.1,0.7,4.1,2c0.7,1.2,1.1,2.6,1,4.1h-8.4c-0.1,1.9,1.3,3.5,3.2,3.7l0,0h0.2c0.8,0,1.6-0.3,2.2-0.8
	c0.5-0.4,0.9-0.9,1.1-1.5L789.8,142.9z M787.9,139.1c-0.2-1.6-1.6-2.8-3.2-2.8c-1.6,0-2.9,1.2-3.2,2.8H787.9z"/>
<path class="st1" d="M794.6,126.7v19h-1.9v-19H794.6z"/>
<path class="st1" d="M799.1,129.5c0.7,0,1.3,0.6,1.3,1.3s-0.6,1.3-1.3,1.3s-1.3-0.6-1.3-1.3l0,0
	C797.7,130.1,798.3,129.5,799.1,129.5z M800,134.9v10.8h-1.9v-10.8H800z"/>
<path class="st1" d="M803.5,134.9h1.8v1.2c0.7-1,1.9-1.5,3.1-1.5c1.2,0,2.4,0.5,3.1,1.5c0.5,0.9,0.7,1.9,0.6,2.9v6.7h-1.8v-6.6
	c0.1-0.7-0.1-1.4-0.5-2c-0.4-0.5-1.1-0.8-1.8-0.8s-1.4,0.3-1.9,0.8c-0.6,0.8-0.9,1.9-0.8,2.9v5.6h-1.9L803.5,134.9z"/>
<path class="st1" d="M824,134.9h1.9v10.5c0.1,1.5-0.2,3-1,4.2c-1,1.3-2.6,2.1-4.3,2c-1.4,0-2.8-0.5-3.8-1.5
	c-0.9-0.9-1.4-2.2-1.4-3.5h1.8c0,0.8,0.3,1.6,0.8,2.3c0.7,0.7,1.6,1.1,2.6,1c1.2,0.1,2.3-0.5,2.9-1.5c0.5-0.8,0.7-1.8,0.6-2.8V144
	c-0.9,1.2-2.2,1.9-3.7,1.9c-1.4,0-2.7-0.5-3.7-1.5c-1.1-1.2-1.6-2.7-1.6-4.3c-0.1-1.6,0.5-3.1,1.6-4.2c1-0.9,2.3-1.5,3.7-1.4
	c1.4,0,2.8,0.6,3.7,1.8L824,134.9z M818.1,137.3c-0.7,0.8-1.1,1.9-1.1,3c-0.1,1.2,0.4,2.3,1.2,3.2c0.6,0.6,1.5,0.9,2.3,0.9
	c0.9,0,1.7-0.3,2.4-0.9c0.8-0.8,1.3-2,1.2-3.1c0-1.1-0.4-2.2-1.2-3c-0.7-0.6-1.5-1-2.4-1C819.6,136.3,818.7,136.7,818.1,137.3
	L818.1,137.3z"/>
<path class="st1" d="M830,143.1l1.7,0.6l-2.6,5.9l-1.2-0.5L830,143.1z"/>
<path class="st1" d="M841.4,126.7h1.9v9.4c0.7-1,1.9-1.5,3.1-1.5c1.2-0.1,2.4,0.5,3.1,1.5c0.5,0.9,0.7,1.9,0.6,2.9v6.7h-1.9v-6.6
	c0.1-0.7-0.1-1.4-0.5-2c-0.4-0.5-1.1-0.8-1.8-0.8s-1.4,0.3-1.9,0.8c-0.6,0.9-0.9,1.9-0.8,2.9v5.6h-1.9v-18.9H841.4z"/>
<path class="st1" d="M854.2,134.9l3.2,7.3l3.2-7.3h2.1l-5.3,11.5l-5.3-11.5H854.2z"/>
<path class="st1" d="M865.6,129.5c0.7,0,1.3,0.6,1.3,1.3s-0.6,1.3-1.3,1.3s-1.3-0.6-1.3-1.3l0,0
	C864.3,130.1,864.9,129.5,865.6,129.5z M866.5,134.9v10.8h-1.9v-10.8H866.5z"/>
<path class="st1" d="M874.5,137.4c-0.2-0.6-0.8-1.1-1.5-1.1c-0.7-0.1-1.2,0.4-1.3,1.1v0.1c0,0.8,0.5,1,1.8,1.5c1,0.3,2,0.9,2.7,1.7
	c0.4,0.5,0.6,1.1,0.6,1.7c0.1,1.9-1.4,3.5-3.3,3.6c-0.1,0-0.3,0-0.4,0c-1.7,0-3.3-1.1-3.8-2.8l1.6-0.7c0.3,1,1.2,1.7,2.2,1.8
	c0.9,0.1,1.7-0.7,1.8-1.6l0,0v-0.1c0-1-0.7-1.4-1.7-1.8c-1-0.3-1.9-0.9-2.6-1.6c-0.3-0.5-0.5-1-0.5-1.6c-0.1-1.6,1.2-2.9,2.8-3h0.4
	c1.3,0,2.5,0.8,3,2L874.5,137.4z"/>
<path class="st1" d="M893.5,126.7h1.8v19h-1.9v-1.5c-0.9,1.2-2.2,1.8-3.7,1.8c-2.7,0-5.2-1.9-5.2-5.7s2.5-5.6,5.2-5.6
	c1.4,0,2.8,0.6,3.7,1.8L893.5,126.7z M886.5,140.3c0,2.3,1.3,4.1,3.5,4.1c2-0.1,3.7-1.8,3.6-3.8c0-0.1,0-0.1,0-0.2
	c0.2-2-1.3-3.8-3.3-4l0,0H890C888.2,136.3,886.5,137.6,886.5,140.3L886.5,140.3z"/>
<path class="st1" d="M900.8,141.2c-0.1,0.8,0.1,1.6,0.5,2.3c1,1.1,2.6,1.1,3.6,0.2l0.2-0.2c0.4-0.7,0.6-1.5,0.5-2.3v-6.3h1.9v6.5
	c0.1,1.2-0.2,2.4-1,3.2c-1.8,1.8-4.8,1.8-6.6,0c-0.8-0.9-1.1-2.1-1-3.2v-6.5h1.9L900.8,141.2z"/>
<path class="st1" d="M918.1,129.5c0.7,0,1.3,0.6,1.3,1.3s-0.6,1.3-1.3,1.3s-1.3-0.6-1.3-1.3l0,0
	C916.7,130.1,917.3,129.5,918.1,129.5L918.1,129.5z M919,134.9v10.8h-1.9v-10.8H919z"/>
<path class="st1" d="M924.4,126.7v12.2l4-4h2.4l-4.6,4.6l5.5,6.2h-2.4l-4.3-4.9l-0.5,0.5v4.4h-1.9v-19H924.4z"/>
<path class="st1" d="M935.4,126.7v12.2l4-4h2.4l-4.6,4.6l5.5,6.2h-2.4l-4.3-4.9l-0.5,0.5v4.4h-1.9v-19H935.4z"/>
<path class="st1" d="M953.8,142.9c-0.3,0.7-0.8,1.2-1.3,1.7c-1,0.9-2.3,1.4-3.6,1.3c-2.6,0-5.3-1.6-5.3-5.6c0-3.2,2-5.7,5.2-5.7
	c1.6-0.1,3.1,0.7,4.1,2c0.7,1.2,1.1,2.6,1,4.1h-8.4c-0.1,1.9,1.3,3.5,3.2,3.7l0,0h0.2c0.8,0,1.6-0.3,2.2-0.8
	c0.5-0.4,0.9-0.9,1.1-1.5L953.8,142.9z M951.9,139.1c-0.2-1.6-1.6-2.8-3.2-2.8c-1.6,0-2.9,1.2-3.2,2.8H951.9z"/>
<path class="st1" d="M963.3,134.9l3.2,7.3l3.2-7.3h2.1l-5.3,11.5l-5.3-11.5H963.3z"/>
<path class="st1" d="M974.7,129.5c0.7,0,1.3,0.6,1.3,1.3s-0.6,1.3-1.3,1.3s-1.3-0.6-1.3-1.3l0,0C973.4,130.1,974,129.5,974.7,129.5
	L974.7,129.5z M975.7,134.9v10.8h-1.9v-10.8H975.7z"/>
<path class="st1" d="M981.1,126.7v19h-1.9v-19H981.1z"/>
<path class="st1" d="M990.7,134.9h1.9v1.2c0.5-0.9,1.4-1.4,2.4-1.4c0.6,0,1.2,0.2,1.7,0.4l-0.9,1.7c-0.8-0.6-1.9-0.4-2.6,0.3
	c-0.5,0.9-0.7,1.9-0.6,2.9v5.7h-1.9L990.7,134.9L990.7,134.9z"/>
<path class="st1" d="M999.3,129.5c0.7,0,1.3,0.6,1.3,1.3s-0.6,1.3-1.3,1.3s-1.3-0.6-1.3-1.3l0,0C998,130.1,998.6,129.5,999.3,129.5
	L999.3,129.5z M1000.2,134.9v10.8h-1.9v-10.8H1000.2z"/>
<path class="st1" d="M1008.2,137.4c-0.2-0.6-0.8-1.1-1.5-1.1c-0.7-0.1-1.2,0.4-1.3,1.1v0.1c0,0.8,0.5,1,1.7,1.5c1,0.3,2,0.9,2.7,1.7
	c0.4,0.5,0.6,1.1,0.6,1.7c0.1,1.9-1.4,3.5-3.3,3.6c-0.1,0-0.3,0-0.4,0c-1.7,0-3.3-1.1-3.8-2.8l1.6-0.7c0.3,1,1.2,1.7,2.2,1.8
	c0.9,0.1,1.7-0.6,1.8-1.5l0,0v-0.1c0-1-0.7-1.4-1.7-1.8c-1-0.3-1.9-0.9-2.6-1.6c-0.3-0.5-0.5-1-0.5-1.6c-0.1-1.6,1.2-2.9,2.8-3h0.4
	c1.3,0,2.5,0.8,3,2L1008.2,137.4z"/>
<path class="st1" d="M1013.9,129.5c0.7,0,1.3,0.6,1.3,1.3s-0.6,1.3-1.3,1.3s-1.3-0.6-1.3-1.3l0,0
	C1012.5,130.1,1013.1,129.5,1013.9,129.5L1013.9,129.5z M1014.8,134.9v10.8h-1.9v-10.8H1014.8z"/>
<path class="st1" d="M1020.2,126.7v12.2l4-4h2.4l-4.6,4.6l5.5,6.2h-2.5l-4.3-4.9l-0.5,0.5v4.4h-1.8v-19H1020.2z"/>
<path class="st1" d="M1038.6,142.9c-0.3,0.7-0.8,1.2-1.3,1.7c-1,0.9-2.3,1.4-3.6,1.3c-2.6,0-5.3-1.6-5.3-5.6c0-3.2,2-5.7,5.2-5.7
	c1.6-0.1,3.1,0.7,4.1,2c0.7,1.2,1.1,2.6,1,4.1h-8.4c-0.1,1.9,1.3,3.5,3.2,3.7l0,0h0.2c0.8,0,1.6-0.3,2.2-0.8
	c0.5-0.4,0.9-0.9,1.1-1.5L1038.6,142.9z M1036.8,139.1c-0.2-1.6-1.6-2.8-3.2-2.8s-2.9,1.2-3.2,2.8H1036.8z"/>
<path class="st1" d="M1041.6,134.9h1.9v1.2c0.5-0.9,1.4-1.4,2.4-1.4c0.6,0,1.2,0.2,1.7,0.4l-0.9,1.7c-0.8-0.6-1.9-0.4-2.6,0.3
	c-0.5,0.9-0.7,1.9-0.6,2.9v5.7h-1.9V134.9z"/>
<path class="st1" d="M1058.2,142.9c-0.3,0.7-0.8,1.2-1.3,1.7c-1,0.9-2.3,1.4-3.6,1.3c-2.6,0-5.3-1.6-5.3-5.6c0-3.2,2-5.7,5.2-5.7
	c1.6-0.1,3.1,0.7,4.1,2c0.7,1.2,1.1,2.6,1,4.1h-8.4c-0.1,1.9,1.3,3.5,3.2,3.7l0,0h0.2c0.8,0,1.6-0.3,2.2-0.8
	c0.5-0.4,0.9-0.9,1.1-1.5L1058.2,142.9z M1056.4,139.1c-0.2-1.6-1.6-2.8-3.2-2.8s-2.9,1.2-3.2,2.8H1056.4z"/>
<path class="st1" d="M397.2,174.1c-0.3,0.7-0.8,1.2-1.3,1.7c-1,0.9-2.3,1.4-3.6,1.3c-2.6,0-5.3-1.6-5.3-5.6c0-3.2,2-5.7,5.2-5.7
	c1.6-0.1,3.1,0.7,4.1,2c0.7,1.2,1.1,2.6,1,4.1h-8.4c-0.1,1.9,1.4,3.5,3.3,3.6h0.2c0.8,0,1.6-0.3,2.2-0.8c0.5-0.4,0.9-0.9,1.1-1.5
	L397.2,174.1z M395.4,170.3c-0.2-1.6-1.6-2.8-3.2-2.8s-2.9,1.2-3.2,2.8H395.4z"/>
<path class="st1" d="M400.1,166.1h1.9v1.2c0.7-1,1.9-1.5,3.1-1.5s2.4,0.5,3.1,1.5c0.5,0.9,0.7,1.9,0.6,2.9v6.7H407v-6.6
	c0.1-0.7-0.1-1.4-0.5-2c-0.4-0.5-1.1-0.8-1.8-0.8c-0.7,0-1.4,0.3-1.9,0.8c-0.6,0.9-0.9,1.9-0.8,2.9v5.6h-1.9L400.1,166.1z"/>
<path class="st1" d="M420.3,182.9h-1.9v-16.8h1.9v1.5c0.9-1.1,2.3-1.8,3.7-1.8c3.4,0,5.2,2.8,5.2,5.7s-1.9,5.6-5.2,5.6
	c-1.5,0-2.9-0.6-3.8-1.8L420.3,182.9z M427.3,171.6c0-2.7-1.8-4.1-3.5-4.1c-2.1,0.1-3.7,1.8-3.6,3.9v0.1c0,2.2,1.4,4,3.6,4
	S427.3,173.7,427.3,171.6L427.3,171.6z"/>
<path class="st1" d="M434,157.9v19h-1.9v-19H434z"/>
<path class="st1" d="M447.1,174.1c-0.3,0.7-0.8,1.2-1.3,1.7c-1,0.9-2.3,1.4-3.6,1.3c-2.6,0-5.3-1.6-5.3-5.6c0-3.2,2-5.7,5.2-5.7
	c1.6-0.1,3.1,0.7,4.1,2c0.7,1.2,1.1,2.6,1,4.1h-8.4c-0.1,1.9,1.4,3.5,3.3,3.7h0.2c0.8,0,1.6-0.3,2.2-0.8c0.5-0.4,0.9-0.9,1.1-1.5
	L447.1,174.1z M445.2,170.3c-0.2-1.6-1.6-2.8-3.2-2.8s-2.9,1.2-3.2,2.8H445.2z"/>
<path class="st1" d="M451.9,167.8v9.1H450v-9.1h-1.1v-1.7h1.1v-3.9h1.9v3.9h1.9v1.7H451.9z"/>
<path class="st1" d="M463.5,182.9h-1.9v-16.8h1.9v1.5c0.9-1.1,2.3-1.8,3.7-1.8c3.4,0,5.2,2.8,5.2,5.7s-1.9,5.6-5.2,5.6
	c-1.5,0-2.9-0.6-3.8-1.8L463.5,182.9z M470.5,171.6c0-2.7-1.8-4.1-3.5-4.1c-2.1,0.1-3.7,1.8-3.6,3.9v0.1c0,2.2,1.4,4,3.6,4
	S470.5,173.7,470.5,171.6L470.5,171.6z"/>
<path class="st1" d="M483.6,166.1h1.9v10.8h-1.9v-1.5c-0.9,1.2-2.2,1.8-3.7,1.8c-2.7,0-5.2-1.9-5.2-5.7s2.5-5.6,5.2-5.6
	c1.5,0,2.8,0.6,3.7,1.8V166.1z M476.6,171.5c0,2.3,1.3,4.1,3.5,4.1c2.1-0.1,3.7-1.8,3.6-3.8c0-0.1,0-0.1,0-0.2c0.2-2-1.2-3.8-3.2-4
	c0,0,0,0-0.1,0h-0.3C478.3,167.5,476.6,168.9,476.6,171.5L476.6,171.5z M480.6,159.5c1.2,0,2.2,1,2.2,2.2s-1,2.2-2.2,2.2
	s-2.2-1-2.2-2.2l0,0C478.4,160.5,479.3,159.5,480.6,159.5L480.6,159.5z M480.6,162.8c0.6,0,1.1-0.5,1.1-1.1s-0.5-1.1-1.1-1.1
	s-1.1,0.5-1.1,1.1l0,0l0,0C479.5,162.3,480,162.8,480.6,162.8L480.6,162.8z"/>
<path class="st1" d="M503.3,157.9h1.9v19h-1.9v-1.5c-0.9,1.2-2.2,1.8-3.7,1.8c-2.7,0-5.2-1.9-5.2-5.7s2.5-5.6,5.2-5.6
	c1.4,0,2.8,0.6,3.7,1.8V157.9z M496.3,171.5c0,2.3,1.3,4.1,3.5,4.1s3.6-1.9,3.6-4c0.2-2-1.2-3.8-3.2-4c0,0,0,0-0.1,0h-0.3
	C498,167.5,496.3,168.8,496.3,171.5L496.3,171.5z"/>
<path class="st1" d="M509.4,160.7c0.7,0,1.3,0.6,1.4,1.3s-0.6,1.3-1.3,1.4c-0.7,0-1.3-0.6-1.4-1.3V162
	C508.1,161.3,508.7,160.7,509.4,160.7z M510.3,166.1v10.8h-1.9v-10.8H510.3z"/>
<path class="st1" d="M513.9,166.1h1.9v1.2c0.7-1,1.9-1.5,3.1-1.5c1.2-0.1,2.4,0.5,3.1,1.5c0.5,0.9,0.7,1.9,0.6,2.9v6.7h-1.9v-6.6
	c0.1-0.7-0.1-1.4-0.5-2c-0.4-0.5-1.1-0.8-1.8-0.8s-1.4,0.3-1.9,0.8c-0.6,0.9-0.9,1.9-0.8,2.9v5.6h-1.9L513.9,166.1z"/>
<path class="st1" d="M536.6,168.6c-0.2-0.6-0.8-1.1-1.5-1.1c-0.7-0.1-1.2,0.4-1.3,1.1v0.1c0,0.8,0.5,1,1.7,1.5c1,0.3,2,0.9,2.7,1.7
	c0.4,0.5,0.6,1.1,0.6,1.7c0.1,1.9-1.4,3.5-3.3,3.5l0,0h-0.4c-1.7,0-3.3-1.1-3.8-2.8l1.6-0.7c0.3,1,1.2,1.7,2.2,1.8
	c0.9,0,1.7-0.7,1.8-1.6l0,0v-0.1c0-1-0.7-1.4-1.7-1.8c-1-0.3-1.9-0.9-2.6-1.6c-0.4-0.5-0.5-1-0.5-1.6c-0.1-1.6,1.2-2.9,2.8-3h0.4
	c1.3,0,2.5,0.8,3,2L536.6,168.6z"/>
<path class="st1" d="M543.2,167.8v9.1h-1.8v-9.1h-1.2v-1.7h1.2v-3.9h1.9v3.9h1.9v1.7H543.2z"/>
<path class="st1" d="M546.9,166.1h1.9v1.2c0.5-0.9,1.4-1.4,2.4-1.4c0.6,0,1.2,0.2,1.7,0.4L552,168c-0.3-0.2-0.7-0.4-1.1-0.4
	c-0.6,0-1.1,0.2-1.5,0.7c-0.5,0.9-0.7,1.9-0.6,2.9v5.7h-1.9V166.1z"/>
<path class="st1" d="M562.3,166.1h1.9v10.8h-1.9v-1.5c-0.9,1.2-2.2,1.8-3.7,1.8c-2.7,0-5.2-1.9-5.2-5.7s2.5-5.6,5.2-5.6
	c1.5,0,2.8,0.6,3.7,1.8V166.1z M555.3,171.5c0,2.3,1.3,4.1,3.5,4.1c2.1-0.1,3.7-1.8,3.6-3.8c0-0.1,0-0.1,0-0.2c0.2-2-1.2-3.8-3.2-4
	c0,0,0,0-0.1,0h-0.3C557,167.5,555.3,168.9,555.3,171.5L555.3,171.5z"/>
<path class="st1" d="M569.6,167.8v9.1h-1.9v-9.1h-1v-1.7h1v-4.7c-0.1-1.1,0.2-2.2,1-3c0.6-0.5,1.4-0.7,2.2-0.7
	c0.5,0,0.9,0.1,1.3,0.2v1.8c-0.4-0.2-0.8-0.2-1.2-0.2c-0.5,0-0.9,0.2-1.2,0.6c-0.2,0.5-0.3,1-0.2,1.6v4.5h2.7v1.7L569.6,167.8z"/>
<path class="st1" d="M576.4,167.8v9.1h-1.9v-9.1h-1v-1.7h1v-4.7c-0.1-1.1,0.2-2.2,1-3c0.6-0.5,1.4-0.7,2.2-0.7
	c0.5,0,0.9,0.1,1.3,0.2v1.8c-0.4-0.2-0.8-0.2-1.2-0.2c-0.5,0-0.9,0.2-1.2,0.6c-0.2,0.5-0.3,1-0.2,1.6v4.5h2.7v1.7L576.4,167.8z"/>
<path class="st1" d="M590.3,174.1c-0.3,0.7-0.8,1.2-1.3,1.7c-1,0.9-2.2,1.4-3.5,1.3c-2.6,0-5.3-1.6-5.3-5.6c0-3.2,2-5.7,5.2-5.7
	c1.6-0.1,3.1,0.7,4.1,2c0.7,1.2,1.1,2.6,1,4.1H582c-0.1,1.9,1.4,3.5,3.3,3.7h0.2c0.8,0,1.6-0.3,2.2-0.8c0.5-0.4,0.9-0.9,1.1-1.5
	L590.3,174.1z M588.4,170.3c-0.2-1.6-1.6-2.8-3.2-2.8c-1.6,0-2.9,1.2-3.2,2.8H588.4z"/>
<path class="st1" d="M601.5,166.1h1.9v10.8h-1.9v-1.5c-0.9,1.2-2.2,1.8-3.7,1.8c-2.7,0-5.2-1.9-5.2-5.7s2.5-5.6,5.2-5.6
	c1.5,0,2.8,0.6,3.7,1.8V166.1z M594.5,171.5c0,2.3,1.3,4.1,3.5,4.1c2.1-0.1,3.7-1.8,3.6-3.8c0-0.1,0-0.1,0-0.2c0.2-2-1.2-3.8-3.2-4
	c0,0,0,0-0.1,0H598C596.1,167.5,594.5,168.9,594.5,171.5L594.5,171.5z"/>
<path class="st1" d="M608.8,167.8v9.1h-1.9v-9.1h-1.2v-1.7h1.2v-3.9h1.9v3.9h1.9v1.7H608.8z"/>
<path class="st1" d="M614.9,167.8v9.1H613v-9.1h-1.1v-1.7h1.1v-3.9h1.9v3.9h1.9v1.7H614.9z"/>
<path class="st1" d="M628.1,174.1c-0.3,0.7-0.8,1.2-1.3,1.7c-1,0.9-2.3,1.4-3.6,1.3c-2.6,0-5.3-1.6-5.3-5.6c0-3.2,2-5.7,5.2-5.7
	c1.6-0.1,3.1,0.7,4.1,2c0.7,1.2,1.1,2.6,1,4.1h-8.4c-0.1,1.9,1.4,3.5,3.3,3.7h0.2c0.8,0,1.6-0.3,2.2-0.8c0.5-0.4,0.9-0.9,1.1-1.5
	L628.1,174.1z M626.2,170.3c-0.2-1.6-1.6-2.8-3.2-2.8c-1.6,0-2.9,1.2-3.2,2.8H626.2z"/>
<path class="st1" d="M635.5,168.6c-0.2-0.6-0.8-1.1-1.5-1.1c-0.7-0.1-1.2,0.4-1.3,1.1v0.1c0,0.8,0.5,1,1.7,1.5c1,0.3,2,0.9,2.7,1.7
	c0.4,0.5,0.6,1.1,0.6,1.7c0.1,1.9-1.4,3.5-3.3,3.6H634c-1.7,0-3.3-1.1-3.8-2.8l1.6-0.7c0.3,1,1.2,1.7,2.2,1.8
	c0.9,0.1,1.7-0.7,1.8-1.6l0,0v-0.1c0-1-0.7-1.4-1.7-1.8c-1-0.3-1.9-0.9-2.6-1.6c-0.3-0.5-0.5-1-0.5-1.6c-0.1-1.6,1.2-2.9,2.8-3h0.3
	c1.3,0,2.5,0.8,3,2L635.5,168.6z"/>
<path class="st1" d="M642.1,167.8v9.1h-1.9v-9.1h-1.1v-1.7h1.1v-3.9h1.9v3.9h1.9v1.7H642.1z"/>
<path class="st1" d="M646.9,174.6c0.7,0,1.3,0.6,1.3,1.3s-0.6,1.3-1.3,1.3s-1.3-0.6-1.3-1.3l0,0l0,0
	C645.7,175.1,646.2,174.6,646.9,174.6z"/>
<path class="st1" d="M660.1,159.5V175h4.8v1.8h-6.7v-17.4L660.1,159.5L660.1,159.5z"/>
<path class="st1" d="M684.2,174.2c-0.9,1.9-2.8,3-4.9,3c-1.7,0.1-3.3-0.8-4.2-2.2c-0.8,1.4-2.4,2.3-4.1,2.2c-2.5,0-4.7-1.1-4.7-3.5
	s2-3.6,4.5-3.6c1.1-0.1,2.2,0.2,3.1,0.9c0-0.8-0.1-1.6-0.5-2.3c-0.6-0.9-1.6-1.4-2.6-1.2c-1.1,0.1-2.3,0.3-3.3,0.7v-1.8
	c1.1-0.4,2.2-0.6,3.3-0.6c1.7-0.2,3.3,0.7,4,2.2c0.9-1.4,2.5-2.2,4.2-2.2c3.2,0,5.2,2.3,5.2,5.9v0.2h-8.4c-0.1,1.9,1.5,3.6,3.4,3.7
	c1.5-0.1,2.7-1,3.3-2.3L684.2,174.2z M668.2,173.7c0,0.8,0.6,1.9,2.7,1.9s2.9-1.1,2.9-1.9s-0.7-1.8-2.8-1.8
	C669.2,171.8,668.2,172.6,668.2,173.7L668.2,173.7z M682.4,170.3c-0.2-1.8-1.8-3-3.6-2.8c-1.5,0.2-2.6,1.3-2.8,2.8H682.4z"/>
<path class="st1" d="M691.6,168.6c-0.2-0.6-0.8-1.1-1.5-1.1c-0.7-0.1-1.2,0.4-1.3,1.1v0.1c0,0.8,0.5,1,1.7,1.5c1,0.3,2,0.9,2.7,1.7
	c0.4,0.5,0.6,1.1,0.6,1.7c0.1,1.9-1.4,3.5-3.3,3.5l0,0h-0.4c-1.7,0-3.3-1.1-3.8-2.8l1.6-0.7c0.3,1,1.2,1.7,2.2,1.8
	c0.9,0.1,1.7-0.7,1.8-1.6l0,0v-0.1c0-1-0.7-1.4-1.7-1.8c-1-0.3-1.9-0.9-2.6-1.6c-0.3-0.5-0.5-1-0.5-1.6c-0.1-1.6,1.2-2.9,2.8-3h0.4
	c1.3,0,2.5,0.8,3,2L691.6,168.6z"/>
<path class="st1" d="M702.4,166.1h1.9v1.1c0.6-0.9,1.6-1.4,2.7-1.4c1.2,0,2.4,0.6,2.9,1.7c0.7-1.1,1.9-1.8,3.2-1.7
	c3.2,0,3.5,2.7,3.5,4.2v6.8h-1.9v-6.6c0-1.2-0.2-2.8-1.9-2.8c-2.2,0-2.4,2.1-2.4,3.4v6h-1.9v-6.4c0-0.8,0-3-2-3
	c-2.1,0-2.4,2.2-2.4,3.5v5.9h-1.9L702.4,166.1z"/>
<path class="st1" d="M729.8,174.1c-0.3,0.7-0.8,1.2-1.3,1.7c-1,0.9-2.3,1.4-3.6,1.3c-2.6,0-5.3-1.6-5.3-5.6c0-3.2,2-5.7,5.2-5.7
	c1.6-0.1,3.1,0.7,4.1,2c0.7,1.2,1.1,2.6,1,4.1h-8.4c-0.1,1.9,1.3,3.5,3.2,3.7l0,0h0.2c0.8,0,1.6-0.3,2.2-0.8
	c0.5-0.4,0.9-0.9,1.1-1.5L729.8,174.1z M727.9,170.3c-0.2-1.6-1.6-2.8-3.2-2.8c-1.6,0-2.9,1.2-3.2,2.8H727.9z"/>
<path class="st1" d="M732.7,166.1h1.9v1.2c0.5-0.9,1.4-1.4,2.4-1.4c0.6,0,1.2,0.2,1.7,0.4l-0.9,1.7c-0.3-0.2-0.7-0.4-1.1-0.4
	c-0.6,0-1.1,0.2-1.5,0.7c-0.5,0.9-0.7,1.9-0.6,2.9v5.7h-1.9L732.7,166.1z"/>
<path class="st1" d="M749.4,174.1c-0.3,0.7-0.8,1.2-1.3,1.7c-1,0.9-2.3,1.4-3.7,1.3c-2.6,0-5.3-1.6-5.3-5.6c0-3.2,2-5.7,5.2-5.7
	c1.6-0.1,3.1,0.7,4.1,2c0.7,1.2,1.1,2.6,1,4.1H741c-0.1,1.9,1.4,3.5,3.3,3.7h0.2c0.8,0,1.6-0.3,2.2-0.8c0.5-0.4,0.9-0.9,1.1-1.5
	L749.4,174.1z M747.5,170.3c-0.2-1.6-1.6-2.8-3.2-2.8c-1.6,0-2.9,1.2-3.2,2.8H747.5z"/>
<path class="st1" d="M760.2,182.9h-1.9v-16.8h1.9v1.5c0.9-1.1,2.3-1.8,3.7-1.8c3.4,0,5.3,2.8,5.3,5.7s-1.9,5.6-5.2,5.6
	c-1.5,0-2.9-0.6-3.8-1.8V182.9z M767.2,171.6c0-2.7-1.8-4.1-3.5-4.1c-2.1,0.1-3.7,1.8-3.6,3.9v0.1c0,2.2,1.4,4,3.6,4
	S767.2,173.7,767.2,171.6L767.2,171.6z"/>
<path class="st1" d="M780.3,166.1h1.9v10.8h-1.9v-1.5c-0.9,1.2-2.2,1.8-3.7,1.8c-2.7,0-5.2-1.9-5.2-5.7s2.5-5.6,5.2-5.6
	c1.4,0,2.8,0.6,3.7,1.8V166.1z M773.3,171.5c0,2.3,1.3,4.1,3.5,4.1c2-0.1,3.7-1.8,3.6-3.8c0-0.1,0-0.1,0-0.2c0.2-2-1.3-3.8-3.3-4
	l0,0h-0.3C774.9,167.5,773.2,168.9,773.3,171.5L773.3,171.5z M777.3,159.5c1.2,0,2.2,1,2.2,2.2s-1,2.2-2.2,2.2s-2.2-1-2.2-2.2l0,0
	l0,0C775,160.5,776,159.5,777.3,159.5L777.3,159.5z M777.3,162.8c0.6,0,1.1-0.5,1.1-1.1s-0.5-1.1-1.1-1.1l0,0
	c-0.6,0-1.1,0.5-1.1,1.1S776.6,162.8,777.3,162.8L777.3,162.8z"/>
<path class="st1" d="M793.6,182.9h-1.9v-16.8h1.9v1.5c0.9-1.1,2.3-1.8,3.7-1.8c3.4,0,5.3,2.8,5.3,5.7s-1.9,5.6-5.2,5.6
	c-1.5,0-2.9-0.6-3.8-1.8V182.9z M800.6,171.6c0-2.7-1.8-4.1-3.5-4.1c-2.1,0.1-3.7,1.8-3.6,3.9v0.1c0,2.2,1.4,4,3.6,4
	S800.6,173.7,800.6,171.6L800.6,171.6z"/>
<path class="st1" d="M805.4,166.1h1.9v1.2c0.5-0.9,1.4-1.4,2.4-1.4c0.6,0,1.2,0.2,1.7,0.4l-0.9,1.7c-0.3-0.2-0.7-0.4-1.1-0.4
	c-0.6,0-1.1,0.2-1.5,0.7c-0.5,0.9-0.7,1.9-0.6,2.9v5.7h-1.9L805.4,166.1z"/>
<path class="st1" d="M814,160.7c0.7,0,1.3,0.6,1.3,1.3s-0.6,1.3-1.3,1.3s-1.3-0.6-1.3-1.3l0,0C812.7,161.3,813.3,160.7,814,160.7
	L814,160.7z M814.9,166.1v10.8h-1.8v-10.8H814.9z"/>
<path class="st1" d="M819,166.1l3.2,7.3l3.2-7.3h2.1l-5.3,11.5l-5.2-11.5H819z"/>
<path class="st1" d="M837.8,166.1h1.9v10.8h-1.9v-1.5c-0.9,1.2-2.2,1.8-3.7,1.8c-2.7,0-5.2-1.9-5.2-5.7s2.5-5.6,5.2-5.6
	c1.4,0,2.8,0.6,3.7,1.8V166.1z M830.8,171.5c0,2.3,1.3,4.1,3.5,4.1c2-0.1,3.7-1.8,3.6-3.8c0-0.1,0-0.1,0-0.2c0.2-2-1.3-3.8-3.3-4
	l0,0h-0.3C832.5,167.5,830.8,168.9,830.8,171.5L830.8,171.5z"/>
<path class="st1" d="M845.1,167.8v9.1h-1.9v-9.1h-1.1v-1.7h1.1v-3.9h1.9v3.9h1.9v1.7H845.1z"/>
<path class="st1" d="M853.2,168.6c-0.2-0.6-0.8-1.1-1.5-1.1c-0.7-0.1-1.2,0.4-1.3,1.1v0.1c0,0.8,0.5,1,1.7,1.5c1,0.3,2,0.9,2.7,1.7
	c0.4,0.5,0.6,1.1,0.6,1.7c0.1,1.9-1.4,3.5-3.3,3.5l0,0h-0.4c-1.7,0-3.3-1.1-3.8-2.8l1.6-0.7c0.3,1,1.2,1.7,2.2,1.8
	c0.9,0,1.7-0.7,1.8-1.6l0,0v-0.1c0-1-0.7-1.4-1.7-1.8c-1-0.3-1.9-0.9-2.6-1.6c-0.4-0.5-0.5-1-0.5-1.6c-0.1-1.6,1.2-2.9,2.8-3h0.4
	c1.3,0,2.5,0.8,3,2L853.2,168.6z"/>
<path class="st1" d="M857.9,166.1h1.9v1.2c0.7-1,1.9-1.5,3.1-1.5c1.2-0.1,2.4,0.5,3.1,1.5c0.5,0.9,0.7,1.9,0.6,2.9v6.7h-1.9v-6.6
	c0.1-0.7-0.1-1.4-0.5-2c-0.4-0.5-1.1-0.8-1.8-0.8s-1.4,0.3-1.9,0.8c-0.6,0.9-0.9,1.9-0.8,2.9v5.6h-1.9v-10.7H857.9z"/>
<path class="st1" d="M878.4,166.1h1.9v10.8h-1.9v-1.5c-0.9,1.2-2.2,1.8-3.7,1.8c-2.7,0-5.2-1.9-5.2-5.7s2.5-5.6,5.2-5.6
	c1.4,0,2.8,0.6,3.7,1.8V166.1z M871.4,171.5c0,2.3,1.3,4.1,3.5,4.1c2-0.1,3.7-1.8,3.6-3.8c0-0.1,0-0.1,0-0.2c0.2-2-1.3-3.8-3.3-4
	l0,0h-0.3C873.1,167.5,871.4,168.9,871.4,171.5L871.4,171.5z"/>
<path class="st1" d="M885.7,157.9v12.2l4-4h2.5l-4.6,4.6l5.5,6.2h-2.5l-4.3-4.9l-0.5,0.5v4.4h-1.9v-19H885.7z"/>
<path class="st1" d="M896,174.6c0.7,0,1.3,0.6,1.3,1.3s-0.6,1.3-1.3,1.3s-1.3-0.6-1.3-1.3l0,0l0,0
	C894.7,175.1,895.3,174.6,896,174.6z"/>
<path class="st1" d="M909,157.9h1.9v19H909v-1.5c-0.9,1.2-2.2,1.8-3.7,1.8c-2.7,0-5.3-1.9-5.3-5.7s2.5-5.6,5.3-5.6
	c1.4,0,2.8,0.6,3.7,1.8V157.9z M902,171.5c0,2.3,1.3,4.1,3.5,4.1c2.1-0.1,3.7-1.8,3.6-3.8c0-0.1,0-0.1,0-0.2c0.2-2-1.2-3.8-3.2-4
	c0,0,0,0-0.1,0h-0.3C903.7,167.5,902,168.8,902,171.5L902,171.5z"/>
<path class="st1" d="M916.3,157.9v12.2l4-4h2.4l-4.6,4.6l5.5,6.2h-2.5l-4.4-4.9l-0.5,0.5v4.4h-1.9v-19H916.3z"/>
<path class="st1" d="M926,174.3l1.7,0.6l-2.6,5.9l-1.2-0.5L926,174.3z"/>
<path class="st1" d="M937.4,157.9h1.9v9.4c0.7-1,1.9-1.5,3.1-1.5c1.2,0,2.4,0.5,3.1,1.5c0.5,0.9,0.7,1.9,0.6,2.9v6.7h-1.9v-6.6
	c0.1-0.7-0.1-1.4-0.5-2c-0.4-0.5-1.1-0.8-1.8-0.8s-1.4,0.3-1.9,0.8c-0.6,0.9-0.9,1.9-0.8,2.9v5.6h-1.9L937.4,157.9z"/>
<path class="st1" d="M950.1,166.1l3.2,7.3l3.2-7.3h2.1l-5.3,11.5l-5.3-11.5H950.1z"/>
<path class="st1" d="M959.9,171.5c0-3.2,2.5-5.7,5.7-5.8c3.2,0,5.7,2.5,5.8,5.7c0,3.2-2.5,5.7-5.7,5.8l0,0c-3.1,0.1-5.6-2.3-5.7-5.4
	C959.9,171.7,959.9,171.6,959.9,171.5z M961.8,171.5c0.1,2.1,1.9,3.7,4,3.6c2.1-0.1,3.7-1.9,3.6-4c-0.1-2-1.8-3.6-3.8-3.6
	c-2.1,0-3.8,1.6-3.8,3.7l0,0V171.5z"/>
<path class="st1" d="M974.2,166.1h1.9v1.2c0.5-0.9,1.4-1.4,2.5-1.4c0.6,0,1.1,0.2,1.7,0.4l-0.9,1.7c-0.3-0.2-0.7-0.4-1.1-0.4
	c-0.6,0-1.1,0.2-1.5,0.7c-0.5,0.9-0.7,1.9-0.6,2.9v5.7h-1.9v-10.8H974.2z"/>
<path class="st1" d="M996.2,157.9h1.9v19h-1.9v-1.5c-0.9,1.2-2.2,1.8-3.7,1.8c-2.7,0-5.2-1.9-5.2-5.7s2.5-5.6,5.2-5.6
	c1.4,0,2.8,0.6,3.7,1.8V157.9z M989.2,171.5c0,2.3,1.3,4.1,3.5,4.1c2-0.1,3.7-1.8,3.6-3.8c0-0.1,0-0.1,0-0.2c0.2-2-1.3-3.8-3.3-4
	l0,0h-0.3C990.9,167.5,989.2,168.8,989.2,171.5L989.2,171.5z"/>
<path class="st1" d="M1003.5,172.4c-0.1,0.8,0.1,1.6,0.5,2.3c1,1.1,2.6,1.1,3.6,0.2l0.2-0.2c0.4-0.7,0.6-1.5,0.5-2.3v-6.3h1.9v6.5
	c0.1,1.2-0.2,2.4-1,3.2c-1.8,1.8-4.8,1.8-6.6,0c-0.8-0.9-1.1-2.1-1-3.2v-6.5h1.9L1003.5,172.4z"/>
<path class="st1" d="M1019.2,171.5c0-3.2,2.5-5.7,5.7-5.8c3.2,0,5.7,2.5,5.8,5.7c0,3.2-2.5,5.7-5.7,5.8h-0.1c-3,0.1-5.6-2.3-5.7-5.3
	l0,0C1019.2,171.8,1019.2,171.6,1019.2,171.5z M1021.1,171.5c0.1,2.1,1.9,3.7,4,3.6c2.1-0.1,3.7-1.9,3.6-4c-0.1-2-1.8-3.6-3.8-3.6
	c-2.1,0-3.8,1.6-3.8,3.7l0,0L1021.1,171.5L1021.1,171.5z"/>
<path class="st1" d="M1041.7,166.1h1.9v10.5c0.1,1.5-0.2,3-1,4.2c-1,1.3-2.6,2.1-4.3,2c-1.4,0-2.8-0.5-3.8-1.5
	c-0.9-0.9-1.4-2.2-1.4-3.5h1.8c0,0.8,0.3,1.6,0.8,2.2c0.7,0.7,1.6,1.1,2.6,1c1.2,0.1,2.3-0.5,2.9-1.5c0.5-0.8,0.7-1.8,0.6-2.8v-1.6
	c-0.9,1.2-2.2,1.8-3.7,1.8c-1.4,0-2.7-0.5-3.7-1.5c-1.1-1.2-1.6-2.7-1.6-4.3c-0.1-1.6,0.5-3.1,1.6-4.2c1-0.9,2.3-1.5,3.7-1.4
	c1.4,0,2.8,0.6,3.7,1.8L1041.7,166.1z M1035.8,168.5c-1.5,1.8-1.5,4.4,0.1,6.1c1.3,1.2,3.4,1.2,4.7,0c0.8-0.8,1.2-2,1.2-3.1
	s-0.4-2.2-1.2-3C1039.3,167.2,1037.1,167.2,1035.8,168.5L1035.8,168.5z"/>
<path class="st1" d="M1051.6,168.6c-0.2-0.6-0.8-1.1-1.5-1.1c-0.7-0.1-1.2,0.4-1.3,1.1v0.1c0,0.8,0.5,1,1.7,1.5c1,0.3,2,0.9,2.7,1.7
	c0.4,0.5,0.6,1.1,0.6,1.7c0.1,1.9-1.4,3.5-3.3,3.5l0,0h-0.4c-1.7,0-3.3-1.1-3.8-2.8l1.6-0.7c0.3,1,1.2,1.7,2.2,1.8
	c0.9,0,1.7-0.7,1.8-1.6l0,0v-0.1c0-1-0.7-1.4-1.7-1.8c-1-0.3-1.9-0.9-2.6-1.6c-0.4-0.5-0.5-1-0.5-1.6c-0.1-1.6,1.2-2.9,2.8-3h0.4
	c1.3,0,2.5,0.8,3,2L1051.6,168.6z"/>
<path class="st1" d="M389.5,189.1v12.2l4-4h2.5l-4.6,4.6l5.5,6.2h-2.5l-4.3-4.9l-0.5,0.5v4.4h-1.9v-19H389.5z"/>
<path class="st1" d="M406.9,197.3h1.9v10.8h-1.9v-1.5c-0.9,1.2-2.2,1.8-3.7,1.8c-2.7,0-5.3-1.9-5.3-5.7s2.5-5.6,5.3-5.6
	c1.4,0,2.8,0.6,3.7,1.8V197.3z M399.9,202.7c0,2.3,1.3,4,3.5,4c2-0.1,3.7-1.8,3.6-3.8c0-0.1,0-0.1,0-0.2c0.2-2-1.2-3.8-3.2-4
	c0,0,0,0-0.1,0h-0.3C401.6,198.7,399.9,200.1,399.9,202.7L399.9,202.7z"/>
<path class="st1" d="M412.3,197.3h1.9v1.2c0.7-1,1.9-1.5,3.1-1.5c1.2-0.1,2.4,0.5,3.1,1.5c0.5,0.9,0.7,1.9,0.6,2.9v6.7h-1.9v-6.6
	c0.1-0.7-0.1-1.4-0.5-2c-0.4-0.5-1.1-0.8-1.8-0.8c-0.7,0-1.4,0.3-1.9,0.8c-0.6,0.9-0.9,1.9-0.8,2.9v5.6h-1.9L412.3,197.3
	L412.3,197.3z"/>
<path class="st1" d="M432.4,189.1v19h-1.9v-19H432.4z"/>
<path class="st1" d="M453.1,205.4c-0.9,1.9-2.8,3-4.9,3c-1.7,0.1-3.3-0.8-4.2-2.2c-0.8,1.4-2.4,2.3-4,2.2c-2.5,0-4.7-1.1-4.7-3.5
	s2-3.6,4.5-3.6c1.1,0,2.2,0.3,3.1,0.9c0-0.8-0.2-1.5-0.6-2.2c-0.5-0.9-1.5-1.4-2.6-1.2c-1.1,0.1-2.3,0.3-3.3,0.7v-1.8
	c1.1-0.4,2.2-0.6,3.4-0.6c1.7-0.2,3.3,0.7,4.1,2.2c0.9-1.4,2.5-2.2,4.2-2.2c3.1,0,5.1,2.3,5.1,5.9v0.2h-8.4
	c-0.1,1.9,1.5,3.6,3.4,3.7c1.5-0.1,2.7-0.9,3.3-2.3L453.1,205.4z M437.2,204.9c0,0.8,0.6,1.8,2.7,1.8s2.9-1.1,2.9-1.9
	s-0.7-1.8-2.8-1.8C438.1,203,437.2,203.9,437.2,204.9z M451.3,201.5c-0.2-1.8-1.8-3-3.6-2.8c-1.5,0.2-2.6,1.3-2.8,2.8H451.3z"/>
<path class="st1" d="M460.5,199.8c-0.2-0.7-0.9-1.1-1.5-1.1c-0.7-0.1-1.2,0.4-1.3,1.1v0.1c0,0.8,0.5,1,1.7,1.5c1,0.3,2,0.9,2.7,1.7
	c0.4,0.5,0.6,1.1,0.6,1.7c0.1,1.9-1.4,3.5-3.3,3.5l0,0H459c-1.7,0-3.3-1.1-3.8-2.8l1.6-0.7c0.3,1,1.2,1.7,2.2,1.8
	c0.9,0.1,1.7-0.6,1.8-1.5l0,0V205c0-1-0.7-1.4-1.8-1.8c-1-0.3-1.9-0.9-2.6-1.6c-0.4-0.5-0.5-1-0.5-1.6c-0.1-1.6,1.2-2.9,2.8-3h0.4
	c1.3,0,2.5,0.8,3,2L460.5,199.8z"/>
<path class="st1" d="M474.8,205.3c-0.3,0.7-0.8,1.2-1.3,1.7c-1,0.9-2.3,1.4-3.6,1.3c-2.6,0-5.3-1.6-5.3-5.6c0-3.2,2-5.7,5.2-5.7
	c1.6-0.1,3.1,0.7,4.1,2c0.7,1.2,1.1,2.6,1,4.1h-8.4c-0.1,1.9,1.4,3.5,3.3,3.6l0,0h0.2c0.8,0,1.6-0.3,2.2-0.8
	c0.5-0.4,0.9-0.9,1.1-1.5L474.8,205.3z M473,201.5c-0.2-1.6-1.6-2.8-3.2-2.8s-2.9,1.2-3.2,2.8H473z"/>
<path class="st1" d="M483.1,202.7c0-3.2,2.5-5.7,5.7-5.8c3.2,0,5.7,2.5,5.8,5.7c0,3.2-2.5,5.7-5.7,5.8l0,0c-3.1,0.1-5.6-2.3-5.7-5.4
	C483.1,202.9,483.1,202.8,483.1,202.7z M485.1,202.7c0.1,2.1,1.9,3.7,4,3.6c2.1-0.1,3.7-1.9,3.6-4c-0.1-2-1.8-3.6-3.8-3.6
	c-2.1,0-3.8,1.6-3.8,3.7C485.1,202.5,485.1,202.6,485.1,202.7z"/>
<path class="st1" d="M497.4,197.3h1.9v1.1c0.6-0.9,1.6-1.5,2.7-1.4c1.2,0,2.4,0.6,2.9,1.7c0.7-1.1,1.9-1.8,3.2-1.8
	c3.2,0,3.5,2.7,3.5,4.2v6.8h-1.9v-6.5c0-1.2-0.2-2.8-1.9-2.8c-2.2,0-2.4,2.1-2.4,3.4v6h-1.9v-6.4c0-0.8,0-3-2-3
	c-2.1,0-2.4,2.2-2.4,3.5v5.8h-1.9L497.4,197.3z"/>
<path class="st1" d="M523.2,208.1h-1.9v-19h1.9v9.7c0.9-1.1,2.3-1.8,3.7-1.8c3.4,0,5.2,2.8,5.2,5.7s-1.9,5.6-5.2,5.6
	c-1.5,0-2.9-0.6-3.8-1.8L523.2,208.1L523.2,208.1z M530.2,202.8c0-2.7-1.8-4.1-3.5-4.1c-2.1,0.1-3.7,1.8-3.6,3.9v0.1
	c0,2.2,1.4,4,3.6,4S530.2,204.9,530.2,202.8L530.2,202.8z"/>
<path class="st1" d="M536.9,189.1v19H535v-19H536.9z"/>
<path class="st1" d="M541.6,205.8c0.7,0,1.3,0.6,1.3,1.3s-0.6,1.3-1.3,1.3s-1.3-0.6-1.3-1.3l0,0
	C540.3,206.3,540.9,205.8,541.6,205.8z"/>
<path class="st1" d="M554.6,197.3h1.9v10.8h-1.9v-1.5c-0.9,1.2-2.2,1.8-3.7,1.8c-2.7,0-5.2-1.9-5.2-5.7s2.5-5.6,5.2-5.6
	c1.4,0,2.8,0.6,3.7,1.8V197.3z M547.6,202.7c0,2.3,1.3,4,3.5,4s3.6-1.9,3.6-4c0.2-2-1.2-3.8-3.2-4c0,0,0,0-0.1,0h-0.3
	C549.3,198.7,547.6,200.1,547.6,202.7L547.6,202.7z"/>
<path class="st1" d="M561.2,205.8c0.7,0,1.3,0.6,1.3,1.3s-0.6,1.3-1.3,1.3s-1.3-0.6-1.3-1.3l0,0
	C559.9,206.3,560.5,205.8,561.2,205.8z"/>
<path class="st1" d="M573.8,189.1v12.2l4-4h2.4l-4.6,4.6l5.5,6.2h-2.4l-4.3-4.9l-0.5,0.5v4.4H572v-19H573.8z"/>
<path class="st1" d="M583,197.3h1.9v1.2c0.5-0.9,1.4-1.4,2.4-1.4c0.6,0,1.1,0.2,1.7,0.4l-0.9,1.7c-0.3-0.2-0.7-0.4-1.1-0.4
	c-0.6,0-1.1,0.2-1.5,0.7c-0.5,0.9-0.7,1.9-0.6,2.9v5.7H583V197.3z"/>
<path class="st1" d="M589.4,202.7c0-3.2,2.5-5.7,5.7-5.8c3.2,0,5.7,2.5,5.8,5.7c0,3.2-2.5,5.7-5.7,5.8l0,0c-3.1,0.1-5.6-2.3-5.7-5.4
	C589.4,202.9,589.4,202.8,589.4,202.7z M591.3,202.7c0.1,2.1,1.9,3.7,4,3.6c2.1-0.1,3.7-1.9,3.6-4c-0.1-2-1.8-3.6-3.8-3.6
	c-2.1-0.1-3.8,1.6-3.8,3.6l0,0C591.3,202.5,591.3,202.6,591.3,202.7L591.3,202.7z"/>
<path class="st1" d="M605.5,214.1h-1.9v-16.8h1.9v1.5c0.9-1.1,2.3-1.8,3.7-1.8c3.4,0,5.3,2.8,5.3,5.7s-1.9,5.6-5.2,5.6
	c-1.5,0-2.9-0.6-3.8-1.8V214.1z M612.5,202.8c0-2.7-1.8-4.1-3.5-4.1c-2.1,0.1-3.7,1.8-3.6,3.9v0.1c0,2.2,1.4,4,3.6,4
	S612.5,204.9,612.5,202.8L612.5,202.8z"/>
<path class="st1" d="M618,205.5l1.7,0.6L617,212l-1.2-0.5L618,205.5z"/>
<path class="st1" d="M633.8,199.8c-0.2-0.6-0.8-1.1-1.5-1.1c-0.7-0.1-1.2,0.4-1.3,1.1v0.1c0,0.8,0.5,1,1.7,1.5c1,0.3,2,0.9,2.7,1.7
	c0.4,0.5,0.6,1.1,0.6,1.7c0.1,1.9-1.4,3.5-3.3,3.5l0,0h-0.4c-1.7,0-3.3-1.1-3.8-2.8l1.6-0.7c0.3,1,1.2,1.7,2.2,1.8
	c0.9,0.1,1.7-0.6,1.8-1.5l0,0V205c0-1-0.7-1.4-1.7-1.8c-1-0.3-1.9-0.9-2.6-1.6c-0.4-0.5-0.5-1-0.5-1.6c-0.1-1.6,1.2-2.9,2.8-3h0.4
	c1.3,0,2.5,0.8,3,2L633.8,199.8z"/>
<path class="st1" d="M648,205.3c-0.3,0.7-0.8,1.2-1.3,1.7c-1,0.9-2.3,1.4-3.6,1.3c-2.6,0-5.3-1.6-5.3-5.6c0-3.2,2-5.7,5.2-5.7
	c1.6-0.1,3.1,0.7,4.1,2c0.7,1.2,1.1,2.6,1,4.1h-8.4c-0.1,1.9,1.4,3.5,3.3,3.6l0,0h0.2c0.8,0,1.6-0.2,2.2-0.8
	c0.5-0.4,0.9-0.9,1.1-1.5L648,205.3z M646.2,201.5c-0.2-1.6-1.6-2.8-3.2-2.8c-1.6,0-2.9,1.2-3.2,2.8H646.2z"/>
<path class="st1" d="M654,202.3l-3.9-5h2.3l2.8,3.7l2.8-3.7h2.3l-4,5l4.5,5.8h-2.3l-3.4-4.4l-3.4,4.4h-2.3L654,202.3z"/>
<path class="st1" d="M663.4,205.5l1.7,0.6l-2.6,5.8l-1.2-0.5L663.4,205.5z"/>
<path class="st1" d="M676.7,199v9.1h-1.9V199h-1v-1.7h1v-4.7c-0.1-1.1,0.2-2.2,1-3c0.6-0.5,1.4-0.7,2.2-0.7c0.5,0,0.9,0.1,1.3,0.2
	v1.8c-0.4-0.2-0.8-0.2-1.2-0.2c-0.5,0-0.9,0.2-1.2,0.6c-0.2,0.5-0.3,1-0.2,1.6v4.5h2.7v1.7h-2.7V199z"/>
<path class="st1" d="M690.6,199.2c0.8,1,1.2,2.2,1.1,3.5c-0.1,3.2-2.7,5.7-5.9,5.7l0,0c-1.2,0-2.3-0.4-3.3-1.1l-1.6,1.6l-1.2-1.2
	l1.6-1.6c-0.7-1-1-2.2-1-3.4c-0.1-3.1,2.3-5.6,5.4-5.7l0,0h0.3c1.2-0.1,2.4,0.3,3.4,1l1.6-1.6l1.1,1.2L690.6,199.2z M688.1,199.3
	c-1.8-1.1-4.1-0.6-5.3,1.2c-0.4,0.6-0.6,1.2-0.6,1.9c0,0.1,0,0.2,0,0.3c0,0.7,0.2,1.5,0.5,2.1L688.1,199.3z M683.9,206.1
	c0.6,0.5,1.4,0.7,2.2,0.7c2.1,0,3.8-1.6,3.8-3.6l0,0c0-0.1,0-0.2,0-0.4c0-0.8-0.2-1.6-0.6-2.2L683.9,206.1z"/>
<path class="st1" d="M696.5,189.1v19h-1.9v-19H696.5z"/>
<path class="st1" d="M709.6,205.3c-0.3,0.7-0.8,1.2-1.3,1.7c-1,0.9-2.3,1.4-3.6,1.3c-2.6,0-5.3-1.6-5.3-5.6c0-3.2,2-5.7,5.2-5.7
	c1.6-0.1,3.1,0.7,4.1,2c0.7,1.2,1.1,2.6,1,4.1h-8.4c-0.1,1.9,1.3,3.5,3.2,3.6l0,0h0.2c0.8,0,1.6-0.3,2.2-0.8
	c0.5-0.4,0.8-0.9,1.1-1.5L709.6,205.3z M707.8,201.5c-0.2-1.6-1.6-2.8-3.2-2.8c-1.6,0-2.9,1.2-3.2,2.8H707.8z"/>
<path class="st1" d="M714.4,189.1v19h-1.9v-19H714.4z"/>
<path class="st1" d="M722.4,199.8c-0.2-0.6-0.8-1.1-1.5-1.1c-0.7-0.1-1.2,0.4-1.3,1.1v0.1c0,0.8,0.5,1,1.7,1.5c1,0.3,2,0.9,2.7,1.7
	c0.4,0.5,0.6,1.1,0.6,1.7c0.1,1.9-1.4,3.5-3.3,3.5l0,0h-0.4c-1.7,0-3.3-1.1-3.8-2.8l1.6-0.7c0.3,1,1.2,1.7,2.2,1.8
	c0.9,0.1,1.7-0.6,1.8-1.5l0,0V205c0-1-0.7-1.4-1.7-1.8c-1-0.3-1.9-0.9-2.6-1.6c-0.4-0.5-0.5-1-0.5-1.6c-0.1-1.6,1.2-2.9,2.8-3h0.4
	c1.3,0,2.5,0.8,3,2L722.4,199.8z"/>
<path class="st1" d="M736.7,205.3c-0.3,0.7-0.8,1.2-1.3,1.7c-1,0.9-2.3,1.4-3.6,1.3c-2.6,0-5.3-1.6-5.3-5.6c0-3.2,2-5.7,5.2-5.7
	c1.6-0.1,3.1,0.7,4.1,2c0.7,1.2,1.1,2.6,1,4.1h-8.3c-0.1,1.9,1.4,3.5,3.3,3.6l0,0h0.2c0.8,0,1.6-0.2,2.2-0.8
	c0.5-0.4,0.9-0.9,1.1-1.5L736.7,205.3z M734.8,201.5c-0.2-1.6-1.6-2.8-3.2-2.8c-1.6,0-2.9,1.2-3.2,2.8H734.8z"/>
<path class="st1" d="M739.6,197.3h1.9v1.2c0.5-0.9,1.4-1.4,2.5-1.4c0.6,0,1.1,0.2,1.7,0.4l-0.9,1.7c-0.3-0.2-0.7-0.4-1.1-0.4
	c-0.6,0-1.1,0.2-1.5,0.7c-0.5,0.9-0.7,1.9-0.6,2.9v5.7h-1.9v-10.8H739.6z"/>
<path class="st1" d="M757.8,199.8c-0.2-0.6-0.8-1.1-1.5-1.1c-0.7-0.1-1.2,0.4-1.3,1.1v0.1c0,0.8,0.5,1,1.7,1.5c1,0.3,2,0.9,2.7,1.7
	c0.4,0.5,0.6,1.1,0.6,1.7c0.1,1.9-1.4,3.5-3.3,3.5l0,0h-0.4c-1.7,0-3.3-1.1-3.8-2.8l1.6-0.7c0.3,1,1.2,1.7,2.2,1.8
	c0.9,0.1,1.7-0.6,1.8-1.5l0,0V205c0-1-0.7-1.4-1.8-1.8c-1-0.3-1.9-0.9-2.6-1.6c-0.4-0.5-0.5-1-0.5-1.6c-0.1-1.6,1.2-2.9,2.8-3h0.4
	c1.3,0,2.5,0.8,3,2L757.8,199.8z"/>
<path class="st1" d="M772.1,205.3c-0.3,0.7-0.8,1.2-1.3,1.7c-1,0.9-2.3,1.4-3.6,1.3c-2.6,0-5.3-1.6-5.3-5.6c0-3.2,2-5.7,5.2-5.7
	c1.6-0.1,3.1,0.7,4.1,2c0.7,1.2,1.1,2.6,1,4.1h-8.4c-0.1,1.9,1.4,3.5,3.3,3.6l0,0h0.2c0.8,0,1.6-0.2,2.2-0.8
	c0.5-0.4,0.9-0.9,1.1-1.5L772.1,205.3z M770.2,201.5c-0.2-1.6-1.6-2.8-3.2-2.8c-1.6,0-2.9,1.2-3.2,2.8H770.2z"/>
<path class="st1" d="M776.9,189.1v12.2l4-4h2.4l-4.6,4.6l5.5,6.2h-2.4l-4.3-4.9l-0.5,0.5v4.4h-2v-19H776.9z"/>
<path class="st1" d="M790.4,199.8c-0.2-0.6-0.8-1.1-1.5-1.1c-0.7-0.1-1.2,0.4-1.3,1.1v0.1c0,0.8,0.5,1,1.7,1.5c1,0.3,2,0.9,2.7,1.7
	c0.4,0.5,0.6,1.1,0.6,1.7c0.1,1.9-1.4,3.5-3.3,3.5l0,0h-0.4c-1.7,0-3.3-1.1-3.8-2.8l1.6-0.7c0.3,1,1.2,1.7,2.2,1.8
	c0.9,0.1,1.7-0.6,1.8-1.5l0,0V205c0-1-0.7-1.4-1.8-1.8c-1-0.3-1.9-0.9-2.6-1.6c-0.4-0.5-0.5-1-0.5-1.6c-0.1-1.6,1.2-2.9,2.8-3h0.4
	c1.3,0,2.5,0.8,3,2L790.4,199.8z"/>
<path class="st1" d="M797,203.6c-0.1,0.8,0.1,1.6,0.5,2.3c1,1,2.6,1.1,3.6,0.1l0,0c0.1,0,0.1-0.1,0.1-0.1c0.4-0.7,0.6-1.5,0.5-2.3
	v-6.3h1.9v6.5c0.1,1.2-0.2,2.4-1,3.2c-1.8,1.8-4.8,1.8-6.6,0c-0.8-0.9-1.1-2.1-1-3.2v-6.5h1.9L797,203.6L797,203.6z"/>
<path class="st1" d="M815.5,197.3h1.9v10.8h-1.9v-1.5c-0.9,1.2-2.2,1.8-3.7,1.8c-2.7,0-5.2-1.9-5.2-5.7s2.5-5.6,5.2-5.6
	c1.4,0,2.8,0.6,3.7,1.8V197.3z M808.5,202.7c0,2.3,1.3,4,3.5,4s3.6-1.9,3.6-4c0.2-2-1.2-3.8-3.2-4c0,0,0,0-0.1,0H812
	C810.2,198.7,808.5,200.1,808.5,202.7L808.5,202.7z"/>
<path class="st1" d="M822.8,189.1v19h-1.9v-19H822.8z"/>
<path class="st1" d="M827.3,191.9c0.7,0,1.3,0.6,1.3,1.3s-0.6,1.3-1.3,1.3s-1.3-0.6-1.3-1.3l0,0
	C825.9,192.5,826.5,191.9,827.3,191.9L827.3,191.9z M828.2,197.3v10.8h-1.8v-10.8H828.2z"/>
<path class="st1" d="M833.7,199v9.1h-1.9V199h-1.1v-1.7h1.1v-3.9h1.9v3.9h1.9v1.7H833.7z"/>
<path class="st1" d="M846.9,205.3c-0.3,0.7-0.8,1.2-1.3,1.7c-1,0.9-2.2,1.4-3.5,1.3c-2.6,0-5.3-1.6-5.3-5.6c0-3.2,2-5.7,5.2-5.7
	c1.6-0.1,3.1,0.7,4.1,2c0.7,1.2,1.1,2.6,1,4.1h-8.4c-0.1,1.9,1.4,3.5,3.3,3.6l0,0h0.2c0.8,0,1.6-0.3,2.2-0.8
	c0.5-0.4,0.9-0.9,1.1-1.5L846.9,205.3z M845,201.5c-0.2-1.6-1.6-2.8-3.2-2.8c-1.6,0-2.9,1.2-3.2,2.8H845z"/>
<path class="st1" d="M851.7,199v9.1h-1.9V199h-1.1v-1.7h1.1v-3.9h1.9v3.9h1.9v1.7H851.7z"/>
<path class="st1" d="M871,205.3c-0.3,0.7-0.8,1.2-1.3,1.7c-1,0.9-2.3,1.4-3.6,1.3c-2.6,0-5.3-1.6-5.3-5.6c0-3.2,2-5.7,5.2-5.7
	c1.6-0.1,3.1,0.7,4.1,2c0.7,1.2,1.1,2.6,1,4.1h-8.4c-0.1,1.9,1.4,3.5,3.3,3.6l0,0h0.2c0.8,0,1.6-0.3,2.2-0.8
	c0.5-0.4,0.9-0.9,1.1-1.5L871,205.3z M869.2,201.5c-0.2-1.6-1.6-2.8-3.2-2.8c-1.6,0-2.9,1.2-3.2,2.8H869.2z"/>
<path class="st1" d="M875.8,189.1v19h-1.9v-19H875.8z"/>
<path class="st1" d="M881.2,189.1v19h-1.8v-19H881.2z"/>
<path class="st1" d="M894.3,205.3c-0.3,0.7-0.8,1.2-1.3,1.7c-1,0.9-2.3,1.4-3.6,1.3c-2.6,0-5.3-1.6-5.3-5.6c0-3.2,2-5.7,5.2-5.7
	c1.6-0.1,3.1,0.7,4.1,2c0.7,1.2,1.1,2.6,1,4.1H886c-0.1,1.9,1.4,3.5,3.3,3.6l0,0h0.2c0.8,0,1.6-0.3,2.2-0.8c0.5-0.4,0.9-0.9,1.1-1.5
	L894.3,205.3z M892.5,201.5c-0.2-1.6-1.6-2.8-3.2-2.8c-1.6,0-2.9,1.2-3.2,2.8H892.5z"/>
<path class="st1" d="M897.3,197.3h1.9v1.2c0.5-0.9,1.4-1.4,2.5-1.5c0.6,0,1.1,0.2,1.7,0.4l-0.9,1.7c-0.3-0.2-0.7-0.4-1.1-0.4
	c-0.6,0-1.1,0.2-1.5,0.7c-0.5,0.9-0.7,1.9-0.6,2.9v5.7h-1.9v-10.7H897.3z"/>
<path class="st1" d="M912.9,214.1H911v-16.8h1.9v1.5c0.9-1.1,2.2-1.8,3.7-1.8c3.4,0,5.2,2.8,5.2,5.7s-1.9,5.6-5.2,5.6
	c-1.5,0-2.9-0.6-3.8-1.8L912.9,214.1z M919.9,202.8c0-2.7-1.8-4.1-3.5-4.1c-2.1,0.1-3.7,1.8-3.6,3.9v0.1c-0.2,2,1.3,3.8,3.4,4h0.2
	C918.6,206.7,919.9,204.9,919.9,202.8L919.9,202.8z"/>
<path class="st1" d="M924.7,197.3h1.9v1.2c0.5-0.9,1.4-1.4,2.4-1.5c0.6,0,1.2,0.2,1.7,0.4l-0.9,1.7c-0.3-0.2-0.7-0.4-1.1-0.4
	c-0.6,0-1.1,0.2-1.5,0.7c-0.5,0.9-0.7,1.9-0.6,2.9v5.7h-1.9L924.7,197.3L924.7,197.3z"/>
<path class="st1" d="M949,205.4c-0.9,1.9-2.8,3-4.9,3c-1.7,0.1-3.3-0.8-4.2-2.2c-0.8,1.4-2.4,2.2-4,2.2c-2.5,0-4.7-1.1-4.7-3.5
	s2-3.6,4.5-3.6c1.1,0,2.2,0.3,3.1,0.9c0-0.8-0.1-1.6-0.5-2.3c-0.5-0.9-1.5-1.4-2.6-1.2c-1.1,0.1-2.3,0.3-3.3,0.7v-1.8
	c1.1-0.4,2.2-0.6,3.3-0.6c1.7-0.2,3.3,0.7,4.1,2.2c0.9-1.4,2.5-2.2,4.1-2.2c3.1,0,5.1,2.3,5.1,5.9v0.2h-8.5
	c-0.1,1.9,1.5,3.6,3.4,3.7c1.4-0.1,2.7-1,3.3-2.3L949,205.4z M933,204.9c0,0.8,0.6,1.8,2.7,1.8s2.9-1.1,2.9-1.9s-0.6-1.8-2.8-1.8
	C934,203,933,203.9,933,204.9L933,204.9z M947.1,201.5c-0.2-1.8-1.8-3-3.6-2.8c-1.5,0.2-2.6,1.3-2.8,2.8H947.1z"/>
<path class="st1" d="M952.5,197.3l3.2,7.3l3.2-7.3h2.1l-5.3,11.5l-5.3-11.5H952.5z"/>
<path class="st1" d="M972.5,205.3c-0.3,0.7-0.8,1.2-1.3,1.7c-1,0.9-2.3,1.4-3.6,1.3c-2.6,0-5.3-1.6-5.3-5.6c0-3.2,2-5.7,5.2-5.7
	c1.6-0.1,3.1,0.7,4.1,2c0.7,1.2,1.1,2.6,1,4.1h-8.4c-0.1,1.9,1.4,3.5,3.3,3.6l0,0h0.2c0.8,0,1.6-0.3,2.2-0.8
	c0.5-0.4,0.9-0.9,1.1-1.5L972.5,205.3z M970.7,201.5c-0.2-1.6-1.6-2.8-3.2-2.8c-1.6,0-2.9,1.2-3.2,2.8H970.7z"/>
<path class="st1" d="M975.5,197.3h1.9v1.2c0.7-1,1.9-1.5,3.1-1.5c1.2,0,2.4,0.5,3.1,1.5c0.5,0.9,0.7,1.9,0.6,2.9v6.7h-1.9v-6.6
	c0.1-0.7-0.1-1.4-0.5-2c-0.4-0.5-1.1-0.8-1.8-0.8s-1.4,0.3-1.9,0.8c-0.6,0.9-0.8,1.9-0.8,2.9v5.6h-1.9L975.5,197.3z"/>
<path class="st1" d="M989.6,199v9.1h-1.9V199h-1.1v-1.7h1.1v-3.9h1.9v3.9h1.9v1.7H989.6z"/>
<path class="st1" d="M994.2,191.9c0.7,0,1.3,0.6,1.3,1.3s-0.6,1.3-1.3,1.3s-1.3-0.6-1.3-1.3l0,0
	C992.9,192.5,993.5,191.9,994.2,191.9z M995.2,197.3v10.8h-1.9v-10.8H995.2z"/>
<path class="st1" d="M998,202.7c0-3.2,2.5-5.7,5.7-5.8c3.2,0,5.7,2.5,5.8,5.7c0,3.2-2.5,5.7-5.7,5.8l0,0c-3.1,0.1-5.6-2.2-5.8-5.3
	V203C998,202.9,998,202.8,998,202.7z M999.9,202.7c0.1,2.1,1.9,3.7,4,3.6s3.7-1.9,3.6-4c-0.1-2-1.8-3.6-3.8-3.6
	c-2.1,0-3.8,1.6-3.8,3.7l0,0C999.9,202.5,999.9,202.6,999.9,202.7L999.9,202.7z"/>
<path class="st1" d="M1012.3,197.3h1.9v1.2c0.7-1,1.9-1.5,3.1-1.5c1.2-0.1,2.4,0.5,3.1,1.5c0.5,0.9,0.7,1.9,0.6,2.9v6.7h-1.9v-6.6
	c0.1-0.7-0.1-1.4-0.5-2c-0.4-0.5-1.1-0.8-1.8-0.8s-1.4,0.3-1.9,0.8c-0.6,0.9-0.9,1.9-0.8,2.9v5.6h-1.9L1012.3,197.3z"/>
<path class="st1" d="M1025.7,205.8c0.7,0,1.3,0.6,1.3,1.3s-0.6,1.3-1.3,1.3c-0.7,0-1.3-0.6-1.3-1.3l0,0
	C1024.4,206.3,1025,205.8,1025.7,205.8z"/>
<path class="st1" d="M680.1,66c4.2,0,7.8,0.4,11.2,2.9c3.7,2.9,5.9,7.4,5.8,12.1c0.2,4.8-2.1,9.3-6,12.1c-3.5,2.5-6.8,2.9-11,2.9
	h-7.7V66H680.1z M678.1,91h1.8c2.6,0.1,5.1-0.6,7.3-2c2.5-1.9,3.8-4.9,3.7-8c0.1-3.1-1.3-6-3.7-8c-2.2-1.4-4.8-2.1-7.4-2H678v20
	H678.1z"/>
<path class="st1" d="M708.3,66v18.9c-0.3,3.4,2.3,6.4,5.7,6.7c1.9,0.1,3.7-0.6,5-1.9c0.1-0.1,0.2-0.2,0.3-0.3c1-1.3,1.5-2.8,1.4-4.4
	V66h5.8v18.4c0,2.8-0.5,5.7-2.2,8c-2.2,2.8-5.9,4.3-9.8,4.3s-7.7-1.5-9.8-4.3c-1.8-2.3-2.2-5.2-2.2-8V66H708.3z"/>
<path class="st1" d="M759.8,71.1h-10.1v6.7h9.5v5h-9.5v13.3h-5.8V66h15.9L759.8,71.1L759.8,71.1z"/>
<path class="st1" d="M770.7,66v30h-5.8V66H770.7z"/>
<path class="st1" d="M783.4,78.7l11-12.7h7.4l-12.6,13.9l13.4,16.2h-7.7l-10.7-13.5l-0.7,0.7v12.8h-5.8V66h5.8L783.4,78.7z"/>
<path class="st1" d="M833.3,71.1h-10.8v6.7h10.3v5h-10.3V91h10.8v5h-16.7V66h16.7V71.1z"/>
<path class="st1" d="M839,96.1V66h4l18.3,20V66h5.8v30h-4l-18.3-20v20L839,96.1z"/>
<path class="st1" d="M893.2,66c3.4,0,5.7,0.4,7.9,2.3c2,1.9,3.1,4.5,3.1,7.2c0.1,2.5-0.8,4.9-2.5,6.7c-1.7,1.7-4.1,2.7-7.6,2.7h-3.8
	v11.2h-5.8V66H893.2z M890.3,79.9h2.4c1.3,0.1,2.7-0.2,3.8-0.9c1-0.9,1.6-2.2,1.6-3.5c0-1.4-0.6-2.6-1.7-3.4c-1.2-0.8-2.7-1.1-4.1-1
	h-2V79.9z"/>
<path class="st1" d="M914.4,66v25h9.3v5h-15.2V66H914.4z"/>
<path class="st1" d="M944.3,71.1h-10.8v6.7h10.3v5h-10.3V91h10.8v5h-16.7V66h16.7V71.1z"/>
<path class="st1" d="M960.4,71.1v25h-5.8v-25h-6.8V66h19.3v5L960.4,71.1z"/>
<path d="M154,239.9c0.2,22.9,1,65.9-35.9,77.6c-39.8,12.6-66.4-3.3-85-37.6c-8.6-16-21.1-37.9-15.3-47.6c6.1-10.3,34-20,55.5-25.5
	c20.5-5.2,57.3-22.3,68.4-17.9C153.1,193.4,153.9,220.9,154,239.9z"/>
<path class="st2" d="M49.1,100.1c21.7-5.5,33.7,13.6,46.6,39.4c5.9,11.8,11.4,36.2,9.2,38.1c-8.7,7.6-20.1,12.3-31.5,15.3
	c-10.4,2.7-22.3,6.5-32.4,6.8c-11.9,0.4-10.9-28.7-12.1-43.3C26.5,128.2,27.4,105.6,49.1,100.1z"/>
<path class="st2" d="M65.7,176.7l6.9-1.7c6.4-1.6,13,2.3,14.6,8.7l1.7,6.9c1.6,6.4-2.3,13-8.7,14.6l-6.9,1.7
	c-6.4,1.6-13-2.3-14.6-8.7l-1.7-6.9C55.4,184.9,59.2,178.3,65.7,176.7z"/>
<path class="st2" d="M88.7,216.1l2.8-15.9c0.8-4.3-2.1-8.3-6.3-9.1l0,0c-1.1-0.2-2.2-0.1-3.3,0.1L69,194.5c-4.2,1-6.8,5.3-5.7,9.5
	c0.3,1.1,0.8,2.1,1.5,3l10.1,12.7c2.7,3.4,7.7,3.9,11,1.2C87.3,219.7,88.3,218,88.7,216.1L88.7,216.1z"/>
<path class="st3" d="M122.2,179.8c4.5-5.6,4.1-13.7-0.9-18.8c0.3-0.9,0.4-1.9,0.5-2.9c0.4-5.7-2.6-11.1-7.7-13.7
	c4.4-6.5,2.8-15.3-3.7-19.8c-1.7-1.2-3.6-1.9-5.6-2.3c1.6-2.1,2.5-4.7,2.7-7.4c0.6-7.8-5.3-14.6-13.1-15.2c-2.1-0.2-4.1,0.1-6.1,0.9
	c0.2-0.7,0.3-1.5,0.4-2.2c0.6-7.8-5.3-14.7-13.2-15.2c-0.7-0.1-1.4-0.1-2.2,0c-6.5-1.3-15.8-0.8-25.8,1.7
	C32,88.8,20.1,96.4,18.9,102.8C11.2,104.4,6.3,112,8,119.7c0.5,2.2,1.5,4.3,3,6.1c-7,3.5-9.8,12.1-6.3,19.1c1.1,2.1,2.7,4,4.7,5.3
	c-0.9,1.7-1.4,3.5-1.5,5.4c-0.4,5.7,2.6,11.1,7.7,13.7c-4.3,6.2-2.9,14.7,3,19.3c-2.8,6.4-0.6,13.9,5.3,17.7c-1,1.8-1.6,3.8-1.8,5.9
	c-0.5,7.8,5.4,14.6,13.2,15.2s14.6-5.4,15.2-13.2c0.4-5.1-2.1-10.1-6.4-12.9c1-1.8,1.6-3.8,1.7-5.8c0.4-4.7-1.7-9.4-5.5-12.3
	c3-6.9,0.2-15-6.5-18.4c4.4-6.5,2.8-15.3-3.7-19.7l0,0c2.6-5.1,1.9-11.2-1.8-15.6c4.5-2.2,7.4-6.7,7.8-11.7c0.1-1.5,0-3-0.4-4.5
	c4.9,6.1,13.8,7.2,20,2.3c2.6-2.1,4.4-5,5.1-8.3c0.9-0.3,1.8-0.6,2.6-1c2.5,3.1,6.1,5,10,5.3c2.1,0.1,4.1-0.2,6.1-0.9
	c-0.2,0.7-0.3,1.5-0.4,2.2c-0.6,7.3,4.6,13.9,11.8,15.1c-4.6,6.3-3.3,15.2,3.1,19.9c0.6,0.4,1.3,0.8,1.9,1.2
	c-3.8,5.6-3.2,13.1,1.5,17.9c-2,6.9,1.5,14.2,8.1,17c-4.9,6.1-3.9,15.1,2.2,20s15.1,3.9,20-2.2c4.9-6.1,3.9-15.1-2.2-20
	C124.4,180.9,123.3,180.3,122.2,179.8L122.2,179.8z"/>
<path d="M70.1,126.2l-8.5,9.5c-0.2,0.2-0.2,0.5,0,0.7l0.8,0.8c0.1,0.2,0.4,0.2,0.6,0.1l0,0l8.5-9.5c0.2-0.2,0.2-0.5,0-0.7l-0.8-0.8
	C70.5,126.1,70.3,126.1,70.1,126.2L70.1,126.2z"/>
<g>
	<ellipse transform="matrix(0.8175 -0.5759 0.5759 0.8175 -77.7883 55.5203)" cx="48.7" cy="150.5" rx="4.6" ry="6.6"/>
	<ellipse transform="matrix(0.8175 -0.5759 0.5759 0.8175 -79.3733 57.6517)" class="st1" cx="51.3" cy="154.1" rx="2" ry="2.2"/>
	<path class="st1" d="M46.8,153.5c-0.2-0.3,0.1-0.9,0.7-1.4c0.6-0.4,1.2-0.5,1.5-0.2"/>
</g>
<g>
	<ellipse transform="matrix(0.965 -0.2624 0.2624 0.965 -34.5131 23.9439)" cx="72.4" cy="141.2" rx="4.7" ry="6.8"/>
	<ellipse transform="matrix(0.965 -0.2624 0.2624 0.965 -35.6258 24.4151)" class="st1" cx="73.6" cy="145.6" rx="2" ry="2.3"/>
	<path class="st1" d="M73.4,142.4c-0.1-0.4,0.4-0.9,1.1-1.1c0.7-0.2,1.4,0,1.5,0.4"/>
</g>
<path d="M38.6,137.1l12.6,1.9c0.3,0.1,0.4,0.3,0.4,0.6l-0.1,1.1c0,0.2-0.2,0.4-0.4,0.4H51l-12.6-2c-0.3-0.1-0.4-0.3-0.4-0.6l0.1-1.1
	C38.2,137.3,38.4,137.1,38.6,137.1L38.6,137.1L38.6,137.1z"/>
<path class="st4" d="M97.1,195.2L97.1,195.2c-4-1.5-8.5,0.6-10,4.6l0,0l-7,19l-12.8-13.3c-3-3.1-7.9-3.2-11-0.2l0,0
	c-3.1,3-3.2,7.9-0.2,11l21.5,22.4c3,3.1,7.9,3.2,11,0.2l0,0c1.2-1.2,2-2.7,2.3-4.3l0.1-0.2l10.7-29.2
	C103.2,201.1,101.1,196.6,97.1,195.2z"/>
<path class="st0" d="M101.1,265.4c-2.7-10.8-6.8-19.9-10.5-24.6c0.8-1,1.4-2.1,1.7-3.3l0.8-3.5c1.1-4.4-1.7-8.9-6.1-10
	c-1.4-0.3-2.8-0.3-4.2,0.1l-3.3,1c-4.4,1.3-6.9,5.8-5.6,10.2c0.4,1.3,1.1,2.6,2.1,3.6l2.5,2.5c0.9,0.9,2,1.5,3.2,1.9
	c-1,5.9-0.2,15.7,2.5,26.3c4.2,16.6,11.4,29.2,16.1,28S105.3,282.1,101.1,265.4z"/>
<polygon class="st5" points="170.5,59.2 377.1,84.2 337.7,357.9 131.1,332.8 "/>
<g>
	<g>
		<defs>
			<path id="SVGID_1_" d="M151.8,19.7l206.5,25c4.2,0.5,8,3.3,11.2,8.1c4.7,7.3,7.4,18.4,7.5,31.4l-206.5-25
				c-0.1-12.9-2.8-24.1-7.5-31.4C159.8,23,155.9,20.2,151.8,19.7z"/>
		</defs>
		<clipPath id="SVGID_2_">
			<use xlink:href="#SVGID_1_"  style="overflow:visible;"/>
		</clipPath>
		<g class="st6">
			<path class="st7" d="M151.8,19.7l206.5,25c4.2,0.5,8,3.3,11.2,8.1c2.2,3.5,3.8,7.2,4.8,11.2L167.8,39c-1-3.9-2.7-7.7-4.8-11.1
				C159.8,23,156,20.2,151.8,19.7"/>
			<path class="st8" d="M167.8,38.9l206.5,25c0.5,1.8,0.9,3.6,1.3,5.5l-206.5-25C168.8,42.5,168.3,40.7,167.8,38.9"/>
			<path class="st9" d="M169.1,44.5l206.5,25c0.3,1.6,0.5,3.2,0.8,4.8l-206.5-25C169.6,47.6,169.4,46,169.1,44.5"/>
			<path class="st10" d="M169.9,49.3l206.5,25c0.2,1.5,0.3,3,0.4,4.6l-206.5-25C170.2,52.3,170,50.8,169.9,49.3"/>
			<path class="st11" d="M170.3,53.9l206.5,25c0.1,1.5,0.2,3,0.2,4.6l-206.5-25C170.5,56.9,170.4,55.3,170.3,53.9"/>
			<path class="st12" d="M170.5,58.5l206.5,25c0,0.3,0,0.5,0,0.8l-206.5-25V58.5"/>
		</g>
	</g>
</g>
<g>
	<g>
		<defs>
			<polygon id="SVGID_3_" points="151.9,18.7 358.4,43.7 357.4,43.6 150.8,18.6 			"/>
		</defs>
		<clipPath id="SVGID_4_">
			<use xlink:href="#SVGID_3_"  style="overflow:visible;"/>
		</clipPath>
		<g class="st13">
			<path class="st9" d="M151.9,18.7l206.5,25h-0.2l-206.5-25H151.9"/>
			<path class="st10" d="M151.7,18.7l206.5,25l-0.9-0.1l-206.5-25L151.7,18.7"/>
		</g>
	</g>
</g>
<g>
	<g>
		<defs>
			<path id="SVGID_5_" d="M146.7,46.3l206.5,25c4.3,0.5,7.5,6.9,7.6,16c0.1,6.5-1.1,12.9-3.5,18.9c-2.3,5.6-5.5,9.4-8.8,10.8
				c-1.1,0.5-2.2,0.7-3.4,0.7l-0.7-0.1l-206.5-25l0.7,0.1c1.2,0,2.3-0.2,3.4-0.7c3.4-1.3,6.5-5.2,8.8-10.8c2.4-6,3.6-12.4,3.5-18.9
				C154.2,53.2,151,46.8,146.7,46.3z"/>
		</defs>
		<clipPath id="SVGID_6_">
			<use xlink:href="#SVGID_5_"  style="overflow:visible;"/>
		</clipPath>
		<g class="st14">
			<path class="st7" d="M146.7,46.3l206.5,25c2.8,0.3,5.2,3.2,6.5,7.8L153.2,54C151.9,49.5,149.5,46.6,146.7,46.3"/>
			<path class="st8" d="M153.2,54l206.5,25c0.2,0.7,0.4,1.4,0.5,2.2l-206.5-25C153.5,55.4,153.4,54.7,153.2,54"/>
			<path class="st9" d="M153.7,56.3l206.5,25c0.1,0.6,0.2,1.3,0.3,2L154,58.3C153.9,57.6,153.8,56.9,153.7,56.3"/>
			<path class="st10" d="M154,58.3l206.5,25c0.1,0.6,0.1,1.2,0.2,1.8l-206.5-25C154.2,59.5,154.1,58.8,154,58.3"/>
			<path class="st11" d="M154.2,60.1l206.5,25c0,0.6,0.1,1.2,0.1,1.8l-206.5-25C154.3,61.3,154.3,60.7,154.2,60.1"/>
			<path class="st12" d="M154.3,61.9L360.8,87v0.3c0,0.7,0,1.3,0,1.9l-206.6-25c0-0.7,0-1.3,0-2L154.3,61.9"/>
			<path class="st15" d="M154.2,64.2l206.5,25c0,0.8-0.1,1.6-0.1,2.4l-206.5-25C154.2,65.8,154.3,65,154.2,64.2"/>
			<path class="st16" d="M154.1,66.6l206.5,25l-0.2,2.5l-206.5-25L154.1,66.6"/>
			<path class="st17" d="M153.9,69.1l206.5,25c-0.1,0.9-0.2,1.9-0.4,2.8l-206.5-25C153.6,70.9,153.7,70,153.9,69.1"/>
			<path class="st18" d="M153.4,71.9l206.6,25c-0.2,1.2-0.5,2.3-0.8,3.4l-206.5-25C153,74.2,153.2,73,153.4,71.9"/>
			<path class="st19" d="M152.7,75.3l206.5,25c-0.5,2-1.2,3.9-1.9,5.8c-0.8,2-1.8,3.8-3,5.6l-206.5-25c1.2-1.7,2.2-3.6,3-5.6
				C151.5,79.3,152.2,77.3,152.7,75.3"/>
			<path class="st18" d="M147.8,86.7l206.5,25c-0.5,0.7-1,1.4-1.6,2.1l-206.5-25C146.7,88.1,147.3,87.4,147.8,86.7"/>
			<path class="st17" d="M146.1,88.8l206.5,25c-0.4,0.5-0.9,0.9-1.3,1.3l-206.5-25C145.3,89.7,145.7,89.3,146.1,88.8"/>
			<path class="st16" d="M144.8,90.1l206.5,25c-0.4,0.3-0.8,0.6-1.2,0.9L143.5,91C144,90.8,144.4,90.5,144.8,90.1"/>
			<path class="st15" d="M143.6,91.1l206.6,25c-0.4,0.3-0.8,0.5-1.2,0.7l-206.5-25C142.8,91.5,143.2,91.3,143.6,91.1"/>
			<path class="st12" d="M142.4,91.7l206.5,25c-0.1,0.1-0.3,0.1-0.4,0.2c-0.3,0.1-0.6,0.2-0.9,0.3L141,92.2c0.3-0.1,0.6-0.2,0.9-0.3
				L142.4,91.7"/>
			<path class="st11" d="M141,92.2l206.5,25c-0.5,0.1-1,0.2-1.5,0.3l-206.5-25C140,92.5,140.5,92.4,141,92.2"/>
			<path class="st10" d="M139.5,92.5l206.5,25c-0.3,0-0.7,0-1,0h-0.5L138,92.5h0.5C138.9,92.5,139.2,92.5,139.5,92.5"/>
			<path class="st9" d="M138,92.5l206.5,25h-0.1l-206.5-25H138"/>
		</g>
	</g>
</g>
<g>
	<g>
		<defs>
			<path id="SVGID_7_" d="M144.6,57.2l206.5,25c0.8,0.1,1.4,0.6,1.8,1.3c0.9,1.5,1.3,3.3,1.2,5c0,2.6-0.4,5.1-1.4,7.5
				c-0.9,2.2-2.2,3.8-3.5,4.3c-0.4,0.2-0.9,0.3-1.4,0.2h-0.3L141,75.5h0.3c0.5,0,0.9-0.1,1.4-0.3c1.3-0.5,2.6-2.1,3.5-4.3
				c1-2.4,1.4-4.9,1.4-7.5c0.1-1.7-0.4-3.5-1.2-5C146,57.8,145.4,57.3,144.6,57.2z"/>
		</defs>
		<clipPath id="SVGID_8_">
			<use xlink:href="#SVGID_7_"  style="overflow:visible;"/>
		</clipPath>
		<g class="st20">
			<path class="st7" d="M144.6,57.2l206.5,25c0.8,0.1,1.4,0.6,1.8,1.3c0.3,0.5,0.6,1.1,0.8,1.8l-206.5-25c-0.2-0.6-0.4-1.2-0.8-1.8
				C146,57.8,145.4,57.3,144.6,57.2"/>
			<path class="st8" d="M147.2,60.2l206.5,25c0.1,0.3,0.2,0.6,0.2,0.9l-206.6-25C147.3,60.8,147.3,60.5,147.2,60.2"/>
			<path class="st9" d="M147.4,61.1l206.6,25c0,0.3,0.1,0.5,0.1,0.8l-206.5-25C147.5,61.6,147.4,61.4,147.4,61.1"/>
			<path class="st10" d="M147.5,61.9l206.5,25c0,0.2,0,0.5,0.1,0.7l-206.5-25C147.6,62.4,147.6,62.2,147.5,61.9"/>
			<path class="st11" d="M147.6,62.6l206.5,25c0,0.2,0,0.5,0,0.7l-206.6-25C147.6,63.1,147.6,62.8,147.6,62.6"/>
			<path class="st12" d="M147.6,63.4l206.6,25v0.1c0,0.3,0,0.5,0,0.8l-206.5-25c0-0.3,0-0.5,0-0.8L147.6,63.4"/>
			<path class="st15" d="M147.6,64.2l206.5,25l-0.1,1l-206.5-25L147.6,64.2"/>
			<path class="st16" d="M147.6,65.2l206.5,25l-0.1,1l-206.6-25L147.6,65.2"/>
			<path class="st17" d="M147.4,66.2l206.6,25c0,0.4-0.1,0.7-0.2,1.1l-206.6-25C147.3,66.9,147.4,66.6,147.4,66.2"/>
			<path class="st18" d="M147.3,67.3l206.6,25c-0.1,0.5-0.2,0.9-0.3,1.4L147,68.7C147.1,68.2,147.2,67.8,147.3,67.3"/>
			<path class="st19" d="M147,68.7l206.5,25c-0.2,0.8-0.5,1.6-0.8,2.3c-0.3,0.8-0.7,1.5-1.2,2.2L145,73.2c0.5-0.7,0.9-1.4,1.2-2.2
				C146.5,70.2,146.8,69.5,147,68.7"/>
			<path class="st18" d="M145,73.2l206.5,25c-0.2,0.3-0.4,0.6-0.6,0.8L144.4,74C144.6,73.7,144.8,73.5,145,73.2"/>
			<path class="st17" d="M144.4,74l206.5,25c-0.2,0.2-0.3,0.4-0.5,0.5l-206.5-25C144,74.4,144.2,74.2,144.4,74"/>
			<path class="st16" d="M143.8,74.6l206.5,25l-0.5,0.4L143.4,75C143.5,74.9,143.7,74.8,143.8,74.6"/>
			<path class="st15" d="M143.4,74.9l206.5,25c-0.2,0.1-0.3,0.2-0.5,0.3l-206.5-25C143,75.1,143.2,75,143.4,74.9"/>
			<path class="st12" d="M142.9,75.2l206.5,25l-0.2,0.1l-0.4,0.1l-206.5-25c0.1,0,0.3-0.1,0.4-0.1L142.9,75.2"/>
			<path class="st11" d="M142.3,75.5l206.5,25c-0.2,0.1-0.4,0.1-0.6,0.1l-206.5-25C141.9,75.6,142.1,75.5,142.3,75.5"/>
			<path class="st10" d="M141.7,75.5l206.5,25h-0.4h-0.2l-206.5-25h0.2H141.7"/>
			<path class="st9" d="M141.1,75.5l206.5,25h-0.1L141.1,75.5L141.1,75.5"/>
		</g>
	</g>
</g>
<polygon class="st21" points="143.6,56.3 350.2,81.4 350.2,82.3 143.6,57.3 "/>
<g>
	<g>
		<defs>
			<path id="SVGID_9_" d="M144.8,56.2l206.5,25h-0.2c-0.3,0-0.7,0-1,0.2l-206.5-25c0.3-0.1,0.7-0.2,1-0.2L144.8,56.2z"/>
		</defs>
		<clipPath id="SVGID_10_">
			<use xlink:href="#SVGID_9_"  style="overflow:visible;"/>
		</clipPath>
		<g class="st22">
			<path class="st9" d="M144.8,56.2l206.5,25l0,0L144.8,56.2L144.8,56.2"/>
			<path class="st10" d="M144.7,56.2l206.5,25h-0.1h-0.3l-206.5-25L144.7,56.2L144.7,56.2"/>
			<path class="st11" d="M144.3,56.2l206.5,25c-0.1,0-0.3,0-0.4,0.1l-206.5-25L144.3,56.2"/>
			<path class="st12" d="M143.9,56.2l206.5,25l-0.3,0.1l-206.5-25C143.7,56.3,143.8,56.3,143.9,56.2"/>
		</g>
	</g>
</g>
<g>
	<g>
		<defs>
			<path id="SVGID_11_" d="M311.3,387.5l-206.6-25l1,0.1c3.5,0,6.9-1.2,9.6-3.5c6.5-4.8,12.1-14.1,15.8-26.2l206.5,25
				c-3.7,12.1-9.3,21.4-15.8,26.2c-2.7,2.2-6.1,3.4-9.6,3.5L311.3,387.5z"/>
		</defs>
		<clipPath id="SVGID_12_">
			<use xlink:href="#SVGID_11_"  style="overflow:visible;"/>
		</clipPath>
		<g class="st23">
			<path class="st19" d="M131.1,332.8l206.5,25c-1.9,6.5-4.7,12.7-8.5,18.4l-206.5-25C126.4,345.5,129.2,339.3,131.1,332.8"/>
			<path class="st18" d="M122.7,351.2l206.5,25c-1,1.4-2,2.8-3.2,4.1l-206.5-25C120.6,354,121.7,352.6,122.7,351.2"/>
			<path class="st17" d="M119.4,355.3l206.6,25c-0.8,0.9-1.7,1.8-2.7,2.7l-206.6-25C117.7,357.2,118.6,356.3,119.4,355.3"/>
			<path class="st16" d="M116.8,358l206.5,25c-0.5,0.4-1,0.8-1.4,1.1s-0.7,0.5-1.1,0.8l-206.5-25c0.4-0.2,0.7-0.5,1.1-0.8
				S116.3,358.4,116.8,358"/>
			<path class="st15" d="M114.2,359.9l206.5,25c-0.7,0.5-1.5,0.9-2.4,1.3l-206.5-25C112.7,360.8,113.5,360.4,114.2,359.9"/>
			<path class="st12" d="M111.9,361.2l206.5,25c-0.7,0.4-1.5,0.7-2.3,0.9l-206.5-25C110.4,361.8,111.1,361.5,111.9,361.2"/>
			<path class="st11" d="M109.6,362l206.5,25c-0.7,0.2-1.5,0.4-2.3,0.5l-206.5-25C108.1,362.4,108.8,362.3,109.6,362"/>
			<path class="st10" d="M107.3,362.5l206.5,25c-0.5,0-1,0.1-1.5,0.1l-0.8-0.1l-206.5-25l0.8,0.1
				C106.3,362.6,106.8,362.5,107.3,362.5"/>
			<path class="st9" d="M104.9,362.5l206.5,25h-0.2l-206.6-25H104.9"/>
		</g>
	</g>
</g>
<g>
	<g>
		<defs>
			<path id="SVGID_13_" d="M108.4,287.4l206.5,25c1.9,0.3,3.7,1.2,5,2.6c2.8,2.7,4.6,7.6,5.3,13.9c0.6,6.5,0,13-1.9,19.2
				c-1.5,4.9-3.8,8.7-6.4,10.6c-1.1,0.9-2.4,1.4-3.9,1.4h-0.4l-206.5-25h0.4c1.4,0,2.8-0.5,3.8-1.4c2.6-2,4.9-5.7,6.4-10.6
				c1.9-6.2,2.6-12.8,2-19.2c-0.6-6.2-2.5-11.2-5.3-13.9C112.1,288.6,110.3,287.7,108.4,287.4z"/>
		</defs>
		<clipPath id="SVGID_14_">
			<use xlink:href="#SVGID_13_"  style="overflow:visible;"/>
		</clipPath>
		<g class="st24">
			<path class="st7" d="M108.4,287.4l206.5,25c1.9,0.3,3.7,1.2,5,2.6c2,2.2,3.4,4.8,4.1,7.6l-206.5-25c-0.7-2.9-2.1-5.5-4.1-7.6
				C112.1,288.6,110.3,287.7,108.4,287.4"/>
			<path class="st8" d="M117.6,297.6l206.5,25c0.3,0.9,0.5,1.8,0.7,2.8l-206.5-25C118,299.5,117.8,298.5,117.6,297.6"/>
			<path class="st9" d="M118.2,300.5l206.5,25c0.1,0.8,0.3,1.6,0.4,2.5l-206.5-25C118.5,302.1,118.4,301.3,118.2,300.5"/>
			<path class="st10" d="M118.6,303l206.5,25c0,0.3,0.1,0.6,0.1,0.9c0,0.5,0.1,1,0.1,1.5l-206.5-25c0-0.5-0.1-1-0.1-1.5
				C118.7,303.6,118.6,303.3,118.6,303"/>
			<path class="st11" d="M118.8,305.4l206.5,25c0,0.8,0.1,1.5,0.1,2.3l-206.5-25C118.9,306.9,118.9,306.1,118.8,305.4"/>
			<path class="st12" d="M118.9,307.7l206.5,25c0,0.8,0,1.5,0,2.3l-206.5-25C118.9,309.2,118.9,308.5,118.9,307.7"/>
			<path class="st15" d="M118.9,310l206.5,25c-0.1,0.8-0.1,1.6-0.1,2.3l-206.5-25C118.9,311.6,118.9,310.8,118.9,310"/>
			<path class="st16" d="M118.8,312.3l206.5,25l-0.2,2.5l-206.5-25L118.8,312.3"/>
			<path class="st17" d="M118.5,314.8l206.5,25c-0.1,0.9-0.3,1.9-0.4,2.8l-206.5-25C118.3,316.7,118.4,315.7,118.5,314.8"/>
			<path class="st18" d="M118.1,317.6l206.5,25c-0.2,1.2-0.5,2.4-0.8,3.5l-206.5-25C117.6,319.9,117.9,318.8,118.1,317.6"/>
			<path class="st19" d="M117.3,321.1l206.5,25c-0.2,0.7-0.4,1.4-0.6,2c-0.8,2.6-1.9,5.1-3.4,7.4l-206.5-25c1.5-2.3,2.7-4.8,3.4-7.4
				C117,322.4,117.2,321.8,117.3,321.1"/>
			<path class="st18" d="M113.3,330.5l206.5,25c-0.4,0.6-0.8,1.1-1.3,1.7l-206.5-25C112.5,331.7,112.9,331.1,113.3,330.5"/>
			<path class="st17" d="M112,332.2l206.5,25c-0.3,0.4-0.7,0.7-1.1,1.1l-206.5-25C111.3,332.9,111.7,332.6,112,332.2"/>
			<path class="st16" d="M110.9,333.3l206.5,25c-0.2,0.2-0.4,0.3-0.6,0.5l-0.4,0.3l-206.5-25l0.4-0.3
				C110.6,333.6,110.7,333.4,110.9,333.3"/>
			<path class="st15" d="M109.9,334l206.5,25c-0.3,0.2-0.6,0.4-0.9,0.5l-206.5-25C109.3,334.4,109.6,334.2,109.9,334"/>
			<path class="st12" d="M109,334.6l206.5,25c-0.3,0.1-0.6,0.3-0.9,0.4L108,335C108.3,334.8,108.6,334.7,109,334.6"/>
			<path class="st11" d="M108.1,334.9l206.5,25c-0.3,0.1-0.6,0.2-0.9,0.2l-206.5-25C107.4,335.1,107.7,335,108.1,334.9"/>
			<path class="st10" d="M107.1,335.1l206.5,25c-0.2,0-0.4,0-0.6,0h-0.3l-206.5-25h0.3H107.1"/>
			<path class="st9" d="M106.2,335.1l206.5,25h-0.1L106.2,335.1L106.2,335.1"/>
		</g>
	</g>
</g>
<g>
	<g>
		<defs>
			<path id="SVGID_15_" d="M107.5,304.9L314,330c0.8,0.1,1.5,0.5,2,1c1.3,1.6,2,3.5,2.1,5.5c0.2,2.6,0,5.2-0.8,7.6
				c-0.4,1.6-1.3,3.1-2.5,4.2c-0.4,0.3-1,0.5-1.5,0.5h-0.2l-206.5-25h0.2c0.6,0,1.1-0.2,1.5-0.5c1.2-1.1,2.1-2.6,2.5-4.2
				c0.7-2.5,1-5.1,0.8-7.6c-0.1-2-0.8-4-2.1-5.5C108.9,305.4,108.2,305.1,107.5,304.9z"/>
		</defs>
		<clipPath id="SVGID_16_">
			<use xlink:href="#SVGID_15_"  style="overflow:visible;"/>
		</clipPath>
		<g class="st25">
			<path class="st7" d="M107.5,304.9L314,330c0.8,0.1,1.5,0.5,2,1c0.8,0.8,1.4,1.9,1.6,3l-206.5-25c-0.3-1.1-0.9-2.2-1.6-3
				C109,305.5,108.3,305.1,107.5,304.9"/>
			<path class="st8" d="M111.2,309l206.6,25c0.1,0.4,0.2,0.7,0.3,1.1l-206.5-25C111.4,309.7,111.3,309.4,111.2,309"/>
			<path class="st9" d="M111.4,310.1l206.5,25c0.1,0.3,0.1,0.6,0.1,1l-206.5-25C111.5,310.8,111.4,310.5,111.4,310.1"/>
			<path class="st10" d="M111.6,311.1l206.5,25c0,0.1,0,0.2,0,0.4c0,0.1,0,0.4,0.1,0.6l-206.6-25c0-0.2,0-0.4,0-0.6
				C111.6,311.3,111.6,311.3,111.6,311.1"/>
			<path class="st11" d="M111.7,312.1l206.6,25c0,0.3,0,0.6,0,0.9l-206.5-25C111.7,312.7,111.7,312.4,111.7,312.1"/>
			<path class="st12" d="M111.7,313l206.6,25c0,0.3,0,0.6,0,0.9l-206.5-25C111.7,313.6,111.7,313.3,111.7,313"/>
			<path class="st15" d="M111.7,313.9l206.5,25l-0.1,0.9l-206.5-25L111.7,313.9"/>
			<path class="st16" d="M111.7,314.9l206.5,25l-0.1,1l-206.5-25L111.7,314.9"/>
			<path class="st17" d="M111.6,315.8l206.5,25c0,0.4-0.1,0.7-0.2,1.1l-206.6-25C111.4,316.6,111.5,316.2,111.6,315.8"/>
			<path class="st18" d="M111.4,316.9l206.5,25c-0.1,0.5-0.2,0.9-0.3,1.4l-206.5-25C111.2,317.9,111.3,317.4,111.4,316.9"/>
			<path class="st19" d="M111.1,318.3l206.5,25c-0.1,0.3-0.1,0.6-0.2,0.8c-0.3,1.1-0.8,2-1.4,3l-206.5-25c0.6-0.9,1-1.9,1.3-2.9
				L111.1,318.3"/>
			<path class="st18" d="M109.5,322.1l206.5,25c-0.2,0.2-0.3,0.4-0.5,0.6l-206.5-25C109.2,322.5,109.4,322.3,109.5,322.1"/>
			<path class="st17" d="M109,322.7l206.5,25c-0.1,0.2-0.3,0.3-0.4,0.4l-206.5-25C108.7,323,108.9,322.9,109,322.7"/>
			<path class="st16" d="M108.5,323.2l206.5,25l-0.2,0.2l-0.2,0.1l-206.5-25l0.2-0.1L108.5,323.2"/>
			<path class="st15" d="M108.2,323.5l206.5,25c-0.1,0.1-0.2,0.2-0.4,0.2l-206.5-25C107.9,323.6,108,323.5,108.2,323.5"/>
			<path class="st12" d="M107.8,323.7l206.5,25c-0.1,0.1-0.2,0.1-0.4,0.1l-206.5-25L107.8,323.7"/>
			<path class="st11" d="M107.4,323.8l206.5,25c-0.1,0-0.2,0.1-0.4,0.1l-206.6-25C107.1,323.9,107.2,323.8,107.4,323.8"/>
			<path class="st10" d="M107,323.9l206.5,25h-0.2h-0.1l-206.5-25h0.1H107"/>
			<path class="st9" d="M106.7,323.9l206.5,25l0,0L106.7,323.9L106.7,323.9"/>
		</g>
	</g>
</g>
<polygon class="st26" points="105.4,323.2 311.9,348.2 311.7,349.2 105.1,324.1 "/>
<g>
	<g>
		<defs>
			<path id="SVGID_17_" d="M313.1,349.9l-206.5-25c-0.5-0.1-1-0.3-1.4-0.7l206.5,25C312,349.6,312.5,349.8,313.1,349.9z"/>
		</defs>
		<clipPath id="SVGID_18_">
			<use xlink:href="#SVGID_17_"  style="overflow:visible;"/>
		</clipPath>
		<g class="st27">
			<path class="st7" d="M105.1,324.1l206.5,25c0.4,0.4,0.9,0.7,1.4,0.7l-206.5-25C106,324.8,105.5,324.5,105.1,324.1"/>
		</g>
	</g>
</g>
<g>
	<g>
		<defs>
			<path id="SVGID_19_" d="M107.6,304l206.5,25h-0.3c-1,0-1.9,0.3-2.6,0.9c-1.8,1.3-3.3,3.9-4.4,7.2c-1.3,4.2-1.7,8.6-1.3,12.9
				c0.4,4.2,1.7,7.5,3.5,9.3c0.9,0.9,2.1,1.5,3.4,1.7L106,336.1c-1.3-0.2-2.5-0.8-3.3-1.7c-1.8-1.8-3.1-5.1-3.6-9.3
				c-0.4-4.4,0-8.8,1.3-12.9c1-3.3,2.6-5.9,4.3-7.2c0.7-0.6,1.7-0.9,2.6-1H107.6z"/>
		</defs>
		<clipPath id="SVGID_20_">
			<use xlink:href="#SVGID_19_"  style="overflow:visible;"/>
		</clipPath>
		<g class="st28">
			<path class="st9" d="M107.6,304l206.5,25H314L107.6,304L107.6,304"/>
			<path class="st10" d="M107.6,303.9L314.1,329h-0.2h-0.4L107,304c0.1,0,0.3,0,0.4,0L107.6,303.9"/>
			<path class="st11" d="M106.9,303.9l206.5,25c-0.2,0-0.4,0.1-0.6,0.1l-206.5-25C106.5,304,106.7,304,106.9,303.9"/>
			<path class="st12" d="M106.3,304l206.5,25c-0.2,0.1-0.4,0.1-0.6,0.2l-206.5-25C105.9,304.2,106.1,304.1,106.3,304"/>
			<path class="st15" d="M105.7,304.3l206.5,25c-0.2,0.1-0.4,0.2-0.7,0.4l-206.5-25C105.2,304.5,105.4,304.4,105.7,304.3"/>
			<path class="st16" d="M105,304.7l206.5,25l-0.3,0.2l-0.4,0.3l-206.5-25l0.4-0.3L105,304.7"/>
			<path class="st17" d="M104.3,305.2l206.5,25c-0.3,0.2-0.5,0.5-0.7,0.7l-206.5-25C103.8,305.7,104,305.4,104.3,305.2"/>
			<path class="st18" d="M103.6,305.9l206.5,25c-0.3,0.4-0.6,0.7-0.9,1.1l-206.5-25C103,306.6,103.3,306.2,103.6,305.9"/>
			<path class="st19" d="M102.7,307l206.5,25c-1,1.6-1.8,3.3-2.3,5.1c-0.1,0.5-0.3,0.9-0.4,1.4l-206.5-25c0.1-0.5,0.3-0.9,0.4-1.4
				C100.9,310.3,101.7,308.6,102.7,307"/>
			<path class="st18" d="M100,313.5l206.5,25c-0.2,0.8-0.4,1.6-0.5,2.4l-206.5-25C99.6,315,99.8,314.2,100,313.5"/>
			<path class="st17" d="M99.4,315.8l206.5,25c-0.1,0.6-0.2,1.2-0.3,1.9l-206.5-25C99.2,317.1,99.3,316.5,99.4,315.8"/>
			<path class="st16" d="M99.2,317.7l206.5,25l-0.2,1.7L99,319.4L99.2,317.7"/>
			<path class="st15" d="M99,319.4l206.5,25c-0.1,0.5-0.1,1-0.1,1.6L98.9,321C98.9,320.5,98.9,320,99,319.4"/>
			<path class="st12" d="M98.9,321l206.5,25c0,0.5,0,1,0,1.5l-206.5-25C98.9,322,98.9,321.5,98.9,321"/>
			<path class="st11" d="M98.9,322.5l206.5,25c0,0.5,0,1,0.1,1.5L99,324C99,323.5,98.9,323,98.9,322.5"/>
			<path class="st10" d="M99,324l206.5,25l0.1,1l0.1,0.6l-206.5-25l-0.1-0.6L99,324"/>
			<path class="st9" d="M99.1,325.6l206.5,25c0.1,0.6,0.2,1.1,0.3,1.7l-206.5-25C99.3,326.8,99.2,326.2,99.1,325.6"/>
			<path class="st8" d="M99.4,327.3l206.5,25c0.1,0.6,0.3,1.3,0.5,1.9l-206.5-25C99.6,328.6,99.5,328,99.4,327.3"/>
			<path class="st7" d="M99.8,329.2l206.5,25c0.5,1.9,1.4,3.7,2.8,5.1c0.9,0.9,2.1,1.5,3.4,1.7L106,336c-1.3-0.2-2.5-0.8-3.3-1.7
				C101.3,332.9,100.3,331.1,99.8,329.2"/>
		</g>
	</g>
</g>
<g>
	<g>
		<defs>
			<path id="SVGID_21_" d="M344.3,118.5l-206.6-25c-6.9-0.8-12.2-11.2-12.3-26c-0.1-10.4,1.8-20.8,5.7-30.5
				c3.8-9,8.8-15.2,14.2-17.4c1.7-0.7,3.6-1.1,5.5-1l206.5,25c-1.9,0-3.7,0.3-5.5,1c-5.4,2.2-10.5,8.3-14.2,17.4
				c-3.9,9.7-5.8,20.1-5.7,30.5C332.1,107.3,337.3,117.7,344.3,118.5z"/>
		</defs>
		<clipPath id="SVGID_22_">
			<use xlink:href="#SVGID_21_"  style="overflow:visible;"/>
		</clipPath>
		<g class="st29">
			<path class="st10" d="M150.8,18.6l206.5,25c-0.5,0-1.1,0-1.6,0.1l-206.5-25C149.8,18.7,150.3,18.6,150.8,18.6"/>
			<path class="st11" d="M149.2,18.7l206.5,25c-0.8,0.1-1.6,0.2-2.4,0.5l-206.5-25C147.6,18.9,148.4,18.8,149.2,18.7"/>
			<path class="st12" d="M146.9,19.2l206.5,25c-0.5,0.2-1,0.3-1.5,0.5l-0.7,0.3L144.6,20c0.2-0.1,0.5-0.2,0.7-0.3
				C145.8,19.5,146.3,19.3,146.9,19.2"/>
			<path class="st15" d="M144.6,20l206.5,25c-0.7,0.3-1.3,0.7-1.9,1.1l-206.5-25C143.3,20.7,143.9,20.3,144.6,20"/>
			<path class="st16" d="M142.7,21.1l206.5,25c-0.7,0.5-1.4,1-2,1.5l-206.5-25C141.3,22,142,21.5,142.7,21.1"/>
			<path class="st17" d="M140.7,22.6l206.5,25c-0.8,0.7-1.5,1.4-2.2,2.1l-206.5-25C139.2,24,140,23.3,140.7,22.6"/>
			<path class="st18" d="M138.5,24.7l206.5,25c-0.9,1.1-1.8,2.2-2.6,3.3L135.9,28C136.7,26.9,137.6,25.8,138.5,24.7"/>
			<path class="st19" d="M135.9,28.1l206.5,25c-1.9,2.8-3.5,5.8-4.8,9c-1.3,3.1-2.3,6.2-3.1,9.4L128,46.5c0.8-3.2,1.9-6.4,3.1-9.4
				C132.4,33.9,134,30.9,135.9,28.1"/>
			<path class="st18" d="M128,46.5l206.5,25c-0.5,1.8-0.9,3.7-1.2,5.6L126.8,52C127.1,50.2,127.5,48.3,128,46.5"/>
			<path class="st17" d="M126.8,52l206.5,25c-0.3,1.5-0.5,3-0.7,4.5l-206.5-25C126.2,55.1,126.5,53.6,126.8,52"/>
			<path class="st16" d="M126.1,56.5l206.5,25l-0.4,4l-206.5-25L126.1,56.5"/>
			<path class="st15" d="M125.7,60.6l206.5,25c-0.1,1.3-0.2,2.6-0.2,3.8l-206.5-25C125.4,63.2,125.5,61.9,125.7,60.6"/>
			<path class="st12" d="M125.4,64.4l206.6,25c0,1,0,2.1,0,3.1V93L125.5,68v-0.5C125.5,66.6,125.5,65.5,125.4,64.4"/>
			<path class="st11" d="M125.4,68.1l206.6,25c0,1,0.1,2,0.1,3l-206.5-25C125.5,70.1,125.5,69.1,125.4,68.1"/>
			<path class="st10" d="M125.5,71.1l206.5,25c0.1,1,0.2,2,0.3,3l-206.6-25C125.7,73.1,125.6,72.1,125.5,71.1"/>
			<path class="st9" d="M125.8,74.1l206.5,25c0.1,1.1,0.3,2.2,0.5,3.2l-206.5-25C126.1,76.2,125.9,75.2,125.8,74.1"/>
			<path class="st8" d="M126.3,77.2l206.5,25c0.2,1.3,0.5,2.5,0.9,3.7l-206.5-25C126.8,79.8,126.6,78.5,126.3,77.2"/>
			<path class="st7" d="M127.2,80.9l206.5,25c2.1,7.3,6,12,10.5,12.6l-206.6-25C133.1,92.9,129.3,88.2,127.2,80.9"/>
		</g>
	</g>
</g>
<g>
	<g>
		<defs>
			<path id="SVGID_23_" d="M108.5,286.5l206.5,25l-0.7-0.1c-6.2-0.2-12.9,7.1-16.7,19.5c-3.1,10-4.1,20.6-3.2,31
				c1,10.1,4,18,8.5,22.4c1.9,2,4.3,3.4,7,4c0.4,0.1,0.7,0.1,1.1,0.2l-206.5-25c-0.4,0-0.7-0.1-1.1-0.2c-2.7-0.6-5.1-2-7-3.9
				C92,355,89,347.1,88,337c-1-10.4,0.1-21,3.2-31c3.8-12.4,10.5-19.7,16.7-19.5C108.1,286.4,108.3,286.4,108.5,286.5z"/>
		</defs>
		<clipPath id="SVGID_24_">
			<use xlink:href="#SVGID_23_"  style="overflow:visible;"/>
		</clipPath>
		<g class="st30">
			<path class="st9" d="M108.5,286.5l206.5,25h-0.1l-206.5-25H108.5"/>
			<path class="st10" d="M108.4,286.4l206.5,25h-0.5c-0.3,0-0.7,0-1,0l-206.5-25c0.3,0,0.7,0,1,0H108.4"/>
			<path class="st11" d="M106.8,286.4l206.5,25c-0.5,0.1-1,0.2-1.5,0.3l-206.5-25C105.8,286.6,106.3,286.5,106.8,286.4"/>
			<path class="st12" d="M105.3,286.7l206.5,25c-0.5,0.1-1,0.3-1.5,0.6l-206.5-25C104.3,287.1,104.8,286.9,105.3,286.7"/>
			<path class="st15" d="M103.8,287.3l206.5,25c-0.5,0.3-1,0.5-1.5,0.9l-206.5-25C102.7,287.8,103.2,287.5,103.8,287.3"/>
			<path class="st16" d="M102.2,288.2l206.5,25c-0.6,0.4-1.1,0.8-1.6,1.2l-206.5-25C101.1,289,101.7,288.5,102.2,288.2"/>
			<path class="st17" d="M100.6,289.4l206.5,25c-0.6,0.5-1.2,1.1-1.8,1.8l-206.5-25C99.4,290.5,100,289.9,100.6,289.4"/>
			<path class="st18" d="M98.8,291.1l206.5,25c-0.8,0.9-1.5,1.8-2.1,2.7l-206.5-25C97.3,292.9,98.1,292,98.8,291.1"/>
			<path class="st19" d="M96.7,293.9l206.5,25c-2.4,3.7-4.3,7.7-5.6,12c-0.3,1.1-0.6,2.2-0.9,3.3l-206.5-25c0.3-1.1,0.6-2.2,0.9-3.3
				C92.4,301.6,94.2,297.5,96.7,293.9"/>
			<path class="st18" d="M90.2,309.2l206.5,25c-0.5,1.9-0.9,3.7-1.2,5.6L89,314.9C89.4,313,89.8,311.1,90.2,309.2"/>
			<path class="st17" d="M89,314.9l206.5,25c-0.3,1.5-0.5,3-0.7,4.5l-206.5-25C88.4,317.8,88.7,316.3,89,314.9"/>
			<path class="st16" d="M88.3,319.3l206.5,25l-0.4,4l-206.5-25L88.3,319.3"/>
			<path class="st15" d="M87.9,323.4l206.5,25c-0.1,1.3-0.2,2.5-0.2,3.8l-206.5-25C87.7,325.9,87.8,324.7,87.9,323.4"/>
			<path class="st12" d="M87.7,327.1l206.5,25c0,1.2,0,2.5,0,3.7l-206.5-25C87.7,329.6,87.7,328.4,87.7,327.1"/>
			<path class="st11" d="M87.6,330.8l206.5,25c0,1.2,0.1,2.5,0.2,3.7l-206.6-25C87.7,333.3,87.6,332.1,87.6,330.8"/>
			<path class="st10" d="M87.8,334.5l206.6,25c0,0.8,0.1,1.6,0.2,2.4c0,0.5,0.1,1,0.2,1.5l-206.5-25c-0.1-0.5-0.1-1-0.2-1.5
				C87.9,336.2,87.8,335.4,87.8,334.5"/>
			<path class="st9" d="M88.2,338.4l206.5,25c0.2,1.4,0.4,2.7,0.6,4.1l-206.5-25C88.5,341.2,88.3,339.8,88.2,338.4"/>
			<path class="st8" d="M88.8,342.5l206.5,25c0.3,1.6,0.7,3.1,1.1,4.5L89.8,347C89.4,345.6,89.1,344,88.8,342.5"/>
			<path class="st7" d="M89.8,347l206.5,25c1.5,5.3,3.8,9.6,6.6,12.3c1.9,2,4.3,3.4,7,4c0.4,0.1,0.7,0.1,1.1,0.2l-206.5-25
				c-0.4,0-0.7-0.1-1.1-0.2c-2.7-0.6-5.1-2-7-4C93.6,356.6,91.4,352.4,89.8,347"/>
		</g>
	</g>
</g>
<path class="st31" d="M357.4,43.7c4.7,0.1,9,3,12.5,8.4c4.9,7.4,7.6,18.8,7.7,32.1l-39.4,274c-3.8,12.4-9.5,21.9-16.1,26.9
	c-2.8,2.3-6.2,3.5-9.8,3.5c-0.7,0-1.5-0.1-2.2-0.3c-2.7-0.6-5.1-2-7-4c-4.5-4.3-7.5-12.3-8.5-22.4c-1-10.4,0.1-21,3.1-31
	c3.8-12.4,10.5-19.7,16.7-19.5c2.2,0.1,4.3,1.1,5.9,2.7c2.9,2.8,4.8,7.9,5.5,14.4c0.6,6.7,0,13.5-2,20c-1.6,5.1-3.9,9.1-6.7,11.1
	c-1.1,0.9-2.6,1.5-4.1,1.5c-1.5-0.1-2.8-0.7-3.8-1.8c-1.8-1.8-3.1-5.1-3.5-9.3c-0.4-4.4,0-8.8,1.3-12.9c1-3.3,2.6-5.9,4.4-7.2
	c0.7-0.6,1.7-0.9,2.6-1c0.9,0.1,1.8,0.5,2.5,1.1c1.2,1.1,2,3.3,2.3,6c0.3,2.8,0,5.7-0.8,8.4c-0.4,1.8-1.4,3.5-2.8,4.7
	c-0.5,0.4-1.1,0.6-1.7,0.6s-1.2-0.3-1.6-0.8l0.3-0.9c0.4,0.4,0.9,0.6,1.4,0.7c0.6,0,1.1-0.2,1.5-0.5c1.2-1.1,2.1-2.6,2.5-4.2
	c0.8-2.5,1-5.1,0.8-7.7c-0.1-2-0.8-4-2.2-5.5c-0.6-0.6-1.4-1-2.3-1.1c-0.9,0-1.7,0.3-2.4,0.9c-1.6,1.2-3.1,3.6-4,6.7
	c-1.2,3.9-1.6,8.1-1.2,12.2c0.4,4,1.6,7.1,3.4,8.8c1,1,2.3,1.6,3.6,1.7c1.4,0,2.8-0.5,3.9-1.4c2.6-2,4.9-5.7,6.4-10.6
	c1.9-6.2,2.5-12.8,1.9-19.2c-0.6-6.2-2.5-11.2-5.3-13.9c-1.5-1.6-3.5-2.5-5.7-2.6c-6-0.2-12.5,6.9-16.2,18.9
	c-6.1,20-3.8,43.4,5.2,52.1c2.4,2.5,5.6,4,9,4.2c3.5,0,6.9-1.2,9.6-3.5c6.5-4.8,12.1-14.2,15.8-26.2L377,84.3
	c-0.1-12.9-2.8-24.1-7.5-31.3c-3.4-5.3-7.7-8.1-12.2-8.2c-1.8-0.1-3.7,0.3-5.4,1c-5.2,2.1-10.2,8.1-13.9,17
	c-3.8,9.5-5.7,19.6-5.6,29.7c0.1,14.8,5.6,25,12.6,25.2c1.2,0,2.3-0.2,3.4-0.7c3.4-1.3,6.5-5.2,8.8-10.8c2.4-6,3.6-12.4,3.5-18.9
	c-0.1-9.4-3.5-15.9-8-16c-0.7,0-1.5,0.1-2.1,0.4c-4.4,1.8-7.9,10.2-7.8,18.8c-0.1,2.8,0.6,5.6,1.9,8c0.6,1.2,1.8,2,3.1,2.1
	c0.5,0,0.9-0.1,1.4-0.3c1.3-0.5,2.6-2.1,3.5-4.3c1-2.4,1.4-4.9,1.4-7.5c0.1-1.7-0.3-3.5-1.2-5c-0.4-0.8-1.2-1.2-2-1.3
	c-0.3,0-0.6,0.1-0.9,0.2v-1c0.3-0.1,0.7-0.2,1-0.2c0.9,0.1,1.8,0.6,2.2,1.5c1,1.7,1.4,3.7,1.4,5.6c0,2.8-0.5,5.7-1.6,8.3
	c-1,2.4-2.4,4.1-3.9,4.7c-0.5,0.2-1,0.3-1.5,0.3c-1.4-0.1-2.7-1-3.4-2.3c-1.5-2.6-2.2-5.6-2.1-8.6c-0.1-9.1,3.6-18.1,8.3-20
	c0.7-0.3,1.5-0.4,2.3-0.4c1.9,0.1,3.7,1.2,5.2,3.5c2,3.1,3.1,7.8,3.2,13.3c0.1,6.7-1.2,13.4-3.7,19.7c-2.4,5.8-5.7,9.8-9.1,11.2
	c-1.1,0.5-2.3,0.7-3.5,0.7c-7.3-0.2-12.9-10.8-13-26c-0.1-10.4,1.8-20.8,5.7-30.5c3.8-9,8.8-15.2,14.2-17.4
	C353.6,43.9,355.5,43.6,357.4,43.7z"/>
<path class="st32" d="M225.1,175.4c0.7,0,1.3,0.1,2,0.2v-1.1c1-1.1,0.9-2.7-0.1-3.7c-1-0.7-2.4,0-3.1,1.2c-0.4,0.6-0.6,1.4-0.4,2.1
	C223.7,174.9,224.4,175.4,225.1,175.4z"/>
<path class="st32" d="M227.8,165.3h0.7c0.4-1.2,0.6-2.4,0.5-3.6c-0.6,0-1.2,0.1-1.8,0.4c-0.7,0.4-1.1,1-1.2,1.8
	C226,165,227.1,165.9,227.8,165.3z"/>
<path class="st32" d="M214.8,169c0.2,1,1.1,1.8,2.1,1.7c0.6,0.4,1.4,0.4,1.9-0.1c0.7-0.7,1-1.7,0.8-2.7c-0.1-0.4-0.3-0.8-0.5-1.1
	c-0.8-1.1-2.1-1.8-3.1-1.1C214.9,166.5,214.5,167.8,214.8,169L214.8,169z"/>
<path class="st32" d="M206.9,169.6c0.3,0.2,0.6,0.3,1,0.5c0.5,0.5,1,1,1.2,1.7c1.6,3,3.7,5.8,6,8.4c0.2,0.2,0.4,0.4,0.6,0.2
	s0.2-0.8,0-1.2c-2.2-4.4-4.4-8.8-6.7-13.2c-0.3-0.5-0.6-1.1-1.1-1.1l-0.5,0.2c-1.4,0.8-1.8,2.5-1.1,3.9
	C206.5,169.1,206.7,169.4,206.9,169.6z"/>
<path class="st32" d="M199.4,194.5c0.3-0.9,0.5-1.8,0.4-2.7c0.1-0.7,0-1.3-0.4-1.9l-0.8-0.1c-1-0.4-2.1,0.5-2.4,1.7
	c-0.3,1.2-0.1,2.5,0.6,3.5c0.2,0.3,0.5,0.5,0.8,0.7C198.4,196,199.1,195.4,199.4,194.5z"/>
<path class="st32" d="M202.5,209.7c0.1-1.9-0.9-3.9-0.3-5.6c0.2-0.4,0.3-0.8,0.3-1.2c-0.1-0.3-0.2-0.6-0.5-0.8l-1.5-1.5l-0.6,1
	c-0.5-0.5-1.3-0.5-1.8-0.1c-0.1,0.1-0.1,0.2-0.2,0.2c-0.5,0.8-0.8,1.7-0.8,2.7c0,0.4,0.1,0.8,0.2,1.2c0.3,0.8,1,1.1,1.4,1.8
	c0.9,1.5,0,3.8,0,5.8c0,0.2,0,0.4,0.1,0.5s0.3,0.2,0.4,0.1C201,213.7,202.4,211.8,202.5,209.7z"/>
<path class="st32" d="M201,228.7c0.1-1.3-0.3-2.6-1.1-3.6l-0.7,0.3c-1.1,1.2-1.5,2.8-1.1,4.3c0.1,0.6,0.5,1.1,1,1.4
	C200.1,231.4,200.9,229.9,201,228.7z"/>
<path class="st32" d="M207.6,258c-2.3,0-4.6,0.2-6.8,0.3l-3.5,0.3c-0.4,0-1,0.2-1,0.8l0.3,1c4.5,0.8,9,0.9,13.6,0.5
	c0.4-0.8,0.2-1.7-0.5-2.3C209,258.1,208.3,257.9,207.6,258z"/>
<path class="st32" d="M216.8,265.4L216.8,265.4c-0.2-0.5-0.7,0.1-0.9,0.8c-0.4,1.5-0.2,3.1,0.6,4.5c0.5,0.9,1.6,1.2,2.5,0.7
	c0.3-0.2,0.6-0.4,0.7-0.8c0.2-0.5,0.3-0.9,0.4-1.4c0.3-0.9,0.1-1.9-0.4-2.8C218.9,265.5,217.5,266.2,216.8,265.4z"/>
<path class="st32" d="M250.6,279.2c-0.3-0.2-0.7-0.3-1.1-0.3c-1.2-0.2-2.2-0.7-3.1-1.5l0.6,0.8c-0.2-0.3-0.7-0.1-0.8,0.4
	c-0.1,0.4-0.1,0.8,0,1.2c0.6,2.2,2.2,3.5,3.7,4.7c0.3,0.2,0.6,0.4,0.9,0.3s0.4-0.7,0.5-1.1C251.6,282,251.7,279.9,250.6,279.2z"/>
<path class="st32" d="M279.5,242.1c-0.5,0-1,0.2-1.3,0.6c-0.6,0.7-0.8,1.7-0.5,2.6c0.2,0.7,0.9,1.2,1.6,1l0,0l0.2-0.1
	c0.6-0.5,1-1.2,1-2s-0.1-1.6-0.5-2.3L279.5,242.1z"/>
<path class="st32" d="M288.5,218.4c0.3-1.5,0.2-3-0.3-4.4c-0.5-1-0.7-2.1-0.7-3.2c0.2-0.9,0.6-1.7,1-2.5c0.9-1.9,0.3-5.1-1.4-5
	s-2.4,3.5-4.1,3.8c-1.1,0.2-2.1-1.6-1.6-2.9l-0.5,0.7c0.7-1,0.6-2.4-0.2-3.3c-0.2-0.2-0.5-0.3-0.8-0.5c-1.5-1.1-0.8-4.1-0.7-6.4
	c0.1-3-1.2-5.9-3.2-7.1c-2.1-1.3-4.8-0.8-6.5,1c-0.2,0.2-0.4,0.4-0.6,0.6l0.3,0.6c0,0.1-0.1,0.3-0.1,0.4c0,0.3,0,0.7,0.1,1
	c-2.2-1.4-4.4-3.6-6.5-4.1c-1-0.2-6.3,2.3-7.2,3c-2.9,2.1,0.5-3.3-2.5-1.4c-0.8,0.4-1.6,0.6-2.5,0.8c-0.4-0.2-0.7-0.4-0.9-0.8
	c-0.3-0.4-0.5-1.1-0.9-1.5c-0.8-0.9-2-0.9-2.8-1.8c-2.5-2.5,0.9-9.1-1.5-11.7c-0.8-0.7-2-1.1-3.1-0.9c-3,0-3.9,3.5-6.9,3.6
	c0,2.8-2.1,2.1-2.1,4.9c0.1,0.7-0.1,1.3-0.5,1.9c-0.7,0.7-1.6-0.4-2.1-1.3c-1.3-2.1-3.8-3.1-6.2-2.2c-2.2,0.9-4.1,3.4-4.5,6.4
	c-0.4,2.3-0.3,5.3-2,6.2c-0.3,0.1-0.6,0.2-0.8,0.4c-1,0.8-1.3,2.1-0.9,3.2l-0.4-0.7c0.2,1.4-1.1,3-2.2,2.6c-1.6-0.6-1.6-4-3.3-4.5
	s-2.8,2.5-2.3,4.6c0.3,0.9,0.5,1.8,0.5,2.7c-0.2,1.1-0.6,2.1-1.3,3c-1,1.7-1.4,3.6-1,5.6c0.5,1.8,2.5,2.8,3.6,1.4
	c0.5-0.9,0.9-1.9,1.2-2.9c0.4-0.9,1.4-1.8,2-1.1s0.1,2.1,0,3.2l0,0c-1.6,2.9-0.2,8.2-2.1,11.3c-0.4,0.5-0.7,1-1,1.6
	c-0.4,1.3-0.2,2.7,0.5,3.8c0.6,1.1,1.4,1.9,2,3c1.3,2.6,0.8,6,0.6,9.2c0,0.7,0,1.4,0,2.1c-0.1-0.1-0.3-0.2-0.5-0.2
	c-0.6,0.1-1,0.7-1.5,1.1c-1.4,1-2.9-0.6-4.3-0.9l-0.3-0.2c0,1.3,0,2.9,0.9,3.5c0.4,0.2,0.9,0.3,1.4,0.3h1.6c0.7,0.1,1.4,0,2-0.3
	c0.5-0.2,0.9-0.6,1.1-1.1c0.2,1.5,1,2.8,2.3,3.7c0.7,0.3,1.4,0.4,2.2,0.4c-0.1,0.4-0.2,0.8-0.2,1.2c-0.7,5.6,2.6,10.4,5.7,14.2
	c1.3,1.5,2.7,3,4.4,3.6c1.9,0.6,4-0.3,4.8-2.1c0.6-1.2,0.7-2.8,1.8-3.3s2.1,1.1,2.3,2.7s-0.1,3.2,0.4,4.6c0.4,1.2,1.6,1.9,2.9,1.6
	c0.9-0.4,1.6-1.2,1.9-2.2l0.6-0.3c0.3,0.4,0.1,1.1,0,1.7c-0.3,1.4,0.2,2.8,1.4,3.7c0.3,0.1,0.6,0.2,0.9,0.2
	c-0.1,0.1-0.1,0.2-0.2,0.3c-0.2,0.5-0.3,1.1-0.3,1.7c0,0.3,0,0.6,0.1,0.9c0.3,0.7,1.1,0.5,1.5-0.2c0.3-0.7,0.4-1.5,0.4-2.2l-0.5-0.6
	l0,0c0.5-0.2,0.9-0.6,1.2-1.1c0.8-1.2,0.9-2.9,1.3-4.4s1.7-3,2.8-2.2s0.8,2.3,1.2,3.6c0.5,2,2.3,3.2,4.3,3c1.8-0.2,3.5-1.5,5-2.7
	c3.8-3,7.9-7.1,8.4-12.8c0.1-2.2-0.1-4.5-0.9-6.6c1.2,0.3,2.4,0.8,3.6,0.5c1.9-0.5,3-2.7,3.7-5.1c0.2-0.3,0.3-0.5,0.4-0.8
	c0.1-0.4,0.2-0.9,0.1-1.4c0-0.1,0-0.1,0-0.1c0.5-3.1,0.7-6.5,2.4-8.8c0.8-1,1.7-1.7,2.5-2.6c0.9-1,1.4-2.3,1.2-3.6
	c-0.2-0.6-0.4-1.2-0.6-1.7c-1-2.9,0.5-6.7,0.5-9.7c0.7-0.4,1.5,0.5,1.7,1.5c0.1,1,0.3,2.1,0.6,3.1c0.4,0.9,1.5,1.2,2.4,0.8
	c0,0,0.1,0,0.1-0.1c0.1,0.2,0.1,0.4,0.2,0.6l0.5-0.4c0.7-0.4,1.2-1.2,1.2-2.1C288.6,218.9,288.6,218.6,288.5,218.4z"/>
<path class="st32" d="M250.7,182.2c0.1,0,0.2,0,0.4-0.1c0.8-0.7,1-1.8,0.4-2.7l-0.8,0.1c-0.6-0.1-1.3,0.8-1.2,1.6
	C249.6,181.7,250.1,182.2,250.7,182.2L250.7,182.2z"/>
<path class="st32" d="M258.8,186.9c0.1-0.8-0.2-1.6-0.8-2.1l-0.2-0.3c-0.4,0-0.6,0.6-0.8,1.1c-0.1,0.8-0.2,1.6,0.2,2.1
	S258.7,187.7,258.8,186.9z"/>
<path class="st32" d="M267.1,187.4c-0.2,0.6-0.2,1.3,0.1,1.9c0.4,0.6,1.1,0.2,1.7-0.3C268.1,187.5,267.3,186.2,267.1,187.4z"/>
<path d="M185.2,118.3c-0.5-1-1.6-1.8-2.7-1.9c-1.9-0.2-2.6,0.8-2.7,1.8c-0.1,0.5,0.1,0.9,0.4,1.3c0.6,0.6,1.3,1,2,1.3
	c1.3,0.5,2.4,1.3,3.4,2.3c0.9,1.1,1.3,2.6,1,4c-0.4,3.5-3.3,5.5-7,5c-2.5-0.3-4.6-1.9-5.7-4.2l2.6-1.9c0.5,1.5,1.8,2.6,3.4,2.9
	c1.4,0.3,2.7-0.5,3-1.9c0-0.1,0-0.2,0-0.2c0.1-0.6-0.1-1.2-0.5-1.7c-0.7-0.7-1.6-1.3-2.6-1.7c-1-0.5-2-1.1-2.8-1.9
	c-0.9-1-1.2-2.2-1-3.5c0.3-2.6,2.4-5,6.4-4.5c1.9,0.2,3.6,1.2,4.8,2.8L185.2,118.3z"/>
<path d="M196.2,118.6l-1.9,14.9l-3.5-0.5l1.9-14.8l-4-0.5l0.4-3l11.5,1.5l-0.4,3L196.2,118.6z"/>
<path d="M208,117.1c1.6,0.1,3.2,0.8,4.4,1.9c1,1.2,1.5,2.7,1.2,4.2c-0.1,1.7-1.1,3.2-2.6,3.9c-0.6,0.3-1.3,0.5-2.1,0.5l4.6,8.2
	l-4.3-0.6l-3.8-7.8l-0.4-0.1l-0.9,7.2l-3.5-0.4l2.3-17.8L208,117.1z M205.2,125.1l1,0.1c0.7,0.1,3.4,0.4,3.8-2.3s-2.4-3-3-3.1
	l-1-0.1L205.2,125.1z"/>
<path d="M226.9,133.9l-7.2-0.9l-2.1,3.5l-3.8-0.5l10-16.8l2.7,0.3l5.1,18.8l-3.7-0.5L226.9,133.9z M226.2,130.9l-1.7-6.8l-3.4,6.1
	L226.2,130.9z"/>
<path d="M245.2,125l-6-0.8l-0.5,4l5.6,0.7l-0.4,3l-5.6-0.7l-1,7.9l-3.5-0.4l2.3-17.9l9.5,1.2L245.2,125z"/>
<path d="M257.7,126.7l-6-0.8l-0.5,4l5.6,0.7l-0.4,3l-5.6-0.7l-1,7.9l-3.5-0.4l2.3-17.9l9.5,1.2L257.7,126.7z"/>
<path d="M270.6,128.4l-6.4-0.8l-0.5,4l6.1,0.8l-0.4,3l-6.1-0.8l-0.6,4.9l6.4,0.8l-0.4,3l-9.9-1.3l2.3-17.9l9.9,1.3L270.6,128.4z"/>
<path d="M283.1,141.3l-7.2-0.9l-2.1,3.5l-3.8-0.5l10-16.8l2.7,0.4l5.1,18.8l-3.8-0.5L283.1,141.3z M282.5,138.3l-1.7-6.8l-3.4,6.1
	L282.5,138.3z"/>
<path d="M296.7,131.8l-1.9,14.9l-3.5-0.5l1.9-14.9l-4-0.5l0.4-3l11.5,1.5l-0.4,3L296.7,131.8z"/>
<path d="M309.6,133.4l-1.9,14.9l-3.5-0.4l1.9-14.9l-4-0.5l0.4-3L314,131l-0.4,3L309.6,133.4z"/>
<path d="M325.7,135.6l-6.4-0.8l-0.5,4l6.2,0.8l-0.4,3l-6.2-0.8l-0.6,4.9l6.4,0.8l-0.4,3l-9.9-1.3l2.3-17.9l9.9,1.3L325.7,135.6z"/>
<path d="M337.7,138.2c-0.5-1-1.5-1.8-2.7-1.9c-1.9-0.2-2.6,0.9-2.7,1.8c-0.1,0.5,0.1,0.9,0.4,1.3c0.6,0.6,1.3,1,2,1.3
	c1.3,0.5,2.4,1.3,3.4,2.3c0.9,1.1,1.3,2.6,1,4c-0.5,3.5-3.3,5.5-7,5c-2.5-0.3-4.6-1.9-5.7-4.2l2.5-1.9c0.5,1.5,1.8,2.7,3.4,2.9
	c1.4,0.3,2.7-0.5,3-1.9c0-0.1,0-0.2,0-0.2c0.1-0.6-0.1-1.2-0.5-1.7c-0.7-0.7-1.6-1.3-2.6-1.7c-1-0.5-2-1.1-2.8-1.9
	c-0.8-1-1.2-2.2-1-3.5c0.4-2.6,2.5-5,6.4-4.5c1.9,0.2,3.6,1.2,4.8,2.8L337.7,138.2z"/>
<path d="M348.7,138.6l-1.9,14.9l-3.5-0.4l1.9-14.9l-4-0.5l0.4-3l11.5,1.5l-0.4,3L348.7,138.6z"/>
<path class="st1" d="M1064.6,166.2h1.9V177h-1.9v-1.5c-0.9,1.2-2.2,1.8-3.7,1.8c-2.7,0-5.2-1.9-5.2-5.7s2.5-5.6,5.2-5.6
	c1.5,0,2.8,0.6,3.7,1.8V166.2z M1057.6,171.6c0,2.3,1.3,4.1,3.5,4.1s3.6-1.9,3.6-4c0.2-2-1.3-3.8-3.3-4c-0.1,0-0.2,0-0.3,0
	C1059.3,167.6,1057.6,169,1057.6,171.6L1057.6,171.6z M1061.6,159.6c1.2,0,2.2,1,2.2,2.2s-1,2.2-2.2,2.2s-2.2-1-2.2-2.2l0,0
	C1059.4,160.7,1060.4,159.7,1061.6,159.6L1061.6,159.6z M1061.6,163c0.6,0,1.1-0.5,1.1-1.1s-0.5-1.1-1.1-1.1s-1.1,0.5-1.1,1.1l0,0
	C1060.5,162.4,1061,162.9,1061.6,163L1061.6,163z"/>
</svg>
