<svg id="Layer_1" data-name="Layer 1" xmlns="http://www.w3.org/2000/svg" width="200" height="70" viewBox="0 0 200 70"><defs><style>.cls-1{fill:#152230;}.cls-2{fill:#fff;}</style></defs><title>spil_igen_knap</title><rect class="cls-1" x="1.5" y="2.5" width="197" height="65" rx="16.8" ry="16.8"/><path class="cls-2" d="M45.55,28.45a5.19,5.19,0,0,0-1.32-1.7A4.07,4.07,0,0,0,41.68,26a3.49,3.49,0,0,0-3.81,3.51,2.39,2.39,0,0,0,.85,2,7.52,7.52,0,0,0,2.38,1.43l2.18,1A11.12,11.12,0,0,1,46.78,36a5.48,5.48,0,0,1,1.63,4.11,6.8,6.8,0,0,1-7.17,7,6.74,6.74,0,0,1-4.93-1.83,8.32,8.32,0,0,1-2.11-4l2.45-.68A5.32,5.32,0,0,0,38,43.41a4.34,4.34,0,0,0,3.26,1.25,4.3,4.3,0,0,0,4.56-4.48,3.4,3.4,0,0,0-1.13-2.66A9.76,9.76,0,0,0,42,36l-2-1a10.14,10.14,0,0,1-3-1.87,4.7,4.7,0,0,1-1.56-3.71c0-3.5,2.68-5.85,6.35-5.85a6.13,6.13,0,0,1,3.64,1,6.78,6.78,0,0,1,2.21,2.51Z"/><path class="cls-2" d="M57.15,24c2.28,0,4.18.27,5.71,1.6a6.28,6.28,0,0,1,2.07,4.86c0,3.19-2,6.36-7.17,6.36H55.55v9.85H53V24ZM55.55,34.4h2.07c3,0,4.8-1.5,4.8-4.12,0-3.6-3.37-3.94-5-3.94H55.55Z"/><path class="cls-2" d="M71.06,24V46.63H68.54V24Z"/><path class="cls-2" d="M79.42,24V44.25h6.25v2.38H76.9V24Z"/><path class="cls-2" d="M99.51,24V46.63H97V24Z"/><path class="cls-2" d="M117.05,35.25h9.46v.54A12.44,12.44,0,0,1,124.33,43,10.17,10.17,0,0,1,115.9,47a11.52,11.52,0,0,1-11.76-11.73A11.56,11.56,0,0,1,116,23.58a11.29,11.29,0,0,1,6.93,2.25,14,14,0,0,1,2.62,2.68l-1.87,1.7a12.17,12.17,0,0,0-2.14-2.34A8.3,8.3,0,0,0,116,26a9.07,9.07,0,0,0-9.28,9.39,9.08,9.08,0,0,0,9.21,9.31,7.9,7.9,0,0,0,6.94-3.8,7.23,7.23,0,0,0,.92-3.23h-6.74Z"/><path class="cls-2" d="M142.89,26.34h-9.24v6.73h9v2.38h-9v8.8h9.24v2.38H131.13V24h11.76Z"/><path class="cls-2" d="M147.52,46.63V23L165.2,41.54V24h2.51V47.65L150,29.13v17.5Z"/></svg>
