<svg id="Layer_1" data-name="Layer 1" xmlns="http://www.w3.org/2000/svg" width="120" height="70" viewBox="0 0 120 70"><defs><style>.cls-1{fill:#152230;}.cls-2{fill:#fff;}</style></defs><title>spil_knap</title><rect class="cls-1" x="2" y="2.5" width="116" height="65" rx="16.8" ry="16.8"/><path class="cls-2" d="M45.94,28.45a5.35,5.35,0,0,0-1.33-1.7A4.05,4.05,0,0,0,42.06,26a3.48,3.48,0,0,0-3.8,3.51,2.39,2.39,0,0,0,.85,2,7.52,7.52,0,0,0,2.38,1.43l2.17,1A11,11,0,0,1,47.16,36a5.45,5.45,0,0,1,1.64,4.11,6.81,6.81,0,0,1-7.18,7,6.77,6.77,0,0,1-4.93-1.83,8.22,8.22,0,0,1-2.1-4L37,40.52a5.39,5.39,0,0,0,1.36,2.89,4.36,4.36,0,0,0,3.27,1.25,4.29,4.29,0,0,0,4.55-4.48,3.39,3.39,0,0,0-1.12-2.66A9.91,9.91,0,0,0,42.37,36l-2-1a10.23,10.23,0,0,1-3-1.87,4.71,4.71,0,0,1-1.57-3.71c0-3.5,2.69-5.85,6.36-5.85a6.17,6.17,0,0,1,3.64,1A6.87,6.87,0,0,1,48,27.12Z"/><path class="cls-2" d="M57.53,24c2.28,0,4.19.27,5.72,1.6a6.32,6.32,0,0,1,2.07,4.86c0,3.19-2,6.36-7.17,6.36H55.94v9.85H53.42V24ZM55.94,34.4H58c3,0,4.79-1.5,4.79-4.12,0-3.6-3.36-3.94-5-3.94H55.94Z"/><path class="cls-2" d="M71.44,24V46.63H68.93V24Z"/><path class="cls-2" d="M79.8,24V44.25h6.26v2.38H77.29V24Z"/></svg>
