<svg xmlns="http://www.w3.org/2000/svg" width="1600" height="900" viewBox="0 0 1600 900"><defs><style>.cls-1{fill:#89cce5;}.cls-2{fill:#5b391a;}.cls-3{fill:#c6c6c6;}.cls-4{fill:#2d2d2d;}.cls-5{fill:#fff;}.cls-6{fill:#4c4c4c;}.cls-7{fill:#7f7f7f;}.cls-8{fill:#d8d8d8;}.cls-9{fill:#aaa;}.cls-10{fill:#f4912d;}.cls-11{fill:#2b2b1c;}.cls-12{fill:#2b5b23;}.cls-13{fill:#94bc5b;}.cls-14{fill:#3a3a25;}.cls-15{fill:#ededb0;}.cls-16{fill:#ffd48d;}.cls-17{fill:#152230;}</style></defs><title>Startskaerm_ny</title><g id="Mand_forgrund"><rect class="cls-1" y="-1.11" width="1600" height="900"/><rect x="146.7" y="841.91" width="14.76" height="162.94"/><rect x="1462.16" y="841.91" width="14.76" height="162.94"/><g id="Bord_plante-2" data-name="Bord plante"><rect class="cls-2" y="691.68" width="1600" height="150.23"/><rect x="106.73" y="841.91" width="29.52" height="162.94"/><polygon class="cls-3" points="431.06 821.22 193.18 821.22 209.41 792.07 412.45 792.07 431.06 821.22"/><polygon class="cls-3" points="576.42 764.55 501.81 764.55 481.01 821.22 613.56 821.22 576.42 764.55"/><path class="cls-4" d="M553.36,793.19c1.25,11.32-3.64,21.15-10.92,21.95-3.64.4-7.18-1.53-10-5a27.31,27.31,0,0,1-5.44-14,26.71,26.71,0,0,1,2.69-15.74c2-3.51,4.84-5.83,8.22-6.21a10.24,10.24,0,0,1,7.75,2.69C549.59,780.14,552.58,786.12,553.36,793.19Z"/><polygon class="cls-5" points="551.44 785.33 539.77 786.62 538.39 774.11 537.51 774.21 538.89 786.72 527.16 788.01 527.01 789.09 551.82 786.35 551.44 785.33"/></g><path class="cls-6" d="M396.17,707.58a8.94,8.94,0,0,1,8.46-9.39,8.15,8.15,0,0,1,1.56.06,16.06,16.06,0,1,0-.28,17.76h-.35A8.93,8.93,0,0,1,396.17,707.58Z"/><ellipse class="cls-6" cx="392.85" cy="686.34" rx="4.36" ry="1.54" transform="translate(-330.36 366.4) rotate(-36.35)"/><rect class="cls-3" x="578.12" y="471.91" width="6.11" height="226.66"/><rect class="cls-5" x="163.04" y="471.91" width="415.08" height="226.66"/><path class="cls-3" d="M584.23,698.57h-10v.11a12.6,12.6,0,0,0-1.62-.11H67.47a12.32,12.32,0,0,0-1.61.11v-.11h-10v10H56a12.32,12.32,0,0,0-.11,1.61v24.33a11.63,11.63,0,0,0,11.6,11.6H572.62a11.64,11.64,0,0,0,11.61-11.6V710.17a10.81,10.81,0,0,0-.12-1.61h.12Z"/><path class="cls-6" d="M151.43,434.73h-84a11.64,11.64,0,0,0-11.6,11.61V698.57H163V434.73Z"/><path class="cls-7" d="M572.62,434.73H163v37.18H584.23V446.34A11.65,11.65,0,0,0,572.62,434.73Z"/><rect class="cls-8" x="185.76" y="530.62" width="241.9" height="156.99"/><path class="cls-6" d="M260,746.1s3.16,32-22.15,36.89H385.22S368,778,369.4,746.1Z"/><rect class="cls-4" x="55.87" y="653.19" width="107.17" height="45.38"/><path class="cls-5" d="M65,669.94v-8.43h1.27a5.57,5.57,0,0,1,1.35.13,1.86,1.86,0,0,1,.86.44,2.27,2.27,0,0,1,.56.8,2.46,2.46,0,0,1,.21,1,2,2,0,0,1-.69,1.53,2,2,0,0,1,1.06.81,2.39,2.39,0,0,1-.31,3,2.19,2.19,0,0,1-.94.58,5.35,5.35,0,0,1-1.44.16Zm1.28-4.81h.4a1.45,1.45,0,0,0,1-.32,1.41,1.41,0,0,0,0-1.83,1.49,1.49,0,0,0-1-.31h-.44Zm0,3.62h.78a2,2,0,0,0,1.27-.34,1.16,1.16,0,0,0,.43-.93,1.23,1.23,0,0,0-.41-.92,2.13,2.13,0,0,0-1.43-.37h-.64Z"/><path class="cls-5" d="M71.12,667.24a2.66,2.66,0,0,1,.83-2,2.89,2.89,0,0,1,4,0,2.81,2.81,0,0,1-2,4.81,2.74,2.74,0,0,1-2-.82A2.81,2.81,0,0,1,71.12,667.24Zm1.26,0a1.79,1.79,0,0,0,.43,1.27,1.64,1.64,0,0,0,2.3,0,2,2,0,0,0,0-2.48,1.62,1.62,0,0,0-2.29,0,1.74,1.74,0,0,0-.44,1.23Z"/><path class="cls-5" d="M77.85,667.24a2.66,2.66,0,0,1,.83-2,2.89,2.89,0,0,1,4,0,2.84,2.84,0,0,1,0,4,2.84,2.84,0,0,1-4.82-2v0Zm1.26,0a1.78,1.78,0,0,0,.42,1.27,1.56,1.56,0,0,0,1.16.47,1.48,1.48,0,0,0,1.15-.47,2,2,0,0,0,0-2.48,1.64,1.64,0,0,0-2.3,0,1.74,1.74,0,0,0-.43,1.23Z"/><path class="cls-5" d="M86.59,668.78h3.17v1.16h-5.6l3.44-4.17H84.89v-1.15H90Z"/><path class="cls-5" d="M92.18,665.77v4.17H91v-4.17h-.53v-1.15H91v-2h1.23v2h1v1.15Z"/><path class="cls-5" d="M94.16,669.33a.72.72,0,0,1,.23-.53.66.66,0,0,1,.53-.22.77.77,0,0,1,.77.75.75.75,0,0,1-.23.55.78.78,0,0,1-1.08,0A.7.7,0,0,1,94.16,669.33Z"/><path class="cls-5" d="M101.56,664.85v1.63a3.12,3.12,0,0,0-.75-.7,1.39,1.39,0,0,0-.77-.2,1.51,1.51,0,0,0-1.15.49,1.68,1.68,0,0,0-.46,1.22,1.74,1.74,0,0,0,.44,1.23A1.49,1.49,0,0,0,100,669a1.64,1.64,0,0,0,.78-.19,3,3,0,0,0,.77-.73v1.63a3.24,3.24,0,0,1-1.49.39,2.9,2.9,0,0,1-2.07-.8,2.82,2.82,0,0,1,0-4h0a2.86,2.86,0,0,1,2.07-.82A3.1,3.1,0,0,1,101.56,664.85Z"/><path class="cls-5" d="M102.5,667.24a2.66,2.66,0,0,1,.83-2,2.89,2.89,0,0,1,4,0,2.81,2.81,0,0,1-2,4.81,2.74,2.74,0,0,1-2-.82A2.81,2.81,0,0,1,102.5,667.24Zm1.26,0a1.79,1.79,0,0,0,.43,1.27,1.64,1.64,0,0,0,2.3,0,2,2,0,0,0,0-2.48,1.62,1.62,0,0,0-2.29,0,1.74,1.74,0,0,0-.44,1.23Z"/><path class="cls-5" d="M109.48,664.62h1.23v.49a2.27,2.27,0,0,1,.61-.5,1.42,1.42,0,0,1,.67-.14,1.64,1.64,0,0,1,1.43.79,1.83,1.83,0,0,1,1.56-.79c1.2,0,1.8.73,1.8,2.18v3.29h-1.23v-3a2.4,2.4,0,0,0-.19-1.09.7.7,0,0,0-.63-.32.82.82,0,0,0-.74.38,2.48,2.48,0,0,0-.23,1.23v2.71h-1.23V667c0-.94-.28-1.42-.82-1.42a.83.83,0,0,0-.76.39,2.35,2.35,0,0,0-.24,1.22v2.71h-1.23Z"/><rect class="cls-5" x="64.28" y="676.52" width="90.54" height="0.66"/><rect class="cls-5" x="64.48" y="682.33" width="90.54" height="0.66"/><rect class="cls-5" x="64.48" y="688.14" width="90.54" height="0.66"/><rect class="cls-4" x="55.87" y="607.88" width="107.17" height="45.38"/><path class="cls-5" d="M71.23,616.65v1.51a3.48,3.48,0,0,0-2.29-.93,2.93,2.93,0,0,0-2.19.94,3.15,3.15,0,0,0-.89,2.27,3.08,3.08,0,0,0,.89,2.24,3,3,0,0,0,2.2.91,2.64,2.64,0,0,0,1.14-.22,3.6,3.6,0,0,0,.55-.29,6.55,6.55,0,0,0,.59-.45v1.54a4.63,4.63,0,0,1-2.3.61,4.23,4.23,0,0,1-3.08-1.26,4.17,4.17,0,0,1-1.28-3.07,4.4,4.4,0,0,1,1.07-2.87A4.2,4.2,0,0,1,69,616,4.36,4.36,0,0,1,71.23,616.65Z"/><path class="cls-5" d="M76.52,619.31h1.24v5.32H76.52v-.56a2.37,2.37,0,0,1-3.35,0l-.11-.11a3,3,0,0,1-.71-2,2.92,2.92,0,0,1,.71-2,2.33,2.33,0,0,1,1.8-.8,2.25,2.25,0,0,1,1.66.77ZM73.6,622A1.88,1.88,0,0,0,74,623.2a1.38,1.38,0,0,0,1.06.49,1.45,1.45,0,0,0,1.11-.47A1.82,1.82,0,0,0,76.6,622a1.77,1.77,0,0,0-.42-1.23,1.37,1.37,0,0,0-1.09-.48,1.34,1.34,0,0,0-1.06.48A1.8,1.8,0,0,0,73.6,622Z"/><path class="cls-5" d="M79.31,619.31h1.23v.54a2.27,2.27,0,0,1,.61-.5,1.42,1.42,0,0,1,.67-.14,1.62,1.62,0,0,1,1.42.79,1.85,1.85,0,0,1,1.57-.79c1.2,0,1.8.73,1.8,2.18v3.29H85.37v-3a2.35,2.35,0,0,0-.18-1.08.7.7,0,0,0-.63-.32.82.82,0,0,0-.74.38,2.48,2.48,0,0,0-.23,1.23v2.75H82.35V621.7c0-1-.27-1.42-.82-1.42a.82.82,0,0,0-.75.39,2.35,2.35,0,0,0-.24,1.22v2.75H79.31Z"/><path class="cls-5" d="M88,617.1a.75.75,0,0,1,.23-.56.79.79,0,0,1,1.12,0h0a.74.74,0,0,1,.24.56.78.78,0,0,1-.24.57.73.73,0,0,1-.56.23.79.79,0,0,1-.8-.78h0Zm1.41,2.21v5.32H88.16v-5.32Z"/><path class="cls-5" d="M92.18,615.4v9.23H91V615.4Z"/><path class="cls-5" d="M95,615.4v9.23H93.73V615.4Z"/><path class="cls-5" d="M100.44,619.31h1.24v5.32h-1.24v-.56a2.37,2.37,0,0,1-3.34,0L97,624a3,3,0,0,1-.72-2,2.82,2.82,0,0,1,.72-2,2.31,2.31,0,0,1,1.79-.8,2.25,2.25,0,0,1,1.66.77ZM97.53,622a1.83,1.83,0,0,0,.41,1.25,1.32,1.32,0,0,0,1.06.49,1.43,1.43,0,0,0,1.1-.47,1.82,1.82,0,0,0,.42-1.24,1.77,1.77,0,0,0-.42-1.23,1.37,1.37,0,0,0-1.09-.48,1.34,1.34,0,0,0-1.06.48,1.81,1.81,0,0,0-.42,1.2Z"/><path class="cls-5" d="M106.62,624.63l1.78-9.07,2.9,6.56,3-6.56,1.59,9.07h-1.31l-.81-5.09-2.5,5.48-2.42-5.49-.91,5.1Z"/><path class="cls-5" d="M121.37,619.31h1.23v5.32h-1.23v-.56a2.38,2.38,0,0,1-3.35,0l-.11-.11a3,3,0,0,1-.72-2,2.84,2.84,0,0,1,.72-2,2.3,2.3,0,0,1,3.25-.21h0l.21.21ZM118.45,622a1.83,1.83,0,0,0,.41,1.25,1.32,1.32,0,0,0,1.06.49,1.43,1.43,0,0,0,1.1-.47,1.82,1.82,0,0,0,.42-1.24,1.77,1.77,0,0,0-.42-1.23,1.37,1.37,0,0,0-1.09-.48,1.34,1.34,0,0,0-1.06.48,1.81,1.81,0,0,0-.42,1.2Z"/><path class="cls-5" d="M128.08,615.4h1.23v9.23h-1.23v-.56a2.29,2.29,0,0,1-1.65.71,2.33,2.33,0,0,1-1.81-.79,3,3,0,0,1-.72-2,2.89,2.89,0,0,1,.72-2,2.3,2.3,0,0,1,3.25-.21h0l.21.21ZM125.16,622a1.83,1.83,0,0,0,.41,1.25,1.32,1.32,0,0,0,1.06.49,1.43,1.43,0,0,0,1.1-.47,1.82,1.82,0,0,0,.42-1.24,1.77,1.77,0,0,0-.42-1.23,1.37,1.37,0,0,0-1.09-.48,1.34,1.34,0,0,0-1.06.48A1.81,1.81,0,0,0,125.16,622Z"/><path class="cls-5" d="M134,620.22l-1,.54c-.16-.33-.36-.5-.6-.5a.4.4,0,0,0-.29.12.36.36,0,0,0-.12.28c0,.21.24.41.71.61a4.3,4.3,0,0,1,1.32.78,1.29,1.29,0,0,1,.34,1,1.69,1.69,0,0,1-.57,1.29,2,2,0,0,1-2.83-.13h0a2.22,2.22,0,0,1-.4-.68l1.05-.49a2.63,2.63,0,0,0,.33.49.78.78,0,0,0,.54.21c.42,0,.62-.19.62-.57,0-.22-.16-.43-.48-.62l-.37-.17-.38-.19a2.3,2.3,0,0,1-.75-.52,1.22,1.22,0,0,1-.28-.86,1.49,1.49,0,0,1,.48-1.14,1.64,1.64,0,0,1,2.33,0l0,0a1.67,1.67,0,0,1,.35.55Z"/><path class="cls-5" d="M140.25,622.26h-3.81a1.63,1.63,0,0,0,.42,1,1.4,1.4,0,0,0,1.73.17,3.08,3.08,0,0,0,.67-.81l1,.58a3.48,3.48,0,0,1-.51.7,3.29,3.29,0,0,1-.57.48,2.26,2.26,0,0,1-.66.28,3.94,3.94,0,0,1-.77.08,2.51,2.51,0,0,1-1.92-.76,2.89,2.89,0,0,1-.72-2,3,3,0,0,1,.7-2,2.67,2.67,0,0,1,3.73,0,3,3,0,0,1,.68,2.06Zm-1.26-1a1.18,1.18,0,0,0-1.24-1,1.2,1.2,0,0,0-.42.07,1.07,1.07,0,0,0-.36.2,1,1,0,0,0-.28.3,2.09,2.09,0,0,0-.17.41Z"/><path class="cls-5" d="M141.59,619.31h1.24v.54a2,2,0,0,1,1.45-.64,1.84,1.84,0,0,1,1.45.59,2.4,2.4,0,0,1,.45,1.62v3.26h-1.24v-3a2.05,2.05,0,0,0-.21-1.09.92.92,0,0,0-.78-.31,1,1,0,0,0-.87.41,2.76,2.76,0,0,0-.25,1.39v2.57h-1.24Z"/><rect class="cls-5" x="64.08" y="630.57" width="90.54" height="0.66"/><rect class="cls-5" x="64.29" y="636.38" width="90.54" height="0.66"/><rect class="cls-5" x="64.29" y="642.19" width="90.54" height="0.66"/><rect class="cls-4" x="55.87" y="517.06" width="107.17" height="45.38"/><path class="cls-5" d="M66.27,530.38v3.47H65v-8.44h1.45a6.12,6.12,0,0,1,1.6.15,2.17,2.17,0,0,1,1,.56,2.41,2.41,0,0,1,.73,1.79,2.35,2.35,0,0,1-.78,1.84,3.09,3.09,0,0,1-2.09.67Zm0-1.18h.47c1.17,0,1.76-.45,1.76-1.35s-.61-1.3-1.81-1.3h-.42Z"/><path class="cls-5" d="M74.43,528.49h1.23v5.36H74.43v-.56a2.38,2.38,0,0,1-3.35,0l-.11-.11a3,3,0,0,1-.72-2,2.82,2.82,0,0,1,.72-2,2.31,2.31,0,0,1,1.79-.8,2.27,2.27,0,0,1,1.67.77Zm-2.92,2.64a1.83,1.83,0,0,0,.41,1.25,1.36,1.36,0,0,0,1.08.47,1.4,1.4,0,0,0,1.1-.47,1.77,1.77,0,0,0,.42-1.23,1.82,1.82,0,0,0-.42-1.24,1.39,1.39,0,0,0-1.1-.46,1.34,1.34,0,0,0-1.06.48A1.76,1.76,0,0,0,71.51,531.13Z"/><path class="cls-5" d="M78.48,529.63v4.22H77.25v-4.18h-.52v-1.14h.52v-1.95h1.23v1.95h1v1.14Z"/><path class="cls-5" d="M80.27,528.49H81.5V529a2.53,2.53,0,0,1,.6-.48,1.42,1.42,0,0,1,.64-.14,2.07,2.07,0,0,1,1,.32l-.56,1.12a1.2,1.2,0,0,0-.68-.25c-.67,0-1,.51-1,1.52v2.8H80.27Z"/><path class="cls-5" d="M84.44,526.27a.83.83,0,0,1,.8-.79.8.8,0,0,1,.8.8.79.79,0,0,1-.78.8h0a.8.8,0,0,1-.8-.8Zm1.42,2.22v5.36H84.63v-5.32Z"/><path class="cls-5" d="M91.55,528.72v1.63a2.94,2.94,0,0,0-.75-.7,1.39,1.39,0,0,0-.77-.2,1.51,1.51,0,0,0-1.15.49,1.7,1.7,0,0,0-.46,1.21,1.74,1.74,0,0,0,.44,1.23,1.63,1.63,0,0,0,1.92.29,2.78,2.78,0,0,0,.77-.72v1.62a3.24,3.24,0,0,1-1.49.39,2.89,2.89,0,0,1-2.07-.79,2.82,2.82,0,0,1,0-4h0a2.86,2.86,0,0,1,2.07-.82A3.1,3.1,0,0,1,91.55,528.72Z"/><path class="cls-5" d="M94.27,524.58v5.63L96,528.49h1.65l-2.31,2.23,2.48,3.13h-1.6l-1.76-2.25-.19.2v2H93v-9.23Z"/><path class="cls-5" d="M102.3,533.85v-8.44h1.26a5.57,5.57,0,0,1,1.35.13,2.05,2.05,0,0,1,1.42,1.25,2.28,2.28,0,0,1,.22,1,1.21,1.21,0,0,0,.36,2.34,2.23,2.23,0,0,1,.4,1.32,2.38,2.38,0,0,1-1.65,2.26,5.32,5.32,0,0,1-1.43.16Zm1.27-4.81h.4a1.45,1.45,0,0,0,1-.32,1.25,1.25,0,0,0,.33-.92,1.14,1.14,0,0,0-.3-.95,1.39,1.39,0,0,0-1-.31h-.45Zm0,3.61h.79a1.89,1.89,0,0,0,1.26-.34,1.13,1.13,0,0,0,.43-.92,1.17,1.17,0,0,0-.41-.92,2.08,2.08,0,0,0-1.43-.37h-.64Z"/><path class="cls-5" d="M112.6,528.49h1.24v5.36H112.6v-.56a2.37,2.37,0,0,1-3.35,0l-.11-.11a3,3,0,0,1-.71-2,2.88,2.88,0,0,1,.71-2,2.33,2.33,0,0,1,1.8-.8,2.25,2.25,0,0,1,1.66.77Zm-2.92,2.64a1.88,1.88,0,0,0,.41,1.25,1.34,1.34,0,0,0,1.06.48,1.39,1.39,0,0,0,1.11-.47,1.77,1.77,0,0,0,.42-1.23,1.82,1.82,0,0,0-.42-1.24,1.42,1.42,0,0,0-1.09-.47,1.34,1.34,0,0,0-1.06.48,1.76,1.76,0,0,0-.43,1.2Z"/><path class="cls-5" d="M115.39,528.49h1.23V529a2,2,0,0,1,1.46-.64,1.83,1.83,0,0,1,1.45.58,2.49,2.49,0,0,1,.44,1.63v3.3h-1.23v-3a1.87,1.87,0,0,0-.22-1.09.86.86,0,0,0-.78-.31.94.94,0,0,0-.86.41,2.66,2.66,0,0,0-.26,1.39v2.6h-1.23Z"/><path class="cls-5" d="M126.67,533.68v.67a4.29,4.29,0,0,1-.07.5,2.38,2.38,0,0,1-.51,1,2.53,2.53,0,0,1-2,.83,2.59,2.59,0,0,1-1.75-.58,2.31,2.31,0,0,1-.82-1.63h1.23a1.47,1.47,0,0,0,.24.61,1.29,1.29,0,0,0,1.11.49q1.35,0,1.35-1.65v-.75a2.34,2.34,0,0,1-3.31.16h0l-.15-.15a3,3,0,0,1-.7-2,3.14,3.14,0,0,1,.65-2,2.29,2.29,0,0,1,1.85-.86,2.15,2.15,0,0,1,1.67.75v-.6h1.23Zm-1.18-2.52a1.81,1.81,0,0,0-.41-1.24,1.37,1.37,0,0,0-1.08-.48,1.34,1.34,0,0,0-1.1.52,1.89,1.89,0,0,0-.37,1.21,1.82,1.82,0,0,0,.37,1.19,1.3,1.3,0,0,0,1.1.5,1.36,1.36,0,0,0,1.12-.51A1.82,1.82,0,0,0,125.49,531.16Z"/><rect class="cls-5" x="64.08" y="539.75" width="90.54" height="0.66"/><rect class="cls-5" x="64.29" y="545.56" width="90.54" height="0.66"/><rect class="cls-5" x="64.29" y="551.36" width="90.54" height="0.66"/><rect class="cls-9" x="55.87" y="471.68" width="107.17" height="45.38"/><path class="cls-5" d="M69.76,481.25l-1,.62a1.76,1.76,0,0,0-.55-.66,1.26,1.26,0,0,0-.71-.18,1.34,1.34,0,0,0-.88.3,1,1,0,0,0-.34.75c0,.41.3.74.91,1l.84.35a3.58,3.58,0,0,1,1.51,1A2.35,2.35,0,0,1,70,485.9a2.61,2.61,0,0,1-.77,1.92,2.67,2.67,0,0,1-1.94.77,2.63,2.63,0,0,1-1.82-.65,3,3,0,0,1-.88-1.84l1.29-.28a2.21,2.21,0,0,0,.31,1,1.43,1.43,0,0,0,2.54-.75V486a1.22,1.22,0,0,0-.28-.82,1.41,1.41,0,0,0-.46-.3,3.45,3.45,0,0,0-.54-.28l-.82-.34c-1.15-.49-1.73-1.2-1.73-2.14a2,2,0,0,1,.73-1.59,2.62,2.62,0,0,1,1.81-.65A2.5,2.5,0,0,1,69.76,481.25Z"/><path class="cls-5" d="M72.51,479.2v5.65l1.73-1.72h1.65l-2.31,2.24,2.48,3.08H74.47l-1.76-2.24-.2.19v2.05H71.28v-9.23Z"/><path class="cls-5" d="M80.59,483.11h1.23v5.32H80.59v-.58a2.35,2.35,0,0,1-3.31.07h0l-.14-.14a3,3,0,0,1-.72-2,2.82,2.82,0,0,1,.72-2,2.31,2.31,0,0,1,1.79-.8,2.27,2.27,0,0,1,1.67.77Zm-2.92,2.64a1.88,1.88,0,0,0,.41,1.25,1.32,1.32,0,0,0,1.06.49,1.43,1.43,0,0,0,1.1-.47,1.82,1.82,0,0,0,.42-1.24,1.77,1.77,0,0,0-.42-1.23,1.44,1.44,0,0,0-2-.12l-.12.12a1.81,1.81,0,0,0-.42,1.2Z"/><path class="cls-5" d="M84.64,484.26v4.17H83.41v-4.17h-.52v-1.15h.52v-1.95h1.23v1.95h1v1.15Z"/><path class="cls-5" d="M95.31,480.94v1.25l-4.14,2,4.14,2v1.24l-5.49-2.68v-1.07Z"/><path class="cls-5" d="M98.91,484.51v-1.08a2.26,2.26,0,0,0,1.09-.18,1.13,1.13,0,0,0,.5-1,1.17,1.17,0,0,0-.36-.88,1.32,1.32,0,0,0-.93-.34,1.19,1.19,0,0,0-.81.25,1.68,1.68,0,0,0-.42.89H96.71a2.88,2.88,0,0,1,.81-1.75,2.46,2.46,0,0,1,1.71-.55,2.62,2.62,0,0,1,1.81.65,2.22,2.22,0,0,1,.7,1.68,2.06,2.06,0,0,1-.92,1.8,2.17,2.17,0,0,1,1.05,2,2.42,2.42,0,0,1-.76,1.86,2.72,2.72,0,0,1-2,.72,2.52,2.52,0,0,1-2.26-1.12,3,3,0,0,1-.39-1.3h1.23a1.61,1.61,0,0,0,.48.94,1.5,1.5,0,0,0,1,.32,1.34,1.34,0,0,0,1-.41,1.5,1.5,0,0,0,.41-1.06,1.3,1.3,0,0,0-.61-1.22A2.15,2.15,0,0,0,98.91,484.51Z"/><path class="cls-5" d="M105.82,484.51v-1.08a2.26,2.26,0,0,0,1.09-.18,1.13,1.13,0,0,0,.5-1,1.17,1.17,0,0,0-.36-.88,1.32,1.32,0,0,0-.93-.34,1.21,1.21,0,0,0-.82.25,1.74,1.74,0,0,0-.41.89h-1.27a2.88,2.88,0,0,1,.81-1.75,2.46,2.46,0,0,1,1.71-.55,2.62,2.62,0,0,1,1.81.65,2.27,2.27,0,0,1,.7,1.68,2.06,2.06,0,0,1-.92,1.8,2.17,2.17,0,0,1,1,2,2.42,2.42,0,0,1-.73,1.85,2.72,2.72,0,0,1-2,.72,2.52,2.52,0,0,1-2.26-1.12,3,3,0,0,1-.39-1.3h1.23a1.37,1.37,0,0,0,1.47,1.26,1.39,1.39,0,0,0,1-.41,1.5,1.5,0,0,0,.41-1.06,1.32,1.32,0,0,0-.61-1.22A2.27,2.27,0,0,0,105.82,484.51Z"/><rect class="cls-5" x="64.08" y="494.37" width="90.54" height="0.66"/><rect class="cls-5" x="64.29" y="500.18" width="90.54" height="0.66"/><rect class="cls-5" x="64.29" y="505.99" width="90.54" height="0.66"/><rect class="cls-4" x="55.87" y="562.44" width="107.17" height="45.38"/><path class="cls-5" d="M67.85,575.59l2.61,3.6H68.91l-2.41-3.46h-.23v3.46H65v-8.44h1.5a3.75,3.75,0,0,1,2.41.63,2.31,2.31,0,0,1,.82,1.85,2.44,2.44,0,0,1-.51,1.54A2.27,2.27,0,0,1,67.85,575.59Zm-1.58-1h.4c1.21,0,1.81-.46,1.81-1.38s-.59-1.29-1.76-1.29h-.45Z"/><path class="cls-5" d="M76.16,576.85H72.35a1.63,1.63,0,0,0,.42,1,1.32,1.32,0,0,0,1,.38,1.21,1.21,0,0,0,.76-.22,2.9,2.9,0,0,0,.67-.81l1,.58a3.86,3.86,0,0,1-.51.71,3.29,3.29,0,0,1-.57.48,2.7,2.7,0,0,1-.66.27,3.31,3.31,0,0,1-.77.09,2.49,2.49,0,0,1-1.91-.76,2.91,2.91,0,0,1-.73-2.05,3,3,0,0,1,.7-2,2.4,2.4,0,0,1,1.87-.77,2.37,2.37,0,0,1,1.86.75,3,3,0,0,1,.68,2.06Zm-1.26-1a1.18,1.18,0,0,0-1.24-1,1.2,1.2,0,0,0-.42.07,1.24,1.24,0,0,0-.36.19,1.14,1.14,0,0,0-.27.31,1.5,1.5,0,0,0-.18.41Z"/><path class="cls-5" d="M77.32,571.65a.8.8,0,0,1,1.6,0,.85.85,0,0,1-.23.54.81.81,0,0,1-1.37-.57Zm1.42,2.2v8.21H77.51v-8.21Z"/><path class="cls-5" d="M83.39,574.77l-1,.54c-.16-.32-.36-.49-.6-.49a.44.44,0,0,0-.29.11.38.38,0,0,0-.12.29c0,.2.24.41.71.61a4.48,4.48,0,0,1,1.32.77,1.31,1.31,0,0,1,.34,1,1.69,1.69,0,0,1-.57,1.29,2,2,0,0,1-2.82-.14,2.06,2.06,0,0,1-.41-.68l1-.48a1.82,1.82,0,0,0,.34.48.7.7,0,0,0,.53.21c.42,0,.62-.19.62-.57,0-.21-.16-.42-.48-.61l-.37-.18-.38-.18a2.3,2.3,0,0,1-.75-.52,1.22,1.22,0,0,1-.28-.86,1.53,1.53,0,0,1,.48-1.15,1.66,1.66,0,0,1,1.18-.45A1.61,1.61,0,0,1,83.39,574.77Z"/><path class="cls-5" d="M89.68,576.85H85.87a1.63,1.63,0,0,0,.42,1,1.29,1.29,0,0,0,1,.38,1.21,1.21,0,0,0,.76-.22,2.9,2.9,0,0,0,.67-.81l1,.58a3.86,3.86,0,0,1-.51.71,3.29,3.29,0,0,1-.57.48,2.7,2.7,0,0,1-.66.27,3.31,3.31,0,0,1-.77.09,2.51,2.51,0,0,1-1.92-.76,2.9,2.9,0,0,1-.72-2.05,3,3,0,0,1,.7-2,2.67,2.67,0,0,1,3.73,0,3,3,0,0,1,.68,2.06Zm-1.26-1a1.18,1.18,0,0,0-1.24-1,1.2,1.2,0,0,0-.42.07,1.24,1.24,0,0,0-.36.19,1.38,1.38,0,0,0-.28.31,1.62,1.62,0,0,0-.12.43Z"/><path class="cls-5" d="M92.25,570v5.63L94,573.85h1.65l-2.31,2.23,2.48,3.09h-1.6l-1.76-2.25-.2.2v2H91v-9.27Z"/><path class="cls-5" d="M96.12,576.49a2.66,2.66,0,0,1,.83-2,2.91,2.91,0,0,1,4,0,2.86,2.86,0,0,1,0,4,2.8,2.8,0,0,1-2,.8,2.69,2.69,0,0,1-2-.82A2.79,2.79,0,0,1,96.12,576.49Zm1.26,0a1.76,1.76,0,0,0,.43,1.26,1.48,1.48,0,0,0,1.15.47,1.51,1.51,0,0,0,1.15-.46,2,2,0,0,0,0-2.48,1.62,1.62,0,0,0-2.29,0,1.65,1.65,0,0,0-.44,1.23Z"/><path class="cls-5" d="M103.1,573.85h1.23v.47a2.58,2.58,0,0,1,.6-.49,1.37,1.37,0,0,1,.63-.13,1.88,1.88,0,0,1,1,.32l-.56,1.12a1.17,1.17,0,0,0-.69-.25c-.67,0-1,.51-1,1.52v2.76H103.1Z"/><path class="cls-5" d="M109,575v4.18h-1.23V575h-.53v-1.16h.53v-2H109v2h1V575Z"/><path class="cls-5" d="M119.39,577.14h-3.61l-.94,2h-1.37l4.18-9,4,9h-1.39Zm-.51-1.2-1.26-2.87-1.31,2.87Z"/><path class="cls-5" d="M126.46,569.85l1,.44-4.83,11.18-1-.45Z"/><path class="cls-5" d="M133.29,572l-1,.61a1.86,1.86,0,0,0-.55-.66,1.32,1.32,0,0,0-.7-.17,1.29,1.29,0,0,0-.88.3.9.9,0,0,0-.35.74c0,.41.3.75.91,1l.85.34a3.64,3.64,0,0,1,1.5,1,2.26,2.26,0,0,1,.47,1.46,2.63,2.63,0,0,1-.77,1.93,2.66,2.66,0,0,1-1.94.76,2.63,2.63,0,0,1-1.82-.65,3,3,0,0,1-.88-1.83l1.29-.28a2.21,2.21,0,0,0,.31,1,1.31,1.31,0,0,0,1.15.55,1.34,1.34,0,0,0,1-.4,1.39,1.39,0,0,0,.39-1,1.37,1.37,0,0,0-.07-.45,1.2,1.2,0,0,0-.2-.41,2,2,0,0,0-.38-.32,3.5,3.5,0,0,0-.54-.29l-.82-.34a2.34,2.34,0,0,1-1.73-2.14,2,2,0,0,1,.73-1.59,2.57,2.57,0,0,1,1.81-.64A2.49,2.49,0,0,1,133.29,572Z"/><rect class="cls-5" x="64.08" y="585.12" width="90.54" height="0.66"/><rect class="cls-5" x="64.29" y="590.93" width="90.54" height="0.66"/><rect class="cls-5" x="64.29" y="596.74" width="90.54" height="0.66"/><rect class="cls-8" x="185.76" y="481.62" width="241.9" height="37.77"/><path d="M194.7,491.31h2.43v-2.2H198v5.63h-.85v-2.63H194.7v2.63h-.85v-5.63h.85Z"/><path d="M202.4,493.16h-2.54a1,1,0,0,0,.28.69.88.88,0,0,0,.65.26.82.82,0,0,0,.5-.15,2.31,2.31,0,0,0,.45-.54l.69.39a3.12,3.12,0,0,1-.34.47,2,2,0,0,1-.38.32,1.85,1.85,0,0,1-.44.18,2.22,2.22,0,0,1-.51.06,1.66,1.66,0,0,1-1.28-.51A1.93,1.93,0,0,1,199,493a2,2,0,0,1,.47-1.37,1.76,1.76,0,0,1,2.48,0,1.94,1.94,0,0,1,.45,1.37Zm-.84-.67a.79.79,0,0,0-.83-.66.66.66,0,0,0-.28,0,.86.86,0,0,0-.42.33,1.39,1.39,0,0,0-.12.28Z"/><path d="M204.29,494.08l-1.6-2.89h.95l1.09,2,1-2h.92l-2.82,5.48h-.94Z"/><path d="M211.59,491.79l-.68.36c-.11-.21-.24-.32-.4-.32a.26.26,0,0,0-.19.07.2.2,0,0,0-.08.19c0,.14.16.27.47.41a2.78,2.78,0,0,1,.88.51.87.87,0,0,1,.23.64,1.13,1.13,0,0,1-.38.86,1.36,1.36,0,0,1-1.92-.14h0a1.63,1.63,0,0,1-.24-.4l.7-.33a1.5,1.5,0,0,0,.23.33.5.5,0,0,0,.35.14c.28,0,.42-.13.42-.38s-.11-.28-.32-.41l-.25-.12-.25-.12a1.46,1.46,0,0,1-.5-.35.84.84,0,0,1-.19-.57,1,1,0,0,1,.32-.77,1.12,1.12,0,0,1,1.58.06A1,1,0,0,1,211.59,491.79Z"/><path d="M213.37,488.58v3.76l1.16-1.15h1.1l-1.55,1.49,1.66,2.06h-1.07l-1.17-1.5-.13.13v1.37h-.82v-6.16Z"/><path d="M218.75,491.19h.83v3.55h-.83v-.37a1.57,1.57,0,0,1-2.22,0l-.08-.08A2,2,0,0,1,216,493a1.92,1.92,0,0,1,.48-1.33,1.56,1.56,0,0,1,1.19-.53,1.47,1.47,0,0,1,1.11.51ZM216.81,493a1.26,1.26,0,0,0,.27.83.94.94,0,0,0,.71.33,1,1,0,0,0,.74-.32,1.35,1.35,0,0,0,0-1.64,1,1,0,0,0-1.41,0l0,0A1.17,1.17,0,0,0,216.81,493Z"/><path d="M221.46,492v2.79h-.82V492h-.35v-.76h.35v-1.34h.82v1.3h.64v.76Z"/><path d="M223.16,493.68l.73.29-1,2.08-.55-.23Z"/><path d="M228.1,492v2.79h-.82V492h-.35v-.76h.35v-1.34h.82v1.3h.64v.76Z"/><path d="M229.17,489.71a.52.52,0,0,1,.16-.37.51.51,0,0,1,.37-.15.54.54,0,0,1,.38.15.46.46,0,0,1,.16.38.55.55,0,0,1-.16.38.51.51,0,0,1-.37.15.54.54,0,0,1-.38-.15A.55.55,0,0,1,229.17,489.71Zm1,1.48v3.55h-.82v-3.55Z"/><path d="M232,488.58v6.16h-.82v-6.16Z"/><path d="M233.83,488.58v6.16H233v-6.16Z"/><path d="M236.05,494.08l-1.59-2.89h.95l1.08,2,1-2h.92l-2.82,5.48h-.94Z"/><path d="M239.81,488.58v3.76l1.15-1.15h1.1l-1.54,1.49,1.66,2.06h-1.07l-1.17-1.5-.13.13v1.37H239v-6.16Z"/><path d="M243.53,488.58v3.76l1.15-1.15h1.1l-1.54,1.49,1.65,2.06h-1.06l-1.17-1.5-.13.13v1.37h-.82v-6.16Z"/><path d="M249.53,493.16H247a1.09,1.09,0,0,0,.28.69.88.88,0,0,0,.65.26.82.82,0,0,0,.5-.15,1.8,1.8,0,0,0,.45-.54l.69.39a2.21,2.21,0,0,1-.33.47,2.37,2.37,0,0,1-.39.32,1.85,1.85,0,0,1-.44.18,2.22,2.22,0,0,1-.51.06,1.66,1.66,0,0,1-1.28-.51,1.93,1.93,0,0,1-.48-1.36,2,2,0,0,1,.47-1.37,1.63,1.63,0,0,1,1.25-.51,1.59,1.59,0,0,1,1.23.5,2,2,0,0,1,.46,1.37Zm-.84-.67a.78.78,0,0,0-.83-.66.66.66,0,0,0-.28,0,.8.8,0,0,0-.42.33,1.39,1.39,0,0,0-.12.28Z"/><path d="M252.73,491.19h.82v.33a1.85,1.85,0,0,1,.4-.34,1,1,0,0,1,.45-.09,1.09,1.09,0,0,1,.95.53,1.25,1.25,0,0,1,1-.53c.8,0,1.2.49,1.2,1.45v2.2h-.83v-2a1.52,1.52,0,0,0-.12-.73.46.46,0,0,0-.42-.21.54.54,0,0,0-.49.25,1.59,1.59,0,0,0-.16.83v1.83h-.82v-2c0-.63-.18-.95-.55-.95a.56.56,0,0,0-.5.26,1.55,1.55,0,0,0-.16.82v1.83h-.82Z"/><path d="M261.86,493.16h-2.54a1.09,1.09,0,0,0,.28.69.88.88,0,0,0,.65.26.85.85,0,0,0,.51-.15,1.77,1.77,0,0,0,.44-.54l.7.39a3.12,3.12,0,0,1-.34.47,2.37,2.37,0,0,1-.39.32,1.85,1.85,0,0,1-.44.18,2.22,2.22,0,0,1-.51.06,1.71,1.71,0,0,1-1.28-.51,1.93,1.93,0,0,1-.48-1.36,2,2,0,0,1,.47-1.37,1.63,1.63,0,0,1,1.25-.51,1.59,1.59,0,0,1,1.23.5,2,2,0,0,1,.46,1.37Zm-.84-.67a.78.78,0,0,0-.83-.66.66.66,0,0,0-.28,0,.76.76,0,0,0-.23.13.61.61,0,0,0-.19.2,1.39,1.39,0,0,0-.12.28Z"/><path d="M265.37,488.58h.83v6.16h-.83v-.37a1.5,1.5,0,0,1-1.09.47,1.55,1.55,0,0,1-1.21-.53,2,2,0,0,1-.48-1.36,1.88,1.88,0,0,1,.48-1.32,1.52,1.52,0,0,1,2.14-.16l.16.16ZM263.43,493a1.26,1.26,0,0,0,.27.83.89.89,0,0,0,.71.33,1,1,0,0,0,.74-.32,1.35,1.35,0,0,0,0-1.64.92.92,0,0,0-.73-.32.9.9,0,0,0-.71.32A1.17,1.17,0,0,0,263.43,493Z"/><path d="M272.15,488.58H273v6.16h-.82v-.37a1.54,1.54,0,0,1-1.1.47,1.6,1.6,0,0,1-1.21-.53,2,2,0,0,1-.47-1.36,1.88,1.88,0,0,1,.47-1.32,1.54,1.54,0,0,1,1.2-.54,1.51,1.51,0,0,1,1.11.51ZM270.2,493a1.25,1.25,0,0,0,.28.83.87.87,0,0,0,.7.33,1,1,0,0,0,.74-.32,1.35,1.35,0,0,0,0-1.64,1,1,0,0,0-1.41,0l0,0a1.17,1.17,0,0,0-.28.8Z"/><path d="M277.24,493.16H274.7a1,1,0,0,0,.28.69.86.86,0,0,0,.64.26.79.79,0,0,0,.51-.15,2.31,2.31,0,0,0,.45-.54l.69.39a3.12,3.12,0,0,1-.34.47,2,2,0,0,1-.38.32,1.85,1.85,0,0,1-.44.18,2.22,2.22,0,0,1-.51.06,1.66,1.66,0,0,1-1.28-.51,1.93,1.93,0,0,1-.48-1.36,2,2,0,0,1,.47-1.37,1.76,1.76,0,0,1,2.48,0,1.94,1.94,0,0,1,.45,1.37Zm-.84-.67a.79.79,0,0,0-.83-.66.66.66,0,0,0-.28,0,.86.86,0,0,0-.42.33,1.39,1.39,0,0,0-.12.28Z"/><path d="M281.94,489.91h-1l.46-.8h1.36v5.63h-.85Z"/><path d="M286.8,488.92l.62.46-1.34,1.83h.3a1.59,1.59,0,0,1,1.19.53,1.74,1.74,0,0,1,.49,1.24,1.9,1.9,0,0,1-1.87,1.88,1.94,1.94,0,0,1-1.35-.54,1.75,1.75,0,0,1-.56-1.29,2.36,2.36,0,0,1,.55-1.41Zm.43,4.09a1,1,0,0,0-.31-.76,1,1,0,0,0-.75-.31,1,1,0,0,0-1.06,1v0a1,1,0,0,0,.31.75,1.07,1.07,0,0,0,1.5,0h0A1,1,0,0,0,287.23,493Z"/><path d="M293.91,491.19h.82v3.55h-.82v-.37a1.59,1.59,0,0,1-2.23,0,.3.3,0,0,1-.08-.08,2,2,0,0,1-.48-1.36,1.92,1.92,0,0,1,.48-1.33,1.56,1.56,0,0,1,1.2-.53,1.51,1.51,0,0,1,1.11.51Zm-2,1.76a1.15,1.15,0,0,0,.28.83.87.87,0,0,0,.7.33,1,1,0,0,0,.74-.32,1.35,1.35,0,0,0,0-1.64.94.94,0,0,0-.63-.3.93.93,0,0,0-.71.32,1.18,1.18,0,0,0-.29.78Zm.28-3.11a.72.72,0,0,1,.24-.55.8.8,0,0,1,1.13,0,.75.75,0,0,1,.22.53.8.8,0,0,1-.24.56.71.71,0,0,1-.55.23.77.77,0,0,1-.57-.23.82.82,0,0,1-.18-.56Zm.44,0a.34.34,0,0,0,.1.27.4.4,0,0,0,.26.1.39.39,0,0,0,.25-.1.36.36,0,0,0,0-.51h0a.35.35,0,0,0-.25-.1h-.14a.2.2,0,0,0-.12.08.44.44,0,0,0-.08.11.49.49,0,0,0,0,.17Z"/><path d="M295.77,491.19h.81v.32a1.86,1.86,0,0,1,.41-.33,1,1,0,0,1,.42-.09,1.36,1.36,0,0,1,.68.21l-.38.75a.83.83,0,0,0-.45-.17c-.45,0-.68.34-.68,1v1.84h-.81Z"/><path d="M298.29,494.33a.52.52,0,0,1,.5-.5.48.48,0,0,1,.36.15.47.47,0,0,1,.15.35.51.51,0,0,1-.51.51h0a.55.55,0,0,1-.36-.15A.45.45,0,0,1,298.29,494.33Z"/><path d="M193.85,503.69v-6L198,502v-3.9h.85v6l-4.1-4.23v3.94Z"/><path d="M200.9,500.14v2c0,.59.23.88.69.88s.7-.29.7-.88v-2h.82v2.06a2.27,2.27,0,0,1-.11.73,1.11,1.11,0,0,1-.35.5,1.73,1.73,0,0,1-2.11,0,1.36,1.36,0,0,1-.36-.5,2,2,0,0,1-.1-.73v-2.06Z"/><path d="M207.27,497.54v3a1.47,1.47,0,0,1,1.11-.51,1.54,1.54,0,0,1,1.2.54,1.88,1.88,0,0,1,.47,1.32,2,2,0,0,1-.48,1.36,1.58,1.58,0,0,1-2.22.14.3.3,0,0,0-.08-.08v.37h-.82v-6.15Zm1.94,4.4a1.24,1.24,0,0,0-.27-.83.89.89,0,0,0-.71-.33.92.92,0,0,0-.73.32,1.17,1.17,0,0,0-.28.82,1.13,1.13,0,0,0,.28.82,1,1,0,0,0,1.41,0h0A1.19,1.19,0,0,0,209.21,501.94Z"/><path d="M214.15,502.11h-2.54a1,1,0,0,0,.28.69.88.88,0,0,0,.65.26.82.82,0,0,0,.5-.15,2.12,2.12,0,0,0,.45-.54l.69.39a2.25,2.25,0,0,1-.34.47,1.44,1.44,0,0,1-.38.32,1.85,1.85,0,0,1-.44.18,2.22,2.22,0,0,1-.51.06,1.66,1.66,0,0,1-1.28-.51,1.93,1.93,0,0,1-.48-1.36,2,2,0,0,1,.47-1.36,1.76,1.76,0,0,1,2.48,0,2,2,0,0,1,.45,1.38Zm-.84-.67a.79.79,0,0,0-.83-.66.87.87,0,0,0-.28.05.7.7,0,0,0-.24.13.91.91,0,0,0-.18.21,1.31,1.31,0,0,0-.12.27Z"/><path d="M215.05,497.54h.82v2.9a1.4,1.4,0,0,1,1-.4,1.22,1.22,0,0,1,1,.39,1.6,1.6,0,0,1,.31,1.08v2.18h-.82v-2.1a1,1,0,0,0-.15-.62.57.57,0,0,0-.49-.19.67.67,0,0,0-.6.27,1.71,1.71,0,0,0-.17.92v1.72h-.82Z"/><path d="M222,500.39l.56-.55.37.39-.55.53a1.9,1.9,0,0,1,.4,1.17,1.86,1.86,0,0,1-1.86,1.86h0a1.92,1.92,0,0,1-1.18-.37l-.54.52-.37-.38.53-.53a2,2,0,0,1-.35-1.12,1.77,1.77,0,0,1,.55-1.32,1.83,1.83,0,0,1,1.34-.55A2,2,0,0,1,222,500.39Zm-.6.56a1,1,0,0,0-.51-.11,1,1,0,0,0-.77.3,1,1,0,0,0-.29.79,1.4,1.4,0,0,0,.11.53Zm.39.37-1.5,1.53a1.13,1.13,0,0,0,.57.15,1,1,0,0,0,.77-.3,1.07,1.07,0,0,0,.29-.78,1.24,1.24,0,0,0-.15-.6Z"/><path d="M224.06,500.14l.92,2,.91-2h.93L225,503.93l-1.83-3.79Z"/><path d="M230.47,502.11h-2.54a1.09,1.09,0,0,0,.28.69.88.88,0,0,0,.65.26.85.85,0,0,0,.51-.15,1.77,1.77,0,0,0,.44-.54l.7.39a3.12,3.12,0,0,1-.34.47,2,2,0,0,1-.38.32,1.77,1.77,0,0,1-.45.18,2.22,2.22,0,0,1-.51.06,1.67,1.67,0,0,1-1.27-.51,1.85,1.85,0,0,1-.49-1.36,2,2,0,0,1,.47-1.36,1.77,1.77,0,0,1,2.49,0,2,2,0,0,1,.45,1.38Zm-.84-.67a.78.78,0,0,0-.82-.66.93.93,0,0,0-.29.05.76.76,0,0,0-.23.13.64.64,0,0,0-.19.21.81.81,0,0,0-.11.27Z"/><path d="M231.37,500.14h.82v.32a1.6,1.6,0,0,1,.4-.33A1,1,0,0,1,233,500a1.36,1.36,0,0,1,.68.21l-.38.75a.75.75,0,0,0-.45-.16c-.45,0-.67.33-.67,1v1.84h-.82Z"/><path d="M236.34,498.67a.55.55,0,0,1,.16-.38.51.51,0,0,1,.37-.15.53.53,0,0,1,.39.9h0a.55.55,0,0,1-.38.16.52.52,0,0,1-.37-.16A.58.58,0,0,1,236.34,498.67Zm.94,1.47v5.48h-.82v-5.48Z"/><path d="M241.55,502.11H239a1,1,0,0,0,.28.69.88.88,0,0,0,.65.26.82.82,0,0,0,.5-.15,2.12,2.12,0,0,0,.45-.54l.69.39a4,4,0,0,1-.33.47,1.34,1.34,0,0,1-.39.32,1.85,1.85,0,0,1-.44.18,2.22,2.22,0,0,1-.51.06,1.66,1.66,0,0,1-1.28-.51,1.93,1.93,0,0,1-.48-1.36,2,2,0,0,1,.47-1.36,1.76,1.76,0,0,1,2.48,0,2,2,0,0,1,.45,1.38Zm-.84-.67a.78.78,0,0,0-.83-.66.87.87,0,0,0-.28.05.7.7,0,0,0-.24.13.91.91,0,0,0-.18.21,1.31,1.31,0,0,0-.12.27Z"/><path d="M245.88,503.61v.44a1.82,1.82,0,0,1,0,.33,1.51,1.51,0,0,1-.35.69,1.66,1.66,0,0,1-1.32.56,1.83,1.83,0,0,1-1.17-.38,1.59,1.59,0,0,1-.54-1.09h.82a.87.87,0,0,0,.16.4.85.85,0,0,0,.74.33c.6,0,.9-.37.9-1.1v-.5a1.52,1.52,0,0,1-1.13.5,1.48,1.48,0,0,1-1.18-.52,1.91,1.91,0,0,1-.47-1.33,2,2,0,0,1,.43-1.32A1.52,1.52,0,0,1,244,500a1.45,1.45,0,0,1,1.12.5v-.4h.82Zm-.79-1.69a1.11,1.11,0,0,0-.28-.82,1,1,0,0,0-1.41,0l0,0a1.31,1.31,0,0,0-.24.81,1.25,1.25,0,0,0,.24.79,1,1,0,0,0,1.41.07l.07-.07a1.21,1.21,0,0,0,.25-.8Z"/><path d="M249.09,498.67a.55.55,0,0,1,.16-.38.51.51,0,0,1,.37-.15.53.53,0,0,1,.39.9h0a.52.52,0,0,1-.37.16.55.55,0,0,1-.54-.54Zm.94,1.47v3.55h-.82v-3.55Z"/><path d="M251.89,497.54v3.75l1.16-1.15h1.1l-1.54,1.49,1.65,2.06H253.2l-1.18-1.5-.13.13v1.37h-.82v-6.15Z"/><path d="M255.61,497.54v3.75l1.15-1.15h1.1l-1.54,1.49,1.66,2.06h-1.07l-1.17-1.5-.13.13v1.37h-.82v-6.15Z"/><path d="M261.62,502.11h-2.55a1,1,0,0,0,.29.69.86.86,0,0,0,.64.26.85.85,0,0,0,.51-.15,2.12,2.12,0,0,0,.45-.54l.69.39a3.12,3.12,0,0,1-.34.47,1.56,1.56,0,0,1-.82.5,2.24,2.24,0,0,1-.52.06,1.67,1.67,0,0,1-1.27-.51,1.93,1.93,0,0,1-.48-1.36,2,2,0,0,1,.46-1.36,1.77,1.77,0,0,1,2.49,0,2,2,0,0,1,.45,1.38Zm-.85-.67a.78.78,0,0,0-.82-.66.87.87,0,0,0-.28.05.7.7,0,0,0-.24.13.76.76,0,0,0-.19.21.81.81,0,0,0-.11.27Z"/><path d="M267.43,500.14h.82v3.55h-.82v-.37a1.59,1.59,0,0,1-2.23,0l-.08-.08a2,2,0,0,1-.47-1.36,1.88,1.88,0,0,1,.47-1.32,1.54,1.54,0,0,1,1.2-.54,1.51,1.51,0,0,1,1.11.51Zm-1.95,1.76a1.29,1.29,0,0,0,.28.84.89.89,0,0,0,.7.32,1,1,0,0,0,.74-.31,1.37,1.37,0,0,0,0-1.65,1,1,0,0,0-1.41,0l0,0A1.3,1.3,0,0,0,265.48,501.9Z"/><path d="M270.13,500.91v2.78h-.82v-2.78H269v-.77h.35v-1.29h.82v1.3h.64v.77Z"/><path d="M274.45,497.54v3.75l1.15-1.15h1.1l-1.54,1.49,1.66,2.06h-1.07l-1.17-1.5-.13.13v1.37h-.82v-6.15Z"/><path d="M280.18,500.39l.56-.55.37.39-.54.53a2.06,2.06,0,0,1,.4,1.17,1.77,1.77,0,0,1-.55,1.32,1.82,1.82,0,0,1-1.34.54,1.9,1.9,0,0,1-1.17-.37l-.54.52-.38-.38.54-.53a2,2,0,0,1-.35-1.12,1.77,1.77,0,0,1,.55-1.32,1.83,1.83,0,0,1,1.34-.55A2,2,0,0,1,280.18,500.39Zm-.59.56a1,1,0,0,0-.52-.11,1,1,0,0,0-.77.3,1.09,1.09,0,0,0-.29.79,1.24,1.24,0,0,0,.12.53Zm.39.37-1.48,1.53a1.13,1.13,0,0,0,.57.15,1,1,0,0,0,.77-.3,1.1,1.1,0,0,0,.28-.78,1.24,1.24,0,0,0-.12-.6Z"/><path d="M282.65,497.54v3a1.51,1.51,0,0,1,1.11-.51,1.54,1.54,0,0,1,1.2.54,1.88,1.88,0,0,1,.47,1.32,2,2,0,0,1-.48,1.36,1.58,1.58,0,0,1-2.22.14l-.08-.08v.37h-.82v-6.15Zm2,4.4a1.25,1.25,0,0,0-.28-.83.9.9,0,0,0-.7-.33,1,1,0,0,0-.74.32,1.17,1.17,0,0,0-.28.82,1.13,1.13,0,0,0,.28.82.92.92,0,0,0,.73.32.86.86,0,0,0,.7-.32,1.15,1.15,0,0,0,.24-.8Z"/><path d="M289.53,502.11H287a1.09,1.09,0,0,0,.28.69.88.88,0,0,0,.65.26.85.85,0,0,0,.51-.15,1.77,1.77,0,0,0,.44-.54l.7.39a3.12,3.12,0,0,1-.34.47,1.34,1.34,0,0,1-.39.32,1.85,1.85,0,0,1-.44.18,2.22,2.22,0,0,1-.51.06,1.71,1.71,0,0,1-1.28-.51,1.93,1.93,0,0,1-.48-1.36,2,2,0,0,1,.47-1.36,1.76,1.76,0,0,1,2.48,0,1.93,1.93,0,0,1,.46,1.38Zm-.84-.67a.78.78,0,0,0-.83-.66.87.87,0,0,0-.28.05.76.76,0,0,0-.23.13.64.64,0,0,0-.19.21,1.31,1.31,0,0,0-.12.27Z"/><path d="M295.35,500.14h.82v3.55h-.82v-.37a1.59,1.59,0,0,1-2.23,0l-.08-.08a2,2,0,0,1-.48-1.36,1.88,1.88,0,0,1,.48-1.32,1.54,1.54,0,0,1,1.2-.54,1.51,1.51,0,0,1,1.11.51Zm-2,1.76a1.28,1.28,0,0,0,.27.84.93.93,0,0,0,.71.32,1,1,0,0,0,.74-.31,1.37,1.37,0,0,0,0-1.65,1,1,0,0,0-1.41,0l0,0a1.2,1.2,0,0,0-.23.8Z"/><path d="M298,497.54v6.15h-.82v-6.15Z"/><path d="M299.88,497.54v3.75l1.16-1.15h1.1l-1.54,1.49,1.65,2.06h-1.06l-1.18-1.5-.13.13v1.37h-.82v-6.15Z"/><path d="M302.46,501.85a1.76,1.76,0,0,1,.55-1.31,1.93,1.93,0,0,1,2.69,0,1.8,1.8,0,0,1,.55,1.33,1.83,1.83,0,0,1-.55,1.34,1.91,1.91,0,0,1-1.36.53,1.82,1.82,0,0,1-1.34-.54A1.86,1.86,0,0,1,302.46,501.85Zm.84,0a1.2,1.2,0,0,0,.28.85,1.12,1.12,0,0,0,1.54,0,1.21,1.21,0,0,0,.29-.83,1.18,1.18,0,0,0-.29-.82,1.06,1.06,0,0,0-1.51,0h0a1.11,1.11,0,0,0-.29.85Z"/><path d="M307.11,497.54h.82v2.9a1.4,1.4,0,0,1,1-.4,1.22,1.22,0,0,1,1,.39,1.6,1.6,0,0,1,.31,1.08v2.18h-.82v-2.1a1,1,0,0,0-.16-.62.61.61,0,0,0-.48-.19.68.68,0,0,0-.61.27,1.94,1.94,0,0,0-.17.92v1.72h-.82Z"/><path d="M311,501.85a1.76,1.76,0,0,1,.55-1.31,1.91,1.91,0,0,1,2.68,0,1.8,1.8,0,0,1,.55,1.33,1.83,1.83,0,0,1-.55,1.34,1.89,1.89,0,0,1-1.36.53,1.82,1.82,0,0,1-1.34-.54A1.89,1.89,0,0,1,311,501.85Zm.83,0a1.26,1.26,0,0,0,.29.85,1,1,0,0,0,.77.31,1,1,0,0,0,.76-.31,1.16,1.16,0,0,0,.29-.83,1.12,1.12,0,0,0-.29-.82,1.06,1.06,0,0,0-1.5,0l0,0a1.09,1.09,0,0,0-.26.85Z"/><path d="M316.51,497.54v6.15h-.82v-6.15Z"/><path d="M320.69,500.91v2.78h-.82v-2.78h-.35v-.77h.35v-1.29h.82v1.3h.64v.77Z"/><path d="M321.76,498.67a.55.55,0,0,1,.16-.38.54.54,0,0,1,.38-.15.51.51,0,0,1,.37.15.54.54,0,0,1,0,.76.52.52,0,0,1-.37.16A.55.55,0,0,1,321.76,498.67Zm.95,1.47v3.55h-.82v-3.55Z"/><path d="M324.56,497.54v6.15h-.81v-6.15Z"/><path d="M330.52,497.54h.82v6.15h-.82v-.37a1.54,1.54,0,0,1-1.1.47,1.6,1.6,0,0,1-1.21-.53,2,2,0,0,1-.47-1.36,1.88,1.88,0,0,1,.47-1.32,1.54,1.54,0,0,1,1.2-.54,1.51,1.51,0,0,1,1.11.51Zm-1.94,4.36a1.28,1.28,0,0,0,.27.84.9.9,0,0,0,.71.32.91.91,0,0,0,.73-.31,1.37,1.37,0,0,0,0-1.65.92.92,0,0,0-.73-.32.86.86,0,0,0-.7.32A1.17,1.17,0,0,0,328.58,501.9Z"/><path d="M332.25,498.67a.55.55,0,0,1,.16-.38.54.54,0,0,1,.76.76.54.54,0,0,1-.76,0A.55.55,0,0,1,332.25,498.67Zm.95,1.47v3.55h-.82v-3.55Z"/><path d="M337.67,503.61v.77a1.51,1.51,0,0,1-.35.69,1.66,1.66,0,0,1-1.32.56,1.83,1.83,0,0,1-1.17-.38,1.59,1.59,0,0,1-.54-1.09h.82a.87.87,0,0,0,.16.4.84.84,0,0,0,.74.33c.6,0,.9-.37.9-1.1v-.5a1.52,1.52,0,0,1-1.13.5,1.55,1.55,0,0,1-1.19-.52,2,2,0,0,1-.46-1.33,2,2,0,0,1,.43-1.32,1.52,1.52,0,0,1,1.23-.58,1.45,1.45,0,0,1,1.12.5v-.4h.82Zm-.79-1.69a1.11,1.11,0,0,0-.28-.82,1,1,0,0,0-1.41,0l0,0a1.31,1.31,0,0,0-.24.81,1.25,1.25,0,0,0,.24.79,1,1,0,0,0,1.41.07l.07-.07A1.21,1.21,0,0,0,336.88,501.92Z"/><path d="M341,500.14h.82v.33a1.9,1.9,0,0,1,.41-.34,1,1,0,0,1,.45-.09,1.11,1.11,0,0,1,.95.53,1.22,1.22,0,0,1,1-.53c.8,0,1.2.49,1.2,1.46v2.19H345v-2a1.36,1.36,0,0,0-.13-.72.43.43,0,0,0-.41-.22.56.56,0,0,0-.5.26,1.67,1.67,0,0,0-.15.82v1.83H343v-2c0-.63-.18-1-.54-1a.58.58,0,0,0-.51.26,1.67,1.67,0,0,0-.16.82v1.83H341Z"/><path d="M350.14,502.11h-2.55a1.05,1.05,0,0,0,.29.69.86.86,0,0,0,.64.26.79.79,0,0,0,.51-.15,2.12,2.12,0,0,0,.45-.54l.69.39a3.12,3.12,0,0,1-.34.47,2,2,0,0,1-.38.32,1.85,1.85,0,0,1-.44.18,2.24,2.24,0,0,1-.52.06,1.67,1.67,0,0,1-1.27-.51,1.93,1.93,0,0,1-.48-1.36,2,2,0,0,1,.46-1.36,1.77,1.77,0,0,1,2.49,0,2,2,0,0,1,.45,1.38Zm-.85-.67a.78.78,0,0,0-.82-.66.87.87,0,0,0-.28.05.7.7,0,0,0-.24.13.91.91,0,0,0-.18.21.66.66,0,0,0-.12.27Z"/><path d="M351,500.14h.82v.32a1.8,1.8,0,0,1,.4-.33,1,1,0,0,1,.43-.09,1.32,1.32,0,0,1,.67.21L353,501a.76.76,0,0,0-.46-.16c-.44,0-.67.33-.67,1v1.84H351Z"/><path d="M357,502.11h-2.54a1.09,1.09,0,0,0,.28.69.88.88,0,0,0,.65.26.85.85,0,0,0,.51-.15,1.77,1.77,0,0,0,.44-.54l.7.39a3.12,3.12,0,0,1-.34.47,1.34,1.34,0,0,1-.39.32,1.85,1.85,0,0,1-.44.18,2.22,2.22,0,0,1-.51.06,1.67,1.67,0,0,1-1.27-.51,1.85,1.85,0,0,1-.49-1.36,2,2,0,0,1,.47-1.36,1.77,1.77,0,0,1,2.49,0,2,2,0,0,1,.45,1.38Zm-.84-.67a.78.78,0,0,0-.83-.66.87.87,0,0,0-.28.05.76.76,0,0,0-.23.13.64.64,0,0,0-.19.21.81.81,0,0,0-.11.27Z"/><path d="M358,503.28a.52.52,0,0,1,.5-.5.51.51,0,0,1,.51.51h0a.55.55,0,0,1-.15.36.53.53,0,0,1-.72,0A.55.55,0,0,1,358,503.28Z"/><path d="M194.14,507l1.55,3.9,1.58-3.9h.93l-2.53,6-2.46-6Z"/><path d="M198.69,507.62a.47.47,0,0,1,.16-.37.52.52,0,0,1,.37-.16.53.53,0,0,1,.54.52.51.51,0,0,1-.16.39.52.52,0,0,1-.37.16.55.55,0,0,1-.54-.54Zm.94,1.47v3.55h-.82v-3.55Z"/><path d="M205,509.7l-.68.36c-.11-.22-.24-.33-.4-.33a.27.27,0,0,0-.19.08.2.2,0,0,0-.08.19c0,.13.16.27.47.4a2.8,2.8,0,0,1,.88.52.87.87,0,0,1,.23.64,1.13,1.13,0,0,1-.38.86,1.32,1.32,0,0,1-.89.32,1.29,1.29,0,0,1-1.27-.87l.7-.32a1.24,1.24,0,0,0,.23.32.5.5,0,0,0,.35.14c.28,0,.42-.13.42-.38s-.11-.28-.32-.41l-.25-.12a1.15,1.15,0,0,1-.25-.12,1.46,1.46,0,0,1-.5-.35.79.79,0,0,1-.19-.57,1,1,0,0,1,.32-.76,1.12,1.12,0,0,1,1.58.06,1,1,0,0,1,.22.34Z"/><path d="M209.23,511.06h-2.54a1.12,1.12,0,0,0,.28.7.87.87,0,0,0,.65.25.91.91,0,0,0,.51-.14,1.77,1.77,0,0,0,.44-.54l.7.38a3.12,3.12,0,0,1-.34.47,1.77,1.77,0,0,1-.83.51,2.94,2.94,0,0,1-.51,0,1.71,1.71,0,0,1-1.28-.51,1.93,1.93,0,0,1-.48-1.36,2,2,0,0,1,.47-1.36,1.79,1.79,0,0,1,2.48,0,1.93,1.93,0,0,1,.46,1.38Zm-.84-.67a.78.78,0,0,0-.83-.66.84.84,0,0,0-.7.39,1.31,1.31,0,0,0-.12.27Z"/><path d="M212.19,509.7l-.68.36c-.1-.22-.24-.33-.39-.33a.3.3,0,0,0-.2.08.27.27,0,0,0-.08.19c0,.13.16.27.48.4a3,3,0,0,1,.87.52.87.87,0,0,1,.23.64,1.13,1.13,0,0,1-.38.86,1.32,1.32,0,0,1-.89.32,1.29,1.29,0,0,1-1.26-.87l.7-.32a1,1,0,0,0,.22.32.54.54,0,0,0,.36.14c.27,0,.41-.13.41-.38s-.1-.28-.32-.41l-.25-.12-.25-.12a1.46,1.46,0,0,1-.5-.35.84.84,0,0,1-.19-.57,1,1,0,0,1,.32-.76,1.1,1.1,0,0,1,.79-.3A1.08,1.08,0,0,1,212.19,509.7Z"/><path d="M217.52,509.7l-.68.36c-.1-.22-.24-.33-.39-.33a.3.3,0,0,0-.2.08.27.27,0,0,0-.08.19c0,.13.16.27.48.4a3,3,0,0,1,.87.52.87.87,0,0,1,.23.64,1.13,1.13,0,0,1-.38.86,1.32,1.32,0,0,1-.89.32,1.29,1.29,0,0,1-1.26-.87l.7-.32a1,1,0,0,0,.22.32.54.54,0,0,0,.36.14c.27,0,.41-.13.41-.38s-.11-.28-.32-.41l-.25-.12-.25-.12a1.46,1.46,0,0,1-.5-.35.84.84,0,0,1-.19-.57,1,1,0,0,1,.32-.76,1.1,1.1,0,0,1,.79-.3A1.08,1.08,0,0,1,217.52,509.7Z"/><path d="M221.72,511.06h-2.55a1.13,1.13,0,0,0,.29.7.85.85,0,0,0,.64.25.84.84,0,0,0,.51-.14,2.31,2.31,0,0,0,.45-.54l.69.38a3.12,3.12,0,0,1-.34.47,2,2,0,0,1-.38.32,1.89,1.89,0,0,1-.44.19,3.05,3.05,0,0,1-.52,0,1.67,1.67,0,0,1-1.27-.51,1.93,1.93,0,0,1-.48-1.36,2,2,0,0,1,.46-1.36,1.79,1.79,0,0,1,2.49,0,2,2,0,0,1,.45,1.38Zm-.85-.67a.78.78,0,0,0-.82-.66.87.87,0,0,0-.28,0,.7.7,0,0,0-.24.13,1.29,1.29,0,0,0-.19.21.81.81,0,0,0-.11.27Z"/><path d="M222.61,509.09h.83v.33a1.31,1.31,0,0,1,1-.42,1.25,1.25,0,0,1,1,.38,1.63,1.63,0,0,1,.3,1.09v2.17h-.82v-2a1.29,1.29,0,0,0-.15-.72.6.6,0,0,0-.52-.21.63.63,0,0,0-.58.27,1.85,1.85,0,0,0-.16.93v1.71h-.83Z"/><path d="M229.93,511.06h-2.54a1.08,1.08,0,0,0,.29.7.85.85,0,0,0,.64.25.91.91,0,0,0,.51-.14,1.77,1.77,0,0,0,.44-.54l.7.38a3.12,3.12,0,0,1-.34.47,2,2,0,0,1-.38.32,1.89,1.89,0,0,1-.44.19,3.05,3.05,0,0,1-.52,0,1.67,1.67,0,0,1-1.27-.51,1.93,1.93,0,0,1-.48-1.36,2,2,0,0,1,.46-1.36,1.79,1.79,0,0,1,2.49,0,2,2,0,0,1,.45,1.38Zm-.84-.67a.78.78,0,0,0-.82-.66.87.87,0,0,0-.28,0,.7.7,0,0,0-.24.13,1,1,0,0,0-.19.21.81.81,0,0,0-.11.27Z"/><path d="M230.83,509.09h.82v.32a1.38,1.38,0,0,1,.4-.32,1,1,0,0,1,.42-.09,1.36,1.36,0,0,1,.68.21l-.37.75a.83.83,0,0,0-.46-.17c-.45,0-.67.34-.67,1v1.84h-.82Z"/><path d="M236.8,511.06h-2.54a1.12,1.12,0,0,0,.28.7,1,1,0,0,0,1.15.11,2.31,2.31,0,0,0,.45-.54l.69.38a2.25,2.25,0,0,1-.34.47,1.68,1.68,0,0,1-.82.51,2.94,2.94,0,0,1-.51,0,1.66,1.66,0,0,1-1.28-.51,1.93,1.93,0,0,1-.48-1.36,2,2,0,0,1,.47-1.36,1.61,1.61,0,0,1,1.24-.51,1.56,1.56,0,0,1,1.24.49,2,2,0,0,1,.45,1.38Zm-.84-.67a.79.79,0,0,0-.83-.66.87.87,0,0,0-.28,0,.7.7,0,0,0-.24.13.91.91,0,0,0-.18.21,1.31,1.31,0,0,0-.12.27Z"/><path d="M240.51,511.59l.72.28-1,2.08-.56-.23Zm-.2-2.09a.51.51,0,0,1,.52-.5h0a.48.48,0,0,1,.34.14.51.51,0,0,1,0,.72.51.51,0,0,1-.71,0h0A.47.47,0,0,1,240.31,509.5Z"/><path d="M243.05,514.2l-.76-.29a9,9,0,0,0,0-7.19l.76-.29a10,10,0,0,1,0,7.77Z"/><rect class="cls-7" x="530.2" y="443.89" width="34.17" height="14.13"/><path class="cls-5" d="M537.89,447.5h-1.14l.55-.92h1.58v6.56h-1Z"/><path class="cls-5" d="M541.76,449.73a1.63,1.63,0,0,1-.72-1.39,1.82,1.82,0,0,1,.54-1.34,2,2,0,0,1,1.38-.53,1.89,1.89,0,0,1,1.36.53,1.82,1.82,0,0,1,.54,1.34,1.63,1.63,0,0,1-.72,1.38,1.54,1.54,0,0,1,.62.62,1.75,1.75,0,0,1,.23.92,1.91,1.91,0,0,1-.57,1.43,2,2,0,0,1-1.46.56,2.07,2.07,0,0,1-1.5-.57,1.87,1.87,0,0,1-.59-1.41A1.58,1.58,0,0,1,541.76,449.73Zm.08,1.51a1.08,1.08,0,1,0,1.09-1.09h0a1.06,1.06,0,0,0-.77.32A1,1,0,0,0,541.84,451.24Zm.13-2.91a1,1,0,0,0,2,0,1,1,0,0,0-.29-.7,1,1,0,0,0-1.38,0,.89.89,0,0,0-.3.7Z"/><path class="cls-5" d="M546.37,449.47a.58.58,0,0,1,.17-.41.6.6,0,0,1,.84,0,.59.59,0,0,1,.17.42.58.58,0,0,1-.57.59h0a.6.6,0,0,1-.59-.6Zm0,3.19a.59.59,0,1,1,.59.59.58.58,0,0,1-.59-.59Z"/><path class="cls-5" d="M550.48,452.21h2.45v.93h-4.41l2.28-2.76.56-.71a4.59,4.59,0,0,0,.35-.51,1.41,1.41,0,0,0,.24-.72,1.06,1.06,0,0,0-.32-.77,1.18,1.18,0,0,0-.8-.31c-.67,0-1.05.4-1.14,1.18h-1q.24-2.07,2.1-2.07a2.07,2.07,0,0,1,1.5.57,1.84,1.84,0,0,1,.61,1.41,2.21,2.21,0,0,1-.28,1,6.9,6.9,0,0,1-.42.63c-.19.25-.42.54-.71.87Z"/><path class="cls-5" d="M554,449.85a4,4,0,0,1,.74-2.51,2,2,0,0,1,1.58-.84,2,2,0,0,1,1.59.84,4.82,4.82,0,0,1,0,5.09,1.9,1.9,0,0,1-2.62.55h0a1.74,1.74,0,0,1-.54-.54A4.09,4.09,0,0,1,554,449.85Zm1,0a3.65,3.65,0,0,0,.38,1.81,1.06,1.06,0,0,0,1.35.65,1.1,1.1,0,0,0,.65-.65,4.33,4.33,0,0,0,0-3.56,1,1,0,0,0-1.93,0A3.7,3.7,0,0,0,555,449.85Z"/><circle class="cls-8" cx="510.79" cy="452.96" r="11.65"/><path class="cls-5" d="M507.46,455.85a4,4,0,0,0,2,.57c1.16,0,1.83-.61,1.83-1.49s-.47-1.28-1.64-1.73c-1.43-.51-2.31-1.24-2.31-2.47a2.58,2.58,0,0,1,2.79-2.37h0a4,4,0,0,1,1.93.43l-.31.91a3.55,3.55,0,0,0-1.66-.41c-1.19,0-1.64.71-1.64,1.31,0,.81.53,1.21,1.73,1.68,1.48.57,2.23,1.28,2.23,2.56s-1,2.51-3.05,2.51a4.55,4.55,0,0,1-2.23-.55Z"/><g id="Lag_8" data-name="Lag 8"><ellipse class="cls-10" cx="1515.55" cy="512.06" rx="1.15" ry="1.3"/><path class="cls-10" d="M1515.55,513.85a1.81,1.81,0,1,1,1.64-2,.86.86,0,0,1,0,.16A1.73,1.73,0,0,1,1515.55,513.85Zm0-2.6a.82.82,0,1,0,.63,1,.88.88,0,0,0,0-.17.74.74,0,0,0-.65-.79Z"/></g><path class="cls-10" d="M1023.62,630.11l16.44,85.41s28.77,6.4,78.1,0l10.28-85.41S1070.89,657.87,1023.62,630.11Z"/><path class="cls-11" d="M1023.62,625.62s39.63,33.12,104.82,0C1128.44,625.62,1078.6,611.25,1023.62,625.62Z"/><path class="cls-12" d="M1107.63,629.21s22-10.88,29.21-104.23c1.84-23.86-.93-21.62-3.11-22.6-2.81-1.26-16.87-4-21.71,10.74-6.11,18.67-10.89,42-10.89,42s-4.25,21.12-6.81,42C1092.1,615.16,1102.86,624.72,1107.63,629.21Z"/><path class="cls-12" d="M1066.48,630.15s23.48-10.33,29.22-113.6c3.82-68.71-13.18-34.72-25-4.27a172.5,172.5,0,0,0-8.43,30.84,257.19,257.19,0,0,0-6,42.24c-.82,16.31,1.58,31.66,4.48,39.91Z"/><ellipse class="cls-13" cx="1080.82" cy="555.5" rx="74.96" ry="3.17" transform="translate(334.47 1514.52) rotate(-79.31)"/><ellipse class="cls-13" cx="1067.56" cy="550.5" rx="55.25" ry="1.91" transform="translate(328.59 1497.43) rotate(-79.31)"/><ellipse class="cls-13" cx="1106.84" cy="561.99" rx="58.1" ry="2.41" transform="translate(395.4 1579.23) rotate(-81.95)"/><ellipse class="cls-13" cx="1121.2" cy="561.44" rx="61.63" ry="2.1" transform="translate(408.3 1592.98) rotate(-81.95)"/><ellipse class="cls-14" cx="1072.49" cy="623.51" rx="9.51" ry="5.74"/><ellipse class="cls-14" cx="1099.85" cy="622.22" rx="5.83" ry="3.86"/><ellipse class="cls-14" cx="1109.62" cy="625.71" rx="6.11" ry="6.35"/><ellipse class="cls-14" cx="1062.22" cy="621.68" rx="3.54" ry="3.68"/><ellipse class="cls-14" cx="1084.59" cy="626.07" rx="4.74" ry="4.92"/><ellipse class="cls-14" cx="1056.08" cy="625.71" rx="6.13" ry="3.86"/><ellipse class="cls-14" cx="1045.62" cy="623.51" rx="4.16" ry="3.06"/><ellipse class="cls-14" cx="1063.51" cy="630.44" rx="4.83" ry="5.84"/><ellipse class="cls-14" cx="1090.32" cy="623.51" rx="5.73" ry="6.77"/><polygon class="cls-15" points="1118.17 655.38 1082.84 664.37 1082 660.81 1117.33 651.81 1118.17 655.38"/><polygon class="cls-15" points="1071.8 670.72 1041.37 661.28 1040.36 664.8 1070.79 674.24 1071.8 670.72"/><polygon class="cls-15" points="1107.93 674.08 1086.39 681.7 1085.48 678.92 1107.02 671.29 1107.93 674.08"/><polygon class="cls-15" points="1075.57 658.82 1035.72 650.14 1036.59 645.83 1076.44 654.5 1075.57 658.82"/><polygon class="cls-15" points="1101.72 696 1084.4 702.13 1083.25 698.65 1100.57 692.52 1101.72 696"/><polygon class="cls-15" points="1065.62 696.6 1050.71 691.97 1051.72 688.45 1066.64 693.08 1065.62 696.6"/><path class="cls-16" d="M769,837.16,620.2,805.54c-2.17-.46-3.81-2.31-3.7-4.13l1.28-21.36c.11-1.82,2-3.24,4.14-3.16l150.36,5.72c8.24.32,15.12,3.63,14.9,7.35l-2.62,43.65C784.3,837.33,777.12,838.85,769,837.16Z"/><path class="cls-16" d="M568.59,768.62a58.63,58.63,0,0,1,6.89-1.8,53.19,53.19,0,0,1,17.35-.6c6.38.91,16.49,2.35,23.86,11.46.65.8,10.28,12.93,6.7,19.64-4.31,8.08-25.28,3.46-38.82.47a161.93,161.93,0,0,1-35.16-12.1"/><path class="cls-16" d="M745,810.49l6.59,186.13c.1,2.71-1.62,5.33-3.82,5.89L722,1009c-2.2.56-4.44-1.06-5-3.65L679.23,827.18c-2.08-9.77-.18-19.08,4.31-20.22l52.64-13.35C740.67,792.47,744.65,800.29,745,810.49Z"/><path class="cls-17" d="M888.71,1004.85H735c-2.92,0-5.75-5.7-6.29-12.76L708.35,727.2c-.85-11.07,1.51-20.28,5.24-20.28H910.08c3.73,0,6.08,9.25,5.23,20.28L895,992.09C894.47,999.15,891.64,1004.85,888.71,1004.85Z"/><path class="cls-17" d="M749.25,809.4l-64.58,6.45c-6.65.36-12.77-3.86-15.24-10.51l-26.08-79.19c-2.11-6.45,1.3-12.13,7.58-12.76l64.58-6.45c6.65-.37,12.77,3.86,15.24,10.51l26.08,79.17C758.94,803,755.53,808.72,749.25,809.4Z"/><path class="cls-17" d="M902.73,706.92h25.51c6.63,0,12,5.91,12,13.21V781c0,7.3-5.37,13.21-12,13.21H902.73c-6.63,0-12-5.91-12-13.21V720.13C890.73,712.85,896.1,706.92,902.73,706.92Z"/><path class="cls-16" d="M836.83,713.31H800.29c-4.15,0-6.85-7.71-6.07-16.59l5.25-59.56c.46-5.17,3.21-9.21,6.15-9.21H831.5c2.93,0,5.69,4,6.15,9.21l5.25,59.56C843.68,705.6,841,713.31,836.83,713.31Z"/><rect class="cls-16" x="753.56" y="434.73" width="116.56" height="209.17" rx="12"/><path d="M749.93,414.76c-3.22,11.9,21.32,37.62,24.35,40.8,15.63,16.39,28.09,21.62,34.38,25.77,43.55,28.68,32.9,163.88,50.15,167.49,16.54,3.46,61.82-113.37,33-180.38-15.57-36.14-46.5-43.33-100.29-55.82C777.71,409.42,752.86,403.85,749.93,414.76Z"/><path class="cls-6" d="M991,1005.15H880.26c-5.18,0-8.85-7.43-8.18-16.34l14.35-191.24c.39-5.24,3.88-9.47,7.75-9.47h82.88c3.88,0,7.36,4.23,7.76,9.47l14.35,191.28C999.84,997.72,996.16,1005.15,991,1005.15Z"/><rect x="1488.65" y="841.91" width="29.52" height="162.94"/><path class="cls-5" d="M445.59,73c-3.9-5.2-8.5-5.7-10.9-5.7-7,0-9.2,4.4-9.2,7.8a5.62,5.62,0,0,0,2.1,4.5c1.6,1.5,3.8,2.3,8,3.8,5.2,1.8,10.1,3.6,13.5,6.7,3,2.7,5.7,7.2,5.7,14,0,13-9.4,21.9-23.2,21.9-12.3,0-19.5-7.5-23-12.6l8.5-8.1a15.64,15.64,0,0,0,14,8.9c5.9,0,10.3-3.6,10.3-9.2a7.75,7.75,0,0,0-2.6-6c-2.5-2.3-6.5-3.6-10.3-4.9-3.5-1.2-7.7-2.8-11.1-5.8-2.2-1.9-5.3-5.6-5.3-12.4,0-9.8,6.6-19.61,21.4-19.61a25.63,25.63,0,0,1,18.9,7.81Z"/><path class="cls-5" d="M479.19,83.55h28.2V57.74h13v66.71h-13V94.75h-28.2v29.7h-13V57.74h13Z"/><path class="cls-5" d="M575.09,110.45h-26.9l-5.9,14h-14.1l28.7-66.71h10.2L595,124.45H581Zm-3.8-10.6-9.5-24-9.5,24Z"/><path class="cls-5" d="M622.09,57.74c9.2,0,13.9,2.41,17,5a19,19,0,0,1,6.6,15c0,6.5-2.6,12.2-7.8,15.7a18.49,18.49,0,0,1-7.3,2.9l20.8,28.1h-16.2l-17.8-26.8h-1.6v26.8h-13V57.74Zm-6.3,30.71h3.7c2.5,0,12.8-.3,12.8-10.1s-10.2-10-12.6-10h-3.9Z"/><path class="cls-5" d="M697.19,69h-24v14.9h23v11.2h-23v18.2h24v11.2h-37V57.74h37Z"/><path class="cls-5" d="M758.69,124.45h-9.81l-23.2-66.71h13.8l14.9,45.41,16.31-46h7.2l15.4,46,16-45.41h13.8l-24.7,66.71h-9.8L774,82.15Z"/><path class="cls-5" d="M843.88,57.74v66.71h-13V57.74Z"/><path class="cls-5" d="M880.09,69v55.5h-13V69h-15V57.74h43V69Z"/><path class="cls-5" d="M916.28,83.55h28.2V57.74h13v66.71h-13V94.75h-28.2v29.7h-13V57.74h13Z"/><path class="cls-5" d="M1044.38,122.05a34.54,34.54,0,0,1-16.5,3.9c-11.7,0-18.8-4-24.4-9.3-7.7-7.4-10.7-15.7-10.7-25.5,0-12.1,5-20.8,10.7-26.1,6.7-6.31,15-8.81,24.5-8.81a33.44,33.44,0,0,1,16.4,4.11v15.2a21.45,21.45,0,0,0-16.1-7.5c-13.4,0-22.1,11-22.1,23.3,0,14.8,11.4,22.8,22.6,22.8a20.2,20.2,0,0,0,15.6-7.3Z"/><path class="cls-5" d="M1095.88,110.45H1069l-5.9,14H1049l28.7-66.71h10.2l27.9,66.71h-14Zm-3.8-10.6-9.5-24-9.5,24Z"/><path class="cls-5" d="M1142.88,57.74c9.2,0,13.9,2.41,17,5a19,19,0,0,1,6.6,15c0,6.5-2.6,12.2-7.8,15.7a18.49,18.49,0,0,1-7.3,2.9l20.8,28.1H1156l-17.8-26.8h-1.6v26.8h-13V57.74Zm-6.3,30.71h3.7c2.5,0,12.8-.3,12.8-10.1s-10.2-10-12.6-10h-3.9Z"/><path class="cls-5" d="M1218,69h-24v14.9h23v11.2h-23v18.2h24v11.2h-37V57.74h37Z"/></g></svg>
