<svg id="Layer_1" data-name="Layer 1" xmlns="http://www.w3.org/2000/svg" width="500" height="100" viewBox="0 0 500 100"><defs><style>.cls-1{fill:#fff;}.cls-2{fill:#89cce5;}.cls-3{fill:none;}.cls-4{fill:#e9eced;}</style></defs><title>toggle_sprite</title><path class="cls-1" d="M30.28,32.14H69.72C79.28,32.14,87,40.18,87,50h0c0,9.82-7.72,17.86-17.28,17.86H30.28C20.72,67.86,13,59.82,13,50h0A17.52,17.52,0,0,1,30.28,32.14Z"/><path class="cls-2" d="M31.85,34h36.3a16,16,0,0,1,15.9,16h0a16,16,0,0,1-15.9,16H31.85A16,16,0,0,1,16,50h0A15.9,15.9,0,0,1,31.85,34Z"/><circle class="cls-1" cx="67.55" cy="50" r="13.5"/><rect class="cls-3" width="100" height="100"/><path class="cls-1" d="M130.28,32.14h39.44c9.56,0,17.28,8,17.28,17.86h0c0,9.82-7.72,17.86-17.28,17.86H130.28c-9.56,0-17.28-8-17.28-17.86h0A17.52,17.52,0,0,1,130.28,32.14Z"/><path class="cls-2" d="M131.85,34h36.3a16,16,0,0,1,15.9,16h0a16,16,0,0,1-15.9,16h-36.3A16,16,0,0,1,116,50h0A15.9,15.9,0,0,1,131.85,34Z"/><circle class="cls-1" cx="159.55" cy="50" r="13.5"/><rect class="cls-3" x="100" width="100" height="100"/><path class="cls-1" d="M230.28,32.14h39.44c9.56,0,17.28,8,17.28,17.86h0c0,9.82-7.72,17.86-17.28,17.86H230.28c-9.56,0-17.28-8-17.28-17.86h0A17.52,17.52,0,0,1,230.28,32.14Z"/><path class="cls-2" d="M231.85,34h36.3a16,16,0,0,1,15.9,16h0a16,16,0,0,1-15.9,16h-36.3A16,16,0,0,1,216,50h0A15.9,15.9,0,0,1,231.85,34Z"/><circle class="cls-1" cx="250.55" cy="50" r="13.5"/><rect class="cls-3" x="200" width="100" height="100"/><path class="cls-1" d="M330.28,32.14h39.44c9.56,0,17.28,8,17.28,17.86h0c0,9.82-7.72,17.86-17.28,17.86H330.28c-9.56,0-17.28-8-17.28-17.86h0A17.52,17.52,0,0,1,330.28,32.14Z"/><path class="cls-2" d="M331.85,34h36.3a16,16,0,0,1,15.9,16h0a16,16,0,0,1-15.9,16h-36.3A16,16,0,0,1,316,50h0A15.9,15.9,0,0,1,331.85,34Z"/><circle class="cls-1" cx="340.55" cy="50" r="13.5"/><rect class="cls-3" x="300" width="100" height="100"/><path class="cls-1" d="M469.72,32.14H430.28c-9.56,0-17.28,8-17.28,17.86h0c0,9.82,7.72,17.86,17.28,17.86h39.44c9.56,0,17.28-8,17.28-17.86h0A17.52,17.52,0,0,0,469.72,32.14Z"/><path class="cls-4" d="M468.15,34h-36.3A16,16,0,0,0,416,50h0a16,16,0,0,0,15.9,16h36.3a16,16,0,0,0,15.9-16h0A15.9,15.9,0,0,0,468.15,34Z"/><circle class="cls-1" cx="432.45" cy="50" r="13.5"/><rect class="cls-3" x="400" width="100" height="100"/></svg>
