<svg xmlns="http://www.w3.org/2000/svg" width="240" height="180" viewBox="0 0 240 180"><defs><style>.cls-1{fill:#152230;}.cls-2{fill:#fff;}.cls-3{fill:#89cce5;}</style></defs><title>videresend_knap</title><g id="Layer_3" data-name="Layer 3"><rect class="cls-1" x="1" y="1.5" width="238" height="177" rx="16.8" ry="16.8"/><path class="cls-2" d="M35.06,134l6.39,17.3L47.84,134h2.79l-9.18,24-9.18-24Z"/><path class="cls-2" d="M56.34,134v22.67H53.83V134Z"/><path class="cls-2" d="M62.19,134h4.62a12.37,12.37,0,0,1,8.37,2.65,11,11,0,0,1,3.87,8.7,10.82,10.82,0,0,1-4,8.71c-2.08,1.77-4.25,2.61-8.3,2.61H62.19Zm2.52,20.29h2.21a9.66,9.66,0,0,0,6.49-2,8.66,8.66,0,0,0,3.06-6.9c0-5.44-3.81-9-9.55-9H64.71Z"/><path class="cls-2" d="M95.44,136.34H86.19v6.73h9v2.38h-9v8.8h9.25v2.38H83.68V134H95.44Z"/><path class="cls-2" d="M103.7,134a9.92,9.92,0,0,1,5.51,1.26A6.3,6.3,0,0,1,106,146.5l7.21,10.13h-3.06l-6.9-9.92h-.65v9.92h-2.51V134Zm-1.12,10.5h1.6c3.13,0,5-1.49,5-4.14a3.55,3.55,0,0,0-1.8-3.34,6.57,6.57,0,0,0-3.27-.64h-1.53Z"/><path class="cls-2" d="M128.9,136.34h-9.25v6.73h9v2.38h-9v8.8h9.25v2.38H117.13V134H128.9Z"/><path class="cls-2" d="M143.65,138.45a5.19,5.19,0,0,0-1.32-1.7,4.07,4.07,0,0,0-2.55-.79,3.48,3.48,0,0,0-3.81,3.51,2.39,2.39,0,0,0,.85,2,7.52,7.52,0,0,0,2.38,1.43l2.18.95a11.12,11.12,0,0,1,3.5,2.14,5.48,5.48,0,0,1,1.63,4.11,7.28,7.28,0,0,1-12.1,5.14,8.15,8.15,0,0,1-2.11-4l2.45-.68a5.32,5.32,0,0,0,1.36,2.89,4.65,4.65,0,0,0,7.82-3.23,3.4,3.4,0,0,0-1.13-2.66,9.76,9.76,0,0,0-2.72-1.56l-2-1a10.23,10.23,0,0,1-3-1.87,4.71,4.71,0,0,1-1.57-3.71c0-3.5,2.69-5.85,6.36-5.85a6.13,6.13,0,0,1,3.64,1,6.78,6.78,0,0,1,2.21,2.51Z"/><path class="cls-2" d="M162.9,136.34h-9.25v6.73h9v2.38h-9v8.8h9.25v2.38H151.13V134H162.9Z"/><path class="cls-2" d="M167.52,156.63V133l17.68,18.53V134h2.52v23.69L170,139.13v17.5Z"/><path class="cls-2" d="M193.57,134h4.62a12.33,12.33,0,0,1,8.36,2.65,11,11,0,0,1,3.88,8.7,10.83,10.83,0,0,1-4,8.71c-2.07,1.77-4.25,2.61-8.3,2.61h-4.58Zm2.51,20.29h2.21a9.66,9.66,0,0,0,6.49-2,8.66,8.66,0,0,0,3.06-6.9c0-5.44-3.8-9-9.55-9h-2.21Z"/><path class="cls-2" d="M47.66,101.72l-.18-62.51a1.64,1.64,0,0,1,2.66-1.3L90.27,69.38a1.65,1.65,0,0,1,0,2.59L50.31,103A1.64,1.64,0,0,1,47.66,101.72Z"/><path class="cls-2" d="M156.22,101.22l.34-61a1.92,1.92,0,0,0-3.09-1.53L113.55,69.5a1.92,1.92,0,0,0,0,3l39.58,30.19A1.92,1.92,0,0,0,156.22,101.22Z"/><path class="cls-2" d="M98.81,73,50.16,35.2a2.11,2.11,0,0,1,1.3-3.77L153,31.58a2.1,2.1,0,0,1,1.28,3.77L105.11,73A5.15,5.15,0,0,1,98.81,73Z"/><path class="cls-2" d="M148.32,104.19H55.51a1.08,1.08,0,0,1-.66-1.94l38.71-30a1.11,1.11,0,0,1,1.3,0L101.48,77a1.08,1.08,0,0,0,1.3,0l5.51-4.29a1.1,1.1,0,0,1,1.32,0L149,102.24A1.08,1.08,0,0,1,148.32,104.19Z"/><path class="cls-3" d="M212.78,68.19,177.36,44.66a2.73,2.73,0,0,0-4.25,2.27V57.52H133.48a4.57,4.57,0,0,0-4.57,4.57V79.23a4.58,4.58,0,0,0,4.57,4.58h39.6V93.92a2.74,2.74,0,0,0,4.25,2.28l35.45-23.45A2.73,2.73,0,0,0,212.78,68.19Z"/></g></svg>
