<svg id="Layer_1" data-name="Layer 1" xmlns="http://www.w3.org/2000/svg" width="170" height="70" viewBox="0 0 170 70"><defs><style>.cls-1{fill:#152230;}.cls-2{fill:#fff;}</style></defs><title>videre_knap</title><rect class="cls-1" x="4.5" y="2.5" width="161" height="65" rx="16.8" ry="16.8"/><path class="cls-2" d="M38.45,24l6.39,17.3L51.23,24H54L44.84,48,35.66,24Z"/><path class="cls-2" d="M59.73,24V46.63H57.21V24Z"/><path class="cls-2" d="M65.58,24H70.2a12.33,12.33,0,0,1,8.36,2.65,11,11,0,0,1,3.88,8.7,10.83,10.83,0,0,1-4,8.71c-2.07,1.77-4.25,2.61-8.29,2.61H65.58Zm2.51,20.29H70.3a9.69,9.69,0,0,0,6.5-2,8.66,8.66,0,0,0,3.06-6.9c0-5.44-3.81-9-9.56-9H68.09Z"/><path class="cls-2" d="M98.83,26.34H89.58v6.73h9v2.38h-9v8.8h9.25v2.38H87.06V24H98.83Z"/><path class="cls-2" d="M107.09,24a9.92,9.92,0,0,1,5.51,1.26,5.91,5.91,0,0,1,2.48,5,6,6,0,0,1-5.71,6.25l7.21,10.13h-3.06l-6.91-9.92H106v9.92h-2.52V24ZM106,34.46h1.6c3.12,0,5-1.49,5-4.14a3.54,3.54,0,0,0-1.8-3.34,6.53,6.53,0,0,0-3.26-.64H106Z"/><path class="cls-2" d="M132.28,26.34H123v6.73h9v2.38h-9v8.8h9.24v2.38H120.52V24h11.76Z"/></svg>
